  0
SECTION
  2
HEADER
  9
$ACADVER
  1
AC1014
  9
$HANDSEED
  5
FFFF
  9
$INSUNITS
 70
     0
  9
$MEASUREMENT
 70
     1
  0
ENDSEC
  0
SECTION
  2
TABLES
  0
TABLE
  2
VPORT
  5
8
330
0
100
AcDbSymbolTable
 70
     4
  0
VPORT
  5
2E
330
8
100
AcDbSymbolTableRecord
100
AcDbViewportTableRecord
  2
*ACTIVE
 70
     0
 10
0.0
 20
0.0
 11
1.0
 21
1.0
 12
210.0
 22
148.5
 13
0.0
 23
0.0
 14
10.0
 24
10.0
 15
10.0
 25
10.0
 16
0.0
 26
0.0
 36
1.0
 17
0.0
 27
0.0
 37
0.0
 40
341.0
 41
1.24
 42
50.0
 43
0.0
 44
0.0
 50
0.0
 51
0.0
 71
     0
 72
   100
 73
     1
 74
     3
 75
     0
 76
     0
 77
     0
 78
     0
  0
ENDTAB
  0
TABLE
  2
LTYPE
  5
5
330
0
100
AcDbSymbolTable
 70
     1
  0
LTYPE
  5
14
330
5
100
AcDbSymbolTableRecord
100
AcDbLinetypeTableRecord
  2
BYBLOCK
 70
     0
  3

 72
    65
 73
     0
 40
0.0
  0
LTYPE
  5
15
330
5
100
AcDbSymbolTableRecord
100
AcDbLinetypeTableRecord
  2
BYLAYER
 70
     0
  3

 72
    65
 73
     0
 40
0.0
  0
LTYPE
  5
16
330
5
100
AcDbSymbolTableRecord
100
AcDbLinetypeTableRecord
  2
CONTINUOUS
 70
     0
  3
Solid line
 72
    65
 73
     0
 40
0.0
  0
ENDTAB
  0
TABLE
  2
LAYER
  5
2
100
AcDbSymbolTable
 70
2
  0
LAYER
  5
50
100
AcDbSymbolTableRecord
100
AcDbLayerTableRecord
  2
0
 70
0
  6
CONTINUOUS
  0
LAYER
  5
51
100
AcDbSymbolTableRecord
100
AcDbLayerTableRecord
  2
Layer_1
 70
0
  6
CONTINUOUS
  0
ENDTAB
  0
TABLE
  2
STYLE
  5
3
330
0
100
AcDbSymbolTable
 70
     1
  0
STYLE
  5
11
330
3
100
AcDbSymbolTableRecord
100
AcDbTextStyleTableRecord
  2
STANDARD
 70
     0
 40
0.0
 41
1.0
 50
0.0
 71
     0
 42
2.5
  3
txt
  4

  0
ENDTAB
  0
TABLE
  2
VIEW
  5
6
330
0
100
AcDbSymbolTable
 70
     0
  0
ENDTAB
  0
TABLE
  2
UCS
  5
7
330
0
100
AcDbSymbolTable
 70
     0
  0
ENDTAB
  0
TABLE
  2
APPID
  5
9
330
0
100
AcDbSymbolTable
 70
     2
  0
APPID
  5
12
330
9
100
AcDbSymbolTableRecord
100
AcDbRegAppTableRecord
  2
ACAD
 70
     0
  0
ENDTAB
  0
TABLE
  2
DIMSTYLE
  5
A
330
0
100
AcDbSymbolTable
 70
     1
  0
DIMSTYLE
105
27
330
A
100
AcDbSymbolTableRecord
100
AcDbDimStyleTableRecord
  2
ISO-25
 70
     0
  3

  4

  5

  6

  7

 40
1.0
 41
2.5
 42
0.625
 43
3.75
 44
1.25
 45
0.0
 46
0.0
 47
0.0
 48
0.0
140
2.5
141
2.5
142
0.0
143
0.03937007874016
144
1.0
145
0.0
146
1.0
147
0.625
 71
     0
 72
     0
 73
     0
 74
     0
 75
     0
 76
     0
 77
     1
 78
     8
170
     0
171
     3
172
     1
173
     0
174
     0
175
     0
176
     0
177
     0
178
     0
270
     2
271
     2
272
     2
273
     2
274
     3
340
11
275
     0
280
     0
281
     0
282
     0
283
     0
284
     8
285
     0
286
     0
287
     3
288
     0
  0
ENDTAB
  0
TABLE
  2
BLOCK_RECORD
  5
1
330
0
100
AcDbSymbolTable
 70
     1
  0
BLOCK_RECORD
  5
1F
330
1
100
AcDbSymbolTableRecord
100
AcDbBlockTableRecord
  2
*MODEL_SPACE
  0
BLOCK_RECORD
  5
1B
330
1
100
AcDbSymbolTableRecord
100
AcDbBlockTableRecord
  2
*PAPER_SPACE
  0
ENDTAB
  0
ENDSEC
  0
SECTION
  2
BLOCKS
  0
BLOCK
  5
20
330
1F
100
AcDbEntity
  8
0
100
AcDbBlockBegin
  2
*MODEL_SPACE
 70
     0
 10
0.0
 20
0.0
 30
0.0
  3
*MODEL_SPACE
  1

  0
ENDBLK
  5
21
330
1F
100
AcDbEntity
  8
0
100
AcDbBlockEnd
  0
BLOCK
  5
1C
330
1B
100
AcDbEntity
 67
     1
  8
0
100
AcDbBlockBegin
  2
*PAPER_SPACE
  1

  0
ENDBLK
  5
1D
330
1B
100
AcDbEntity
 67
     1
  8
0
100
AcDbBlockEnd
  0
ENDSEC
  0
SECTION
  2
ENTITIES
  0
SPLINE
  5
100
100
AcDbEntity
  8
Layer_1
 62
5
100
AcDbSpline
 70
8
 71
3
 72
8
 73
4
 74
0
 40
0
 40
0
 40
0
 40
0
 40
1
 40
1
 40
1
 40
1
 10
-11.821626
 20
212.720929
 30
0.0
 10
-12.351102
 20
212.703175
 30
0.0
 10
-12.854767
 20
212.386906
 30
0.0
 10
-13.100099
 20
211.917361
 30
0.0
  0
SPLINE
  5
101
100
AcDbEntity
  8
Layer_1
 62
5
100
AcDbSpline
 70
8
 71
3
 72
8
 73
4
 74
0
 40
0
 40
0
 40
0
 40
0
 40
1
 40
1
 40
1
 40
1
 10
-13.100099
 20
211.917361
 30
0.0
 10
-13.367362
 20
211.433264
 30
0.0
 10
-13.254896
 20
210.863130
 30
0.0
 10
-13.278899
 20
210.334721
 30
0.0
  0
SPLINE
  5
102
100
AcDbEntity
  8
Layer_1
 62
5
100
AcDbSpline
 70
8
 71
3
 72
8
 73
4
 74
0
 40
0
 40
0
 40
0
 40
0
 40
1
 40
1
 40
1
 40
1
 10
-13.278899
 20
210.334721
 30
0.0
 10
-13.277576
 20
192.282323
 30
0.0
 10
-13.277841
 20
174.235127
 30
0.0
 10
-13.278899
 20
156.182661
 30
0.0
  0
SPLINE
  5
103
100
AcDbEntity
  8
Layer_1
 62
5
100
AcDbSpline
 70
8
 71
3
 72
8
 73
4
 74
0
 40
0
 40
0
 40
0
 40
0
 40
1
 40
1
 40
1
 40
1
 10
-13.278899
 20
156.182661
 30
0.0
 10
-13.276518
 20
149.754088
 30
0.0
 10
-13.283715
 20
143.324933
 30
0.0
 10
-13.275274
 20
136.896730
 30
0.0
  0
SPLINE
  5
104
100
AcDbEntity
  8
Layer_1
 62
5
100
AcDbSpline
 70
8
 71
3
 72
8
 73
4
 74
0
 40
0
 40
0
 40
0
 40
0
 40
1
 40
1
 40
1
 40
1
 10
-13.275274
 20
136.896730
 30
0.0
 10
-13.257309
 20
136.377009
 30
0.0
 10
-12.947353
 20
135.882133
 30
0.0
 10
-12.485658
 20
135.642024
 30
0.0
  0
SPLINE
  5
105
100
AcDbEntity
  8
Layer_1
 62
5
100
AcDbSpline
 70
8
 71
3
 72
8
 73
4
 74
0
 40
0
 40
0
 40
0
 40
0
 40
1
 40
1
 40
1
 40
1
 10
-12.485658
 20
135.642024
 30
0.0
 10
-12.005197
 20
135.377388
 30
0.0
 10
-11.439134
 20
135.490180
 30
0.0
 10
-10.914903
 20
135.465812
 30
0.0
  0
LINE
  5
106
100
AcDbEntity
  8
Layer_1
 62
5
100
AcDbLine
 10
-10.914903
 20
135.465812
 30
0.0
 11
229.161303
 21
135.465812
 31
0.0
  0
SPLINE
  5
107
100
AcDbEntity
  8
Layer_1
 62
5
100
AcDbSpline
 70
8
 71
3
 72
8
 73
4
 74
0
 40
0
 40
0
 40
0
 40
0
 40
1
 40
1
 40
1
 40
1
 10
229.161303
 20
135.465812
 30
0.0
 10
229.951361
 20
135.459462
 30
0.0
 10
230.659734
 20
136.152961
 30
0.0
 10
230.667397
 20
136.943402
 30
0.0
  0
SPLINE
  5
108
100
AcDbEntity
  8
Layer_1
 62
5
100
AcDbSpline
 70
8
 71
3
 72
8
 73
4
 74
0
 40
0
 40
0
 40
0
 40
0
 40
1
 40
1
 40
1
 40
1
 10
230.667397
 20
136.943402
 30
0.0
 10
230.671657
 20
161.696597
 30
0.0
 10
230.667926
 20
186.449948
 30
0.0
 10
230.669249
 20
211.203206
 30
0.0
  0
SPLINE
  5
109
100
AcDbEntity
  8
Layer_1
 62
5
100
AcDbSpline
 70
8
 71
3
 72
8
 73
4
 74
0
 40
0
 40
0
 40
0
 40
0
 40
1
 40
1
 40
1
 40
1
 10
230.669249
 20
211.203206
 30
0.0
 10
230.655200
 20
211.638096
 30
0.0
 10
230.462083
 20
212.062265
 30
0.0
 10
230.129746
 20
212.345771
 30
0.0
  0
SPLINE
  5
10a
100
AcDbEntity
  8
Layer_1
 62
5
100
AcDbSpline
 70
8
 71
3
 72
8
 73
4
 74
0
 40
0
 40
0
 40
0
 40
0
 40
1
 40
1
 40
1
 40
1
 10
230.129746
 20
212.345771
 30
0.0
 10
229.798514
 20
212.641654
 30
0.0
 10
229.343323
 20
212.749620
 30
0.0
 10
228.906774
 20
212.723524
 30
0.0
  0
SPLINE
  5
10b
100
AcDbEntity
  8
Layer_1
 62
5
100
AcDbSpline
 70
8
 71
3
 72
8
 73
4
 74
0
 40
0
 40
0
 40
0
 40
0
 40
1
 40
1
 40
1
 40
1
 10
228.906774
 20
212.723524
 30
0.0
 10
148.673805
 20
212.723527
 30
0.0
 10
68.440836
 20
212.723524
 30
0.0
 10
-11.792133
 20
212.723527
 30
0.0
  0
LINE
  5
10c
100
AcDbEntity
  8
Layer_1
 62
5
100
AcDbLine
 10
-11.792133
 20
212.723527
 30
0.0
 11
-11.818459
 21
212.720749
 31
0.0
  0
LINE
  5
10d
100
AcDbEntity
  8
Layer_1
 62
5
100
AcDbLine
 10
-11.818459
 20
212.720749
 30
0.0
 11
-11.821626
 21
212.720929
 31
0.0
  0
SPLINE
  5
10e
100
AcDbEntity
  8
Layer_1
 62
5
100
AcDbSpline
 70
8
 71
3
 72
8
 73
4
 74
0
 40
0
 40
0
 40
0
 40
0
 40
1
 40
1
 40
1
 40
1
 10
238.312147
 20
212.720929
 30
0.0
 10
237.780004
 20
212.703837
 30
0.0
 10
237.273955
 20
212.385990
 30
0.0
 10
237.027988
 20
211.913744
 30
0.0
  0
SPLINE
  5
10f
100
AcDbEntity
  8
Layer_1
 62
5
100
AcDbSpline
 70
8
 71
3
 72
8
 73
4
 74
0
 40
0
 40
0
 40
0
 40
0
 40
1
 40
1
 40
1
 40
1
 10
237.027988
 20
211.913744
 30
0.0
 10
236.759820
 20
211.429621
 30
0.0
 10
236.872919
 20
210.857960
 30
0.0
 10
236.848670
 20
210.329035
 30
0.0
  0
SPLINE
  5
110
100
AcDbEntity
  8
Layer_1
 62
5
100
AcDbSpline
 70
8
 71
3
 72
8
 73
4
 74
0
 40
0
 40
0
 40
0
 40
0
 40
1
 40
1
 40
1
 40
1
 10
236.848670
 20
210.329035
 30
0.0
 10
236.848672
 20
185.872265
 30
0.0
 10
236.848670
 20
161.415504
 30
0.0
 10
236.848670
 20
136.958748
 30
0.0
  0
SPLINE
  5
111
100
AcDbEntity
  8
Layer_1
 62
5
100
AcDbSpline
 70
8
 71
3
 72
8
 73
4
 74
0
 40
0
 40
0
 40
0
 40
0
 40
1
 40
1
 40
1
 40
1
 10
236.848670
 20
136.958748
 30
0.0
 10
236.861396
 20
136.430852
 30
0.0
 10
237.159473
 20
135.916714
 30
0.0
 10
237.627224
 20
135.665546
 30
0.0
  0
SPLINE
  5
112
100
AcDbEntity
  8
Layer_1
 62
5
100
AcDbSpline
 70
8
 71
3
 72
8
 73
4
 74
0
 40
0
 40
0
 40
0
 40
0
 40
1
 40
1
 40
1
 40
1
 10
237.627224
 20
135.665546
 30
0.0
 10
238.097075
 20
135.378129
 30
0.0
 10
238.668519
 20
135.487270
 30
0.0
 10
239.191264
 20
135.465812
 30
0.0
  0
LINE
  5
113
100
AcDbEntity
  8
Layer_1
 62
5
100
AcDbLine
 10
239.191264
 20
135.465812
 30
0.0
 11
293.566586
 21
135.465812
 31
0.0
  0
SPLINE
  5
114
100
AcDbEntity
  8
Layer_1
 62
5
100
AcDbSpline
 70
8
 71
3
 72
8
 73
4
 74
0
 40
0
 40
0
 40
0
 40
0
 40
1
 40
1
 40
1
 40
1
 10
293.566586
 20
135.465812
 30
0.0
 10
294.094218
 20
135.480099
 30
0.0
 10
294.607562
 20
135.776803
 30
0.0
 10
294.859445
 20
136.244242
 30
0.0
  0
SPLINE
  5
115
100
AcDbEntity
  8
Layer_1
 62
5
100
AcDbSpline
 70
8
 71
3
 72
8
 73
4
 74
0
 40
0
 40
0
 40
0
 40
0
 40
1
 40
1
 40
1
 40
1
 10
294.859445
 20
136.244242
 30
0.0
 10
295.149084
 20
136.723084
 30
0.0
 10
295.036266
 20
137.303526
 30
0.0
 10
295.058993
 20
137.834862
 30
0.0
  0
LINE
  5
116
100
AcDbEntity
  8
Layer_1
 62
5
100
AcDbLine
 10
295.058993
 20
137.834862
 30
0.0
 11
295.058993
 21
211.232649
 31
0.0
  0
SPLINE
  5
117
100
AcDbEntity
  8
Layer_1
 62
5
100
AcDbSpline
 70
8
 71
3
 72
8
 73
4
 74
0
 40
0
 40
0
 40
0
 40
0
 40
1
 40
1
 40
1
 40
1
 10
295.058993
 20
211.232649
 30
0.0
 10
295.043647
 20
211.750301
 30
0.0
 10
294.759088
 20
212.257612
 30
0.0
 10
294.302974
 20
212.510908
 30
0.0
  0
SPLINE
  5
118
100
AcDbEntity
  8
Layer_1
 62
5
100
AcDbSpline
 70
8
 71
3
 72
8
 73
4
 74
0
 40
0
 40
0
 40
0
 40
0
 40
1
 40
1
 40
1
 40
1
 10
294.302974
 20
212.510908
 30
0.0
 10
293.830614
 20
212.814411
 30
0.0
 10
293.246891
 20
212.702604
 30
0.0
 10
292.716402
 20
212.724029
 30
0.0
  0
SPLINE
  5
119
100
AcDbEntity
  8
Layer_1
 62
5
100
AcDbSpline
 70
8
 71
3
 72
8
 73
4
 74
0
 40
0
 40
0
 40
0
 40
0
 40
1
 40
1
 40
1
 40
1
 10
292.716402
 20
212.724029
 30
0.0
 10
274.591472
 20
212.724029
 30
0.0
 10
256.466536
 20
212.724027
 30
0.0
 10
238.341600
 20
212.724029
 30
0.0
  0
LINE
  5
11a
100
AcDbEntity
  8
Layer_1
 62
5
100
AcDbLine
 10
238.341600
 20
212.724029
 30
0.0
 11
238.315274
 21
212.721251
 31
0.0
  0
LINE
  5
11b
100
AcDbEntity
  8
Layer_1
 62
5
100
AcDbLine
 10
238.315274
 20
212.721251
 30
0.0
 11
238.312147
 21
212.720929
 31
0.0
  0
SPLINE
  5
11c
100
AcDbEntity
  8
Layer_1
 62
5
100
AcDbSpline
 70
8
 71
3
 72
8
 73
4
 74
0
 40
0
 40
0
 40
0
 40
0
 40
1
 40
1
 40
1
 40
1
 10
-11.842295
 20
239.011795
 30
0.0
 10
-12.374327
 20
238.994491
 30
0.0
 10
-12.873717
 20
238.669610
 30
0.0
 10
-13.115733
 20
238.197200
 30
0.0
  0
SPLINE
  5
11d
100
AcDbEntity
  8
Layer_1
 62
5
100
AcDbSpline
 70
8
 71
3
 72
8
 73
4
 74
0
 40
0
 40
0
 40
0
 40
0
 40
1
 40
1
 40
1
 40
1
 10
-13.115733
 20
238.197200
 30
0.0
 10
-13.365852
 20
237.709047
 30
0.0
 10
-13.253901
 20
237.145794
 30
0.0
 10
-13.278899
 20
236.619285
 30
0.0
  0
SPLINE
  5
11e
100
AcDbEntity
  8
Layer_1
 62
5
100
AcDbSpline
 70
8
 71
3
 72
8
 73
4
 74
0
 40
0
 40
0
 40
0
 40
0
 40
1
 40
1
 40
1
 40
1
 10
-13.278899
 20
236.619285
 30
0.0
 10
-13.276782
 20
231.192942
 30
0.0
 10
-13.283027
 20
225.766164
 30
0.0
 10
-13.275804
 20
220.340091
 30
0.0
  0
SPLINE
  5
11f
100
AcDbEntity
  8
Layer_1
 62
5
100
AcDbSpline
 70
8
 71
3
 72
8
 73
4
 74
0
 40
0
 40
0
 40
0
 40
0
 40
1
 40
1
 40
1
 40
1
 10
-13.275804
 20
220.340091
 30
0.0
 10
-13.257865
 20
219.818402
 30
0.0
 10
-12.946062
 20
219.322486
 30
0.0
 10
-12.483605
 20
219.080221
 30
0.0
  0
SPLINE
  5
120
100
AcDbEntity
  8
Layer_1
 62
5
100
AcDbSpline
 70
8
 71
3
 72
8
 73
4
 74
0
 40
0
 40
0
 40
0
 40
0
 40
1
 40
1
 40
1
 40
1
 10
-12.483605
 20
219.080221
 30
0.0
 10
-12.002604
 20
218.814238
 30
0.0
 10
-11.434936
 20
218.928218
 30
0.0
 10
-10.909749
 20
218.903487
 30
0.0
  0
LINE
  5
121
100
AcDbEntity
  8
Layer_1
 62
5
100
AcDbLine
 10
-10.909749
 20
218.903487
 30
0.0
 11
62.516373
 21
218.903487
 31
0.0
  0
SPLINE
  5
122
100
AcDbEntity
  8
Layer_1
 62
5
100
AcDbSpline
 70
8
 71
3
 72
8
 73
4
 74
0
 40
0
 40
0
 40
0
 40
0
 40
1
 40
1
 40
1
 40
1
 10
62.516373
 20
218.903487
 30
0.0
 10
63.036345
 20
218.916267
 30
0.0
 10
63.540902
 20
219.211062
 30
0.0
 10
63.788144
 20
219.671527
 30
0.0
  0
SPLINE
  5
123
100
AcDbEntity
  8
Layer_1
 62
5
100
AcDbSpline
 70
8
 71
3
 72
8
 73
4
 74
0
 40
0
 40
0
 40
0
 40
0
 40
1
 40
1
 40
1
 40
1
 10
63.788144
 20
219.671527
 30
0.0
 10
64.069785
 20
220.137706
 30
0.0
 10
63.960641
 20
220.702411
 30
0.0
 10
63.982432
 20
221.219726
 30
0.0
  0
SPLINE
  5
124
100
AcDbEntity
  8
Layer_1
 62
5
100
AcDbSpline
 70
8
 71
3
 72
8
 73
4
 74
0
 40
0
 40
0
 40
0
 40
0
 40
1
 40
1
 40
1
 40
1
 10
63.982432
 20
221.219726
 30
0.0
 10
63.980316
 20
226.672528
 30
0.0
 10
63.986560
 20
232.125763
 30
0.0
 10
63.979337
 20
237.578295
 30
0.0
  0
SPLINE
  5
125
100
AcDbEntity
  8
Layer_1
 62
5
100
AcDbSpline
 70
8
 71
3
 72
8
 73
4
 74
0
 40
0
 40
0
 40
0
 40
0
 40
1
 40
1
 40
1
 40
1
 10
63.979337
 20
237.578295
 30
0.0
 10
63.962033
 20
238.110324
 30
0.0
 10
63.637152
 20
238.609714
 30
0.0
 10
63.164741
 20
238.851733
 30
0.0
  0
SPLINE
  5
126
100
AcDbEntity
  8
Layer_1
 62
5
100
AcDbSpline
 70
8
 71
3
 72
8
 73
4
 74
0
 40
0
 40
0
 40
0
 40
0
 40
1
 40
1
 40
1
 40
1
 10
63.164741
 20
238.851733
 30
0.0
 10
62.676586
 20
239.101849
 30
0.0
 10
62.113336
 20
238.989898
 30
0.0
 10
61.586824
 20
239.014896
 30
0.0
  0
LINE
  5
127
100
AcDbEntity
  8
Layer_1
 62
5
100
AcDbLine
 10
61.586824
 20
239.014896
 30
0.0
 11
-11.812839
 21
239.014896
 31
0.0
  0
LINE
  5
128
100
AcDbEntity
  8
Layer_1
 62
5
100
AcDbLine
 10
-11.812839
 20
239.014896
 30
0.0
 11
-11.839165
 21
239.012118
 31
0.0
  0
LINE
  5
129
100
AcDbEntity
  8
Layer_1
 62
5
100
AcDbLine
 10
-11.839165
 20
239.012118
 30
0.0
 11
-11.842295
 21
239.011795
 31
0.0
  0
SPLINE
  5
12a
100
AcDbEntity
  8
Layer_1
 62
5
100
AcDbSpline
 70
8
 71
3
 72
8
 73
4
 74
0
 40
0
 40
0
 40
0
 40
0
 40
1
 40
1
 40
1
 40
1
 10
71.656379
 20
239.011795
 30
0.0
 10
71.119887
 20
238.993195
 30
0.0
 10
70.606260
 20
238.677738
 30
0.0
 10
70.353922
 20
238.202798
 30
0.0
  0
SPLINE
  5
12b
100
AcDbEntity
  8
Layer_1
 62
5
100
AcDbSpline
 70
8
 71
3
 72
8
 73
4
 74
0
 40
0
 40
0
 40
0
 40
0
 40
1
 40
1
 40
1
 40
1
 10
70.353922
 20
238.202798
 30
0.0
 10
70.075144
 20
237.720950
 30
0.0
 10
70.182890
 20
237.144786
 30
0.0
 10
70.161380
 20
236.613805
 30
0.0
  0
SPLINE
  5
12c
100
AcDbEntity
  8
Layer_1
 62
5
100
AcDbSpline
 70
8
 71
3
 72
8
 73
4
 74
0
 40
0
 40
0
 40
0
 40
0
 40
1
 40
1
 40
1
 40
1
 10
70.161380
 20
236.613805
 30
0.0
 10
70.163496
 20
231.203930
 30
0.0
 10
70.157252
 20
225.793625
 30
0.0
 10
70.164475
 20
220.384017
 30
0.0
  0
SPLINE
  5
12d
100
AcDbEntity
  8
Layer_1
 62
5
100
AcDbSpline
 70
8
 71
3
 72
8
 73
4
 74
0
 40
0
 40
0
 40
0
 40
0
 40
1
 40
1
 40
1
 40
1
 10
70.164475
 20
220.384017
 30
0.0
 10
70.182493
 20
219.845897
 30
0.0
 10
70.503438
 20
219.334202
 30
0.0
 10
70.980962
 20
219.084872
 30
0.0
  0
SPLINE
  5
12e
100
AcDbEntity
  8
Layer_1
 62
5
100
AcDbSpline
 70
8
 71
3
 72
8
 73
4
 74
0
 40
0
 40
0
 40
0
 40
0
 40
1
 40
1
 40
1
 40
1
 10
70.980962
 20
219.084872
 30
0.0
 10
71.468372
 20
218.815868
 30
0.0
 10
72.042229
 20
218.926707
 30
0.0
 10
72.574456
 20
218.903487
 30
0.0
  0
SPLINE
  5
12f
100
AcDbEntity
  8
Layer_1
 62
5
100
AcDbSpline
 70
8
 71
3
 72
8
 73
4
 74
0
 40
0
 40
0
 40
0
 40
0
 40
1
 40
1
 40
1
 40
1
 10
72.574456
 20
218.903487
 30
0.0
 10
97.025383
 20
218.904545
 30
0.0
 10
121.476408
 20
218.901370
 30
0.0
 10
145.927277
 20
218.905075
 30
0.0
  0
SPLINE
  5
130
100
AcDbEntity
  8
Layer_1
 62
5
100
AcDbSpline
 70
8
 71
3
 72
8
 73
4
 74
0
 40
0
 40
0
 40
0
 40
0
 40
1
 40
1
 40
1
 40
1
 10
145.927277
 20
218.905075
 30
0.0
 10
146.725506
 20
218.910419
 30
0.0
 10
147.428323
 20
219.625555
 30
0.0
 10
147.420645
 20
220.423736
 30
0.0
  0
SPLINE
  5
131
100
AcDbEntity
  8
Layer_1
 62
5
100
AcDbSpline
 70
8
 71
3
 72
8
 73
4
 74
0
 40
0
 40
0
 40
0
 40
0
 40
1
 40
1
 40
1
 40
1
 10
147.420645
 20
220.423736
 30
0.0
 10
147.419851
 20
226.140525
 30
0.0
 10
147.424640
 20
231.857537
 30
0.0
 10
147.418263
 20
237.574244
 30
0.0
  0
SPLINE
  5
132
100
AcDbEntity
  8
Layer_1
 62
5
100
AcDbSpline
 70
8
 71
3
 72
8
 73
4
 74
0
 40
0
 40
0
 40
0
 40
0
 40
1
 40
1
 40
1
 40
1
 10
147.418263
 20
237.574244
 30
0.0
 10
147.399002
 20
238.357143
 30
0.0
 10
146.686506
 20
239.032454
 30
0.0
 10
145.904420
 20
239.014825
 30
0.0
  0
LINE
  5
133
100
AcDbEntity
  8
Layer_1
 62
5
100
AcDbLine
 10
145.904420
 20
239.014825
 30
0.0
 11
71.685788
 21
239.014825
 31
0.0
  0
LINE
  5
134
100
AcDbEntity
  8
Layer_1
 62
5
100
AcDbLine
 10
71.685788
 20
239.014825
 30
0.0
 11
71.659462
 21
239.012047
 31
0.0
  0
LINE
  5
135
100
AcDbEntity
  8
Layer_1
 62
5
100
AcDbLine
 10
71.659462
 20
239.012047
 30
0.0
 11
71.656379
 21
239.011795
 31
0.0
  0
SPLINE
  5
136
100
AcDbEntity
  8
Layer_1
 62
5
100
AcDbSpline
 70
8
 71
3
 72
8
 73
4
 74
0
 40
0
 40
0
 40
0
 40
0
 40
1
 40
1
 40
1
 40
1
 10
154.852228
 20
239.011795
 30
0.0
 10
154.328245
 20
238.994147
 30
0.0
 10
153.829671
 20
238.680992
 30
0.0
 10
153.587191
 20
238.215980
 30
0.0
  0
SPLINE
  5
137
100
AcDbEntity
  8
Layer_1
 62
5
100
AcDbSpline
 70
8
 71
3
 72
8
 73
4
 74
0
 40
0
 40
0
 40
0
 40
0
 40
1
 40
1
 40
1
 40
1
 10
153.587191
 20
238.215980
 30
0.0
 10
153.320973
 20
237.734198
 30
0.0
 10
153.434418
 20
237.166075
 30
0.0
 10
153.409941
 20
236.640057
 30
0.0
  0
SPLINE
  5
138
100
AcDbEntity
  8
Layer_1
 62
5
100
AcDbSpline
 70
8
 71
3
 72
8
 73
4
 74
0
 40
0
 40
0
 40
0
 40
0
 40
1
 40
1
 40
1
 40
1
 10
153.409941
 20
236.640057
 30
0.0
 10
153.412058
 20
231.235039
 30
0.0
 10
153.405814
 20
225.829593
 30
0.0
 10
153.413037
 20
220.424839
 30
0.0
  0
SPLINE
  5
139
100
AcDbEntity
  8
Layer_1
 62
5
100
AcDbSpline
 70
8
 71
3
 72
8
 73
4
 74
0
 40
0
 40
0
 40
0
 40
0
 40
1
 40
1
 40
1
 40
1
 10
153.413037
 20
220.424839
 30
0.0
 10
153.430976
 20
219.879783
 30
0.0
 10
153.750674
 20
219.357530
 30
0.0
 10
154.233160
 20
219.101112
 30
0.0
  0
SPLINE
  5
13a
100
AcDbEntity
  8
Layer_1
 62
5
100
AcDbSpline
 70
8
 71
3
 72
8
 73
4
 74
0
 40
0
 40
0
 40
0
 40
0
 40
1
 40
1
 40
1
 40
1
 10
154.233160
 20
219.101112
 30
0.0
 10
154.719077
 20
218.816701
 30
0.0
 10
155.301025
 20
218.924590
 30
0.0
 10
155.837382
 20
218.903487
 30
0.0
  0
SPLINE
  5
13b
100
AcDbEntity
  8
Layer_1
 62
5
100
AcDbSpline
 70
8
 71
3
 72
8
 73
4
 74
0
 40
0
 40
0
 40
0
 40
0
 40
1
 40
1
 40
1
 40
1
 10
155.837382
 20
218.903487
 30
0.0
 10
180.306261
 20
218.904545
 30
0.0
 10
204.775230
 20
218.901370
 30
0.0
 10
229.244054
 20
218.905075
 30
0.0
  0
SPLINE
  5
13c
100
AcDbEntity
  8
Layer_1
 62
5
100
AcDbSpline
 70
8
 71
3
 72
8
 73
4
 74
0
 40
0
 40
0
 40
0
 40
0
 40
1
 40
1
 40
1
 40
1
 10
229.244054
 20
218.905075
 30
0.0
 10
230.023764
 20
218.909731
 30
0.0
 10
230.701290
 20
219.624312
 30
0.0
 10
230.669207
 20
220.402741
 30
0.0
  0
SPLINE
  5
13d
100
AcDbEntity
  8
Layer_1
 62
5
100
AcDbSpline
 70
8
 71
3
 72
8
 73
4
 74
0
 40
0
 40
0
 40
0
 40
0
 40
1
 40
1
 40
1
 40
1
 10
230.669207
 20
220.402741
 30
0.0
 10
230.666561
 20
226.121610
 30
0.0
 10
230.674419
 20
231.840702
 30
0.0
 10
230.665317
 20
237.559430
 30
0.0
  0
SPLINE
  5
13e
100
AcDbEntity
  8
Layer_1
 62
5
100
AcDbSpline
 70
8
 71
3
 72
8
 73
4
 74
0
 40
0
 40
0
 40
0
 40
0
 40
1
 40
1
 40
1
 40
1
 10
230.665317
 20
237.559430
 30
0.0
 10
230.631686
 20
238.350057
 30
0.0
 10
229.913917
 20
239.025932
 30
0.0
 10
229.123063
 20
239.014915
 30
0.0
  0
LINE
  5
13f
100
AcDbEntity
  8
Layer_1
 62
5
100
AcDbLine
 10
229.123063
 20
239.014915
 30
0.0
 11
154.881692
 21
239.014915
 31
0.0
  0
LINE
  5
140
100
AcDbEntity
  8
Layer_1
 62
5
100
AcDbLine
 10
154.881692
 20
239.014915
 30
0.0
 11
154.855366
 21
239.012136
 31
0.0
  0
LINE
  5
141
100
AcDbEntity
  8
Layer_1
 62
5
100
AcDbLine
 10
154.855366
 20
239.012136
 30
0.0
 11
154.852228
 21
239.011795
 31
0.0
  0
SPLINE
  5
142
100
AcDbEntity
  8
Layer_1
 62
5
100
AcDbSpline
 70
8
 71
3
 72
8
 73
4
 74
0
 40
0
 40
0
 40
0
 40
0
 40
1
 40
1
 40
1
 40
1
 10
238.356070
 20
239.011279
 30
0.0
 10
237.825097
 20
238.992414
 30
0.0
 10
237.312457
 20
238.687731
 30
0.0
 10
237.057539
 20
238.219398
 30
0.0
  0
SPLINE
  5
143
100
AcDbEntity
  8
Layer_1
 62
5
100
AcDbSpline
 70
8
 71
3
 72
8
 73
4
 74
0
 40
0
 40
0
 40
0
 40
0
 40
1
 40
1
 40
1
 40
1
 10
237.057539
 20
238.219398
 30
0.0
 10
236.761987
 20
237.742210
 30
0.0
 10
236.868659
 20
237.159910
 30
0.0
 10
236.848670
 20
236.627344
 30
0.0
  0
SPLINE
  5
144
100
AcDbEntity
  8
Layer_1
 62
5
100
AcDbSpline
 70
8
 71
3
 72
8
 73
4
 74
0
 40
0
 40
0
 40
0
 40
0
 40
1
 40
1
 40
1
 40
1
 10
236.848670
 20
236.627344
 30
0.0
 10
236.850786
 20
231.212955
 30
0.0
 10
236.844542
 20
225.798139
 30
0.0
 10
236.851765
 20
220.384017
 30
0.0
  0
SPLINE
  5
145
100
AcDbEntity
  8
Layer_1
 62
5
100
AcDbSpline
 70
8
 71
3
 72
8
 73
4
 74
0
 40
0
 40
0
 40
0
 40
0
 40
1
 40
1
 40
1
 40
1
 10
236.851765
 20
220.384017
 30
0.0
 10
236.869783
 20
219.845897
 30
0.0
 10
237.190728
 20
219.334202
 30
0.0
 10
237.668252
 20
219.084872
 30
0.0
  0
SPLINE
  5
146
100
AcDbEntity
  8
Layer_1
 62
5
100
AcDbSpline
 70
8
 71
3
 72
8
 73
4
 74
0
 40
0
 40
0
 40
0
 40
0
 40
1
 40
1
 40
1
 40
1
 10
237.668252
 20
219.084872
 30
0.0
 10
238.155662
 20
218.815868
 30
0.0
 10
238.729519
 20
218.926707
 30
0.0
 10
239.261746
 20
218.903487
 30
0.0
  0
SPLINE
  5
147
100
AcDbEntity
  8
Layer_1
 62
5
100
AcDbSpline
 70
8
 71
3
 72
8
 73
4
 74
0
 40
0
 40
0
 40
0
 40
0
 40
1
 40
1
 40
1
 40
1
 10
239.261746
 20
218.903487
 30
0.0
 10
257.376982
 20
218.904545
 30
0.0
 10
275.492305
 20
218.901370
 30
0.0
 10
293.607491
 20
218.905075
 30
0.0
  0
SPLINE
  5
148
100
AcDbEntity
  8
Layer_1
 62
5
100
AcDbSpline
 70
8
 71
3
 72
8
 73
4
 74
0
 40
0
 40
0
 40
0
 40
0
 40
1
 40
1
 40
1
 40
1
 10
293.607491
 20
218.905075
 30
0.0
 10
294.382507
 20
218.910049
 30
0.0
 10
295.064153
 20
219.603695
 30
0.0
 10
295.058491
 20
220.378379
 30
0.0
  0
SPLINE
  5
149
100
AcDbEntity
  8
Layer_1
 62
5
100
AcDbSpline
 70
8
 71
3
 72
8
 73
4
 74
0
 40
0
 40
0
 40
0
 40
0
 40
1
 40
1
 40
1
 40
1
 10
295.058491
 20
220.378379
 30
0.0
 10
295.058491
 20
226.110329
 30
0.0
 10
295.062459
 20
231.842498
 30
0.0
 10
295.055845
 20
237.574363
 30
0.0
  0
SPLINE
  5
14a
100
AcDbEntity
  8
Layer_1
 62
5
100
AcDbSpline
 70
8
 71
3
 72
8
 73
4
 74
0
 40
0
 40
0
 40
0
 40
0
 40
1
 40
1
 40
1
 40
1
 10
295.055845
 20
237.574363
 30
0.0
 10
295.035736
 20
238.348247
 30
0.0
 10
294.339751
 20
239.019913
 30
0.0
 10
293.565793
 20
239.014428
 30
0.0
  0
SPLINE
  5
14b
100
AcDbEntity
  8
Layer_1
 62
5
100
AcDbSpline
 70
8
 71
3
 72
8
 73
4
 74
0
 40
0
 40
0
 40
0
 40
0
 40
1
 40
1
 40
1
 40
1
 10
293.565793
 20
239.014428
 30
0.0
 10
275.172453
 20
239.015751
 30
0.0
 10
256.779085
 20
239.014600
 30
0.0
 10
238.385746
 20
239.014957
 30
0.0
  0
LINE
  5
14c
100
AcDbEntity
  8
Layer_1
 62
5
100
AcDbLine
 10
238.385746
 20
239.014957
 30
0.0
 11
238.359473
 21
239.011782
 31
0.0
  0
LINE
  5
14d
100
AcDbEntity
  8
Layer_1
 62
5
100
AcDbLine
 10
238.359473
 20
239.011782
 30
0.0
 11
238.356070
 21
239.011279
 31
0.0
  0
SPLINE
  5
14e
100
AcDbEntity
  8
Layer_1
 62
5
100
AcDbSpline
 70
8
 71
3
 72
8
 73
4
 74
0
 40
0
 40
0
 40
0
 40
0
 40
1
 40
1
 40
1
 40
1
 10
-13.045031
 20
120.614573
 30
0.0
 10
-14.035682
 20
120.694027
 30
0.0
 10
-14.977606
 20
121.077556
 30
0.0
 10
-15.741989
 20
121.712712
 30
0.0
  0
LINE
  5
14f
100
AcDbEntity
  8
Layer_1
 62
5
100
AcDbLine
 10
-15.741989
 20
121.712712
 30
0.0
 11
-27.577919
 21
129.773641
 31
0.0
  0
SPLINE
  5
150
100
AcDbEntity
  8
Layer_1
 62
5
100
AcDbSpline
 70
8
 71
3
 72
8
 73
4
 74
0
 40
0
 40
0
 40
0
 40
0
 40
1
 40
1
 40
1
 40
1
 10
-27.577919
 20
129.773641
 30
0.0
 10
-28.481666
 20
130.389151
 30
0.0
 10
-29.213921
 20
131.774519
 30
0.0
 10
-29.213467
 20
132.867948
 30
0.0
  0
SPLINE
  5
151
100
AcDbEntity
  8
Layer_1
 62
5
100
AcDbSpline
 70
8
 71
3
 72
8
 73
4
 74
0
 40
0
 40
0
 40
0
 40
0
 40
1
 40
1
 40
1
 40
1
 10
-29.213467
 20
132.867948
 30
0.0
 10
-29.184717
 20
202.215021
 30
0.0
 10
-29.253197
 20
128.626743
 30
0.0
 10
-29.232337
 20
243.125534
 30
0.0
  0
SPLINE
  5
152
100
AcDbEntity
  8
Layer_1
 62
5
100
AcDbSpline
 70
8
 71
3
 72
8
 73
4
 74
0
 40
0
 40
0
 40
0
 40
0
 40
1
 40
1
 40
1
 40
1
 10
-29.232337
 20
243.125534
 30
0.0
 10
-29.232138
 20
244.218954
 30
0.0
 10
-28.527518
 20
245.643360
 30
0.0
 10
-27.658531
 20
246.307035
 30
0.0
  0
LINE
  5
153
100
AcDbEntity
  8
Layer_1
 62
5
100
AcDbLine
 10
-27.658531
 20
246.307035
 30
0.0
 11
-24.349142
 21
248.834526
 31
0.0
  0
SPLINE
  5
154
100
AcDbEntity
  8
Layer_1
 62
5
100
AcDbSpline
 70
8
 71
3
 72
8
 73
4
 74
0
 40
0
 40
0
 40
0
 40
0
 40
1
 40
1
 40
1
 40
1
 10
-24.349142
 20
248.834526
 30
0.0
 10
-23.328574
 20
249.613968
 30
0.0
 10
-22.080030
 20
250.036215
 30
0.0
 10
-20.795861
 20
250.036215
 30
0.0
  0
LINE
  5
155
100
AcDbEntity
  8
Layer_1
 62
5
100
AcDbLine
 10
-20.795861
 20
250.036215
 30
0.0
 11
302.528842
 21
250.036196
 31
0.0
  0
SPLINE
  5
156
100
AcDbEntity
  8
Layer_1
 62
5
100
AcDbSpline
 70
8
 71
3
 72
8
 73
4
 74
0
 40
0
 40
0
 40
0
 40
0
 40
1
 40
1
 40
1
 40
1
 10
302.528842
 20
250.036196
 30
0.0
 10
303.813010
 20
250.036195
 30
0.0
 10
305.061551
 20
249.613948
 30
0.0
 10
306.082118
 20
248.834506
 30
0.0
  0
LINE
  5
157
100
AcDbEntity
  8
Layer_1
 62
5
100
AcDbLine
 10
306.082118
 20
248.834506
 30
0.0
 11
309.391504
 21
246.307017
 31
0.0
  0
SPLINE
  5
158
100
AcDbEntity
  8
Layer_1
 62
5
100
AcDbSpline
 70
8
 71
3
 72
8
 73
4
 74
0
 40
0
 40
0
 40
0
 40
0
 40
1
 40
1
 40
1
 40
1
 10
309.391504
 20
246.307017
 30
0.0
 10
310.260493
 20
245.643342
 30
0.0
 10
310.965112
 20
244.218922
 30
0.0
 10
310.965312
 20
243.125485
 30
0.0
  0
SPLINE
  5
159
100
AcDbEntity
  8
Layer_1
 62
5
100
AcDbSpline
 70
8
 71
3
 72
8
 73
4
 74
0
 40
0
 40
0
 40
0
 40
0
 40
1
 40
1
 40
1
 40
1
 10
310.965312
 20
243.125485
 30
0.0
 10
310.986112
 20
128.626723
 30
0.0
 10
310.917712
 20
202.215021
 30
0.0
 10
310.946412
 20
132.867898
 30
0.0
  0
SPLINE
  5
15a
100
AcDbEntity
  8
Layer_1
 62
5
100
AcDbSpline
 70
8
 71
3
 72
8
 73
4
 74
0
 40
0
 40
0
 40
0
 40
0
 40
1
 40
1
 40
1
 40
1
 10
310.946412
 20
132.867898
 30
0.0
 10
310.946862
 20
131.774479
 30
0.0
 10
310.214613
 20
130.389131
 30
0.0
 10
309.310864
 20
129.773621
 30
0.0
  0
LINE
  5
15b
100
AcDbEntity
  8
Layer_1
 62
5
100
AcDbLine
 10
309.310864
 20
129.773621
 30
0.0
 11
297.474939
 21
121.712692
 31
0.0
  0
SPLINE
  5
15c
100
AcDbEntity
  8
Layer_1
 62
5
100
AcDbSpline
 70
8
 71
3
 72
8
 73
4
 74
0
 40
0
 40
0
 40
0
 40
0
 40
1
 40
1
 40
1
 40
1
 10
297.474939
 20
121.712692
 30
0.0
 10
296.410073
 20
120.987455
 30
0.0
 10
295.147174
 20
120.608864
 30
0.0
 10
293.858953
 20
120.628693
 30
0.0
  0
SPLINE
  5
15d
100
AcDbEntity
  8
Layer_1
 62
5
100
AcDbSpline
 70
8
 71
3
 72
8
 73
4
 74
0
 40
0
 40
0
 40
0
 40
0
 40
1
 40
1
 40
1
 40
1
 10
293.858953
 20
120.628693
 30
0.0
 10
292.845538
 20
120.641926
 30
0.0
 10
291.832036
 20
120.647360
 30
0.0
 10
290.818537
 20
120.644993
 30
0.0
  0
LINE
  5
15e
100
AcDbEntity
  8
Layer_1
 62
5
100
AcDbLine
 10
290.818537
 20
120.644993
 30
0.0
 11
-9.085586
 21
120.645013
 31
0.0
  0
SPLINE
  5
15f
100
AcDbEntity
  8
Layer_1
 62
5
100
AcDbSpline
 70
8
 71
3
 72
8
 73
4
 74
0
 40
0
 40
0
 40
0
 40
0
 40
1
 40
1
 40
1
 40
1
 10
-9.085586
 20
120.645013
 30
0.0
 10
-10.405460
 20
120.645004
 30
0.0
 10
-11.725315
 20
120.634837
 30
0.0
 10
-13.045034
 20
120.614513
 30
0.0
  0
LINE
  5
160
100
AcDbEntity
  8
Layer_1
 62
5
100
AcDbLine
 10
-13.045034
 20
120.614513
 30
0.0
 11
-13.045031
 21
120.614573
 31
0.0
  0
SPLINE
  5
161
100
AcDbEntity
  8
Layer_1
 62
5
100
AcDbSpline
 70
8
 71
3
 72
8
 73
4
 74
0
 40
0
 40
0
 40
0
 40
0
 40
1
 40
1
 40
1
 40
1
 10
7.351130
 20
243.008304
 30
0.0
 10
7.351130
 20
243.383432
 30
0.0
 10
7.151001
 20
243.730066
 30
0.0
 10
6.826130
 20
243.917630
 30
0.0
  0
SPLINE
  5
162
100
AcDbEntity
  8
Layer_1
 62
5
100
AcDbSpline
 70
8
 71
3
 72
8
 73
4
 74
0
 40
0
 40
0
 40
0
 40
0
 40
1
 40
1
 40
1
 40
1
 10
6.826130
 20
243.917630
 30
0.0
 10
6.501259
 20
244.105195
 30
0.0
 10
6.101001
 20
244.105195
 30
0.0
 10
5.776130
 20
243.917630
 30
0.0
  0
SPLINE
  5
163
100
AcDbEntity
  8
Layer_1
 62
5
100
AcDbSpline
 70
8
 71
3
 72
8
 73
4
 74
0
 40
0
 40
0
 40
0
 40
0
 40
1
 40
1
 40
1
 40
1
 10
5.776130
 20
243.917630
 30
0.0
 10
5.451259
 20
243.730066
 30
0.0
 10
5.251130
 20
243.383432
 30
0.0
 10
5.251130
 20
243.008304
 30
0.0
  0
SPLINE
  5
164
100
AcDbEntity
  8
Layer_1
 62
5
100
AcDbSpline
 70
8
 71
3
 72
8
 73
4
 74
0
 40
0
 40
0
 40
0
 40
0
 40
1
 40
1
 40
1
 40
1
 10
5.251130
 20
243.008304
 30
0.0
 10
5.251130
 20
242.633175
 30
0.0
 10
5.451259
 20
242.286541
 30
0.0
 10
5.776130
 20
242.098977
 30
0.0
  0
SPLINE
  5
165
100
AcDbEntity
  8
Layer_1
 62
5
100
AcDbSpline
 70
8
 71
3
 72
8
 73
4
 74
0
 40
0
 40
0
 40
0
 40
0
 40
1
 40
1
 40
1
 40
1
 10
5.776130
 20
242.098977
 30
0.0
 10
6.101001
 20
241.911413
 30
0.0
 10
6.501259
 20
241.911413
 30
0.0
 10
6.826130
 20
242.098977
 30
0.0
  0
SPLINE
  5
166
100
AcDbEntity
  8
Layer_1
 62
5
100
AcDbSpline
 70
8
 71
3
 72
8
 73
4
 74
0
 40
0
 40
0
 40
0
 40
0
 40
1
 40
1
 40
1
 40
1
 10
6.826130
 20
242.098977
 30
0.0
 10
7.151001
 20
242.286541
 30
0.0
 10
7.351130
 20
242.633175
 30
0.0
 10
7.351130
 20
243.008304
 30
0.0
  0
LINE
  5
167
100
AcDbEntity
  8
Layer_1
 62
5
100
AcDbLine
 10
7.351130
 20
243.008304
 30
0.0
 11
7.351130
 21
243.008304
 31
0.0
  0
SPLINE
  5
168
100
AcDbEntity
  8
Layer_1
 62
5
100
AcDbSpline
 70
8
 71
3
 72
8
 73
4
 74
0
 40
0
 40
0
 40
0
 40
0
 40
1
 40
1
 40
1
 40
1
 10
7.351130
 20
131.470317
 30
0.0
 10
7.351130
 20
131.095188
 30
0.0
 10
7.151001
 20
130.748555
 30
0.0
 10
6.826130
 20
130.560991
 30
0.0
  0
SPLINE
  5
169
100
AcDbEntity
  8
Layer_1
 62
5
100
AcDbSpline
 70
8
 71
3
 72
8
 73
4
 74
0
 40
0
 40
0
 40
0
 40
0
 40
1
 40
1
 40
1
 40
1
 10
6.826130
 20
130.560991
 30
0.0
 10
6.501259
 20
130.373426
 30
0.0
 10
6.101001
 20
130.373426
 30
0.0
 10
5.776130
 20
130.560991
 30
0.0
  0
SPLINE
  5
16a
100
AcDbEntity
  8
Layer_1
 62
5
100
AcDbSpline
 70
8
 71
3
 72
8
 73
4
 74
0
 40
0
 40
0
 40
0
 40
0
 40
1
 40
1
 40
1
 40
1
 10
5.776130
 20
130.560991
 30
0.0
 10
5.451259
 20
130.748555
 30
0.0
 10
5.251130
 20
131.095188
 30
0.0
 10
5.251130
 20
131.470317
 30
0.0
  0
SPLINE
  5
16b
100
AcDbEntity
  8
Layer_1
 62
5
100
AcDbSpline
 70
8
 71
3
 72
8
 73
4
 74
0
 40
0
 40
0
 40
0
 40
0
 40
1
 40
1
 40
1
 40
1
 10
5.251130
 20
131.470317
 30
0.0
 10
5.251130
 20
131.845446
 30
0.0
 10
5.451259
 20
132.192079
 30
0.0
 10
5.776130
 20
132.379644
 30
0.0
  0
SPLINE
  5
16c
100
AcDbEntity
  8
Layer_1
 62
5
100
AcDbSpline
 70
8
 71
3
 72
8
 73
4
 74
0
 40
0
 40
0
 40
0
 40
0
 40
1
 40
1
 40
1
 40
1
 10
5.776130
 20
132.379644
 30
0.0
 10
6.101001
 20
132.567208
 30
0.0
 10
6.501259
 20
132.567208
 30
0.0
 10
6.826130
 20
132.379644
 30
0.0
  0
SPLINE
  5
16d
100
AcDbEntity
  8
Layer_1
 62
5
100
AcDbSpline
 70
8
 71
3
 72
8
 73
4
 74
0
 40
0
 40
0
 40
0
 40
0
 40
1
 40
1
 40
1
 40
1
 10
6.826130
 20
132.379644
 30
0.0
 10
7.151001
 20
132.192079
 30
0.0
 10
7.351130
 20
131.845446
 30
0.0
 10
7.351130
 20
131.470317
 30
0.0
  0
LINE
  5
16e
100
AcDbEntity
  8
Layer_1
 62
5
100
AcDbLine
 10
7.351130
 20
131.470317
 30
0.0
 11
7.351130
 21
131.470317
 31
0.0
  0
SPLINE
  5
16f
100
AcDbEntity
  8
Layer_1
 62
5
100
AcDbSpline
 70
8
 71
3
 72
8
 73
4
 74
0
 40
0
 40
0
 40
0
 40
0
 40
1
 40
1
 40
1
 40
1
 10
141.844923
 20
131.470317
 30
0.0
 10
141.844358
 20
130.890819
 30
0.0
 10
141.374423
 20
130.421342
 30
0.0
 10
140.794924
 20
130.421342
 30
0.0
  0
SPLINE
  5
170
100
AcDbEntity
  8
Layer_1
 62
5
100
AcDbSpline
 70
8
 71
3
 72
8
 73
4
 74
0
 40
0
 40
0
 40
0
 40
0
 40
1
 40
1
 40
1
 40
1
 10
140.794924
 20
130.421342
 30
0.0
 10
140.215425
 20
130.421342
 30
0.0
 10
139.745490
 20
130.890819
 30
0.0
 10
139.744925
 20
131.470317
 30
0.0
  0
SPLINE
  5
171
100
AcDbEntity
  8
Layer_1
 62
5
100
AcDbSpline
 70
8
 71
3
 72
8
 73
4
 74
0
 40
0
 40
0
 40
0
 40
0
 40
1
 40
1
 40
1
 40
1
 10
139.744925
 20
131.470317
 30
0.0
 10
139.745490
 20
132.049816
 30
0.0
 10
140.215425
 20
132.519292
 30
0.0
 10
140.794924
 20
132.519292
 30
0.0
  0
SPLINE
  5
172
100
AcDbEntity
  8
Layer_1
 62
5
100
AcDbSpline
 70
8
 71
3
 72
8
 73
4
 74
0
 40
0
 40
0
 40
0
 40
0
 40
1
 40
1
 40
1
 40
1
 10
140.794924
 20
132.519292
 30
0.0
 10
141.374423
 20
132.519292
 30
0.0
 10
141.844358
 20
132.049816
 30
0.0
 10
141.844923
 20
131.470317
 30
0.0
  0
LINE
  5
173
100
AcDbEntity
  8
Layer_1
 62
5
100
AcDbLine
 10
141.844923
 20
131.470317
 30
0.0
 11
141.844923
 21
131.470317
 31
0.0
  0
SPLINE
  5
174
100
AcDbEntity
  8
Layer_1
 62
5
100
AcDbSpline
 70
8
 71
3
 72
8
 73
4
 74
0
 40
0
 40
0
 40
0
 40
0
 40
1
 40
1
 40
1
 40
1
 10
141.844923
 20
243.009852
 30
0.0
 10
141.844358
 20
243.589350
 30
0.0
 10
141.374423
 20
244.058827
 30
0.0
 10
140.794924
 20
244.058827
 30
0.0
  0
SPLINE
  5
175
100
AcDbEntity
  8
Layer_1
 62
5
100
AcDbSpline
 70
8
 71
3
 72
8
 73
4
 74
0
 40
0
 40
0
 40
0
 40
0
 40
1
 40
1
 40
1
 40
1
 10
140.794924
 20
244.058827
 30
0.0
 10
140.215425
 20
244.058827
 30
0.0
 10
139.745490
 20
243.589350
 30
0.0
 10
139.744925
 20
243.009852
 30
0.0
  0
SPLINE
  5
176
100
AcDbEntity
  8
Layer_1
 62
5
100
AcDbSpline
 70
8
 71
3
 72
8
 73
4
 74
0
 40
0
 40
0
 40
0
 40
0
 40
1
 40
1
 40
1
 40
1
 10
139.744925
 20
243.009852
 30
0.0
 10
139.745490
 20
242.430353
 30
0.0
 10
140.215425
 20
241.960876
 30
0.0
 10
140.794924
 20
241.960876
 30
0.0
  0
SPLINE
  5
177
100
AcDbEntity
  8
Layer_1
 62
5
100
AcDbSpline
 70
8
 71
3
 72
8
 73
4
 74
0
 40
0
 40
0
 40
0
 40
0
 40
1
 40
1
 40
1
 40
1
 10
140.794924
 20
241.960876
 30
0.0
 10
141.374423
 20
241.960876
 30
0.0
 10
141.844358
 20
242.430353
 30
0.0
 10
141.844923
 20
243.009852
 30
0.0
  0
LINE
  5
178
100
AcDbEntity
  8
Layer_1
 62
5
100
AcDbLine
 10
141.844923
 20
243.009852
 30
0.0
 11
141.844923
 21
243.009852
 31
0.0
  0
SPLINE
  5
179
100
AcDbEntity
  8
Layer_1
 62
5
100
AcDbSpline
 70
8
 71
3
 72
8
 73
4
 74
0
 40
0
 40
0
 40
0
 40
0
 40
1
 40
1
 40
1
 40
1
 10
276.504231
 20
243.009841
 30
0.0
 10
276.503665
 20
243.589339
 30
0.0
 10
276.033730
 20
244.058816
 30
0.0
 10
275.454231
 20
244.058816
 30
0.0
  0
SPLINE
  5
17a
100
AcDbEntity
  8
Layer_1
 62
5
100
AcDbSpline
 70
8
 71
3
 72
8
 73
4
 74
0
 40
0
 40
0
 40
0
 40
0
 40
1
 40
1
 40
1
 40
1
 10
275.454231
 20
244.058816
 30
0.0
 10
274.874733
 20
244.058816
 30
0.0
 10
274.404797
 20
243.589339
 30
0.0
 10
274.404232
 20
243.009841
 30
0.0
  0
SPLINE
  5
17b
100
AcDbEntity
  8
Layer_1
 62
5
100
AcDbSpline
 70
8
 71
3
 72
8
 73
4
 74
0
 40
0
 40
0
 40
0
 40
0
 40
1
 40
1
 40
1
 40
1
 10
274.404232
 20
243.009841
 30
0.0
 10
274.404797
 20
242.430342
 30
0.0
 10
274.874733
 20
241.960865
 30
0.0
 10
275.454231
 20
241.960865
 30
0.0
  0
SPLINE
  5
17c
100
AcDbEntity
  8
Layer_1
 62
5
100
AcDbSpline
 70
8
 71
3
 72
8
 73
4
 74
0
 40
0
 40
0
 40
0
 40
0
 40
1
 40
1
 40
1
 40
1
 10
275.454231
 20
241.960865
 30
0.0
 10
276.033730
 20
241.960865
 30
0.0
 10
276.503665
 20
242.430342
 30
0.0
 10
276.504231
 20
243.009841
 30
0.0
  0
LINE
  5
17d
100
AcDbEntity
  8
Layer_1
 62
5
100
AcDbLine
 10
276.504231
 20
243.009841
 30
0.0
 11
276.504231
 21
243.009841
 31
0.0
  0
SPLINE
  5
17e
100
AcDbEntity
  8
Layer_1
 62
5
100
AcDbSpline
 70
8
 71
3
 72
8
 73
4
 74
0
 40
0
 40
0
 40
0
 40
0
 40
1
 40
1
 40
1
 40
1
 10
276.491131
 20
131.469807
 30
0.0
 10
276.490565
 20
130.890309
 30
0.0
 10
276.020630
 20
130.420832
 30
0.0
 10
275.441131
 20
130.420832
 30
0.0
  0
SPLINE
  5
17f
100
AcDbEntity
  8
Layer_1
 62
5
100
AcDbSpline
 70
8
 71
3
 72
8
 73
4
 74
0
 40
0
 40
0
 40
0
 40
0
 40
1
 40
1
 40
1
 40
1
 10
275.441131
 20
130.420832
 30
0.0
 10
274.861633
 20
130.420832
 30
0.0
 10
274.391697
 20
130.890309
 30
0.0
 10
274.391132
 20
131.469807
 30
0.0
  0
SPLINE
  5
180
100
AcDbEntity
  8
Layer_1
 62
5
100
AcDbSpline
 70
8
 71
3
 72
8
 73
4
 74
0
 40
0
 40
0
 40
0
 40
0
 40
1
 40
1
 40
1
 40
1
 10
274.391132
 20
131.469807
 30
0.0
 10
274.391697
 20
132.049306
 30
0.0
 10
274.861633
 20
132.518782
 30
0.0
 10
275.441131
 20
132.518782
 30
0.0
  0
SPLINE
  5
181
100
AcDbEntity
  8
Layer_1
 62
5
100
AcDbSpline
 70
8
 71
3
 72
8
 73
4
 74
0
 40
0
 40
0
 40
0
 40
0
 40
1
 40
1
 40
1
 40
1
 10
275.441131
 20
132.518782
 30
0.0
 10
276.020630
 20
132.518782
 30
0.0
 10
276.490565
 20
132.049306
 30
0.0
 10
276.491131
 20
131.469807
 30
0.0
  0
LINE
  5
182
100
AcDbEntity
  8
Layer_1
 62
5
100
AcDbLine
 10
276.491131
 20
131.469807
 30
0.0
 11
276.491131
 21
131.469807
 31
0.0
  0
SPLINE
  5
183
100
AcDbEntity
  8
Layer_1
 62
5
100
AcDbSpline
 70
8
 71
3
 72
8
 73
4
 74
0
 40
0
 40
0
 40
0
 40
0
 40
1
 40
1
 40
1
 40
1
 10
-19.961358
 20
241.419082
 30
0.0
 10
-19.961358
 20
241.943901
 30
0.0
 10
-20.386781
 20
242.369301
 30
0.0
 10
-20.911555
 20
242.369301
 30
0.0
  0
SPLINE
  5
184
100
AcDbEntity
  8
Layer_1
 62
5
100
AcDbSpline
 70
8
 71
3
 72
8
 73
4
 74
0
 40
0
 40
0
 40
0
 40
0
 40
1
 40
1
 40
1
 40
1
 10
-20.911555
 20
242.369301
 30
0.0
 10
-21.436329
 20
242.369301
 30
0.0
 10
-21.861779
 20
241.943901
 30
0.0
 10
-21.861779
 20
241.419082
 30
0.0
  0
SPLINE
  5
185
100
AcDbEntity
  8
Layer_1
 62
5
100
AcDbSpline
 70
8
 71
3
 72
8
 73
4
 74
0
 40
0
 40
0
 40
0
 40
0
 40
1
 40
1
 40
1
 40
1
 10
-21.861779
 20
241.419082
 30
0.0
 10
-21.861779
 20
240.894264
 30
0.0
 10
-21.436329
 20
240.468864
 30
0.0
 10
-20.911555
 20
240.468864
 30
0.0
  0
SPLINE
  5
186
100
AcDbEntity
  8
Layer_1
 62
5
100
AcDbSpline
 70
8
 71
3
 72
8
 73
4
 74
0
 40
0
 40
0
 40
0
 40
0
 40
1
 40
1
 40
1
 40
1
 10
-20.911555
 20
240.468864
 30
0.0
 10
-20.386781
 20
240.468864
 30
0.0
 10
-19.961358
 20
240.894264
 30
0.0
 10
-19.961358
 20
241.419082
 30
0.0
  0
LINE
  5
187
100
AcDbEntity
  8
Layer_1
 62
5
100
AcDbLine
 10
-19.961358
 20
241.419082
 30
0.0
 11
-19.961358
 21
241.419082
 31
0.0
  0
SPLINE
  5
188
100
AcDbEntity
  8
Layer_1
 62
5
100
AcDbSpline
 70
8
 71
3
 72
8
 73
4
 74
0
 40
0
 40
0
 40
0
 40
0
 40
1
 40
1
 40
1
 40
1
 10
68.012648
 20
244.894658
 30
0.0
 10
68.012648
 20
245.419477
 30
0.0
 10
67.587225
 20
245.844876
 30
0.0
 10
67.062451
 20
245.844876
 30
0.0
  0
SPLINE
  5
189
100
AcDbEntity
  8
Layer_1
 62
5
100
AcDbSpline
 70
8
 71
3
 72
8
 73
4
 74
0
 40
0
 40
0
 40
0
 40
0
 40
1
 40
1
 40
1
 40
1
 10
67.062451
 20
245.844876
 30
0.0
 10
66.537677
 20
245.844876
 30
0.0
 10
66.112228
 20
245.419477
 30
0.0
 10
66.112228
 20
244.894658
 30
0.0
  0
SPLINE
  5
18a
100
AcDbEntity
  8
Layer_1
 62
5
100
AcDbSpline
 70
8
 71
3
 72
8
 73
4
 74
0
 40
0
 40
0
 40
0
 40
0
 40
1
 40
1
 40
1
 40
1
 10
66.112228
 20
244.894658
 30
0.0
 10
66.112228
 20
244.369839
 30
0.0
 10
66.537677
 20
243.944440
 30
0.0
 10
67.062451
 20
243.944440
 30
0.0
  0
SPLINE
  5
18b
100
AcDbEntity
  8
Layer_1
 62
5
100
AcDbSpline
 70
8
 71
3
 72
8
 73
4
 74
0
 40
0
 40
0
 40
0
 40
0
 40
1
 40
1
 40
1
 40
1
 10
67.062451
 20
243.944440
 30
0.0
 10
67.587225
 20
243.944440
 30
0.0
 10
68.012648
 20
244.369839
 30
0.0
 10
68.012648
 20
244.894658
 30
0.0
  0
LINE
  5
18c
100
AcDbEntity
  8
Layer_1
 62
5
100
AcDbLine
 10
68.012648
 20
244.894658
 30
0.0
 11
68.012648
 21
244.894658
 31
0.0
  0
SPLINE
  5
18d
100
AcDbEntity
  8
Layer_1
 62
5
100
AcDbSpline
 70
8
 71
3
 72
8
 73
4
 74
0
 40
0
 40
0
 40
0
 40
0
 40
1
 40
1
 40
1
 40
1
 10
68.012648
 20
128.069622
 30
0.0
 10
68.012648
 20
128.594441
 30
0.0
 10
67.587225
 20
129.019840
 30
0.0
 10
67.062451
 20
129.019840
 30
0.0
  0
SPLINE
  5
18e
100
AcDbEntity
  8
Layer_1
 62
5
100
AcDbSpline
 70
8
 71
3
 72
8
 73
4
 74
0
 40
0
 40
0
 40
0
 40
0
 40
1
 40
1
 40
1
 40
1
 10
67.062451
 20
129.019840
 30
0.0
 10
66.537677
 20
129.019840
 30
0.0
 10
66.112228
 20
128.594441
 30
0.0
 10
66.112228
 20
128.069622
 30
0.0
  0
SPLINE
  5
18f
100
AcDbEntity
  8
Layer_1
 62
5
100
AcDbSpline
 70
8
 71
3
 72
8
 73
4
 74
0
 40
0
 40
0
 40
0
 40
0
 40
1
 40
1
 40
1
 40
1
 10
66.112228
 20
128.069622
 30
0.0
 10
66.112228
 20
127.544803
 30
0.0
 10
66.537677
 20
127.119404
 30
0.0
 10
67.062451
 20
127.119404
 30
0.0
  0
SPLINE
  5
190
100
AcDbEntity
  8
Layer_1
 62
5
100
AcDbSpline
 70
8
 71
3
 72
8
 73
4
 74
0
 40
0
 40
0
 40
0
 40
0
 40
1
 40
1
 40
1
 40
1
 10
67.062451
 20
127.119404
 30
0.0
 10
67.587225
 20
127.119404
 30
0.0
 10
68.012648
 20
127.544803
 30
0.0
 10
68.012648
 20
128.069622
 30
0.0
  0
LINE
  5
191
100
AcDbEntity
  8
Layer_1
 62
5
100
AcDbLine
 10
68.012648
 20
128.069622
 30
0.0
 11
68.012648
 21
128.069622
 31
0.0
  0
SPLINE
  5
192
100
AcDbEntity
  8
Layer_1
 62
5
100
AcDbSpline
 70
8
 71
3
 72
8
 73
4
 74
0
 40
0
 40
0
 40
0
 40
0
 40
1
 40
1
 40
1
 40
1
 10
-19.962469
 20
215.842804
 30
0.0
 10
-19.962469
 20
216.367664
 30
0.0
 10
-20.387919
 20
216.793095
 30
0.0
 10
-20.912746
 20
216.793095
 30
0.0
  0
SPLINE
  5
193
100
AcDbEntity
  8
Layer_1
 62
5
100
AcDbSpline
 70
8
 71
3
 72
8
 73
4
 74
0
 40
0
 40
0
 40
0
 40
0
 40
1
 40
1
 40
1
 40
1
 10
-20.912746
 20
216.793095
 30
0.0
 10
-21.437573
 20
216.793095
 30
0.0
 10
-21.863049
 20
216.367664
 30
0.0
 10
-21.863049
 20
215.842804
 30
0.0
  0
SPLINE
  5
194
100
AcDbEntity
  8
Layer_1
 62
5
100
AcDbSpline
 70
8
 71
3
 72
8
 73
4
 74
0
 40
0
 40
0
 40
0
 40
0
 40
1
 40
1
 40
1
 40
1
 10
-21.863049
 20
215.842804
 30
0.0
 10
-21.863049
 20
215.317944
 30
0.0
 10
-21.437573
 20
214.892513
 30
0.0
 10
-20.912746
 20
214.892513
 30
0.0
  0
SPLINE
  5
195
100
AcDbEntity
  8
Layer_1
 62
5
100
AcDbSpline
 70
8
 71
3
 72
8
 73
4
 74
0
 40
0
 40
0
 40
0
 40
0
 40
1
 40
1
 40
1
 40
1
 10
-20.912746
 20
214.892513
 30
0.0
 10
-20.387919
 20
214.892513
 30
0.0
 10
-19.962469
 20
215.317944
 30
0.0
 10
-19.962469
 20
215.842804
 30
0.0
  0
LINE
  5
196
100
AcDbEntity
  8
Layer_1
 62
5
100
AcDbLine
 10
-19.962469
 20
215.842804
 30
0.0
 11
-19.962469
 21
215.842804
 31
0.0
  0
SPLINE
  5
197
100
AcDbEntity
  8
Layer_1
 62
5
100
AcDbSpline
 70
8
 71
3
 72
8
 73
4
 74
0
 40
0
 40
0
 40
0
 40
0
 40
1
 40
1
 40
1
 40
1
 10
-19.963528
 20
134.361451
 30
0.0
 10
-19.963528
 20
133.836632
 30
0.0
 10
-20.388924
 20
133.411232
 30
0.0
 10
-20.913725
 20
133.411232
 30
0.0
  0
SPLINE
  5
198
100
AcDbEntity
  8
Layer_1
 62
5
100
AcDbSpline
 70
8
 71
3
 72
8
 73
4
 74
0
 40
0
 40
0
 40
0
 40
0
 40
1
 40
1
 40
1
 40
1
 10
-20.913725
 20
133.411232
 30
0.0
 10
-21.438525
 20
133.411232
 30
0.0
 10
-21.863948
 20
133.836632
 30
0.0
 10
-21.863948
 20
134.361451
 30
0.0
  0
SPLINE
  5
199
100
AcDbEntity
  8
Layer_1
 62
5
100
AcDbSpline
 70
8
 71
3
 72
8
 73
4
 74
0
 40
0
 40
0
 40
0
 40
0
 40
1
 40
1
 40
1
 40
1
 10
-21.863948
 20
134.361451
 30
0.0
 10
-21.863948
 20
134.886269
 30
0.0
 10
-21.438525
 20
135.311669
 30
0.0
 10
-20.913725
 20
135.311669
 30
0.0
  0
SPLINE
  5
19a
100
AcDbEntity
  8
Layer_1
 62
5
100
AcDbSpline
 70
8
 71
3
 72
8
 73
4
 74
0
 40
0
 40
0
 40
0
 40
0
 40
1
 40
1
 40
1
 40
1
 10
-20.913725
 20
135.311669
 30
0.0
 10
-20.388924
 20
135.311669
 30
0.0
 10
-19.963528
 20
134.886269
 30
0.0
 10
-19.963528
 20
134.361451
 30
0.0
  0
LINE
  5
19b
100
AcDbEntity
  8
Layer_1
 62
5
100
AcDbLine
 10
-19.963528
 20
134.361451
 30
0.0
 11
-19.963528
 21
134.361451
 31
0.0
  0
SPLINE
  5
19c
100
AcDbEntity
  8
Layer_1
 62
5
100
AcDbSpline
 70
8
 71
3
 72
8
 73
4
 74
0
 40
0
 40
0
 40
0
 40
0
 40
1
 40
1
 40
1
 40
1
 10
302.051258
 20
241.448060
 30
0.0
 10
302.051258
 20
241.972881
 30
0.0
 10
302.476665
 20
242.398278
 30
0.0
 10
303.001465
 20
242.398278
 30
0.0
  0
SPLINE
  5
19d
100
AcDbEntity
  8
Layer_1
 62
5
100
AcDbSpline
 70
8
 71
3
 72
8
 73
4
 74
0
 40
0
 40
0
 40
0
 40
0
 40
1
 40
1
 40
1
 40
1
 10
303.001465
 20
242.398278
 30
0.0
 10
303.526282
 20
242.398278
 30
0.0
 10
303.951691
 20
241.972881
 30
0.0
 10
303.951691
 20
241.448060
 30
0.0
  0
SPLINE
  5
19e
100
AcDbEntity
  8
Layer_1
 62
5
100
AcDbSpline
 70
8
 71
3
 72
8
 73
4
 74
0
 40
0
 40
0
 40
0
 40
0
 40
1
 40
1
 40
1
 40
1
 10
303.951691
 20
241.448060
 30
0.0
 10
303.951691
 20
240.923238
 30
0.0
 10
303.526282
 20
240.497841
 30
0.0
 10
303.001465
 20
240.497841
 30
0.0
  0
SPLINE
  5
19f
100
AcDbEntity
  8
Layer_1
 62
5
100
AcDbSpline
 70
8
 71
3
 72
8
 73
4
 74
0
 40
0
 40
0
 40
0
 40
0
 40
1
 40
1
 40
1
 40
1
 10
303.001465
 20
240.497841
 30
0.0
 10
302.476665
 20
240.497841
 30
0.0
 10
302.051258
 20
240.923238
 30
0.0
 10
302.051258
 20
241.448060
 30
0.0
  0
LINE
  5
1a0
100
AcDbEntity
  8
Layer_1
 62
5
100
AcDbLine
 10
302.051258
 20
241.448060
 30
0.0
 11
302.051258
 21
241.448060
 31
0.0
  0
SPLINE
  5
1a1
100
AcDbEntity
  8
Layer_1
 62
5
100
AcDbSpline
 70
8
 71
3
 72
8
 73
4
 74
0
 40
0
 40
0
 40
0
 40
0
 40
1
 40
1
 40
1
 40
1
 10
214.077254
 20
244.894658
 30
0.0
 10
214.077254
 20
245.419477
 30
0.0
 10
214.502704
 20
245.844876
 30
0.0
 10
215.027451
 20
245.844876
 30
0.0
  0
SPLINE
  5
1a2
100
AcDbEntity
  8
Layer_1
 62
5
100
AcDbSpline
 70
8
 71
3
 72
8
 73
4
 74
0
 40
0
 40
0
 40
0
 40
0
 40
1
 40
1
 40
1
 40
1
 10
215.027451
 20
245.844876
 30
0.0
 10
215.552252
 20
245.844876
 30
0.0
 10
215.977675
 20
245.419477
 30
0.0
 10
215.977675
 20
244.894658
 30
0.0
  0
SPLINE
  5
1a3
100
AcDbEntity
  8
Layer_1
 62
5
100
AcDbSpline
 70
8
 71
3
 72
8
 73
4
 74
0
 40
0
 40
0
 40
0
 40
0
 40
1
 40
1
 40
1
 40
1
 10
215.977675
 20
244.894658
 30
0.0
 10
215.977675
 20
244.369839
 30
0.0
 10
215.552252
 20
243.944440
 30
0.0
 10
215.027451
 20
243.944440
 30
0.0
  0
SPLINE
  5
1a4
100
AcDbEntity
  8
Layer_1
 62
5
100
AcDbSpline
 70
8
 71
3
 72
8
 73
4
 74
0
 40
0
 40
0
 40
0
 40
0
 40
1
 40
1
 40
1
 40
1
 10
215.027451
 20
243.944440
 30
0.0
 10
214.502704
 20
243.944440
 30
0.0
 10
214.077254
 20
244.369839
 30
0.0
 10
214.077254
 20
244.894658
 30
0.0
  0
LINE
  5
1a5
100
AcDbEntity
  8
Layer_1
 62
5
100
AcDbLine
 10
214.077254
 20
244.894658
 30
0.0
 11
214.077254
 21
244.894658
 31
0.0
  0
SPLINE
  5
1a6
100
AcDbEntity
  8
Layer_1
 62
5
100
AcDbSpline
 70
8
 71
3
 72
8
 73
4
 74
0
 40
0
 40
0
 40
0
 40
0
 40
1
 40
1
 40
1
 40
1
 10
214.077254
 20
128.069622
 30
0.0
 10
214.077254
 20
128.594441
 30
0.0
 10
214.502704
 20
129.019840
 30
0.0
 10
215.027451
 20
129.019840
 30
0.0
  0
SPLINE
  5
1a7
100
AcDbEntity
  8
Layer_1
 62
5
100
AcDbSpline
 70
8
 71
3
 72
8
 73
4
 74
0
 40
0
 40
0
 40
0
 40
0
 40
1
 40
1
 40
1
 40
1
 10
215.027451
 20
129.019840
 30
0.0
 10
215.552252
 20
129.019840
 30
0.0
 10
215.977675
 20
128.594441
 30
0.0
 10
215.977675
 20
128.069622
 30
0.0
  0
SPLINE
  5
1a8
100
AcDbEntity
  8
Layer_1
 62
5
100
AcDbSpline
 70
8
 71
3
 72
8
 73
4
 74
0
 40
0
 40
0
 40
0
 40
0
 40
1
 40
1
 40
1
 40
1
 10
215.977675
 20
128.069622
 30
0.0
 10
215.977675
 20
127.544803
 30
0.0
 10
215.552252
 20
127.119404
 30
0.0
 10
215.027451
 20
127.119404
 30
0.0
  0
SPLINE
  5
1a9
100
AcDbEntity
  8
Layer_1
 62
5
100
AcDbSpline
 70
8
 71
3
 72
8
 73
4
 74
0
 40
0
 40
0
 40
0
 40
0
 40
1
 40
1
 40
1
 40
1
 10
215.027451
 20
127.119404
 30
0.0
 10
214.502704
 20
127.119404
 30
0.0
 10
214.077254
 20
127.544803
 30
0.0
 10
214.077254
 20
128.069622
 30
0.0
  0
LINE
  5
1aa
100
AcDbEntity
  8
Layer_1
 62
5
100
AcDbLine
 10
214.077254
 20
128.069622
 30
0.0
 11
214.077254
 21
128.069622
 31
0.0
  0
SPLINE
  5
1ab
100
AcDbEntity
  8
Layer_1
 62
5
100
AcDbSpline
 70
8
 71
3
 72
8
 73
4
 74
0
 40
0
 40
0
 40
0
 40
0
 40
1
 40
1
 40
1
 40
1
 10
302.050382
 20
215.842804
 30
0.0
 10
302.050382
 20
216.367624
 30
0.0
 10
302.475789
 20
216.793022
 30
0.0
 10
303.000590
 20
216.793022
 30
0.0
  0
SPLINE
  5
1ac
100
AcDbEntity
  8
Layer_1
 62
5
100
AcDbSpline
 70
8
 71
3
 72
8
 73
4
 74
0
 40
0
 40
0
 40
0
 40
0
 40
1
 40
1
 40
1
 40
1
 10
303.000590
 20
216.793022
 30
0.0
 10
303.525406
 20
216.793022
 30
0.0
 10
303.950816
 20
216.367624
 30
0.0
 10
303.950816
 20
215.842804
 30
0.0
  0
SPLINE
  5
1ad
100
AcDbEntity
  8
Layer_1
 62
5
100
AcDbSpline
 70
8
 71
3
 72
8
 73
4
 74
0
 40
0
 40
0
 40
0
 40
0
 40
1
 40
1
 40
1
 40
1
 10
303.950816
 20
215.842804
 30
0.0
 10
303.950816
 20
215.317985
 30
0.0
 10
303.525406
 20
214.892587
 30
0.0
 10
303.000590
 20
214.892587
 30
0.0
  0
SPLINE
  5
1ae
100
AcDbEntity
  8
Layer_1
 62
5
100
AcDbSpline
 70
8
 71
3
 72
8
 73
4
 74
0
 40
0
 40
0
 40
0
 40
0
 40
1
 40
1
 40
1
 40
1
 10
303.000590
 20
214.892587
 30
0.0
 10
302.475789
 20
214.892587
 30
0.0
 10
302.050382
 20
215.317985
 30
0.0
 10
302.050382
 20
215.842804
 30
0.0
  0
LINE
  5
1af
100
AcDbEntity
  8
Layer_1
 62
5
100
AcDbLine
 10
302.050382
 20
215.842804
 30
0.0
 11
302.050382
 21
215.842804
 31
0.0
  0
SPLINE
  5
1b0
100
AcDbEntity
  8
Layer_1
 62
5
100
AcDbSpline
 70
8
 71
3
 72
8
 73
4
 74
0
 40
0
 40
0
 40
0
 40
0
 40
1
 40
1
 40
1
 40
1
 10
302.051358
 20
134.361451
 30
0.0
 10
302.051358
 20
133.836629
 30
0.0
 10
302.476747
 20
133.411232
 30
0.0
 10
303.001569
 20
133.411232
 30
0.0
  0
SPLINE
  5
1b1
100
AcDbEntity
  8
Layer_1
 62
5
100
AcDbSpline
 70
8
 71
3
 72
8
 73
4
 74
0
 40
0
 40
0
 40
0
 40
0
 40
1
 40
1
 40
1
 40
1
 10
303.001569
 20
133.411232
 30
0.0
 10
303.526406
 20
133.411232
 30
0.0
 10
303.951795
 20
133.836629
 30
0.0
 10
303.951795
 20
134.361451
 30
0.0
  0
SPLINE
  5
1b2
100
AcDbEntity
  8
Layer_1
 62
5
100
AcDbSpline
 70
8
 71
3
 72
8
 73
4
 74
0
 40
0
 40
0
 40
0
 40
0
 40
1
 40
1
 40
1
 40
1
 10
303.951795
 20
134.361451
 30
0.0
 10
303.951795
 20
134.886272
 30
0.0
 10
303.526406
 20
135.311669
 30
0.0
 10
303.001569
 20
135.311669
 30
0.0
  0
SPLINE
  5
1b3
100
AcDbEntity
  8
Layer_1
 62
5
100
AcDbSpline
 70
8
 71
3
 72
8
 73
4
 74
0
 40
0
 40
0
 40
0
 40
0
 40
1
 40
1
 40
1
 40
1
 10
303.001569
 20
135.311669
 30
0.0
 10
302.476747
 20
135.311669
 30
0.0
 10
302.051358
 20
134.886272
 30
0.0
 10
302.051358
 20
134.361451
 30
0.0
  0
LINE
  5
1b4
100
AcDbEntity
  8
Layer_1
 62
5
100
AcDbLine
 10
302.051358
 20
134.361451
 30
0.0
 11
302.051358
 21
134.361451
 31
0.0
  0
ENDSEC
  0
SECTION
  2
OBJECTS
  0
DICTIONARY
  5
C
330
0
100
AcDbDictionary
  3
ACAD_GROUP
350
D
  3
ACAD_MLINESTYLE
350
17
  0
DICTIONARY
  5
D
330
C
100
AcDbDictionary
  0
DICTIONARY
  5
1A
330
C
100
AcDbDictionary
  0
DICTIONARY
  5
17
330
C
100
AcDbDictionary
  3
STANDARD
350
18
  0
DICTIONARY
  5
19
330
C
100
AcDbDictionary
  0
ENDSEC
  0
EOF
