  0
SECTION
  2
HEADER
  9
$ACADVER
  1
AC1014
  9
$HANDSEED
  5
FFFF
  9
$INSUNITS
 70
     0
  9
$MEASUREMENT
 70
     1
  0
ENDSEC
  0
SECTION
  2
TABLES
  0
TABLE
  2
VPORT
  5
8
330
0
100
AcDbSymbolTable
 70
     4
  0
VPORT
  5
2E
330
8
100
AcDbSymbolTableRecord
100
AcDbViewportTableRecord
  2
*ACTIVE
 70
     0
 10
0.0
 20
0.0
 11
1.0
 21
1.0
 12
210.0
 22
148.5
 13
0.0
 23
0.0
 14
10.0
 24
10.0
 15
10.0
 25
10.0
 16
0.0
 26
0.0
 36
1.0
 17
0.0
 27
0.0
 37
0.0
 40
341.0
 41
1.24
 42
50.0
 43
0.0
 44
0.0
 50
0.0
 51
0.0
 71
     0
 72
   100
 73
     1
 74
     3
 75
     0
 76
     0
 77
     0
 78
     0
  0
ENDTAB
  0
TABLE
  2
LTYPE
  5
5
330
0
100
AcDbSymbolTable
 70
     1
  0
LTYPE
  5
14
330
5
100
AcDbSymbolTableRecord
100
AcDbLinetypeTableRecord
  2
BYBLOCK
 70
     0
  3

 72
    65
 73
     0
 40
0.0
  0
LTYPE
  5
15
330
5
100
AcDbSymbolTableRecord
100
AcDbLinetypeTableRecord
  2
BYLAYER
 70
     0
  3

 72
    65
 73
     0
 40
0.0
  0
LTYPE
  5
16
330
5
100
AcDbSymbolTableRecord
100
AcDbLinetypeTableRecord
  2
CONTINUOUS
 70
     0
  3
Solid line
 72
    65
 73
     0
 40
0.0
  0
ENDTAB
  0
TABLE
  2
LAYER
  5
2
100
AcDbSymbolTable
 70
2
  0
LAYER
  5
50
100
AcDbSymbolTableRecord
100
AcDbLayerTableRecord
  2
0
 70
0
  6
CONTINUOUS
  0
LAYER
  5
51
100
AcDbSymbolTableRecord
100
AcDbLayerTableRecord
  2
Layer_1
 70
0
  6
CONTINUOUS
  0
ENDTAB
  0
TABLE
  2
STYLE
  5
3
330
0
100
AcDbSymbolTable
 70
     1
  0
STYLE
  5
11
330
3
100
AcDbSymbolTableRecord
100
AcDbTextStyleTableRecord
  2
STANDARD
 70
     0
 40
0.0
 41
1.0
 50
0.0
 71
     0
 42
2.5
  3
txt
  4

  0
ENDTAB
  0
TABLE
  2
VIEW
  5
6
330
0
100
AcDbSymbolTable
 70
     0
  0
ENDTAB
  0
TABLE
  2
UCS
  5
7
330
0
100
AcDbSymbolTable
 70
     0
  0
ENDTAB
  0
TABLE
  2
APPID
  5
9
330
0
100
AcDbSymbolTable
 70
     2
  0
APPID
  5
12
330
9
100
AcDbSymbolTableRecord
100
AcDbRegAppTableRecord
  2
ACAD
 70
     0
  0
ENDTAB
  0
TABLE
  2
DIMSTYLE
  5
A
330
0
100
AcDbSymbolTable
 70
     1
  0
DIMSTYLE
105
27
330
A
100
AcDbSymbolTableRecord
100
AcDbDimStyleTableRecord
  2
ISO-25
 70
     0
  3

  4

  5

  6

  7

 40
1.0
 41
2.5
 42
0.625
 43
3.75
 44
1.25
 45
0.0
 46
0.0
 47
0.0
 48
0.0
140
2.5
141
2.5
142
0.0
143
0.03937007874016
144
1.0
145
0.0
146
1.0
147
0.625
 71
     0
 72
     0
 73
     0
 74
     0
 75
     0
 76
     0
 77
     1
 78
     8
170
     0
171
     3
172
     1
173
     0
174
     0
175
     0
176
     0
177
     0
178
     0
270
     2
271
     2
272
     2
273
     2
274
     3
340
11
275
     0
280
     0
281
     0
282
     0
283
     0
284
     8
285
     0
286
     0
287
     3
288
     0
  0
ENDTAB
  0
TABLE
  2
BLOCK_RECORD
  5
1
330
0
100
AcDbSymbolTable
 70
     1
  0
BLOCK_RECORD
  5
1F
330
1
100
AcDbSymbolTableRecord
100
AcDbBlockTableRecord
  2
*MODEL_SPACE
  0
BLOCK_RECORD
  5
1B
330
1
100
AcDbSymbolTableRecord
100
AcDbBlockTableRecord
  2
*PAPER_SPACE
  0
ENDTAB
  0
ENDSEC
  0
SECTION
  2
BLOCKS
  0
BLOCK
  5
20
330
1F
100
AcDbEntity
  8
0
100
AcDbBlockBegin
  2
*MODEL_SPACE
 70
     0
 10
0.0
 20
0.0
 30
0.0
  3
*MODEL_SPACE
  1

  0
ENDBLK
  5
21
330
1F
100
AcDbEntity
  8
0
100
AcDbBlockEnd
  0
BLOCK
  5
1C
330
1B
100
AcDbEntity
 67
     1
  8
0
100
AcDbBlockBegin
  2
*PAPER_SPACE
  1

  0
ENDBLK
  5
1D
330
1B
100
AcDbEntity
 67
     1
  8
0
100
AcDbBlockEnd
  0
ENDSEC
  0
SECTION
  2
ENTITIES
  0
SPLINE
  5
100
100
AcDbEntity
  8
Layer_1
 62
5
100
AcDbSpline
 70
8
 71
3
 72
8
 73
4
 74
0
 40
0
 40
0
 40
0
 40
0
 40
1
 40
1
 40
1
 40
1
 10
-49.028431
 20
83.837973
 30
0.0
 10
-50.019082
 20
83.917427
 30
0.0
 10
-50.961006
 20
84.300956
 30
0.0
 10
-51.725389
 20
84.936112
 30
0.0
  0
LINE
  5
101
100
AcDbEntity
  8
Layer_1
 62
5
100
AcDbLine
 10
-51.725389
 20
84.936112
 30
0.0
 11
-63.561319
 21
92.997041
 31
0.0
  0
SPLINE
  5
102
100
AcDbEntity
  8
Layer_1
 62
5
100
AcDbSpline
 70
8
 71
3
 72
8
 73
4
 74
0
 40
0
 40
0
 40
0
 40
0
 40
1
 40
1
 40
1
 40
1
 10
-63.561319
 20
92.997041
 30
0.0
 10
-64.465066
 20
93.612551
 30
0.0
 10
-65.197321
 20
94.997919
 30
0.0
 10
-65.196867
 20
96.091348
 30
0.0
  0
SPLINE
  5
103
100
AcDbEntity
  8
Layer_1
 62
5
100
AcDbSpline
 70
8
 71
3
 72
8
 73
4
 74
0
 40
0
 40
0
 40
0
 40
0
 40
1
 40
1
 40
1
 40
1
 10
-65.196867
 20
96.091348
 30
0.0
 10
-65.168117
 20
165.438421
 30
0.0
 10
-65.236597
 20
91.850143
 30
0.0
 10
-65.215737
 20
206.348934
 30
0.0
  0
SPLINE
  5
104
100
AcDbEntity
  8
Layer_1
 62
5
100
AcDbSpline
 70
8
 71
3
 72
8
 73
4
 74
0
 40
0
 40
0
 40
0
 40
0
 40
1
 40
1
 40
1
 40
1
 10
-65.215737
 20
206.348934
 30
0.0
 10
-65.215538
 20
207.442354
 30
0.0
 10
-64.510918
 20
208.866760
 30
0.0
 10
-63.641931
 20
209.530435
 30
0.0
  0
LINE
  5
105
100
AcDbEntity
  8
Layer_1
 62
5
100
AcDbLine
 10
-63.641931
 20
209.530435
 30
0.0
 11
-60.332542
 21
212.057926
 31
0.0
  0
SPLINE
  5
106
100
AcDbEntity
  8
Layer_1
 62
5
100
AcDbSpline
 70
8
 71
3
 72
8
 73
4
 74
0
 40
0
 40
0
 40
0
 40
0
 40
1
 40
1
 40
1
 40
1
 10
-60.332542
 20
212.057926
 30
0.0
 10
-59.311974
 20
212.837368
 30
0.0
 10
-58.063430
 20
213.259615
 30
0.0
 10
-56.779261
 20
213.259615
 30
0.0
  0
LINE
  5
107
100
AcDbEntity
  8
Layer_1
 62
5
100
AcDbLine
 10
-56.779261
 20
213.259615
 30
0.0
 11
266.545442
 21
213.259596
 31
0.0
  0
SPLINE
  5
108
100
AcDbEntity
  8
Layer_1
 62
5
100
AcDbSpline
 70
8
 71
3
 72
8
 73
4
 74
0
 40
0
 40
0
 40
0
 40
0
 40
1
 40
1
 40
1
 40
1
 10
266.545442
 20
213.259596
 30
0.0
 10
267.829610
 20
213.259595
 30
0.0
 10
269.078151
 20
212.837348
 30
0.0
 10
270.098718
 20
212.057906
 30
0.0
  0
LINE
  5
109
100
AcDbEntity
  8
Layer_1
 62
5
100
AcDbLine
 10
270.098718
 20
212.057906
 30
0.0
 11
273.408104
 21
209.530417
 31
0.0
  0
SPLINE
  5
10a
100
AcDbEntity
  8
Layer_1
 62
5
100
AcDbSpline
 70
8
 71
3
 72
8
 73
4
 74
0
 40
0
 40
0
 40
0
 40
0
 40
1
 40
1
 40
1
 40
1
 10
273.408104
 20
209.530417
 30
0.0
 10
274.277093
 20
208.866742
 30
0.0
 10
274.981712
 20
207.442322
 30
0.0
 10
274.981912
 20
206.348885
 30
0.0
  0
SPLINE
  5
10b
100
AcDbEntity
  8
Layer_1
 62
5
100
AcDbSpline
 70
8
 71
3
 72
8
 73
4
 74
0
 40
0
 40
0
 40
0
 40
0
 40
1
 40
1
 40
1
 40
1
 10
274.981912
 20
206.348885
 30
0.0
 10
275.002712
 20
91.850123
 30
0.0
 10
274.934312
 20
165.438421
 30
0.0
 10
274.963012
 20
96.091298
 30
0.0
  0
SPLINE
  5
10c
100
AcDbEntity
  8
Layer_1
 62
5
100
AcDbSpline
 70
8
 71
3
 72
8
 73
4
 74
0
 40
0
 40
0
 40
0
 40
0
 40
1
 40
1
 40
1
 40
1
 10
274.963012
 20
96.091298
 30
0.0
 10
274.963462
 20
94.997879
 30
0.0
 10
274.231213
 20
93.612531
 30
0.0
 10
273.327464
 20
92.997021
 30
0.0
  0
LINE
  5
10d
100
AcDbEntity
  8
Layer_1
 62
5
100
AcDbLine
 10
273.327464
 20
92.997021
 30
0.0
 11
261.491539
 21
84.936092
 31
0.0
  0
SPLINE
  5
10e
100
AcDbEntity
  8
Layer_1
 62
5
100
AcDbSpline
 70
8
 71
3
 72
8
 73
4
 74
0
 40
0
 40
0
 40
0
 40
0
 40
1
 40
1
 40
1
 40
1
 10
261.491539
 20
84.936092
 30
0.0
 10
260.426673
 20
84.210855
 30
0.0
 10
259.163774
 20
83.832264
 30
0.0
 10
257.875553
 20
83.852093
 30
0.0
  0
SPLINE
  5
10f
100
AcDbEntity
  8
Layer_1
 62
5
100
AcDbSpline
 70
8
 71
3
 72
8
 73
4
 74
0
 40
0
 40
0
 40
0
 40
0
 40
1
 40
1
 40
1
 40
1
 10
257.875553
 20
83.852093
 30
0.0
 10
256.862138
 20
83.865326
 30
0.0
 10
255.848636
 20
83.870760
 30
0.0
 10
254.835137
 20
83.868393
 30
0.0
  0
LINE
  5
110
100
AcDbEntity
  8
Layer_1
 62
5
100
AcDbLine
 10
254.835137
 20
83.868393
 30
0.0
 11
-45.068986
 21
83.868413
 31
0.0
  0
SPLINE
  5
111
100
AcDbEntity
  8
Layer_1
 62
5
100
AcDbSpline
 70
8
 71
3
 72
8
 73
4
 74
0
 40
0
 40
0
 40
0
 40
0
 40
1
 40
1
 40
1
 40
1
 10
-45.068986
 20
83.868413
 30
0.0
 10
-46.388860
 20
83.868404
 30
0.0
 10
-47.708715
 20
83.858237
 30
0.0
 10
-49.028434
 20
83.837913
 30
0.0
  0
LINE
  5
112
100
AcDbEntity
  8
Layer_1
 62
5
100
AcDbLine
 10
-49.028434
 20
83.837913
 30
0.0
 11
-49.028431
 21
83.837973
 31
0.0
  0
SPLINE
  5
113
100
AcDbEntity
  8
Layer_1
 62
5
100
AcDbSpline
 70
8
 71
3
 72
8
 73
4
 74
0
 40
0
 40
0
 40
0
 40
0
 40
1
 40
1
 40
1
 40
1
 10
-55.944758
 20
204.642482
 30
0.0
 10
-55.944758
 20
205.167301
 30
0.0
 10
-56.370181
 20
205.592701
 30
0.0
 10
-56.894955
 20
205.592701
 30
0.0
  0
SPLINE
  5
114
100
AcDbEntity
  8
Layer_1
 62
5
100
AcDbSpline
 70
8
 71
3
 72
8
 73
4
 74
0
 40
0
 40
0
 40
0
 40
0
 40
1
 40
1
 40
1
 40
1
 10
-56.894955
 20
205.592701
 30
0.0
 10
-57.419729
 20
205.592701
 30
0.0
 10
-57.845179
 20
205.167301
 30
0.0
 10
-57.845179
 20
204.642482
 30
0.0
  0
SPLINE
  5
115
100
AcDbEntity
  8
Layer_1
 62
5
100
AcDbSpline
 70
8
 71
3
 72
8
 73
4
 74
0
 40
0
 40
0
 40
0
 40
0
 40
1
 40
1
 40
1
 40
1
 10
-57.845179
 20
204.642482
 30
0.0
 10
-57.845179
 20
204.117664
 30
0.0
 10
-57.419729
 20
203.692264
 30
0.0
 10
-56.894955
 20
203.692264
 30
0.0
  0
SPLINE
  5
116
100
AcDbEntity
  8
Layer_1
 62
5
100
AcDbSpline
 70
8
 71
3
 72
8
 73
4
 74
0
 40
0
 40
0
 40
0
 40
0
 40
1
 40
1
 40
1
 40
1
 10
-56.894955
 20
203.692264
 30
0.0
 10
-56.370181
 20
203.692264
 30
0.0
 10
-55.944758
 20
204.117664
 30
0.0
 10
-55.944758
 20
204.642482
 30
0.0
  0
LINE
  5
117
100
AcDbEntity
  8
Layer_1
 62
5
100
AcDbLine
 10
-55.944758
 20
204.642482
 30
0.0
 11
-55.944758
 21
204.642482
 31
0.0
  0
SPLINE
  5
118
100
AcDbEntity
  8
Layer_1
 62
5
100
AcDbSpline
 70
8
 71
3
 72
8
 73
4
 74
0
 40
0
 40
0
 40
0
 40
0
 40
1
 40
1
 40
1
 40
1
 10
32.029248
 20
208.118058
 30
0.0
 10
32.029248
 20
208.642877
 30
0.0
 10
31.603825
 20
209.068276
 30
0.0
 10
31.079051
 20
209.068276
 30
0.0
  0
SPLINE
  5
119
100
AcDbEntity
  8
Layer_1
 62
5
100
AcDbSpline
 70
8
 71
3
 72
8
 73
4
 74
0
 40
0
 40
0
 40
0
 40
0
 40
1
 40
1
 40
1
 40
1
 10
31.079051
 20
209.068276
 30
0.0
 10
30.554277
 20
209.068276
 30
0.0
 10
30.128828
 20
208.642877
 30
0.0
 10
30.128828
 20
208.118058
 30
0.0
  0
SPLINE
  5
11a
100
AcDbEntity
  8
Layer_1
 62
5
100
AcDbSpline
 70
8
 71
3
 72
8
 73
4
 74
0
 40
0
 40
0
 40
0
 40
0
 40
1
 40
1
 40
1
 40
1
 10
30.128828
 20
208.118058
 30
0.0
 10
30.128828
 20
207.593239
 30
0.0
 10
30.554277
 20
207.167840
 30
0.0
 10
31.079051
 20
207.167840
 30
0.0
  0
SPLINE
  5
11b
100
AcDbEntity
  8
Layer_1
 62
5
100
AcDbSpline
 70
8
 71
3
 72
8
 73
4
 74
0
 40
0
 40
0
 40
0
 40
0
 40
1
 40
1
 40
1
 40
1
 10
31.079051
 20
207.167840
 30
0.0
 10
31.603825
 20
207.167840
 30
0.0
 10
32.029248
 20
207.593239
 30
0.0
 10
32.029248
 20
208.118058
 30
0.0
  0
LINE
  5
11c
100
AcDbEntity
  8
Layer_1
 62
5
100
AcDbLine
 10
32.029248
 20
208.118058
 30
0.0
 11
32.029248
 21
208.118058
 31
0.0
  0
SPLINE
  5
11d
100
AcDbEntity
  8
Layer_1
 62
5
100
AcDbSpline
 70
8
 71
3
 72
8
 73
4
 74
0
 40
0
 40
0
 40
0
 40
0
 40
1
 40
1
 40
1
 40
1
 10
32.029248
 20
91.293022
 30
0.0
 10
32.029248
 20
91.817841
 30
0.0
 10
31.603825
 20
92.243240
 30
0.0
 10
31.079051
 20
92.243240
 30
0.0
  0
SPLINE
  5
11e
100
AcDbEntity
  8
Layer_1
 62
5
100
AcDbSpline
 70
8
 71
3
 72
8
 73
4
 74
0
 40
0
 40
0
 40
0
 40
0
 40
1
 40
1
 40
1
 40
1
 10
31.079051
 20
92.243240
 30
0.0
 10
30.554277
 20
92.243240
 30
0.0
 10
30.128828
 20
91.817841
 30
0.0
 10
30.128828
 20
91.293022
 30
0.0
  0
SPLINE
  5
11f
100
AcDbEntity
  8
Layer_1
 62
5
100
AcDbSpline
 70
8
 71
3
 72
8
 73
4
 74
0
 40
0
 40
0
 40
0
 40
0
 40
1
 40
1
 40
1
 40
1
 10
30.128828
 20
91.293022
 30
0.0
 10
30.128828
 20
90.768203
 30
0.0
 10
30.554277
 20
90.342804
 30
0.0
 10
31.079051
 20
90.342804
 30
0.0
  0
SPLINE
  5
120
100
AcDbEntity
  8
Layer_1
 62
5
100
AcDbSpline
 70
8
 71
3
 72
8
 73
4
 74
0
 40
0
 40
0
 40
0
 40
0
 40
1
 40
1
 40
1
 40
1
 10
31.079051
 20
90.342804
 30
0.0
 10
31.603825
 20
90.342804
 30
0.0
 10
32.029248
 20
90.768203
 30
0.0
 10
32.029248
 20
91.293022
 30
0.0
  0
LINE
  5
121
100
AcDbEntity
  8
Layer_1
 62
5
100
AcDbLine
 10
32.029248
 20
91.293022
 30
0.0
 11
32.029248
 21
91.293022
 31
0.0
  0
SPLINE
  5
122
100
AcDbEntity
  8
Layer_1
 62
5
100
AcDbSpline
 70
8
 71
3
 72
8
 73
4
 74
0
 40
0
 40
0
 40
0
 40
0
 40
1
 40
1
 40
1
 40
1
 10
-55.945869
 20
179.066204
 30
0.0
 10
-55.945869
 20
179.591064
 30
0.0
 10
-56.371319
 20
180.016495
 30
0.0
 10
-56.896146
 20
180.016495
 30
0.0
  0
SPLINE
  5
123
100
AcDbEntity
  8
Layer_1
 62
5
100
AcDbSpline
 70
8
 71
3
 72
8
 73
4
 74
0
 40
0
 40
0
 40
0
 40
0
 40
1
 40
1
 40
1
 40
1
 10
-56.896146
 20
180.016495
 30
0.0
 10
-57.420973
 20
180.016495
 30
0.0
 10
-57.846449
 20
179.591064
 30
0.0
 10
-57.846449
 20
179.066204
 30
0.0
  0
SPLINE
  5
124
100
AcDbEntity
  8
Layer_1
 62
5
100
AcDbSpline
 70
8
 71
3
 72
8
 73
4
 74
0
 40
0
 40
0
 40
0
 40
0
 40
1
 40
1
 40
1
 40
1
 10
-57.846449
 20
179.066204
 30
0.0
 10
-57.846449
 20
178.541344
 30
0.0
 10
-57.420973
 20
178.115913
 30
0.0
 10
-56.896146
 20
178.115913
 30
0.0
  0
SPLINE
  5
125
100
AcDbEntity
  8
Layer_1
 62
5
100
AcDbSpline
 70
8
 71
3
 72
8
 73
4
 74
0
 40
0
 40
0
 40
0
 40
0
 40
1
 40
1
 40
1
 40
1
 10
-56.896146
 20
178.115913
 30
0.0
 10
-56.371319
 20
178.115913
 30
0.0
 10
-55.945869
 20
178.541344
 30
0.0
 10
-55.945869
 20
179.066204
 30
0.0
  0
LINE
  5
126
100
AcDbEntity
  8
Layer_1
 62
5
100
AcDbLine
 10
-55.945869
 20
179.066204
 30
0.0
 11
-55.945869
 21
179.066204
 31
0.0
  0
SPLINE
  5
127
100
AcDbEntity
  8
Layer_1
 62
5
100
AcDbSpline
 70
8
 71
3
 72
8
 73
4
 74
0
 40
0
 40
0
 40
0
 40
0
 40
1
 40
1
 40
1
 40
1
 10
-55.946928
 20
97.584851
 30
0.0
 10
-55.946928
 20
97.060032
 30
0.0
 10
-56.372324
 20
96.634632
 30
0.0
 10
-56.897125
 20
96.634632
 30
0.0
  0
SPLINE
  5
128
100
AcDbEntity
  8
Layer_1
 62
5
100
AcDbSpline
 70
8
 71
3
 72
8
 73
4
 74
0
 40
0
 40
0
 40
0
 40
0
 40
1
 40
1
 40
1
 40
1
 10
-56.897125
 20
96.634632
 30
0.0
 10
-57.421925
 20
96.634632
 30
0.0
 10
-57.847348
 20
97.060032
 30
0.0
 10
-57.847348
 20
97.584851
 30
0.0
  0
SPLINE
  5
129
100
AcDbEntity
  8
Layer_1
 62
5
100
AcDbSpline
 70
8
 71
3
 72
8
 73
4
 74
0
 40
0
 40
0
 40
0
 40
0
 40
1
 40
1
 40
1
 40
1
 10
-57.847348
 20
97.584851
 30
0.0
 10
-57.847348
 20
98.109669
 30
0.0
 10
-57.421925
 20
98.535069
 30
0.0
 10
-56.897125
 20
98.535069
 30
0.0
  0
SPLINE
  5
12a
100
AcDbEntity
  8
Layer_1
 62
5
100
AcDbSpline
 70
8
 71
3
 72
8
 73
4
 74
0
 40
0
 40
0
 40
0
 40
0
 40
1
 40
1
 40
1
 40
1
 10
-56.897125
 20
98.535069
 30
0.0
 10
-56.372324
 20
98.535069
 30
0.0
 10
-55.946928
 20
98.109669
 30
0.0
 10
-55.946928
 20
97.584851
 30
0.0
  0
LINE
  5
12b
100
AcDbEntity
  8
Layer_1
 62
5
100
AcDbLine
 10
-55.946928
 20
97.584851
 30
0.0
 11
-55.946928
 21
97.584851
 31
0.0
  0
SPLINE
  5
12c
100
AcDbEntity
  8
Layer_1
 62
5
100
AcDbSpline
 70
8
 71
3
 72
8
 73
4
 74
0
 40
0
 40
0
 40
0
 40
0
 40
1
 40
1
 40
1
 40
1
 10
266.067858
 20
204.671460
 30
0.0
 10
266.067858
 20
205.196281
 30
0.0
 10
266.493265
 20
205.621678
 30
0.0
 10
267.018065
 20
205.621678
 30
0.0
  0
SPLINE
  5
12d
100
AcDbEntity
  8
Layer_1
 62
5
100
AcDbSpline
 70
8
 71
3
 72
8
 73
4
 74
0
 40
0
 40
0
 40
0
 40
0
 40
1
 40
1
 40
1
 40
1
 10
267.018065
 20
205.621678
 30
0.0
 10
267.542882
 20
205.621678
 30
0.0
 10
267.968291
 20
205.196281
 30
0.0
 10
267.968291
 20
204.671460
 30
0.0
  0
SPLINE
  5
12e
100
AcDbEntity
  8
Layer_1
 62
5
100
AcDbSpline
 70
8
 71
3
 72
8
 73
4
 74
0
 40
0
 40
0
 40
0
 40
0
 40
1
 40
1
 40
1
 40
1
 10
267.968291
 20
204.671460
 30
0.0
 10
267.968291
 20
204.146638
 30
0.0
 10
267.542882
 20
203.721241
 30
0.0
 10
267.018065
 20
203.721241
 30
0.0
  0
SPLINE
  5
12f
100
AcDbEntity
  8
Layer_1
 62
5
100
AcDbSpline
 70
8
 71
3
 72
8
 73
4
 74
0
 40
0
 40
0
 40
0
 40
0
 40
1
 40
1
 40
1
 40
1
 10
267.018065
 20
203.721241
 30
0.0
 10
266.493265
 20
203.721241
 30
0.0
 10
266.067858
 20
204.146638
 30
0.0
 10
266.067858
 20
204.671460
 30
0.0
  0
LINE
  5
130
100
AcDbEntity
  8
Layer_1
 62
5
100
AcDbLine
 10
266.067858
 20
204.671460
 30
0.0
 11
266.067858
 21
204.671460
 31
0.0
  0
SPLINE
  5
131
100
AcDbEntity
  8
Layer_1
 62
5
100
AcDbSpline
 70
8
 71
3
 72
8
 73
4
 74
0
 40
0
 40
0
 40
0
 40
0
 40
1
 40
1
 40
1
 40
1
 10
178.093854
 20
208.118058
 30
0.0
 10
178.093854
 20
208.642877
 30
0.0
 10
178.519304
 20
209.068276
 30
0.0
 10
179.044051
 20
209.068276
 30
0.0
  0
SPLINE
  5
132
100
AcDbEntity
  8
Layer_1
 62
5
100
AcDbSpline
 70
8
 71
3
 72
8
 73
4
 74
0
 40
0
 40
0
 40
0
 40
0
 40
1
 40
1
 40
1
 40
1
 10
179.044051
 20
209.068276
 30
0.0
 10
179.568852
 20
209.068276
 30
0.0
 10
179.994275
 20
208.642877
 30
0.0
 10
179.994275
 20
208.118058
 30
0.0
  0
SPLINE
  5
133
100
AcDbEntity
  8
Layer_1
 62
5
100
AcDbSpline
 70
8
 71
3
 72
8
 73
4
 74
0
 40
0
 40
0
 40
0
 40
0
 40
1
 40
1
 40
1
 40
1
 10
179.994275
 20
208.118058
 30
0.0
 10
179.994275
 20
207.593239
 30
0.0
 10
179.568852
 20
207.167840
 30
0.0
 10
179.044051
 20
207.167840
 30
0.0
  0
SPLINE
  5
134
100
AcDbEntity
  8
Layer_1
 62
5
100
AcDbSpline
 70
8
 71
3
 72
8
 73
4
 74
0
 40
0
 40
0
 40
0
 40
0
 40
1
 40
1
 40
1
 40
1
 10
179.044051
 20
207.167840
 30
0.0
 10
178.519304
 20
207.167840
 30
0.0
 10
178.093854
 20
207.593239
 30
0.0
 10
178.093854
 20
208.118058
 30
0.0
  0
LINE
  5
135
100
AcDbEntity
  8
Layer_1
 62
5
100
AcDbLine
 10
178.093854
 20
208.118058
 30
0.0
 11
178.093854
 21
208.118058
 31
0.0
  0
SPLINE
  5
136
100
AcDbEntity
  8
Layer_1
 62
5
100
AcDbSpline
 70
8
 71
3
 72
8
 73
4
 74
0
 40
0
 40
0
 40
0
 40
0
 40
1
 40
1
 40
1
 40
1
 10
178.093854
 20
91.293022
 30
0.0
 10
178.093854
 20
91.817841
 30
0.0
 10
178.519304
 20
92.243240
 30
0.0
 10
179.044051
 20
92.243240
 30
0.0
  0
SPLINE
  5
137
100
AcDbEntity
  8
Layer_1
 62
5
100
AcDbSpline
 70
8
 71
3
 72
8
 73
4
 74
0
 40
0
 40
0
 40
0
 40
0
 40
1
 40
1
 40
1
 40
1
 10
179.044051
 20
92.243240
 30
0.0
 10
179.568852
 20
92.243240
 30
0.0
 10
179.994275
 20
91.817841
 30
0.0
 10
179.994275
 20
91.293022
 30
0.0
  0
SPLINE
  5
138
100
AcDbEntity
  8
Layer_1
 62
5
100
AcDbSpline
 70
8
 71
3
 72
8
 73
4
 74
0
 40
0
 40
0
 40
0
 40
0
 40
1
 40
1
 40
1
 40
1
 10
179.994275
 20
91.293022
 30
0.0
 10
179.994275
 20
90.768203
 30
0.0
 10
179.568852
 20
90.342804
 30
0.0
 10
179.044051
 20
90.342804
 30
0.0
  0
SPLINE
  5
139
100
AcDbEntity
  8
Layer_1
 62
5
100
AcDbSpline
 70
8
 71
3
 72
8
 73
4
 74
0
 40
0
 40
0
 40
0
 40
0
 40
1
 40
1
 40
1
 40
1
 10
179.044051
 20
90.342804
 30
0.0
 10
178.519304
 20
90.342804
 30
0.0
 10
178.093854
 20
90.768203
 30
0.0
 10
178.093854
 20
91.293022
 30
0.0
  0
LINE
  5
13a
100
AcDbEntity
  8
Layer_1
 62
5
100
AcDbLine
 10
178.093854
 20
91.293022
 30
0.0
 11
178.093854
 21
91.293022
 31
0.0
  0
SPLINE
  5
13b
100
AcDbEntity
  8
Layer_1
 62
5
100
AcDbSpline
 70
8
 71
3
 72
8
 73
4
 74
0
 40
0
 40
0
 40
0
 40
0
 40
1
 40
1
 40
1
 40
1
 10
266.066982
 20
179.066204
 30
0.0
 10
266.066982
 20
179.591024
 30
0.0
 10
266.492389
 20
180.016422
 30
0.0
 10
267.017190
 20
180.016422
 30
0.0
  0
SPLINE
  5
13c
100
AcDbEntity
  8
Layer_1
 62
5
100
AcDbSpline
 70
8
 71
3
 72
8
 73
4
 74
0
 40
0
 40
0
 40
0
 40
0
 40
1
 40
1
 40
1
 40
1
 10
267.017190
 20
180.016422
 30
0.0
 10
267.542006
 20
180.016422
 30
0.0
 10
267.967416
 20
179.591024
 30
0.0
 10
267.967416
 20
179.066204
 30
0.0
  0
SPLINE
  5
13d
100
AcDbEntity
  8
Layer_1
 62
5
100
AcDbSpline
 70
8
 71
3
 72
8
 73
4
 74
0
 40
0
 40
0
 40
0
 40
0
 40
1
 40
1
 40
1
 40
1
 10
267.967416
 20
179.066204
 30
0.0
 10
267.967416
 20
178.541385
 30
0.0
 10
267.542006
 20
178.115987
 30
0.0
 10
267.017190
 20
178.115987
 30
0.0
  0
SPLINE
  5
13e
100
AcDbEntity
  8
Layer_1
 62
5
100
AcDbSpline
 70
8
 71
3
 72
8
 73
4
 74
0
 40
0
 40
0
 40
0
 40
0
 40
1
 40
1
 40
1
 40
1
 10
267.017190
 20
178.115987
 30
0.0
 10
266.492389
 20
178.115987
 30
0.0
 10
266.066982
 20
178.541385
 30
0.0
 10
266.066982
 20
179.066204
 30
0.0
  0
LINE
  5
13f
100
AcDbEntity
  8
Layer_1
 62
5
100
AcDbLine
 10
266.066982
 20
179.066204
 30
0.0
 11
266.066982
 21
179.066204
 31
0.0
  0
SPLINE
  5
140
100
AcDbEntity
  8
Layer_1
 62
5
100
AcDbSpline
 70
8
 71
3
 72
8
 73
4
 74
0
 40
0
 40
0
 40
0
 40
0
 40
1
 40
1
 40
1
 40
1
 10
266.067958
 20
97.584851
 30
0.0
 10
266.067958
 20
97.060029
 30
0.0
 10
266.493347
 20
96.634632
 30
0.0
 10
267.018169
 20
96.634632
 30
0.0
  0
SPLINE
  5
141
100
AcDbEntity
  8
Layer_1
 62
5
100
AcDbSpline
 70
8
 71
3
 72
8
 73
4
 74
0
 40
0
 40
0
 40
0
 40
0
 40
1
 40
1
 40
1
 40
1
 10
267.018169
 20
96.634632
 30
0.0
 10
267.543006
 20
96.634632
 30
0.0
 10
267.968395
 20
97.060029
 30
0.0
 10
267.968395
 20
97.584851
 30
0.0
  0
SPLINE
  5
142
100
AcDbEntity
  8
Layer_1
 62
5
100
AcDbSpline
 70
8
 71
3
 72
8
 73
4
 74
0
 40
0
 40
0
 40
0
 40
0
 40
1
 40
1
 40
1
 40
1
 10
267.968395
 20
97.584851
 30
0.0
 10
267.968395
 20
98.109672
 30
0.0
 10
267.543006
 20
98.535069
 30
0.0
 10
267.018169
 20
98.535069
 30
0.0
  0
SPLINE
  5
143
100
AcDbEntity
  8
Layer_1
 62
5
100
AcDbSpline
 70
8
 71
3
 72
8
 73
4
 74
0
 40
0
 40
0
 40
0
 40
0
 40
1
 40
1
 40
1
 40
1
 10
267.018169
 20
98.535069
 30
0.0
 10
266.493347
 20
98.535069
 30
0.0
 10
266.067958
 20
98.109672
 30
0.0
 10
266.067958
 20
97.584851
 30
0.0
  0
LINE
  5
144
100
AcDbEntity
  8
Layer_1
 62
5
100
AcDbLine
 10
266.067958
 20
97.584851
 30
0.0
 11
266.067958
 21
97.584851
 31
0.0
  0
SPLINE
  5
145
100
AcDbEntity
  8
Layer_1
 62
5
100
AcDbSpline
 70
8
 71
3
 72
8
 73
4
 74
0
 40
0
 40
0
 40
0
 40
0
 40
1
 40
1
 40
1
 40
1
 10
16.583731
 20
175.944329
 30
0.0
 10
16.054256
 20
175.926575
 30
0.0
 10
15.550590
 20
175.610306
 30
0.0
 10
15.305258
 20
175.140761
 30
0.0
  0
SPLINE
  5
146
100
AcDbEntity
  8
Layer_1
 62
5
100
AcDbSpline
 70
8
 71
3
 72
8
 73
4
 74
0
 40
0
 40
0
 40
0
 40
0
 40
1
 40
1
 40
1
 40
1
 10
15.305258
 20
175.140761
 30
0.0
 10
15.037995
 20
174.656664
 30
0.0
 10
15.150461
 20
174.086530
 30
0.0
 10
15.126458
 20
173.558121
 30
0.0
  0
SPLINE
  5
147
100
AcDbEntity
  8
Layer_1
 62
5
100
AcDbSpline
 70
8
 71
3
 72
8
 73
4
 74
0
 40
0
 40
0
 40
0
 40
0
 40
1
 40
1
 40
1
 40
1
 10
15.126458
 20
173.558121
 30
0.0
 10
15.127781
 20
155.505723
 30
0.0
 10
15.127517
 20
137.458527
 30
0.0
 10
15.126458
 20
119.406061
 30
0.0
  0
SPLINE
  5
148
100
AcDbEntity
  8
Layer_1
 62
5
100
AcDbSpline
 70
8
 71
3
 72
8
 73
4
 74
0
 40
0
 40
0
 40
0
 40
0
 40
1
 40
1
 40
1
 40
1
 10
15.126458
 20
119.406061
 30
0.0
 10
15.128840
 20
112.977488
 30
0.0
 10
15.121643
 20
106.548333
 30
0.0
 10
15.130083
 20
100.120130
 30
0.0
  0
SPLINE
  5
149
100
AcDbEntity
  8
Layer_1
 62
5
100
AcDbSpline
 70
8
 71
3
 72
8
 73
4
 74
0
 40
0
 40
0
 40
0
 40
0
 40
1
 40
1
 40
1
 40
1
 10
15.130083
 20
100.120130
 30
0.0
 10
15.148048
 20
99.600409
 30
0.0
 10
15.458005
 20
99.105533
 30
0.0
 10
15.919699
 20
98.865424
 30
0.0
  0
SPLINE
  5
14a
100
AcDbEntity
  8
Layer_1
 62
5
100
AcDbSpline
 70
8
 71
3
 72
8
 73
4
 74
0
 40
0
 40
0
 40
0
 40
0
 40
1
 40
1
 40
1
 40
1
 10
15.919699
 20
98.865424
 30
0.0
 10
16.400161
 20
98.600788
 30
0.0
 10
16.966223
 20
98.713580
 30
0.0
 10
17.490455
 20
98.689212
 30
0.0
  0
LINE
  5
14b
100
AcDbEntity
  8
Layer_1
 62
5
100
AcDbLine
 10
17.490455
 20
98.689212
 30
0.0
 11
257.566650
 21
98.689212
 31
0.0
  0
SPLINE
  5
14c
100
AcDbEntity
  8
Layer_1
 62
5
100
AcDbSpline
 70
8
 71
3
 72
8
 73
4
 74
0
 40
0
 40
0
 40
0
 40
0
 40
1
 40
1
 40
1
 40
1
 10
257.566650
 20
98.689212
 30
0.0
 10
258.356721
 20
98.682862
 30
0.0
 10
259.065089
 20
99.376361
 30
0.0
 10
259.072736
 20
100.166802
 30
0.0
  0
SPLINE
  5
14d
100
AcDbEntity
  8
Layer_1
 62
5
100
AcDbSpline
 70
8
 71
3
 72
8
 73
4
 74
0
 40
0
 40
0
 40
0
 40
0
 40
1
 40
1
 40
1
 40
1
 10
259.072736
 20
100.166802
 30
0.0
 10
259.076969
 20
124.919997
 30
0.0
 10
259.072736
 20
149.673348
 30
0.0
 10
259.075382
 20
174.426606
 30
0.0
  0
SPLINE
  5
14e
100
AcDbEntity
  8
Layer_1
 62
5
100
AcDbSpline
 70
8
 71
3
 72
8
 73
4
 74
0
 40
0
 40
0
 40
0
 40
0
 40
1
 40
1
 40
1
 40
1
 10
259.075382
 20
174.426606
 30
0.0
 10
259.061359
 20
174.861496
 30
0.0
 10
258.868213
 20
175.285665
 30
0.0
 10
258.535897
 20
175.569171
 30
0.0
  0
SPLINE
  5
14f
100
AcDbEntity
  8
Layer_1
 62
5
100
AcDbSpline
 70
8
 71
3
 72
8
 73
4
 74
0
 40
0
 40
0
 40
0
 40
0
 40
1
 40
1
 40
1
 40
1
 10
258.535897
 20
175.569171
 30
0.0
 10
258.204665
 20
175.865054
 30
0.0
 10
257.749477
 20
175.973020
 30
0.0
 10
257.312915
 20
175.946924
 30
0.0
  0
SPLINE
  5
150
100
AcDbEntity
  8
Layer_1
 62
5
100
AcDbSpline
 70
8
 71
3
 72
8
 73
4
 74
0
 40
0
 40
0
 40
0
 40
0
 40
1
 40
1
 40
1
 40
1
 10
257.312915
 20
175.946924
 30
0.0
 10
177.079954
 20
175.946927
 30
0.0
 10
96.846985
 20
175.946924
 30
0.0
 10
16.614015
 20
175.946927
 30
0.0
  0
LINE
  5
151
100
AcDbEntity
  8
Layer_1
 62
5
100
AcDbLine
 10
16.614015
 20
175.946927
 30
0.0
 11
16.587716
 21
175.944149
 31
0.0
  0
LINE
  5
152
100
AcDbEntity
  8
Layer_1
 62
5
100
AcDbLine
 10
16.587716
 20
175.944149
 30
0.0
 11
16.583731
 21
175.944329
 31
0.0
  0
SPLINE
  5
153
100
AcDbEntity
  8
Layer_1
 62
5
100
AcDbSpline
 70
8
 71
3
 72
8
 73
4
 74
0
 40
0
 40
0
 40
0
 40
0
 40
1
 40
1
 40
1
 40
1
 10
-47.798301
 20
175.944329
 30
0.0
 10
-48.330443
 20
175.927237
 30
0.0
 10
-48.836492
 20
175.609390
 30
0.0
 10
-49.082459
 20
175.137144
 30
0.0
  0
SPLINE
  5
154
100
AcDbEntity
  8
Layer_1
 62
5
100
AcDbSpline
 70
8
 71
3
 72
8
 73
4
 74
0
 40
0
 40
0
 40
0
 40
0
 40
1
 40
1
 40
1
 40
1
 10
-49.082459
 20
175.137144
 30
0.0
 10
-49.350628
 20
174.653021
 30
0.0
 10
-49.237529
 20
174.081360
 30
0.0
 10
-49.261778
 20
173.552435
 30
0.0
  0
SPLINE
  5
155
100
AcDbEntity
  8
Layer_1
 62
5
100
AcDbSpline
 70
8
 71
3
 72
8
 73
4
 74
0
 40
0
 40
0
 40
0
 40
0
 40
1
 40
1
 40
1
 40
1
 10
-49.261778
 20
173.552435
 30
0.0
 10
-49.261775
 20
149.095665
 30
0.0
 10
-49.261778
 20
124.638904
 30
0.0
 10
-49.261778
 20
100.182148
 30
0.0
  0
SPLINE
  5
156
100
AcDbEntity
  8
Layer_1
 62
5
100
AcDbSpline
 70
8
 71
3
 72
8
 73
4
 74
0
 40
0
 40
0
 40
0
 40
0
 40
1
 40
1
 40
1
 40
1
 10
-49.261778
 20
100.182148
 30
0.0
 10
-49.249051
 20
99.654252
 30
0.0
 10
-48.950975
 20
99.140114
 30
0.0
 10
-48.483224
 20
98.888946
 30
0.0
  0
SPLINE
  5
157
100
AcDbEntity
  8
Layer_1
 62
5
100
AcDbSpline
 70
8
 71
3
 72
8
 73
4
 74
0
 40
0
 40
0
 40
0
 40
0
 40
1
 40
1
 40
1
 40
1
 10
-48.483224
 20
98.888946
 30
0.0
 10
-48.013372
 20
98.601529
 30
0.0
 10
-47.441928
 20
98.710670
 30
0.0
 10
-46.919184
 20
98.689212
 30
0.0
  0
LINE
  5
158
100
AcDbEntity
  8
Layer_1
 62
5
100
AcDbLine
 10
-46.919184
 20
98.689212
 30
0.0
 11
7.456134
 21
98.689212
 31
0.0
  0
SPLINE
  5
159
100
AcDbEntity
  8
Layer_1
 62
5
100
AcDbSpline
 70
8
 71
3
 72
8
 73
4
 74
0
 40
0
 40
0
 40
0
 40
0
 40
1
 40
1
 40
1
 40
1
 10
7.456134
 20
98.689212
 30
0.0
 10
7.983765
 20
98.703499
 30
0.0
 10
8.497109
 20
99.000203
 30
0.0
 10
8.748992
 20
99.467642
 30
0.0
  0
SPLINE
  5
15a
100
AcDbEntity
  8
Layer_1
 62
5
100
AcDbSpline
 70
8
 71
3
 72
8
 73
4
 74
0
 40
0
 40
0
 40
0
 40
0
 40
1
 40
1
 40
1
 40
1
 10
8.748992
 20
99.467642
 30
0.0
 10
9.038631
 20
99.946484
 30
0.0
 10
8.925813
 20
100.526926
 30
0.0
 10
8.948541
 20
101.058262
 30
0.0
  0
LINE
  5
15b
100
AcDbEntity
  8
Layer_1
 62
5
100
AcDbLine
 10
8.948541
 20
101.058262
 30
0.0
 11
8.948541
 21
174.456049
 31
0.0
  0
SPLINE
  5
15c
100
AcDbEntity
  8
Layer_1
 62
5
100
AcDbSpline
 70
8
 71
3
 72
8
 73
4
 74
0
 40
0
 40
0
 40
0
 40
0
 40
1
 40
1
 40
1
 40
1
 10
8.948541
 20
174.456049
 30
0.0
 10
8.933168
 20
174.973701
 30
0.0
 10
8.648636
 20
175.481012
 30
0.0
 10
8.192521
 20
175.734308
 30
0.0
  0
SPLINE
  5
15d
100
AcDbEntity
  8
Layer_1
 62
5
100
AcDbSpline
 70
8
 71
3
 72
8
 73
4
 74
0
 40
0
 40
0
 40
0
 40
0
 40
1
 40
1
 40
1
 40
1
 10
8.192521
 20
175.734308
 30
0.0
 10
7.720161
 20
176.037811
 30
0.0
 10
7.136438
 20
175.926004
 30
0.0
 10
6.605949
 20
175.947429
 30
0.0
  0
SPLINE
  5
15e
100
AcDbEntity
  8
Layer_1
 62
5
100
AcDbSpline
 70
8
 71
3
 72
8
 73
4
 74
0
 40
0
 40
0
 40
0
 40
0
 40
1
 40
1
 40
1
 40
1
 10
6.605949
 20
175.947429
 30
0.0
 10
-11.518976
 20
175.947429
 30
0.0
 10
-29.643912
 20
175.947427
 30
0.0
 10
-47.768847
 20
175.947429
 30
0.0
  0
LINE
  5
15f
100
AcDbEntity
  8
Layer_1
 62
5
100
AcDbLine
 10
-47.768847
 20
175.947429
 30
0.0
 11
-47.795147
 21
175.944651
 31
0.0
  0
LINE
  5
160
100
AcDbEntity
  8
Layer_1
 62
5
100
AcDbLine
 10
-47.795147
 20
175.944651
 30
0.0
 11
-47.798301
 21
175.944329
 31
0.0
  0
SPLINE
  5
161
100
AcDbEntity
  8
Layer_1
 62
5
100
AcDbSpline
 70
8
 71
3
 72
8
 73
4
 74
0
 40
0
 40
0
 40
0
 40
0
 40
1
 40
1
 40
1
 40
1
 10
16.563062
 20
202.235195
 30
0.0
 10
16.031031
 20
202.217891
 30
0.0
 10
15.531641
 20
201.893010
 30
0.0
 10
15.289624
 20
201.420600
 30
0.0
  0
SPLINE
  5
162
100
AcDbEntity
  8
Layer_1
 62
5
100
AcDbSpline
 70
8
 71
3
 72
8
 73
4
 74
0
 40
0
 40
0
 40
0
 40
0
 40
1
 40
1
 40
1
 40
1
 10
15.289624
 20
201.420600
 30
0.0
 10
15.039506
 20
200.932447
 30
0.0
 10
15.151456
 20
200.369194
 30
0.0
 10
15.126458
 20
199.842685
 30
0.0
  0
SPLINE
  5
163
100
AcDbEntity
  8
Layer_1
 62
5
100
AcDbSpline
 70
8
 71
3
 72
8
 73
4
 74
0
 40
0
 40
0
 40
0
 40
0
 40
1
 40
1
 40
1
 40
1
 10
15.126458
 20
199.842685
 30
0.0
 10
15.128575
 20
194.416342
 30
0.0
 10
15.122331
 20
188.989564
 30
0.0
 10
15.129554
 20
183.563491
 30
0.0
  0
SPLINE
  5
164
100
AcDbEntity
  8
Layer_1
 62
5
100
AcDbSpline
 70
8
 71
3
 72
8
 73
4
 74
0
 40
0
 40
0
 40
0
 40
0
 40
1
 40
1
 40
1
 40
1
 10
15.129554
 20
183.563491
 30
0.0
 10
15.147493
 20
183.041802
 30
0.0
 10
15.459296
 20
182.545886
 30
0.0
 10
15.921753
 20
182.303621
 30
0.0
  0
SPLINE
  5
165
100
AcDbEntity
  8
Layer_1
 62
5
100
AcDbSpline
 70
8
 71
3
 72
8
 73
4
 74
0
 40
0
 40
0
 40
0
 40
0
 40
1
 40
1
 40
1
 40
1
 10
15.921753
 20
182.303621
 30
0.0
 10
16.402754
 20
182.037638
 30
0.0
 10
16.970422
 20
182.151618
 30
0.0
 10
17.495609
 20
182.126887
 30
0.0
  0
LINE
  5
166
100
AcDbEntity
  8
Layer_1
 62
5
100
AcDbLine
 10
17.495609
 20
182.126887
 30
0.0
 11
90.921730
 21
182.126887
 31
0.0
  0
SPLINE
  5
167
100
AcDbEntity
  8
Layer_1
 62
5
100
AcDbSpline
 70
8
 71
3
 72
8
 73
4
 74
0
 40
0
 40
0
 40
0
 40
0
 40
1
 40
1
 40
1
 40
1
 10
90.921730
 20
182.126887
 30
0.0
 10
91.441702
 20
182.139667
 30
0.0
 10
91.946259
 20
182.434462
 30
0.0
 10
92.193501
 20
182.894927
 30
0.0
  0
SPLINE
  5
168
100
AcDbEntity
  8
Layer_1
 62
5
100
AcDbSpline
 70
8
 71
3
 72
8
 73
4
 74
0
 40
0
 40
0
 40
0
 40
0
 40
1
 40
1
 40
1
 40
1
 10
92.193501
 20
182.894927
 30
0.0
 10
92.475142
 20
183.361106
 30
0.0
 10
92.365999
 20
183.925811
 30
0.0
 10
92.387790
 20
184.443126
 30
0.0
  0
SPLINE
  5
169
100
AcDbEntity
  8
Layer_1
 62
5
100
AcDbSpline
 70
8
 71
3
 72
8
 73
4
 74
0
 40
0
 40
0
 40
0
 40
0
 40
1
 40
1
 40
1
 40
1
 10
92.387790
 20
184.443126
 30
0.0
 10
92.385673
 20
189.895928
 30
0.0
 10
92.391917
 20
195.349163
 30
0.0
 10
92.384694
 20
200.801695
 30
0.0
  0
SPLINE
  5
16a
100
AcDbEntity
  8
Layer_1
 62
5
100
AcDbSpline
 70
8
 71
3
 72
8
 73
4
 74
0
 40
0
 40
0
 40
0
 40
0
 40
1
 40
1
 40
1
 40
1
 10
92.384694
 20
200.801695
 30
0.0
 10
92.367391
 20
201.333724
 30
0.0
 10
92.042509
 20
201.833114
 30
0.0
 10
91.570099
 20
202.075133
 30
0.0
  0
SPLINE
  5
16b
100
AcDbEntity
  8
Layer_1
 62
5
100
AcDbSpline
 70
8
 71
3
 72
8
 73
4
 74
0
 40
0
 40
0
 40
0
 40
0
 40
1
 40
1
 40
1
 40
1
 10
91.570099
 20
202.075133
 30
0.0
 10
91.081943
 20
202.325249
 30
0.0
 10
90.518694
 20
202.213298
 30
0.0
 10
89.992181
 20
202.238296
 30
0.0
  0
LINE
  5
16c
100
AcDbEntity
  8
Layer_1
 62
5
100
AcDbLine
 10
89.992181
 20
202.238296
 30
0.0
 11
16.592518
 21
202.238296
 31
0.0
  0
LINE
  5
16d
100
AcDbEntity
  8
Layer_1
 62
5
100
AcDbLine
 10
16.592518
 20
202.238296
 30
0.0
 11
16.566218
 21
202.235518
 31
0.0
  0
LINE
  5
16e
100
AcDbEntity
  8
Layer_1
 62
5
100
AcDbLine
 10
16.566218
 20
202.235518
 30
0.0
 11
16.563062
 21
202.235195
 31
0.0
  0
SPLINE
  5
16f
100
AcDbEntity
  8
Layer_1
 62
5
100
AcDbSpline
 70
8
 71
3
 72
8
 73
4
 74
0
 40
0
 40
0
 40
0
 40
0
 40
1
 40
1
 40
1
 40
1
 10
100.061737
 20
202.235195
 30
0.0
 10
99.525244
 20
202.216595
 30
0.0
 10
99.011617
 20
201.901138
 30
0.0
 10
98.759279
 20
201.426198
 30
0.0
  0
SPLINE
  5
170
100
AcDbEntity
  8
Layer_1
 62
5
100
AcDbSpline
 70
8
 71
3
 72
8
 73
4
 74
0
 40
0
 40
0
 40
0
 40
0
 40
1
 40
1
 40
1
 40
1
 10
98.759279
 20
201.426198
 30
0.0
 10
98.480501
 20
200.944350
 30
0.0
 10
98.588248
 20
200.368186
 30
0.0
 10
98.566737
 20
199.837205
 30
0.0
  0
SPLINE
  5
171
100
AcDbEntity
  8
Layer_1
 62
5
100
AcDbSpline
 70
8
 71
3
 72
8
 73
4
 74
0
 40
0
 40
0
 40
0
 40
0
 40
1
 40
1
 40
1
 40
1
 10
98.566737
 20
199.837205
 30
0.0
 10
98.568854
 20
194.427330
 30
0.0
 10
98.562610
 20
189.017025
 30
0.0
 10
98.569833
 20
183.607417
 30
0.0
  0
SPLINE
  5
172
100
AcDbEntity
  8
Layer_1
 62
5
100
AcDbSpline
 70
8
 71
3
 72
8
 73
4
 74
0
 40
0
 40
0
 40
0
 40
0
 40
1
 40
1
 40
1
 40
1
 10
98.569833
 20
183.607417
 30
0.0
 10
98.587851
 20
183.069297
 30
0.0
 10
98.908795
 20
182.557602
 30
0.0
 10
99.386320
 20
182.308272
 30
0.0
  0
SPLINE
  5
173
100
AcDbEntity
  8
Layer_1
 62
5
100
AcDbSpline
 70
8
 71
3
 72
8
 73
4
 74
0
 40
0
 40
0
 40
0
 40
0
 40
1
 40
1
 40
1
 40
1
 10
99.386320
 20
182.308272
 30
0.0
 10
99.873729
 20
182.039268
 30
0.0
 10
100.447586
 20
182.150107
 30
0.0
 10
100.979813
 20
182.126887
 30
0.0
  0
SPLINE
  5
174
100
AcDbEntity
  8
Layer_1
 62
5
100
AcDbSpline
 70
8
 71
3
 72
8
 73
4
 74
0
 40
0
 40
0
 40
0
 40
0
 40
1
 40
1
 40
1
 40
1
 10
100.979813
 20
182.126887
 30
0.0
 10
125.430741
 20
182.127945
 30
0.0
 10
149.881766
 20
182.124770
 30
0.0
 10
174.332635
 20
182.128475
 30
0.0
  0
SPLINE
  5
175
100
AcDbEntity
  8
Layer_1
 62
5
100
AcDbSpline
 70
8
 71
3
 72
8
 73
4
 74
0
 40
0
 40
0
 40
0
 40
0
 40
1
 40
1
 40
1
 40
1
 10
174.332635
 20
182.128475
 30
0.0
 10
175.130863
 20
182.133819
 30
0.0
 10
175.833680
 20
182.848955
 30
0.0
 10
175.826002
 20
183.647136
 30
0.0
  0
SPLINE
  5
176
100
AcDbEntity
  8
Layer_1
 62
5
100
AcDbSpline
 70
8
 71
3
 72
8
 73
4
 74
0
 40
0
 40
0
 40
0
 40
0
 40
1
 40
1
 40
1
 40
1
 10
175.826002
 20
183.647136
 30
0.0
 10
175.825208
 20
189.363925
 30
0.0
 10
175.829997
 20
195.080937
 30
0.0
 10
175.823621
 20
200.797644
 30
0.0
  0
SPLINE
  5
177
100
AcDbEntity
  8
Layer_1
 62
5
100
AcDbSpline
 70
8
 71
3
 72
8
 73
4
 74
0
 40
0
 40
0
 40
0
 40
0
 40
1
 40
1
 40
1
 40
1
 10
175.823621
 20
200.797644
 30
0.0
 10
175.804359
 20
201.580543
 30
0.0
 10
175.091864
 20
202.255854
 30
0.0
 10
174.309778
 20
202.238225
 30
0.0
  0
LINE
  5
178
100
AcDbEntity
  8
Layer_1
 62
5
100
AcDbLine
 10
174.309778
 20
202.238225
 30
0.0
 11
100.091145
 21
202.238225
 31
0.0
  0
LINE
  5
179
100
AcDbEntity
  8
Layer_1
 62
5
100
AcDbLine
 10
100.091145
 20
202.238225
 30
0.0
 11
100.064846
 21
202.235447
 31
0.0
  0
LINE
  5
17a
100
AcDbEntity
  8
Layer_1
 62
5
100
AcDbLine
 10
100.064846
 20
202.235447
 30
0.0
 11
100.061737
 21
202.235195
 31
0.0
  0
SPLINE
  5
17b
100
AcDbEntity
  8
Layer_1
 62
5
100
AcDbSpline
 70
8
 71
3
 72
8
 73
4
 74
0
 40
0
 40
0
 40
0
 40
0
 40
1
 40
1
 40
1
 40
1
 10
183.257586
 20
202.235195
 30
0.0
 10
182.733603
 20
202.217547
 30
0.0
 10
182.235028
 20
201.904392
 30
0.0
 10
181.992548
 20
201.439380
 30
0.0
  0
SPLINE
  5
17c
100
AcDbEntity
  8
Layer_1
 62
5
100
AcDbSpline
 70
8
 71
3
 72
8
 73
4
 74
0
 40
0
 40
0
 40
0
 40
0
 40
1
 40
1
 40
1
 40
1
 10
181.992548
 20
201.439380
 30
0.0
 10
181.726330
 20
200.957598
 30
0.0
 10
181.839775
 20
200.389475
 30
0.0
 10
181.815299
 20
199.863457
 30
0.0
  0
SPLINE
  5
17d
100
AcDbEntity
  8
Layer_1
 62
5
100
AcDbSpline
 70
8
 71
3
 72
8
 73
4
 74
0
 40
0
 40
0
 40
0
 40
0
 40
1
 40
1
 40
1
 40
1
 10
181.815299
 20
199.863457
 30
0.0
 10
181.817415
 20
194.458439
 30
0.0
 10
181.811171
 20
189.052993
 30
0.0
 10
181.818394
 20
183.648239
 30
0.0
  0
SPLINE
  5
17e
100
AcDbEntity
  8
Layer_1
 62
5
100
AcDbSpline
 70
8
 71
3
 72
8
 73
4
 74
0
 40
0
 40
0
 40
0
 40
0
 40
1
 40
1
 40
1
 40
1
 10
181.818394
 20
183.648239
 30
0.0
 10
181.836333
 20
183.103183
 30
0.0
 10
182.156031
 20
182.580930
 30
0.0
 10
182.638517
 20
182.324512
 30
0.0
  0
SPLINE
  5
17f
100
AcDbEntity
  8
Layer_1
 62
5
100
AcDbSpline
 70
8
 71
3
 72
8
 73
4
 74
0
 40
0
 40
0
 40
0
 40
0
 40
1
 40
1
 40
1
 40
1
 10
182.638517
 20
182.324512
 30
0.0
 10
183.124434
 20
182.040101
 30
0.0
 10
183.706382
 20
182.147990
 30
0.0
 10
184.242739
 20
182.126887
 30
0.0
  0
SPLINE
  5
180
100
AcDbEntity
  8
Layer_1
 62
5
100
AcDbSpline
 70
8
 71
3
 72
8
 73
4
 74
0
 40
0
 40
0
 40
0
 40
0
 40
1
 40
1
 40
1
 40
1
 10
184.242739
 20
182.126887
 30
0.0
 10
208.711619
 20
182.127945
 30
0.0
 10
233.180588
 20
182.124770
 30
0.0
 10
257.649412
 20
182.128475
 30
0.0
  0
SPLINE
  5
181
100
AcDbEntity
  8
Layer_1
 62
5
100
AcDbSpline
 70
8
 71
3
 72
8
 73
4
 74
0
 40
0
 40
0
 40
0
 40
0
 40
1
 40
1
 40
1
 40
1
 10
257.649412
 20
182.128475
 30
0.0
 10
258.429138
 20
182.133131
 30
0.0
 10
259.106655
 20
182.847712
 30
0.0
 10
259.074561
 20
183.626141
 30
0.0
  0
SPLINE
  5
182
100
AcDbEntity
  8
Layer_1
 62
5
100
AcDbSpline
 70
8
 71
3
 72
8
 73
4
 74
0
 40
0
 40
0
 40
0
 40
0
 40
1
 40
1
 40
1
 40
1
 10
259.074561
 20
183.626141
 30
0.0
 10
259.071916
 20
189.345010
 30
0.0
 10
259.079853
 20
195.064102
 30
0.0
 10
259.070593
 20
200.782830
 30
0.0
  0
SPLINE
  5
183
100
AcDbEntity
  8
Layer_1
 62
5
100
AcDbSpline
 70
8
 71
3
 72
8
 73
4
 74
0
 40
0
 40
0
 40
0
 40
0
 40
1
 40
1
 40
1
 40
1
 10
259.070593
 20
200.782830
 30
0.0
 10
259.036964
 20
201.573457
 30
0.0
 10
258.319177
 20
202.249332
 30
0.0
 10
257.528338
 20
202.238315
 30
0.0
  0
LINE
  5
184
100
AcDbEntity
  8
Layer_1
 62
5
100
AcDbLine
 10
257.528338
 20
202.238315
 30
0.0
 11
183.286957
 21
202.238315
 31
0.0
  0
LINE
  5
185
100
AcDbEntity
  8
Layer_1
 62
5
100
AcDbLine
 10
183.286957
 20
202.238315
 30
0.0
 11
183.260631
 21
202.235536
 31
0.0
  0
LINE
  5
186
100
AcDbEntity
  8
Layer_1
 62
5
100
AcDbLine
 10
183.260631
 20
202.235536
 30
0.0
 11
183.257586
 21
202.235195
 31
0.0
  0
SPLINE
  5
187
100
AcDbEntity
  8
Layer_1
 62
5
100
AcDbSpline
 70
8
 71
3
 72
8
 73
4
 74
0
 40
0
 40
0
 40
0
 40
0
 40
1
 40
1
 40
1
 40
1
 10
-47.754377
 20
202.234679
 30
0.0
 10
-48.285350
 20
202.215814
 30
0.0
 10
-48.797990
 20
201.911131
 30
0.0
 10
-49.052908
 20
201.442798
 30
0.0
  0
SPLINE
  5
188
100
AcDbEntity
  8
Layer_1
 62
5
100
AcDbSpline
 70
8
 71
3
 72
8
 73
4
 74
0
 40
0
 40
0
 40
0
 40
0
 40
1
 40
1
 40
1
 40
1
 10
-49.052908
 20
201.442798
 30
0.0
 10
-49.348461
 20
200.965610
 30
0.0
 10
-49.241789
 20
200.383310
 30
0.0
 10
-49.261778
 20
199.850744
 30
0.0
  0
SPLINE
  5
189
100
AcDbEntity
  8
Layer_1
 62
5
100
AcDbSpline
 70
8
 71
3
 72
8
 73
4
 74
0
 40
0
 40
0
 40
0
 40
0
 40
1
 40
1
 40
1
 40
1
 10
-49.261778
 20
199.850744
 30
0.0
 10
-49.259661
 20
194.436355
 30
0.0
 10
-49.265905
 20
189.021539
 30
0.0
 10
-49.258682
 20
183.607417
 30
0.0
  0
SPLINE
  5
18a
100
AcDbEntity
  8
Layer_1
 62
5
100
AcDbSpline
 70
8
 71
3
 72
8
 73
4
 74
0
 40
0
 40
0
 40
0
 40
0
 40
1
 40
1
 40
1
 40
1
 10
-49.258682
 20
183.607417
 30
0.0
 10
-49.240664
 20
183.069297
 30
0.0
 10
-48.919720
 20
182.557602
 30
0.0
 10
-48.442195
 20
182.308272
 30
0.0
  0
SPLINE
  5
18b
100
AcDbEntity
  8
Layer_1
 62
5
100
AcDbSpline
 70
8
 71
3
 72
8
 73
4
 74
0
 40
0
 40
0
 40
0
 40
0
 40
1
 40
1
 40
1
 40
1
 10
-48.442195
 20
182.308272
 30
0.0
 10
-47.954786
 20
182.039268
 30
0.0
 10
-47.380929
 20
182.150107
 30
0.0
 10
-46.848702
 20
182.126887
 30
0.0
  0
SPLINE
  5
18c
100
AcDbEntity
  8
Layer_1
 62
5
100
AcDbSpline
 70
8
 71
3
 72
8
 73
4
 74
0
 40
0
 40
0
 40
0
 40
0
 40
1
 40
1
 40
1
 40
1
 10
-46.848702
 20
182.126887
 30
0.0
 10
-28.733466
 20
182.127945
 30
0.0
 10
-10.618142
 20
182.124770
 30
0.0
 10
7.497033
 20
182.128475
 30
0.0
  0
SPLINE
  5
18d
100
AcDbEntity
  8
Layer_1
 62
5
100
AcDbSpline
 70
8
 71
3
 72
8
 73
4
 74
0
 40
0
 40
0
 40
0
 40
0
 40
1
 40
1
 40
1
 40
1
 10
7.497033
 20
182.128475
 30
0.0
 10
8.272049
 20
182.133449
 30
0.0
 10
8.953695
 20
182.827095
 30
0.0
 10
8.948033
 20
183.601779
 30
0.0
  0
SPLINE
  5
18e
100
AcDbEntity
  8
Layer_1
 62
5
100
AcDbSpline
 70
8
 71
3
 72
8
 73
4
 74
0
 40
0
 40
0
 40
0
 40
0
 40
1
 40
1
 40
1
 40
1
 10
8.948033
 20
183.601779
 30
0.0
 10
8.947318
 20
189.333729
 30
0.0
 10
8.952028
 20
195.065898
 30
0.0
 10
8.945678
 20
200.797763
 30
0.0
  0
SPLINE
  5
18f
100
AcDbEntity
  8
Layer_1
 62
5
100
AcDbSpline
 70
8
 71
3
 72
8
 73
4
 74
0
 40
0
 40
0
 40
0
 40
0
 40
1
 40
1
 40
1
 40
1
 10
8.945678
 20
200.797763
 30
0.0
 10
8.925464
 20
201.571647
 30
0.0
 10
8.229584
 20
202.243313
 30
0.0
 10
7.455626
 20
202.237828
 30
0.0
  0
SPLINE
  5
190
100
AcDbEntity
  8
Layer_1
 62
5
100
AcDbSpline
 70
8
 71
3
 72
8
 73
4
 74
0
 40
0
 40
0
 40
0
 40
0
 40
1
 40
1
 40
1
 40
1
 10
7.455626
 20
202.237828
 30
0.0
 10
-10.937703
 20
202.239151
 30
0.0
 10
-29.331071
 20
202.238000
 30
0.0
 10
-47.724410
 20
202.238357
 30
0.0
  0
LINE
  5
191
100
AcDbEntity
  8
Layer_1
 62
5
100
AcDbLine
 10
-47.724410
 20
202.238357
 30
0.0
 11
-47.750684
 21
202.235182
 31
0.0
  0
LINE
  5
192
100
AcDbEntity
  8
Layer_1
 62
5
100
AcDbLine
 10
-47.750684
 20
202.235182
 30
0.0
 11
-47.754377
 21
202.234679
 31
0.0
  0
SPLINE
  5
193
100
AcDbEntity
  8
Layer_1
 62
5
100
AcDbSpline
 70
8
 71
3
 72
8
 73
4
 74
0
 40
0
 40
0
 40
0
 40
0
 40
1
 40
1
 40
1
 40
1
 10
-28.632270
 20
206.231704
 30
0.0
 10
-28.632270
 20
206.606832
 30
0.0
 10
-28.832399
 20
206.953466
 30
0.0
 10
-29.157270
 20
207.141030
 30
0.0
  0
SPLINE
  5
194
100
AcDbEntity
  8
Layer_1
 62
5
100
AcDbSpline
 70
8
 71
3
 72
8
 73
4
 74
0
 40
0
 40
0
 40
0
 40
0
 40
1
 40
1
 40
1
 40
1
 10
-29.157270
 20
207.141030
 30
0.0
 10
-29.482141
 20
207.328595
 30
0.0
 10
-29.882399
 20
207.328595
 30
0.0
 10
-30.207270
 20
207.141030
 30
0.0
  0
SPLINE
  5
195
100
AcDbEntity
  8
Layer_1
 62
5
100
AcDbSpline
 70
8
 71
3
 72
8
 73
4
 74
0
 40
0
 40
0
 40
0
 40
0
 40
1
 40
1
 40
1
 40
1
 10
-30.207270
 20
207.141030
 30
0.0
 10
-30.532141
 20
206.953466
 30
0.0
 10
-30.732270
 20
206.606832
 30
0.0
 10
-30.732270
 20
206.231704
 30
0.0
  0
SPLINE
  5
196
100
AcDbEntity
  8
Layer_1
 62
5
100
AcDbSpline
 70
8
 71
3
 72
8
 73
4
 74
0
 40
0
 40
0
 40
0
 40
0
 40
1
 40
1
 40
1
 40
1
 10
-30.732270
 20
206.231704
 30
0.0
 10
-30.732270
 20
205.856575
 30
0.0
 10
-30.532141
 20
205.509941
 30
0.0
 10
-30.207270
 20
205.322377
 30
0.0
  0
SPLINE
  5
197
100
AcDbEntity
  8
Layer_1
 62
5
100
AcDbSpline
 70
8
 71
3
 72
8
 73
4
 74
0
 40
0
 40
0
 40
0
 40
0
 40
1
 40
1
 40
1
 40
1
 10
-30.207270
 20
205.322377
 30
0.0
 10
-29.882399
 20
205.134813
 30
0.0
 10
-29.482141
 20
205.134813
 30
0.0
 10
-29.157270
 20
205.322377
 30
0.0
  0
SPLINE
  5
198
100
AcDbEntity
  8
Layer_1
 62
5
100
AcDbSpline
 70
8
 71
3
 72
8
 73
4
 74
0
 40
0
 40
0
 40
0
 40
0
 40
1
 40
1
 40
1
 40
1
 10
-29.157270
 20
205.322377
 30
0.0
 10
-28.832399
 20
205.509941
 30
0.0
 10
-28.632270
 20
205.856575
 30
0.0
 10
-28.632270
 20
206.231704
 30
0.0
  0
LINE
  5
199
100
AcDbEntity
  8
Layer_1
 62
5
100
AcDbLine
 10
-28.632270
 20
206.231704
 30
0.0
 11
-28.632270
 21
206.231704
 31
0.0
  0
SPLINE
  5
19a
100
AcDbEntity
  8
Layer_1
 62
5
100
AcDbSpline
 70
8
 71
3
 72
8
 73
4
 74
0
 40
0
 40
0
 40
0
 40
0
 40
1
 40
1
 40
1
 40
1
 10
-28.632270
 20
94.693717
 30
0.0
 10
-28.632270
 20
94.318588
 30
0.0
 10
-28.832399
 20
93.971955
 30
0.0
 10
-29.157270
 20
93.784391
 30
0.0
  0
SPLINE
  5
19b
100
AcDbEntity
  8
Layer_1
 62
5
100
AcDbSpline
 70
8
 71
3
 72
8
 73
4
 74
0
 40
0
 40
0
 40
0
 40
0
 40
1
 40
1
 40
1
 40
1
 10
-29.157270
 20
93.784391
 30
0.0
 10
-29.482141
 20
93.596826
 30
0.0
 10
-29.882399
 20
93.596826
 30
0.0
 10
-30.207270
 20
93.784391
 30
0.0
  0
SPLINE
  5
19c
100
AcDbEntity
  8
Layer_1
 62
5
100
AcDbSpline
 70
8
 71
3
 72
8
 73
4
 74
0
 40
0
 40
0
 40
0
 40
0
 40
1
 40
1
 40
1
 40
1
 10
-30.207270
 20
93.784391
 30
0.0
 10
-30.532141
 20
93.971955
 30
0.0
 10
-30.732270
 20
94.318588
 30
0.0
 10
-30.732270
 20
94.693717
 30
0.0
  0
SPLINE
  5
19d
100
AcDbEntity
  8
Layer_1
 62
5
100
AcDbSpline
 70
8
 71
3
 72
8
 73
4
 74
0
 40
0
 40
0
 40
0
 40
0
 40
1
 40
1
 40
1
 40
1
 10
-30.732270
 20
94.693717
 30
0.0
 10
-30.732270
 20
95.068846
 30
0.0
 10
-30.532141
 20
95.415479
 30
0.0
 10
-30.207270
 20
95.603044
 30
0.0
  0
SPLINE
  5
19e
100
AcDbEntity
  8
Layer_1
 62
5
100
AcDbSpline
 70
8
 71
3
 72
8
 73
4
 74
0
 40
0
 40
0
 40
0
 40
0
 40
1
 40
1
 40
1
 40
1
 10
-30.207270
 20
95.603044
 30
0.0
 10
-29.882399
 20
95.790608
 30
0.0
 10
-29.482141
 20
95.790608
 30
0.0
 10
-29.157270
 20
95.603044
 30
0.0
  0
SPLINE
  5
19f
100
AcDbEntity
  8
Layer_1
 62
5
100
AcDbSpline
 70
8
 71
3
 72
8
 73
4
 74
0
 40
0
 40
0
 40
0
 40
0
 40
1
 40
1
 40
1
 40
1
 10
-29.157270
 20
95.603044
 30
0.0
 10
-28.832399
 20
95.415479
 30
0.0
 10
-28.632270
 20
95.068846
 30
0.0
 10
-28.632270
 20
94.693717
 30
0.0
  0
LINE
  5
1a0
100
AcDbEntity
  8
Layer_1
 62
5
100
AcDbLine
 10
-28.632270
 20
94.693717
 30
0.0
 11
-28.632270
 21
94.693717
 31
0.0
  0
SPLINE
  5
1a1
100
AcDbEntity
  8
Layer_1
 62
5
100
AcDbSpline
 70
8
 71
3
 72
8
 73
4
 74
0
 40
0
 40
0
 40
0
 40
0
 40
1
 40
1
 40
1
 40
1
 10
105.861523
 20
94.693717
 30
0.0
 10
105.860958
 20
94.114219
 30
0.0
 10
105.391023
 20
93.644742
 30
0.0
 10
104.811524
 20
93.644742
 30
0.0
  0
SPLINE
  5
1a2
100
AcDbEntity
  8
Layer_1
 62
5
100
AcDbSpline
 70
8
 71
3
 72
8
 73
4
 74
0
 40
0
 40
0
 40
0
 40
0
 40
1
 40
1
 40
1
 40
1
 10
104.811524
 20
93.644742
 30
0.0
 10
104.232025
 20
93.644742
 30
0.0
 10
103.762090
 20
94.114219
 30
0.0
 10
103.761525
 20
94.693717
 30
0.0
  0
SPLINE
  5
1a3
100
AcDbEntity
  8
Layer_1
 62
5
100
AcDbSpline
 70
8
 71
3
 72
8
 73
4
 74
0
 40
0
 40
0
 40
0
 40
0
 40
1
 40
1
 40
1
 40
1
 10
103.761525
 20
94.693717
 30
0.0
 10
103.762090
 20
95.273216
 30
0.0
 10
104.232025
 20
95.742692
 30
0.0
 10
104.811524
 20
95.742692
 30
0.0
  0
SPLINE
  5
1a4
100
AcDbEntity
  8
Layer_1
 62
5
100
AcDbSpline
 70
8
 71
3
 72
8
 73
4
 74
0
 40
0
 40
0
 40
0
 40
0
 40
1
 40
1
 40
1
 40
1
 10
104.811524
 20
95.742692
 30
0.0
 10
105.391023
 20
95.742692
 30
0.0
 10
105.860958
 20
95.273216
 30
0.0
 10
105.861523
 20
94.693717
 30
0.0
  0
LINE
  5
1a5
100
AcDbEntity
  8
Layer_1
 62
5
100
AcDbLine
 10
105.861523
 20
94.693717
 30
0.0
 11
105.861523
 21
94.693717
 31
0.0
  0
SPLINE
  5
1a6
100
AcDbEntity
  8
Layer_1
 62
5
100
AcDbSpline
 70
8
 71
3
 72
8
 73
4
 74
0
 40
0
 40
0
 40
0
 40
0
 40
1
 40
1
 40
1
 40
1
 10
105.861523
 20
206.233252
 30
0.0
 10
105.860958
 20
206.812750
 30
0.0
 10
105.391023
 20
207.282227
 30
0.0
 10
104.811524
 20
207.282227
 30
0.0
  0
SPLINE
  5
1a7
100
AcDbEntity
  8
Layer_1
 62
5
100
AcDbSpline
 70
8
 71
3
 72
8
 73
4
 74
0
 40
0
 40
0
 40
0
 40
0
 40
1
 40
1
 40
1
 40
1
 10
104.811524
 20
207.282227
 30
0.0
 10
104.232025
 20
207.282227
 30
0.0
 10
103.762090
 20
206.812750
 30
0.0
 10
103.761525
 20
206.233252
 30
0.0
  0
SPLINE
  5
1a8
100
AcDbEntity
  8
Layer_1
 62
5
100
AcDbSpline
 70
8
 71
3
 72
8
 73
4
 74
0
 40
0
 40
0
 40
0
 40
0
 40
1
 40
1
 40
1
 40
1
 10
103.761525
 20
206.233252
 30
0.0
 10
103.762090
 20
205.653753
 30
0.0
 10
104.232025
 20
205.184276
 30
0.0
 10
104.811524
 20
205.184276
 30
0.0
  0
SPLINE
  5
1a9
100
AcDbEntity
  8
Layer_1
 62
5
100
AcDbSpline
 70
8
 71
3
 72
8
 73
4
 74
0
 40
0
 40
0
 40
0
 40
0
 40
1
 40
1
 40
1
 40
1
 10
104.811524
 20
205.184276
 30
0.0
 10
105.391023
 20
205.184276
 30
0.0
 10
105.860958
 20
205.653753
 30
0.0
 10
105.861523
 20
206.233252
 30
0.0
  0
LINE
  5
1aa
100
AcDbEntity
  8
Layer_1
 62
5
100
AcDbLine
 10
105.861523
 20
206.233252
 30
0.0
 11
105.861523
 21
206.233252
 31
0.0
  0
SPLINE
  5
1ab
100
AcDbEntity
  8
Layer_1
 62
5
100
AcDbSpline
 70
8
 71
3
 72
8
 73
4
 74
0
 40
0
 40
0
 40
0
 40
0
 40
1
 40
1
 40
1
 40
1
 10
240.520831
 20
206.233241
 30
0.0
 10
240.520265
 20
206.812739
 30
0.0
 10
240.050330
 20
207.282216
 30
0.0
 10
239.470831
 20
207.282216
 30
0.0
  0
SPLINE
  5
1ac
100
AcDbEntity
  8
Layer_1
 62
5
100
AcDbSpline
 70
8
 71
3
 72
8
 73
4
 74
0
 40
0
 40
0
 40
0
 40
0
 40
1
 40
1
 40
1
 40
1
 10
239.470831
 20
207.282216
 30
0.0
 10
238.891333
 20
207.282216
 30
0.0
 10
238.421397
 20
206.812739
 30
0.0
 10
238.420832
 20
206.233241
 30
0.0
  0
SPLINE
  5
1ad
100
AcDbEntity
  8
Layer_1
 62
5
100
AcDbSpline
 70
8
 71
3
 72
8
 73
4
 74
0
 40
0
 40
0
 40
0
 40
0
 40
1
 40
1
 40
1
 40
1
 10
238.420832
 20
206.233241
 30
0.0
 10
238.421397
 20
205.653742
 30
0.0
 10
238.891333
 20
205.184265
 30
0.0
 10
239.470831
 20
205.184265
 30
0.0
  0
SPLINE
  5
1ae
100
AcDbEntity
  8
Layer_1
 62
5
100
AcDbSpline
 70
8
 71
3
 72
8
 73
4
 74
0
 40
0
 40
0
 40
0
 40
0
 40
1
 40
1
 40
1
 40
1
 10
239.470831
 20
205.184265
 30
0.0
 10
240.050330
 20
205.184265
 30
0.0
 10
240.520265
 20
205.653742
 30
0.0
 10
240.520831
 20
206.233241
 30
0.0
  0
LINE
  5
1af
100
AcDbEntity
  8
Layer_1
 62
5
100
AcDbLine
 10
240.520831
 20
206.233241
 30
0.0
 11
240.520831
 21
206.233241
 31
0.0
  0
SPLINE
  5
1b0
100
AcDbEntity
  8
Layer_1
 62
5
100
AcDbSpline
 70
8
 71
3
 72
8
 73
4
 74
0
 40
0
 40
0
 40
0
 40
0
 40
1
 40
1
 40
1
 40
1
 10
240.507731
 20
94.693207
 30
0.0
 10
240.507165
 20
94.113709
 30
0.0
 10
240.037230
 20
93.644232
 30
0.0
 10
239.457731
 20
93.644232
 30
0.0
  0
SPLINE
  5
1b1
100
AcDbEntity
  8
Layer_1
 62
5
100
AcDbSpline
 70
8
 71
3
 72
8
 73
4
 74
0
 40
0
 40
0
 40
0
 40
0
 40
1
 40
1
 40
1
 40
1
 10
239.457731
 20
93.644232
 30
0.0
 10
238.878233
 20
93.644232
 30
0.0
 10
238.408297
 20
94.113709
 30
0.0
 10
238.407732
 20
94.693207
 30
0.0
  0
SPLINE
  5
1b2
100
AcDbEntity
  8
Layer_1
 62
5
100
AcDbSpline
 70
8
 71
3
 72
8
 73
4
 74
0
 40
0
 40
0
 40
0
 40
0
 40
1
 40
1
 40
1
 40
1
 10
238.407732
 20
94.693207
 30
0.0
 10
238.408297
 20
95.272706
 30
0.0
 10
238.878233
 20
95.742182
 30
0.0
 10
239.457731
 20
95.742182
 30
0.0
  0
SPLINE
  5
1b3
100
AcDbEntity
  8
Layer_1
 62
5
100
AcDbSpline
 70
8
 71
3
 72
8
 73
4
 74
0
 40
0
 40
0
 40
0
 40
0
 40
1
 40
1
 40
1
 40
1
 10
239.457731
 20
95.742182
 30
0.0
 10
240.037230
 20
95.742182
 30
0.0
 10
240.507165
 20
95.272706
 30
0.0
 10
240.507731
 20
94.693207
 30
0.0
  0
LINE
  5
1b4
100
AcDbEntity
  8
Layer_1
 62
5
100
AcDbLine
 10
240.507731
 20
94.693207
 30
0.0
 11
240.507731
 21
94.693207
 31
0.0
  0
ENDSEC
  0
SECTION
  2
OBJECTS
  0
DICTIONARY
  5
C
330
0
100
AcDbDictionary
  3
ACAD_GROUP
350
D
  3
ACAD_MLINESTYLE
350
17
  0
DICTIONARY
  5
D
330
C
100
AcDbDictionary
  0
DICTIONARY
  5
1A
330
C
100
AcDbDictionary
  0
DICTIONARY
  5
17
330
C
100
AcDbDictionary
  3
STANDARD
350
18
  0
DICTIONARY
  5
19
330
C
100
AcDbDictionary
  0
ENDSEC
  0
EOF
