  0
SECTION
  2
HEADER
  9
$ACADVER
  1
AC1014
  9
$HANDSEED
  5
FFFF
  9
$INSUNITS
 70
     0
  9
$MEASUREMENT
 70
     1
  0
ENDSEC
  0
SECTION
  2
TABLES
  0
TABLE
  2
VPORT
  5
8
330
0
100
AcDbSymbolTable
 70
     4
  0
VPORT
  5
2E
330
8
100
AcDbSymbolTableRecord
100
AcDbViewportTableRecord
  2
*ACTIVE
 70
     0
 10
0.0
 20
0.0
 11
1.0
 21
1.0
 12
210.0
 22
148.5
 13
0.0
 23
0.0
 14
10.0
 24
10.0
 15
10.0
 25
10.0
 16
0.0
 26
0.0
 36
1.0
 17
0.0
 27
0.0
 37
0.0
 40
341.0
 41
1.24
 42
50.0
 43
0.0
 44
0.0
 50
0.0
 51
0.0
 71
     0
 72
   100
 73
     1
 74
     3
 75
     0
 76
     0
 77
     0
 78
     0
  0
ENDTAB
  0
TABLE
  2
LTYPE
  5
5
330
0
100
AcDbSymbolTable
 70
     1
  0
LTYPE
  5
14
330
5
100
AcDbSymbolTableRecord
100
AcDbLinetypeTableRecord
  2
BYBLOCK
 70
     0
  3

 72
    65
 73
     0
 40
0.0
  0
LTYPE
  5
15
330
5
100
AcDbSymbolTableRecord
100
AcDbLinetypeTableRecord
  2
BYLAYER
 70
     0
  3

 72
    65
 73
     0
 40
0.0
  0
LTYPE
  5
16
330
5
100
AcDbSymbolTableRecord
100
AcDbLinetypeTableRecord
  2
CONTINUOUS
 70
     0
  3
Solid line
 72
    65
 73
     0
 40
0.0
  0
ENDTAB
  0
TABLE
  2
LAYER
  5
2
100
AcDbSymbolTable
 70
2
  0
LAYER
  5
50
100
AcDbSymbolTableRecord
100
AcDbLayerTableRecord
  2
0
 70
0
  6
CONTINUOUS
  0
LAYER
  5
51
100
AcDbSymbolTableRecord
100
AcDbLayerTableRecord
  2
Layer_1
 70
0
  6
CONTINUOUS
  0
ENDTAB
  0
TABLE
  2
STYLE
  5
3
330
0
100
AcDbSymbolTable
 70
     1
  0
STYLE
  5
11
330
3
100
AcDbSymbolTableRecord
100
AcDbTextStyleTableRecord
  2
STANDARD
 70
     0
 40
0.0
 41
1.0
 50
0.0
 71
     0
 42
2.5
  3
txt
  4

  0
ENDTAB
  0
TABLE
  2
VIEW
  5
6
330
0
100
AcDbSymbolTable
 70
     0
  0
ENDTAB
  0
TABLE
  2
UCS
  5
7
330
0
100
AcDbSymbolTable
 70
     0
  0
ENDTAB
  0
TABLE
  2
APPID
  5
9
330
0
100
AcDbSymbolTable
 70
     2
  0
APPID
  5
12
330
9
100
AcDbSymbolTableRecord
100
AcDbRegAppTableRecord
  2
ACAD
 70
     0
  0
ENDTAB
  0
TABLE
  2
DIMSTYLE
  5
A
330
0
100
AcDbSymbolTable
 70
     1
  0
DIMSTYLE
105
27
330
A
100
AcDbSymbolTableRecord
100
AcDbDimStyleTableRecord
  2
ISO-25
 70
     0
  3

  4

  5

  6

  7

 40
1.0
 41
2.5
 42
0.625
 43
3.75
 44
1.25
 45
0.0
 46
0.0
 47
0.0
 48
0.0
140
2.5
141
2.5
142
0.0
143
0.03937007874016
144
1.0
145
0.0
146
1.0
147
0.625
 71
     0
 72
     0
 73
     0
 74
     0
 75
     0
 76
     0
 77
     1
 78
     8
170
     0
171
     3
172
     1
173
     0
174
     0
175
     0
176
     0
177
     0
178
     0
270
     2
271
     2
272
     2
273
     2
274
     3
340
11
275
     0
280
     0
281
     0
282
     0
283
     0
284
     8
285
     0
286
     0
287
     3
288
     0
  0
ENDTAB
  0
TABLE
  2
BLOCK_RECORD
  5
1
330
0
100
AcDbSymbolTable
 70
     1
  0
BLOCK_RECORD
  5
1F
330
1
100
AcDbSymbolTableRecord
100
AcDbBlockTableRecord
  2
*MODEL_SPACE
  0
BLOCK_RECORD
  5
1B
330
1
100
AcDbSymbolTableRecord
100
AcDbBlockTableRecord
  2
*PAPER_SPACE
  0
ENDTAB
  0
ENDSEC
  0
SECTION
  2
BLOCKS
  0
BLOCK
  5
20
330
1F
100
AcDbEntity
  8
0
100
AcDbBlockBegin
  2
*MODEL_SPACE
 70
     0
 10
0.0
 20
0.0
 30
0.0
  3
*MODEL_SPACE
  1

  0
ENDBLK
  5
21
330
1F
100
AcDbEntity
  8
0
100
AcDbBlockEnd
  0
BLOCK
  5
1C
330
1B
100
AcDbEntity
 67
     1
  8
0
100
AcDbBlockBegin
  2
*PAPER_SPACE
  1

  0
ENDBLK
  5
1D
330
1B
100
AcDbEntity
 67
     1
  8
0
100
AcDbBlockEnd
  0
ENDSEC
  0
SECTION
  2
ENTITIES
  0
SPLINE
  5
100
100
AcDbEntity
  8
Layer_1
 62
1
100
AcDbSpline
 70
8
 71
3
 72
8
 73
4
 74
0
 40
0
 40
0
 40
0
 40
0
 40
1
 40
1
 40
1
 40
1
 10
-59.030475
 20
153.052483
 30
0.0
 10
-59.030475
 20
153.918315
 30
0.0
 10
-59.732308
 20
154.620124
 30
0.0
 10
-60.598103
 20
154.620124
 30
0.0
  0
SPLINE
  5
101
100
AcDbEntity
  8
Layer_1
 62
1
100
AcDbSpline
 70
8
 71
3
 72
8
 73
4
 74
0
 40
0
 40
0
 40
0
 40
0
 40
1
 40
1
 40
1
 40
1
 10
-60.598103
 20
154.620124
 30
0.0
 10
-61.463924
 20
154.620124
 30
0.0
 10
-62.165757
 20
153.918315
 30
0.0
 10
-62.165757
 20
153.052483
 30
0.0
  0
SPLINE
  5
102
100
AcDbEntity
  8
Layer_1
 62
1
100
AcDbSpline
 70
8
 71
3
 72
8
 73
4
 74
0
 40
0
 40
0
 40
0
 40
0
 40
1
 40
1
 40
1
 40
1
 10
-62.165757
 20
153.052483
 30
0.0
 10
-62.165757
 20
152.186651
 30
0.0
 10
-61.463924
 20
151.484842
 30
0.0
 10
-60.598103
 20
151.484842
 30
0.0
  0
SPLINE
  5
103
100
AcDbEntity
  8
Layer_1
 62
1
100
AcDbSpline
 70
8
 71
3
 72
8
 73
4
 74
0
 40
0
 40
0
 40
0
 40
0
 40
1
 40
1
 40
1
 40
1
 10
-60.598103
 20
151.484842
 30
0.0
 10
-59.732308
 20
151.484842
 30
0.0
 10
-59.030475
 20
152.186651
 30
0.0
 10
-59.030475
 20
153.052483
 30
0.0
  0
LINE
  5
104
100
AcDbEntity
  8
Layer_1
 62
1
100
AcDbLine
 10
-59.030475
 20
153.052483
 30
0.0
 11
-59.030475
 21
153.052483
 31
0.0
  0
SPLINE
  5
105
100
AcDbEntity
  8
Layer_1
 62
1
100
AcDbSpline
 70
8
 71
3
 72
8
 73
4
 74
0
 40
0
 40
0
 40
0
 40
0
 40
1
 40
1
 40
1
 40
1
 10
28.943532
 20
156.528059
 30
0.0
 10
28.943532
 20
157.393891
 30
0.0
 10
28.241699
 20
158.095700
 30
0.0
 10
27.375904
 20
158.095700
 30
0.0
  0
SPLINE
  5
106
100
AcDbEntity
  8
Layer_1
 62
1
100
AcDbSpline
 70
8
 71
3
 72
8
 73
4
 74
0
 40
0
 40
0
 40
0
 40
0
 40
1
 40
1
 40
1
 40
1
 10
27.375904
 20
158.095700
 30
0.0
 10
26.510082
 20
158.095700
 30
0.0
 10
25.808249
 20
157.393891
 30
0.0
 10
25.808249
 20
156.528059
 30
0.0
  0
SPLINE
  5
107
100
AcDbEntity
  8
Layer_1
 62
1
100
AcDbSpline
 70
8
 71
3
 72
8
 73
4
 74
0
 40
0
 40
0
 40
0
 40
0
 40
1
 40
1
 40
1
 40
1
 10
25.808249
 20
156.528059
 30
0.0
 10
25.808249
 20
155.662227
 30
0.0
 10
26.510082
 20
154.960418
 30
0.0
 10
27.375904
 20
154.960418
 30
0.0
  0
SPLINE
  5
108
100
AcDbEntity
  8
Layer_1
 62
1
100
AcDbSpline
 70
8
 71
3
 72
8
 73
4
 74
0
 40
0
 40
0
 40
0
 40
0
 40
1
 40
1
 40
1
 40
1
 10
27.375904
 20
154.960418
 30
0.0
 10
28.241699
 20
154.960418
 30
0.0
 10
28.943532
 20
155.662227
 30
0.0
 10
28.943532
 20
156.528059
 30
0.0
  0
LINE
  5
109
100
AcDbEntity
  8
Layer_1
 62
1
100
AcDbLine
 10
28.943532
 20
156.528059
 30
0.0
 11
28.943532
 21
156.528059
 31
0.0
  0
SPLINE
  5
10a
100
AcDbEntity
  8
Layer_1
 62
1
100
AcDbSpline
 70
8
 71
3
 72
8
 73
4
 74
0
 40
0
 40
0
 40
0
 40
0
 40
1
 40
1
 40
1
 40
1
 10
-59.649017
 20
127.476205
 30
0.0
 10
-59.649017
 20
128.001065
 30
0.0
 10
-60.074493
 20
128.426496
 30
0.0
 10
-60.599293
 20
128.426496
 30
0.0
  0
SPLINE
  5
10b
100
AcDbEntity
  8
Layer_1
 62
1
100
AcDbSpline
 70
8
 71
3
 72
8
 73
4
 74
0
 40
0
 40
0
 40
0
 40
0
 40
1
 40
1
 40
1
 40
1
 10
-60.599293
 20
128.426496
 30
0.0
 10
-61.124120
 20
128.426496
 30
0.0
 10
-61.549596
 20
128.001065
 30
0.0
 10
-61.549596
 20
127.476205
 30
0.0
  0
SPLINE
  5
10c
100
AcDbEntity
  8
Layer_1
 62
1
100
AcDbSpline
 70
8
 71
3
 72
8
 73
4
 74
0
 40
0
 40
0
 40
0
 40
0
 40
1
 40
1
 40
1
 40
1
 10
-61.549596
 20
127.476205
 30
0.0
 10
-61.549596
 20
126.951345
 30
0.0
 10
-61.124120
 20
126.525914
 30
0.0
 10
-60.599293
 20
126.525914
 30
0.0
  0
SPLINE
  5
10d
100
AcDbEntity
  8
Layer_1
 62
1
100
AcDbSpline
 70
8
 71
3
 72
8
 73
4
 74
0
 40
0
 40
0
 40
0
 40
0
 40
1
 40
1
 40
1
 40
1
 10
-60.599293
 20
126.525914
 30
0.0
 10
-60.074493
 20
126.525914
 30
0.0
 10
-59.649017
 20
126.951345
 30
0.0
 10
-59.649017
 20
127.476205
 30
0.0
  0
LINE
  5
10e
100
AcDbEntity
  8
Layer_1
 62
1
100
AcDbLine
 10
-59.649017
 20
127.476205
 30
0.0
 11
-59.649017
 21
127.476205
 31
0.0
  0
LINE
  5
10f
100
AcDbEntity
  8
Layer_1
 62
1
100
AcDbLine
 10
-19.310984
 20
154.581985
 30
0.0
 11
-19.310984
 21
159.744113
 31
0.0
  0
LINE
  5
110
100
AcDbEntity
  8
Layer_1
 62
1
100
AcDbLine
 10
-19.310984
 20
159.744113
 30
0.0
 11
-19.310984
 21
163.744105
 31
0.0
  0
LINE
  5
111
100
AcDbEntity
  8
Layer_1
 62
1
100
AcDbLine
 10
-19.310984
 20
163.744105
 30
0.0
 11
-19.310984
 21
167.729386
 31
0.0
  0
SPLINE
  5
112
100
AcDbEntity
  8
Layer_1
 62
1
100
AcDbSpline
 70
8
 71
3
 72
8
 73
4
 74
0
 40
0
 40
0
 40
0
 40
0
 40
1
 40
1
 40
1
 40
1
 10
-19.310984
 20
167.729386
 30
0.0
 10
-19.310984
 20
168.505408
 30
0.0
 10
-19.619302
 20
169.249707
 30
0.0
 10
-20.167995
 20
169.798399
 30
0.0
  0
SPLINE
  5
113
100
AcDbEntity
  8
Layer_1
 62
1
100
AcDbSpline
 70
8
 71
3
 72
8
 73
4
 74
0
 40
0
 40
0
 40
0
 40
0
 40
1
 40
1
 40
1
 40
1
 10
-20.167995
 20
169.798399
 30
0.0
 10
-20.716687
 20
170.347091
 30
0.0
 10
-21.460985
 20
170.655383
 30
0.0
 10
-22.236981
 20
170.655383
 30
0.0
  0
LINE
  5
114
100
AcDbEntity
  8
Layer_1
 62
1
100
AcDbLine
 10
-2.313669
 20
154.768817
 30
0.0
 11
-2.313669
 21
159.744113
 31
0.0
  0
LINE
  5
115
100
AcDbEntity
  8
Layer_1
 62
1
100
AcDbLine
 10
-2.313669
 20
159.744113
 30
0.0
 11
-2.313669
 21
163.744105
 31
0.0
  0
LINE
  5
116
100
AcDbEntity
  8
Layer_1
 62
1
100
AcDbLine
 10
-2.313669
 20
163.744105
 30
0.0
 11
-2.313669
 21
167.728352
 31
0.0
  0
SPLINE
  5
117
100
AcDbEntity
  8
Layer_1
 62
1
100
AcDbSpline
 70
8
 71
3
 72
8
 73
4
 74
0
 40
0
 40
0
 40
0
 40
0
 40
1
 40
1
 40
1
 40
1
 10
-2.313669
 20
167.728352
 30
0.0
 10
-2.313669
 20
168.504374
 30
0.0
 10
-2.005351
 20
169.248672
 30
0.0
 10
-1.456658
 20
169.797364
 30
0.0
  0
SPLINE
  5
118
100
AcDbEntity
  8
Layer_1
 62
1
100
AcDbSpline
 70
8
 71
3
 72
8
 73
4
 74
0
 40
0
 40
0
 40
0
 40
0
 40
1
 40
1
 40
1
 40
1
 10
-1.456658
 20
169.797364
 30
0.0
 10
-0.907966
 20
170.346057
 30
0.0
 10
-0.163668
 20
170.654349
 30
0.0
 10
0.612328
 20
170.654349
 30
0.0
  0
LINE
  5
119
100
AcDbEntity
  8
Layer_1
 62
1
100
AcDbLine
 10
-2.313881
 20
155.302971
 30
0.0
 11
-2.313881
 21
154.603347
 31
0.0
  0
SPLINE
  5
11a
100
AcDbEntity
  8
Layer_1
 62
1
100
AcDbSpline
 70
8
 71
3
 72
8
 73
4
 74
0
 40
0
 40
0
 40
0
 40
0
 40
1
 40
1
 40
1
 40
1
 10
-2.313881
 20
154.603347
 30
0.0
 10
-2.313881
 20
153.827351
 30
0.0
 10
-2.622199
 20
153.083053
 30
0.0
 10
-3.170892
 20
152.534361
 30
0.0
  0
SPLINE
  5
11b
100
AcDbEntity
  8
Layer_1
 62
1
100
AcDbSpline
 70
8
 71
3
 72
8
 73
4
 74
0
 40
0
 40
0
 40
0
 40
0
 40
1
 40
1
 40
1
 40
1
 10
-3.170892
 20
152.534361
 30
0.0
 10
-3.719584
 20
151.985669
 30
0.0
 10
-4.463882
 20
151.677350
 30
0.0
 10
-5.239878
 20
151.677350
 30
0.0
  0
LINE
  5
11c
100
AcDbEntity
  8
Layer_1
 62
1
100
AcDbLine
 10
-5.239878
 20
151.677350
 30
0.0
 11
-16.384775
 21
151.675233
 31
0.0
  0
SPLINE
  5
11d
100
AcDbEntity
  8
Layer_1
 62
1
100
AcDbSpline
 70
8
 71
3
 72
8
 73
4
 74
0
 40
0
 40
0
 40
0
 40
0
 40
1
 40
1
 40
1
 40
1
 10
-16.384775
 20
151.675233
 30
0.0
 10
-17.160771
 20
151.675233
 30
0.0
 10
-17.905069
 20
151.983552
 30
0.0
 10
-18.453761
 20
152.532244
 30
0.0
  0
SPLINE
  5
11e
100
AcDbEntity
  8
Layer_1
 62
1
100
AcDbSpline
 70
8
 71
3
 72
8
 73
4
 74
0
 40
0
 40
0
 40
0
 40
0
 40
1
 40
1
 40
1
 40
1
 10
-18.453761
 20
152.532244
 30
0.0
 10
-19.002453
 20
153.080936
 30
0.0
 10
-19.310772
 20
153.825235
 30
0.0
 10
-19.310772
 20
154.601230
 30
0.0
  0
SPLINE
  5
11f
100
AcDbEntity
  8
Layer_1
 62
1
100
AcDbSpline
 70
8
 71
3
 72
8
 73
4
 74
0
 40
0
 40
0
 40
0
 40
0
 40
1
 40
1
 40
1
 40
1
 10
-16.884123
 20
147.588273
 30
0.0
 10
-16.884551
 20
147.063906
 30
0.0
 10
-17.309755
 20
146.639051
 30
0.0
 10
-17.834121
 20
146.639051
 30
0.0
  0
SPLINE
  5
120
100
AcDbEntity
  8
Layer_1
 62
1
100
AcDbSpline
 70
8
 71
3
 72
8
 73
4
 74
0
 40
0
 40
0
 40
0
 40
0
 40
1
 40
1
 40
1
 40
1
 10
-17.834121
 20
146.639051
 30
0.0
 10
-18.358488
 20
146.639051
 30
0.0
 10
-18.783691
 20
147.063906
 30
0.0
 10
-18.784120
 20
147.588273
 30
0.0
  0
SPLINE
  5
121
100
AcDbEntity
  8
Layer_1
 62
1
100
AcDbSpline
 70
8
 71
3
 72
8
 73
4
 74
0
 40
0
 40
0
 40
0
 40
0
 40
1
 40
1
 40
1
 40
1
 10
-18.784120
 20
147.588273
 30
0.0
 10
-18.783691
 20
148.112639
 30
0.0
 10
-18.358488
 20
148.537495
 30
0.0
 10
-17.834121
 20
148.537495
 30
0.0
  0
SPLINE
  5
122
100
AcDbEntity
  8
Layer_1
 62
1
100
AcDbSpline
 70
8
 71
3
 72
8
 73
4
 74
0
 40
0
 40
0
 40
0
 40
0
 40
1
 40
1
 40
1
 40
1
 10
-17.834121
 20
148.537495
 30
0.0
 10
-17.309755
 20
148.537495
 30
0.0
 10
-16.884551
 20
148.112639
 30
0.0
 10
-16.884123
 20
147.588273
 30
0.0
  0
LINE
  5
123
100
AcDbEntity
  8
Layer_1
 62
1
100
AcDbLine
 10
-16.884123
 20
147.588273
 30
0.0
 11
-16.884123
 21
147.588273
 31
0.0
  0
SPLINE
  5
124
100
AcDbEntity
  8
Layer_1
 62
1
100
AcDbSpline
 70
8
 71
3
 72
8
 73
4
 74
0
 40
0
 40
0
 40
0
 40
0
 40
1
 40
1
 40
1
 40
1
 10
-16.884123
 20
133.588292
 30
0.0
 10
-16.884551
 20
133.063925
 30
0.0
 10
-17.309755
 20
132.639070
 30
0.0
 10
-17.834121
 20
132.639070
 30
0.0
  0
SPLINE
  5
125
100
AcDbEntity
  8
Layer_1
 62
1
100
AcDbSpline
 70
8
 71
3
 72
8
 73
4
 74
0
 40
0
 40
0
 40
0
 40
0
 40
1
 40
1
 40
1
 40
1
 10
-17.834121
 20
132.639070
 30
0.0
 10
-18.358488
 20
132.639070
 30
0.0
 10
-18.783691
 20
133.063925
 30
0.0
 10
-18.784120
 20
133.588292
 30
0.0
  0
SPLINE
  5
126
100
AcDbEntity
  8
Layer_1
 62
1
100
AcDbSpline
 70
8
 71
3
 72
8
 73
4
 74
0
 40
0
 40
0
 40
0
 40
0
 40
1
 40
1
 40
1
 40
1
 10
-18.784120
 20
133.588292
 30
0.0
 10
-18.783691
 20
134.112658
 30
0.0
 10
-18.358488
 20
134.537514
 30
0.0
 10
-17.834121
 20
134.537514
 30
0.0
  0
SPLINE
  5
127
100
AcDbEntity
  8
Layer_1
 62
1
100
AcDbSpline
 70
8
 71
3
 72
8
 73
4
 74
0
 40
0
 40
0
 40
0
 40
0
 40
1
 40
1
 40
1
 40
1
 10
-17.834121
 20
134.537514
 30
0.0
 10
-17.309755
 20
134.537514
 30
0.0
 10
-16.884551
 20
134.112658
 30
0.0
 10
-16.884123
 20
133.588292
 30
0.0
  0
LINE
  5
128
100
AcDbEntity
  8
Layer_1
 62
1
100
AcDbLine
 10
-16.884123
 20
133.588292
 30
0.0
 11
-16.884123
 21
133.588292
 31
0.0
  0
SPLINE
  5
129
100
AcDbEntity
  8
Layer_1
 62
1
100
AcDbSpline
 70
8
 71
3
 72
8
 73
4
 74
0
 40
0
 40
0
 40
0
 40
0
 40
1
 40
1
 40
1
 40
1
 10
-2.884163
 20
147.588273
 30
0.0
 10
-2.884592
 20
147.063906
 30
0.0
 10
-3.309795
 20
146.639051
 30
0.0
 10
-3.834161
 20
146.639051
 30
0.0
  0
SPLINE
  5
12a
100
AcDbEntity
  8
Layer_1
 62
1
100
AcDbSpline
 70
8
 71
3
 72
8
 73
4
 74
0
 40
0
 40
0
 40
0
 40
0
 40
1
 40
1
 40
1
 40
1
 10
-3.834161
 20
146.639051
 30
0.0
 10
-4.358528
 20
146.639051
 30
0.0
 10
-4.783731
 20
147.063906
 30
0.0
 10
-4.784160
 20
147.588273
 30
0.0
  0
SPLINE
  5
12b
100
AcDbEntity
  8
Layer_1
 62
1
100
AcDbSpline
 70
8
 71
3
 72
8
 73
4
 74
0
 40
0
 40
0
 40
0
 40
0
 40
1
 40
1
 40
1
 40
1
 10
-4.784160
 20
147.588273
 30
0.0
 10
-4.783731
 20
148.112639
 30
0.0
 10
-4.358528
 20
148.537495
 30
0.0
 10
-3.834161
 20
148.537495
 30
0.0
  0
SPLINE
  5
12c
100
AcDbEntity
  8
Layer_1
 62
1
100
AcDbSpline
 70
8
 71
3
 72
8
 73
4
 74
0
 40
0
 40
0
 40
0
 40
0
 40
1
 40
1
 40
1
 40
1
 10
-3.834161
 20
148.537495
 30
0.0
 10
-3.309795
 20
148.537495
 30
0.0
 10
-2.884592
 20
148.112639
 30
0.0
 10
-2.884163
 20
147.588273
 30
0.0
  0
LINE
  5
12d
100
AcDbEntity
  8
Layer_1
 62
1
100
AcDbLine
 10
-2.884163
 20
147.588273
 30
0.0
 11
-2.884163
 21
147.588273
 31
0.0
  0
SPLINE
  5
12e
100
AcDbEntity
  8
Layer_1
 62
1
100
AcDbSpline
 70
8
 71
3
 72
8
 73
4
 74
0
 40
0
 40
0
 40
0
 40
0
 40
1
 40
1
 40
1
 40
1
 10
-2.884163
 20
133.588292
 30
0.0
 10
-2.884592
 20
133.063925
 30
0.0
 10
-3.309795
 20
132.639070
 30
0.0
 10
-3.834161
 20
132.639070
 30
0.0
  0
SPLINE
  5
12f
100
AcDbEntity
  8
Layer_1
 62
1
100
AcDbSpline
 70
8
 71
3
 72
8
 73
4
 74
0
 40
0
 40
0
 40
0
 40
0
 40
1
 40
1
 40
1
 40
1
 10
-3.834161
 20
132.639070
 30
0.0
 10
-4.358528
 20
132.639070
 30
0.0
 10
-4.783731
 20
133.063925
 30
0.0
 10
-4.784160
 20
133.588292
 30
0.0
  0
SPLINE
  5
130
100
AcDbEntity
  8
Layer_1
 62
1
100
AcDbSpline
 70
8
 71
3
 72
8
 73
4
 74
0
 40
0
 40
0
 40
0
 40
0
 40
1
 40
1
 40
1
 40
1
 10
-4.784160
 20
133.588292
 30
0.0
 10
-4.783731
 20
134.112658
 30
0.0
 10
-4.358528
 20
134.537514
 30
0.0
 10
-3.834161
 20
134.537514
 30
0.0
  0
SPLINE
  5
131
100
AcDbEntity
  8
Layer_1
 62
1
100
AcDbSpline
 70
8
 71
3
 72
8
 73
4
 74
0
 40
0
 40
0
 40
0
 40
0
 40
1
 40
1
 40
1
 40
1
 10
-3.834161
 20
134.537514
 30
0.0
 10
-3.309795
 20
134.537514
 30
0.0
 10
-2.884592
 20
134.112658
 30
0.0
 10
-2.884163
 20
133.588292
 30
0.0
  0
LINE
  5
132
100
AcDbEntity
  8
Layer_1
 62
1
100
AcDbLine
 10
-2.884163
 20
133.588292
 30
0.0
 11
-2.884163
 21
133.588292
 31
0.0
  0
SPLINE
  5
133
100
AcDbEntity
  8
Layer_1
 62
1
100
AcDbSpline
 70
8
 71
3
 72
8
 73
4
 74
0
 40
0
 40
0
 40
0
 40
0
 40
1
 40
1
 40
1
 40
1
 10
261.747008
 20
153.081460
 30
0.0
 10
261.747008
 20
153.947292
 30
0.0
 10
262.448841
 20
154.649101
 30
0.0
 10
263.314636
 20
154.649101
 30
0.0
  0
SPLINE
  5
134
100
AcDbEntity
  8
Layer_1
 62
1
100
AcDbSpline
 70
8
 71
3
 72
8
 73
4
 74
0
 40
0
 40
0
 40
0
 40
0
 40
1
 40
1
 40
1
 40
1
 10
263.314636
 20
154.649101
 30
0.0
 10
264.180458
 20
154.649101
 30
0.0
 10
264.882290
 20
153.947292
 30
0.0
 10
264.882290
 20
153.081460
 30
0.0
  0
SPLINE
  5
135
100
AcDbEntity
  8
Layer_1
 62
1
100
AcDbSpline
 70
8
 71
3
 72
8
 73
4
 74
0
 40
0
 40
0
 40
0
 40
0
 40
1
 40
1
 40
1
 40
1
 10
264.882290
 20
153.081460
 30
0.0
 10
264.882290
 20
152.215628
 30
0.0
 10
264.180458
 20
151.513819
 30
0.0
 10
263.314636
 20
151.513819
 30
0.0
  0
SPLINE
  5
136
100
AcDbEntity
  8
Layer_1
 62
1
100
AcDbSpline
 70
8
 71
3
 72
8
 73
4
 74
0
 40
0
 40
0
 40
0
 40
0
 40
1
 40
1
 40
1
 40
1
 10
263.314636
 20
151.513819
 30
0.0
 10
262.448841
 20
151.513819
 30
0.0
 10
261.747008
 20
152.215628
 30
0.0
 10
261.747008
 20
153.081460
 30
0.0
  0
LINE
  5
137
100
AcDbEntity
  8
Layer_1
 62
1
100
AcDbLine
 10
261.747008
 20
153.081460
 30
0.0
 11
261.747008
 21
153.081460
 31
0.0
  0
SPLINE
  5
138
100
AcDbEntity
  8
Layer_1
 62
1
100
AcDbSpline
 70
8
 71
3
 72
8
 73
4
 74
0
 40
0
 40
0
 40
0
 40
0
 40
1
 40
1
 40
1
 40
1
 10
173.773002
 20
156.528059
 30
0.0
 10
173.773002
 20
157.393891
 30
0.0
 10
174.474835
 20
158.095700
 30
0.0
 10
175.340630
 20
158.095700
 30
0.0
  0
SPLINE
  5
139
100
AcDbEntity
  8
Layer_1
 62
1
100
AcDbSpline
 70
8
 71
3
 72
8
 73
4
 74
0
 40
0
 40
0
 40
0
 40
0
 40
1
 40
1
 40
1
 40
1
 10
175.340630
 20
158.095700
 30
0.0
 10
176.206451
 20
158.095700
 30
0.0
 10
176.908284
 20
157.393891
 30
0.0
 10
176.908284
 20
156.528059
 30
0.0
  0
SPLINE
  5
13a
100
AcDbEntity
  8
Layer_1
 62
1
100
AcDbSpline
 70
8
 71
3
 72
8
 73
4
 74
0
 40
0
 40
0
 40
0
 40
0
 40
1
 40
1
 40
1
 40
1
 10
176.908284
 20
156.528059
 30
0.0
 10
176.908284
 20
155.662227
 30
0.0
 10
176.206451
 20
154.960418
 30
0.0
 10
175.340630
 20
154.960418
 30
0.0
  0
SPLINE
  5
13b
100
AcDbEntity
  8
Layer_1
 62
1
100
AcDbSpline
 70
8
 71
3
 72
8
 73
4
 74
0
 40
0
 40
0
 40
0
 40
0
 40
1
 40
1
 40
1
 40
1
 10
175.340630
 20
154.960418
 30
0.0
 10
174.474835
 20
154.960418
 30
0.0
 10
173.773002
 20
155.662227
 30
0.0
 10
173.773002
 20
156.528059
 30
0.0
  0
LINE
  5
13c
100
AcDbEntity
  8
Layer_1
 62
1
100
AcDbLine
 10
173.773002
 20
156.528059
 30
0.0
 11
173.773002
 21
156.528059
 31
0.0
  0
SPLINE
  5
13d
100
AcDbEntity
  8
Layer_1
 62
1
100
AcDbSpline
 70
8
 71
3
 72
8
 73
4
 74
0
 40
0
 40
0
 40
0
 40
0
 40
1
 40
1
 40
1
 40
1
 10
262.363480
 20
127.476440
 30
0.0
 10
262.363480
 20
128.001270
 30
0.0
 10
262.788880
 20
128.426660
 30
0.0
 10
263.313690
 20
128.426660
 30
0.0
  0
SPLINE
  5
13e
100
AcDbEntity
  8
Layer_1
 62
1
100
AcDbSpline
 70
8
 71
3
 72
8
 73
4
 74
0
 40
0
 40
0
 40
0
 40
0
 40
1
 40
1
 40
1
 40
1
 10
263.313690
 20
128.426660
 30
0.0
 10
263.838500
 20
128.426660
 30
0.0
 10
264.263910
 20
128.001270
 30
0.0
 10
264.263910
 20
127.476440
 30
0.0
  0
SPLINE
  5
13f
100
AcDbEntity
  8
Layer_1
 62
1
100
AcDbSpline
 70
8
 71
3
 72
8
 73
4
 74
0
 40
0
 40
0
 40
0
 40
0
 40
1
 40
1
 40
1
 40
1
 10
264.263910
 20
127.476440
 30
0.0
 10
264.263910
 20
126.951620
 30
0.0
 10
263.838500
 20
126.526230
 30
0.0
 10
263.313690
 20
126.526230
 30
0.0
  0
SPLINE
  5
140
100
AcDbEntity
  8
Layer_1
 62
1
100
AcDbSpline
 70
8
 71
3
 72
8
 73
4
 74
0
 40
0
 40
0
 40
0
 40
0
 40
1
 40
1
 40
1
 40
1
 10
263.313690
 20
126.526230
 30
0.0
 10
262.788880
 20
126.526230
 30
0.0
 10
262.363480
 20
126.951620
 30
0.0
 10
262.363480
 20
127.476440
 30
0.0
  0
LINE
  5
141
100
AcDbEntity
  8
Layer_1
 62
1
100
AcDbLine
 10
262.363480
 20
127.476440
 30
0.0
 11
262.363480
 21
127.476440
 31
0.0
  0
LINE
  5
142
100
AcDbEntity
  8
Layer_1
 62
1
100
AcDbLine
 10
-22.237700
 20
170.655676
 30
0.0
 11
-23.163318
 21
170.655676
 31
0.0
  0
LINE
  5
143
100
AcDbEntity
  8
Layer_1
 62
1
100
AcDbLine
 10
-23.163318
 20
170.655676
 30
0.0
 11
-25.496999
 21
170.656158
 31
0.0
  0
LINE
  5
144
100
AcDbEntity
  8
Layer_1
 62
1
100
AcDbLine
 10
-25.496999
 20
170.656158
 30
0.0
 11
-69.006671
 21
170.656162
 31
0.0
  0
SPLINE
  5
145
100
AcDbEntity
  8
Layer_1
 62
1
100
AcDbSpline
 70
8
 71
3
 72
8
 73
4
 74
0
 40
0
 40
0
 40
0
 40
0
 40
1
 40
1
 40
1
 40
1
 10
-69.006671
 20
170.656162
 30
0.0
 10
-70.370093
 20
170.656162
 30
0.0
 10
-71.695692
 20
170.171225
 30
0.0
 10
-72.779245
 20
169.276059
 30
0.0
  0
LINE
  5
146
100
AcDbEntity
  8
Layer_1
 62
1
100
AcDbLine
 10
-72.779245
 20
169.276059
 30
0.0
 11
-76.249545
 21
166.409111
 31
0.0
  0
SPLINE
  5
147
100
AcDbEntity
  8
Layer_1
 62
1
100
AcDbSpline
 70
8
 71
3
 72
8
 73
4
 74
0
 40
0
 40
0
 40
0
 40
0
 40
1
 40
1
 40
1
 40
1
 10
-76.249545
 20
166.409111
 30
0.0
 10
-77.164451
 20
165.653271
 30
0.0
 10
-77.904401
 20
164.031044
 30
0.0
 10
-77.902616
 20
162.785765
 30
0.0
  0
SPLINE
  5
148
100
AcDbEntity
  8
Layer_1
 62
1
100
AcDbSpline
 70
8
 71
3
 72
8
 73
4
 74
0
 40
0
 40
0
 40
0
 40
0
 40
1
 40
1
 40
1
 40
1
 10
-77.902616
 20
162.785765
 30
0.0
 10
-77.871505
 20
141.074347
 30
0.0
 10
-77.962828
 20
146.920113
 30
0.0
 10
-77.905564
 20
125.134061
 30
0.0
  0
SPLINE
  5
149
100
AcDbEntity
  8
Layer_1
 62
1
100
AcDbSpline
 70
8
 71
3
 72
8
 73
4
 74
0
 40
0
 40
0
 40
0
 40
0
 40
1
 40
1
 40
1
 40
1
 10
-77.905564
 20
125.134061
 30
0.0
 10
-77.902406
 20
123.939343
 30
0.0
 10
-77.004253
 20
122.970838
 30
0.0
 10
-75.899736
 20
122.970860
 30
0.0
  0
LINE
  5
14a
100
AcDbEntity
  8
Layer_1
 62
1
100
AcDbLine
 10
-75.899736
 20
122.970860
 30
0.0
 11
278.352565
 21
122.977694
 31
0.0
  0
SPLINE
  5
14b
100
AcDbEntity
  8
Layer_1
 62
1
100
AcDbSpline
 70
8
 71
3
 72
8
 73
4
 74
0
 40
0
 40
0
 40
0
 40
0
 40
1
 40
1
 40
1
 40
1
 10
278.352565
 20
122.977694
 30
0.0
 10
279.411722
 20
122.977716
 30
0.0
 10
280.270135
 20
123.906509
 30
0.0
 10
280.269935
 20
125.052211
 30
0.0
  0
SPLINE
  5
14c
100
AcDbEntity
  8
Layer_1
 62
1
100
AcDbSpline
 70
8
 71
3
 72
8
 73
4
 74
0
 40
0
 40
0
 40
0
 40
0
 40
1
 40
1
 40
1
 40
1
 10
280.269935
 20
125.052211
 30
0.0
 10
280.269756
 20
126.020067
 30
0.0
 10
280.269608
 20
127.003707
 30
0.0
 10
280.269440
 20
128.003064
 30
0.0
  0
SPLINE
  5
14d
100
AcDbEntity
  8
Layer_1
 62
1
100
AcDbSpline
 70
8
 71
3
 72
8
 73
4
 74
0
 40
0
 40
0
 40
0
 40
0
 40
1
 40
1
 40
1
 40
1
 10
280.269440
 20
128.003064
 30
0.0
 10
280.268966
 20
130.902817
 30
0.0
 10
280.268503
 20
154.737316
 30
0.0
 10
280.267334
 20
162.767530
 30
0.0
  0
SPLINE
  5
14e
100
AcDbEntity
  8
Layer_1
 62
1
100
AcDbSpline
 70
8
 71
3
 72
8
 73
4
 74
0
 40
0
 40
0
 40
0
 40
0
 40
1
 40
1
 40
1
 40
1
 10
280.267334
 20
162.767530
 30
0.0
 10
280.267208
 20
164.022270
 30
0.0
 10
279.519670
 20
165.656825
 30
0.0
 10
278.597813
 20
166.418409
 30
0.0
  0
LINE
  5
14f
100
AcDbEntity
  8
Layer_1
 62
1
100
AcDbLine
 10
278.597813
 20
166.418409
 30
0.0
 11
275.121482
 21
169.290344
 31
0.0
  0
SPLINE
  5
150
100
AcDbEntity
  8
Layer_1
 62
1
100
AcDbSpline
 70
8
 71
3
 72
8
 73
4
 74
0
 40
0
 40
0
 40
0
 40
0
 40
1
 40
1
 40
1
 40
1
 10
275.121482
 20
169.290344
 30
0.0
 10
274.050011
 20
170.175529
 30
0.0
 10
272.739193
 20
170.655059
 30
0.0
 10
271.390974
 20
170.655058
 30
0.0
  0
LINE
  5
151
100
AcDbEntity
  8
Layer_1
 62
1
100
AcDbLine
 10
271.390974
 20
170.655058
 30
0.0
 11
3.672926
 21
170.655074
 31
0.0
  0
LINE
  5
152
100
AcDbEntity
  8
Layer_1
 62
1
100
AcDbLine
 10
3.672926
 20
170.655074
 30
0.0
 11
1.536868
 21
170.653594
 31
0.0
  0
LINE
  5
153
100
AcDbEntity
  8
Layer_1
 62
1
100
AcDbLine
 10
1.536868
 20
170.653594
 30
0.0
 11
0.611637
 21
170.653594
 31
0.0
  0
ENDSEC
  0
SECTION
  2
OBJECTS
  0
DICTIONARY
  5
C
330
0
100
AcDbDictionary
  3
ACAD_GROUP
350
D
  3
ACAD_MLINESTYLE
350
17
  0
DICTIONARY
  5
D
330
C
100
AcDbDictionary
  0
DICTIONARY
  5
1A
330
C
100
AcDbDictionary
  0
DICTIONARY
  5
17
330
C
100
AcDbDictionary
  3
STANDARD
350
18
  0
DICTIONARY
  5
19
330
C
100
AcDbDictionary
  0
ENDSEC
  0
EOF
