  0
SECTION
  2
HEADER
  9
$ACADVER
  1
AC1014
  9
$HANDSEED
  5
FFFF
  9
$INSUNITS
 70
     0
  9
$MEASUREMENT
 70
     1
  0
ENDSEC
  0
SECTION
  2
TABLES
  0
TABLE
  2
VPORT
  5
8
330
0
100
AcDbSymbolTable
 70
     4
  0
VPORT
  5
2E
330
8
100
AcDbSymbolTableRecord
100
AcDbViewportTableRecord
  2
*ACTIVE
 70
     0
 10
0.0
 20
0.0
 11
1.0
 21
1.0
 12
210.0
 22
148.5
 13
0.0
 23
0.0
 14
10.0
 24
10.0
 15
10.0
 25
10.0
 16
0.0
 26
0.0
 36
1.0
 17
0.0
 27
0.0
 37
0.0
 40
341.0
 41
1.24
 42
50.0
 43
0.0
 44
0.0
 50
0.0
 51
0.0
 71
     0
 72
   100
 73
     1
 74
     3
 75
     0
 76
     0
 77
     0
 78
     0
  0
ENDTAB
  0
TABLE
  2
LTYPE
  5
5
330
0
100
AcDbSymbolTable
 70
     1
  0
LTYPE
  5
14
330
5
100
AcDbSymbolTableRecord
100
AcDbLinetypeTableRecord
  2
BYBLOCK
 70
     0
  3

 72
    65
 73
     0
 40
0.0
  0
LTYPE
  5
15
330
5
100
AcDbSymbolTableRecord
100
AcDbLinetypeTableRecord
  2
BYLAYER
 70
     0
  3

 72
    65
 73
     0
 40
0.0
  0
LTYPE
  5
16
330
5
100
AcDbSymbolTableRecord
100
AcDbLinetypeTableRecord
  2
CONTINUOUS
 70
     0
  3
Solid line
 72
    65
 73
     0
 40
0.0
  0
ENDTAB
  0
TABLE
  2
LAYER
  5
2
100
AcDbSymbolTable
 70
2
  0
LAYER
  5
50
100
AcDbSymbolTableRecord
100
AcDbLayerTableRecord
  2
0
 70
0
  6
CONTINUOUS
  0
LAYER
  5
51
100
AcDbSymbolTableRecord
100
AcDbLayerTableRecord
  2
Layer_1
 70
0
  6
CONTINUOUS
  0
ENDTAB
  0
TABLE
  2
STYLE
  5
3
330
0
100
AcDbSymbolTable
 70
     1
  0
STYLE
  5
11
330
3
100
AcDbSymbolTableRecord
100
AcDbTextStyleTableRecord
  2
STANDARD
 70
     0
 40
0.0
 41
1.0
 50
0.0
 71
     0
 42
2.5
  3
txt
  4

  0
ENDTAB
  0
TABLE
  2
VIEW
  5
6
330
0
100
AcDbSymbolTable
 70
     0
  0
ENDTAB
  0
TABLE
  2
UCS
  5
7
330
0
100
AcDbSymbolTable
 70
     0
  0
ENDTAB
  0
TABLE
  2
APPID
  5
9
330
0
100
AcDbSymbolTable
 70
     2
  0
APPID
  5
12
330
9
100
AcDbSymbolTableRecord
100
AcDbRegAppTableRecord
  2
ACAD
 70
     0
  0
ENDTAB
  0
TABLE
  2
DIMSTYLE
  5
A
330
0
100
AcDbSymbolTable
 70
     1
  0
DIMSTYLE
105
27
330
A
100
AcDbSymbolTableRecord
100
AcDbDimStyleTableRecord
  2
ISO-25
 70
     0
  3

  4

  5

  6

  7

 40
1.0
 41
2.5
 42
0.625
 43
3.75
 44
1.25
 45
0.0
 46
0.0
 47
0.0
 48
0.0
140
2.5
141
2.5
142
0.0
143
0.03937007874016
144
1.0
145
0.0
146
1.0
147
0.625
 71
     0
 72
     0
 73
     0
 74
     0
 75
     0
 76
     0
 77
     1
 78
     8
170
     0
171
     3
172
     1
173
     0
174
     0
175
     0
176
     0
177
     0
178
     0
270
     2
271
     2
272
     2
273
     2
274
     3
340
11
275
     0
280
     0
281
     0
282
     0
283
     0
284
     8
285
     0
286
     0
287
     3
288
     0
  0
ENDTAB
  0
TABLE
  2
BLOCK_RECORD
  5
1
330
0
100
AcDbSymbolTable
 70
     1
  0
BLOCK_RECORD
  5
1F
330
1
100
AcDbSymbolTableRecord
100
AcDbBlockTableRecord
  2
*MODEL_SPACE
  0
BLOCK_RECORD
  5
1B
330
1
100
AcDbSymbolTableRecord
100
AcDbBlockTableRecord
  2
*PAPER_SPACE
  0
ENDTAB
  0
ENDSEC
  0
SECTION
  2
BLOCKS
  0
BLOCK
  5
20
330
1F
100
AcDbEntity
  8
0
100
AcDbBlockBegin
  2
*MODEL_SPACE
 70
     0
 10
0.0
 20
0.0
 30
0.0
  3
*MODEL_SPACE
  1

  0
ENDBLK
  5
21
330
1F
100
AcDbEntity
  8
0
100
AcDbBlockEnd
  0
BLOCK
  5
1C
330
1B
100
AcDbEntity
 67
     1
  8
0
100
AcDbBlockBegin
  2
*PAPER_SPACE
  1

  0
ENDBLK
  5
1D
330
1B
100
AcDbEntity
 67
     1
  8
0
100
AcDbBlockEnd
  0
ENDSEC
  0
SECTION
  2
ENTITIES
  0
SPLINE
  5
100
100
AcDbEntity
  8
Layer_1
 62
4
100
AcDbSpline
 70
8
 71
3
 72
8
 73
4
 74
0
 40
0
 40
0
 40
0
 40
0
 40
1
 40
1
 40
1
 40
1
 10
-60.189906
 20
129.769483
 30
0.0
 10
-60.189906
 20
130.294302
 30
0.0
 10
-60.615355
 20
130.719701
 30
0.0
 10
-61.140103
 20
130.719701
 30
0.0
  0
SPLINE
  5
101
100
AcDbEntity
  8
Layer_1
 62
4
100
AcDbSpline
 70
8
 71
3
 72
8
 73
4
 74
0
 40
0
 40
0
 40
0
 40
0
 40
1
 40
1
 40
1
 40
1
 10
-61.140103
 20
130.719701
 30
0.0
 10
-61.664876
 20
130.719701
 30
0.0
 10
-62.090326
 20
130.294302
 30
0.0
 10
-62.090326
 20
129.769483
 30
0.0
  0
SPLINE
  5
102
100
AcDbEntity
  8
Layer_1
 62
4
100
AcDbSpline
 70
8
 71
3
 72
8
 73
4
 74
0
 40
0
 40
0
 40
0
 40
0
 40
1
 40
1
 40
1
 40
1
 10
-62.090326
 20
129.769483
 30
0.0
 10
-62.090326
 20
129.244664
 30
0.0
 10
-61.664876
 20
128.819265
 30
0.0
 10
-61.140103
 20
128.819265
 30
0.0
  0
SPLINE
  5
103
100
AcDbEntity
  8
Layer_1
 62
4
100
AcDbSpline
 70
8
 71
3
 72
8
 73
4
 74
0
 40
0
 40
0
 40
0
 40
0
 40
1
 40
1
 40
1
 40
1
 10
-61.140103
 20
128.819265
 30
0.0
 10
-60.615355
 20
128.819265
 30
0.0
 10
-60.189906
 20
129.244664
 30
0.0
 10
-60.189906
 20
129.769483
 30
0.0
  0
LINE
  5
104
100
AcDbEntity
  8
Layer_1
 62
4
100
AcDbLine
 10
-60.189906
 20
129.769483
 30
0.0
 11
-60.189906
 21
129.769483
 31
0.0
  0
SPLINE
  5
105
100
AcDbEntity
  8
Layer_1
 62
4
100
AcDbSpline
 70
8
 71
3
 72
8
 73
4
 74
0
 40
0
 40
0
 40
0
 40
0
 40
1
 40
1
 40
1
 40
1
 10
27.784180
 20
133.245059
 30
0.0
 10
27.784180
 20
133.769920
 30
0.0
 10
27.358704
 20
134.195351
 30
0.0
 10
26.833904
 20
134.195351
 30
0.0
  0
SPLINE
  5
106
100
AcDbEntity
  8
Layer_1
 62
4
100
AcDbSpline
 70
8
 71
3
 72
8
 73
4
 74
0
 40
0
 40
0
 40
0
 40
0
 40
1
 40
1
 40
1
 40
1
 10
26.833904
 20
134.195351
 30
0.0
 10
26.309077
 20
134.195351
 30
0.0
 10
25.883601
 20
133.769920
 30
0.0
 10
25.883601
 20
133.245059
 30
0.0
  0
SPLINE
  5
107
100
AcDbEntity
  8
Layer_1
 62
4
100
AcDbSpline
 70
8
 71
3
 72
8
 73
4
 74
0
 40
0
 40
0
 40
0
 40
0
 40
1
 40
1
 40
1
 40
1
 10
25.883601
 20
133.245059
 30
0.0
 10
25.883601
 20
132.720197
 30
0.0
 10
26.309077
 20
132.294766
 30
0.0
 10
26.833904
 20
132.294766
 30
0.0
  0
SPLINE
  5
108
100
AcDbEntity
  8
Layer_1
 62
4
100
AcDbSpline
 70
8
 71
3
 72
8
 73
4
 74
0
 40
0
 40
0
 40
0
 40
0
 40
1
 40
1
 40
1
 40
1
 10
26.833904
 20
132.294766
 30
0.0
 10
27.358704
 20
132.294766
 30
0.0
 10
27.784180
 20
132.720197
 30
0.0
 10
27.784180
 20
133.245059
 30
0.0
  0
LINE
  5
109
100
AcDbEntity
  8
Layer_1
 62
4
100
AcDbLine
 10
27.784180
 20
133.245059
 30
0.0
 11
27.784180
 21
133.245059
 31
0.0
  0
SPLINE
  5
10a
100
AcDbEntity
  8
Layer_1
 62
4
100
AcDbSpline
 70
8
 71
3
 72
8
 73
4
 74
0
 40
0
 40
0
 40
0
 40
0
 40
1
 40
1
 40
1
 40
1
 10
261.823360
 20
129.798460
 30
0.0
 10
261.823360
 20
130.323321
 30
0.0
 10
262.248801
 20
130.748750
 30
0.0
 10
262.773641
 20
130.748750
 30
0.0
  0
SPLINE
  5
10b
100
AcDbEntity
  8
Layer_1
 62
4
100
AcDbSpline
 70
8
 71
3
 72
8
 73
4
 74
0
 40
0
 40
0
 40
0
 40
0
 40
1
 40
1
 40
1
 40
1
 10
262.773641
 20
130.748750
 30
0.0
 10
263.298497
 20
130.748750
 30
0.0
 10
263.723939
 20
130.323321
 30
0.0
 10
263.723939
 20
129.798460
 30
0.0
  0
SPLINE
  5
10c
100
AcDbEntity
  8
Layer_1
 62
4
100
AcDbSpline
 70
8
 71
3
 72
8
 73
4
 74
0
 40
0
 40
0
 40
0
 40
0
 40
1
 40
1
 40
1
 40
1
 10
263.723939
 20
129.798460
 30
0.0
 10
263.723939
 20
129.273599
 30
0.0
 10
263.298497
 20
128.848171
 30
0.0
 10
262.773641
 20
128.848171
 30
0.0
  0
SPLINE
  5
10d
100
AcDbEntity
  8
Layer_1
 62
4
100
AcDbSpline
 70
8
 71
3
 72
8
 73
4
 74
0
 40
0
 40
0
 40
0
 40
0
 40
1
 40
1
 40
1
 40
1
 10
262.773641
 20
128.848171
 30
0.0
 10
262.248801
 20
128.848171
 30
0.0
 10
261.823360
 20
129.273599
 30
0.0
 10
261.823360
 20
129.798460
 30
0.0
  0
LINE
  5
10e
100
AcDbEntity
  8
Layer_1
 62
4
100
AcDbLine
 10
261.823360
 20
129.798460
 30
0.0
 11
261.823360
 21
129.798460
 31
0.0
  0
SPLINE
  5
10f
100
AcDbEntity
  8
Layer_1
 62
4
100
AcDbSpline
 70
8
 71
3
 72
8
 73
4
 74
0
 40
0
 40
0
 40
0
 40
0
 40
1
 40
1
 40
1
 40
1
 10
173.849354
 20
133.245059
 30
0.0
 10
173.849354
 20
133.769920
 30
0.0
 10
174.274830
 20
134.195351
 30
0.0
 10
174.799630
 20
134.195351
 30
0.0
  0
SPLINE
  5
110
100
AcDbEntity
  8
Layer_1
 62
4
100
AcDbSpline
 70
8
 71
3
 72
8
 73
4
 74
0
 40
0
 40
0
 40
0
 40
0
 40
1
 40
1
 40
1
 40
1
 10
174.799630
 20
134.195351
 30
0.0
 10
175.324457
 20
134.195351
 30
0.0
 10
175.749933
 20
133.769920
 30
0.0
 10
175.749933
 20
133.245059
 30
0.0
  0
SPLINE
  5
111
100
AcDbEntity
  8
Layer_1
 62
4
100
AcDbSpline
 70
8
 71
3
 72
8
 73
4
 74
0
 40
0
 40
0
 40
0
 40
0
 40
1
 40
1
 40
1
 40
1
 10
175.749933
 20
133.245059
 30
0.0
 10
175.749933
 20
132.720197
 30
0.0
 10
175.324457
 20
132.294766
 30
0.0
 10
174.799630
 20
132.294766
 30
0.0
  0
SPLINE
  5
112
100
AcDbEntity
  8
Layer_1
 62
4
100
AcDbSpline
 70
8
 71
3
 72
8
 73
4
 74
0
 40
0
 40
0
 40
0
 40
0
 40
1
 40
1
 40
1
 40
1
 10
174.799630
 20
132.294766
 30
0.0
 10
174.274830
 20
132.294766
 30
0.0
 10
173.849354
 20
132.720197
 30
0.0
 10
173.849354
 20
133.245059
 30
0.0
  0
LINE
  5
113
100
AcDbEntity
  8
Layer_1
 62
4
100
AcDbLine
 10
173.849354
 20
133.245059
 30
0.0
 11
173.849354
 21
133.245059
 31
0.0
  0
LINE
  5
114
100
AcDbEntity
  8
Layer_1
 62
4
100
AcDbLine
 10
-22.782295
 20
147.372350
 30
0.0
 11
-23.707860
 21
147.372350
 31
0.0
  0
LINE
  5
115
100
AcDbEntity
  8
Layer_1
 62
4
100
AcDbLine
 10
-23.707860
 20
147.372350
 30
0.0
 11
-26.041407
 21
147.372833
 31
0.0
  0
LINE
  5
116
100
AcDbEntity
  8
Layer_1
 62
4
100
AcDbLine
 10
-26.041407
 20
147.372833
 30
0.0
 11
-69.543220
 21
147.372836
 31
0.0
  0
SPLINE
  5
117
100
AcDbEntity
  8
Layer_1
 62
4
100
AcDbSpline
 70
8
 71
3
 72
8
 73
4
 74
0
 40
0
 40
0
 40
0
 40
0
 40
1
 40
1
 40
1
 40
1
 10
-69.543220
 20
147.372836
 30
0.0
 10
-70.910034
 20
147.372836
 30
0.0
 10
-72.238930
 20
146.886693
 30
0.0
 10
-73.325179
 20
145.989300
 30
0.0
  0
LINE
  5
118
100
AcDbEntity
  8
Layer_1
 62
4
100
AcDbLine
 10
-73.325179
 20
145.989300
 30
0.0
 11
-76.781468
 21
143.133927
 31
0.0
  0
SPLINE
  5
119
100
AcDbEntity
  8
Layer_1
 62
4
100
AcDbSpline
 70
8
 71
3
 72
8
 73
4
 74
0
 40
0
 40
0
 40
0
 40
0
 40
1
 40
1
 40
1
 40
1
 10
-76.781468
 20
143.133927
 30
0.0
 10
-77.701600
 20
142.373770
 30
0.0
 10
-78.445794
 20
140.742276
 30
0.0
 10
-78.443823
 20
139.489882
 30
0.0
  0
SPLINE
  5
11a
100
AcDbEntity
  8
Layer_1
 62
4
100
AcDbSpline
 70
8
 71
3
 72
8
 73
4
 74
0
 40
0
 40
0
 40
0
 40
0
 40
1
 40
1
 40
1
 40
1
 10
-78.443823
 20
139.489882
 30
0.0
 10
-78.411713
 20
119.096953
 30
0.0
 10
-78.492408
 20
149.033080
 30
0.0
 10
-78.428905
 20
126.722376
 30
0.0
  0
SPLINE
  5
11b
100
AcDbEntity
  8
Layer_1
 62
4
100
AcDbSpline
 70
8
 71
3
 72
8
 73
4
 74
0
 40
0
 40
0
 40
0
 40
0
 40
1
 40
1
 40
1
 40
1
 10
-78.428905
 20
126.722376
 30
0.0
 10
-78.427220
 20
126.132237
 30
0.0
 10
-77.983544
 20
125.653837
 30
0.0
 10
-77.437913
 20
125.653849
 30
0.0
  0
LINE
  5
11c
100
AcDbEntity
  8
Layer_1
 62
4
100
AcDbLine
 10
-77.437913
 20
125.653849
 30
0.0
 11
-22.182793
 21
125.654908
 31
0.0
  0
SPLINE
  5
11d
100
AcDbEntity
  8
Layer_1
 62
4
100
AcDbSpline
 70
8
 71
3
 72
8
 73
4
 74
0
 40
0
 40
0
 40
0
 40
0
 40
1
 40
1
 40
1
 40
1
 10
-22.182793
 20
125.654908
 30
0.0
 10
-22.021545
 20
125.654911
 30
0.0
 10
-21.890712
 20
125.796070
 30
0.0
 10
-21.890294
 20
125.970493
 30
0.0
  0
LINE
  5
11e
100
AcDbEntity
  8
Layer_1
 62
4
100
AcDbLine
 10
-21.890294
 20
125.970493
 30
0.0
 11
-21.889136
 21
126.435204
 31
0.0
  0
SPLINE
  5
11f
100
AcDbEntity
  8
Layer_1
 62
4
100
AcDbSpline
 70
8
 71
3
 72
8
 73
4
 74
0
 40
0
 40
0
 40
0
 40
0
 40
1
 40
1
 40
1
 40
1
 10
-21.889136
 20
126.435204
 30
0.0
 10
-21.888535
 20
126.687548
 30
0.0
 10
-21.699581
 20
126.891957
 30
0.0
 10
-21.466299
 20
126.892627
 30
0.0
  0
LINE
  5
120
100
AcDbEntity
  8
Layer_1
 62
4
100
AcDbLine
 10
-21.466299
 20
126.892627
 30
0.0
 11
-0.783916
 21
126.951958
 31
0.0
  0
SPLINE
  5
121
100
AcDbEntity
  8
Layer_1
 62
4
100
AcDbSpline
 70
8
 71
3
 72
8
 73
4
 74
0
 40
0
 40
0
 40
0
 40
0
 40
1
 40
1
 40
1
 40
1
 10
-0.783916
 20
126.951958
 30
0.0
 10
-0.675416
 20
126.952270
 30
0.0
 10
-0.571275
 20
126.905790
 30
0.0
 10
-0.494545
 20
126.822808
 30
0.0
  0
SPLINE
  5
122
100
AcDbEntity
  8
Layer_1
 62
4
100
AcDbSpline
 70
8
 71
3
 72
8
 73
4
 74
0
 40
0
 40
0
 40
0
 40
0
 40
1
 40
1
 40
1
 40
1
 10
-0.494545
 20
126.822808
 30
0.0
 10
-0.417816
 20
126.739825
 30
0.0
 10
-0.374826
 20
126.627184
 30
0.0
 10
-0.375093
 20
126.509818
 30
0.0
  0
LINE
  5
123
100
AcDbEntity
  8
Layer_1
 62
4
100
AcDbLine
 10
-0.375093
 20
126.509818
 30
0.0
 11
-0.375800
 21
126.196306
 31
0.0
  0
SPLINE
  5
124
100
AcDbEntity
  8
Layer_1
 62
4
100
AcDbSpline
 70
8
 71
3
 72
8
 73
4
 74
0
 40
0
 40
0
 40
0
 40
0
 40
1
 40
1
 40
1
 40
1
 10
-0.375800
 20
126.196306
 30
0.0
 10
-0.376123
 20
126.052949
 30
0.0
 10
-0.323702
 20
125.915345
 30
0.0
 10
-0.230104
 20
125.813854
 30
0.0
  0
SPLINE
  5
125
100
AcDbEntity
  8
Layer_1
 62
4
100
AcDbSpline
 70
8
 71
3
 72
8
 73
4
 74
0
 40
0
 40
0
 40
0
 40
0
 40
1
 40
1
 40
1
 40
1
 10
-0.230104
 20
125.813854
 30
0.0
 10
-0.136506
 20
125.712363
 30
0.0
 10
-0.009423
 20
125.655326
 30
0.0
 10
0.123105
 20
125.655329
 30
0.0
  0
LINE
  5
126
100
AcDbEntity
  8
Layer_1
 62
4
100
AcDbLine
 10
0.123105
 20
125.655329
 30
0.0
 11
278.784598
 21
125.661023
 31
0.0
  0
SPLINE
  5
127
100
AcDbEntity
  8
Layer_1
 62
4
100
AcDbSpline
 70
8
 71
3
 72
8
 73
4
 74
0
 40
0
 40
0
 40
0
 40
0
 40
1
 40
1
 40
1
 40
1
 10
278.784598
 20
125.661023
 30
0.0
 10
279.303166
 20
125.661034
 30
0.0
 10
279.723435
 20
126.115770
 30
0.0
 10
279.723330
 20
126.676710
 30
0.0
  0
SPLINE
  5
128
100
AcDbEntity
  8
Layer_1
 62
4
100
AcDbSpline
 70
8
 71
3
 72
8
 73
4
 74
0
 40
0
 40
0
 40
0
 40
0
 40
1
 40
1
 40
1
 40
1
 10
279.723330
 20
126.676710
 30
0.0
 10
279.723067
 20
127.983679
 30
0.0
 10
279.722856
 20
129.320212
 30
0.0
 10
279.722635
 20
130.686092
 30
0.0
  0
SPLINE
  5
129
100
AcDbEntity
  8
Layer_1
 62
4
100
AcDbSpline
 70
8
 71
3
 72
8
 73
4
 74
0
 40
0
 40
0
 40
0
 40
0
 40
1
 40
1
 40
1
 40
1
 10
279.722635
 20
130.686092
 30
0.0
 10
279.722203
 20
133.328282
 30
0.0
 10
279.712002
 20
136.536397
 30
0.0
 10
279.707475
 20
139.580713
 30
0.0
  0
SPLINE
  5
12a
100
AcDbEntity
  8
Layer_1
 62
4
100
AcDbSpline
 70
8
 71
3
 72
8
 73
4
 74
0
 40
0
 40
0
 40
0
 40
0
 40
1
 40
1
 40
1
 40
1
 10
279.707475
 20
139.580713
 30
0.0
 10
279.705369
 20
140.782508
 30
0.0
 10
278.989353
 20
142.347702
 30
0.0
 10
278.106060
 20
143.076671
 30
0.0
  0
LINE
  5
12b
100
AcDbEntity
  8
Layer_1
 62
4
100
AcDbLine
 10
278.106060
 20
143.076671
 30
0.0
 11
274.503280
 21
146.049968
 31
0.0
  0
SPLINE
  5
12c
100
AcDbEntity
  8
Layer_1
 62
4
100
AcDbSpline
 70
8
 71
3
 72
8
 73
4
 74
0
 40
0
 40
0
 40
0
 40
0
 40
1
 40
1
 40
1
 40
1
 10
274.503280
 20
146.049968
 30
0.0
 10
273.468747
 20
146.903747
 30
0.0
 10
272.203552
 20
147.366220
 30
0.0
 10
270.902310
 20
147.366248
 30
0.0
  0
LINE
  5
12d
100
AcDbEntity
  8
Layer_1
 62
4
100
AcDbLine
 10
270.902310
 20
147.366248
 30
0.0
 11
3.127297
 21
147.372056
 31
0.0
  0
LINE
  5
12e
100
AcDbEntity
  8
Layer_1
 62
4
100
AcDbLine
 10
3.127297
 20
147.372056
 30
0.0
 11
0.991363
 21
147.370576
 31
0.0
  0
LINE
  5
12f
100
AcDbEntity
  8
Layer_1
 62
4
100
AcDbLine
 10
0.991363
 20
147.370576
 30
0.0
 11
0.065724
 21
147.370576
 31
0.0
  0
LINE
  5
130
100
AcDbEntity
  8
Layer_1
 62
4
100
AcDbLine
 10
0.065724
 20
147.370576
 30
0.0
 11
-22.782295
 21
147.372350
 31
0.0
  0
ENDSEC
  0
SECTION
  2
OBJECTS
  0
DICTIONARY
  5
C
330
0
100
AcDbDictionary
  3
ACAD_GROUP
350
D
  3
ACAD_MLINESTYLE
350
17
  0
DICTIONARY
  5
D
330
C
100
AcDbDictionary
  0
DICTIONARY
  5
1A
330
C
100
AcDbDictionary
  0
DICTIONARY
  5
17
330
C
100
AcDbDictionary
  3
STANDARD
350
18
  0
DICTIONARY
  5
19
330
C
100
AcDbDictionary
  0
ENDSEC
  0
EOF
