  0
SECTION
  2
HEADER
  9
$ACADVER
  1
AC1014
  9
$HANDSEED
  5
FFFF
  9
$INSUNITS
 70
     0
  9
$MEASUREMENT
 70
     1
  0
ENDSEC
  0
SECTION
  2
TABLES
  0
TABLE
  2
VPORT
  5
8
330
0
100
AcDbSymbolTable
 70
     4
  0
VPORT
  5
2E
330
8
100
AcDbSymbolTableRecord
100
AcDbViewportTableRecord
  2
*ACTIVE
 70
     0
 10
0.0
 20
0.0
 11
1.0
 21
1.0
 12
210.0
 22
148.5
 13
0.0
 23
0.0
 14
10.0
 24
10.0
 15
10.0
 25
10.0
 16
0.0
 26
0.0
 36
1.0
 17
0.0
 27
0.0
 37
0.0
 40
341.0
 41
1.24
 42
50.0
 43
0.0
 44
0.0
 50
0.0
 51
0.0
 71
     0
 72
   100
 73
     1
 74
     3
 75
     0
 76
     0
 77
     0
 78
     0
  0
ENDTAB
  0
TABLE
  2
LTYPE
  5
5
330
0
100
AcDbSymbolTable
 70
     1
  0
LTYPE
  5
14
330
5
100
AcDbSymbolTableRecord
100
AcDbLinetypeTableRecord
  2
BYBLOCK
 70
     0
  3

 72
    65
 73
     0
 40
0.0
  0
LTYPE
  5
15
330
5
100
AcDbSymbolTableRecord
100
AcDbLinetypeTableRecord
  2
BYLAYER
 70
     0
  3

 72
    65
 73
     0
 40
0.0
  0
LTYPE
  5
16
330
5
100
AcDbSymbolTableRecord
100
AcDbLinetypeTableRecord
  2
CONTINUOUS
 70
     0
  3
Solid line
 72
    65
 73
     0
 40
0.0
  0
ENDTAB
  0
TABLE
  2
LAYER
  5
2
100
AcDbSymbolTable
 70
2
  0
LAYER
  5
50
100
AcDbSymbolTableRecord
100
AcDbLayerTableRecord
  2
0
 70
0
  6
CONTINUOUS
  0
LAYER
  5
51
100
AcDbSymbolTableRecord
100
AcDbLayerTableRecord
  2
Layer_1
 70
0
  6
CONTINUOUS
  0
ENDTAB
  0
TABLE
  2
STYLE
  5
3
330
0
100
AcDbSymbolTable
 70
     1
  0
STYLE
  5
11
330
3
100
AcDbSymbolTableRecord
100
AcDbTextStyleTableRecord
  2
STANDARD
 70
     0
 40
0.0
 41
1.0
 50
0.0
 71
     0
 42
2.5
  3
txt
  4

  0
ENDTAB
  0
TABLE
  2
VIEW
  5
6
330
0
100
AcDbSymbolTable
 70
     0
  0
ENDTAB
  0
TABLE
  2
UCS
  5
7
330
0
100
AcDbSymbolTable
 70
     0
  0
ENDTAB
  0
TABLE
  2
APPID
  5
9
330
0
100
AcDbSymbolTable
 70
     2
  0
APPID
  5
12
330
9
100
AcDbSymbolTableRecord
100
AcDbRegAppTableRecord
  2
ACAD
 70
     0
  0
ENDTAB
  0
TABLE
  2
DIMSTYLE
  5
A
330
0
100
AcDbSymbolTable
 70
     1
  0
DIMSTYLE
105
27
330
A
100
AcDbSymbolTableRecord
100
AcDbDimStyleTableRecord
  2
ISO-25
 70
     0
  3

  4

  5

  6

  7

 40
1.0
 41
2.5
 42
0.625
 43
3.75
 44
1.25
 45
0.0
 46
0.0
 47
0.0
 48
0.0
140
2.5
141
2.5
142
0.0
143
0.03937007874016
144
1.0
145
0.0
146
1.0
147
0.625
 71
     0
 72
     0
 73
     0
 74
     0
 75
     0
 76
     0
 77
     1
 78
     8
170
     0
171
     3
172
     1
173
     0
174
     0
175
     0
176
     0
177
     0
178
     0
270
     2
271
     2
272
     2
273
     2
274
     3
340
11
275
     0
280
     0
281
     0
282
     0
283
     0
284
     8
285
     0
286
     0
287
     3
288
     0
  0
ENDTAB
  0
TABLE
  2
BLOCK_RECORD
  5
1
330
0
100
AcDbSymbolTable
 70
     1
  0
BLOCK_RECORD
  5
1F
330
1
100
AcDbSymbolTableRecord
100
AcDbBlockTableRecord
  2
*MODEL_SPACE
  0
BLOCK_RECORD
  5
1B
330
1
100
AcDbSymbolTableRecord
100
AcDbBlockTableRecord
  2
*PAPER_SPACE
  0
ENDTAB
  0
ENDSEC
  0
SECTION
  2
BLOCKS
  0
BLOCK
  5
20
330
1F
100
AcDbEntity
  8
0
100
AcDbBlockBegin
  2
*MODEL_SPACE
 70
     0
 10
0.0
 20
0.0
 30
0.0
  3
*MODEL_SPACE
  1

  0
ENDBLK
  5
21
330
1F
100
AcDbEntity
  8
0
100
AcDbBlockEnd
  0
BLOCK
  5
1C
330
1B
100
AcDbEntity
 67
     1
  8
0
100
AcDbBlockBegin
  2
*PAPER_SPACE
  1

  0
ENDBLK
  5
1D
330
1B
100
AcDbEntity
 67
     1
  8
0
100
AcDbBlockEnd
  0
ENDSEC
  0
SECTION
  2
ENTITIES
  0
SPLINE
  5
100
100
AcDbEntity
  8
Layer_1
 62
3
100
AcDbSpline
 70
8
 71
3
 72
8
 73
4
 74
0
 40
0
 40
0
 40
0
 40
0
 40
1
 40
1
 40
1
 40
1
 10
-88.903726
 20
171.533229
 30
0.0
 10
-89.433202
 20
171.515475
 30
0.0
 10
-89.936867
 20
171.199206
 30
0.0
 10
-90.182199
 20
170.729661
 30
0.0
  0
SPLINE
  5
101
100
AcDbEntity
  8
Layer_1
 62
3
100
AcDbSpline
 70
8
 71
3
 72
8
 73
4
 74
0
 40
0
 40
0
 40
0
 40
0
 40
1
 40
1
 40
1
 40
1
 10
-90.182199
 20
170.729661
 30
0.0
 10
-90.449462
 20
170.245564
 30
0.0
 10
-90.336996
 20
169.675430
 30
0.0
 10
-90.360999
 20
169.147021
 30
0.0
  0
SPLINE
  5
102
100
AcDbEntity
  8
Layer_1
 62
3
100
AcDbSpline
 70
8
 71
3
 72
8
 73
4
 74
0
 40
0
 40
0
 40
0
 40
0
 40
1
 40
1
 40
1
 40
1
 10
-90.360999
 20
169.147021
 30
0.0
 10
-90.359676
 20
151.094623
 30
0.0
 10
-90.359941
 20
133.047427
 30
0.0
 10
-90.360999
 20
114.994961
 30
0.0
  0
SPLINE
  5
103
100
AcDbEntity
  8
Layer_1
 62
3
100
AcDbSpline
 70
8
 71
3
 72
8
 73
4
 74
0
 40
0
 40
0
 40
0
 40
0
 40
1
 40
1
 40
1
 40
1
 10
-90.360999
 20
114.994961
 30
0.0
 10
-90.358618
 20
108.566388
 30
0.0
 10
-90.365815
 20
102.137233
 30
0.0
 10
-90.357374
 20
95.709030
 30
0.0
  0
SPLINE
  5
104
100
AcDbEntity
  8
Layer_1
 62
3
100
AcDbSpline
 70
8
 71
3
 72
8
 73
4
 74
0
 40
0
 40
0
 40
0
 40
0
 40
1
 40
1
 40
1
 40
1
 10
-90.357374
 20
95.709030
 30
0.0
 10
-90.339409
 20
95.189309
 30
0.0
 10
-90.029453
 20
94.694433
 30
0.0
 10
-89.567758
 20
94.454324
 30
0.0
  0
SPLINE
  5
105
100
AcDbEntity
  8
Layer_1
 62
3
100
AcDbSpline
 70
8
 71
3
 72
8
 73
4
 74
0
 40
0
 40
0
 40
0
 40
0
 40
1
 40
1
 40
1
 40
1
 10
-89.567758
 20
94.454324
 30
0.0
 10
-89.087297
 20
94.189688
 30
0.0
 10
-88.521234
 20
94.302480
 30
0.0
 10
-87.997003
 20
94.278112
 30
0.0
  0
LINE
  5
106
100
AcDbEntity
  8
Layer_1
 62
3
100
AcDbLine
 10
-87.997003
 20
94.278112
 30
0.0
 11
152.079203
 21
94.278112
 31
0.0
  0
SPLINE
  5
107
100
AcDbEntity
  8
Layer_1
 62
3
100
AcDbSpline
 70
8
 71
3
 72
8
 73
4
 74
0
 40
0
 40
0
 40
0
 40
0
 40
1
 40
1
 40
1
 40
1
 10
152.079203
 20
94.278112
 30
0.0
 10
152.869261
 20
94.271762
 30
0.0
 10
153.577634
 20
94.965261
 30
0.0
 10
153.585297
 20
95.755702
 30
0.0
  0
SPLINE
  5
108
100
AcDbEntity
  8
Layer_1
 62
3
100
AcDbSpline
 70
8
 71
3
 72
8
 73
4
 74
0
 40
0
 40
0
 40
0
 40
0
 40
1
 40
1
 40
1
 40
1
 10
153.585297
 20
95.755702
 30
0.0
 10
153.589557
 20
120.508897
 30
0.0
 10
153.585826
 20
145.262248
 30
0.0
 10
153.587149
 20
170.015506
 30
0.0
  0
SPLINE
  5
109
100
AcDbEntity
  8
Layer_1
 62
3
100
AcDbSpline
 70
8
 71
3
 72
8
 73
4
 74
0
 40
0
 40
0
 40
0
 40
0
 40
1
 40
1
 40
1
 40
1
 10
153.587149
 20
170.015506
 30
0.0
 10
153.573100
 20
170.450396
 30
0.0
 10
153.379983
 20
170.874565
 30
0.0
 10
153.047646
 20
171.158071
 30
0.0
  0
SPLINE
  5
10a
100
AcDbEntity
  8
Layer_1
 62
3
100
AcDbSpline
 70
8
 71
3
 72
8
 73
4
 74
0
 40
0
 40
0
 40
0
 40
0
 40
1
 40
1
 40
1
 40
1
 10
153.047646
 20
171.158071
 30
0.0
 10
152.716414
 20
171.453954
 30
0.0
 10
152.261223
 20
171.561920
 30
0.0
 10
151.824674
 20
171.535824
 30
0.0
  0
SPLINE
  5
10b
100
AcDbEntity
  8
Layer_1
 62
3
100
AcDbSpline
 70
8
 71
3
 72
8
 73
4
 74
0
 40
0
 40
0
 40
0
 40
0
 40
1
 40
1
 40
1
 40
1
 10
151.824674
 20
171.535824
 30
0.0
 10
71.591705
 20
171.535827
 30
0.0
 10
-8.641264
 20
171.535824
 30
0.0
 10
-88.874233
 20
171.535827
 30
0.0
  0
LINE
  5
10c
100
AcDbEntity
  8
Layer_1
 62
3
100
AcDbLine
 10
-88.874233
 20
171.535827
 30
0.0
 11
-88.900559
 21
171.533049
 31
0.0
  0
LINE
  5
10d
100
AcDbEntity
  8
Layer_1
 62
3
100
AcDbLine
 10
-88.900559
 20
171.533049
 30
0.0
 11
-88.903726
 21
171.533229
 31
0.0
  0
SPLINE
  5
10e
100
AcDbEntity
  8
Layer_1
 62
3
100
AcDbSpline
 70
8
 71
3
 72
8
 73
4
 74
0
 40
0
 40
0
 40
0
 40
0
 40
1
 40
1
 40
1
 40
1
 10
161.230047
 20
171.533229
 30
0.0
 10
160.697904
 20
171.516137
 30
0.0
 10
160.191855
 20
171.198290
 30
0.0
 10
159.945888
 20
170.726044
 30
0.0
  0
SPLINE
  5
10f
100
AcDbEntity
  8
Layer_1
 62
3
100
AcDbSpline
 70
8
 71
3
 72
8
 73
4
 74
0
 40
0
 40
0
 40
0
 40
0
 40
1
 40
1
 40
1
 40
1
 10
159.945888
 20
170.726044
 30
0.0
 10
159.677720
 20
170.241921
 30
0.0
 10
159.790819
 20
169.670260
 30
0.0
 10
159.766570
 20
169.141335
 30
0.0
  0
SPLINE
  5
110
100
AcDbEntity
  8
Layer_1
 62
3
100
AcDbSpline
 70
8
 71
3
 72
8
 73
4
 74
0
 40
0
 40
0
 40
0
 40
0
 40
1
 40
1
 40
1
 40
1
 10
159.766570
 20
169.141335
 30
0.0
 10
159.766572
 20
144.684565
 30
0.0
 10
159.766570
 20
120.227804
 30
0.0
 10
159.766570
 20
95.771048
 30
0.0
  0
SPLINE
  5
111
100
AcDbEntity
  8
Layer_1
 62
3
100
AcDbSpline
 70
8
 71
3
 72
8
 73
4
 74
0
 40
0
 40
0
 40
0
 40
0
 40
1
 40
1
 40
1
 40
1
 10
159.766570
 20
95.771048
 30
0.0
 10
159.779296
 20
95.243152
 30
0.0
 10
160.077373
 20
94.729014
 30
0.0
 10
160.545124
 20
94.477846
 30
0.0
  0
SPLINE
  5
112
100
AcDbEntity
  8
Layer_1
 62
3
100
AcDbSpline
 70
8
 71
3
 72
8
 73
4
 74
0
 40
0
 40
0
 40
0
 40
0
 40
1
 40
1
 40
1
 40
1
 10
160.545124
 20
94.477846
 30
0.0
 10
161.014975
 20
94.190429
 30
0.0
 10
161.586419
 20
94.299570
 30
0.0
 10
162.109164
 20
94.278112
 30
0.0
  0
LINE
  5
113
100
AcDbEntity
  8
Layer_1
 62
3
100
AcDbLine
 10
162.109164
 20
94.278112
 30
0.0
 11
216.484486
 21
94.278112
 31
0.0
  0
SPLINE
  5
114
100
AcDbEntity
  8
Layer_1
 62
3
100
AcDbSpline
 70
8
 71
3
 72
8
 73
4
 74
0
 40
0
 40
0
 40
0
 40
0
 40
1
 40
1
 40
1
 40
1
 10
216.484486
 20
94.278112
 30
0.0
 10
217.012118
 20
94.292399
 30
0.0
 10
217.525462
 20
94.589103
 30
0.0
 10
217.777345
 20
95.056542
 30
0.0
  0
SPLINE
  5
115
100
AcDbEntity
  8
Layer_1
 62
3
100
AcDbSpline
 70
8
 71
3
 72
8
 73
4
 74
0
 40
0
 40
0
 40
0
 40
0
 40
1
 40
1
 40
1
 40
1
 10
217.777345
 20
95.056542
 30
0.0
 10
218.066984
 20
95.535384
 30
0.0
 10
217.954166
 20
96.115826
 30
0.0
 10
217.976893
 20
96.647162
 30
0.0
  0
LINE
  5
116
100
AcDbEntity
  8
Layer_1
 62
3
100
AcDbLine
 10
217.976893
 20
96.647162
 30
0.0
 11
217.976893
 21
170.044949
 31
0.0
  0
SPLINE
  5
117
100
AcDbEntity
  8
Layer_1
 62
3
100
AcDbSpline
 70
8
 71
3
 72
8
 73
4
 74
0
 40
0
 40
0
 40
0
 40
0
 40
1
 40
1
 40
1
 40
1
 10
217.976893
 20
170.044949
 30
0.0
 10
217.961547
 20
170.562601
 30
0.0
 10
217.676988
 20
171.069912
 30
0.0
 10
217.220874
 20
171.323208
 30
0.0
  0
SPLINE
  5
118
100
AcDbEntity
  8
Layer_1
 62
3
100
AcDbSpline
 70
8
 71
3
 72
8
 73
4
 74
0
 40
0
 40
0
 40
0
 40
0
 40
1
 40
1
 40
1
 40
1
 10
217.220874
 20
171.323208
 30
0.0
 10
216.748514
 20
171.626711
 30
0.0
 10
216.164791
 20
171.514904
 30
0.0
 10
215.634302
 20
171.536329
 30
0.0
  0
SPLINE
  5
119
100
AcDbEntity
  8
Layer_1
 62
3
100
AcDbSpline
 70
8
 71
3
 72
8
 73
4
 74
0
 40
0
 40
0
 40
0
 40
0
 40
1
 40
1
 40
1
 40
1
 10
215.634302
 20
171.536329
 30
0.0
 10
197.509372
 20
171.536329
 30
0.0
 10
179.384436
 20
171.536327
 30
0.0
 10
161.259500
 20
171.536329
 30
0.0
  0
LINE
  5
11a
100
AcDbEntity
  8
Layer_1
 62
3
100
AcDbLine
 10
161.259500
 20
171.536329
 30
0.0
 11
161.233174
 21
171.533551
 31
0.0
  0
LINE
  5
11b
100
AcDbEntity
  8
Layer_1
 62
3
100
AcDbLine
 10
161.233174
 20
171.533551
 30
0.0
 11
161.230047
 21
171.533229
 31
0.0
  0
SPLINE
  5
11c
100
AcDbEntity
  8
Layer_1
 62
3
100
AcDbSpline
 70
8
 71
3
 72
8
 73
4
 74
0
 40
0
 40
0
 40
0
 40
0
 40
1
 40
1
 40
1
 40
1
 10
-88.924395
 20
197.824095
 30
0.0
 10
-89.456427
 20
197.806791
 30
0.0
 10
-89.955817
 20
197.481910
 30
0.0
 10
-90.197833
 20
197.009500
 30
0.0
  0
SPLINE
  5
11d
100
AcDbEntity
  8
Layer_1
 62
3
100
AcDbSpline
 70
8
 71
3
 72
8
 73
4
 74
0
 40
0
 40
0
 40
0
 40
0
 40
1
 40
1
 40
1
 40
1
 10
-90.197833
 20
197.009500
 30
0.0
 10
-90.447952
 20
196.521347
 30
0.0
 10
-90.336001
 20
195.958094
 30
0.0
 10
-90.360999
 20
195.431585
 30
0.0
  0
SPLINE
  5
11e
100
AcDbEntity
  8
Layer_1
 62
3
100
AcDbSpline
 70
8
 71
3
 72
8
 73
4
 74
0
 40
0
 40
0
 40
0
 40
0
 40
1
 40
1
 40
1
 40
1
 10
-90.360999
 20
195.431585
 30
0.0
 10
-90.358882
 20
190.005242
 30
0.0
 10
-90.365127
 20
184.578464
 30
0.0
 10
-90.357904
 20
179.152391
 30
0.0
  0
SPLINE
  5
11f
100
AcDbEntity
  8
Layer_1
 62
3
100
AcDbSpline
 70
8
 71
3
 72
8
 73
4
 74
0
 40
0
 40
0
 40
0
 40
0
 40
1
 40
1
 40
1
 40
1
 10
-90.357904
 20
179.152391
 30
0.0
 10
-90.339965
 20
178.630702
 30
0.0
 10
-90.028162
 20
178.134786
 30
0.0
 10
-89.565705
 20
177.892521
 30
0.0
  0
SPLINE
  5
120
100
AcDbEntity
  8
Layer_1
 62
3
100
AcDbSpline
 70
8
 71
3
 72
8
 73
4
 74
0
 40
0
 40
0
 40
0
 40
0
 40
1
 40
1
 40
1
 40
1
 10
-89.565705
 20
177.892521
 30
0.0
 10
-89.084704
 20
177.626538
 30
0.0
 10
-88.517036
 20
177.740518
 30
0.0
 10
-87.991849
 20
177.715787
 30
0.0
  0
LINE
  5
121
100
AcDbEntity
  8
Layer_1
 62
3
100
AcDbLine
 10
-87.991849
 20
177.715787
 30
0.0
 11
-14.565727
 21
177.715787
 31
0.0
  0
SPLINE
  5
122
100
AcDbEntity
  8
Layer_1
 62
3
100
AcDbSpline
 70
8
 71
3
 72
8
 73
4
 74
0
 40
0
 40
0
 40
0
 40
0
 40
1
 40
1
 40
1
 40
1
 10
-14.565727
 20
177.715787
 30
0.0
 10
-14.045755
 20
177.728567
 30
0.0
 10
-13.541198
 20
178.023362
 30
0.0
 10
-13.293956
 20
178.483827
 30
0.0
  0
SPLINE
  5
123
100
AcDbEntity
  8
Layer_1
 62
3
100
AcDbSpline
 70
8
 71
3
 72
8
 73
4
 74
0
 40
0
 40
0
 40
0
 40
0
 40
1
 40
1
 40
1
 40
1
 10
-13.293956
 20
178.483827
 30
0.0
 10
-13.012315
 20
178.950006
 30
0.0
 10
-13.121459
 20
179.514711
 30
0.0
 10
-13.099668
 20
180.032026
 30
0.0
  0
SPLINE
  5
124
100
AcDbEntity
  8
Layer_1
 62
3
100
AcDbSpline
 70
8
 71
3
 72
8
 73
4
 74
0
 40
0
 40
0
 40
0
 40
0
 40
1
 40
1
 40
1
 40
1
 10
-13.099668
 20
180.032026
 30
0.0
 10
-13.101784
 20
185.484828
 30
0.0
 10
-13.095540
 20
190.938063
 30
0.0
 10
-13.102763
 20
196.390595
 30
0.0
  0
SPLINE
  5
125
100
AcDbEntity
  8
Layer_1
 62
3
100
AcDbSpline
 70
8
 71
3
 72
8
 73
4
 74
0
 40
0
 40
0
 40
0
 40
0
 40
1
 40
1
 40
1
 40
1
 10
-13.102763
 20
196.390595
 30
0.0
 10
-13.120067
 20
196.922624
 30
0.0
 10
-13.444948
 20
197.422014
 30
0.0
 10
-13.917359
 20
197.664033
 30
0.0
  0
SPLINE
  5
126
100
AcDbEntity
  8
Layer_1
 62
3
100
AcDbSpline
 70
8
 71
3
 72
8
 73
4
 74
0
 40
0
 40
0
 40
0
 40
0
 40
1
 40
1
 40
1
 40
1
 10
-13.917359
 20
197.664033
 30
0.0
 10
-14.405514
 20
197.914149
 30
0.0
 10
-14.968764
 20
197.802198
 30
0.0
 10
-15.495276
 20
197.827196
 30
0.0
  0
LINE
  5
127
100
AcDbEntity
  8
Layer_1
 62
3
100
AcDbLine
 10
-15.495276
 20
197.827196
 30
0.0
 11
-88.894939
 21
197.827196
 31
0.0
  0
LINE
  5
128
100
AcDbEntity
  8
Layer_1
 62
3
100
AcDbLine
 10
-88.894939
 20
197.827196
 30
0.0
 11
-88.921265
 21
197.824418
 31
0.0
  0
LINE
  5
129
100
AcDbEntity
  8
Layer_1
 62
3
100
AcDbLine
 10
-88.921265
 20
197.824418
 30
0.0
 11
-88.924395
 21
197.824095
 31
0.0
  0
SPLINE
  5
12a
100
AcDbEntity
  8
Layer_1
 62
3
100
AcDbSpline
 70
8
 71
3
 72
8
 73
4
 74
0
 40
0
 40
0
 40
0
 40
0
 40
1
 40
1
 40
1
 40
1
 10
-5.425721
 20
197.824095
 30
0.0
 10
-5.962213
 20
197.805495
 30
0.0
 10
-6.475840
 20
197.490038
 30
0.0
 10
-6.728178
 20
197.015098
 30
0.0
  0
SPLINE
  5
12b
100
AcDbEntity
  8
Layer_1
 62
3
100
AcDbSpline
 70
8
 71
3
 72
8
 73
4
 74
0
 40
0
 40
0
 40
0
 40
0
 40
1
 40
1
 40
1
 40
1
 10
-6.728178
 20
197.015098
 30
0.0
 10
-7.006956
 20
196.533250
 30
0.0
 10
-6.899210
 20
195.957086
 30
0.0
 10
-6.920720
 20
195.426105
 30
0.0
  0
SPLINE
  5
12c
100
AcDbEntity
  8
Layer_1
 62
3
100
AcDbSpline
 70
8
 71
3
 72
8
 73
4
 74
0
 40
0
 40
0
 40
0
 40
0
 40
1
 40
1
 40
1
 40
1
 10
-6.920720
 20
195.426105
 30
0.0
 10
-6.918604
 20
190.016230
 30
0.0
 10
-6.924848
 20
184.605925
 30
0.0
 10
-6.917625
 20
179.196317
 30
0.0
  0
SPLINE
  5
12d
100
AcDbEntity
  8
Layer_1
 62
3
100
AcDbSpline
 70
8
 71
3
 72
8
 73
4
 74
0
 40
0
 40
0
 40
0
 40
0
 40
1
 40
1
 40
1
 40
1
 10
-6.917625
 20
179.196317
 30
0.0
 10
-6.899607
 20
178.658197
 30
0.0
 10
-6.578662
 20
178.146502
 30
0.0
 10
-6.101138
 20
177.897172
 30
0.0
  0
SPLINE
  5
12e
100
AcDbEntity
  8
Layer_1
 62
3
100
AcDbSpline
 70
8
 71
3
 72
8
 73
4
 74
0
 40
0
 40
0
 40
0
 40
0
 40
1
 40
1
 40
1
 40
1
 10
-6.101138
 20
177.897172
 30
0.0
 10
-5.613728
 20
177.628168
 30
0.0
 10
-5.039871
 20
177.739007
 30
0.0
 10
-4.507644
 20
177.715787
 30
0.0
  0
SPLINE
  5
12f
100
AcDbEntity
  8
Layer_1
 62
3
100
AcDbSpline
 70
8
 71
3
 72
8
 73
4
 74
0
 40
0
 40
0
 40
0
 40
0
 40
1
 40
1
 40
1
 40
1
 10
-4.507644
 20
177.715787
 30
0.0
 10
19.943283
 20
177.716845
 30
0.0
 10
44.394308
 20
177.713670
 30
0.0
 10
68.845177
 20
177.717375
 30
0.0
  0
SPLINE
  5
130
100
AcDbEntity
  8
Layer_1
 62
3
100
AcDbSpline
 70
8
 71
3
 72
8
 73
4
 74
0
 40
0
 40
0
 40
0
 40
0
 40
1
 40
1
 40
1
 40
1
 10
68.845177
 20
177.717375
 30
0.0
 10
69.643406
 20
177.722719
 30
0.0
 10
70.346223
 20
178.437855
 30
0.0
 10
70.338545
 20
179.236036
 30
0.0
  0
SPLINE
  5
131
100
AcDbEntity
  8
Layer_1
 62
3
100
AcDbSpline
 70
8
 71
3
 72
8
 73
4
 74
0
 40
0
 40
0
 40
0
 40
0
 40
1
 40
1
 40
1
 40
1
 10
70.338545
 20
179.236036
 30
0.0
 10
70.337751
 20
184.952825
 30
0.0
 10
70.342540
 20
190.669837
 30
0.0
 10
70.336163
 20
196.386544
 30
0.0
  0
SPLINE
  5
132
100
AcDbEntity
  8
Layer_1
 62
3
100
AcDbSpline
 70
8
 71
3
 72
8
 73
4
 74
0
 40
0
 40
0
 40
0
 40
0
 40
1
 40
1
 40
1
 40
1
 10
70.336163
 20
196.386544
 30
0.0
 10
70.316902
 20
197.169443
 30
0.0
 10
69.604406
 20
197.844754
 30
0.0
 10
68.822320
 20
197.827125
 30
0.0
  0
LINE
  5
133
100
AcDbEntity
  8
Layer_1
 62
3
100
AcDbLine
 10
68.822320
 20
197.827125
 30
0.0
 11
-5.396312
 21
197.827125
 31
0.0
  0
LINE
  5
134
100
AcDbEntity
  8
Layer_1
 62
3
100
AcDbLine
 10
-5.396312
 20
197.827125
 30
0.0
 11
-5.422638
 21
197.824347
 31
0.0
  0
LINE
  5
135
100
AcDbEntity
  8
Layer_1
 62
3
100
AcDbLine
 10
-5.422638
 20
197.824347
 30
0.0
 11
-5.425721
 21
197.824095
 31
0.0
  0
SPLINE
  5
136
100
AcDbEntity
  8
Layer_1
 62
3
100
AcDbSpline
 70
8
 71
3
 72
8
 73
4
 74
0
 40
0
 40
0
 40
0
 40
0
 40
1
 40
1
 40
1
 40
1
 10
77.770128
 20
197.824095
 30
0.0
 10
77.246145
 20
197.806447
 30
0.0
 10
76.747571
 20
197.493292
 30
0.0
 10
76.505091
 20
197.028280
 30
0.0
  0
SPLINE
  5
137
100
AcDbEntity
  8
Layer_1
 62
3
100
AcDbSpline
 70
8
 71
3
 72
8
 73
4
 74
0
 40
0
 40
0
 40
0
 40
0
 40
1
 40
1
 40
1
 40
1
 10
76.505091
 20
197.028280
 30
0.0
 10
76.238873
 20
196.546498
 30
0.0
 10
76.352318
 20
195.978375
 30
0.0
 10
76.327841
 20
195.452357
 30
0.0
  0
SPLINE
  5
138
100
AcDbEntity
  8
Layer_1
 62
3
100
AcDbSpline
 70
8
 71
3
 72
8
 73
4
 74
0
 40
0
 40
0
 40
0
 40
0
 40
1
 40
1
 40
1
 40
1
 10
76.327841
 20
195.452357
 30
0.0
 10
76.329958
 20
190.047339
 30
0.0
 10
76.323714
 20
184.641893
 30
0.0
 10
76.330937
 20
179.237139
 30
0.0
  0
SPLINE
  5
139
100
AcDbEntity
  8
Layer_1
 62
3
100
AcDbSpline
 70
8
 71
3
 72
8
 73
4
 74
0
 40
0
 40
0
 40
0
 40
0
 40
1
 40
1
 40
1
 40
1
 10
76.330937
 20
179.237139
 30
0.0
 10
76.348876
 20
178.692083
 30
0.0
 10
76.668574
 20
178.169830
 30
0.0
 10
77.151060
 20
177.913412
 30
0.0
  0
SPLINE
  5
13a
100
AcDbEntity
  8
Layer_1
 62
3
100
AcDbSpline
 70
8
 71
3
 72
8
 73
4
 74
0
 40
0
 40
0
 40
0
 40
0
 40
1
 40
1
 40
1
 40
1
 10
77.151060
 20
177.913412
 30
0.0
 10
77.636977
 20
177.629001
 30
0.0
 10
78.218925
 20
177.736890
 30
0.0
 10
78.755282
 20
177.715787
 30
0.0
  0
SPLINE
  5
13b
100
AcDbEntity
  8
Layer_1
 62
3
100
AcDbSpline
 70
8
 71
3
 72
8
 73
4
 74
0
 40
0
 40
0
 40
0
 40
0
 40
1
 40
1
 40
1
 40
1
 10
78.755282
 20
177.715787
 30
0.0
 10
103.224161
 20
177.716845
 30
0.0
 10
127.693130
 20
177.713670
 30
0.0
 10
152.161954
 20
177.717375
 30
0.0
  0
SPLINE
  5
13c
100
AcDbEntity
  8
Layer_1
 62
3
100
AcDbSpline
 70
8
 71
3
 72
8
 73
4
 74
0
 40
0
 40
0
 40
0
 40
0
 40
1
 40
1
 40
1
 40
1
 10
152.161954
 20
177.717375
 30
0.0
 10
152.941664
 20
177.722031
 30
0.0
 10
153.619190
 20
178.436612
 30
0.0
 10
153.587107
 20
179.215041
 30
0.0
  0
SPLINE
  5
13d
100
AcDbEntity
  8
Layer_1
 62
3
100
AcDbSpline
 70
8
 71
3
 72
8
 73
4
 74
0
 40
0
 40
0
 40
0
 40
0
 40
1
 40
1
 40
1
 40
1
 10
153.587107
 20
179.215041
 30
0.0
 10
153.584461
 20
184.933910
 30
0.0
 10
153.592319
 20
190.653002
 30
0.0
 10
153.583217
 20
196.371730
 30
0.0
  0
SPLINE
  5
13e
100
AcDbEntity
  8
Layer_1
 62
3
100
AcDbSpline
 70
8
 71
3
 72
8
 73
4
 74
0
 40
0
 40
0
 40
0
 40
0
 40
1
 40
1
 40
1
 40
1
 10
153.583217
 20
196.371730
 30
0.0
 10
153.549586
 20
197.162357
 30
0.0
 10
152.831817
 20
197.838232
 30
0.0
 10
152.040963
 20
197.827215
 30
0.0
  0
LINE
  5
13f
100
AcDbEntity
  8
Layer_1
 62
3
100
AcDbLine
 10
152.040963
 20
197.827215
 30
0.0
 11
77.799592
 21
197.827215
 31
0.0
  0
LINE
  5
140
100
AcDbEntity
  8
Layer_1
 62
3
100
AcDbLine
 10
77.799592
 20
197.827215
 30
0.0
 11
77.773266
 21
197.824436
 31
0.0
  0
LINE
  5
141
100
AcDbEntity
  8
Layer_1
 62
3
100
AcDbLine
 10
77.773266
 20
197.824436
 30
0.0
 11
77.770128
 21
197.824095
 31
0.0
  0
SPLINE
  5
142
100
AcDbEntity
  8
Layer_1
 62
3
100
AcDbSpline
 70
8
 71
3
 72
8
 73
4
 74
0
 40
0
 40
0
 40
0
 40
0
 40
1
 40
1
 40
1
 40
1
 10
161.273970
 20
197.823579
 30
0.0
 10
160.742997
 20
197.804714
 30
0.0
 10
160.230357
 20
197.500031
 30
0.0
 10
159.975439
 20
197.031698
 30
0.0
  0
SPLINE
  5
143
100
AcDbEntity
  8
Layer_1
 62
3
100
AcDbSpline
 70
8
 71
3
 72
8
 73
4
 74
0
 40
0
 40
0
 40
0
 40
0
 40
1
 40
1
 40
1
 40
1
 10
159.975439
 20
197.031698
 30
0.0
 10
159.679887
 20
196.554510
 30
0.0
 10
159.786559
 20
195.972210
 30
0.0
 10
159.766570
 20
195.439644
 30
0.0
  0
SPLINE
  5
144
100
AcDbEntity
  8
Layer_1
 62
3
100
AcDbSpline
 70
8
 71
3
 72
8
 73
4
 74
0
 40
0
 40
0
 40
0
 40
0
 40
1
 40
1
 40
1
 40
1
 10
159.766570
 20
195.439644
 30
0.0
 10
159.768686
 20
190.025255
 30
0.0
 10
159.762442
 20
184.610439
 30
0.0
 10
159.769665
 20
179.196317
 30
0.0
  0
SPLINE
  5
145
100
AcDbEntity
  8
Layer_1
 62
3
100
AcDbSpline
 70
8
 71
3
 72
8
 73
4
 74
0
 40
0
 40
0
 40
0
 40
0
 40
1
 40
1
 40
1
 40
1
 10
159.769665
 20
179.196317
 30
0.0
 10
159.787683
 20
178.658197
 30
0.0
 10
160.108628
 20
178.146502
 30
0.0
 10
160.586152
 20
177.897172
 30
0.0
  0
SPLINE
  5
146
100
AcDbEntity
  8
Layer_1
 62
3
100
AcDbSpline
 70
8
 71
3
 72
8
 73
4
 74
0
 40
0
 40
0
 40
0
 40
0
 40
1
 40
1
 40
1
 40
1
 10
160.586152
 20
177.897172
 30
0.0
 10
161.073562
 20
177.628168
 30
0.0
 10
161.647419
 20
177.739007
 30
0.0
 10
162.179646
 20
177.715787
 30
0.0
  0
SPLINE
  5
147
100
AcDbEntity
  8
Layer_1
 62
3
100
AcDbSpline
 70
8
 71
3
 72
8
 73
4
 74
0
 40
0
 40
0
 40
0
 40
0
 40
1
 40
1
 40
1
 40
1
 10
162.179646
 20
177.715787
 30
0.0
 10
180.294882
 20
177.716845
 30
0.0
 10
198.410205
 20
177.713670
 30
0.0
 10
216.525391
 20
177.717375
 30
0.0
  0
SPLINE
  5
148
100
AcDbEntity
  8
Layer_1
 62
3
100
AcDbSpline
 70
8
 71
3
 72
8
 73
4
 74
0
 40
0
 40
0
 40
0
 40
0
 40
1
 40
1
 40
1
 40
1
 10
216.525391
 20
177.717375
 30
0.0
 10
217.300407
 20
177.722349
 30
0.0
 10
217.982053
 20
178.415995
 30
0.0
 10
217.976391
 20
179.190679
 30
0.0
  0
SPLINE
  5
149
100
AcDbEntity
  8
Layer_1
 62
3
100
AcDbSpline
 70
8
 71
3
 72
8
 73
4
 74
0
 40
0
 40
0
 40
0
 40
0
 40
1
 40
1
 40
1
 40
1
 10
217.976391
 20
179.190679
 30
0.0
 10
217.976391
 20
184.922629
 30
0.0
 10
217.980359
 20
190.654798
 30
0.0
 10
217.973745
 20
196.386663
 30
0.0
  0
SPLINE
  5
14a
100
AcDbEntity
  8
Layer_1
 62
3
100
AcDbSpline
 70
8
 71
3
 72
8
 73
4
 74
0
 40
0
 40
0
 40
0
 40
0
 40
1
 40
1
 40
1
 40
1
 10
217.973745
 20
196.386663
 30
0.0
 10
217.953636
 20
197.160547
 30
0.0
 10
217.257651
 20
197.832213
 30
0.0
 10
216.483693
 20
197.826728
 30
0.0
  0
SPLINE
  5
14b
100
AcDbEntity
  8
Layer_1
 62
3
100
AcDbSpline
 70
8
 71
3
 72
8
 73
4
 74
0
 40
0
 40
0
 40
0
 40
0
 40
1
 40
1
 40
1
 40
1
 10
216.483693
 20
197.826728
 30
0.0
 10
198.090353
 20
197.828051
 30
0.0
 10
179.696985
 20
197.826900
 30
0.0
 10
161.303646
 20
197.827257
 30
0.0
  0
LINE
  5
14c
100
AcDbEntity
  8
Layer_1
 62
3
100
AcDbLine
 10
161.303646
 20
197.827257
 30
0.0
 11
161.277373
 21
197.824082
 31
0.0
  0
LINE
  5
14d
100
AcDbEntity
  8
Layer_1
 62
3
100
AcDbLine
 10
161.277373
 20
197.824082
 30
0.0
 11
161.273970
 21
197.823579
 31
0.0
  0
SPLINE
  5
14e
100
AcDbEntity
  8
Layer_1
 62
3
100
AcDbSpline
 70
8
 71
3
 72
8
 73
4
 74
0
 40
0
 40
0
 40
0
 40
0
 40
1
 40
1
 40
1
 40
1
 10
-91.482579
 20
77.929221
 30
0.0
 10
-92.481955
 20
78.010513
 30
0.0
 10
-93.432175
 20
78.402919
 30
0.0
 10
-94.203289
 20
79.052774
 30
0.0
  0
LINE
  5
14f
100
AcDbEntity
  8
Layer_1
 62
3
100
AcDbLine
 10
-94.203289
 20
79.052774
 30
0.0
 11
-106.143455
 21
87.300265
 31
0.0
  0
SPLINE
  5
150
100
AcDbEntity
  8
Layer_1
 62
3
100
AcDbSpline
 70
8
 71
3
 72
8
 73
4
 74
0
 40
0
 40
0
 40
0
 40
0
 40
1
 40
1
 40
1
 40
1
 10
-106.143455
 20
87.300265
 30
0.0
 10
-107.055161
 20
87.930019
 30
0.0
 10
-107.793865
 20
89.347450
 30
0.0
 10
-107.793407
 20
90.466185
 30
0.0
  0
SPLINE
  5
151
100
AcDbEntity
  8
Layer_1
 62
3
100
AcDbSpline
 70
8
 71
3
 72
8
 73
4
 74
0
 40
0
 40
0
 40
0
 40
0
 40
1
 40
1
 40
1
 40
1
 10
-107.793407
 20
90.466185
 30
0.0
 10
-107.764403
 20
161.418211
 30
0.0
 10
-107.833486
 20
86.126823
 30
0.0
 10
-107.812443
 20
203.275547
 30
0.0
  0
SPLINE
  5
152
100
AcDbEntity
  8
Layer_1
 62
3
100
AcDbSpline
 70
8
 71
3
 72
8
 73
4
 74
0
 40
0
 40
0
 40
0
 40
0
 40
1
 40
1
 40
1
 40
1
 10
-107.812443
 20
203.275547
 30
0.0
 10
-107.812242
 20
204.394272
 30
0.0
 10
-107.101417
 20
205.851645
 30
0.0
 10
-106.224777
 20
206.530680
 30
0.0
  0
LINE
  5
153
100
AcDbEntity
  8
Layer_1
 62
3
100
AcDbLine
 10
-106.224777
 20
206.530680
 30
0.0
 11
-102.886243
 21
209.116666
 31
0.0
  0
SPLINE
  5
154
100
AcDbEntity
  8
Layer_1
 62
3
100
AcDbSpline
 70
8
 71
3
 72
8
 73
4
 74
0
 40
0
 40
0
 40
0
 40
0
 40
1
 40
1
 40
1
 40
1
 10
-102.886243
 20
209.116666
 30
0.0
 10
-101.856687
 20
209.914148
 30
0.0
 10
-100.597148
 20
210.346167
 30
0.0
 10
-99.301669
 20
210.346167
 30
0.0
  0
LINE
  5
155
100
AcDbEntity
  8
Layer_1
 62
3
100
AcDbLine
 10
-99.301669
 20
210.346167
 30
0.0
 11
226.870452
 21
210.346148
 31
0.0
  0
SPLINE
  5
156
100
AcDbEntity
  8
Layer_1
 62
3
100
AcDbSpline
 70
8
 71
3
 72
8
 73
4
 74
0
 40
0
 40
0
 40
0
 40
0
 40
1
 40
1
 40
1
 40
1
 10
226.870452
 20
210.346148
 30
0.0
 10
228.165929
 20
210.346146
 30
0.0
 10
229.425466
 20
209.914127
 30
0.0
 10
230.455020
 20
209.116646
 30
0.0
  0
LINE
  5
157
100
AcDbEntity
  8
Layer_1
 62
3
100
AcDbLine
 10
230.455020
 20
209.116646
 30
0.0
 11
233.793551
 21
206.530661
 31
0.0
  0
SPLINE
  5
158
100
AcDbEntity
  8
Layer_1
 62
3
100
AcDbSpline
 70
8
 71
3
 72
8
 73
4
 74
0
 40
0
 40
0
 40
0
 40
0
 40
1
 40
1
 40
1
 40
1
 10
233.793551
 20
206.530661
 30
0.0
 10
234.670193
 20
205.851626
 30
0.0
 10
235.381017
 20
204.394239
 30
0.0
 10
235.381219
 20
203.275497
 30
0.0
  0
SPLINE
  5
159
100
AcDbEntity
  8
Layer_1
 62
3
100
AcDbSpline
 70
8
 71
3
 72
8
 73
4
 74
0
 40
0
 40
0
 40
0
 40
0
 40
1
 40
1
 40
1
 40
1
 10
235.381219
 20
203.275497
 30
0.0
 10
235.402202
 20
86.126802
 30
0.0
 10
235.333200
 20
161.418211
 30
0.0
 10
235.362153
 20
90.466134
 30
0.0
  0
SPLINE
  5
15a
100
AcDbEntity
  8
Layer_1
 62
3
100
AcDbSpline
 70
8
 71
3
 72
8
 73
4
 74
0
 40
0
 40
0
 40
0
 40
0
 40
1
 40
1
 40
1
 40
1
 10
235.362153
 20
90.466134
 30
0.0
 10
235.362607
 20
89.347409
 30
0.0
 10
234.623909
 20
87.929999
 30
0.0
 10
233.712201
 20
87.300244
 30
0.0
  0
LINE
  5
15b
100
AcDbEntity
  8
Layer_1
 62
3
100
AcDbLine
 10
233.712201
 20
87.300244
 30
0.0
 11
221.772040
 21
79.052754
 31
0.0
  0
SPLINE
  5
15c
100
AcDbEntity
  8
Layer_1
 62
3
100
AcDbSpline
 70
8
 71
3
 72
8
 73
4
 74
0
 40
0
 40
0
 40
0
 40
0
 40
1
 40
1
 40
1
 40
1
 10
221.772040
 20
79.052754
 30
0.0
 10
220.697797
 20
78.310733
 30
0.0
 10
219.423776
 20
77.923380
 30
0.0
 10
218.124210
 20
77.943668
 30
0.0
  0
SPLINE
  5
15d
100
AcDbEntity
  8
Layer_1
 62
3
100
AcDbSpline
 70
8
 71
3
 72
8
 73
4
 74
0
 40
0
 40
0
 40
0
 40
0
 40
1
 40
1
 40
1
 40
1
 10
218.124210
 20
77.943668
 30
0.0
 10
217.101870
 20
77.957207
 30
0.0
 10
216.079442
 20
77.962766
 30
0.0
 10
215.057018
 20
77.960345
 30
0.0
  0
LINE
  5
15e
100
AcDbEntity
  8
Layer_1
 62
3
100
AcDbLine
 10
215.057018
 20
77.960345
 30
0.0
 11
-87.488265
 21
77.960365
 31
0.0
  0
SPLINE
  5
15f
100
AcDbEntity
  8
Layer_1
 62
3
100
AcDbSpline
 70
8
 71
3
 72
8
 73
4
 74
0
 40
0
 40
0
 40
0
 40
0
 40
1
 40
1
 40
1
 40
1
 10
-87.488265
 20
77.960365
 30
0.0
 10
-88.819763
 20
77.960356
 30
0.0
 10
-90.151242
 20
77.949954
 30
0.0
 10
-91.482583
 20
77.929159
 30
0.0
  0
LINE
  5
160
100
AcDbEntity
  8
Layer_1
 62
3
100
AcDbLine
 10
-91.482583
 20
77.929159
 30
0.0
 11
-91.482579
 21
77.929221
 31
0.0
  0
SPLINE
  5
161
100
AcDbEntity
  8
Layer_1
 62
3
100
AcDbSpline
 70
8
 71
3
 72
8
 73
4
 74
0
 40
0
 40
0
 40
0
 40
0
 40
1
 40
1
 40
1
 40
1
 10
-96.426024
 20
200.231382
 30
0.0
 10
-96.426024
 20
201.097214
 30
0.0
 10
-97.127857
 20
201.799023
 30
0.0
 10
-97.993652
 20
201.799023
 30
0.0
  0
SPLINE
  5
162
100
AcDbEntity
  8
Layer_1
 62
3
100
AcDbSpline
 70
8
 71
3
 72
8
 73
4
 74
0
 40
0
 40
0
 40
0
 40
0
 40
1
 40
1
 40
1
 40
1
 10
-97.993652
 20
201.799023
 30
0.0
 10
-98.859474
 20
201.799023
 30
0.0
 10
-99.561306
 20
201.097214
 30
0.0
 10
-99.561306
 20
200.231382
 30
0.0
  0
SPLINE
  5
163
100
AcDbEntity
  8
Layer_1
 62
3
100
AcDbSpline
 70
8
 71
3
 72
8
 73
4
 74
0
 40
0
 40
0
 40
0
 40
0
 40
1
 40
1
 40
1
 40
1
 10
-99.561306
 20
200.231382
 30
0.0
 10
-99.561306
 20
199.365550
 30
0.0
 10
-98.859474
 20
198.663741
 30
0.0
 10
-97.993652
 20
198.663741
 30
0.0
  0
SPLINE
  5
164
100
AcDbEntity
  8
Layer_1
 62
3
100
AcDbSpline
 70
8
 71
3
 72
8
 73
4
 74
0
 40
0
 40
0
 40
0
 40
0
 40
1
 40
1
 40
1
 40
1
 10
-97.993652
 20
198.663741
 30
0.0
 10
-97.127857
 20
198.663741
 30
0.0
 10
-96.426024
 20
199.365550
 30
0.0
 10
-96.426024
 20
200.231382
 30
0.0
  0
LINE
  5
165
100
AcDbEntity
  8
Layer_1
 62
3
100
AcDbLine
 10
-96.426024
 20
200.231382
 30
0.0
 11
-96.426024
 21
200.231382
 31
0.0
  0
SPLINE
  5
166
100
AcDbEntity
  8
Layer_1
 62
3
100
AcDbSpline
 70
8
 71
3
 72
8
 73
4
 74
0
 40
0
 40
0
 40
0
 40
0
 40
1
 40
1
 40
1
 40
1
 10
-8.452018
 20
203.706958
 30
0.0
 10
-8.452018
 20
204.572790
 30
0.0
 10
-9.153851
 20
205.274599
 30
0.0
 10
-10.019646
 20
205.274599
 30
0.0
  0
SPLINE
  5
167
100
AcDbEntity
  8
Layer_1
 62
3
100
AcDbSpline
 70
8
 71
3
 72
8
 73
4
 74
0
 40
0
 40
0
 40
0
 40
0
 40
1
 40
1
 40
1
 40
1
 10
-10.019646
 20
205.274599
 30
0.0
 10
-10.885467
 20
205.274599
 30
0.0
 10
-11.587300
 20
204.572790
 30
0.0
 10
-11.587300
 20
203.706958
 30
0.0
  0
SPLINE
  5
168
100
AcDbEntity
  8
Layer_1
 62
3
100
AcDbSpline
 70
8
 71
3
 72
8
 73
4
 74
0
 40
0
 40
0
 40
0
 40
0
 40
1
 40
1
 40
1
 40
1
 10
-11.587300
 20
203.706958
 30
0.0
 10
-11.587300
 20
202.841126
 30
0.0
 10
-10.885467
 20
202.139317
 30
0.0
 10
-10.019646
 20
202.139317
 30
0.0
  0
SPLINE
  5
169
100
AcDbEntity
  8
Layer_1
 62
3
100
AcDbSpline
 70
8
 71
3
 72
8
 73
4
 74
0
 40
0
 40
0
 40
0
 40
0
 40
1
 40
1
 40
1
 40
1
 10
-10.019646
 20
202.139317
 30
0.0
 10
-9.153851
 20
202.139317
 30
0.0
 10
-8.452018
 20
202.841126
 30
0.0
 10
-8.452018
 20
203.706958
 30
0.0
  0
LINE
  5
16a
100
AcDbEntity
  8
Layer_1
 62
3
100
AcDbLine
 10
-8.452018
 20
203.706958
 30
0.0
 11
-8.452018
 21
203.706958
 31
0.0
  0
SPLINE
  5
16b
100
AcDbEntity
  8
Layer_1
 62
3
100
AcDbSpline
 70
8
 71
3
 72
8
 73
4
 74
0
 40
0
 40
0
 40
0
 40
0
 40
1
 40
1
 40
1
 40
1
 10
-8.452018
 20
86.881922
 30
0.0
 10
-8.452018
 20
87.747754
 30
0.0
 10
-9.153851
 20
88.449563
 30
0.0
 10
-10.019646
 20
88.449563
 30
0.0
  0
SPLINE
  5
16c
100
AcDbEntity
  8
Layer_1
 62
3
100
AcDbSpline
 70
8
 71
3
 72
8
 73
4
 74
0
 40
0
 40
0
 40
0
 40
0
 40
1
 40
1
 40
1
 40
1
 10
-10.019646
 20
88.449563
 30
0.0
 10
-10.885467
 20
88.449563
 30
0.0
 10
-11.587300
 20
87.747754
 30
0.0
 10
-11.587300
 20
86.881922
 30
0.0
  0
SPLINE
  5
16d
100
AcDbEntity
  8
Layer_1
 62
3
100
AcDbSpline
 70
8
 71
3
 72
8
 73
4
 74
0
 40
0
 40
0
 40
0
 40
0
 40
1
 40
1
 40
1
 40
1
 10
-11.587300
 20
86.881922
 30
0.0
 10
-11.587300
 20
86.016090
 30
0.0
 10
-10.885467
 20
85.314281
 30
0.0
 10
-10.019646
 20
85.314281
 30
0.0
  0
SPLINE
  5
16e
100
AcDbEntity
  8
Layer_1
 62
3
100
AcDbSpline
 70
8
 71
3
 72
8
 73
4
 74
0
 40
0
 40
0
 40
0
 40
0
 40
1
 40
1
 40
1
 40
1
 10
-10.019646
 20
85.314281
 30
0.0
 10
-9.153851
 20
85.314281
 30
0.0
 10
-8.452018
 20
86.016090
 30
0.0
 10
-8.452018
 20
86.881922
 30
0.0
  0
LINE
  5
16f
100
AcDbEntity
  8
Layer_1
 62
3
100
AcDbLine
 10
-8.452018
 20
86.881922
 30
0.0
 11
-8.452018
 21
86.881922
 31
0.0
  0
SPLINE
  5
170
100
AcDbEntity
  8
Layer_1
 62
3
100
AcDbSpline
 70
8
 71
3
 72
8
 73
4
 74
0
 40
0
 40
0
 40
0
 40
0
 40
1
 40
1
 40
1
 40
1
 10
-96.427215
 20
174.655104
 30
0.0
 10
-96.427215
 20
175.520936
 30
0.0
 10
-97.129048
 20
176.222745
 30
0.0
 10
-97.994843
 20
176.222745
 30
0.0
  0
SPLINE
  5
171
100
AcDbEntity
  8
Layer_1
 62
3
100
AcDbSpline
 70
8
 71
3
 72
8
 73
4
 74
0
 40
0
 40
0
 40
0
 40
0
 40
1
 40
1
 40
1
 40
1
 10
-97.994843
 20
176.222745
 30
0.0
 10
-98.860664
 20
176.222745
 30
0.0
 10
-99.562497
 20
175.520936
 30
0.0
 10
-99.562497
 20
174.655104
 30
0.0
  0
SPLINE
  5
172
100
AcDbEntity
  8
Layer_1
 62
3
100
AcDbSpline
 70
8
 71
3
 72
8
 73
4
 74
0
 40
0
 40
0
 40
0
 40
0
 40
1
 40
1
 40
1
 40
1
 10
-99.562497
 20
174.655104
 30
0.0
 10
-99.562497
 20
173.789272
 30
0.0
 10
-98.860664
 20
173.087463
 30
0.0
 10
-97.994843
 20
173.087463
 30
0.0
  0
SPLINE
  5
173
100
AcDbEntity
  8
Layer_1
 62
3
100
AcDbSpline
 70
8
 71
3
 72
8
 73
4
 74
0
 40
0
 40
0
 40
0
 40
0
 40
1
 40
1
 40
1
 40
1
 10
-97.994843
 20
173.087463
 30
0.0
 10
-97.129048
 20
173.087463
 30
0.0
 10
-96.427215
 20
173.789272
 30
0.0
 10
-96.427215
 20
174.655104
 30
0.0
  0
LINE
  5
174
100
AcDbEntity
  8
Layer_1
 62
3
100
AcDbLine
 10
-96.427215
 20
174.655104
 30
0.0
 11
-96.427215
 21
174.655104
 31
0.0
  0
SPLINE
  5
175
100
AcDbEntity
  8
Layer_1
 62
3
100
AcDbSpline
 70
8
 71
3
 72
8
 73
4
 74
0
 40
0
 40
0
 40
0
 40
0
 40
1
 40
1
 40
1
 40
1
 10
-96.428168
 20
93.173751
 30
0.0
 10
-96.428168
 20
92.307903
 30
0.0
 10
-97.129974
 20
91.606083
 30
0.0
 10
-97.995822
 20
91.606083
 30
0.0
  0
SPLINE
  5
176
100
AcDbEntity
  8
Layer_1
 62
3
100
AcDbSpline
 70
8
 71
3
 72
8
 73
4
 74
0
 40
0
 40
0
 40
0
 40
0
 40
1
 40
1
 40
1
 40
1
 10
-97.995822
 20
91.606083
 30
0.0
 10
-98.861696
 20
91.606083
 30
0.0
 10
-99.563503
 20
92.307903
 30
0.0
 10
-99.563503
 20
93.173751
 30
0.0
  0
SPLINE
  5
177
100
AcDbEntity
  8
Layer_1
 62
3
100
AcDbSpline
 70
8
 71
3
 72
8
 73
4
 74
0
 40
0
 40
0
 40
0
 40
0
 40
1
 40
1
 40
1
 40
1
 10
-99.563503
 20
93.173751
 30
0.0
 10
-99.563503
 20
94.039598
 30
0.0
 10
-98.861696
 20
94.741418
 30
0.0
 10
-97.995822
 20
94.741418
 30
0.0
  0
SPLINE
  5
178
100
AcDbEntity
  8
Layer_1
 62
3
100
AcDbSpline
 70
8
 71
3
 72
8
 73
4
 74
0
 40
0
 40
0
 40
0
 40
0
 40
1
 40
1
 40
1
 40
1
 10
-97.995822
 20
94.741418
 30
0.0
 10
-97.129974
 20
94.741418
 30
0.0
 10
-96.428168
 20
94.039598
 30
0.0
 10
-96.428168
 20
93.173751
 30
0.0
  0
LINE
  5
179
100
AcDbEntity
  8
Layer_1
 62
3
100
AcDbLine
 10
-96.428168
 20
93.173751
 30
0.0
 11
-96.428168
 21
93.173751
 31
0.0
  0
SPLINE
  5
17a
100
AcDbEntity
  8
Layer_1
 62
3
100
AcDbSpline
 70
8
 71
3
 72
8
 73
4
 74
0
 40
0
 40
0
 40
0
 40
0
 40
1
 40
1
 40
1
 40
1
 10
224.351733
 20
200.260360
 30
0.0
 10
224.351733
 20
201.126192
 30
0.0
 10
225.053565
 20
201.828001
 30
0.0
 10
225.919360
 20
201.828001
 30
0.0
  0
SPLINE
  5
17b
100
AcDbEntity
  8
Layer_1
 62
3
100
AcDbSpline
 70
8
 71
3
 72
8
 73
4
 74
0
 40
0
 40
0
 40
0
 40
0
 40
1
 40
1
 40
1
 40
1
 10
225.919360
 20
201.828001
 30
0.0
 10
226.785182
 20
201.828001
 30
0.0
 10
227.487015
 20
201.126192
 30
0.0
 10
227.487015
 20
200.260360
 30
0.0
  0
SPLINE
  5
17c
100
AcDbEntity
  8
Layer_1
 62
3
100
AcDbSpline
 70
8
 71
3
 72
8
 73
4
 74
0
 40
0
 40
0
 40
0
 40
0
 40
1
 40
1
 40
1
 40
1
 10
227.487015
 20
200.260360
 30
0.0
 10
227.487015
 20
199.394528
 30
0.0
 10
226.785182
 20
198.692719
 30
0.0
 10
225.919360
 20
198.692719
 30
0.0
  0
SPLINE
  5
17d
100
AcDbEntity
  8
Layer_1
 62
3
100
AcDbSpline
 70
8
 71
3
 72
8
 73
4
 74
0
 40
0
 40
0
 40
0
 40
0
 40
1
 40
1
 40
1
 40
1
 10
225.919360
 20
198.692719
 30
0.0
 10
225.053565
 20
198.692719
 30
0.0
 10
224.351733
 20
199.394528
 30
0.0
 10
224.351733
 20
200.260360
 30
0.0
  0
LINE
  5
17e
100
AcDbEntity
  8
Layer_1
 62
3
100
AcDbLine
 10
224.351733
 20
200.260360
 30
0.0
 11
224.351733
 21
200.260360
 31
0.0
  0
SPLINE
  5
17f
100
AcDbEntity
  8
Layer_1
 62
3
100
AcDbSpline
 70
8
 71
3
 72
8
 73
4
 74
0
 40
0
 40
0
 40
0
 40
0
 40
1
 40
1
 40
1
 40
1
 10
136.377726
 20
203.706958
 30
0.0
 10
136.377726
 20
204.572790
 30
0.0
 10
137.079559
 20
205.274599
 30
0.0
 10
137.945354
 20
205.274599
 30
0.0
  0
SPLINE
  5
180
100
AcDbEntity
  8
Layer_1
 62
3
100
AcDbSpline
 70
8
 71
3
 72
8
 73
4
 74
0
 40
0
 40
0
 40
0
 40
0
 40
1
 40
1
 40
1
 40
1
 10
137.945354
 20
205.274599
 30
0.0
 10
138.811176
 20
205.274599
 30
0.0
 10
139.513008
 20
204.572790
 30
0.0
 10
139.513008
 20
203.706958
 30
0.0
  0
SPLINE
  5
181
100
AcDbEntity
  8
Layer_1
 62
3
100
AcDbSpline
 70
8
 71
3
 72
8
 73
4
 74
0
 40
0
 40
0
 40
0
 40
0
 40
1
 40
1
 40
1
 40
1
 10
139.513008
 20
203.706958
 30
0.0
 10
139.513008
 20
202.841126
 30
0.0
 10
138.811176
 20
202.139317
 30
0.0
 10
137.945354
 20
202.139317
 30
0.0
  0
SPLINE
  5
182
100
AcDbEntity
  8
Layer_1
 62
3
100
AcDbSpline
 70
8
 71
3
 72
8
 73
4
 74
0
 40
0
 40
0
 40
0
 40
0
 40
1
 40
1
 40
1
 40
1
 10
137.945354
 20
202.139317
 30
0.0
 10
137.079559
 20
202.139317
 30
0.0
 10
136.377726
 20
202.841126
 30
0.0
 10
136.377726
 20
203.706958
 30
0.0
  0
LINE
  5
183
100
AcDbEntity
  8
Layer_1
 62
3
100
AcDbLine
 10
136.377726
 20
203.706958
 30
0.0
 11
136.377726
 21
203.706958
 31
0.0
  0
SPLINE
  5
184
100
AcDbEntity
  8
Layer_1
 62
3
100
AcDbSpline
 70
8
 71
3
 72
8
 73
4
 74
0
 40
0
 40
0
 40
0
 40
0
 40
1
 40
1
 40
1
 40
1
 10
136.377726
 20
86.881922
 30
0.0
 10
136.377726
 20
87.747754
 30
0.0
 10
137.079559
 20
88.449563
 30
0.0
 10
137.945354
 20
88.449563
 30
0.0
  0
SPLINE
  5
185
100
AcDbEntity
  8
Layer_1
 62
3
100
AcDbSpline
 70
8
 71
3
 72
8
 73
4
 74
0
 40
0
 40
0
 40
0
 40
0
 40
1
 40
1
 40
1
 40
1
 10
137.945354
 20
88.449563
 30
0.0
 10
138.811176
 20
88.449563
 30
0.0
 10
139.513008
 20
87.747754
 30
0.0
 10
139.513008
 20
86.881922
 30
0.0
  0
SPLINE
  5
186
100
AcDbEntity
  8
Layer_1
 62
3
100
AcDbSpline
 70
8
 71
3
 72
8
 73
4
 74
0
 40
0
 40
0
 40
0
 40
0
 40
1
 40
1
 40
1
 40
1
 10
139.513008
 20
86.881922
 30
0.0
 10
139.513008
 20
86.016090
 30
0.0
 10
138.811176
 20
85.314281
 30
0.0
 10
137.945354
 20
85.314281
 30
0.0
  0
SPLINE
  5
187
100
AcDbEntity
  8
Layer_1
 62
3
100
AcDbSpline
 70
8
 71
3
 72
8
 73
4
 74
0
 40
0
 40
0
 40
0
 40
0
 40
1
 40
1
 40
1
 40
1
 10
137.945354
 20
85.314281
 30
0.0
 10
137.079559
 20
85.314281
 30
0.0
 10
136.377726
 20
86.016090
 30
0.0
 10
136.377726
 20
86.881922
 30
0.0
  0
LINE
  5
188
100
AcDbEntity
  8
Layer_1
 62
3
100
AcDbLine
 10
136.377726
 20
86.881922
 30
0.0
 11
136.377726
 21
86.881922
 31
0.0
  0
SPLINE
  5
189
100
AcDbEntity
  8
Layer_1
 62
3
100
AcDbSpline
 70
8
 71
3
 72
8
 73
4
 74
0
 40
0
 40
0
 40
0
 40
0
 40
1
 40
1
 40
1
 40
1
 10
224.350857
 20
174.655104
 30
0.0
 10
224.350857
 20
175.520936
 30
0.0
 10
225.052690
 20
176.222745
 30
0.0
 10
225.918485
 20
176.222745
 30
0.0
  0
SPLINE
  5
18a
100
AcDbEntity
  8
Layer_1
 62
3
100
AcDbSpline
 70
8
 71
3
 72
8
 73
4
 74
0
 40
0
 40
0
 40
0
 40
0
 40
1
 40
1
 40
1
 40
1
 10
225.918485
 20
176.222745
 30
0.0
 10
226.784306
 20
176.222745
 30
0.0
 10
227.486139
 20
175.520936
 30
0.0
 10
227.486139
 20
174.655104
 30
0.0
  0
SPLINE
  5
18b
100
AcDbEntity
  8
Layer_1
 62
3
100
AcDbSpline
 70
8
 71
3
 72
8
 73
4
 74
0
 40
0
 40
0
 40
0
 40
0
 40
1
 40
1
 40
1
 40
1
 10
227.486139
 20
174.655104
 30
0.0
 10
227.486139
 20
173.789272
 30
0.0
 10
226.784306
 20
173.087463
 30
0.0
 10
225.918485
 20
173.087463
 30
0.0
  0
SPLINE
  5
18c
100
AcDbEntity
  8
Layer_1
 62
3
100
AcDbSpline
 70
8
 71
3
 72
8
 73
4
 74
0
 40
0
 40
0
 40
0
 40
0
 40
1
 40
1
 40
1
 40
1
 10
225.918485
 20
173.087463
 30
0.0
 10
225.052690
 20
173.087463
 30
0.0
 10
224.350857
 20
173.789272
 30
0.0
 10
224.350857
 20
174.655104
 30
0.0
  0
LINE
  5
18d
100
AcDbEntity
  8
Layer_1
 62
3
100
AcDbLine
 10
224.350857
 20
174.655104
 30
0.0
 11
224.350857
 21
174.655104
 31
0.0
  0
SPLINE
  5
18e
100
AcDbEntity
  8
Layer_1
 62
3
100
AcDbSpline
 70
8
 71
3
 72
8
 73
4
 74
0
 40
0
 40
0
 40
0
 40
0
 40
1
 40
1
 40
1
 40
1
 10
224.351809
 20
93.173751
 30
0.0
 10
224.351809
 20
92.307903
 30
0.0
 10
225.053616
 20
91.606083
 30
0.0
 10
225.919464
 20
91.606083
 30
0.0
  0
SPLINE
  5
18f
100
AcDbEntity
  8
Layer_1
 62
3
100
AcDbSpline
 70
8
 71
3
 72
8
 73
4
 74
0
 40
0
 40
0
 40
0
 40
0
 40
1
 40
1
 40
1
 40
1
 10
225.919464
 20
91.606083
 30
0.0
 10
226.785338
 20
91.606083
 30
0.0
 10
227.487144
 20
92.307903
 30
0.0
 10
227.487144
 20
93.173751
 30
0.0
  0
SPLINE
  5
190
100
AcDbEntity
  8
Layer_1
 62
3
100
AcDbSpline
 70
8
 71
3
 72
8
 73
4
 74
0
 40
0
 40
0
 40
0
 40
0
 40
1
 40
1
 40
1
 40
1
 10
227.487144
 20
93.173751
 30
0.0
 10
227.487144
 20
94.039598
 30
0.0
 10
226.785338
 20
94.741418
 30
0.0
 10
225.919464
 20
94.741418
 30
0.0
  0
SPLINE
  5
191
100
AcDbEntity
  8
Layer_1
 62
3
100
AcDbSpline
 70
8
 71
3
 72
8
 73
4
 74
0
 40
0
 40
0
 40
0
 40
0
 40
1
 40
1
 40
1
 40
1
 10
225.919464
 20
94.741418
 30
0.0
 10
225.053616
 20
94.741418
 30
0.0
 10
224.351809
 20
94.039598
 30
0.0
 10
224.351809
 20
93.173751
 30
0.0
  0
LINE
  5
192
100
AcDbEntity
  8
Layer_1
 62
3
100
AcDbLine
 10
224.351809
 20
93.173751
 30
0.0
 11
224.351809
 21
93.173751
 31
0.0
  0
SPLINE
  5
193
100
AcDbEntity
  8
Layer_1
 62
3
100
AcDbSpline
 70
8
 71
3
 72
8
 73
4
 74
0
 40
0
 40
0
 40
0
 40
0
 40
1
 40
1
 40
1
 40
1
 10
-69.730970
 20
201.820604
 30
0.0
 10
-69.730970
 20
202.195732
 30
0.0
 10
-69.931099
 20
202.542366
 30
0.0
 10
-70.255970
 20
202.729930
 30
0.0
  0
SPLINE
  5
194
100
AcDbEntity
  8
Layer_1
 62
3
100
AcDbSpline
 70
8
 71
3
 72
8
 73
4
 74
0
 40
0
 40
0
 40
0
 40
0
 40
1
 40
1
 40
1
 40
1
 10
-70.255970
 20
202.729930
 30
0.0
 10
-70.580841
 20
202.917495
 30
0.0
 10
-70.981099
 20
202.917495
 30
0.0
 10
-71.305970
 20
202.729930
 30
0.0
  0
SPLINE
  5
195
100
AcDbEntity
  8
Layer_1
 62
3
100
AcDbSpline
 70
8
 71
3
 72
8
 73
4
 74
0
 40
0
 40
0
 40
0
 40
0
 40
1
 40
1
 40
1
 40
1
 10
-71.305970
 20
202.729930
 30
0.0
 10
-71.630841
 20
202.542366
 30
0.0
 10
-71.830970
 20
202.195732
 30
0.0
 10
-71.830970
 20
201.820604
 30
0.0
  0
SPLINE
  5
196
100
AcDbEntity
  8
Layer_1
 62
3
100
AcDbSpline
 70
8
 71
3
 72
8
 73
4
 74
0
 40
0
 40
0
 40
0
 40
0
 40
1
 40
1
 40
1
 40
1
 10
-71.830970
 20
201.820604
 30
0.0
 10
-71.830970
 20
201.445475
 30
0.0
 10
-71.630841
 20
201.098841
 30
0.0
 10
-71.305970
 20
200.911277
 30
0.0
  0
SPLINE
  5
197
100
AcDbEntity
  8
Layer_1
 62
3
100
AcDbSpline
 70
8
 71
3
 72
8
 73
4
 74
0
 40
0
 40
0
 40
0
 40
0
 40
1
 40
1
 40
1
 40
1
 10
-71.305970
 20
200.911277
 30
0.0
 10
-70.981099
 20
200.723713
 30
0.0
 10
-70.580841
 20
200.723713
 30
0.0
 10
-70.255970
 20
200.911277
 30
0.0
  0
SPLINE
  5
198
100
AcDbEntity
  8
Layer_1
 62
3
100
AcDbSpline
 70
8
 71
3
 72
8
 73
4
 74
0
 40
0
 40
0
 40
0
 40
0
 40
1
 40
1
 40
1
 40
1
 10
-70.255970
 20
200.911277
 30
0.0
 10
-69.931099
 20
201.098841
 30
0.0
 10
-69.730970
 20
201.445475
 30
0.0
 10
-69.730970
 20
201.820604
 30
0.0
  0
LINE
  5
199
100
AcDbEntity
  8
Layer_1
 62
3
100
AcDbLine
 10
-69.730970
 20
201.820604
 30
0.0
 11
-69.730970
 21
201.820604
 31
0.0
  0
SPLINE
  5
19a
100
AcDbEntity
  8
Layer_1
 62
3
100
AcDbSpline
 70
8
 71
3
 72
8
 73
4
 74
0
 40
0
 40
0
 40
0
 40
0
 40
1
 40
1
 40
1
 40
1
 10
-69.730970
 20
90.282617
 30
0.0
 10
-69.730970
 20
89.907488
 30
0.0
 10
-69.931099
 20
89.560855
 30
0.0
 10
-70.255970
 20
89.373291
 30
0.0
  0
SPLINE
  5
19b
100
AcDbEntity
  8
Layer_1
 62
3
100
AcDbSpline
 70
8
 71
3
 72
8
 73
4
 74
0
 40
0
 40
0
 40
0
 40
0
 40
1
 40
1
 40
1
 40
1
 10
-70.255970
 20
89.373291
 30
0.0
 10
-70.580841
 20
89.185726
 30
0.0
 10
-70.981099
 20
89.185726
 30
0.0
 10
-71.305970
 20
89.373291
 30
0.0
  0
SPLINE
  5
19c
100
AcDbEntity
  8
Layer_1
 62
3
100
AcDbSpline
 70
8
 71
3
 72
8
 73
4
 74
0
 40
0
 40
0
 40
0
 40
0
 40
1
 40
1
 40
1
 40
1
 10
-71.305970
 20
89.373291
 30
0.0
 10
-71.630841
 20
89.560855
 30
0.0
 10
-71.830970
 20
89.907488
 30
0.0
 10
-71.830970
 20
90.282617
 30
0.0
  0
SPLINE
  5
19d
100
AcDbEntity
  8
Layer_1
 62
3
100
AcDbSpline
 70
8
 71
3
 72
8
 73
4
 74
0
 40
0
 40
0
 40
0
 40
0
 40
1
 40
1
 40
1
 40
1
 10
-71.830970
 20
90.282617
 30
0.0
 10
-71.830970
 20
90.657746
 30
0.0
 10
-71.630841
 20
91.004379
 30
0.0
 10
-71.305970
 20
91.191944
 30
0.0
  0
SPLINE
  5
19e
100
AcDbEntity
  8
Layer_1
 62
3
100
AcDbSpline
 70
8
 71
3
 72
8
 73
4
 74
0
 40
0
 40
0
 40
0
 40
0
 40
1
 40
1
 40
1
 40
1
 10
-71.305970
 20
91.191944
 30
0.0
 10
-70.981099
 20
91.379508
 30
0.0
 10
-70.580841
 20
91.379508
 30
0.0
 10
-70.255970
 20
91.191944
 30
0.0
  0
SPLINE
  5
19f
100
AcDbEntity
  8
Layer_1
 62
3
100
AcDbSpline
 70
8
 71
3
 72
8
 73
4
 74
0
 40
0
 40
0
 40
0
 40
0
 40
1
 40
1
 40
1
 40
1
 10
-70.255970
 20
91.191944
 30
0.0
 10
-69.931099
 20
91.004379
 30
0.0
 10
-69.730970
 20
90.657746
 30
0.0
 10
-69.730970
 20
90.282617
 30
0.0
  0
LINE
  5
1a0
100
AcDbEntity
  8
Layer_1
 62
3
100
AcDbLine
 10
-69.730970
 20
90.282617
 30
0.0
 11
-69.730970
 21
90.282617
 31
0.0
  0
SPLINE
  5
1a1
100
AcDbEntity
  8
Layer_1
 62
3
100
AcDbSpline
 70
8
 71
3
 72
8
 73
4
 74
0
 40
0
 40
0
 40
0
 40
0
 40
1
 40
1
 40
1
 40
1
 10
64.762823
 20
90.282617
 30
0.0
 10
64.762258
 20
89.703119
 30
0.0
 10
64.292323
 20
89.233642
 30
0.0
 10
63.712824
 20
89.233642
 30
0.0
  0
SPLINE
  5
1a2
100
AcDbEntity
  8
Layer_1
 62
3
100
AcDbSpline
 70
8
 71
3
 72
8
 73
4
 74
0
 40
0
 40
0
 40
0
 40
0
 40
1
 40
1
 40
1
 40
1
 10
63.712824
 20
89.233642
 30
0.0
 10
63.133325
 20
89.233642
 30
0.0
 10
62.663390
 20
89.703119
 30
0.0
 10
62.662825
 20
90.282617
 30
0.0
  0
SPLINE
  5
1a3
100
AcDbEntity
  8
Layer_1
 62
3
100
AcDbSpline
 70
8
 71
3
 72
8
 73
4
 74
0
 40
0
 40
0
 40
0
 40
0
 40
1
 40
1
 40
1
 40
1
 10
62.662825
 20
90.282617
 30
0.0
 10
62.663390
 20
90.862116
 30
0.0
 10
63.133325
 20
91.331592
 30
0.0
 10
63.712824
 20
91.331592
 30
0.0
  0
SPLINE
  5
1a4
100
AcDbEntity
  8
Layer_1
 62
3
100
AcDbSpline
 70
8
 71
3
 72
8
 73
4
 74
0
 40
0
 40
0
 40
0
 40
0
 40
1
 40
1
 40
1
 40
1
 10
63.712824
 20
91.331592
 30
0.0
 10
64.292323
 20
91.331592
 30
0.0
 10
64.762258
 20
90.862116
 30
0.0
 10
64.762823
 20
90.282617
 30
0.0
  0
LINE
  5
1a5
100
AcDbEntity
  8
Layer_1
 62
3
100
AcDbLine
 10
64.762823
 20
90.282617
 30
0.0
 11
64.762823
 21
90.282617
 31
0.0
  0
SPLINE
  5
1a6
100
AcDbEntity
  8
Layer_1
 62
3
100
AcDbSpline
 70
8
 71
3
 72
8
 73
4
 74
0
 40
0
 40
0
 40
0
 40
0
 40
1
 40
1
 40
1
 40
1
 10
64.762823
 20
201.822152
 30
0.0
 10
64.762258
 20
202.401650
 30
0.0
 10
64.292323
 20
202.871127
 30
0.0
 10
63.712824
 20
202.871127
 30
0.0
  0
SPLINE
  5
1a7
100
AcDbEntity
  8
Layer_1
 62
3
100
AcDbSpline
 70
8
 71
3
 72
8
 73
4
 74
0
 40
0
 40
0
 40
0
 40
0
 40
1
 40
1
 40
1
 40
1
 10
63.712824
 20
202.871127
 30
0.0
 10
63.133325
 20
202.871127
 30
0.0
 10
62.663390
 20
202.401650
 30
0.0
 10
62.662825
 20
201.822152
 30
0.0
  0
SPLINE
  5
1a8
100
AcDbEntity
  8
Layer_1
 62
3
100
AcDbSpline
 70
8
 71
3
 72
8
 73
4
 74
0
 40
0
 40
0
 40
0
 40
0
 40
1
 40
1
 40
1
 40
1
 10
62.662825
 20
201.822152
 30
0.0
 10
62.663390
 20
201.242653
 30
0.0
 10
63.133325
 20
200.773176
 30
0.0
 10
63.712824
 20
200.773176
 30
0.0
  0
SPLINE
  5
1a9
100
AcDbEntity
  8
Layer_1
 62
3
100
AcDbSpline
 70
8
 71
3
 72
8
 73
4
 74
0
 40
0
 40
0
 40
0
 40
0
 40
1
 40
1
 40
1
 40
1
 10
63.712824
 20
200.773176
 30
0.0
 10
64.292323
 20
200.773176
 30
0.0
 10
64.762258
 20
201.242653
 30
0.0
 10
64.762823
 20
201.822152
 30
0.0
  0
LINE
  5
1aa
100
AcDbEntity
  8
Layer_1
 62
3
100
AcDbLine
 10
64.762823
 20
201.822152
 30
0.0
 11
64.762823
 21
201.822152
 31
0.0
  0
SPLINE
  5
1ab
100
AcDbEntity
  8
Layer_1
 62
3
100
AcDbSpline
 70
8
 71
3
 72
8
 73
4
 74
0
 40
0
 40
0
 40
0
 40
0
 40
1
 40
1
 40
1
 40
1
 10
199.422131
 20
201.822141
 30
0.0
 10
199.421565
 20
202.401639
 30
0.0
 10
198.951630
 20
202.871116
 30
0.0
 10
198.372131
 20
202.871116
 30
0.0
  0
SPLINE
  5
1ac
100
AcDbEntity
  8
Layer_1
 62
3
100
AcDbSpline
 70
8
 71
3
 72
8
 73
4
 74
0
 40
0
 40
0
 40
0
 40
0
 40
1
 40
1
 40
1
 40
1
 10
198.372131
 20
202.871116
 30
0.0
 10
197.792633
 20
202.871116
 30
0.0
 10
197.322697
 20
202.401639
 30
0.0
 10
197.322132
 20
201.822141
 30
0.0
  0
SPLINE
  5
1ad
100
AcDbEntity
  8
Layer_1
 62
3
100
AcDbSpline
 70
8
 71
3
 72
8
 73
4
 74
0
 40
0
 40
0
 40
0
 40
0
 40
1
 40
1
 40
1
 40
1
 10
197.322132
 20
201.822141
 30
0.0
 10
197.322697
 20
201.242642
 30
0.0
 10
197.792633
 20
200.773165
 30
0.0
 10
198.372131
 20
200.773165
 30
0.0
  0
SPLINE
  5
1ae
100
AcDbEntity
  8
Layer_1
 62
3
100
AcDbSpline
 70
8
 71
3
 72
8
 73
4
 74
0
 40
0
 40
0
 40
0
 40
0
 40
1
 40
1
 40
1
 40
1
 10
198.372131
 20
200.773165
 30
0.0
 10
198.951630
 20
200.773165
 30
0.0
 10
199.421565
 20
201.242642
 30
0.0
 10
199.422131
 20
201.822141
 30
0.0
  0
LINE
  5
1af
100
AcDbEntity
  8
Layer_1
 62
3
100
AcDbLine
 10
199.422131
 20
201.822141
 30
0.0
 11
199.422131
 21
201.822141
 31
0.0
  0
SPLINE
  5
1b0
100
AcDbEntity
  8
Layer_1
 62
3
100
AcDbSpline
 70
8
 71
3
 72
8
 73
4
 74
0
 40
0
 40
0
 40
0
 40
0
 40
1
 40
1
 40
1
 40
1
 10
199.409031
 20
90.282107
 30
0.0
 10
199.408465
 20
89.702609
 30
0.0
 10
198.938530
 20
89.233132
 30
0.0
 10
198.359031
 20
89.233132
 30
0.0
  0
SPLINE
  5
1b1
100
AcDbEntity
  8
Layer_1
 62
3
100
AcDbSpline
 70
8
 71
3
 72
8
 73
4
 74
0
 40
0
 40
0
 40
0
 40
0
 40
1
 40
1
 40
1
 40
1
 10
198.359031
 20
89.233132
 30
0.0
 10
197.779533
 20
89.233132
 30
0.0
 10
197.309597
 20
89.702609
 30
0.0
 10
197.309032
 20
90.282107
 30
0.0
  0
SPLINE
  5
1b2
100
AcDbEntity
  8
Layer_1
 62
3
100
AcDbSpline
 70
8
 71
3
 72
8
 73
4
 74
0
 40
0
 40
0
 40
0
 40
0
 40
1
 40
1
 40
1
 40
1
 10
197.309032
 20
90.282107
 30
0.0
 10
197.309597
 20
90.861606
 30
0.0
 10
197.779533
 20
91.331082
 30
0.0
 10
198.359031
 20
91.331082
 30
0.0
  0
SPLINE
  5
1b3
100
AcDbEntity
  8
Layer_1
 62
3
100
AcDbSpline
 70
8
 71
3
 72
8
 73
4
 74
0
 40
0
 40
0
 40
0
 40
0
 40
1
 40
1
 40
1
 40
1
 10
198.359031
 20
91.331082
 30
0.0
 10
198.938530
 20
91.331082
 30
0.0
 10
199.408465
 20
90.861606
 30
0.0
 10
199.409031
 20
90.282107
 30
0.0
  0
LINE
  5
1b4
100
AcDbEntity
  8
Layer_1
 62
3
100
AcDbLine
 10
199.409031
 20
90.282107
 30
0.0
 11
199.409031
 21
90.282107
 31
0.0
  0
ENDSEC
  0
SECTION
  2
OBJECTS
  0
DICTIONARY
  5
C
330
0
100
AcDbDictionary
  3
ACAD_GROUP
350
D
  3
ACAD_MLINESTYLE
350
17
  0
DICTIONARY
  5
D
330
C
100
AcDbDictionary
  0
DICTIONARY
  5
1A
330
C
100
AcDbDictionary
  0
DICTIONARY
  5
17
330
C
100
AcDbDictionary
  3
STANDARD
350
18
  0
DICTIONARY
  5
19
330
C
100
AcDbDictionary
  0
ENDSEC
  0
EOF
