  0
SECTION
  2
HEADER
  9
$ACADVER
  1
AC1014
  9
$HANDSEED
  5
FFFF
  9
$INSUNITS
 70
     0
  9
$MEASUREMENT
 70
     1
  0
ENDSEC
  0
SECTION
  2
TABLES
  0
TABLE
  2
VPORT
  5
8
330
0
100
AcDbSymbolTable
 70
     4
  0
VPORT
  5
2E
330
8
100
AcDbSymbolTableRecord
100
AcDbViewportTableRecord
  2
*ACTIVE
 70
     0
 10
0.0
 20
0.0
 11
1.0
 21
1.0
 12
210.0
 22
148.5
 13
0.0
 23
0.0
 14
10.0
 24
10.0
 15
10.0
 25
10.0
 16
0.0
 26
0.0
 36
1.0
 17
0.0
 27
0.0
 37
0.0
 40
341.0
 41
1.24
 42
50.0
 43
0.0
 44
0.0
 50
0.0
 51
0.0
 71
     0
 72
   100
 73
     1
 74
     3
 75
     0
 76
     0
 77
     0
 78
     0
  0
ENDTAB
  0
TABLE
  2
LTYPE
  5
5
330
0
100
AcDbSymbolTable
 70
     1
  0
LTYPE
  5
14
330
5
100
AcDbSymbolTableRecord
100
AcDbLinetypeTableRecord
  2
BYBLOCK
 70
     0
  3

 72
    65
 73
     0
 40
0.0
  0
LTYPE
  5
15
330
5
100
AcDbSymbolTableRecord
100
AcDbLinetypeTableRecord
  2
BYLAYER
 70
     0
  3

 72
    65
 73
     0
 40
0.0
  0
LTYPE
  5
16
330
5
100
AcDbSymbolTableRecord
100
AcDbLinetypeTableRecord
  2
CONTINUOUS
 70
     0
  3
Solid line
 72
    65
 73
     0
 40
0.0
  0
ENDTAB
  0
TABLE
  2
LAYER
  5
2
100
AcDbSymbolTable
 70
2
  0
LAYER
  5
50
100
AcDbSymbolTableRecord
100
AcDbLayerTableRecord
  2
0
 70
0
  6
CONTINUOUS
  0
LAYER
  5
51
100
AcDbSymbolTableRecord
100
AcDbLayerTableRecord
  2
Layer_1
 70
0
  6
CONTINUOUS
  0
ENDTAB
  0
TABLE
  2
STYLE
  5
3
330
0
100
AcDbSymbolTable
 70
     1
  0
STYLE
  5
11
330
3
100
AcDbSymbolTableRecord
100
AcDbTextStyleTableRecord
  2
STANDARD
 70
     0
 40
0.0
 41
1.0
 50
0.0
 71
     0
 42
2.5
  3
txt
  4

  0
ENDTAB
  0
TABLE
  2
VIEW
  5
6
330
0
100
AcDbSymbolTable
 70
     0
  0
ENDTAB
  0
TABLE
  2
UCS
  5
7
330
0
100
AcDbSymbolTable
 70
     0
  0
ENDTAB
  0
TABLE
  2
APPID
  5
9
330
0
100
AcDbSymbolTable
 70
     2
  0
APPID
  5
12
330
9
100
AcDbSymbolTableRecord
100
AcDbRegAppTableRecord
  2
ACAD
 70
     0
  0
ENDTAB
  0
TABLE
  2
DIMSTYLE
  5
A
330
0
100
AcDbSymbolTable
 70
     1
  0
DIMSTYLE
105
27
330
A
100
AcDbSymbolTableRecord
100
AcDbDimStyleTableRecord
  2
ISO-25
 70
     0
  3

  4

  5

  6

  7

 40
1.0
 41
2.5
 42
0.625
 43
3.75
 44
1.25
 45
0.0
 46
0.0
 47
0.0
 48
0.0
140
2.5
141
2.5
142
0.0
143
0.03937007874016
144
1.0
145
0.0
146
1.0
147
0.625
 71
     0
 72
     0
 73
     0
 74
     0
 75
     0
 76
     0
 77
     1
 78
     8
170
     0
171
     3
172
     1
173
     0
174
     0
175
     0
176
     0
177
     0
178
     0
270
     2
271
     2
272
     2
273
     2
274
     3
340
11
275
     0
280
     0
281
     0
282
     0
283
     0
284
     8
285
     0
286
     0
287
     3
288
     0
  0
ENDTAB
  0
TABLE
  2
BLOCK_RECORD
  5
1
330
0
100
AcDbSymbolTable
 70
     1
  0
BLOCK_RECORD
  5
1F
330
1
100
AcDbSymbolTableRecord
100
AcDbBlockTableRecord
  2
*MODEL_SPACE
  0
BLOCK_RECORD
  5
1B
330
1
100
AcDbSymbolTableRecord
100
AcDbBlockTableRecord
  2
*PAPER_SPACE
  0
ENDTAB
  0
ENDSEC
  0
SECTION
  2
BLOCKS
  0
BLOCK
  5
20
330
1F
100
AcDbEntity
  8
0
100
AcDbBlockBegin
  2
*MODEL_SPACE
 70
     0
 10
0.0
 20
0.0
 30
0.0
  3
*MODEL_SPACE
  1

  0
ENDBLK
  5
21
330
1F
100
AcDbEntity
  8
0
100
AcDbBlockEnd
  0
BLOCK
  5
1C
330
1B
100
AcDbEntity
 67
     1
  8
0
100
AcDbBlockBegin
  2
*PAPER_SPACE
  1

  0
ENDBLK
  5
1D
330
1B
100
AcDbEntity
 67
     1
  8
0
100
AcDbBlockEnd
  0
ENDSEC
  0
SECTION
  2
ENTITIES
  0
SPLINE
  5
100
100
AcDbEntity
  8
Layer_1
 62
3
100
AcDbSpline
 70
8
 71
3
 72
8
 73
4
 74
0
 40
0
 40
0
 40
0
 40
0
 40
1
 40
1
 40
1
 40
1
 10
15.172531
 20
198.784929
 30
0.0
 10
14.643056
 20
198.767175
 30
0.0
 10
14.139390
 20
198.450906
 30
0.0
 10
13.894058
 20
197.981361
 30
0.0
  0
SPLINE
  5
101
100
AcDbEntity
  8
Layer_1
 62
3
100
AcDbSpline
 70
8
 71
3
 72
8
 73
4
 74
0
 40
0
 40
0
 40
0
 40
0
 40
1
 40
1
 40
1
 40
1
 10
13.894058
 20
197.981361
 30
0.0
 10
13.626795
 20
197.497264
 30
0.0
 10
13.739261
 20
196.927130
 30
0.0
 10
13.715258
 20
196.398721
 30
0.0
  0
SPLINE
  5
102
100
AcDbEntity
  8
Layer_1
 62
3
100
AcDbSpline
 70
8
 71
3
 72
8
 73
4
 74
0
 40
0
 40
0
 40
0
 40
0
 40
1
 40
1
 40
1
 40
1
 10
13.715258
 20
196.398721
 30
0.0
 10
13.716581
 20
178.346323
 30
0.0
 10
13.716317
 20
160.299127
 30
0.0
 10
13.715258
 20
142.246661
 30
0.0
  0
SPLINE
  5
103
100
AcDbEntity
  8
Layer_1
 62
3
100
AcDbSpline
 70
8
 71
3
 72
8
 73
4
 74
0
 40
0
 40
0
 40
0
 40
0
 40
1
 40
1
 40
1
 40
1
 10
13.715258
 20
142.246661
 30
0.0
 10
13.717640
 20
135.818088
 30
0.0
 10
13.710443
 20
129.388933
 30
0.0
 10
13.718883
 20
122.960730
 30
0.0
  0
SPLINE
  5
104
100
AcDbEntity
  8
Layer_1
 62
3
100
AcDbSpline
 70
8
 71
3
 72
8
 73
4
 74
0
 40
0
 40
0
 40
0
 40
0
 40
1
 40
1
 40
1
 40
1
 10
13.718883
 20
122.960730
 30
0.0
 10
13.736848
 20
122.441009
 30
0.0
 10
14.046805
 20
121.946133
 30
0.0
 10
14.508499
 20
121.706024
 30
0.0
  0
SPLINE
  5
105
100
AcDbEntity
  8
Layer_1
 62
3
100
AcDbSpline
 70
8
 71
3
 72
8
 73
4
 74
0
 40
0
 40
0
 40
0
 40
0
 40
1
 40
1
 40
1
 40
1
 10
14.508499
 20
121.706024
 30
0.0
 10
14.988961
 20
121.441388
 30
0.0
 10
15.555023
 20
121.554180
 30
0.0
 10
16.079255
 20
121.529812
 30
0.0
  0
LINE
  5
106
100
AcDbEntity
  8
Layer_1
 62
3
100
AcDbLine
 10
16.079255
 20
121.529812
 30
0.0
 11
256.155450
 21
121.529812
 31
0.0
  0
SPLINE
  5
107
100
AcDbEntity
  8
Layer_1
 62
3
100
AcDbSpline
 70
8
 71
3
 72
8
 73
4
 74
0
 40
0
 40
0
 40
0
 40
0
 40
1
 40
1
 40
1
 40
1
 10
256.155450
 20
121.529812
 30
0.0
 10
256.945521
 20
121.523462
 30
0.0
 10
257.653889
 20
122.216961
 30
0.0
 10
257.661536
 20
123.007402
 30
0.0
  0
SPLINE
  5
108
100
AcDbEntity
  8
Layer_1
 62
3
100
AcDbSpline
 70
8
 71
3
 72
8
 73
4
 74
0
 40
0
 40
0
 40
0
 40
0
 40
1
 40
1
 40
1
 40
1
 10
257.661536
 20
123.007402
 30
0.0
 10
257.665769
 20
147.760597
 30
0.0
 10
257.661536
 20
172.513948
 30
0.0
 10
257.664182
 20
197.267206
 30
0.0
  0
SPLINE
  5
109
100
AcDbEntity
  8
Layer_1
 62
3
100
AcDbSpline
 70
8
 71
3
 72
8
 73
4
 74
0
 40
0
 40
0
 40
0
 40
0
 40
1
 40
1
 40
1
 40
1
 10
257.664182
 20
197.267206
 30
0.0
 10
257.650159
 20
197.702096
 30
0.0
 10
257.457013
 20
198.126265
 30
0.0
 10
257.124697
 20
198.409771
 30
0.0
  0
SPLINE
  5
10a
100
AcDbEntity
  8
Layer_1
 62
3
100
AcDbSpline
 70
8
 71
3
 72
8
 73
4
 74
0
 40
0
 40
0
 40
0
 40
0
 40
1
 40
1
 40
1
 40
1
 10
257.124697
 20
198.409771
 30
0.0
 10
256.793465
 20
198.705654
 30
0.0
 10
256.338277
 20
198.813620
 30
0.0
 10
255.901715
 20
198.787524
 30
0.0
  0
SPLINE
  5
10b
100
AcDbEntity
  8
Layer_1
 62
3
100
AcDbSpline
 70
8
 71
3
 72
8
 73
4
 74
0
 40
0
 40
0
 40
0
 40
0
 40
1
 40
1
 40
1
 40
1
 10
255.901715
 20
198.787524
 30
0.0
 10
175.668754
 20
198.787527
 30
0.0
 10
95.435785
 20
198.787524
 30
0.0
 10
15.202815
 20
198.787527
 30
0.0
  0
LINE
  5
10c
100
AcDbEntity
  8
Layer_1
 62
3
100
AcDbLine
 10
15.202815
 20
198.787527
 30
0.0
 11
15.176516
 21
198.784749
 31
0.0
  0
LINE
  5
10d
100
AcDbEntity
  8
Layer_1
 62
3
100
AcDbLine
 10
15.176516
 20
198.784749
 30
0.0
 11
15.172531
 21
198.784929
 31
0.0
  0
SPLINE
  5
10e
100
AcDbEntity
  8
Layer_1
 62
3
100
AcDbSpline
 70
8
 71
3
 72
8
 73
4
 74
0
 40
0
 40
0
 40
0
 40
0
 40
1
 40
1
 40
1
 40
1
 10
-49.209501
 20
198.784929
 30
0.0
 10
-49.741643
 20
198.767837
 30
0.0
 10
-50.247692
 20
198.449990
 30
0.0
 10
-50.493659
 20
197.977744
 30
0.0
  0
SPLINE
  5
10f
100
AcDbEntity
  8
Layer_1
 62
3
100
AcDbSpline
 70
8
 71
3
 72
8
 73
4
 74
0
 40
0
 40
0
 40
0
 40
0
 40
1
 40
1
 40
1
 40
1
 10
-50.493659
 20
197.977744
 30
0.0
 10
-50.761828
 20
197.493621
 30
0.0
 10
-50.648729
 20
196.921960
 30
0.0
 10
-50.672978
 20
196.393035
 30
0.0
  0
SPLINE
  5
110
100
AcDbEntity
  8
Layer_1
 62
3
100
AcDbSpline
 70
8
 71
3
 72
8
 73
4
 74
0
 40
0
 40
0
 40
0
 40
0
 40
1
 40
1
 40
1
 40
1
 10
-50.672978
 20
196.393035
 30
0.0
 10
-50.672975
 20
171.936265
 30
0.0
 10
-50.672978
 20
147.479504
 30
0.0
 10
-50.672978
 20
123.022748
 30
0.0
  0
SPLINE
  5
111
100
AcDbEntity
  8
Layer_1
 62
3
100
AcDbSpline
 70
8
 71
3
 72
8
 73
4
 74
0
 40
0
 40
0
 40
0
 40
0
 40
1
 40
1
 40
1
 40
1
 10
-50.672978
 20
123.022748
 30
0.0
 10
-50.660251
 20
122.494852
 30
0.0
 10
-50.362175
 20
121.980714
 30
0.0
 10
-49.894424
 20
121.729546
 30
0.0
  0
SPLINE
  5
112
100
AcDbEntity
  8
Layer_1
 62
3
100
AcDbSpline
 70
8
 71
3
 72
8
 73
4
 74
0
 40
0
 40
0
 40
0
 40
0
 40
1
 40
1
 40
1
 40
1
 10
-49.894424
 20
121.729546
 30
0.0
 10
-49.424572
 20
121.442129
 30
0.0
 10
-48.853128
 20
121.551270
 30
0.0
 10
-48.330384
 20
121.529812
 30
0.0
  0
LINE
  5
113
100
AcDbEntity
  8
Layer_1
 62
3
100
AcDbLine
 10
-48.330384
 20
121.529812
 30
0.0
 11
6.044934
 21
121.529812
 31
0.0
  0
SPLINE
  5
114
100
AcDbEntity
  8
Layer_1
 62
3
100
AcDbSpline
 70
8
 71
3
 72
8
 73
4
 74
0
 40
0
 40
0
 40
0
 40
0
 40
1
 40
1
 40
1
 40
1
 10
6.044934
 20
121.529812
 30
0.0
 10
6.572565
 20
121.544099
 30
0.0
 10
7.085909
 20
121.840803
 30
0.0
 10
7.337792
 20
122.308242
 30
0.0
  0
SPLINE
  5
115
100
AcDbEntity
  8
Layer_1
 62
3
100
AcDbSpline
 70
8
 71
3
 72
8
 73
4
 74
0
 40
0
 40
0
 40
0
 40
0
 40
1
 40
1
 40
1
 40
1
 10
7.337792
 20
122.308242
 30
0.0
 10
7.627431
 20
122.787084
 30
0.0
 10
7.514613
 20
123.367526
 30
0.0
 10
7.537341
 20
123.898862
 30
0.0
  0
LINE
  5
116
100
AcDbEntity
  8
Layer_1
 62
3
100
AcDbLine
 10
7.537341
 20
123.898862
 30
0.0
 11
7.537341
 21
197.296649
 31
0.0
  0
SPLINE
  5
117
100
AcDbEntity
  8
Layer_1
 62
3
100
AcDbSpline
 70
8
 71
3
 72
8
 73
4
 74
0
 40
0
 40
0
 40
0
 40
0
 40
1
 40
1
 40
1
 40
1
 10
7.537341
 20
197.296649
 30
0.0
 10
7.521968
 20
197.814301
 30
0.0
 10
7.237436
 20
198.321612
 30
0.0
 10
6.781321
 20
198.574908
 30
0.0
  0
SPLINE
  5
118
100
AcDbEntity
  8
Layer_1
 62
3
100
AcDbSpline
 70
8
 71
3
 72
8
 73
4
 74
0
 40
0
 40
0
 40
0
 40
0
 40
1
 40
1
 40
1
 40
1
 10
6.781321
 20
198.574908
 30
0.0
 10
6.308961
 20
198.878411
 30
0.0
 10
5.725238
 20
198.766604
 30
0.0
 10
5.194749
 20
198.788029
 30
0.0
  0
SPLINE
  5
119
100
AcDbEntity
  8
Layer_1
 62
3
100
AcDbSpline
 70
8
 71
3
 72
8
 73
4
 74
0
 40
0
 40
0
 40
0
 40
0
 40
1
 40
1
 40
1
 40
1
 10
5.194749
 20
198.788029
 30
0.0
 10
-12.930176
 20
198.788029
 30
0.0
 10
-31.055112
 20
198.788027
 30
0.0
 10
-49.180047
 20
198.788029
 30
0.0
  0
LINE
  5
11a
100
AcDbEntity
  8
Layer_1
 62
3
100
AcDbLine
 10
-49.180047
 20
198.788029
 30
0.0
 11
-49.206347
 21
198.785251
 31
0.0
  0
LINE
  5
11b
100
AcDbEntity
  8
Layer_1
 62
3
100
AcDbLine
 10
-49.206347
 20
198.785251
 30
0.0
 11
-49.209501
 21
198.784929
 31
0.0
  0
SPLINE
  5
11c
100
AcDbEntity
  8
Layer_1
 62
3
100
AcDbSpline
 70
8
 71
3
 72
8
 73
4
 74
0
 40
0
 40
0
 40
0
 40
0
 40
1
 40
1
 40
1
 40
1
 10
15.151862
 20
225.075795
 30
0.0
 10
14.619831
 20
225.058491
 30
0.0
 10
14.120441
 20
224.733610
 30
0.0
 10
13.878424
 20
224.261200
 30
0.0
  0
SPLINE
  5
11d
100
AcDbEntity
  8
Layer_1
 62
3
100
AcDbSpline
 70
8
 71
3
 72
8
 73
4
 74
0
 40
0
 40
0
 40
0
 40
0
 40
1
 40
1
 40
1
 40
1
 10
13.878424
 20
224.261200
 30
0.0
 10
13.628306
 20
223.773047
 30
0.0
 10
13.740256
 20
223.209794
 30
0.0
 10
13.715258
 20
222.683285
 30
0.0
  0
SPLINE
  5
11e
100
AcDbEntity
  8
Layer_1
 62
3
100
AcDbSpline
 70
8
 71
3
 72
8
 73
4
 74
0
 40
0
 40
0
 40
0
 40
0
 40
1
 40
1
 40
1
 40
1
 10
13.715258
 20
222.683285
 30
0.0
 10
13.717375
 20
217.256942
 30
0.0
 10
13.711131
 20
211.830164
 30
0.0
 10
13.718354
 20
206.404091
 30
0.0
  0
SPLINE
  5
11f
100
AcDbEntity
  8
Layer_1
 62
3
100
AcDbSpline
 70
8
 71
3
 72
8
 73
4
 74
0
 40
0
 40
0
 40
0
 40
0
 40
1
 40
1
 40
1
 40
1
 10
13.718354
 20
206.404091
 30
0.0
 10
13.736293
 20
205.882402
 30
0.0
 10
14.048096
 20
205.386486
 30
0.0
 10
14.510553
 20
205.144221
 30
0.0
  0
SPLINE
  5
120
100
AcDbEntity
  8
Layer_1
 62
3
100
AcDbSpline
 70
8
 71
3
 72
8
 73
4
 74
0
 40
0
 40
0
 40
0
 40
0
 40
1
 40
1
 40
1
 40
1
 10
14.510553
 20
205.144221
 30
0.0
 10
14.991554
 20
204.878238
 30
0.0
 10
15.559222
 20
204.992218
 30
0.0
 10
16.084409
 20
204.967487
 30
0.0
  0
LINE
  5
121
100
AcDbEntity
  8
Layer_1
 62
3
100
AcDbLine
 10
16.084409
 20
204.967487
 30
0.0
 11
89.510530
 21
204.967487
 31
0.0
  0
SPLINE
  5
122
100
AcDbEntity
  8
Layer_1
 62
3
100
AcDbSpline
 70
8
 71
3
 72
8
 73
4
 74
0
 40
0
 40
0
 40
0
 40
0
 40
1
 40
1
 40
1
 40
1
 10
89.510530
 20
204.967487
 30
0.0
 10
90.030502
 20
204.980267
 30
0.0
 10
90.535059
 20
205.275062
 30
0.0
 10
90.782301
 20
205.735527
 30
0.0
  0
SPLINE
  5
123
100
AcDbEntity
  8
Layer_1
 62
3
100
AcDbSpline
 70
8
 71
3
 72
8
 73
4
 74
0
 40
0
 40
0
 40
0
 40
0
 40
1
 40
1
 40
1
 40
1
 10
90.782301
 20
205.735527
 30
0.0
 10
91.063942
 20
206.201706
 30
0.0
 10
90.954799
 20
206.766411
 30
0.0
 10
90.976590
 20
207.283726
 30
0.0
  0
SPLINE
  5
124
100
AcDbEntity
  8
Layer_1
 62
3
100
AcDbSpline
 70
8
 71
3
 72
8
 73
4
 74
0
 40
0
 40
0
 40
0
 40
0
 40
1
 40
1
 40
1
 40
1
 10
90.976590
 20
207.283726
 30
0.0
 10
90.974473
 20
212.736528
 30
0.0
 10
90.980717
 20
218.189763
 30
0.0
 10
90.973494
 20
223.642295
 30
0.0
  0
SPLINE
  5
125
100
AcDbEntity
  8
Layer_1
 62
3
100
AcDbSpline
 70
8
 71
3
 72
8
 73
4
 74
0
 40
0
 40
0
 40
0
 40
0
 40
1
 40
1
 40
1
 40
1
 10
90.973494
 20
223.642295
 30
0.0
 10
90.956191
 20
224.174324
 30
0.0
 10
90.631309
 20
224.673714
 30
0.0
 10
90.158899
 20
224.915733
 30
0.0
  0
SPLINE
  5
126
100
AcDbEntity
  8
Layer_1
 62
3
100
AcDbSpline
 70
8
 71
3
 72
8
 73
4
 74
0
 40
0
 40
0
 40
0
 40
0
 40
1
 40
1
 40
1
 40
1
 10
90.158899
 20
224.915733
 30
0.0
 10
89.670743
 20
225.165849
 30
0.0
 10
89.107494
 20
225.053898
 30
0.0
 10
88.580981
 20
225.078896
 30
0.0
  0
LINE
  5
127
100
AcDbEntity
  8
Layer_1
 62
3
100
AcDbLine
 10
88.580981
 20
225.078896
 30
0.0
 11
15.181318
 21
225.078896
 31
0.0
  0
LINE
  5
128
100
AcDbEntity
  8
Layer_1
 62
3
100
AcDbLine
 10
15.181318
 20
225.078896
 30
0.0
 11
15.155018
 21
225.076118
 31
0.0
  0
LINE
  5
129
100
AcDbEntity
  8
Layer_1
 62
3
100
AcDbLine
 10
15.155018
 20
225.076118
 30
0.0
 11
15.151862
 21
225.075795
 31
0.0
  0
SPLINE
  5
12a
100
AcDbEntity
  8
Layer_1
 62
3
100
AcDbSpline
 70
8
 71
3
 72
8
 73
4
 74
0
 40
0
 40
0
 40
0
 40
0
 40
1
 40
1
 40
1
 40
1
 10
98.650537
 20
225.075795
 30
0.0
 10
98.114044
 20
225.057195
 30
0.0
 10
97.600417
 20
224.741738
 30
0.0
 10
97.348079
 20
224.266798
 30
0.0
  0
SPLINE
  5
12b
100
AcDbEntity
  8
Layer_1
 62
3
100
AcDbSpline
 70
8
 71
3
 72
8
 73
4
 74
0
 40
0
 40
0
 40
0
 40
0
 40
1
 40
1
 40
1
 40
1
 10
97.348079
 20
224.266798
 30
0.0
 10
97.069301
 20
223.784950
 30
0.0
 10
97.177048
 20
223.208786
 30
0.0
 10
97.155537
 20
222.677805
 30
0.0
  0
SPLINE
  5
12c
100
AcDbEntity
  8
Layer_1
 62
3
100
AcDbSpline
 70
8
 71
3
 72
8
 73
4
 74
0
 40
0
 40
0
 40
0
 40
0
 40
1
 40
1
 40
1
 40
1
 10
97.155537
 20
222.677805
 30
0.0
 10
97.157654
 20
217.267930
 30
0.0
 10
97.151410
 20
211.857625
 30
0.0
 10
97.158633
 20
206.448017
 30
0.0
  0
SPLINE
  5
12d
100
AcDbEntity
  8
Layer_1
 62
3
100
AcDbSpline
 70
8
 71
3
 72
8
 73
4
 74
0
 40
0
 40
0
 40
0
 40
0
 40
1
 40
1
 40
1
 40
1
 10
97.158633
 20
206.448017
 30
0.0
 10
97.176651
 20
205.909897
 30
0.0
 10
97.497595
 20
205.398202
 30
0.0
 10
97.975120
 20
205.148872
 30
0.0
  0
SPLINE
  5
12e
100
AcDbEntity
  8
Layer_1
 62
3
100
AcDbSpline
 70
8
 71
3
 72
8
 73
4
 74
0
 40
0
 40
0
 40
0
 40
0
 40
1
 40
1
 40
1
 40
1
 10
97.975120
 20
205.148872
 30
0.0
 10
98.462529
 20
204.879868
 30
0.0
 10
99.036386
 20
204.990707
 30
0.0
 10
99.568613
 20
204.967487
 30
0.0
  0
SPLINE
  5
12f
100
AcDbEntity
  8
Layer_1
 62
3
100
AcDbSpline
 70
8
 71
3
 72
8
 73
4
 74
0
 40
0
 40
0
 40
0
 40
0
 40
1
 40
1
 40
1
 40
1
 10
99.568613
 20
204.967487
 30
0.0
 10
124.019541
 20
204.968545
 30
0.0
 10
148.470566
 20
204.965370
 30
0.0
 10
172.921435
 20
204.969075
 30
0.0
  0
SPLINE
  5
130
100
AcDbEntity
  8
Layer_1
 62
3
100
AcDbSpline
 70
8
 71
3
 72
8
 73
4
 74
0
 40
0
 40
0
 40
0
 40
0
 40
1
 40
1
 40
1
 40
1
 10
172.921435
 20
204.969075
 30
0.0
 10
173.719663
 20
204.974419
 30
0.0
 10
174.422480
 20
205.689555
 30
0.0
 10
174.414802
 20
206.487736
 30
0.0
  0
SPLINE
  5
131
100
AcDbEntity
  8
Layer_1
 62
3
100
AcDbSpline
 70
8
 71
3
 72
8
 73
4
 74
0
 40
0
 40
0
 40
0
 40
0
 40
1
 40
1
 40
1
 40
1
 10
174.414802
 20
206.487736
 30
0.0
 10
174.414008
 20
212.204525
 30
0.0
 10
174.418797
 20
217.921537
 30
0.0
 10
174.412421
 20
223.638244
 30
0.0
  0
SPLINE
  5
132
100
AcDbEntity
  8
Layer_1
 62
3
100
AcDbSpline
 70
8
 71
3
 72
8
 73
4
 74
0
 40
0
 40
0
 40
0
 40
0
 40
1
 40
1
 40
1
 40
1
 10
174.412421
 20
223.638244
 30
0.0
 10
174.393159
 20
224.421143
 30
0.0
 10
173.680664
 20
225.096454
 30
0.0
 10
172.898578
 20
225.078825
 30
0.0
  0
LINE
  5
133
100
AcDbEntity
  8
Layer_1
 62
3
100
AcDbLine
 10
172.898578
 20
225.078825
 30
0.0
 11
98.679945
 21
225.078825
 31
0.0
  0
LINE
  5
134
100
AcDbEntity
  8
Layer_1
 62
3
100
AcDbLine
 10
98.679945
 20
225.078825
 30
0.0
 11
98.653646
 21
225.076047
 31
0.0
  0
LINE
  5
135
100
AcDbEntity
  8
Layer_1
 62
3
100
AcDbLine
 10
98.653646
 20
225.076047
 30
0.0
 11
98.650537
 21
225.075795
 31
0.0
  0
SPLINE
  5
136
100
AcDbEntity
  8
Layer_1
 62
3
100
AcDbSpline
 70
8
 71
3
 72
8
 73
4
 74
0
 40
0
 40
0
 40
0
 40
0
 40
1
 40
1
 40
1
 40
1
 10
181.846386
 20
225.075795
 30
0.0
 10
181.322403
 20
225.058147
 30
0.0
 10
180.823828
 20
224.744992
 30
0.0
 10
180.581348
 20
224.279980
 30
0.0
  0
SPLINE
  5
137
100
AcDbEntity
  8
Layer_1
 62
3
100
AcDbSpline
 70
8
 71
3
 72
8
 73
4
 74
0
 40
0
 40
0
 40
0
 40
0
 40
1
 40
1
 40
1
 40
1
 10
180.581348
 20
224.279980
 30
0.0
 10
180.315130
 20
223.798198
 30
0.0
 10
180.428575
 20
223.230075
 30
0.0
 10
180.404099
 20
222.704057
 30
0.0
  0
SPLINE
  5
138
100
AcDbEntity
  8
Layer_1
 62
3
100
AcDbSpline
 70
8
 71
3
 72
8
 73
4
 74
0
 40
0
 40
0
 40
0
 40
0
 40
1
 40
1
 40
1
 40
1
 10
180.404099
 20
222.704057
 30
0.0
 10
180.406215
 20
217.299039
 30
0.0
 10
180.399971
 20
211.893593
 30
0.0
 10
180.407194
 20
206.488839
 30
0.0
  0
SPLINE
  5
139
100
AcDbEntity
  8
Layer_1
 62
3
100
AcDbSpline
 70
8
 71
3
 72
8
 73
4
 74
0
 40
0
 40
0
 40
0
 40
0
 40
1
 40
1
 40
1
 40
1
 10
180.407194
 20
206.488839
 30
0.0
 10
180.425133
 20
205.943783
 30
0.0
 10
180.744831
 20
205.421530
 30
0.0
 10
181.227317
 20
205.165112
 30
0.0
  0
SPLINE
  5
13a
100
AcDbEntity
  8
Layer_1
 62
3
100
AcDbSpline
 70
8
 71
3
 72
8
 73
4
 74
0
 40
0
 40
0
 40
0
 40
0
 40
1
 40
1
 40
1
 40
1
 10
181.227317
 20
205.165112
 30
0.0
 10
181.713234
 20
204.880701
 30
0.0
 10
182.295182
 20
204.988590
 30
0.0
 10
182.831539
 20
204.967487
 30
0.0
  0
SPLINE
  5
13b
100
AcDbEntity
  8
Layer_1
 62
3
100
AcDbSpline
 70
8
 71
3
 72
8
 73
4
 74
0
 40
0
 40
0
 40
0
 40
0
 40
1
 40
1
 40
1
 40
1
 10
182.831539
 20
204.967487
 30
0.0
 10
207.300419
 20
204.968545
 30
0.0
 10
231.769388
 20
204.965370
 30
0.0
 10
256.238212
 20
204.969075
 30
0.0
  0
SPLINE
  5
13c
100
AcDbEntity
  8
Layer_1
 62
3
100
AcDbSpline
 70
8
 71
3
 72
8
 73
4
 74
0
 40
0
 40
0
 40
0
 40
0
 40
1
 40
1
 40
1
 40
1
 10
256.238212
 20
204.969075
 30
0.0
 10
257.017938
 20
204.973731
 30
0.0
 10
257.695455
 20
205.688312
 30
0.0
 10
257.663361
 20
206.466741
 30
0.0
  0
SPLINE
  5
13d
100
AcDbEntity
  8
Layer_1
 62
3
100
AcDbSpline
 70
8
 71
3
 72
8
 73
4
 74
0
 40
0
 40
0
 40
0
 40
0
 40
1
 40
1
 40
1
 40
1
 10
257.663361
 20
206.466741
 30
0.0
 10
257.660716
 20
212.185610
 30
0.0
 10
257.668653
 20
217.904702
 30
0.0
 10
257.659393
 20
223.623430
 30
0.0
  0
SPLINE
  5
13e
100
AcDbEntity
  8
Layer_1
 62
3
100
AcDbSpline
 70
8
 71
3
 72
8
 73
4
 74
0
 40
0
 40
0
 40
0
 40
0
 40
1
 40
1
 40
1
 40
1
 10
257.659393
 20
223.623430
 30
0.0
 10
257.625764
 20
224.414057
 30
0.0
 10
256.907977
 20
225.089932
 30
0.0
 10
256.117138
 20
225.078915
 30
0.0
  0
LINE
  5
13f
100
AcDbEntity
  8
Layer_1
 62
3
100
AcDbLine
 10
256.117138
 20
225.078915
 30
0.0
 11
181.875757
 21
225.078915
 31
0.0
  0
LINE
  5
140
100
AcDbEntity
  8
Layer_1
 62
3
100
AcDbLine
 10
181.875757
 20
225.078915
 30
0.0
 11
181.849431
 21
225.076136
 31
0.0
  0
LINE
  5
141
100
AcDbEntity
  8
Layer_1
 62
3
100
AcDbLine
 10
181.849431
 20
225.076136
 30
0.0
 11
181.846386
 21
225.075795
 31
0.0
  0
SPLINE
  5
142
100
AcDbEntity
  8
Layer_1
 62
3
100
AcDbSpline
 70
8
 71
3
 72
8
 73
4
 74
0
 40
0
 40
0
 40
0
 40
0
 40
1
 40
1
 40
1
 40
1
 10
-49.165577
 20
225.075279
 30
0.0
 10
-49.696550
 20
225.056414
 30
0.0
 10
-50.209190
 20
224.751731
 30
0.0
 10
-50.464108
 20
224.283398
 30
0.0
  0
SPLINE
  5
143
100
AcDbEntity
  8
Layer_1
 62
3
100
AcDbSpline
 70
8
 71
3
 72
8
 73
4
 74
0
 40
0
 40
0
 40
0
 40
0
 40
1
 40
1
 40
1
 40
1
 10
-50.464108
 20
224.283398
 30
0.0
 10
-50.759661
 20
223.806210
 30
0.0
 10
-50.652989
 20
223.223910
 30
0.0
 10
-50.672978
 20
222.691344
 30
0.0
  0
SPLINE
  5
144
100
AcDbEntity
  8
Layer_1
 62
3
100
AcDbSpline
 70
8
 71
3
 72
8
 73
4
 74
0
 40
0
 40
0
 40
0
 40
0
 40
1
 40
1
 40
1
 40
1
 10
-50.672978
 20
222.691344
 30
0.0
 10
-50.670861
 20
217.276955
 30
0.0
 10
-50.677105
 20
211.862139
 30
0.0
 10
-50.669882
 20
206.448017
 30
0.0
  0
SPLINE
  5
145
100
AcDbEntity
  8
Layer_1
 62
3
100
AcDbSpline
 70
8
 71
3
 72
8
 73
4
 74
0
 40
0
 40
0
 40
0
 40
0
 40
1
 40
1
 40
1
 40
1
 10
-50.669882
 20
206.448017
 30
0.0
 10
-50.651864
 20
205.909897
 30
0.0
 10
-50.330920
 20
205.398202
 30
0.0
 10
-49.853395
 20
205.148872
 30
0.0
  0
SPLINE
  5
146
100
AcDbEntity
  8
Layer_1
 62
3
100
AcDbSpline
 70
8
 71
3
 72
8
 73
4
 74
0
 40
0
 40
0
 40
0
 40
0
 40
1
 40
1
 40
1
 40
1
 10
-49.853395
 20
205.148872
 30
0.0
 10
-49.365986
 20
204.879868
 30
0.0
 10
-48.792129
 20
204.990707
 30
0.0
 10
-48.259902
 20
204.967487
 30
0.0
  0
SPLINE
  5
147
100
AcDbEntity
  8
Layer_1
 62
3
100
AcDbSpline
 70
8
 71
3
 72
8
 73
4
 74
0
 40
0
 40
0
 40
0
 40
0
 40
1
 40
1
 40
1
 40
1
 10
-48.259902
 20
204.967487
 30
0.0
 10
-30.144666
 20
204.968545
 30
0.0
 10
-12.029342
 20
204.965370
 30
0.0
 10
6.085833
 20
204.969075
 30
0.0
  0
SPLINE
  5
148
100
AcDbEntity
  8
Layer_1
 62
3
100
AcDbSpline
 70
8
 71
3
 72
8
 73
4
 74
0
 40
0
 40
0
 40
0
 40
0
 40
1
 40
1
 40
1
 40
1
 10
6.085833
 20
204.969075
 30
0.0
 10
6.860849
 20
204.974049
 30
0.0
 10
7.542495
 20
205.667695
 30
0.0
 10
7.536833
 20
206.442379
 30
0.0
  0
SPLINE
  5
149
100
AcDbEntity
  8
Layer_1
 62
3
100
AcDbSpline
 70
8
 71
3
 72
8
 73
4
 74
0
 40
0
 40
0
 40
0
 40
0
 40
1
 40
1
 40
1
 40
1
 10
7.536833
 20
206.442379
 30
0.0
 10
7.536118
 20
212.174329
 30
0.0
 10
7.540828
 20
217.906498
 30
0.0
 10
7.534478
 20
223.638363
 30
0.0
  0
SPLINE
  5
14a
100
AcDbEntity
  8
Layer_1
 62
3
100
AcDbSpline
 70
8
 71
3
 72
8
 73
4
 74
0
 40
0
 40
0
 40
0
 40
0
 40
1
 40
1
 40
1
 40
1
 10
7.534478
 20
223.638363
 30
0.0
 10
7.514264
 20
224.412247
 30
0.0
 10
6.818384
 20
225.083913
 30
0.0
 10
6.044426
 20
225.078428
 30
0.0
  0
SPLINE
  5
14b
100
AcDbEntity
  8
Layer_1
 62
3
100
AcDbSpline
 70
8
 71
3
 72
8
 73
4
 74
0
 40
0
 40
0
 40
0
 40
0
 40
1
 40
1
 40
1
 40
1
 10
6.044426
 20
225.078428
 30
0.0
 10
-12.348903
 20
225.079751
 30
0.0
 10
-30.742271
 20
225.078600
 30
0.0
 10
-49.135610
 20
225.078957
 30
0.0
  0
LINE
  5
14c
100
AcDbEntity
  8
Layer_1
 62
3
100
AcDbLine
 10
-49.135610
 20
225.078957
 30
0.0
 11
-49.161884
 21
225.075782
 31
0.0
  0
LINE
  5
14d
100
AcDbEntity
  8
Layer_1
 62
3
100
AcDbLine
 10
-49.161884
 20
225.075782
 30
0.0
 11
-49.165577
 21
225.075279
 31
0.0
  0
SPLINE
  5
14e
100
AcDbEntity
  8
Layer_1
 62
3
100
AcDbSpline
 70
8
 71
3
 72
8
 73
4
 74
0
 40
0
 40
0
 40
0
 40
0
 40
1
 40
1
 40
1
 40
1
 10
-51.795079
 20
105.180921
 30
0.0
 10
-52.794455
 20
105.262213
 30
0.0
 10
-53.744675
 20
105.654619
 30
0.0
 10
-54.515789
 20
106.304474
 30
0.0
  0
LINE
  5
14f
100
AcDbEntity
  8
Layer_1
 62
3
100
AcDbLine
 10
-54.515789
 20
106.304474
 30
0.0
 11
-66.455955
 21
114.551965
 31
0.0
  0
SPLINE
  5
150
100
AcDbEntity
  8
Layer_1
 62
3
100
AcDbSpline
 70
8
 71
3
 72
8
 73
4
 74
0
 40
0
 40
0
 40
0
 40
0
 40
1
 40
1
 40
1
 40
1
 10
-66.455955
 20
114.551965
 30
0.0
 10
-67.367661
 20
115.181719
 30
0.0
 10
-68.106365
 20
116.599150
 30
0.0
 10
-68.105907
 20
117.717885
 30
0.0
  0
SPLINE
  5
151
100
AcDbEntity
  8
Layer_1
 62
3
100
AcDbSpline
 70
8
 71
3
 72
8
 73
4
 74
0
 40
0
 40
0
 40
0
 40
0
 40
1
 40
1
 40
1
 40
1
 10
-68.105907
 20
117.717885
 30
0.0
 10
-68.076903
 20
188.669911
 30
0.0
 10
-68.145986
 20
113.378523
 30
0.0
 10
-68.124943
 20
230.527247
 30
0.0
  0
SPLINE
  5
152
100
AcDbEntity
  8
Layer_1
 62
3
100
AcDbSpline
 70
8
 71
3
 72
8
 73
4
 74
0
 40
0
 40
0
 40
0
 40
0
 40
1
 40
1
 40
1
 40
1
 10
-68.124943
 20
230.527247
 30
0.0
 10
-68.124742
 20
231.645972
 30
0.0
 10
-67.413917
 20
233.103345
 30
0.0
 10
-66.537277
 20
233.782380
 30
0.0
  0
LINE
  5
153
100
AcDbEntity
  8
Layer_1
 62
3
100
AcDbLine
 10
-66.537277
 20
233.782380
 30
0.0
 11
-63.198743
 21
236.368366
 31
0.0
  0
SPLINE
  5
154
100
AcDbEntity
  8
Layer_1
 62
3
100
AcDbSpline
 70
8
 71
3
 72
8
 73
4
 74
0
 40
0
 40
0
 40
0
 40
0
 40
1
 40
1
 40
1
 40
1
 10
-63.198743
 20
236.368366
 30
0.0
 10
-62.169187
 20
237.165848
 30
0.0
 10
-60.909648
 20
237.597867
 30
0.0
 10
-59.614169
 20
237.597867
 30
0.0
  0
LINE
  5
155
100
AcDbEntity
  8
Layer_1
 62
3
100
AcDbLine
 10
-59.614169
 20
237.597867
 30
0.0
 11
266.557952
 21
237.597848
 31
0.0
  0
SPLINE
  5
156
100
AcDbEntity
  8
Layer_1
 62
3
100
AcDbSpline
 70
8
 71
3
 72
8
 73
4
 74
0
 40
0
 40
0
 40
0
 40
0
 40
1
 40
1
 40
1
 40
1
 10
266.557952
 20
237.597848
 30
0.0
 10
267.853429
 20
237.597846
 30
0.0
 10
269.112966
 20
237.165827
 30
0.0
 10
270.142520
 20
236.368346
 30
0.0
  0
LINE
  5
157
100
AcDbEntity
  8
Layer_1
 62
3
100
AcDbLine
 10
270.142520
 20
236.368346
 30
0.0
 11
273.481051
 21
233.782361
 31
0.0
  0
SPLINE
  5
158
100
AcDbEntity
  8
Layer_1
 62
3
100
AcDbSpline
 70
8
 71
3
 72
8
 73
4
 74
0
 40
0
 40
0
 40
0
 40
0
 40
1
 40
1
 40
1
 40
1
 10
273.481051
 20
233.782361
 30
0.0
 10
274.357693
 20
233.103326
 30
0.0
 10
275.068517
 20
231.645939
 30
0.0
 10
275.068719
 20
230.527197
 30
0.0
  0
SPLINE
  5
159
100
AcDbEntity
  8
Layer_1
 62
3
100
AcDbSpline
 70
8
 71
3
 72
8
 73
4
 74
0
 40
0
 40
0
 40
0
 40
0
 40
1
 40
1
 40
1
 40
1
 10
275.068719
 20
230.527197
 30
0.0
 10
275.089702
 20
113.378502
 30
0.0
 10
275.020700
 20
188.669911
 30
0.0
 10
275.049653
 20
117.717834
 30
0.0
  0
SPLINE
  5
15a
100
AcDbEntity
  8
Layer_1
 62
3
100
AcDbSpline
 70
8
 71
3
 72
8
 73
4
 74
0
 40
0
 40
0
 40
0
 40
0
 40
1
 40
1
 40
1
 40
1
 10
275.049653
 20
117.717834
 30
0.0
 10
275.050107
 20
116.599109
 30
0.0
 10
274.311409
 20
115.181699
 30
0.0
 10
273.399701
 20
114.551944
 30
0.0
  0
LINE
  5
15b
100
AcDbEntity
  8
Layer_1
 62
3
100
AcDbLine
 10
273.399701
 20
114.551944
 30
0.0
 11
261.459540
 21
106.304454
 31
0.0
  0
SPLINE
  5
15c
100
AcDbEntity
  8
Layer_1
 62
3
100
AcDbSpline
 70
8
 71
3
 72
8
 73
4
 74
0
 40
0
 40
0
 40
0
 40
0
 40
1
 40
1
 40
1
 40
1
 10
261.459540
 20
106.304454
 30
0.0
 10
260.385297
 20
105.562433
 30
0.0
 10
259.111276
 20
105.175080
 30
0.0
 10
257.811710
 20
105.195368
 30
0.0
  0
SPLINE
  5
15d
100
AcDbEntity
  8
Layer_1
 62
3
100
AcDbSpline
 70
8
 71
3
 72
8
 73
4
 74
0
 40
0
 40
0
 40
0
 40
0
 40
1
 40
1
 40
1
 40
1
 10
257.811710
 20
105.195368
 30
0.0
 10
256.789370
 20
105.208907
 30
0.0
 10
255.766942
 20
105.214466
 30
0.0
 10
254.744518
 20
105.212045
 30
0.0
  0
LINE
  5
15e
100
AcDbEntity
  8
Layer_1
 62
3
100
AcDbLine
 10
254.744518
 20
105.212045
 30
0.0
 11
-47.800765
 21
105.212065
 31
0.0
  0
SPLINE
  5
15f
100
AcDbEntity
  8
Layer_1
 62
3
100
AcDbSpline
 70
8
 71
3
 72
8
 73
4
 74
0
 40
0
 40
0
 40
0
 40
0
 40
1
 40
1
 40
1
 40
1
 10
-47.800765
 20
105.212065
 30
0.0
 10
-49.132263
 20
105.212056
 30
0.0
 10
-50.463742
 20
105.201654
 30
0.0
 10
-51.795083
 20
105.180859
 30
0.0
  0
LINE
  5
160
100
AcDbEntity
  8
Layer_1
 62
3
100
AcDbLine
 10
-51.795083
 20
105.180859
 30
0.0
 11
-51.795079
 21
105.180921
 31
0.0
  0
SPLINE
  5
161
100
AcDbEntity
  8
Layer_1
 62
3
100
AcDbSpline
 70
8
 71
3
 72
8
 73
4
 74
0
 40
0
 40
0
 40
0
 40
0
 40
1
 40
1
 40
1
 40
1
 10
-56.738524
 20
227.483082
 30
0.0
 10
-56.738524
 20
228.348914
 30
0.0
 10
-57.440357
 20
229.050723
 30
0.0
 10
-58.306152
 20
229.050723
 30
0.0
  0
SPLINE
  5
162
100
AcDbEntity
  8
Layer_1
 62
3
100
AcDbSpline
 70
8
 71
3
 72
8
 73
4
 74
0
 40
0
 40
0
 40
0
 40
0
 40
1
 40
1
 40
1
 40
1
 10
-58.306152
 20
229.050723
 30
0.0
 10
-59.171974
 20
229.050723
 30
0.0
 10
-59.873806
 20
228.348914
 30
0.0
 10
-59.873806
 20
227.483082
 30
0.0
  0
SPLINE
  5
163
100
AcDbEntity
  8
Layer_1
 62
3
100
AcDbSpline
 70
8
 71
3
 72
8
 73
4
 74
0
 40
0
 40
0
 40
0
 40
0
 40
1
 40
1
 40
1
 40
1
 10
-59.873806
 20
227.483082
 30
0.0
 10
-59.873806
 20
226.617250
 30
0.0
 10
-59.171974
 20
225.915441
 30
0.0
 10
-58.306152
 20
225.915441
 30
0.0
  0
SPLINE
  5
164
100
AcDbEntity
  8
Layer_1
 62
3
100
AcDbSpline
 70
8
 71
3
 72
8
 73
4
 74
0
 40
0
 40
0
 40
0
 40
0
 40
1
 40
1
 40
1
 40
1
 10
-58.306152
 20
225.915441
 30
0.0
 10
-57.440357
 20
225.915441
 30
0.0
 10
-56.738524
 20
226.617250
 30
0.0
 10
-56.738524
 20
227.483082
 30
0.0
  0
LINE
  5
165
100
AcDbEntity
  8
Layer_1
 62
3
100
AcDbLine
 10
-56.738524
 20
227.483082
 30
0.0
 11
-56.738524
 21
227.483082
 31
0.0
  0
SPLINE
  5
166
100
AcDbEntity
  8
Layer_1
 62
3
100
AcDbSpline
 70
8
 71
3
 72
8
 73
4
 74
0
 40
0
 40
0
 40
0
 40
0
 40
1
 40
1
 40
1
 40
1
 10
31.235482
 20
230.958658
 30
0.0
 10
31.235482
 20
231.824490
 30
0.0
 10
30.533649
 20
232.526299
 30
0.0
 10
29.667854
 20
232.526299
 30
0.0
  0
SPLINE
  5
167
100
AcDbEntity
  8
Layer_1
 62
3
100
AcDbSpline
 70
8
 71
3
 72
8
 73
4
 74
0
 40
0
 40
0
 40
0
 40
0
 40
1
 40
1
 40
1
 40
1
 10
29.667854
 20
232.526299
 30
0.0
 10
28.802033
 20
232.526299
 30
0.0
 10
28.100200
 20
231.824490
 30
0.0
 10
28.100200
 20
230.958658
 30
0.0
  0
SPLINE
  5
168
100
AcDbEntity
  8
Layer_1
 62
3
100
AcDbSpline
 70
8
 71
3
 72
8
 73
4
 74
0
 40
0
 40
0
 40
0
 40
0
 40
1
 40
1
 40
1
 40
1
 10
28.100200
 20
230.958658
 30
0.0
 10
28.100200
 20
230.092826
 30
0.0
 10
28.802033
 20
229.391017
 30
0.0
 10
29.667854
 20
229.391017
 30
0.0
  0
SPLINE
  5
169
100
AcDbEntity
  8
Layer_1
 62
3
100
AcDbSpline
 70
8
 71
3
 72
8
 73
4
 74
0
 40
0
 40
0
 40
0
 40
0
 40
1
 40
1
 40
1
 40
1
 10
29.667854
 20
229.391017
 30
0.0
 10
30.533649
 20
229.391017
 30
0.0
 10
31.235482
 20
230.092826
 30
0.0
 10
31.235482
 20
230.958658
 30
0.0
  0
LINE
  5
16a
100
AcDbEntity
  8
Layer_1
 62
3
100
AcDbLine
 10
31.235482
 20
230.958658
 30
0.0
 11
31.235482
 21
230.958658
 31
0.0
  0
SPLINE
  5
16b
100
AcDbEntity
  8
Layer_1
 62
3
100
AcDbSpline
 70
8
 71
3
 72
8
 73
4
 74
0
 40
0
 40
0
 40
0
 40
0
 40
1
 40
1
 40
1
 40
1
 10
31.235482
 20
114.133622
 30
0.0
 10
31.235482
 20
114.999454
 30
0.0
 10
30.533649
 20
115.701263
 30
0.0
 10
29.667854
 20
115.701263
 30
0.0
  0
SPLINE
  5
16c
100
AcDbEntity
  8
Layer_1
 62
3
100
AcDbSpline
 70
8
 71
3
 72
8
 73
4
 74
0
 40
0
 40
0
 40
0
 40
0
 40
1
 40
1
 40
1
 40
1
 10
29.667854
 20
115.701263
 30
0.0
 10
28.802033
 20
115.701263
 30
0.0
 10
28.100200
 20
114.999454
 30
0.0
 10
28.100200
 20
114.133622
 30
0.0
  0
SPLINE
  5
16d
100
AcDbEntity
  8
Layer_1
 62
3
100
AcDbSpline
 70
8
 71
3
 72
8
 73
4
 74
0
 40
0
 40
0
 40
0
 40
0
 40
1
 40
1
 40
1
 40
1
 10
28.100200
 20
114.133622
 30
0.0
 10
28.100200
 20
113.267790
 30
0.0
 10
28.802033
 20
112.565981
 30
0.0
 10
29.667854
 20
112.565981
 30
0.0
  0
SPLINE
  5
16e
100
AcDbEntity
  8
Layer_1
 62
3
100
AcDbSpline
 70
8
 71
3
 72
8
 73
4
 74
0
 40
0
 40
0
 40
0
 40
0
 40
1
 40
1
 40
1
 40
1
 10
29.667854
 20
112.565981
 30
0.0
 10
30.533649
 20
112.565981
 30
0.0
 10
31.235482
 20
113.267790
 30
0.0
 10
31.235482
 20
114.133622
 30
0.0
  0
LINE
  5
16f
100
AcDbEntity
  8
Layer_1
 62
3
100
AcDbLine
 10
31.235482
 20
114.133622
 30
0.0
 11
31.235482
 21
114.133622
 31
0.0
  0
SPLINE
  5
170
100
AcDbEntity
  8
Layer_1
 62
3
100
AcDbSpline
 70
8
 71
3
 72
8
 73
4
 74
0
 40
0
 40
0
 40
0
 40
0
 40
1
 40
1
 40
1
 40
1
 10
-56.739715
 20
201.906804
 30
0.0
 10
-56.739715
 20
202.772636
 30
0.0
 10
-57.441548
 20
203.474445
 30
0.0
 10
-58.307343
 20
203.474445
 30
0.0
  0
SPLINE
  5
171
100
AcDbEntity
  8
Layer_1
 62
3
100
AcDbSpline
 70
8
 71
3
 72
8
 73
4
 74
0
 40
0
 40
0
 40
0
 40
0
 40
1
 40
1
 40
1
 40
1
 10
-58.307343
 20
203.474445
 30
0.0
 10
-59.173164
 20
203.474445
 30
0.0
 10
-59.874997
 20
202.772636
 30
0.0
 10
-59.874997
 20
201.906804
 30
0.0
  0
SPLINE
  5
172
100
AcDbEntity
  8
Layer_1
 62
3
100
AcDbSpline
 70
8
 71
3
 72
8
 73
4
 74
0
 40
0
 40
0
 40
0
 40
0
 40
1
 40
1
 40
1
 40
1
 10
-59.874997
 20
201.906804
 30
0.0
 10
-59.874997
 20
201.040972
 30
0.0
 10
-59.173164
 20
200.339163
 30
0.0
 10
-58.307343
 20
200.339163
 30
0.0
  0
SPLINE
  5
173
100
AcDbEntity
  8
Layer_1
 62
3
100
AcDbSpline
 70
8
 71
3
 72
8
 73
4
 74
0
 40
0
 40
0
 40
0
 40
0
 40
1
 40
1
 40
1
 40
1
 10
-58.307343
 20
200.339163
 30
0.0
 10
-57.441548
 20
200.339163
 30
0.0
 10
-56.739715
 20
201.040972
 30
0.0
 10
-56.739715
 20
201.906804
 30
0.0
  0
LINE
  5
174
100
AcDbEntity
  8
Layer_1
 62
3
100
AcDbLine
 10
-56.739715
 20
201.906804
 30
0.0
 11
-56.739715
 21
201.906804
 31
0.0
  0
SPLINE
  5
175
100
AcDbEntity
  8
Layer_1
 62
3
100
AcDbSpline
 70
8
 71
3
 72
8
 73
4
 74
0
 40
0
 40
0
 40
0
 40
0
 40
1
 40
1
 40
1
 40
1
 10
-56.740668
 20
120.425451
 30
0.0
 10
-56.740668
 20
119.559603
 30
0.0
 10
-57.442474
 20
118.857783
 30
0.0
 10
-58.308322
 20
118.857783
 30
0.0
  0
SPLINE
  5
176
100
AcDbEntity
  8
Layer_1
 62
3
100
AcDbSpline
 70
8
 71
3
 72
8
 73
4
 74
0
 40
0
 40
0
 40
0
 40
0
 40
1
 40
1
 40
1
 40
1
 10
-58.308322
 20
118.857783
 30
0.0
 10
-59.174196
 20
118.857783
 30
0.0
 10
-59.876003
 20
119.559603
 30
0.0
 10
-59.876003
 20
120.425451
 30
0.0
  0
SPLINE
  5
177
100
AcDbEntity
  8
Layer_1
 62
3
100
AcDbSpline
 70
8
 71
3
 72
8
 73
4
 74
0
 40
0
 40
0
 40
0
 40
0
 40
1
 40
1
 40
1
 40
1
 10
-59.876003
 20
120.425451
 30
0.0
 10
-59.876003
 20
121.291298
 30
0.0
 10
-59.174196
 20
121.993118
 30
0.0
 10
-58.308322
 20
121.993118
 30
0.0
  0
SPLINE
  5
178
100
AcDbEntity
  8
Layer_1
 62
3
100
AcDbSpline
 70
8
 71
3
 72
8
 73
4
 74
0
 40
0
 40
0
 40
0
 40
0
 40
1
 40
1
 40
1
 40
1
 10
-58.308322
 20
121.993118
 30
0.0
 10
-57.442474
 20
121.993118
 30
0.0
 10
-56.740668
 20
121.291298
 30
0.0
 10
-56.740668
 20
120.425451
 30
0.0
  0
LINE
  5
179
100
AcDbEntity
  8
Layer_1
 62
3
100
AcDbLine
 10
-56.740668
 20
120.425451
 30
0.0
 11
-56.740668
 21
120.425451
 31
0.0
  0
SPLINE
  5
17a
100
AcDbEntity
  8
Layer_1
 62
3
100
AcDbSpline
 70
8
 71
3
 72
8
 73
4
 74
0
 40
0
 40
0
 40
0
 40
0
 40
1
 40
1
 40
1
 40
1
 10
264.039233
 20
227.512060
 30
0.0
 10
264.039233
 20
228.377892
 30
0.0
 10
264.741065
 20
229.079701
 30
0.0
 10
265.606860
 20
229.079701
 30
0.0
  0
SPLINE
  5
17b
100
AcDbEntity
  8
Layer_1
 62
3
100
AcDbSpline
 70
8
 71
3
 72
8
 73
4
 74
0
 40
0
 40
0
 40
0
 40
0
 40
1
 40
1
 40
1
 40
1
 10
265.606860
 20
229.079701
 30
0.0
 10
266.472682
 20
229.079701
 30
0.0
 10
267.174515
 20
228.377892
 30
0.0
 10
267.174515
 20
227.512060
 30
0.0
  0
SPLINE
  5
17c
100
AcDbEntity
  8
Layer_1
 62
3
100
AcDbSpline
 70
8
 71
3
 72
8
 73
4
 74
0
 40
0
 40
0
 40
0
 40
0
 40
1
 40
1
 40
1
 40
1
 10
267.174515
 20
227.512060
 30
0.0
 10
267.174515
 20
226.646228
 30
0.0
 10
266.472682
 20
225.944419
 30
0.0
 10
265.606860
 20
225.944419
 30
0.0
  0
SPLINE
  5
17d
100
AcDbEntity
  8
Layer_1
 62
3
100
AcDbSpline
 70
8
 71
3
 72
8
 73
4
 74
0
 40
0
 40
0
 40
0
 40
0
 40
1
 40
1
 40
1
 40
1
 10
265.606860
 20
225.944419
 30
0.0
 10
264.741065
 20
225.944419
 30
0.0
 10
264.039233
 20
226.646228
 30
0.0
 10
264.039233
 20
227.512060
 30
0.0
  0
LINE
  5
17e
100
AcDbEntity
  8
Layer_1
 62
3
100
AcDbLine
 10
264.039233
 20
227.512060
 30
0.0
 11
264.039233
 21
227.512060
 31
0.0
  0
SPLINE
  5
17f
100
AcDbEntity
  8
Layer_1
 62
3
100
AcDbSpline
 70
8
 71
3
 72
8
 73
4
 74
0
 40
0
 40
0
 40
0
 40
0
 40
1
 40
1
 40
1
 40
1
 10
176.065226
 20
230.958658
 30
0.0
 10
176.065226
 20
231.824490
 30
0.0
 10
176.767059
 20
232.526299
 30
0.0
 10
177.632854
 20
232.526299
 30
0.0
  0
SPLINE
  5
180
100
AcDbEntity
  8
Layer_1
 62
3
100
AcDbSpline
 70
8
 71
3
 72
8
 73
4
 74
0
 40
0
 40
0
 40
0
 40
0
 40
1
 40
1
 40
1
 40
1
 10
177.632854
 20
232.526299
 30
0.0
 10
178.498676
 20
232.526299
 30
0.0
 10
179.200508
 20
231.824490
 30
0.0
 10
179.200508
 20
230.958658
 30
0.0
  0
SPLINE
  5
181
100
AcDbEntity
  8
Layer_1
 62
3
100
AcDbSpline
 70
8
 71
3
 72
8
 73
4
 74
0
 40
0
 40
0
 40
0
 40
0
 40
1
 40
1
 40
1
 40
1
 10
179.200508
 20
230.958658
 30
0.0
 10
179.200508
 20
230.092826
 30
0.0
 10
178.498676
 20
229.391017
 30
0.0
 10
177.632854
 20
229.391017
 30
0.0
  0
SPLINE
  5
182
100
AcDbEntity
  8
Layer_1
 62
3
100
AcDbSpline
 70
8
 71
3
 72
8
 73
4
 74
0
 40
0
 40
0
 40
0
 40
0
 40
1
 40
1
 40
1
 40
1
 10
177.632854
 20
229.391017
 30
0.0
 10
176.767059
 20
229.391017
 30
0.0
 10
176.065226
 20
230.092826
 30
0.0
 10
176.065226
 20
230.958658
 30
0.0
  0
LINE
  5
183
100
AcDbEntity
  8
Layer_1
 62
3
100
AcDbLine
 10
176.065226
 20
230.958658
 30
0.0
 11
176.065226
 21
230.958658
 31
0.0
  0
SPLINE
  5
184
100
AcDbEntity
  8
Layer_1
 62
3
100
AcDbSpline
 70
8
 71
3
 72
8
 73
4
 74
0
 40
0
 40
0
 40
0
 40
0
 40
1
 40
1
 40
1
 40
1
 10
176.065226
 20
114.133622
 30
0.0
 10
176.065226
 20
114.999454
 30
0.0
 10
176.767059
 20
115.701263
 30
0.0
 10
177.632854
 20
115.701263
 30
0.0
  0
SPLINE
  5
185
100
AcDbEntity
  8
Layer_1
 62
3
100
AcDbSpline
 70
8
 71
3
 72
8
 73
4
 74
0
 40
0
 40
0
 40
0
 40
0
 40
1
 40
1
 40
1
 40
1
 10
177.632854
 20
115.701263
 30
0.0
 10
178.498676
 20
115.701263
 30
0.0
 10
179.200508
 20
114.999454
 30
0.0
 10
179.200508
 20
114.133622
 30
0.0
  0
SPLINE
  5
186
100
AcDbEntity
  8
Layer_1
 62
3
100
AcDbSpline
 70
8
 71
3
 72
8
 73
4
 74
0
 40
0
 40
0
 40
0
 40
0
 40
1
 40
1
 40
1
 40
1
 10
179.200508
 20
114.133622
 30
0.0
 10
179.200508
 20
113.267790
 30
0.0
 10
178.498676
 20
112.565981
 30
0.0
 10
177.632854
 20
112.565981
 30
0.0
  0
SPLINE
  5
187
100
AcDbEntity
  8
Layer_1
 62
3
100
AcDbSpline
 70
8
 71
3
 72
8
 73
4
 74
0
 40
0
 40
0
 40
0
 40
0
 40
1
 40
1
 40
1
 40
1
 10
177.632854
 20
112.565981
 30
0.0
 10
176.767059
 20
112.565981
 30
0.0
 10
176.065226
 20
113.267790
 30
0.0
 10
176.065226
 20
114.133622
 30
0.0
  0
LINE
  5
188
100
AcDbEntity
  8
Layer_1
 62
3
100
AcDbLine
 10
176.065226
 20
114.133622
 30
0.0
 11
176.065226
 21
114.133622
 31
0.0
  0
SPLINE
  5
189
100
AcDbEntity
  8
Layer_1
 62
3
100
AcDbSpline
 70
8
 71
3
 72
8
 73
4
 74
0
 40
0
 40
0
 40
0
 40
0
 40
1
 40
1
 40
1
 40
1
 10
264.038357
 20
201.906804
 30
0.0
 10
264.038357
 20
202.772636
 30
0.0
 10
264.740190
 20
203.474445
 30
0.0
 10
265.605985
 20
203.474445
 30
0.0
  0
SPLINE
  5
18a
100
AcDbEntity
  8
Layer_1
 62
3
100
AcDbSpline
 70
8
 71
3
 72
8
 73
4
 74
0
 40
0
 40
0
 40
0
 40
0
 40
1
 40
1
 40
1
 40
1
 10
265.605985
 20
203.474445
 30
0.0
 10
266.471806
 20
203.474445
 30
0.0
 10
267.173639
 20
202.772636
 30
0.0
 10
267.173639
 20
201.906804
 30
0.0
  0
SPLINE
  5
18b
100
AcDbEntity
  8
Layer_1
 62
3
100
AcDbSpline
 70
8
 71
3
 72
8
 73
4
 74
0
 40
0
 40
0
 40
0
 40
0
 40
1
 40
1
 40
1
 40
1
 10
267.173639
 20
201.906804
 30
0.0
 10
267.173639
 20
201.040972
 30
0.0
 10
266.471806
 20
200.339163
 30
0.0
 10
265.605985
 20
200.339163
 30
0.0
  0
SPLINE
  5
18c
100
AcDbEntity
  8
Layer_1
 62
3
100
AcDbSpline
 70
8
 71
3
 72
8
 73
4
 74
0
 40
0
 40
0
 40
0
 40
0
 40
1
 40
1
 40
1
 40
1
 10
265.605985
 20
200.339163
 30
0.0
 10
264.740190
 20
200.339163
 30
0.0
 10
264.038357
 20
201.040972
 30
0.0
 10
264.038357
 20
201.906804
 30
0.0
  0
LINE
  5
18d
100
AcDbEntity
  8
Layer_1
 62
3
100
AcDbLine
 10
264.038357
 20
201.906804
 30
0.0
 11
264.038357
 21
201.906804
 31
0.0
  0
SPLINE
  5
18e
100
AcDbEntity
  8
Layer_1
 62
3
100
AcDbSpline
 70
8
 71
3
 72
8
 73
4
 74
0
 40
0
 40
0
 40
0
 40
0
 40
1
 40
1
 40
1
 40
1
 10
264.039309
 20
120.425451
 30
0.0
 10
264.039309
 20
119.559603
 30
0.0
 10
264.741116
 20
118.857783
 30
0.0
 10
265.606964
 20
118.857783
 30
0.0
  0
SPLINE
  5
18f
100
AcDbEntity
  8
Layer_1
 62
3
100
AcDbSpline
 70
8
 71
3
 72
8
 73
4
 74
0
 40
0
 40
0
 40
0
 40
0
 40
1
 40
1
 40
1
 40
1
 10
265.606964
 20
118.857783
 30
0.0
 10
266.472838
 20
118.857783
 30
0.0
 10
267.174644
 20
119.559603
 30
0.0
 10
267.174644
 20
120.425451
 30
0.0
  0
SPLINE
  5
190
100
AcDbEntity
  8
Layer_1
 62
3
100
AcDbSpline
 70
8
 71
3
 72
8
 73
4
 74
0
 40
0
 40
0
 40
0
 40
0
 40
1
 40
1
 40
1
 40
1
 10
267.174644
 20
120.425451
 30
0.0
 10
267.174644
 20
121.291298
 30
0.0
 10
266.472838
 20
121.993118
 30
0.0
 10
265.606964
 20
121.993118
 30
0.0
  0
SPLINE
  5
191
100
AcDbEntity
  8
Layer_1
 62
3
100
AcDbSpline
 70
8
 71
3
 72
8
 73
4
 74
0
 40
0
 40
0
 40
0
 40
0
 40
1
 40
1
 40
1
 40
1
 10
265.606964
 20
121.993118
 30
0.0
 10
264.741116
 20
121.993118
 30
0.0
 10
264.039309
 20
121.291298
 30
0.0
 10
264.039309
 20
120.425451
 30
0.0
  0
LINE
  5
192
100
AcDbEntity
  8
Layer_1
 62
3
100
AcDbLine
 10
264.039309
 20
120.425451
 30
0.0
 11
264.039309
 21
120.425451
 31
0.0
  0
SPLINE
  5
193
100
AcDbEntity
  8
Layer_1
 62
3
100
AcDbSpline
 70
8
 71
3
 72
8
 73
4
 74
0
 40
0
 40
0
 40
0
 40
0
 40
1
 40
1
 40
1
 40
1
 10
-30.043470
 20
229.072304
 30
0.0
 10
-30.043470
 20
229.447432
 30
0.0
 10
-30.243599
 20
229.794066
 30
0.0
 10
-30.568470
 20
229.981630
 30
0.0
  0
SPLINE
  5
194
100
AcDbEntity
  8
Layer_1
 62
3
100
AcDbSpline
 70
8
 71
3
 72
8
 73
4
 74
0
 40
0
 40
0
 40
0
 40
0
 40
1
 40
1
 40
1
 40
1
 10
-30.568470
 20
229.981630
 30
0.0
 10
-30.893341
 20
230.169195
 30
0.0
 10
-31.293599
 20
230.169195
 30
0.0
 10
-31.618470
 20
229.981630
 30
0.0
  0
SPLINE
  5
195
100
AcDbEntity
  8
Layer_1
 62
3
100
AcDbSpline
 70
8
 71
3
 72
8
 73
4
 74
0
 40
0
 40
0
 40
0
 40
0
 40
1
 40
1
 40
1
 40
1
 10
-31.618470
 20
229.981630
 30
0.0
 10
-31.943341
 20
229.794066
 30
0.0
 10
-32.143470
 20
229.447432
 30
0.0
 10
-32.143470
 20
229.072304
 30
0.0
  0
SPLINE
  5
196
100
AcDbEntity
  8
Layer_1
 62
3
100
AcDbSpline
 70
8
 71
3
 72
8
 73
4
 74
0
 40
0
 40
0
 40
0
 40
0
 40
1
 40
1
 40
1
 40
1
 10
-32.143470
 20
229.072304
 30
0.0
 10
-32.143470
 20
228.697175
 30
0.0
 10
-31.943341
 20
228.350541
 30
0.0
 10
-31.618470
 20
228.162977
 30
0.0
  0
SPLINE
  5
197
100
AcDbEntity
  8
Layer_1
 62
3
100
AcDbSpline
 70
8
 71
3
 72
8
 73
4
 74
0
 40
0
 40
0
 40
0
 40
0
 40
1
 40
1
 40
1
 40
1
 10
-31.618470
 20
228.162977
 30
0.0
 10
-31.293599
 20
227.975413
 30
0.0
 10
-30.893341
 20
227.975413
 30
0.0
 10
-30.568470
 20
228.162977
 30
0.0
  0
SPLINE
  5
198
100
AcDbEntity
  8
Layer_1
 62
3
100
AcDbSpline
 70
8
 71
3
 72
8
 73
4
 74
0
 40
0
 40
0
 40
0
 40
0
 40
1
 40
1
 40
1
 40
1
 10
-30.568470
 20
228.162977
 30
0.0
 10
-30.243599
 20
228.350541
 30
0.0
 10
-30.043470
 20
228.697175
 30
0.0
 10
-30.043470
 20
229.072304
 30
0.0
  0
LINE
  5
199
100
AcDbEntity
  8
Layer_1
 62
3
100
AcDbLine
 10
-30.043470
 20
229.072304
 30
0.0
 11
-30.043470
 21
229.072304
 31
0.0
  0
SPLINE
  5
19a
100
AcDbEntity
  8
Layer_1
 62
3
100
AcDbSpline
 70
8
 71
3
 72
8
 73
4
 74
0
 40
0
 40
0
 40
0
 40
0
 40
1
 40
1
 40
1
 40
1
 10
-30.043470
 20
117.534317
 30
0.0
 10
-30.043470
 20
117.159188
 30
0.0
 10
-30.243599
 20
116.812555
 30
0.0
 10
-30.568470
 20
116.624991
 30
0.0
  0
SPLINE
  5
19b
100
AcDbEntity
  8
Layer_1
 62
3
100
AcDbSpline
 70
8
 71
3
 72
8
 73
4
 74
0
 40
0
 40
0
 40
0
 40
0
 40
1
 40
1
 40
1
 40
1
 10
-30.568470
 20
116.624991
 30
0.0
 10
-30.893341
 20
116.437426
 30
0.0
 10
-31.293599
 20
116.437426
 30
0.0
 10
-31.618470
 20
116.624991
 30
0.0
  0
SPLINE
  5
19c
100
AcDbEntity
  8
Layer_1
 62
3
100
AcDbSpline
 70
8
 71
3
 72
8
 73
4
 74
0
 40
0
 40
0
 40
0
 40
0
 40
1
 40
1
 40
1
 40
1
 10
-31.618470
 20
116.624991
 30
0.0
 10
-31.943341
 20
116.812555
 30
0.0
 10
-32.143470
 20
117.159188
 30
0.0
 10
-32.143470
 20
117.534317
 30
0.0
  0
SPLINE
  5
19d
100
AcDbEntity
  8
Layer_1
 62
3
100
AcDbSpline
 70
8
 71
3
 72
8
 73
4
 74
0
 40
0
 40
0
 40
0
 40
0
 40
1
 40
1
 40
1
 40
1
 10
-32.143470
 20
117.534317
 30
0.0
 10
-32.143470
 20
117.909446
 30
0.0
 10
-31.943341
 20
118.256079
 30
0.0
 10
-31.618470
 20
118.443644
 30
0.0
  0
SPLINE
  5
19e
100
AcDbEntity
  8
Layer_1
 62
3
100
AcDbSpline
 70
8
 71
3
 72
8
 73
4
 74
0
 40
0
 40
0
 40
0
 40
0
 40
1
 40
1
 40
1
 40
1
 10
-31.618470
 20
118.443644
 30
0.0
 10
-31.293599
 20
118.631208
 30
0.0
 10
-30.893341
 20
118.631208
 30
0.0
 10
-30.568470
 20
118.443644
 30
0.0
  0
SPLINE
  5
19f
100
AcDbEntity
  8
Layer_1
 62
3
100
AcDbSpline
 70
8
 71
3
 72
8
 73
4
 74
0
 40
0
 40
0
 40
0
 40
0
 40
1
 40
1
 40
1
 40
1
 10
-30.568470
 20
118.443644
 30
0.0
 10
-30.243599
 20
118.256079
 30
0.0
 10
-30.043470
 20
117.909446
 30
0.0
 10
-30.043470
 20
117.534317
 30
0.0
  0
LINE
  5
1a0
100
AcDbEntity
  8
Layer_1
 62
3
100
AcDbLine
 10
-30.043470
 20
117.534317
 30
0.0
 11
-30.043470
 21
117.534317
 31
0.0
  0
SPLINE
  5
1a1
100
AcDbEntity
  8
Layer_1
 62
3
100
AcDbSpline
 70
8
 71
3
 72
8
 73
4
 74
0
 40
0
 40
0
 40
0
 40
0
 40
1
 40
1
 40
1
 40
1
 10
104.450323
 20
117.534317
 30
0.0
 10
104.449758
 20
116.954819
 30
0.0
 10
103.979823
 20
116.485342
 30
0.0
 10
103.400324
 20
116.485342
 30
0.0
  0
SPLINE
  5
1a2
100
AcDbEntity
  8
Layer_1
 62
3
100
AcDbSpline
 70
8
 71
3
 72
8
 73
4
 74
0
 40
0
 40
0
 40
0
 40
0
 40
1
 40
1
 40
1
 40
1
 10
103.400324
 20
116.485342
 30
0.0
 10
102.820825
 20
116.485342
 30
0.0
 10
102.350890
 20
116.954819
 30
0.0
 10
102.350325
 20
117.534317
 30
0.0
  0
SPLINE
  5
1a3
100
AcDbEntity
  8
Layer_1
 62
3
100
AcDbSpline
 70
8
 71
3
 72
8
 73
4
 74
0
 40
0
 40
0
 40
0
 40
0
 40
1
 40
1
 40
1
 40
1
 10
102.350325
 20
117.534317
 30
0.0
 10
102.350890
 20
118.113816
 30
0.0
 10
102.820825
 20
118.583292
 30
0.0
 10
103.400324
 20
118.583292
 30
0.0
  0
SPLINE
  5
1a4
100
AcDbEntity
  8
Layer_1
 62
3
100
AcDbSpline
 70
8
 71
3
 72
8
 73
4
 74
0
 40
0
 40
0
 40
0
 40
0
 40
1
 40
1
 40
1
 40
1
 10
103.400324
 20
118.583292
 30
0.0
 10
103.979823
 20
118.583292
 30
0.0
 10
104.449758
 20
118.113816
 30
0.0
 10
104.450323
 20
117.534317
 30
0.0
  0
LINE
  5
1a5
100
AcDbEntity
  8
Layer_1
 62
3
100
AcDbLine
 10
104.450323
 20
117.534317
 30
0.0
 11
104.450323
 21
117.534317
 31
0.0
  0
SPLINE
  5
1a6
100
AcDbEntity
  8
Layer_1
 62
3
100
AcDbSpline
 70
8
 71
3
 72
8
 73
4
 74
0
 40
0
 40
0
 40
0
 40
0
 40
1
 40
1
 40
1
 40
1
 10
104.450323
 20
229.073852
 30
0.0
 10
104.449758
 20
229.653350
 30
0.0
 10
103.979823
 20
230.122827
 30
0.0
 10
103.400324
 20
230.122827
 30
0.0
  0
SPLINE
  5
1a7
100
AcDbEntity
  8
Layer_1
 62
3
100
AcDbSpline
 70
8
 71
3
 72
8
 73
4
 74
0
 40
0
 40
0
 40
0
 40
0
 40
1
 40
1
 40
1
 40
1
 10
103.400324
 20
230.122827
 30
0.0
 10
102.820825
 20
230.122827
 30
0.0
 10
102.350890
 20
229.653350
 30
0.0
 10
102.350325
 20
229.073852
 30
0.0
  0
SPLINE
  5
1a8
100
AcDbEntity
  8
Layer_1
 62
3
100
AcDbSpline
 70
8
 71
3
 72
8
 73
4
 74
0
 40
0
 40
0
 40
0
 40
0
 40
1
 40
1
 40
1
 40
1
 10
102.350325
 20
229.073852
 30
0.0
 10
102.350890
 20
228.494353
 30
0.0
 10
102.820825
 20
228.024876
 30
0.0
 10
103.400324
 20
228.024876
 30
0.0
  0
SPLINE
  5
1a9
100
AcDbEntity
  8
Layer_1
 62
3
100
AcDbSpline
 70
8
 71
3
 72
8
 73
4
 74
0
 40
0
 40
0
 40
0
 40
0
 40
1
 40
1
 40
1
 40
1
 10
103.400324
 20
228.024876
 30
0.0
 10
103.979823
 20
228.024876
 30
0.0
 10
104.449758
 20
228.494353
 30
0.0
 10
104.450323
 20
229.073852
 30
0.0
  0
LINE
  5
1aa
100
AcDbEntity
  8
Layer_1
 62
3
100
AcDbLine
 10
104.450323
 20
229.073852
 30
0.0
 11
104.450323
 21
229.073852
 31
0.0
  0
SPLINE
  5
1ab
100
AcDbEntity
  8
Layer_1
 62
3
100
AcDbSpline
 70
8
 71
3
 72
8
 73
4
 74
0
 40
0
 40
0
 40
0
 40
0
 40
1
 40
1
 40
1
 40
1
 10
239.109631
 20
229.073841
 30
0.0
 10
239.109065
 20
229.653339
 30
0.0
 10
238.639130
 20
230.122816
 30
0.0
 10
238.059631
 20
230.122816
 30
0.0
  0
SPLINE
  5
1ac
100
AcDbEntity
  8
Layer_1
 62
3
100
AcDbSpline
 70
8
 71
3
 72
8
 73
4
 74
0
 40
0
 40
0
 40
0
 40
0
 40
1
 40
1
 40
1
 40
1
 10
238.059631
 20
230.122816
 30
0.0
 10
237.480133
 20
230.122816
 30
0.0
 10
237.010197
 20
229.653339
 30
0.0
 10
237.009632
 20
229.073841
 30
0.0
  0
SPLINE
  5
1ad
100
AcDbEntity
  8
Layer_1
 62
3
100
AcDbSpline
 70
8
 71
3
 72
8
 73
4
 74
0
 40
0
 40
0
 40
0
 40
0
 40
1
 40
1
 40
1
 40
1
 10
237.009632
 20
229.073841
 30
0.0
 10
237.010197
 20
228.494342
 30
0.0
 10
237.480133
 20
228.024865
 30
0.0
 10
238.059631
 20
228.024865
 30
0.0
  0
SPLINE
  5
1ae
100
AcDbEntity
  8
Layer_1
 62
3
100
AcDbSpline
 70
8
 71
3
 72
8
 73
4
 74
0
 40
0
 40
0
 40
0
 40
0
 40
1
 40
1
 40
1
 40
1
 10
238.059631
 20
228.024865
 30
0.0
 10
238.639130
 20
228.024865
 30
0.0
 10
239.109065
 20
228.494342
 30
0.0
 10
239.109631
 20
229.073841
 30
0.0
  0
LINE
  5
1af
100
AcDbEntity
  8
Layer_1
 62
3
100
AcDbLine
 10
239.109631
 20
229.073841
 30
0.0
 11
239.109631
 21
229.073841
 31
0.0
  0
SPLINE
  5
1b0
100
AcDbEntity
  8
Layer_1
 62
3
100
AcDbSpline
 70
8
 71
3
 72
8
 73
4
 74
0
 40
0
 40
0
 40
0
 40
0
 40
1
 40
1
 40
1
 40
1
 10
239.096531
 20
117.533807
 30
0.0
 10
239.095965
 20
116.954309
 30
0.0
 10
238.626030
 20
116.484832
 30
0.0
 10
238.046531
 20
116.484832
 30
0.0
  0
SPLINE
  5
1b1
100
AcDbEntity
  8
Layer_1
 62
3
100
AcDbSpline
 70
8
 71
3
 72
8
 73
4
 74
0
 40
0
 40
0
 40
0
 40
0
 40
1
 40
1
 40
1
 40
1
 10
238.046531
 20
116.484832
 30
0.0
 10
237.467033
 20
116.484832
 30
0.0
 10
236.997097
 20
116.954309
 30
0.0
 10
236.996532
 20
117.533807
 30
0.0
  0
SPLINE
  5
1b2
100
AcDbEntity
  8
Layer_1
 62
3
100
AcDbSpline
 70
8
 71
3
 72
8
 73
4
 74
0
 40
0
 40
0
 40
0
 40
0
 40
1
 40
1
 40
1
 40
1
 10
236.996532
 20
117.533807
 30
0.0
 10
236.997097
 20
118.113306
 30
0.0
 10
237.467033
 20
118.582782
 30
0.0
 10
238.046531
 20
118.582782
 30
0.0
  0
SPLINE
  5
1b3
100
AcDbEntity
  8
Layer_1
 62
3
100
AcDbSpline
 70
8
 71
3
 72
8
 73
4
 74
0
 40
0
 40
0
 40
0
 40
0
 40
1
 40
1
 40
1
 40
1
 10
238.046531
 20
118.582782
 30
0.0
 10
238.626030
 20
118.582782
 30
0.0
 10
239.095965
 20
118.113306
 30
0.0
 10
239.096531
 20
117.533807
 30
0.0
  0
LINE
  5
1b4
100
AcDbEntity
  8
Layer_1
 62
3
100
AcDbLine
 10
239.096531
 20
117.533807
 30
0.0
 11
239.096531
 21
117.533807
 31
0.0
  0
ENDSEC
  0
SECTION
  2
OBJECTS
  0
DICTIONARY
  5
C
330
0
100
AcDbDictionary
  3
ACAD_GROUP
350
D
  3
ACAD_MLINESTYLE
350
17
  0
DICTIONARY
  5
D
330
C
100
AcDbDictionary
  0
DICTIONARY
  5
1A
330
C
100
AcDbDictionary
  0
DICTIONARY
  5
17
330
C
100
AcDbDictionary
  3
STANDARD
350
18
  0
DICTIONARY
  5
19
330
C
100
AcDbDictionary
  0
ENDSEC
  0
EOF
