  0
SECTION
  2
HEADER
  9
$ACADVER
  1
AC1014
  9
$HANDSEED
  5
FFFF
  9
$INSUNITS
 70
     0
  9
$MEASUREMENT
 70
     1
  0
ENDSEC
  0
SECTION
  2
TABLES
  0
TABLE
  2
VPORT
  5
8
330
0
100
AcDbSymbolTable
 70
     4
  0
VPORT
  5
2E
330
8
100
AcDbSymbolTableRecord
100
AcDbViewportTableRecord
  2
*ACTIVE
 70
     0
 10
0.0
 20
0.0
 11
1.0
 21
1.0
 12
210.0
 22
148.5
 13
0.0
 23
0.0
 14
10.0
 24
10.0
 15
10.0
 25
10.0
 16
0.0
 26
0.0
 36
1.0
 17
0.0
 27
0.0
 37
0.0
 40
341.0
 41
1.24
 42
50.0
 43
0.0
 44
0.0
 50
0.0
 51
0.0
 71
     0
 72
   100
 73
     1
 74
     3
 75
     0
 76
     0
 77
     0
 78
     0
  0
ENDTAB
  0
TABLE
  2
LTYPE
  5
5
330
0
100
AcDbSymbolTable
 70
     1
  0
LTYPE
  5
14
330
5
100
AcDbSymbolTableRecord
100
AcDbLinetypeTableRecord
  2
BYBLOCK
 70
     0
  3

 72
    65
 73
     0
 40
0.0
  0
LTYPE
  5
15
330
5
100
AcDbSymbolTableRecord
100
AcDbLinetypeTableRecord
  2
BYLAYER
 70
     0
  3

 72
    65
 73
     0
 40
0.0
  0
LTYPE
  5
16
330
5
100
AcDbSymbolTableRecord
100
AcDbLinetypeTableRecord
  2
CONTINUOUS
 70
     0
  3
Solid line
 72
    65
 73
     0
 40
0.0
  0
ENDTAB
  0
TABLE
  2
LAYER
  5
2
100
AcDbSymbolTable
 70
2
  0
LAYER
  5
50
100
AcDbSymbolTableRecord
100
AcDbLayerTableRecord
  2
0
 70
0
  6
CONTINUOUS
  0
LAYER
  5
51
100
AcDbSymbolTableRecord
100
AcDbLayerTableRecord
  2
Layer_1
 70
0
  6
CONTINUOUS
  0
ENDTAB
  0
TABLE
  2
STYLE
  5
3
330
0
100
AcDbSymbolTable
 70
     1
  0
STYLE
  5
11
330
3
100
AcDbSymbolTableRecord
100
AcDbTextStyleTableRecord
  2
STANDARD
 70
     0
 40
0.0
 41
1.0
 50
0.0
 71
     0
 42
2.5
  3
txt
  4

  0
ENDTAB
  0
TABLE
  2
VIEW
  5
6
330
0
100
AcDbSymbolTable
 70
     0
  0
ENDTAB
  0
TABLE
  2
UCS
  5
7
330
0
100
AcDbSymbolTable
 70
     0
  0
ENDTAB
  0
TABLE
  2
APPID
  5
9
330
0
100
AcDbSymbolTable
 70
     2
  0
APPID
  5
12
330
9
100
AcDbSymbolTableRecord
100
AcDbRegAppTableRecord
  2
ACAD
 70
     0
  0
ENDTAB
  0
TABLE
  2
DIMSTYLE
  5
A
330
0
100
AcDbSymbolTable
 70
     1
  0
DIMSTYLE
105
27
330
A
100
AcDbSymbolTableRecord
100
AcDbDimStyleTableRecord
  2
ISO-25
 70
     0
  3

  4

  5

  6

  7

 40
1.0
 41
2.5
 42
0.625
 43
3.75
 44
1.25
 45
0.0
 46
0.0
 47
0.0
 48
0.0
140
2.5
141
2.5
142
0.0
143
0.03937007874016
144
1.0
145
0.0
146
1.0
147
0.625
 71
     0
 72
     0
 73
     0
 74
     0
 75
     0
 76
     0
 77
     1
 78
     8
170
     0
171
     3
172
     1
173
     0
174
     0
175
     0
176
     0
177
     0
178
     0
270
     2
271
     2
272
     2
273
     2
274
     3
340
11
275
     0
280
     0
281
     0
282
     0
283
     0
284
     8
285
     0
286
     0
287
     3
288
     0
  0
ENDTAB
  0
TABLE
  2
BLOCK_RECORD
  5
1
330
0
100
AcDbSymbolTable
 70
     1
  0
BLOCK_RECORD
  5
1F
330
1
100
AcDbSymbolTableRecord
100
AcDbBlockTableRecord
  2
*MODEL_SPACE
  0
BLOCK_RECORD
  5
1B
330
1
100
AcDbSymbolTableRecord
100
AcDbBlockTableRecord
  2
*PAPER_SPACE
  0
ENDTAB
  0
ENDSEC
  0
SECTION
  2
BLOCKS
  0
BLOCK
  5
20
330
1F
100
AcDbEntity
  8
0
100
AcDbBlockBegin
  2
*MODEL_SPACE
 70
     0
 10
0.0
 20
0.0
 30
0.0
  3
*MODEL_SPACE
  1

  0
ENDBLK
  5
21
330
1F
100
AcDbEntity
  8
0
100
AcDbBlockEnd
  0
BLOCK
  5
1C
330
1B
100
AcDbEntity
 67
     1
  8
0
100
AcDbBlockBegin
  2
*PAPER_SPACE
  1

  0
ENDBLK
  5
1D
330
1B
100
AcDbEntity
 67
     1
  8
0
100
AcDbBlockEnd
  0
ENDSEC
  0
SECTION
  2
ENTITIES
  0
LINE
  5
100
100
AcDbEntity
  8
Layer_1
 62
1
100
AcDbLine
 10
-50.231989
 20
209.850355
 30
0.0
 11
-50.231989
 21
174.079210
 31
0.0
  0
LINE
  5
101
100
AcDbEntity
  8
Layer_1
 62
1
100
AcDbLine
 10
-50.231989
 20
174.079210
 30
0.0
 11
-50.231989
 21
144.133433
 31
0.0
  0
LINE
  5
102
100
AcDbEntity
  8
Layer_1
 62
1
100
AcDbLine
 10
-50.231989
 20
144.133433
 30
0.0
 11
-50.231989
 21
108.362290
 31
0.0
  0
SPLINE
  5
103
100
AcDbEntity
  8
Layer_1
 62
1
100
AcDbSpline
 70
8
 71
3
 72
8
 73
4
 74
0
 40
0
 40
0
 40
0
 40
0
 40
1
 40
1
 40
1
 40
1
 10
-50.180792
 20
210.166156
 30
0.0
 10
-50.214712
 20
210.064355
 30
0.0
 10
-50.231989
 20
209.957656
 30
0.0
 10
-50.231989
 20
209.850355
 30
0.0
  0
SPLINE
  5
104
100
AcDbEntity
  8
Layer_1
 62
1
100
AcDbSpline
 70
8
 71
3
 72
8
 73
4
 74
0
 40
0
 40
0
 40
0
 40
0
 40
1
 40
1
 40
1
 40
1
 10
-49.286793
 20
210.850754
 30
0.0
 10
-49.705310
 20
210.850754
 30
0.0
 10
-50.071704
 20
210.570155
 30
0.0
 10
-50.180792
 20
210.166156
 30
0.0
  0
LINE
  5
105
100
AcDbEntity
  8
Layer_1
 62
1
100
AcDbLine
 10
-49.286793
 20
210.850754
 30
0.0
 11
-38.657012
 21
210.850754
 31
0.0
  0
SPLINE
  5
106
100
AcDbEntity
  8
Layer_1
 62
1
100
AcDbSpline
 70
8
 71
3
 72
8
 73
4
 74
0
 40
0
 40
0
 40
0
 40
0
 40
1
 40
1
 40
1
 40
1
 10
-38.657012
 20
210.850754
 30
0.0
 10
-37.841726
 20
210.850754
 30
0.0
 10
-37.059804
 20
211.174653
 30
0.0
 10
-36.483409
 20
211.751153
 30
0.0
  0
SPLINE
  5
107
100
AcDbEntity
  8
Layer_1
 62
1
100
AcDbSpline
 70
8
 71
3
 72
8
 73
4
 74
0
 40
0
 40
0
 40
0
 40
0
 40
1
 40
1
 40
1
 40
1
 10
-36.483409
 20
211.751153
 30
0.0
 10
-35.906910
 20
212.327553
 30
0.0
 10
-35.583007
 20
213.109451
 30
0.0
 10
-35.583007
 20
213.924750
 30
0.0
  0
LINE
  5
108
100
AcDbEntity
  8
Layer_1
 62
1
100
AcDbLine
 10
-35.583007
 20
213.924750
 30
0.0
 11
-35.583007
 21
214.850349
 31
0.0
  0
SPLINE
  5
109
100
AcDbEntity
  8
Layer_1
 62
1
100
AcDbSpline
 70
8
 71
3
 72
8
 73
4
 74
0
 40
0
 40
0
 40
0
 40
0
 40
1
 40
1
 40
1
 40
1
 10
-32.657010
 20
217.776346
 30
0.0
 10
-33.433032
 20
217.776346
 30
0.0
 10
-34.177331
 20
217.468046
 30
0.0
 10
-34.726023
 20
216.919346
 30
0.0
  0
SPLINE
  5
10a
100
AcDbEntity
  8
Layer_1
 62
1
100
AcDbSpline
 70
8
 71
3
 72
8
 73
4
 74
0
 40
0
 40
0
 40
0
 40
0
 40
1
 40
1
 40
1
 40
1
 10
-34.726023
 20
216.919346
 30
0.0
 10
-35.274715
 20
216.370648
 30
0.0
 10
-35.583007
 20
215.626347
 30
0.0
 10
-35.583007
 20
214.850349
 30
0.0
  0
LINE
  5
10b
100
AcDbEntity
  8
Layer_1
 62
1
100
AcDbLine
 10
-32.657010
 20
217.776346
 30
0.0
 11
-28.657018
 21
217.776346
 31
0.0
  0
SPLINE
  5
10c
100
AcDbEntity
  8
Layer_1
 62
1
100
AcDbSpline
 70
8
 71
3
 72
8
 73
4
 74
0
 40
0
 40
0
 40
0
 40
0
 40
1
 40
1
 40
1
 40
1
 10
-25.731021
 20
214.850349
 30
0.0
 10
-25.731021
 20
215.626347
 30
0.0
 10
-26.039340
 20
216.370648
 30
0.0
 10
-26.588032
 20
216.919346
 30
0.0
  0
SPLINE
  5
10d
100
AcDbEntity
  8
Layer_1
 62
1
100
AcDbSpline
 70
8
 71
3
 72
8
 73
4
 74
0
 40
0
 40
0
 40
0
 40
0
 40
1
 40
1
 40
1
 40
1
 10
-26.588032
 20
216.919346
 30
0.0
 10
-27.136724
 20
217.468046
 30
0.0
 10
-27.881022
 20
217.776346
 30
0.0
 10
-28.657018
 20
217.776346
 30
0.0
  0
LINE
  5
10e
100
AcDbEntity
  8
Layer_1
 62
1
100
AcDbLine
 10
-25.731021
 20
214.850349
 30
0.0
 11
-25.731021
 21
213.924750
 31
0.0
  0
SPLINE
  5
10f
100
AcDbEntity
  8
Layer_1
 62
1
100
AcDbSpline
 70
8
 71
3
 72
8
 73
4
 74
0
 40
0
 40
0
 40
0
 40
0
 40
1
 40
1
 40
1
 40
1
 10
-25.731021
 20
213.924750
 30
0.0
 10
-25.731021
 20
213.109451
 30
0.0
 10
-25.407118
 20
212.327553
 30
0.0
 10
-24.830619
 20
211.751153
 30
0.0
  0
SPLINE
  5
110
100
AcDbEntity
  8
Layer_1
 62
1
100
AcDbSpline
 70
8
 71
3
 72
8
 73
4
 74
0
 40
0
 40
0
 40
0
 40
0
 40
1
 40
1
 40
1
 40
1
 10
-24.830619
 20
211.751153
 30
0.0
 10
-24.254224
 20
211.174653
 30
0.0
 10
-23.472329
 20
210.850754
 30
0.0
 10
-22.657043
 20
210.850754
 30
0.0
  0
LINE
  5
111
100
AcDbEntity
  8
Layer_1
 62
1
100
AcDbLine
 10
98.918713
 20
213.924750
 30
0.0
 11
98.918713
 21
214.850349
 31
0.0
  0
SPLINE
  5
112
100
AcDbEntity
  8
Layer_1
 62
1
100
AcDbSpline
 70
8
 71
3
 72
8
 73
4
 74
0
 40
0
 40
0
 40
0
 40
0
 40
1
 40
1
 40
1
 40
1
 10
101.844710
 20
217.776346
 30
0.0
 10
101.068688
 20
217.776346
 30
0.0
 10
100.324390
 20
217.468046
 30
0.0
 10
99.775698
 20
216.919346
 30
0.0
  0
SPLINE
  5
113
100
AcDbEntity
  8
Layer_1
 62
1
100
AcDbSpline
 70
8
 71
3
 72
8
 73
4
 74
0
 40
0
 40
0
 40
0
 40
0
 40
1
 40
1
 40
1
 40
1
 10
99.775698
 20
216.919346
 30
0.0
 10
99.227006
 20
216.370648
 30
0.0
 10
98.918713
 20
215.626347
 30
0.0
 10
98.918713
 20
214.850349
 30
0.0
  0
LINE
  5
114
100
AcDbEntity
  8
Layer_1
 62
1
100
AcDbLine
 10
101.844710
 20
217.776346
 30
0.0
 11
105.844703
 21
217.776346
 31
0.0
  0
SPLINE
  5
115
100
AcDbEntity
  8
Layer_1
 62
1
100
AcDbSpline
 70
8
 71
3
 72
8
 73
4
 74
0
 40
0
 40
0
 40
0
 40
0
 40
1
 40
1
 40
1
 40
1
 10
108.770700
 20
214.850349
 30
0.0
 10
108.770700
 20
215.626347
 30
0.0
 10
108.462381
 20
216.370648
 30
0.0
 10
107.913689
 20
216.919346
 30
0.0
  0
SPLINE
  5
116
100
AcDbEntity
  8
Layer_1
 62
1
100
AcDbSpline
 70
8
 71
3
 72
8
 73
4
 74
0
 40
0
 40
0
 40
0
 40
0
 40
1
 40
1
 40
1
 40
1
 10
107.913689
 20
216.919346
 30
0.0
 10
107.364997
 20
217.468046
 30
0.0
 10
106.620698
 20
217.776346
 30
0.0
 10
105.844703
 20
217.776346
 30
0.0
  0
LINE
  5
117
100
AcDbEntity
  8
Layer_1
 62
1
100
AcDbLine
 10
108.770700
 20
214.850349
 30
0.0
 11
108.770700
 21
213.924750
 31
0.0
  0
SPLINE
  5
118
100
AcDbEntity
  8
Layer_1
 62
1
100
AcDbSpline
 70
8
 71
3
 72
8
 73
4
 74
0
 40
0
 40
0
 40
0
 40
0
 40
1
 40
1
 40
1
 40
1
 10
108.770700
 20
213.924750
 30
0.0
 10
108.770700
 20
213.109451
 30
0.0
 10
109.094602
 20
212.327553
 30
0.0
 10
109.671102
 20
211.751153
 30
0.0
  0
SPLINE
  5
119
100
AcDbEntity
  8
Layer_1
 62
1
100
AcDbSpline
 70
8
 71
3
 72
8
 73
4
 74
0
 40
0
 40
0
 40
0
 40
0
 40
1
 40
1
 40
1
 40
1
 10
109.671102
 20
211.751153
 30
0.0
 10
110.247496
 20
211.174653
 30
0.0
 10
111.029392
 20
210.850754
 30
0.0
 10
111.844678
 20
210.850754
 30
0.0
  0
LINE
  5
11a
100
AcDbEntity
  8
Layer_1
 62
1
100
AcDbLine
 10
111.844678
 20
210.850754
 30
0.0
 11
223.206834
 21
210.850754
 31
0.0
  0
LINE
  5
11b
100
AcDbEntity
  8
Layer_1
 62
1
100
AcDbLine
 10
223.206834
 20
210.850754
 30
0.0
 11
230.497313
 21
210.850754
 31
0.0
  0
LINE
  5
11c
100
AcDbEntity
  8
Layer_1
 62
1
100
AcDbLine
 10
98.918713
 20
104.272020
 30
0.0
 11
98.918713
 21
103.346421
 31
0.0
  0
SPLINE
  5
11d
100
AcDbEntity
  8
Layer_1
 62
1
100
AcDbSpline
 70
8
 71
3
 72
8
 73
4
 74
0
 40
0
 40
0
 40
0
 40
0
 40
1
 40
1
 40
1
 40
1
 10
101.844710
 20
100.420424
 30
0.0
 10
101.068688
 20
100.420424
 30
0.0
 10
100.324390
 20
100.728724
 30
0.0
 10
99.775698
 20
101.277424
 30
0.0
  0
SPLINE
  5
11e
100
AcDbEntity
  8
Layer_1
 62
1
100
AcDbSpline
 70
8
 71
3
 72
8
 73
4
 74
0
 40
0
 40
0
 40
0
 40
0
 40
1
 40
1
 40
1
 40
1
 10
99.775698
 20
101.277424
 30
0.0
 10
99.227006
 20
101.826122
 30
0.0
 10
98.918713
 20
102.570423
 30
0.0
 10
98.918713
 20
103.346421
 30
0.0
  0
LINE
  5
11f
100
AcDbEntity
  8
Layer_1
 62
1
100
AcDbLine
 10
101.844710
 20
100.420424
 30
0.0
 11
105.844703
 21
100.420424
 31
0.0
  0
SPLINE
  5
120
100
AcDbEntity
  8
Layer_1
 62
1
100
AcDbSpline
 70
8
 71
3
 72
8
 73
4
 74
0
 40
0
 40
0
 40
0
 40
0
 40
1
 40
1
 40
1
 40
1
 10
108.770700
 20
103.346421
 30
0.0
 10
108.770700
 20
102.570423
 30
0.0
 10
108.462381
 20
101.826122
 30
0.0
 10
107.913689
 20
101.277424
 30
0.0
  0
SPLINE
  5
121
100
AcDbEntity
  8
Layer_1
 62
1
100
AcDbSpline
 70
8
 71
3
 72
8
 73
4
 74
0
 40
0
 40
0
 40
0
 40
0
 40
1
 40
1
 40
1
 40
1
 10
107.913689
 20
101.277424
 30
0.0
 10
107.364997
 20
100.728724
 30
0.0
 10
106.620698
 20
100.420424
 30
0.0
 10
105.844703
 20
100.420424
 30
0.0
  0
LINE
  5
122
100
AcDbEntity
  8
Layer_1
 62
1
100
AcDbLine
 10
108.770700
 20
103.346421
 30
0.0
 11
108.770700
 21
104.272020
 31
0.0
  0
SPLINE
  5
123
100
AcDbEntity
  8
Layer_1
 62
1
100
AcDbSpline
 70
8
 71
3
 72
8
 73
4
 74
0
 40
0
 40
0
 40
0
 40
0
 40
1
 40
1
 40
1
 40
1
 10
108.770700
 20
104.272020
 30
0.0
 10
108.770700
 20
105.087319
 30
0.0
 10
109.094602
 20
105.869217
 30
0.0
 10
109.671102
 20
106.445616
 30
0.0
  0
SPLINE
  5
124
100
AcDbEntity
  8
Layer_1
 62
1
100
AcDbSpline
 70
8
 71
3
 72
8
 73
4
 74
0
 40
0
 40
0
 40
0
 40
0
 40
1
 40
1
 40
1
 40
1
 10
109.671102
 20
106.445616
 30
0.0
 10
110.247496
 20
107.022116
 30
0.0
 10
111.029392
 20
107.346016
 30
0.0
 10
111.844678
 20
107.346016
 30
0.0
  0
LINE
  5
125
100
AcDbEntity
  8
Layer_1
 62
1
100
AcDbLine
 10
111.844678
 20
107.346016
 30
0.0
 11
223.206834
 21
107.361891
 31
0.0
  0
LINE
  5
126
100
AcDbEntity
  8
Layer_1
 62
1
100
AcDbLine
 10
223.206834
 20
107.361891
 30
0.0
 11
230.497313
 21
107.361891
 31
0.0
  0
LINE
  5
127
100
AcDbEntity
  8
Layer_1
 62
1
100
AcDbLine
 10
-22.657043
 20
210.850754
 30
0.0
 11
-15.366564
 21
210.850754
 31
0.0
  0
LINE
  5
128
100
AcDbEntity
  8
Layer_1
 62
1
100
AcDbLine
 10
-15.366564
 20
210.850754
 30
0.0
 11
95.844709
 21
210.850754
 31
0.0
  0
SPLINE
  5
129
100
AcDbEntity
  8
Layer_1
 62
1
100
AcDbSpline
 70
8
 71
3
 72
8
 73
4
 74
0
 40
0
 40
0
 40
0
 40
0
 40
1
 40
1
 40
1
 40
1
 10
95.844709
 20
210.850754
 30
0.0
 10
96.659995
 20
210.850754
 30
0.0
 10
97.441917
 20
211.174653
 30
0.0
 10
98.018311
 20
211.751153
 30
0.0
  0
SPLINE
  5
12a
100
AcDbEntity
  8
Layer_1
 62
1
100
AcDbSpline
 70
8
 71
3
 72
8
 73
4
 74
0
 40
0
 40
0
 40
0
 40
0
 40
1
 40
1
 40
1
 40
1
 10
98.018311
 20
211.751153
 30
0.0
 10
98.594811
 20
212.327553
 30
0.0
 10
98.918713
 20
213.109451
 30
0.0
 10
98.918713
 20
213.924750
 30
0.0
  0
SPLINE
  5
12b
100
AcDbEntity
  8
Layer_1
 62
1
100
AcDbSpline
 70
8
 71
3
 72
8
 73
4
 74
0
 40
0
 40
0
 40
0
 40
0
 40
1
 40
1
 40
1
 40
1
 10
-50.180792
 20
108.046489
 30
0.0
 10
-50.214712
 20
108.148290
 30
0.0
 10
-50.231989
 20
108.254988
 30
0.0
 10
-50.231989
 20
108.362290
 30
0.0
  0
SPLINE
  5
12c
100
AcDbEntity
  8
Layer_1
 62
1
100
AcDbSpline
 70
8
 71
3
 72
8
 73
4
 74
0
 40
0
 40
0
 40
0
 40
0
 40
1
 40
1
 40
1
 40
1
 10
-49.286793
 20
107.361891
 30
0.0
 10
-49.705310
 20
107.361891
 30
0.0
 10
-50.071704
 20
107.642489
 30
0.0
 10
-50.180792
 20
108.046489
 30
0.0
  0
LINE
  5
12d
100
AcDbEntity
  8
Layer_1
 62
1
100
AcDbLine
 10
-49.286793
 20
107.361891
 30
0.0
 11
-38.657012
 21
107.361891
 31
0.0
  0
SPLINE
  5
12e
100
AcDbEntity
  8
Layer_1
 62
1
100
AcDbSpline
 70
8
 71
3
 72
8
 73
4
 74
0
 40
0
 40
0
 40
0
 40
0
 40
1
 40
1
 40
1
 40
1
 10
-38.657012
 20
107.361891
 30
0.0
 10
-37.841726
 20
107.361891
 30
0.0
 10
-37.059804
 20
107.037991
 30
0.0
 10
-36.483409
 20
106.461491
 30
0.0
  0
SPLINE
  5
12f
100
AcDbEntity
  8
Layer_1
 62
1
100
AcDbSpline
 70
8
 71
3
 72
8
 73
4
 74
0
 40
0
 40
0
 40
0
 40
0
 40
1
 40
1
 40
1
 40
1
 10
-36.483409
 20
106.461491
 30
0.0
 10
-35.906910
 20
105.885092
 30
0.0
 10
-35.583007
 20
105.103194
 30
0.0
 10
-35.583007
 20
104.287894
 30
0.0
  0
LINE
  5
130
100
AcDbEntity
  8
Layer_1
 62
1
100
AcDbLine
 10
-35.583007
 20
104.287894
 30
0.0
 11
-35.583007
 21
103.362296
 31
0.0
  0
SPLINE
  5
131
100
AcDbEntity
  8
Layer_1
 62
1
100
AcDbSpline
 70
8
 71
3
 72
8
 73
4
 74
0
 40
0
 40
0
 40
0
 40
0
 40
1
 40
1
 40
1
 40
1
 10
-32.657010
 20
100.436299
 30
0.0
 10
-33.433032
 20
100.436299
 30
0.0
 10
-34.177331
 20
100.744599
 30
0.0
 10
-34.726023
 20
101.293299
 30
0.0
  0
SPLINE
  5
132
100
AcDbEntity
  8
Layer_1
 62
1
100
AcDbSpline
 70
8
 71
3
 72
8
 73
4
 74
0
 40
0
 40
0
 40
0
 40
0
 40
1
 40
1
 40
1
 40
1
 10
-34.726023
 20
101.293299
 30
0.0
 10
-35.274715
 20
101.841997
 30
0.0
 10
-35.583007
 20
102.586298
 30
0.0
 10
-35.583007
 20
103.362296
 30
0.0
  0
LINE
  5
133
100
AcDbEntity
  8
Layer_1
 62
1
100
AcDbLine
 10
-32.657010
 20
100.436299
 30
0.0
 11
-28.657018
 21
100.436299
 31
0.0
  0
SPLINE
  5
134
100
AcDbEntity
  8
Layer_1
 62
1
100
AcDbSpline
 70
8
 71
3
 72
8
 73
4
 74
0
 40
0
 40
0
 40
0
 40
0
 40
1
 40
1
 40
1
 40
1
 10
-25.731021
 20
103.362296
 30
0.0
 10
-25.731021
 20
102.586298
 30
0.0
 10
-26.039340
 20
101.841997
 30
0.0
 10
-26.588032
 20
101.293299
 30
0.0
  0
SPLINE
  5
135
100
AcDbEntity
  8
Layer_1
 62
1
100
AcDbSpline
 70
8
 71
3
 72
8
 73
4
 74
0
 40
0
 40
0
 40
0
 40
0
 40
1
 40
1
 40
1
 40
1
 10
-26.588032
 20
101.293299
 30
0.0
 10
-27.136724
 20
100.744599
 30
0.0
 10
-27.881022
 20
100.436299
 30
0.0
 10
-28.657018
 20
100.436299
 30
0.0
  0
LINE
  5
136
100
AcDbEntity
  8
Layer_1
 62
1
100
AcDbLine
 10
-25.731021
 20
103.362296
 30
0.0
 11
-25.731021
 21
104.287894
 31
0.0
  0
SPLINE
  5
137
100
AcDbEntity
  8
Layer_1
 62
1
100
AcDbSpline
 70
8
 71
3
 72
8
 73
4
 74
0
 40
0
 40
0
 40
0
 40
0
 40
1
 40
1
 40
1
 40
1
 10
-25.731021
 20
104.287894
 30
0.0
 10
-25.731021
 20
105.103194
 30
0.0
 10
-25.407118
 20
105.885092
 30
0.0
 10
-24.830619
 20
106.461491
 30
0.0
  0
SPLINE
  5
138
100
AcDbEntity
  8
Layer_1
 62
1
100
AcDbSpline
 70
8
 71
3
 72
8
 73
4
 74
0
 40
0
 40
0
 40
0
 40
0
 40
1
 40
1
 40
1
 40
1
 10
-24.830619
 20
106.461491
 30
0.0
 10
-24.254224
 20
107.037991
 30
0.0
 10
-23.472329
 20
107.361891
 30
0.0
 10
-22.657043
 20
107.361891
 30
0.0
  0
LINE
  5
139
100
AcDbEntity
  8
Layer_1
 62
1
100
AcDbLine
 10
-22.657043
 20
107.361891
 30
0.0
 11
-15.366564
 21
107.361891
 31
0.0
  0
LINE
  5
13a
100
AcDbEntity
  8
Layer_1
 62
1
100
AcDbLine
 10
-15.366564
 20
107.361891
 30
0.0
 11
95.844709
 21
107.346016
 31
0.0
  0
SPLINE
  5
13b
100
AcDbEntity
  8
Layer_1
 62
1
100
AcDbSpline
 70
8
 71
3
 72
8
 73
4
 74
0
 40
0
 40
0
 40
0
 40
0
 40
1
 40
1
 40
1
 40
1
 10
95.844709
 20
107.346016
 30
0.0
 10
96.659995
 20
107.346016
 30
0.0
 10
97.441917
 20
107.022116
 30
0.0
 10
98.018311
 20
106.445616
 30
0.0
  0
SPLINE
  5
13c
100
AcDbEntity
  8
Layer_1
 62
1
100
AcDbSpline
 70
8
 71
3
 72
8
 73
4
 74
0
 40
0
 40
0
 40
0
 40
0
 40
1
 40
1
 40
1
 40
1
 10
98.018311
 20
106.445616
 30
0.0
 10
98.594811
 20
105.869217
 30
0.0
 10
98.918713
 20
105.087319
 30
0.0
 10
98.918713
 20
104.272020
 30
0.0
  0
LINE
  5
13d
100
AcDbEntity
  8
Layer_1
 62
1
100
AcDbLine
 10
258.072259
 20
209.850355
 30
0.0
 11
258.072259
 21
174.079210
 31
0.0
  0
LINE
  5
13e
100
AcDbEntity
  8
Layer_1
 62
1
100
AcDbLine
 10
258.072259
 20
174.079210
 30
0.0
 11
258.072259
 21
144.133433
 31
0.0
  0
LINE
  5
13f
100
AcDbEntity
  8
Layer_1
 62
1
100
AcDbLine
 10
258.072259
 20
144.133433
 30
0.0
 11
258.072259
 21
108.362290
 31
0.0
  0
SPLINE
  5
140
100
AcDbEntity
  8
Layer_1
 62
1
100
AcDbSpline
 70
8
 71
3
 72
8
 73
4
 74
0
 40
0
 40
0
 40
0
 40
0
 40
1
 40
1
 40
1
 40
1
 10
258.021062
 20
210.166156
 30
0.0
 10
258.054982
 20
210.064355
 30
0.0
 10
258.072259
 20
209.957656
 30
0.0
 10
258.072259
 20
209.850355
 30
0.0
  0
SPLINE
  5
141
100
AcDbEntity
  8
Layer_1
 62
1
100
AcDbSpline
 70
8
 71
3
 72
8
 73
4
 74
0
 40
0
 40
0
 40
0
 40
0
 40
1
 40
1
 40
1
 40
1
 10
257.127063
 20
210.850754
 30
0.0
 10
257.545580
 20
210.850754
 30
0.0
 10
257.911975
 20
210.570155
 30
0.0
 10
258.021062
 20
210.166156
 30
0.0
  0
LINE
  5
142
100
AcDbEntity
  8
Layer_1
 62
1
100
AcDbLine
 10
257.127063
 20
210.850754
 30
0.0
 11
246.497282
 21
210.850754
 31
0.0
  0
SPLINE
  5
143
100
AcDbEntity
  8
Layer_1
 62
1
100
AcDbSpline
 70
8
 71
3
 72
8
 73
4
 74
0
 40
0
 40
0
 40
0
 40
0
 40
1
 40
1
 40
1
 40
1
 10
246.497282
 20
210.850754
 30
0.0
 10
245.681996
 20
210.850754
 30
0.0
 10
244.900074
 20
211.174653
 30
0.0
 10
244.323680
 20
211.751153
 30
0.0
  0
SPLINE
  5
144
100
AcDbEntity
  8
Layer_1
 62
1
100
AcDbSpline
 70
8
 71
3
 72
8
 73
4
 74
0
 40
0
 40
0
 40
0
 40
0
 40
1
 40
1
 40
1
 40
1
 10
244.323680
 20
211.751153
 30
0.0
 10
243.747180
 20
212.327553
 30
0.0
 10
243.423277
 20
213.109451
 30
0.0
 10
243.423277
 20
213.924750
 30
0.0
  0
LINE
  5
145
100
AcDbEntity
  8
Layer_1
 62
1
100
AcDbLine
 10
243.423277
 20
213.924750
 30
0.0
 11
243.423277
 21
214.850349
 31
0.0
  0
SPLINE
  5
146
100
AcDbEntity
  8
Layer_1
 62
1
100
AcDbSpline
 70
8
 71
3
 72
8
 73
4
 74
0
 40
0
 40
0
 40
0
 40
0
 40
1
 40
1
 40
1
 40
1
 10
240.497280
 20
217.776346
 30
0.0
 10
241.273302
 20
217.776346
 30
0.0
 10
242.017601
 20
217.468046
 30
0.0
 10
242.566293
 20
216.919346
 30
0.0
  0
SPLINE
  5
147
100
AcDbEntity
  8
Layer_1
 62
1
100
AcDbSpline
 70
8
 71
3
 72
8
 73
4
 74
0
 40
0
 40
0
 40
0
 40
0
 40
1
 40
1
 40
1
 40
1
 10
242.566293
 20
216.919346
 30
0.0
 10
243.114985
 20
216.370648
 30
0.0
 10
243.423277
 20
215.626347
 30
0.0
 10
243.423277
 20
214.850349
 30
0.0
  0
LINE
  5
148
100
AcDbEntity
  8
Layer_1
 62
1
100
AcDbLine
 10
240.497280
 20
217.776346
 30
0.0
 11
236.497288
 21
217.776346
 31
0.0
  0
SPLINE
  5
149
100
AcDbEntity
  8
Layer_1
 62
1
100
AcDbSpline
 70
8
 71
3
 72
8
 73
4
 74
0
 40
0
 40
0
 40
0
 40
0
 40
1
 40
1
 40
1
 40
1
 10
233.571291
 20
214.850349
 30
0.0
 10
233.571291
 20
215.626347
 30
0.0
 10
233.879610
 20
216.370648
 30
0.0
 10
234.428302
 20
216.919346
 30
0.0
  0
SPLINE
  5
14a
100
AcDbEntity
  8
Layer_1
 62
1
100
AcDbSpline
 70
8
 71
3
 72
8
 73
4
 74
0
 40
0
 40
0
 40
0
 40
0
 40
1
 40
1
 40
1
 40
1
 10
234.428302
 20
216.919346
 30
0.0
 10
234.976994
 20
217.468046
 30
0.0
 10
235.721293
 20
217.776346
 30
0.0
 10
236.497288
 20
217.776346
 30
0.0
  0
LINE
  5
14b
100
AcDbEntity
  8
Layer_1
 62
1
100
AcDbLine
 10
233.571291
 20
214.850349
 30
0.0
 11
233.571291
 21
213.924750
 31
0.0
  0
SPLINE
  5
14c
100
AcDbEntity
  8
Layer_1
 62
1
100
AcDbSpline
 70
8
 71
3
 72
8
 73
4
 74
0
 40
0
 40
0
 40
0
 40
0
 40
1
 40
1
 40
1
 40
1
 10
233.571291
 20
213.924750
 30
0.0
 10
233.571291
 20
213.109451
 30
0.0
 10
233.247389
 20
212.327553
 30
0.0
 10
232.670889
 20
211.751153
 30
0.0
  0
SPLINE
  5
14d
100
AcDbEntity
  8
Layer_1
 62
1
100
AcDbSpline
 70
8
 71
3
 72
8
 73
4
 74
0
 40
0
 40
0
 40
0
 40
0
 40
1
 40
1
 40
1
 40
1
 10
232.670889
 20
211.751153
 30
0.0
 10
232.094495
 20
211.174653
 30
0.0
 10
231.312599
 20
210.850754
 30
0.0
 10
230.497313
 20
210.850754
 30
0.0
  0
SPLINE
  5
14e
100
AcDbEntity
  8
Layer_1
 62
1
100
AcDbSpline
 70
8
 71
3
 72
8
 73
4
 74
0
 40
0
 40
0
 40
0
 40
0
 40
1
 40
1
 40
1
 40
1
 10
258.021062
 20
108.046489
 30
0.0
 10
258.054982
 20
108.148290
 30
0.0
 10
258.072259
 20
108.254988
 30
0.0
 10
258.072259
 20
108.362290
 30
0.0
  0
SPLINE
  5
14f
100
AcDbEntity
  8
Layer_1
 62
1
100
AcDbSpline
 70
8
 71
3
 72
8
 73
4
 74
0
 40
0
 40
0
 40
0
 40
0
 40
1
 40
1
 40
1
 40
1
 10
257.127063
 20
107.361891
 30
0.0
 10
257.545580
 20
107.361891
 30
0.0
 10
257.911975
 20
107.642489
 30
0.0
 10
258.021062
 20
108.046489
 30
0.0
  0
LINE
  5
150
100
AcDbEntity
  8
Layer_1
 62
1
100
AcDbLine
 10
257.127063
 20
107.361891
 30
0.0
 11
246.497282
 21
107.361891
 31
0.0
  0
SPLINE
  5
151
100
AcDbEntity
  8
Layer_1
 62
1
100
AcDbSpline
 70
8
 71
3
 72
8
 73
4
 74
0
 40
0
 40
0
 40
0
 40
0
 40
1
 40
1
 40
1
 40
1
 10
246.497282
 20
107.361891
 30
0.0
 10
245.681996
 20
107.361891
 30
0.0
 10
244.900074
 20
107.037991
 30
0.0
 10
244.323680
 20
106.461491
 30
0.0
  0
SPLINE
  5
152
100
AcDbEntity
  8
Layer_1
 62
1
100
AcDbSpline
 70
8
 71
3
 72
8
 73
4
 74
0
 40
0
 40
0
 40
0
 40
0
 40
1
 40
1
 40
1
 40
1
 10
244.323680
 20
106.461491
 30
0.0
 10
243.747180
 20
105.885092
 30
0.0
 10
243.423277
 20
105.103194
 30
0.0
 10
243.423277
 20
104.287894
 30
0.0
  0
LINE
  5
153
100
AcDbEntity
  8
Layer_1
 62
1
100
AcDbLine
 10
243.423277
 20
104.287894
 30
0.0
 11
243.423277
 21
103.362296
 31
0.0
  0
SPLINE
  5
154
100
AcDbEntity
  8
Layer_1
 62
1
100
AcDbSpline
 70
8
 71
3
 72
8
 73
4
 74
0
 40
0
 40
0
 40
0
 40
0
 40
1
 40
1
 40
1
 40
1
 10
240.497280
 20
100.436299
 30
0.0
 10
241.273302
 20
100.436299
 30
0.0
 10
242.017601
 20
100.744599
 30
0.0
 10
242.566293
 20
101.293299
 30
0.0
  0
SPLINE
  5
155
100
AcDbEntity
  8
Layer_1
 62
1
100
AcDbSpline
 70
8
 71
3
 72
8
 73
4
 74
0
 40
0
 40
0
 40
0
 40
0
 40
1
 40
1
 40
1
 40
1
 10
242.566293
 20
101.293299
 30
0.0
 10
243.114985
 20
101.841997
 30
0.0
 10
243.423277
 20
102.586298
 30
0.0
 10
243.423277
 20
103.362296
 30
0.0
  0
LINE
  5
156
100
AcDbEntity
  8
Layer_1
 62
1
100
AcDbLine
 10
240.497280
 20
100.436299
 30
0.0
 11
236.497288
 21
100.436299
 31
0.0
  0
SPLINE
  5
157
100
AcDbEntity
  8
Layer_1
 62
1
100
AcDbSpline
 70
8
 71
3
 72
8
 73
4
 74
0
 40
0
 40
0
 40
0
 40
0
 40
1
 40
1
 40
1
 40
1
 10
233.571291
 20
103.362296
 30
0.0
 10
233.571291
 20
102.586298
 30
0.0
 10
233.879610
 20
101.841997
 30
0.0
 10
234.428302
 20
101.293299
 30
0.0
  0
SPLINE
  5
158
100
AcDbEntity
  8
Layer_1
 62
1
100
AcDbSpline
 70
8
 71
3
 72
8
 73
4
 74
0
 40
0
 40
0
 40
0
 40
0
 40
1
 40
1
 40
1
 40
1
 10
234.428302
 20
101.293299
 30
0.0
 10
234.976994
 20
100.744599
 30
0.0
 10
235.721293
 20
100.436299
 30
0.0
 10
236.497288
 20
100.436299
 30
0.0
  0
LINE
  5
159
100
AcDbEntity
  8
Layer_1
 62
1
100
AcDbLine
 10
233.571291
 20
103.362296
 30
0.0
 11
233.571291
 21
104.287894
 31
0.0
  0
SPLINE
  5
15a
100
AcDbEntity
  8
Layer_1
 62
1
100
AcDbSpline
 70
8
 71
3
 72
8
 73
4
 74
0
 40
0
 40
0
 40
0
 40
0
 40
1
 40
1
 40
1
 40
1
 10
233.571291
 20
104.287894
 30
0.0
 10
233.571291
 20
105.103194
 30
0.0
 10
233.247389
 20
105.885092
 30
0.0
 10
232.670889
 20
106.461491
 30
0.0
  0
SPLINE
  5
15b
100
AcDbEntity
  8
Layer_1
 62
1
100
AcDbSpline
 70
8
 71
3
 72
8
 73
4
 74
0
 40
0
 40
0
 40
0
 40
0
 40
1
 40
1
 40
1
 40
1
 10
232.670889
 20
106.461491
 30
0.0
 10
232.094495
 20
107.037991
 30
0.0
 10
231.312599
 20
107.361891
 30
0.0
 10
230.497313
 20
107.361891
 30
0.0
  0
SPLINE
  5
15c
100
AcDbEntity
  8
Layer_1
 62
1
100
AcDbSpline
 70
8
 71
3
 72
8
 73
4
 74
0
 40
0
 40
0
 40
0
 40
0
 40
1
 40
1
 40
1
 40
1
 10
-56.297469
 20
213.283483
 30
0.0
 10
-56.297469
 20
214.149315
 30
0.0
 10
-56.999302
 20
214.851124
 30
0.0
 10
-57.865097
 20
214.851124
 30
0.0
  0
SPLINE
  5
15d
100
AcDbEntity
  8
Layer_1
 62
1
100
AcDbSpline
 70
8
 71
3
 72
8
 73
4
 74
0
 40
0
 40
0
 40
0
 40
0
 40
1
 40
1
 40
1
 40
1
 10
-57.865097
 20
214.851124
 30
0.0
 10
-58.730918
 20
214.851124
 30
0.0
 10
-59.432751
 20
214.149315
 30
0.0
 10
-59.432751
 20
213.283483
 30
0.0
  0
SPLINE
  5
15e
100
AcDbEntity
  8
Layer_1
 62
1
100
AcDbSpline
 70
8
 71
3
 72
8
 73
4
 74
0
 40
0
 40
0
 40
0
 40
0
 40
1
 40
1
 40
1
 40
1
 10
-59.432751
 20
213.283483
 30
0.0
 10
-59.432751
 20
212.417651
 30
0.0
 10
-58.730918
 20
211.715842
 30
0.0
 10
-57.865097
 20
211.715842
 30
0.0
  0
SPLINE
  5
15f
100
AcDbEntity
  8
Layer_1
 62
1
100
AcDbSpline
 70
8
 71
3
 72
8
 73
4
 74
0
 40
0
 40
0
 40
0
 40
0
 40
1
 40
1
 40
1
 40
1
 10
-57.865097
 20
211.715842
 30
0.0
 10
-56.999302
 20
211.715842
 30
0.0
 10
-56.297469
 20
212.417651
 30
0.0
 10
-56.297469
 20
213.283483
 30
0.0
  0
LINE
  5
160
100
AcDbEntity
  8
Layer_1
 62
1
100
AcDbLine
 10
-56.297469
 20
213.283483
 30
0.0
 11
-56.297469
 21
213.283483
 31
0.0
  0
SPLINE
  5
161
100
AcDbEntity
  8
Layer_1
 62
1
100
AcDbSpline
 70
8
 71
3
 72
8
 73
4
 74
0
 40
0
 40
0
 40
0
 40
0
 40
1
 40
1
 40
1
 40
1
 10
31.676537
 20
216.759059
 30
0.0
 10
31.676537
 20
217.624891
 30
0.0
 10
30.974704
 20
218.326700
 30
0.0
 10
30.108910
 20
218.326700
 30
0.0
  0
SPLINE
  5
162
100
AcDbEntity
  8
Layer_1
 62
1
100
AcDbSpline
 70
8
 71
3
 72
8
 73
4
 74
0
 40
0
 40
0
 40
0
 40
0
 40
1
 40
1
 40
1
 40
1
 10
30.108910
 20
218.326700
 30
0.0
 10
29.243088
 20
218.326700
 30
0.0
 10
28.541255
 20
217.624891
 30
0.0
 10
28.541255
 20
216.759059
 30
0.0
  0
SPLINE
  5
163
100
AcDbEntity
  8
Layer_1
 62
1
100
AcDbSpline
 70
8
 71
3
 72
8
 73
4
 74
0
 40
0
 40
0
 40
0
 40
0
 40
1
 40
1
 40
1
 40
1
 10
28.541255
 20
216.759059
 30
0.0
 10
28.541255
 20
215.893227
 30
0.0
 10
29.243088
 20
215.191418
 30
0.0
 10
30.108910
 20
215.191418
 30
0.0
  0
SPLINE
  5
164
100
AcDbEntity
  8
Layer_1
 62
1
100
AcDbSpline
 70
8
 71
3
 72
8
 73
4
 74
0
 40
0
 40
0
 40
0
 40
0
 40
1
 40
1
 40
1
 40
1
 10
30.108910
 20
215.191418
 30
0.0
 10
30.974704
 20
215.191418
 30
0.0
 10
31.676537
 20
215.893227
 30
0.0
 10
31.676537
 20
216.759059
 30
0.0
  0
LINE
  5
165
100
AcDbEntity
  8
Layer_1
 62
1
100
AcDbLine
 10
31.676537
 20
216.759059
 30
0.0
 11
31.676537
 21
216.759059
 31
0.0
  0
SPLINE
  5
166
100
AcDbEntity
  8
Layer_1
 62
1
100
AcDbSpline
 70
8
 71
3
 72
8
 73
4
 74
0
 40
0
 40
0
 40
0
 40
0
 40
1
 40
1
 40
1
 40
1
 10
31.676537
 20
99.934022
 30
0.0
 10
31.676537
 20
100.799854
 30
0.0
 10
30.974704
 20
101.501664
 30
0.0
 10
30.108910
 20
101.501664
 30
0.0
  0
SPLINE
  5
167
100
AcDbEntity
  8
Layer_1
 62
1
100
AcDbSpline
 70
8
 71
3
 72
8
 73
4
 74
0
 40
0
 40
0
 40
0
 40
0
 40
1
 40
1
 40
1
 40
1
 10
30.108910
 20
101.501664
 30
0.0
 10
29.243088
 20
101.501664
 30
0.0
 10
28.541255
 20
100.799854
 30
0.0
 10
28.541255
 20
99.934022
 30
0.0
  0
SPLINE
  5
168
100
AcDbEntity
  8
Layer_1
 62
1
100
AcDbSpline
 70
8
 71
3
 72
8
 73
4
 74
0
 40
0
 40
0
 40
0
 40
0
 40
1
 40
1
 40
1
 40
1
 10
28.541255
 20
99.934022
 30
0.0
 10
28.541255
 20
99.068190
 30
0.0
 10
29.243088
 20
98.366381
 30
0.0
 10
30.108910
 20
98.366381
 30
0.0
  0
SPLINE
  5
169
100
AcDbEntity
  8
Layer_1
 62
1
100
AcDbSpline
 70
8
 71
3
 72
8
 73
4
 74
0
 40
0
 40
0
 40
0
 40
0
 40
1
 40
1
 40
1
 40
1
 10
30.108910
 20
98.366381
 30
0.0
 10
30.974704
 20
98.366381
 30
0.0
 10
31.676537
 20
99.068190
 30
0.0
 10
31.676537
 20
99.934022
 30
0.0
  0
LINE
  5
16a
100
AcDbEntity
  8
Layer_1
 62
1
100
AcDbLine
 10
31.676537
 20
99.934022
 30
0.0
 11
31.676537
 21
99.934022
 31
0.0
  0
SPLINE
  5
16b
100
AcDbEntity
  8
Layer_1
 62
1
100
AcDbSpline
 70
8
 71
3
 72
8
 73
4
 74
0
 40
0
 40
0
 40
0
 40
0
 40
1
 40
1
 40
1
 40
1
 10
-56.298660
 20
187.707205
 30
0.0
 10
-56.298660
 20
188.573037
 30
0.0
 10
-57.000492
 20
189.274846
 30
0.0
 10
-57.866287
 20
189.274846
 30
0.0
  0
SPLINE
  5
16c
100
AcDbEntity
  8
Layer_1
 62
1
100
AcDbSpline
 70
8
 71
3
 72
8
 73
4
 74
0
 40
0
 40
0
 40
0
 40
0
 40
1
 40
1
 40
1
 40
1
 10
-57.866287
 20
189.274846
 30
0.0
 10
-58.732109
 20
189.274846
 30
0.0
 10
-59.433942
 20
188.573037
 30
0.0
 10
-59.433942
 20
187.707205
 30
0.0
  0
SPLINE
  5
16d
100
AcDbEntity
  8
Layer_1
 62
1
100
AcDbSpline
 70
8
 71
3
 72
8
 73
4
 74
0
 40
0
 40
0
 40
0
 40
0
 40
1
 40
1
 40
1
 40
1
 10
-59.433942
 20
187.707205
 30
0.0
 10
-59.433942
 20
186.841373
 30
0.0
 10
-58.732109
 20
186.139564
 30
0.0
 10
-57.866287
 20
186.139564
 30
0.0
  0
SPLINE
  5
16e
100
AcDbEntity
  8
Layer_1
 62
1
100
AcDbSpline
 70
8
 71
3
 72
8
 73
4
 74
0
 40
0
 40
0
 40
0
 40
0
 40
1
 40
1
 40
1
 40
1
 10
-57.866287
 20
186.139564
 30
0.0
 10
-57.000492
 20
186.139564
 30
0.0
 10
-56.298660
 20
186.841373
 30
0.0
 10
-56.298660
 20
187.707205
 30
0.0
  0
LINE
  5
16f
100
AcDbEntity
  8
Layer_1
 62
1
100
AcDbLine
 10
-56.298660
 20
187.707205
 30
0.0
 11
-56.298660
 21
187.707205
 31
0.0
  0
SPLINE
  5
170
100
AcDbEntity
  8
Layer_1
 62
1
100
AcDbSpline
 70
8
 71
3
 72
8
 73
4
 74
0
 40
0
 40
0
 40
0
 40
0
 40
1
 40
1
 40
1
 40
1
 10
-56.299612
 20
106.225851
 30
0.0
 10
-56.299612
 20
105.360003
 30
0.0
 10
-57.001418
 20
104.658184
 30
0.0
 10
-57.867266
 20
104.658184
 30
0.0
  0
SPLINE
  5
171
100
AcDbEntity
  8
Layer_1
 62
1
100
AcDbSpline
 70
8
 71
3
 72
8
 73
4
 74
0
 40
0
 40
0
 40
0
 40
0
 40
1
 40
1
 40
1
 40
1
 10
-57.867266
 20
104.658184
 30
0.0
 10
-58.733141
 20
104.658184
 30
0.0
 10
-59.434947
 20
105.360003
 30
0.0
 10
-59.434947
 20
106.225851
 30
0.0
  0
SPLINE
  5
172
100
AcDbEntity
  8
Layer_1
 62
1
100
AcDbSpline
 70
8
 71
3
 72
8
 73
4
 74
0
 40
0
 40
0
 40
0
 40
0
 40
1
 40
1
 40
1
 40
1
 10
-59.434947
 20
106.225851
 30
0.0
 10
-59.434947
 20
107.091699
 30
0.0
 10
-58.733141
 20
107.793519
 30
0.0
 10
-57.867266
 20
107.793519
 30
0.0
  0
SPLINE
  5
173
100
AcDbEntity
  8
Layer_1
 62
1
100
AcDbSpline
 70
8
 71
3
 72
8
 73
4
 74
0
 40
0
 40
0
 40
0
 40
0
 40
1
 40
1
 40
1
 40
1
 10
-57.867266
 20
107.793519
 30
0.0
 10
-57.001418
 20
107.793519
 30
0.0
 10
-56.299612
 20
107.091699
 30
0.0
 10
-56.299612
 20
106.225851
 30
0.0
  0
LINE
  5
174
100
AcDbEntity
  8
Layer_1
 62
1
100
AcDbLine
 10
-56.299612
 20
106.225851
 30
0.0
 11
-56.299612
 21
106.225851
 31
0.0
  0
SPLINE
  5
175
100
AcDbEntity
  8
Layer_1
 62
1
100
AcDbSpline
 70
8
 71
3
 72
8
 73
4
 74
0
 40
0
 40
0
 40
0
 40
0
 40
1
 40
1
 40
1
 40
1
 10
264.480288
 20
213.312460
 30
0.0
 10
264.480288
 20
214.178292
 30
0.0
 10
265.182121
 20
214.880101
 30
0.0
 10
266.047916
 20
214.880101
 30
0.0
  0
SPLINE
  5
176
100
AcDbEntity
  8
Layer_1
 62
1
100
AcDbSpline
 70
8
 71
3
 72
8
 73
4
 74
0
 40
0
 40
0
 40
0
 40
0
 40
1
 40
1
 40
1
 40
1
 10
266.047916
 20
214.880101
 30
0.0
 10
266.913737
 20
214.880101
 30
0.0
 10
267.615570
 20
214.178292
 30
0.0
 10
267.615570
 20
213.312460
 30
0.0
  0
SPLINE
  5
177
100
AcDbEntity
  8
Layer_1
 62
1
100
AcDbSpline
 70
8
 71
3
 72
8
 73
4
 74
0
 40
0
 40
0
 40
0
 40
0
 40
1
 40
1
 40
1
 40
1
 10
267.615570
 20
213.312460
 30
0.0
 10
267.615570
 20
212.446628
 30
0.0
 10
266.913737
 20
211.744819
 30
0.0
 10
266.047916
 20
211.744819
 30
0.0
  0
SPLINE
  5
178
100
AcDbEntity
  8
Layer_1
 62
1
100
AcDbSpline
 70
8
 71
3
 72
8
 73
4
 74
0
 40
0
 40
0
 40
0
 40
0
 40
1
 40
1
 40
1
 40
1
 10
266.047916
 20
211.744819
 30
0.0
 10
265.182121
 20
211.744819
 30
0.0
 10
264.480288
 20
212.446628
 30
0.0
 10
264.480288
 20
213.312460
 30
0.0
  0
LINE
  5
179
100
AcDbEntity
  8
Layer_1
 62
1
100
AcDbLine
 10
264.480288
 20
213.312460
 30
0.0
 11
264.480288
 21
213.312460
 31
0.0
  0
SPLINE
  5
17a
100
AcDbEntity
  8
Layer_1
 62
1
100
AcDbSpline
 70
8
 71
3
 72
8
 73
4
 74
0
 40
0
 40
0
 40
0
 40
0
 40
1
 40
1
 40
1
 40
1
 10
176.506282
 20
216.759059
 30
0.0
 10
176.506282
 20
217.624891
 30
0.0
 10
177.208115
 20
218.326700
 30
0.0
 10
178.073910
 20
218.326700
 30
0.0
  0
SPLINE
  5
17b
100
AcDbEntity
  8
Layer_1
 62
1
100
AcDbSpline
 70
8
 71
3
 72
8
 73
4
 74
0
 40
0
 40
0
 40
0
 40
0
 40
1
 40
1
 40
1
 40
1
 10
178.073910
 20
218.326700
 30
0.0
 10
178.939731
 20
218.326700
 30
0.0
 10
179.641564
 20
217.624891
 30
0.0
 10
179.641564
 20
216.759059
 30
0.0
  0
SPLINE
  5
17c
100
AcDbEntity
  8
Layer_1
 62
1
100
AcDbSpline
 70
8
 71
3
 72
8
 73
4
 74
0
 40
0
 40
0
 40
0
 40
0
 40
1
 40
1
 40
1
 40
1
 10
179.641564
 20
216.759059
 30
0.0
 10
179.641564
 20
215.893227
 30
0.0
 10
178.939731
 20
215.191418
 30
0.0
 10
178.073910
 20
215.191418
 30
0.0
  0
SPLINE
  5
17d
100
AcDbEntity
  8
Layer_1
 62
1
100
AcDbSpline
 70
8
 71
3
 72
8
 73
4
 74
0
 40
0
 40
0
 40
0
 40
0
 40
1
 40
1
 40
1
 40
1
 10
178.073910
 20
215.191418
 30
0.0
 10
177.208115
 20
215.191418
 30
0.0
 10
176.506282
 20
215.893227
 30
0.0
 10
176.506282
 20
216.759059
 30
0.0
  0
LINE
  5
17e
100
AcDbEntity
  8
Layer_1
 62
1
100
AcDbLine
 10
176.506282
 20
216.759059
 30
0.0
 11
176.506282
 21
216.759059
 31
0.0
  0
SPLINE
  5
17f
100
AcDbEntity
  8
Layer_1
 62
1
100
AcDbSpline
 70
8
 71
3
 72
8
 73
4
 74
0
 40
0
 40
0
 40
0
 40
0
 40
1
 40
1
 40
1
 40
1
 10
176.506282
 20
99.934022
 30
0.0
 10
176.506282
 20
100.799854
 30
0.0
 10
177.208115
 20
101.501664
 30
0.0
 10
178.073910
 20
101.501664
 30
0.0
  0
SPLINE
  5
180
100
AcDbEntity
  8
Layer_1
 62
1
100
AcDbSpline
 70
8
 71
3
 72
8
 73
4
 74
0
 40
0
 40
0
 40
0
 40
0
 40
1
 40
1
 40
1
 40
1
 10
178.073910
 20
101.501664
 30
0.0
 10
178.939731
 20
101.501664
 30
0.0
 10
179.641564
 20
100.799854
 30
0.0
 10
179.641564
 20
99.934022
 30
0.0
  0
SPLINE
  5
181
100
AcDbEntity
  8
Layer_1
 62
1
100
AcDbSpline
 70
8
 71
3
 72
8
 73
4
 74
0
 40
0
 40
0
 40
0
 40
0
 40
1
 40
1
 40
1
 40
1
 10
179.641564
 20
99.934022
 30
0.0
 10
179.641564
 20
99.068190
 30
0.0
 10
178.939731
 20
98.366381
 30
0.0
 10
178.073910
 20
98.366381
 30
0.0
  0
SPLINE
  5
182
100
AcDbEntity
  8
Layer_1
 62
1
100
AcDbSpline
 70
8
 71
3
 72
8
 73
4
 74
0
 40
0
 40
0
 40
0
 40
0
 40
1
 40
1
 40
1
 40
1
 10
178.073910
 20
98.366381
 30
0.0
 10
177.208115
 20
98.366381
 30
0.0
 10
176.506282
 20
99.068190
 30
0.0
 10
176.506282
 20
99.934022
 30
0.0
  0
LINE
  5
183
100
AcDbEntity
  8
Layer_1
 62
1
100
AcDbLine
 10
176.506282
 20
99.934022
 30
0.0
 11
176.506282
 21
99.934022
 31
0.0
  0
SPLINE
  5
184
100
AcDbEntity
  8
Layer_1
 62
1
100
AcDbSpline
 70
8
 71
3
 72
8
 73
4
 74
0
 40
0
 40
0
 40
0
 40
0
 40
1
 40
1
 40
1
 40
1
 10
264.479412
 20
187.707205
 30
0.0
 10
264.479412
 20
188.573037
 30
0.0
 10
265.181245
 20
189.274846
 30
0.0
 10
266.047040
 20
189.274846
 30
0.0
  0
SPLINE
  5
185
100
AcDbEntity
  8
Layer_1
 62
1
100
AcDbSpline
 70
8
 71
3
 72
8
 73
4
 74
0
 40
0
 40
0
 40
0
 40
0
 40
1
 40
1
 40
1
 40
1
 10
266.047040
 20
189.274846
 30
0.0
 10
266.912861
 20
189.274846
 30
0.0
 10
267.614694
 20
188.573037
 30
0.0
 10
267.614694
 20
187.707205
 30
0.0
  0
SPLINE
  5
186
100
AcDbEntity
  8
Layer_1
 62
1
100
AcDbSpline
 70
8
 71
3
 72
8
 73
4
 74
0
 40
0
 40
0
 40
0
 40
0
 40
1
 40
1
 40
1
 40
1
 10
267.614694
 20
187.707205
 30
0.0
 10
267.614694
 20
186.841373
 30
0.0
 10
266.912861
 20
186.139564
 30
0.0
 10
266.047040
 20
186.139564
 30
0.0
  0
SPLINE
  5
187
100
AcDbEntity
  8
Layer_1
 62
1
100
AcDbSpline
 70
8
 71
3
 72
8
 73
4
 74
0
 40
0
 40
0
 40
0
 40
0
 40
1
 40
1
 40
1
 40
1
 10
266.047040
 20
186.139564
 30
0.0
 10
265.181245
 20
186.139564
 30
0.0
 10
264.479412
 20
186.841373
 30
0.0
 10
264.479412
 20
187.707205
 30
0.0
  0
LINE
  5
188
100
AcDbEntity
  8
Layer_1
 62
1
100
AcDbLine
 10
264.479412
 20
187.707205
 30
0.0
 11
264.479412
 21
187.707205
 31
0.0
  0
SPLINE
  5
189
100
AcDbEntity
  8
Layer_1
 62
1
100
AcDbSpline
 70
8
 71
3
 72
8
 73
4
 74
0
 40
0
 40
0
 40
0
 40
0
 40
1
 40
1
 40
1
 40
1
 10
264.480365
 20
106.225851
 30
0.0
 10
264.480365
 20
105.360003
 30
0.0
 10
265.182171
 20
104.658184
 30
0.0
 10
266.048019
 20
104.658184
 30
0.0
  0
SPLINE
  5
18a
100
AcDbEntity
  8
Layer_1
 62
1
100
AcDbSpline
 70
8
 71
3
 72
8
 73
4
 74
0
 40
0
 40
0
 40
0
 40
0
 40
1
 40
1
 40
1
 40
1
 10
266.048019
 20
104.658184
 30
0.0
 10
266.913893
 20
104.658184
 30
0.0
 10
267.615700
 20
105.360003
 30
0.0
 10
267.615700
 20
106.225851
 30
0.0
  0
SPLINE
  5
18b
100
AcDbEntity
  8
Layer_1
 62
1
100
AcDbSpline
 70
8
 71
3
 72
8
 73
4
 74
0
 40
0
 40
0
 40
0
 40
0
 40
1
 40
1
 40
1
 40
1
 10
267.615700
 20
106.225851
 30
0.0
 10
267.615700
 20
107.091699
 30
0.0
 10
266.913893
 20
107.793519
 30
0.0
 10
266.048019
 20
107.793519
 30
0.0
  0
SPLINE
  5
18c
100
AcDbEntity
  8
Layer_1
 62
1
100
AcDbSpline
 70
8
 71
3
 72
8
 73
4
 74
0
 40
0
 40
0
 40
0
 40
0
 40
1
 40
1
 40
1
 40
1
 10
266.048019
 20
107.793519
 30
0.0
 10
265.182171
 20
107.793519
 30
0.0
 10
264.480365
 20
107.091699
 30
0.0
 10
264.480365
 20
106.225851
 30
0.0
  0
LINE
  5
18d
100
AcDbEntity
  8
Layer_1
 62
1
100
AcDbLine
 10
264.480365
 20
106.225851
 30
0.0
 11
264.480365
 21
106.225851
 31
0.0
  0
SPLINE
  5
18e
100
AcDbEntity
  8
Layer_1
 62
1
100
AcDbSpline
 70
8
 71
3
 72
8
 73
4
 74
0
 40
0
 40
0
 40
0
 40
0
 40
1
 40
1
 40
1
 40
1
 10
-52.708953
 20
89.484346
 30
0.0
 10
-53.717058
 20
89.567477
 30
0.0
 10
-54.675577
 20
89.968754
 30
0.0
 10
-55.453427
 20
90.633302
 30
0.0
  0
LINE
  5
18f
100
AcDbEntity
  8
Layer_1
 62
1
100
AcDbLine
 10
-55.453427
 20
90.633302
 30
0.0
 11
-67.497884
 21
99.067262
 31
0.0
  0
SPLINE
  5
190
100
AcDbEntity
  8
Layer_1
 62
1
100
AcDbSpline
 70
8
 71
3
 72
8
 73
4
 74
0
 40
0
 40
0
 40
0
 40
0
 40
1
 40
1
 40
1
 40
1
 10
-67.497884
 20
99.067262
 30
0.0
 10
-68.417553
 20
99.711255
 30
0.0
 10
-69.162709
 20
101.160733
 30
0.0
 10
-69.162247
 20
102.304762
 30
0.0
  0
SPLINE
  5
191
100
AcDbEntity
  8
Layer_1
 62
1
100
AcDbSpline
 70
8
 71
3
 72
8
 73
4
 74
0
 40
0
 40
0
 40
0
 40
0
 40
1
 40
1
 40
1
 40
1
 10
-69.162247
 20
102.304762
 30
0.0
 10
-69.132991
 20
174.860962
 30
0.0
 10
-69.202677
 20
97.867290
 30
0.0
 10
-69.181450
 20
217.664662
 30
0.0
  0
SPLINE
  5
192
100
AcDbEntity
  8
Layer_1
 62
1
100
AcDbSpline
 70
8
 71
3
 72
8
 73
4
 74
0
 40
0
 40
0
 40
0
 40
0
 40
1
 40
1
 40
1
 40
1
 10
-69.181450
 20
217.664662
 30
0.0
 10
-69.181247
 20
218.808682
 30
0.0
 10
-68.464213
 20
220.299004
 30
0.0
 10
-67.579916
 20
220.993392
 30
0.0
  0
LINE
  5
193
100
AcDbEntity
  8
Layer_1
 62
1
100
AcDbLine
 10
-67.579916
 20
220.993392
 30
0.0
 11
-64.212222
 21
223.637845
 31
0.0
  0
SPLINE
  5
194
100
AcDbEntity
  8
Layer_1
 62
1
100
AcDbSpline
 70
8
 71
3
 72
8
 73
4
 74
0
 40
0
 40
0
 40
0
 40
0
 40
1
 40
1
 40
1
 40
1
 10
-64.212222
 20
223.637845
 30
0.0
 10
-63.173673
 20
224.453358
 30
0.0
 10
-61.903132
 20
224.895145
 30
0.0
 10
-60.596338
 20
224.895145
 30
0.0
  0
LINE
  5
195
100
AcDbEntity
  8
Layer_1
 62
1
100
AcDbLine
 10
-60.596338
 20
224.895145
 30
0.0
 11
268.424741
 21
224.895125
 31
0.0
  0
SPLINE
  5
196
100
AcDbEntity
  8
Layer_1
 62
1
100
AcDbSpline
 70
8
 71
3
 72
8
 73
4
 74
0
 40
0
 40
0
 40
0
 40
0
 40
1
 40
1
 40
1
 40
1
 10
268.424741
 20
224.895125
 30
0.0
 10
269.731533
 20
224.895123
 30
0.0
 10
271.002071
 20
224.453336
 30
0.0
 10
272.040618
 20
223.637825
 30
0.0
  0
LINE
  5
197
100
AcDbEntity
  8
Layer_1
 62
1
100
AcDbLine
 10
272.040618
 20
223.637825
 30
0.0
 11
275.408310
 21
220.993373
 31
0.0
  0
SPLINE
  5
198
100
AcDbEntity
  8
Layer_1
 62
1
100
AcDbSpline
 70
8
 71
3
 72
8
 73
4
 74
0
 40
0
 40
0
 40
0
 40
0
 40
1
 40
1
 40
1
 40
1
 10
275.408310
 20
220.993373
 30
0.0
 10
276.292608
 20
220.298985
 30
0.0
 10
277.009642
 20
218.808648
 30
0.0
 10
277.009845
 20
217.664611
 30
0.0
  0
SPLINE
  5
199
100
AcDbEntity
  8
Layer_1
 62
1
100
AcDbSpline
 70
8
 71
3
 72
8
 73
4
 74
0
 40
0
 40
0
 40
0
 40
0
 40
1
 40
1
 40
1
 40
1
 10
277.009845
 20
217.664611
 30
0.0
 10
277.031012
 20
97.867269
 30
0.0
 10
276.961407
 20
174.860962
 30
0.0
 10
276.990612
 20
102.304709
 30
0.0
  0
SPLINE
  5
19a
100
AcDbEntity
  8
Layer_1
 62
1
100
AcDbSpline
 70
8
 71
3
 72
8
 73
4
 74
0
 40
0
 40
0
 40
0
 40
0
 40
1
 40
1
 40
1
 40
1
 10
276.990612
 20
102.304709
 30
0.0
 10
276.991070
 20
101.160691
 30
0.0
 10
276.245920
 20
99.711234
 30
0.0
 10
275.326249
 20
99.067242
 30
0.0
  0
LINE
  5
19b
100
AcDbEntity
  8
Layer_1
 62
1
100
AcDbLine
 10
275.326249
 20
99.067242
 30
0.0
 11
263.281797
 21
90.633281
 31
0.0
  0
SPLINE
  5
19c
100
AcDbEntity
  8
Layer_1
 62
1
100
AcDbSpline
 70
8
 71
3
 72
8
 73
4
 74
0
 40
0
 40
0
 40
0
 40
0
 40
1
 40
1
 40
1
 40
1
 10
263.281797
 20
90.633281
 30
0.0
 10
262.198170
 20
89.874484
 30
0.0
 10
260.913022
 20
89.478373
 30
0.0
 10
259.602104
 20
89.499119
 30
0.0
  0
SPLINE
  5
19d
100
AcDbEntity
  8
Layer_1
 62
1
100
AcDbSpline
 70
8
 71
3
 72
8
 73
4
 74
0
 40
0
 40
0
 40
0
 40
0
 40
1
 40
1
 40
1
 40
1
 10
259.602104
 20
89.499119
 30
0.0
 10
258.570835
 20
89.512965
 30
0.0
 10
257.539477
 20
89.518650
 30
0.0
 10
256.508122
 20
89.516174
 30
0.0
  0
LINE
  5
19e
100
AcDbEntity
  8
Layer_1
 62
1
100
AcDbLine
 10
256.508122
 20
89.516174
 30
0.0
 11
-48.679750
 21
89.516195
 31
0.0
  0
SPLINE
  5
19f
100
AcDbEntity
  8
Layer_1
 62
1
100
AcDbSpline
 70
8
 71
3
 72
8
 73
4
 74
0
 40
0
 40
0
 40
0
 40
0
 40
1
 40
1
 40
1
 40
1
 10
-48.679750
 20
89.516195
 30
0.0
 10
-50.022878
 20
89.516185
 30
0.0
 10
-51.365987
 20
89.505548
 30
0.0
 10
-52.708956
 20
89.484283
 30
0.0
  0
LINE
  5
1a0
100
AcDbEntity
  8
Layer_1
 62
1
100
AcDbLine
 10
-52.708956
 20
89.484283
 30
0.0
 11
-52.708953
 21
89.484346
 31
0.0
  0
ENDSEC
  0
SECTION
  2
OBJECTS
  0
DICTIONARY
  5
C
330
0
100
AcDbDictionary
  3
ACAD_GROUP
350
D
  3
ACAD_MLINESTYLE
350
17
  0
DICTIONARY
  5
D
330
C
100
AcDbDictionary
  0
DICTIONARY
  5
1A
330
C
100
AcDbDictionary
  0
DICTIONARY
  5
17
330
C
100
AcDbDictionary
  3
STANDARD
350
18
  0
DICTIONARY
  5
19
330
C
100
AcDbDictionary
  0
ENDSEC
  0
EOF
