  0
SECTION
  2
HEADER
  9
$ACADVER
  1
AC1014
  9
$HANDSEED
  5
FFFF
  9
$INSUNITS
 70
     0
  9
$MEASUREMENT
 70
     1
  0
ENDSEC
  0
SECTION
  2
TABLES
  0
TABLE
  2
VPORT
  5
8
330
0
100
AcDbSymbolTable
 70
     4
  0
VPORT
  5
2E
330
8
100
AcDbSymbolTableRecord
100
AcDbViewportTableRecord
  2
*ACTIVE
 70
     0
 10
0.0
 20
0.0
 11
1.0
 21
1.0
 12
210.0
 22
148.5
 13
0.0
 23
0.0
 14
10.0
 24
10.0
 15
10.0
 25
10.0
 16
0.0
 26
0.0
 36
1.0
 17
0.0
 27
0.0
 37
0.0
 40
341.0
 41
1.24
 42
50.0
 43
0.0
 44
0.0
 50
0.0
 51
0.0
 71
     0
 72
   100
 73
     1
 74
     3
 75
     0
 76
     0
 77
     0
 78
     0
  0
ENDTAB
  0
TABLE
  2
LTYPE
  5
5
330
0
100
AcDbSymbolTable
 70
     1
  0
LTYPE
  5
14
330
5
100
AcDbSymbolTableRecord
100
AcDbLinetypeTableRecord
  2
BYBLOCK
 70
     0
  3

 72
    65
 73
     0
 40
0.0
  0
LTYPE
  5
15
330
5
100
AcDbSymbolTableRecord
100
AcDbLinetypeTableRecord
  2
BYLAYER
 70
     0
  3

 72
    65
 73
     0
 40
0.0
  0
LTYPE
  5
16
330
5
100
AcDbSymbolTableRecord
100
AcDbLinetypeTableRecord
  2
CONTINUOUS
 70
     0
  3
Solid line
 72
    65
 73
     0
 40
0.0
  0
ENDTAB
  0
TABLE
  2
LAYER
  5
2
100
AcDbSymbolTable
 70
2
  0
LAYER
  5
50
100
AcDbSymbolTableRecord
100
AcDbLayerTableRecord
  2
0
 70
0
  6
CONTINUOUS
  0
LAYER
  5
51
100
AcDbSymbolTableRecord
100
AcDbLayerTableRecord
  2
Layer_1
 70
0
  6
CONTINUOUS
  0
ENDTAB
  0
TABLE
  2
STYLE
  5
3
330
0
100
AcDbSymbolTable
 70
     1
  0
STYLE
  5
11
330
3
100
AcDbSymbolTableRecord
100
AcDbTextStyleTableRecord
  2
STANDARD
 70
     0
 40
0.0
 41
1.0
 50
0.0
 71
     0
 42
2.5
  3
txt
  4

  0
ENDTAB
  0
TABLE
  2
VIEW
  5
6
330
0
100
AcDbSymbolTable
 70
     0
  0
ENDTAB
  0
TABLE
  2
UCS
  5
7
330
0
100
AcDbSymbolTable
 70
     0
  0
ENDTAB
  0
TABLE
  2
APPID
  5
9
330
0
100
AcDbSymbolTable
 70
     2
  0
APPID
  5
12
330
9
100
AcDbSymbolTableRecord
100
AcDbRegAppTableRecord
  2
ACAD
 70
     0
  0
ENDTAB
  0
TABLE
  2
DIMSTYLE
  5
A
330
0
100
AcDbSymbolTable
 70
     1
  0
DIMSTYLE
105
27
330
A
100
AcDbSymbolTableRecord
100
AcDbDimStyleTableRecord
  2
ISO-25
 70
     0
  3

  4

  5

  6

  7

 40
1.0
 41
2.5
 42
0.625
 43
3.75
 44
1.25
 45
0.0
 46
0.0
 47
0.0
 48
0.0
140
2.5
141
2.5
142
0.0
143
0.03937007874016
144
1.0
145
0.0
146
1.0
147
0.625
 71
     0
 72
     0
 73
     0
 74
     0
 75
     0
 76
     0
 77
     1
 78
     8
170
     0
171
     3
172
     1
173
     0
174
     0
175
     0
176
     0
177
     0
178
     0
270
     2
271
     2
272
     2
273
     2
274
     3
340
11
275
     0
280
     0
281
     0
282
     0
283
     0
284
     8
285
     0
286
     0
287
     3
288
     0
  0
ENDTAB
  0
TABLE
  2
BLOCK_RECORD
  5
1
330
0
100
AcDbSymbolTable
 70
     1
  0
BLOCK_RECORD
  5
1F
330
1
100
AcDbSymbolTableRecord
100
AcDbBlockTableRecord
  2
*MODEL_SPACE
  0
BLOCK_RECORD
  5
1B
330
1
100
AcDbSymbolTableRecord
100
AcDbBlockTableRecord
  2
*PAPER_SPACE
  0
ENDTAB
  0
ENDSEC
  0
SECTION
  2
BLOCKS
  0
BLOCK
  5
20
330
1F
100
AcDbEntity
  8
0
100
AcDbBlockBegin
  2
*MODEL_SPACE
 70
     0
 10
0.0
 20
0.0
 30
0.0
  3
*MODEL_SPACE
  1

  0
ENDBLK
  5
21
330
1F
100
AcDbEntity
  8
0
100
AcDbBlockEnd
  0
BLOCK
  5
1C
330
1B
100
AcDbEntity
 67
     1
  8
0
100
AcDbBlockBegin
  2
*PAPER_SPACE
  1

  0
ENDBLK
  5
1D
330
1B
100
AcDbEntity
 67
     1
  8
0
100
AcDbBlockEnd
  0
ENDSEC
  0
SECTION
  2
ENTITIES
  0
LINE
  5
100
100
AcDbEntity
  8
Layer_1
 62
4
100
AcDbLine
 10
-46.354989
 20
199.891355
 30
0.0
 11
-46.354989
 21
164.120210
 31
0.0
  0
LINE
  5
101
100
AcDbEntity
  8
Layer_1
 62
4
100
AcDbLine
 10
-46.354989
 20
164.120210
 30
0.0
 11
-46.354989
 21
134.174433
 31
0.0
  0
LINE
  5
102
100
AcDbEntity
  8
Layer_1
 62
4
100
AcDbLine
 10
-46.354989
 20
134.174433
 30
0.0
 11
-46.354989
 21
98.403290
 31
0.0
  0
SPLINE
  5
103
100
AcDbEntity
  8
Layer_1
 62
4
100
AcDbSpline
 70
8
 71
3
 72
8
 73
4
 74
0
 40
0
 40
0
 40
0
 40
0
 40
1
 40
1
 40
1
 40
1
 10
-46.303792
 20
200.207156
 30
0.0
 10
-46.337712
 20
200.105355
 30
0.0
 10
-46.354989
 20
199.998656
 30
0.0
 10
-46.354989
 20
199.891355
 30
0.0
  0
SPLINE
  5
104
100
AcDbEntity
  8
Layer_1
 62
4
100
AcDbSpline
 70
8
 71
3
 72
8
 73
4
 74
0
 40
0
 40
0
 40
0
 40
0
 40
1
 40
1
 40
1
 40
1
 10
-45.409793
 20
200.891754
 30
0.0
 10
-45.828310
 20
200.891754
 30
0.0
 10
-46.194704
 20
200.611155
 30
0.0
 10
-46.303792
 20
200.207156
 30
0.0
  0
LINE
  5
105
100
AcDbEntity
  8
Layer_1
 62
4
100
AcDbLine
 10
-45.409793
 20
200.891754
 30
0.0
 11
-34.780012
 21
200.891754
 31
0.0
  0
SPLINE
  5
106
100
AcDbEntity
  8
Layer_1
 62
4
100
AcDbSpline
 70
8
 71
3
 72
8
 73
4
 74
0
 40
0
 40
0
 40
0
 40
0
 40
1
 40
1
 40
1
 40
1
 10
-34.780012
 20
200.891754
 30
0.0
 10
-33.964726
 20
200.891754
 30
0.0
 10
-33.182804
 20
201.215653
 30
0.0
 10
-32.606409
 20
201.792153
 30
0.0
  0
SPLINE
  5
107
100
AcDbEntity
  8
Layer_1
 62
4
100
AcDbSpline
 70
8
 71
3
 72
8
 73
4
 74
0
 40
0
 40
0
 40
0
 40
0
 40
1
 40
1
 40
1
 40
1
 10
-32.606409
 20
201.792153
 30
0.0
 10
-32.029910
 20
202.368553
 30
0.0
 10
-31.706007
 20
203.150451
 30
0.0
 10
-31.706007
 20
203.965750
 30
0.0
  0
LINE
  5
108
100
AcDbEntity
  8
Layer_1
 62
4
100
AcDbLine
 10
-31.706007
 20
203.965750
 30
0.0
 11
-31.706007
 21
204.891349
 31
0.0
  0
SPLINE
  5
109
100
AcDbEntity
  8
Layer_1
 62
4
100
AcDbSpline
 70
8
 71
3
 72
8
 73
4
 74
0
 40
0
 40
0
 40
0
 40
0
 40
1
 40
1
 40
1
 40
1
 10
-28.780010
 20
207.817346
 30
0.0
 10
-29.556032
 20
207.817346
 30
0.0
 10
-30.300331
 20
207.509046
 30
0.0
 10
-30.849023
 20
206.960346
 30
0.0
  0
SPLINE
  5
10a
100
AcDbEntity
  8
Layer_1
 62
4
100
AcDbSpline
 70
8
 71
3
 72
8
 73
4
 74
0
 40
0
 40
0
 40
0
 40
0
 40
1
 40
1
 40
1
 40
1
 10
-30.849023
 20
206.960346
 30
0.0
 10
-31.397715
 20
206.411648
 30
0.0
 10
-31.706007
 20
205.667347
 30
0.0
 10
-31.706007
 20
204.891349
 30
0.0
  0
LINE
  5
10b
100
AcDbEntity
  8
Layer_1
 62
4
100
AcDbLine
 10
-28.780010
 20
207.817346
 30
0.0
 11
-24.780018
 21
207.817346
 31
0.0
  0
SPLINE
  5
10c
100
AcDbEntity
  8
Layer_1
 62
4
100
AcDbSpline
 70
8
 71
3
 72
8
 73
4
 74
0
 40
0
 40
0
 40
0
 40
0
 40
1
 40
1
 40
1
 40
1
 10
-21.854021
 20
204.891349
 30
0.0
 10
-21.854021
 20
205.667347
 30
0.0
 10
-22.162340
 20
206.411648
 30
0.0
 10
-22.711032
 20
206.960346
 30
0.0
  0
SPLINE
  5
10d
100
AcDbEntity
  8
Layer_1
 62
4
100
AcDbSpline
 70
8
 71
3
 72
8
 73
4
 74
0
 40
0
 40
0
 40
0
 40
0
 40
1
 40
1
 40
1
 40
1
 10
-22.711032
 20
206.960346
 30
0.0
 10
-23.259724
 20
207.509046
 30
0.0
 10
-24.004022
 20
207.817346
 30
0.0
 10
-24.780018
 20
207.817346
 30
0.0
  0
LINE
  5
10e
100
AcDbEntity
  8
Layer_1
 62
4
100
AcDbLine
 10
-21.854021
 20
204.891349
 30
0.0
 11
-21.854021
 21
203.965750
 31
0.0
  0
SPLINE
  5
10f
100
AcDbEntity
  8
Layer_1
 62
4
100
AcDbSpline
 70
8
 71
3
 72
8
 73
4
 74
0
 40
0
 40
0
 40
0
 40
0
 40
1
 40
1
 40
1
 40
1
 10
-21.854021
 20
203.965750
 30
0.0
 10
-21.854021
 20
203.150451
 30
0.0
 10
-21.530118
 20
202.368553
 30
0.0
 10
-20.953619
 20
201.792153
 30
0.0
  0
SPLINE
  5
110
100
AcDbEntity
  8
Layer_1
 62
4
100
AcDbSpline
 70
8
 71
3
 72
8
 73
4
 74
0
 40
0
 40
0
 40
0
 40
0
 40
1
 40
1
 40
1
 40
1
 10
-20.953619
 20
201.792153
 30
0.0
 10
-20.377224
 20
201.215653
 30
0.0
 10
-19.595329
 20
200.891754
 30
0.0
 10
-18.780043
 20
200.891754
 30
0.0
  0
LINE
  5
111
100
AcDbEntity
  8
Layer_1
 62
4
100
AcDbLine
 10
102.795713
 20
203.965750
 30
0.0
 11
102.795713
 21
204.891349
 31
0.0
  0
SPLINE
  5
112
100
AcDbEntity
  8
Layer_1
 62
4
100
AcDbSpline
 70
8
 71
3
 72
8
 73
4
 74
0
 40
0
 40
0
 40
0
 40
0
 40
1
 40
1
 40
1
 40
1
 10
105.721710
 20
207.817346
 30
0.0
 10
104.945688
 20
207.817346
 30
0.0
 10
104.201390
 20
207.509046
 30
0.0
 10
103.652698
 20
206.960346
 30
0.0
  0
SPLINE
  5
113
100
AcDbEntity
  8
Layer_1
 62
4
100
AcDbSpline
 70
8
 71
3
 72
8
 73
4
 74
0
 40
0
 40
0
 40
0
 40
0
 40
1
 40
1
 40
1
 40
1
 10
103.652698
 20
206.960346
 30
0.0
 10
103.104006
 20
206.411648
 30
0.0
 10
102.795713
 20
205.667347
 30
0.0
 10
102.795713
 20
204.891349
 30
0.0
  0
LINE
  5
114
100
AcDbEntity
  8
Layer_1
 62
4
100
AcDbLine
 10
105.721710
 20
207.817346
 30
0.0
 11
109.721703
 21
207.817346
 31
0.0
  0
SPLINE
  5
115
100
AcDbEntity
  8
Layer_1
 62
4
100
AcDbSpline
 70
8
 71
3
 72
8
 73
4
 74
0
 40
0
 40
0
 40
0
 40
0
 40
1
 40
1
 40
1
 40
1
 10
112.647700
 20
204.891349
 30
0.0
 10
112.647700
 20
205.667347
 30
0.0
 10
112.339381
 20
206.411648
 30
0.0
 10
111.790689
 20
206.960346
 30
0.0
  0
SPLINE
  5
116
100
AcDbEntity
  8
Layer_1
 62
4
100
AcDbSpline
 70
8
 71
3
 72
8
 73
4
 74
0
 40
0
 40
0
 40
0
 40
0
 40
1
 40
1
 40
1
 40
1
 10
111.790689
 20
206.960346
 30
0.0
 10
111.241997
 20
207.509046
 30
0.0
 10
110.497698
 20
207.817346
 30
0.0
 10
109.721703
 20
207.817346
 30
0.0
  0
LINE
  5
117
100
AcDbEntity
  8
Layer_1
 62
4
100
AcDbLine
 10
112.647700
 20
204.891349
 30
0.0
 11
112.647700
 21
203.965750
 31
0.0
  0
SPLINE
  5
118
100
AcDbEntity
  8
Layer_1
 62
4
100
AcDbSpline
 70
8
 71
3
 72
8
 73
4
 74
0
 40
0
 40
0
 40
0
 40
0
 40
1
 40
1
 40
1
 40
1
 10
112.647700
 20
203.965750
 30
0.0
 10
112.647700
 20
203.150451
 30
0.0
 10
112.971602
 20
202.368553
 30
0.0
 10
113.548102
 20
201.792153
 30
0.0
  0
SPLINE
  5
119
100
AcDbEntity
  8
Layer_1
 62
4
100
AcDbSpline
 70
8
 71
3
 72
8
 73
4
 74
0
 40
0
 40
0
 40
0
 40
0
 40
1
 40
1
 40
1
 40
1
 10
113.548102
 20
201.792153
 30
0.0
 10
114.124496
 20
201.215653
 30
0.0
 10
114.906392
 20
200.891754
 30
0.0
 10
115.721678
 20
200.891754
 30
0.0
  0
LINE
  5
11a
100
AcDbEntity
  8
Layer_1
 62
4
100
AcDbLine
 10
115.721678
 20
200.891754
 30
0.0
 11
227.083834
 21
200.891754
 31
0.0
  0
LINE
  5
11b
100
AcDbEntity
  8
Layer_1
 62
4
100
AcDbLine
 10
227.083834
 20
200.891754
 30
0.0
 11
234.374313
 21
200.891754
 31
0.0
  0
LINE
  5
11c
100
AcDbEntity
  8
Layer_1
 62
4
100
AcDbLine
 10
102.795713
 20
94.313020
 30
0.0
 11
102.795713
 21
93.387421
 31
0.0
  0
SPLINE
  5
11d
100
AcDbEntity
  8
Layer_1
 62
4
100
AcDbSpline
 70
8
 71
3
 72
8
 73
4
 74
0
 40
0
 40
0
 40
0
 40
0
 40
1
 40
1
 40
1
 40
1
 10
105.721710
 20
90.461424
 30
0.0
 10
104.945688
 20
90.461424
 30
0.0
 10
104.201390
 20
90.769724
 30
0.0
 10
103.652698
 20
91.318424
 30
0.0
  0
SPLINE
  5
11e
100
AcDbEntity
  8
Layer_1
 62
4
100
AcDbSpline
 70
8
 71
3
 72
8
 73
4
 74
0
 40
0
 40
0
 40
0
 40
0
 40
1
 40
1
 40
1
 40
1
 10
103.652698
 20
91.318424
 30
0.0
 10
103.104006
 20
91.867122
 30
0.0
 10
102.795713
 20
92.611423
 30
0.0
 10
102.795713
 20
93.387421
 30
0.0
  0
LINE
  5
11f
100
AcDbEntity
  8
Layer_1
 62
4
100
AcDbLine
 10
105.721710
 20
90.461424
 30
0.0
 11
109.721703
 21
90.461424
 31
0.0
  0
SPLINE
  5
120
100
AcDbEntity
  8
Layer_1
 62
4
100
AcDbSpline
 70
8
 71
3
 72
8
 73
4
 74
0
 40
0
 40
0
 40
0
 40
0
 40
1
 40
1
 40
1
 40
1
 10
112.647700
 20
93.387421
 30
0.0
 10
112.647700
 20
92.611423
 30
0.0
 10
112.339381
 20
91.867122
 30
0.0
 10
111.790689
 20
91.318424
 30
0.0
  0
SPLINE
  5
121
100
AcDbEntity
  8
Layer_1
 62
4
100
AcDbSpline
 70
8
 71
3
 72
8
 73
4
 74
0
 40
0
 40
0
 40
0
 40
0
 40
1
 40
1
 40
1
 40
1
 10
111.790689
 20
91.318424
 30
0.0
 10
111.241997
 20
90.769724
 30
0.0
 10
110.497698
 20
90.461424
 30
0.0
 10
109.721703
 20
90.461424
 30
0.0
  0
LINE
  5
122
100
AcDbEntity
  8
Layer_1
 62
4
100
AcDbLine
 10
112.647700
 20
93.387421
 30
0.0
 11
112.647700
 21
94.313020
 31
0.0
  0
SPLINE
  5
123
100
AcDbEntity
  8
Layer_1
 62
4
100
AcDbSpline
 70
8
 71
3
 72
8
 73
4
 74
0
 40
0
 40
0
 40
0
 40
0
 40
1
 40
1
 40
1
 40
1
 10
112.647700
 20
94.313020
 30
0.0
 10
112.647700
 20
95.128319
 30
0.0
 10
112.971602
 20
95.910217
 30
0.0
 10
113.548102
 20
96.486616
 30
0.0
  0
SPLINE
  5
124
100
AcDbEntity
  8
Layer_1
 62
4
100
AcDbSpline
 70
8
 71
3
 72
8
 73
4
 74
0
 40
0
 40
0
 40
0
 40
0
 40
1
 40
1
 40
1
 40
1
 10
113.548102
 20
96.486616
 30
0.0
 10
114.124496
 20
97.063116
 30
0.0
 10
114.906392
 20
97.387016
 30
0.0
 10
115.721678
 20
97.387016
 30
0.0
  0
LINE
  5
125
100
AcDbEntity
  8
Layer_1
 62
4
100
AcDbLine
 10
115.721678
 20
97.387016
 30
0.0
 11
227.083834
 21
97.402891
 31
0.0
  0
LINE
  5
126
100
AcDbEntity
  8
Layer_1
 62
4
100
AcDbLine
 10
227.083834
 20
97.402891
 30
0.0
 11
234.374313
 21
97.402891
 31
0.0
  0
SPLINE
  5
127
100
AcDbEntity
  8
Layer_1
 62
4
100
AcDbSpline
 70
8
 71
3
 72
8
 73
4
 74
0
 40
0
 40
0
 40
0
 40
0
 40
1
 40
1
 40
1
 40
1
 10
102.795713
 20
203.965750
 30
0.0
 10
102.795713
 20
203.150451
 30
0.0
 10
102.471811
 20
202.368553
 30
0.0
 10
101.895311
 20
201.792153
 30
0.0
  0
SPLINE
  5
128
100
AcDbEntity
  8
Layer_1
 62
4
100
AcDbSpline
 70
8
 71
3
 72
8
 73
4
 74
0
 40
0
 40
0
 40
0
 40
0
 40
1
 40
1
 40
1
 40
1
 10
101.895311
 20
201.792153
 30
0.0
 10
101.318917
 20
201.215653
 30
0.0
 10
100.536995
 20
200.891754
 30
0.0
 10
99.721709
 20
200.891754
 30
0.0
  0
LINE
  5
129
100
AcDbEntity
  8
Layer_1
 62
4
100
AcDbLine
 10
99.721709
 20
200.891754
 30
0.0
 11
8.035047
 21
200.891754
 31
0.0
  0
LINE
  5
12a
100
AcDbEntity
  8
Layer_1
 62
4
100
AcDbLine
 10
8.035047
 20
200.891754
 30
0.0
 11
7.222328
 21
200.890960
 31
0.0
  0
SPLINE
  5
12b
100
AcDbEntity
  8
Layer_1
 62
4
100
AcDbSpline
 70
8
 71
3
 72
8
 73
4
 74
0
 40
0
 40
0
 40
0
 40
0
 40
1
 40
1
 40
1
 40
1
 10
7.222328
 20
200.890960
 30
0.0
 10
6.446332
 20
200.890960
 30
0.0
 10
5.702034
 20
201.199278
 30
0.0
 10
5.153342
 20
201.747971
 30
0.0
  0
SPLINE
  5
12c
100
AcDbEntity
  8
Layer_1
 62
4
100
AcDbSpline
 70
8
 71
3
 72
8
 73
4
 74
0
 40
0
 40
0
 40
0
 40
0
 40
1
 40
1
 40
1
 40
1
 10
5.153342
 20
201.747971
 30
0.0
 10
4.604649
 20
202.296663
 30
0.0
 10
4.296331
 20
203.040961
 30
0.0
 10
4.296331
 20
203.816957
 30
0.0
  0
LINE
  5
12d
100
AcDbEntity
  8
Layer_1
 62
4
100
AcDbLine
 10
4.296331
 20
203.816957
 30
0.0
 11
4.296331
 21
207.425697
 31
0.0
  0
LINE
  5
12e
100
AcDbEntity
  8
Layer_1
 62
4
100
AcDbLine
 10
4.296331
 20
207.425697
 30
0.0
 11
4.296331
 21
209.516053
 31
0.0
  0
LINE
  5
12f
100
AcDbEntity
  8
Layer_1
 62
4
100
AcDbLine
 10
4.296331
 20
209.516053
 30
0.0
 11
4.296331
 21
213.500300
 31
0.0
  0
SPLINE
  5
130
100
AcDbEntity
  8
Layer_1
 62
4
100
AcDbSpline
 70
8
 71
3
 72
8
 73
4
 74
0
 40
0
 40
0
 40
0
 40
0
 40
1
 40
1
 40
1
 40
1
 10
4.296331
 20
213.500300
 30
0.0
 10
4.296331
 20
214.276322
 30
0.0
 10
4.604649
 20
215.020621
 30
0.0
 10
5.153342
 20
215.569313
 30
0.0
  0
SPLINE
  5
131
100
AcDbEntity
  8
Layer_1
 62
4
100
AcDbSpline
 70
8
 71
3
 72
8
 73
4
 74
0
 40
0
 40
0
 40
0
 40
0
 40
1
 40
1
 40
1
 40
1
 10
5.153342
 20
215.569313
 30
0.0
 10
5.702034
 20
216.118005
 30
0.0
 10
6.446332
 20
216.426295
 30
0.0
 10
7.222328
 20
216.426295
 30
0.0
  0
LINE
  5
132
100
AcDbEntity
  8
Layer_1
 62
4
100
AcDbLine
 10
7.222328
 20
216.426295
 30
0.0
 11
8.398849
 21
216.433888
 31
0.0
  0
LINE
  5
133
100
AcDbEntity
  8
Layer_1
 62
4
100
AcDbLine
 10
8.398849
 20
216.433888
 30
0.0
 11
273.763512
 21
216.433872
 31
0.0
  0
SPLINE
  5
134
100
AcDbEntity
  8
Layer_1
 62
4
100
AcDbSpline
 70
8
 71
3
 72
8
 73
4
 74
0
 40
0
 40
0
 40
0
 40
0
 40
1
 40
1
 40
1
 40
1
 10
273.763512
 20
216.433872
 30
0.0
 10
275.054541
 20
216.433872
 30
0.0
 10
276.307440
 20
215.996214
 30
0.0
 10
277.317666
 20
215.192348
 30
0.0
  0
LINE
  5
135
100
AcDbEntity
  8
Layer_1
 62
4
100
AcDbLine
 10
277.317666
 20
215.192348
 30
0.0
 11
280.824055
 21
212.402215
 31
0.0
  0
SPLINE
  5
136
100
AcDbEntity
  8
Layer_1
 62
4
100
AcDbSpline
 70
8
 71
3
 72
8
 73
4
 74
0
 40
0
 40
0
 40
0
 40
0
 40
1
 40
1
 40
1
 40
1
 10
280.824055
 20
212.402215
 30
0.0
 10
281.685749
 20
211.716540
 30
0.0
 10
282.384452
 20
210.267982
 30
0.0
 10
282.384645
 20
209.166772
 30
0.0
  0
SPLINE
  5
137
100
AcDbEntity
  8
Layer_1
 62
4
100
AcDbSpline
 70
8
 71
3
 72
8
 73
4
 74
0
 40
0
 40
0
 40
0
 40
0
 40
1
 40
1
 40
1
 40
1
 10
282.384645
 20
209.166772
 30
0.0
 10
282.406129
 20
86.429549
 30
0.0
 10
282.335660
 20
165.463699
 30
0.0
 10
282.365357
 20
90.925137
 30
0.0
  0
SPLINE
  5
138
100
AcDbEntity
  8
Layer_1
 62
4
100
AcDbSpline
 70
8
 71
3
 72
8
 73
4
 74
0
 40
0
 40
0
 40
0
 40
0
 40
1
 40
1
 40
1
 40
1
 10
282.365357
 20
90.925137
 30
0.0
 10
282.365886
 20
89.869771
 30
0.0
 10
281.668395
 20
88.519128
 30
0.0
 10
280.807696
 20
87.908388
 30
0.0
  0
LINE
  5
139
100
AcDbEntity
  8
Layer_1
 62
4
100
AcDbLine
 10
280.807696
 20
87.908388
 30
0.0
 11
268.484240
 21
79.163820
 31
0.0
  0
SPLINE
  5
13a
100
AcDbEntity
  8
Layer_1
 62
4
100
AcDbSpline
 70
8
 71
3
 72
8
 73
4
 74
0
 40
0
 40
0
 40
0
 40
0
 40
1
 40
1
 40
1
 40
1
 10
268.484240
 20
79.163820
 30
0.0
 10
267.427846
 20
78.414217
 30
0.0
 10
266.159839
 20
78.021217
 30
0.0
 10
264.864678
 20
78.041991
 30
0.0
  0
LINE
  5
13b
100
AcDbEntity
  8
Layer_1
 62
4
100
AcDbLine
 10
264.864678
 20
78.041991
 30
0.0
 11
263.737697
 21
78.060062
 31
0.0
  0
LINE
  5
13c
100
AcDbEntity
  8
Layer_1
 62
4
100
AcDbLine
 10
263.737697
 20
78.060062
 30
0.0
 11
-48.155304
 21
78.060083
 31
0.0
  0
LINE
  5
13d
100
AcDbEntity
  8
Layer_1
 62
4
100
AcDbLine
 10
-48.155304
 20
78.060083
 30
0.0
 11
-49.298197
 21
78.041747
 31
0.0
  0
SPLINE
  5
13e
100
AcDbEntity
  8
Layer_1
 62
4
100
AcDbSpline
 70
8
 71
3
 72
8
 73
4
 74
0
 40
0
 40
0
 40
0
 40
0
 40
1
 40
1
 40
1
 40
1
 10
-49.298197
 20
78.041747
 30
0.0
 10
-50.583024
 20
78.021138
 30
0.0
 10
-51.840914
 20
78.411001
 30
0.0
 10
-52.888879
 20
79.154623
 30
0.0
  0
LINE
  5
13f
100
AcDbEntity
  8
Layer_1
 62
4
100
AcDbLine
 10
-52.888879
 20
79.154623
 30
0.0
 11
-65.178416
 21
87.875122
 31
0.0
  0
SPLINE
  5
140
100
AcDbEntity
  8
Layer_1
 62
4
100
AcDbSpline
 70
8
 71
3
 72
8
 73
4
 74
0
 40
0
 40
0
 40
0
 40
0
 40
1
 40
1
 40
1
 40
1
 10
-65.178416
 20
87.875122
 30
0.0
 10
-66.065007
 20
88.504240
 30
0.0
 10
-66.783376
 20
89.895529
 30
0.0
 10
-66.782953
 20
90.982652
 30
0.0
  0
SPLINE
  5
141
100
AcDbEntity
  8
Layer_1
 62
4
100
AcDbSpline
 70
8
 71
3
 72
8
 73
4
 74
0
 40
0
 40
0
 40
0
 40
0
 40
1
 40
1
 40
1
 40
1
 10
-66.782953
 20
90.982652
 30
0.0
 10
-66.753267
 20
165.439833
 30
0.0
 10
-66.823751
 20
86.425533
 30
0.0
 10
-66.802003
 20
209.249790
 30
0.0
  0
SPLINE
  5
142
100
AcDbEntity
  8
Layer_1
 62
4
100
AcDbSpline
 70
8
 71
3
 72
8
 73
4
 74
0
 40
0
 40
0
 40
0
 40
0
 40
1
 40
1
 40
1
 40
1
 10
-66.802003
 20
209.249790
 30
0.0
 10
-66.801818
 20
210.305156
 30
0.0
 10
-66.132211
 20
211.693407
 30
0.0
 10
-65.306368
 20
212.350539
 30
0.0
  0
LINE
  5
143
100
AcDbEntity
  8
Layer_1
 62
4
100
AcDbLine
 10
-65.306368
 20
212.350539
 30
0.0
 11
-61.670098
 21
215.244043
 31
0.0
  0
SPLINE
  5
144
100
AcDbEntity
  8
Layer_1
 62
4
100
AcDbSpline
 70
8
 71
3
 72
8
 73
4
 74
0
 40
0
 40
0
 40
0
 40
0
 40
1
 40
1
 40
1
 40
1
 10
-61.670098
 20
215.244043
 30
0.0
 10
-60.701923
 20
216.014448
 30
0.0
 10
-59.501174
 20
216.433887
 30
0.0
 10
-58.263883
 20
216.433883
 30
0.0
  0
LINE
  5
145
100
AcDbEntity
  8
Layer_1
 62
4
100
AcDbLine
 10
-58.263883
 20
216.433883
 30
0.0
 11
-16.703238
 21
216.433880
 31
0.0
  0
LINE
  5
146
100
AcDbEntity
  8
Layer_1
 62
4
100
AcDbLine
 10
-16.703238
 20
216.433880
 30
0.0
 11
-15.626756
 21
216.427345
 31
0.0
  0
SPLINE
  5
147
100
AcDbEntity
  8
Layer_1
 62
4
100
AcDbSpline
 70
8
 71
3
 72
8
 73
4
 74
0
 40
0
 40
0
 40
0
 40
0
 40
1
 40
1
 40
1
 40
1
 10
-15.626756
 20
216.427345
 30
0.0
 10
-14.850760
 20
216.427345
 30
0.0
 10
-14.106462
 20
216.119053
 30
0.0
 10
-13.557770
 20
215.570361
 30
0.0
  0
SPLINE
  5
148
100
AcDbEntity
  8
Layer_1
 62
4
100
AcDbSpline
 70
8
 71
3
 72
8
 73
4
 74
0
 40
0
 40
0
 40
0
 40
0
 40
1
 40
1
 40
1
 40
1
 10
-13.557770
 20
215.570361
 30
0.0
 10
-13.009077
 20
215.021668
 30
0.0
 10
-12.700759
 20
214.277370
 30
0.0
 10
-12.700759
 20
213.501348
 30
0.0
  0
LINE
  5
149
100
AcDbEntity
  8
Layer_1
 62
4
100
AcDbLine
 10
-12.700759
 20
213.501348
 30
0.0
 11
-12.700759
 21
209.516067
 31
0.0
  0
LINE
  5
14a
100
AcDbEntity
  8
Layer_1
 62
4
100
AcDbLine
 10
-12.700759
 20
209.516067
 30
0.0
 11
-12.700759
 21
207.789514
 31
0.0
  0
LINE
  5
14b
100
AcDbEntity
  8
Layer_1
 62
4
100
AcDbLine
 10
-12.700759
 20
207.789514
 30
0.0
 11
-12.700759
 21
203.814904
 31
0.0
  0
SPLINE
  5
14c
100
AcDbEntity
  8
Layer_1
 62
4
100
AcDbSpline
 70
8
 71
3
 72
8
 73
4
 74
0
 40
0
 40
0
 40
0
 40
0
 40
1
 40
1
 40
1
 40
1
 10
-12.700759
 20
203.814904
 30
0.0
 10
-12.700759
 20
203.038908
 30
0.0
 10
-13.009077
 20
202.294610
 30
0.0
 10
-13.557770
 20
201.745917
 30
0.0
  0
SPLINE
  5
14d
100
AcDbEntity
  8
Layer_1
 62
4
100
AcDbSpline
 70
8
 71
3
 72
8
 73
4
 74
0
 40
0
 40
0
 40
0
 40
0
 40
1
 40
1
 40
1
 40
1
 10
-13.557770
 20
201.745917
 30
0.0
 10
-14.106462
 20
201.197225
 30
0.0
 10
-14.850760
 20
200.888912
 30
0.0
 10
-15.626756
 20
200.888912
 30
0.0
  0
LINE
  5
14e
100
AcDbEntity
  8
Layer_1
 62
4
100
AcDbLine
 10
-15.626756
 20
200.888912
 30
0.0
 11
-16.273291
 21
200.891664
 31
0.0
  0
LINE
  5
14f
100
AcDbEntity
  8
Layer_1
 62
4
100
AcDbLine
 10
-16.273291
 20
200.891664
 30
0.0
 11
-18.779818
 21
200.891664
 31
0.0
  0
SPLINE
  5
150
100
AcDbEntity
  8
Layer_1
 62
4
100
AcDbSpline
 70
8
 71
3
 72
8
 73
4
 74
0
 40
0
 40
0
 40
0
 40
0
 40
1
 40
1
 40
1
 40
1
 10
-46.303792
 20
98.087489
 30
0.0
 10
-46.337712
 20
98.189290
 30
0.0
 10
-46.354989
 20
98.295988
 30
0.0
 10
-46.354989
 20
98.403290
 30
0.0
  0
SPLINE
  5
151
100
AcDbEntity
  8
Layer_1
 62
4
100
AcDbSpline
 70
8
 71
3
 72
8
 73
4
 74
0
 40
0
 40
0
 40
0
 40
0
 40
1
 40
1
 40
1
 40
1
 10
-45.409793
 20
97.402891
 30
0.0
 10
-45.828310
 20
97.402891
 30
0.0
 10
-46.194704
 20
97.683489
 30
0.0
 10
-46.303792
 20
98.087489
 30
0.0
  0
LINE
  5
152
100
AcDbEntity
  8
Layer_1
 62
4
100
AcDbLine
 10
-45.409793
 20
97.402891
 30
0.0
 11
-34.780012
 21
97.402891
 31
0.0
  0
SPLINE
  5
153
100
AcDbEntity
  8
Layer_1
 62
4
100
AcDbSpline
 70
8
 71
3
 72
8
 73
4
 74
0
 40
0
 40
0
 40
0
 40
0
 40
1
 40
1
 40
1
 40
1
 10
-34.780012
 20
97.402891
 30
0.0
 10
-33.964726
 20
97.402891
 30
0.0
 10
-33.182804
 20
97.078991
 30
0.0
 10
-32.606409
 20
96.502491
 30
0.0
  0
SPLINE
  5
154
100
AcDbEntity
  8
Layer_1
 62
4
100
AcDbSpline
 70
8
 71
3
 72
8
 73
4
 74
0
 40
0
 40
0
 40
0
 40
0
 40
1
 40
1
 40
1
 40
1
 10
-32.606409
 20
96.502491
 30
0.0
 10
-32.029910
 20
95.926092
 30
0.0
 10
-31.706007
 20
95.144194
 30
0.0
 10
-31.706007
 20
94.328894
 30
0.0
  0
LINE
  5
155
100
AcDbEntity
  8
Layer_1
 62
4
100
AcDbLine
 10
-31.706007
 20
94.328894
 30
0.0
 11
-31.706007
 21
93.403296
 31
0.0
  0
SPLINE
  5
156
100
AcDbEntity
  8
Layer_1
 62
4
100
AcDbSpline
 70
8
 71
3
 72
8
 73
4
 74
0
 40
0
 40
0
 40
0
 40
0
 40
1
 40
1
 40
1
 40
1
 10
-28.780010
 20
90.477299
 30
0.0
 10
-29.556032
 20
90.477299
 30
0.0
 10
-30.300331
 20
90.785599
 30
0.0
 10
-30.849023
 20
91.334299
 30
0.0
  0
SPLINE
  5
157
100
AcDbEntity
  8
Layer_1
 62
4
100
AcDbSpline
 70
8
 71
3
 72
8
 73
4
 74
0
 40
0
 40
0
 40
0
 40
0
 40
1
 40
1
 40
1
 40
1
 10
-30.849023
 20
91.334299
 30
0.0
 10
-31.397715
 20
91.882997
 30
0.0
 10
-31.706007
 20
92.627298
 30
0.0
 10
-31.706007
 20
93.403296
 30
0.0
  0
LINE
  5
158
100
AcDbEntity
  8
Layer_1
 62
4
100
AcDbLine
 10
-28.780010
 20
90.477299
 30
0.0
 11
-24.780018
 21
90.477299
 31
0.0
  0
SPLINE
  5
159
100
AcDbEntity
  8
Layer_1
 62
4
100
AcDbSpline
 70
8
 71
3
 72
8
 73
4
 74
0
 40
0
 40
0
 40
0
 40
0
 40
1
 40
1
 40
1
 40
1
 10
-21.854021
 20
93.403296
 30
0.0
 10
-21.854021
 20
92.627298
 30
0.0
 10
-22.162340
 20
91.882997
 30
0.0
 10
-22.711032
 20
91.334299
 30
0.0
  0
SPLINE
  5
15a
100
AcDbEntity
  8
Layer_1
 62
4
100
AcDbSpline
 70
8
 71
3
 72
8
 73
4
 74
0
 40
0
 40
0
 40
0
 40
0
 40
1
 40
1
 40
1
 40
1
 10
-22.711032
 20
91.334299
 30
0.0
 10
-23.259724
 20
90.785599
 30
0.0
 10
-24.004022
 20
90.477299
 30
0.0
 10
-24.780018
 20
90.477299
 30
0.0
  0
LINE
  5
15b
100
AcDbEntity
  8
Layer_1
 62
4
100
AcDbLine
 10
-21.854021
 20
93.403296
 30
0.0
 11
-21.854021
 21
94.328894
 31
0.0
  0
SPLINE
  5
15c
100
AcDbEntity
  8
Layer_1
 62
4
100
AcDbSpline
 70
8
 71
3
 72
8
 73
4
 74
0
 40
0
 40
0
 40
0
 40
0
 40
1
 40
1
 40
1
 40
1
 10
-21.854021
 20
94.328894
 30
0.0
 10
-21.854021
 20
95.144194
 30
0.0
 10
-21.530118
 20
95.926092
 30
0.0
 10
-20.953619
 20
96.502491
 30
0.0
  0
SPLINE
  5
15d
100
AcDbEntity
  8
Layer_1
 62
4
100
AcDbSpline
 70
8
 71
3
 72
8
 73
4
 74
0
 40
0
 40
0
 40
0
 40
0
 40
1
 40
1
 40
1
 40
1
 10
-20.953619
 20
96.502491
 30
0.0
 10
-20.377224
 20
97.078991
 30
0.0
 10
-19.595329
 20
97.402891
 30
0.0
 10
-18.780043
 20
97.402891
 30
0.0
  0
LINE
  5
15e
100
AcDbEntity
  8
Layer_1
 62
4
100
AcDbLine
 10
-18.780043
 20
97.402891
 30
0.0
 11
-11.489564
 21
97.402891
 31
0.0
  0
LINE
  5
15f
100
AcDbEntity
  8
Layer_1
 62
4
100
AcDbLine
 10
-11.489564
 20
97.402891
 30
0.0
 11
99.721709
 21
97.387016
 31
0.0
  0
SPLINE
  5
160
100
AcDbEntity
  8
Layer_1
 62
4
100
AcDbSpline
 70
8
 71
3
 72
8
 73
4
 74
0
 40
0
 40
0
 40
0
 40
0
 40
1
 40
1
 40
1
 40
1
 10
99.721709
 20
97.387016
 30
0.0
 10
100.536995
 20
97.387016
 30
0.0
 10
101.318917
 20
97.063116
 30
0.0
 10
101.895311
 20
96.486616
 30
0.0
  0
SPLINE
  5
161
100
AcDbEntity
  8
Layer_1
 62
4
100
AcDbSpline
 70
8
 71
3
 72
8
 73
4
 74
0
 40
0
 40
0
 40
0
 40
0
 40
1
 40
1
 40
1
 40
1
 10
101.895311
 20
96.486616
 30
0.0
 10
102.471811
 20
95.910217
 30
0.0
 10
102.795713
 20
95.128319
 30
0.0
 10
102.795713
 20
94.313020
 30
0.0
  0
LINE
  5
162
100
AcDbEntity
  8
Layer_1
 62
4
100
AcDbLine
 10
261.949259
 20
199.891355
 30
0.0
 11
261.949259
 21
164.120210
 31
0.0
  0
LINE
  5
163
100
AcDbEntity
  8
Layer_1
 62
4
100
AcDbLine
 10
261.949259
 20
164.120210
 30
0.0
 11
261.949259
 21
134.174433
 31
0.0
  0
LINE
  5
164
100
AcDbEntity
  8
Layer_1
 62
4
100
AcDbLine
 10
261.949259
 20
134.174433
 30
0.0
 11
261.949259
 21
98.403290
 31
0.0
  0
SPLINE
  5
165
100
AcDbEntity
  8
Layer_1
 62
4
100
AcDbSpline
 70
8
 71
3
 72
8
 73
4
 74
0
 40
0
 40
0
 40
0
 40
0
 40
1
 40
1
 40
1
 40
1
 10
261.898062
 20
200.207156
 30
0.0
 10
261.931982
 20
200.105355
 30
0.0
 10
261.949259
 20
199.998656
 30
0.0
 10
261.949259
 20
199.891355
 30
0.0
  0
SPLINE
  5
166
100
AcDbEntity
  8
Layer_1
 62
4
100
AcDbSpline
 70
8
 71
3
 72
8
 73
4
 74
0
 40
0
 40
0
 40
0
 40
0
 40
1
 40
1
 40
1
 40
1
 10
261.004063
 20
200.891754
 30
0.0
 10
261.422580
 20
200.891754
 30
0.0
 10
261.788975
 20
200.611155
 30
0.0
 10
261.898062
 20
200.207156
 30
0.0
  0
LINE
  5
167
100
AcDbEntity
  8
Layer_1
 62
4
100
AcDbLine
 10
261.004063
 20
200.891754
 30
0.0
 11
250.374282
 21
200.891754
 31
0.0
  0
SPLINE
  5
168
100
AcDbEntity
  8
Layer_1
 62
4
100
AcDbSpline
 70
8
 71
3
 72
8
 73
4
 74
0
 40
0
 40
0
 40
0
 40
0
 40
1
 40
1
 40
1
 40
1
 10
250.374282
 20
200.891754
 30
0.0
 10
249.558996
 20
200.891754
 30
0.0
 10
248.777074
 20
201.215653
 30
0.0
 10
248.200680
 20
201.792153
 30
0.0
  0
SPLINE
  5
169
100
AcDbEntity
  8
Layer_1
 62
4
100
AcDbSpline
 70
8
 71
3
 72
8
 73
4
 74
0
 40
0
 40
0
 40
0
 40
0
 40
1
 40
1
 40
1
 40
1
 10
248.200680
 20
201.792153
 30
0.0
 10
247.624180
 20
202.368553
 30
0.0
 10
247.300277
 20
203.150451
 30
0.0
 10
247.300277
 20
203.965750
 30
0.0
  0
LINE
  5
16a
100
AcDbEntity
  8
Layer_1
 62
4
100
AcDbLine
 10
247.300277
 20
203.965750
 30
0.0
 11
247.300277
 21
204.891349
 31
0.0
  0
SPLINE
  5
16b
100
AcDbEntity
  8
Layer_1
 62
4
100
AcDbSpline
 70
8
 71
3
 72
8
 73
4
 74
0
 40
0
 40
0
 40
0
 40
0
 40
1
 40
1
 40
1
 40
1
 10
244.374280
 20
207.817346
 30
0.0
 10
245.150302
 20
207.817346
 30
0.0
 10
245.894601
 20
207.509046
 30
0.0
 10
246.443293
 20
206.960346
 30
0.0
  0
SPLINE
  5
16c
100
AcDbEntity
  8
Layer_1
 62
4
100
AcDbSpline
 70
8
 71
3
 72
8
 73
4
 74
0
 40
0
 40
0
 40
0
 40
0
 40
1
 40
1
 40
1
 40
1
 10
246.443293
 20
206.960346
 30
0.0
 10
246.991985
 20
206.411648
 30
0.0
 10
247.300277
 20
205.667347
 30
0.0
 10
247.300277
 20
204.891349
 30
0.0
  0
LINE
  5
16d
100
AcDbEntity
  8
Layer_1
 62
4
100
AcDbLine
 10
244.374280
 20
207.817346
 30
0.0
 11
240.374288
 21
207.817346
 31
0.0
  0
SPLINE
  5
16e
100
AcDbEntity
  8
Layer_1
 62
4
100
AcDbSpline
 70
8
 71
3
 72
8
 73
4
 74
0
 40
0
 40
0
 40
0
 40
0
 40
1
 40
1
 40
1
 40
1
 10
237.448291
 20
204.891349
 30
0.0
 10
237.448291
 20
205.667347
 30
0.0
 10
237.756610
 20
206.411648
 30
0.0
 10
238.305302
 20
206.960346
 30
0.0
  0
SPLINE
  5
16f
100
AcDbEntity
  8
Layer_1
 62
4
100
AcDbSpline
 70
8
 71
3
 72
8
 73
4
 74
0
 40
0
 40
0
 40
0
 40
0
 40
1
 40
1
 40
1
 40
1
 10
238.305302
 20
206.960346
 30
0.0
 10
238.853994
 20
207.509046
 30
0.0
 10
239.598293
 20
207.817346
 30
0.0
 10
240.374288
 20
207.817346
 30
0.0
  0
LINE
  5
170
100
AcDbEntity
  8
Layer_1
 62
4
100
AcDbLine
 10
237.448291
 20
204.891349
 30
0.0
 11
237.448291
 21
203.965750
 31
0.0
  0
SPLINE
  5
171
100
AcDbEntity
  8
Layer_1
 62
4
100
AcDbSpline
 70
8
 71
3
 72
8
 73
4
 74
0
 40
0
 40
0
 40
0
 40
0
 40
1
 40
1
 40
1
 40
1
 10
237.448291
 20
203.965750
 30
0.0
 10
237.448291
 20
203.150451
 30
0.0
 10
237.124389
 20
202.368553
 30
0.0
 10
236.547889
 20
201.792153
 30
0.0
  0
SPLINE
  5
172
100
AcDbEntity
  8
Layer_1
 62
4
100
AcDbSpline
 70
8
 71
3
 72
8
 73
4
 74
0
 40
0
 40
0
 40
0
 40
0
 40
1
 40
1
 40
1
 40
1
 10
236.547889
 20
201.792153
 30
0.0
 10
235.971495
 20
201.215653
 30
0.0
 10
235.189599
 20
200.891754
 30
0.0
 10
234.374313
 20
200.891754
 30
0.0
  0
SPLINE
  5
173
100
AcDbEntity
  8
Layer_1
 62
4
100
AcDbSpline
 70
8
 71
3
 72
8
 73
4
 74
0
 40
0
 40
0
 40
0
 40
0
 40
1
 40
1
 40
1
 40
1
 10
261.898062
 20
98.087489
 30
0.0
 10
261.931982
 20
98.189290
 30
0.0
 10
261.949259
 20
98.295988
 30
0.0
 10
261.949259
 20
98.403290
 30
0.0
  0
SPLINE
  5
174
100
AcDbEntity
  8
Layer_1
 62
4
100
AcDbSpline
 70
8
 71
3
 72
8
 73
4
 74
0
 40
0
 40
0
 40
0
 40
0
 40
1
 40
1
 40
1
 40
1
 10
261.004063
 20
97.402891
 30
0.0
 10
261.422580
 20
97.402891
 30
0.0
 10
261.788975
 20
97.683489
 30
0.0
 10
261.898062
 20
98.087489
 30
0.0
  0
LINE
  5
175
100
AcDbEntity
  8
Layer_1
 62
4
100
AcDbLine
 10
261.004063
 20
97.402891
 30
0.0
 11
250.374282
 21
97.402891
 31
0.0
  0
SPLINE
  5
176
100
AcDbEntity
  8
Layer_1
 62
4
100
AcDbSpline
 70
8
 71
3
 72
8
 73
4
 74
0
 40
0
 40
0
 40
0
 40
0
 40
1
 40
1
 40
1
 40
1
 10
250.374282
 20
97.402891
 30
0.0
 10
249.558996
 20
97.402891
 30
0.0
 10
248.777074
 20
97.078991
 30
0.0
 10
248.200680
 20
96.502491
 30
0.0
  0
SPLINE
  5
177
100
AcDbEntity
  8
Layer_1
 62
4
100
AcDbSpline
 70
8
 71
3
 72
8
 73
4
 74
0
 40
0
 40
0
 40
0
 40
0
 40
1
 40
1
 40
1
 40
1
 10
248.200680
 20
96.502491
 30
0.0
 10
247.624180
 20
95.926092
 30
0.0
 10
247.300277
 20
95.144194
 30
0.0
 10
247.300277
 20
94.328894
 30
0.0
  0
LINE
  5
178
100
AcDbEntity
  8
Layer_1
 62
4
100
AcDbLine
 10
247.300277
 20
94.328894
 30
0.0
 11
247.300277
 21
93.403296
 31
0.0
  0
SPLINE
  5
179
100
AcDbEntity
  8
Layer_1
 62
4
100
AcDbSpline
 70
8
 71
3
 72
8
 73
4
 74
0
 40
0
 40
0
 40
0
 40
0
 40
1
 40
1
 40
1
 40
1
 10
244.374280
 20
90.477299
 30
0.0
 10
245.150302
 20
90.477299
 30
0.0
 10
245.894601
 20
90.785599
 30
0.0
 10
246.443293
 20
91.334299
 30
0.0
  0
SPLINE
  5
17a
100
AcDbEntity
  8
Layer_1
 62
4
100
AcDbSpline
 70
8
 71
3
 72
8
 73
4
 74
0
 40
0
 40
0
 40
0
 40
0
 40
1
 40
1
 40
1
 40
1
 10
246.443293
 20
91.334299
 30
0.0
 10
246.991985
 20
91.882997
 30
0.0
 10
247.300277
 20
92.627298
 30
0.0
 10
247.300277
 20
93.403296
 30
0.0
  0
LINE
  5
17b
100
AcDbEntity
  8
Layer_1
 62
4
100
AcDbLine
 10
244.374280
 20
90.477299
 30
0.0
 11
240.374288
 21
90.477299
 31
0.0
  0
SPLINE
  5
17c
100
AcDbEntity
  8
Layer_1
 62
4
100
AcDbSpline
 70
8
 71
3
 72
8
 73
4
 74
0
 40
0
 40
0
 40
0
 40
0
 40
1
 40
1
 40
1
 40
1
 10
237.448291
 20
93.403296
 30
0.0
 10
237.448291
 20
92.627298
 30
0.0
 10
237.756610
 20
91.882997
 30
0.0
 10
238.305302
 20
91.334299
 30
0.0
  0
SPLINE
  5
17d
100
AcDbEntity
  8
Layer_1
 62
4
100
AcDbSpline
 70
8
 71
3
 72
8
 73
4
 74
0
 40
0
 40
0
 40
0
 40
0
 40
1
 40
1
 40
1
 40
1
 10
238.305302
 20
91.334299
 30
0.0
 10
238.853994
 20
90.785599
 30
0.0
 10
239.598293
 20
90.477299
 30
0.0
 10
240.374288
 20
90.477299
 30
0.0
  0
LINE
  5
17e
100
AcDbEntity
  8
Layer_1
 62
4
100
AcDbLine
 10
237.448291
 20
93.403296
 30
0.0
 11
237.448291
 21
94.328894
 31
0.0
  0
SPLINE
  5
17f
100
AcDbEntity
  8
Layer_1
 62
4
100
AcDbSpline
 70
8
 71
3
 72
8
 73
4
 74
0
 40
0
 40
0
 40
0
 40
0
 40
1
 40
1
 40
1
 40
1
 10
237.448291
 20
94.328894
 30
0.0
 10
237.448291
 20
95.144194
 30
0.0
 10
237.124389
 20
95.926092
 30
0.0
 10
236.547889
 20
96.502491
 30
0.0
  0
SPLINE
  5
180
100
AcDbEntity
  8
Layer_1
 62
4
100
AcDbSpline
 70
8
 71
3
 72
8
 73
4
 74
0
 40
0
 40
0
 40
0
 40
0
 40
1
 40
1
 40
1
 40
1
 10
236.547889
 20
96.502491
 30
0.0
 10
235.971495
 20
97.078991
 30
0.0
 10
235.189599
 20
97.402891
 30
0.0
 10
234.374313
 20
97.402891
 30
0.0
  0
SPLINE
  5
181
100
AcDbEntity
  8
Layer_1
 62
4
100
AcDbSpline
 70
8
 71
3
 72
8
 73
4
 74
0
 40
0
 40
0
 40
0
 40
0
 40
1
 40
1
 40
1
 40
1
 10
-52.420469
 20
203.324483
 30
0.0
 10
-52.420469
 20
204.190315
 30
0.0
 10
-53.122302
 20
204.892124
 30
0.0
 10
-53.988097
 20
204.892124
 30
0.0
  0
SPLINE
  5
182
100
AcDbEntity
  8
Layer_1
 62
4
100
AcDbSpline
 70
8
 71
3
 72
8
 73
4
 74
0
 40
0
 40
0
 40
0
 40
0
 40
1
 40
1
 40
1
 40
1
 10
-53.988097
 20
204.892124
 30
0.0
 10
-54.853918
 20
204.892124
 30
0.0
 10
-55.555751
 20
204.190315
 30
0.0
 10
-55.555751
 20
203.324483
 30
0.0
  0
SPLINE
  5
183
100
AcDbEntity
  8
Layer_1
 62
4
100
AcDbSpline
 70
8
 71
3
 72
8
 73
4
 74
0
 40
0
 40
0
 40
0
 40
0
 40
1
 40
1
 40
1
 40
1
 10
-55.555751
 20
203.324483
 30
0.0
 10
-55.555751
 20
202.458651
 30
0.0
 10
-54.853918
 20
201.756842
 30
0.0
 10
-53.988097
 20
201.756842
 30
0.0
  0
SPLINE
  5
184
100
AcDbEntity
  8
Layer_1
 62
4
100
AcDbSpline
 70
8
 71
3
 72
8
 73
4
 74
0
 40
0
 40
0
 40
0
 40
0
 40
1
 40
1
 40
1
 40
1
 10
-53.988097
 20
201.756842
 30
0.0
 10
-53.122302
 20
201.756842
 30
0.0
 10
-52.420469
 20
202.458651
 30
0.0
 10
-52.420469
 20
203.324483
 30
0.0
  0
LINE
  5
185
100
AcDbEntity
  8
Layer_1
 62
4
100
AcDbLine
 10
-52.420469
 20
203.324483
 30
0.0
 11
-52.420469
 21
203.324483
 31
0.0
  0
SPLINE
  5
186
100
AcDbEntity
  8
Layer_1
 62
4
100
AcDbSpline
 70
8
 71
3
 72
8
 73
4
 74
0
 40
0
 40
0
 40
0
 40
0
 40
1
 40
1
 40
1
 40
1
 10
35.553537
 20
206.800059
 30
0.0
 10
35.553537
 20
207.665891
 30
0.0
 10
34.851704
 20
208.367700
 30
0.0
 10
33.985910
 20
208.367700
 30
0.0
  0
SPLINE
  5
187
100
AcDbEntity
  8
Layer_1
 62
4
100
AcDbSpline
 70
8
 71
3
 72
8
 73
4
 74
0
 40
0
 40
0
 40
0
 40
0
 40
1
 40
1
 40
1
 40
1
 10
33.985910
 20
208.367700
 30
0.0
 10
33.120088
 20
208.367700
 30
0.0
 10
32.418255
 20
207.665891
 30
0.0
 10
32.418255
 20
206.800059
 30
0.0
  0
SPLINE
  5
188
100
AcDbEntity
  8
Layer_1
 62
4
100
AcDbSpline
 70
8
 71
3
 72
8
 73
4
 74
0
 40
0
 40
0
 40
0
 40
0
 40
1
 40
1
 40
1
 40
1
 10
32.418255
 20
206.800059
 30
0.0
 10
32.418255
 20
205.934227
 30
0.0
 10
33.120088
 20
205.232418
 30
0.0
 10
33.985910
 20
205.232418
 30
0.0
  0
SPLINE
  5
189
100
AcDbEntity
  8
Layer_1
 62
4
100
AcDbSpline
 70
8
 71
3
 72
8
 73
4
 74
0
 40
0
 40
0
 40
0
 40
0
 40
1
 40
1
 40
1
 40
1
 10
33.985910
 20
205.232418
 30
0.0
 10
34.851704
 20
205.232418
 30
0.0
 10
35.553537
 20
205.934227
 30
0.0
 10
35.553537
 20
206.800059
 30
0.0
  0
LINE
  5
18a
100
AcDbEntity
  8
Layer_1
 62
4
100
AcDbLine
 10
35.553537
 20
206.800059
 30
0.0
 11
35.553537
 21
206.800059
 31
0.0
  0
SPLINE
  5
18b
100
AcDbEntity
  8
Layer_1
 62
4
100
AcDbSpline
 70
8
 71
3
 72
8
 73
4
 74
0
 40
0
 40
0
 40
0
 40
0
 40
1
 40
1
 40
1
 40
1
 10
35.553537
 20
89.975022
 30
0.0
 10
35.553537
 20
90.840854
 30
0.0
 10
34.851704
 20
91.542664
 30
0.0
 10
33.985910
 20
91.542664
 30
0.0
  0
SPLINE
  5
18c
100
AcDbEntity
  8
Layer_1
 62
4
100
AcDbSpline
 70
8
 71
3
 72
8
 73
4
 74
0
 40
0
 40
0
 40
0
 40
0
 40
1
 40
1
 40
1
 40
1
 10
33.985910
 20
91.542664
 30
0.0
 10
33.120088
 20
91.542664
 30
0.0
 10
32.418255
 20
90.840854
 30
0.0
 10
32.418255
 20
89.975022
 30
0.0
  0
SPLINE
  5
18d
100
AcDbEntity
  8
Layer_1
 62
4
100
AcDbSpline
 70
8
 71
3
 72
8
 73
4
 74
0
 40
0
 40
0
 40
0
 40
0
 40
1
 40
1
 40
1
 40
1
 10
32.418255
 20
89.975022
 30
0.0
 10
32.418255
 20
89.109190
 30
0.0
 10
33.120088
 20
88.407381
 30
0.0
 10
33.985910
 20
88.407381
 30
0.0
  0
SPLINE
  5
18e
100
AcDbEntity
  8
Layer_1
 62
4
100
AcDbSpline
 70
8
 71
3
 72
8
 73
4
 74
0
 40
0
 40
0
 40
0
 40
0
 40
1
 40
1
 40
1
 40
1
 10
33.985910
 20
88.407381
 30
0.0
 10
34.851704
 20
88.407381
 30
0.0
 10
35.553537
 20
89.109190
 30
0.0
 10
35.553537
 20
89.975022
 30
0.0
  0
LINE
  5
18f
100
AcDbEntity
  8
Layer_1
 62
4
100
AcDbLine
 10
35.553537
 20
89.975022
 30
0.0
 11
35.553537
 21
89.975022
 31
0.0
  0
SPLINE
  5
190
100
AcDbEntity
  8
Layer_1
 62
4
100
AcDbSpline
 70
8
 71
3
 72
8
 73
4
 74
0
 40
0
 40
0
 40
0
 40
0
 40
1
 40
1
 40
1
 40
1
 10
-52.421660
 20
177.748205
 30
0.0
 10
-52.421660
 20
178.614037
 30
0.0
 10
-53.123492
 20
179.315846
 30
0.0
 10
-53.989287
 20
179.315846
 30
0.0
  0
SPLINE
  5
191
100
AcDbEntity
  8
Layer_1
 62
4
100
AcDbSpline
 70
8
 71
3
 72
8
 73
4
 74
0
 40
0
 40
0
 40
0
 40
0
 40
1
 40
1
 40
1
 40
1
 10
-53.989287
 20
179.315846
 30
0.0
 10
-54.855109
 20
179.315846
 30
0.0
 10
-55.556942
 20
178.614037
 30
0.0
 10
-55.556942
 20
177.748205
 30
0.0
  0
SPLINE
  5
192
100
AcDbEntity
  8
Layer_1
 62
4
100
AcDbSpline
 70
8
 71
3
 72
8
 73
4
 74
0
 40
0
 40
0
 40
0
 40
0
 40
1
 40
1
 40
1
 40
1
 10
-55.556942
 20
177.748205
 30
0.0
 10
-55.556942
 20
176.882373
 30
0.0
 10
-54.855109
 20
176.180564
 30
0.0
 10
-53.989287
 20
176.180564
 30
0.0
  0
SPLINE
  5
193
100
AcDbEntity
  8
Layer_1
 62
4
100
AcDbSpline
 70
8
 71
3
 72
8
 73
4
 74
0
 40
0
 40
0
 40
0
 40
0
 40
1
 40
1
 40
1
 40
1
 10
-53.989287
 20
176.180564
 30
0.0
 10
-53.123492
 20
176.180564
 30
0.0
 10
-52.421660
 20
176.882373
 30
0.0
 10
-52.421660
 20
177.748205
 30
0.0
  0
LINE
  5
194
100
AcDbEntity
  8
Layer_1
 62
4
100
AcDbLine
 10
-52.421660
 20
177.748205
 30
0.0
 11
-52.421660
 21
177.748205
 31
0.0
  0
SPLINE
  5
195
100
AcDbEntity
  8
Layer_1
 62
4
100
AcDbSpline
 70
8
 71
3
 72
8
 73
4
 74
0
 40
0
 40
0
 40
0
 40
0
 40
1
 40
1
 40
1
 40
1
 10
-52.422612
 20
96.266851
 30
0.0
 10
-52.422612
 20
95.401003
 30
0.0
 10
-53.124418
 20
94.699184
 30
0.0
 10
-53.990266
 20
94.699184
 30
0.0
  0
SPLINE
  5
196
100
AcDbEntity
  8
Layer_1
 62
4
100
AcDbSpline
 70
8
 71
3
 72
8
 73
4
 74
0
 40
0
 40
0
 40
0
 40
0
 40
1
 40
1
 40
1
 40
1
 10
-53.990266
 20
94.699184
 30
0.0
 10
-54.856141
 20
94.699184
 30
0.0
 10
-55.557947
 20
95.401003
 30
0.0
 10
-55.557947
 20
96.266851
 30
0.0
  0
SPLINE
  5
197
100
AcDbEntity
  8
Layer_1
 62
4
100
AcDbSpline
 70
8
 71
3
 72
8
 73
4
 74
0
 40
0
 40
0
 40
0
 40
0
 40
1
 40
1
 40
1
 40
1
 10
-55.557947
 20
96.266851
 30
0.0
 10
-55.557947
 20
97.132699
 30
0.0
 10
-54.856141
 20
97.834519
 30
0.0
 10
-53.990266
 20
97.834519
 30
0.0
  0
SPLINE
  5
198
100
AcDbEntity
  8
Layer_1
 62
4
100
AcDbSpline
 70
8
 71
3
 72
8
 73
4
 74
0
 40
0
 40
0
 40
0
 40
0
 40
1
 40
1
 40
1
 40
1
 10
-53.990266
 20
97.834519
 30
0.0
 10
-53.124418
 20
97.834519
 30
0.0
 10
-52.422612
 20
97.132699
 30
0.0
 10
-52.422612
 20
96.266851
 30
0.0
  0
LINE
  5
199
100
AcDbEntity
  8
Layer_1
 62
4
100
AcDbLine
 10
-52.422612
 20
96.266851
 30
0.0
 11
-52.422612
 21
96.266851
 31
0.0
  0
SPLINE
  5
19a
100
AcDbEntity
  8
Layer_1
 62
4
100
AcDbSpline
 70
8
 71
3
 72
8
 73
4
 74
0
 40
0
 40
0
 40
0
 40
0
 40
1
 40
1
 40
1
 40
1
 10
268.357288
 20
203.353460
 30
0.0
 10
268.357288
 20
204.219292
 30
0.0
 10
269.059121
 20
204.921101
 30
0.0
 10
269.924916
 20
204.921101
 30
0.0
  0
SPLINE
  5
19b
100
AcDbEntity
  8
Layer_1
 62
4
100
AcDbSpline
 70
8
 71
3
 72
8
 73
4
 74
0
 40
0
 40
0
 40
0
 40
0
 40
1
 40
1
 40
1
 40
1
 10
269.924916
 20
204.921101
 30
0.0
 10
270.790737
 20
204.921101
 30
0.0
 10
271.492570
 20
204.219292
 30
0.0
 10
271.492570
 20
203.353460
 30
0.0
  0
SPLINE
  5
19c
100
AcDbEntity
  8
Layer_1
 62
4
100
AcDbSpline
 70
8
 71
3
 72
8
 73
4
 74
0
 40
0
 40
0
 40
0
 40
0
 40
1
 40
1
 40
1
 40
1
 10
271.492570
 20
203.353460
 30
0.0
 10
271.492570
 20
202.487628
 30
0.0
 10
270.790737
 20
201.785819
 30
0.0
 10
269.924916
 20
201.785819
 30
0.0
  0
SPLINE
  5
19d
100
AcDbEntity
  8
Layer_1
 62
4
100
AcDbSpline
 70
8
 71
3
 72
8
 73
4
 74
0
 40
0
 40
0
 40
0
 40
0
 40
1
 40
1
 40
1
 40
1
 10
269.924916
 20
201.785819
 30
0.0
 10
269.059121
 20
201.785819
 30
0.0
 10
268.357288
 20
202.487628
 30
0.0
 10
268.357288
 20
203.353460
 30
0.0
  0
LINE
  5
19e
100
AcDbEntity
  8
Layer_1
 62
4
100
AcDbLine
 10
268.357288
 20
203.353460
 30
0.0
 11
268.357288
 21
203.353460
 31
0.0
  0
SPLINE
  5
19f
100
AcDbEntity
  8
Layer_1
 62
4
100
AcDbSpline
 70
8
 71
3
 72
8
 73
4
 74
0
 40
0
 40
0
 40
0
 40
0
 40
1
 40
1
 40
1
 40
1
 10
180.383282
 20
206.800059
 30
0.0
 10
180.383282
 20
207.665891
 30
0.0
 10
181.085115
 20
208.367700
 30
0.0
 10
181.950910
 20
208.367700
 30
0.0
  0
SPLINE
  5
1a0
100
AcDbEntity
  8
Layer_1
 62
4
100
AcDbSpline
 70
8
 71
3
 72
8
 73
4
 74
0
 40
0
 40
0
 40
0
 40
0
 40
1
 40
1
 40
1
 40
1
 10
181.950910
 20
208.367700
 30
0.0
 10
182.816731
 20
208.367700
 30
0.0
 10
183.518564
 20
207.665891
 30
0.0
 10
183.518564
 20
206.800059
 30
0.0
  0
SPLINE
  5
1a1
100
AcDbEntity
  8
Layer_1
 62
4
100
AcDbSpline
 70
8
 71
3
 72
8
 73
4
 74
0
 40
0
 40
0
 40
0
 40
0
 40
1
 40
1
 40
1
 40
1
 10
183.518564
 20
206.800059
 30
0.0
 10
183.518564
 20
205.934227
 30
0.0
 10
182.816731
 20
205.232418
 30
0.0
 10
181.950910
 20
205.232418
 30
0.0
  0
SPLINE
  5
1a2
100
AcDbEntity
  8
Layer_1
 62
4
100
AcDbSpline
 70
8
 71
3
 72
8
 73
4
 74
0
 40
0
 40
0
 40
0
 40
0
 40
1
 40
1
 40
1
 40
1
 10
181.950910
 20
205.232418
 30
0.0
 10
181.085115
 20
205.232418
 30
0.0
 10
180.383282
 20
205.934227
 30
0.0
 10
180.383282
 20
206.800059
 30
0.0
  0
LINE
  5
1a3
100
AcDbEntity
  8
Layer_1
 62
4
100
AcDbLine
 10
180.383282
 20
206.800059
 30
0.0
 11
180.383282
 21
206.800059
 31
0.0
  0
SPLINE
  5
1a4
100
AcDbEntity
  8
Layer_1
 62
4
100
AcDbSpline
 70
8
 71
3
 72
8
 73
4
 74
0
 40
0
 40
0
 40
0
 40
0
 40
1
 40
1
 40
1
 40
1
 10
180.383282
 20
89.975022
 30
0.0
 10
180.383282
 20
90.840854
 30
0.0
 10
181.085115
 20
91.542664
 30
0.0
 10
181.950910
 20
91.542664
 30
0.0
  0
SPLINE
  5
1a5
100
AcDbEntity
  8
Layer_1
 62
4
100
AcDbSpline
 70
8
 71
3
 72
8
 73
4
 74
0
 40
0
 40
0
 40
0
 40
0
 40
1
 40
1
 40
1
 40
1
 10
181.950910
 20
91.542664
 30
0.0
 10
182.816731
 20
91.542664
 30
0.0
 10
183.518564
 20
90.840854
 30
0.0
 10
183.518564
 20
89.975022
 30
0.0
  0
SPLINE
  5
1a6
100
AcDbEntity
  8
Layer_1
 62
4
100
AcDbSpline
 70
8
 71
3
 72
8
 73
4
 74
0
 40
0
 40
0
 40
0
 40
0
 40
1
 40
1
 40
1
 40
1
 10
183.518564
 20
89.975022
 30
0.0
 10
183.518564
 20
89.109190
 30
0.0
 10
182.816731
 20
88.407381
 30
0.0
 10
181.950910
 20
88.407381
 30
0.0
  0
SPLINE
  5
1a7
100
AcDbEntity
  8
Layer_1
 62
4
100
AcDbSpline
 70
8
 71
3
 72
8
 73
4
 74
0
 40
0
 40
0
 40
0
 40
0
 40
1
 40
1
 40
1
 40
1
 10
181.950910
 20
88.407381
 30
0.0
 10
181.085115
 20
88.407381
 30
0.0
 10
180.383282
 20
89.109190
 30
0.0
 10
180.383282
 20
89.975022
 30
0.0
  0
LINE
  5
1a8
100
AcDbEntity
  8
Layer_1
 62
4
100
AcDbLine
 10
180.383282
 20
89.975022
 30
0.0
 11
180.383282
 21
89.975022
 31
0.0
  0
SPLINE
  5
1a9
100
AcDbEntity
  8
Layer_1
 62
4
100
AcDbSpline
 70
8
 71
3
 72
8
 73
4
 74
0
 40
0
 40
0
 40
0
 40
0
 40
1
 40
1
 40
1
 40
1
 10
268.356412
 20
177.748205
 30
0.0
 10
268.356412
 20
178.614037
 30
0.0
 10
269.058245
 20
179.315846
 30
0.0
 10
269.924040
 20
179.315846
 30
0.0
  0
SPLINE
  5
1aa
100
AcDbEntity
  8
Layer_1
 62
4
100
AcDbSpline
 70
8
 71
3
 72
8
 73
4
 74
0
 40
0
 40
0
 40
0
 40
0
 40
1
 40
1
 40
1
 40
1
 10
269.924040
 20
179.315846
 30
0.0
 10
270.789861
 20
179.315846
 30
0.0
 10
271.491694
 20
178.614037
 30
0.0
 10
271.491694
 20
177.748205
 30
0.0
  0
SPLINE
  5
1ab
100
AcDbEntity
  8
Layer_1
 62
4
100
AcDbSpline
 70
8
 71
3
 72
8
 73
4
 74
0
 40
0
 40
0
 40
0
 40
0
 40
1
 40
1
 40
1
 40
1
 10
271.491694
 20
177.748205
 30
0.0
 10
271.491694
 20
176.882373
 30
0.0
 10
270.789861
 20
176.180564
 30
0.0
 10
269.924040
 20
176.180564
 30
0.0
  0
SPLINE
  5
1ac
100
AcDbEntity
  8
Layer_1
 62
4
100
AcDbSpline
 70
8
 71
3
 72
8
 73
4
 74
0
 40
0
 40
0
 40
0
 40
0
 40
1
 40
1
 40
1
 40
1
 10
269.924040
 20
176.180564
 30
0.0
 10
269.058245
 20
176.180564
 30
0.0
 10
268.356412
 20
176.882373
 30
0.0
 10
268.356412
 20
177.748205
 30
0.0
  0
LINE
  5
1ad
100
AcDbEntity
  8
Layer_1
 62
4
100
AcDbLine
 10
268.356412
 20
177.748205
 30
0.0
 11
268.356412
 21
177.748205
 31
0.0
  0
SPLINE
  5
1ae
100
AcDbEntity
  8
Layer_1
 62
4
100
AcDbSpline
 70
8
 71
3
 72
8
 73
4
 74
0
 40
0
 40
0
 40
0
 40
0
 40
1
 40
1
 40
1
 40
1
 10
268.357365
 20
96.266851
 30
0.0
 10
268.357365
 20
95.401003
 30
0.0
 10
269.059171
 20
94.699184
 30
0.0
 10
269.925019
 20
94.699184
 30
0.0
  0
SPLINE
  5
1af
100
AcDbEntity
  8
Layer_1
 62
4
100
AcDbSpline
 70
8
 71
3
 72
8
 73
4
 74
0
 40
0
 40
0
 40
0
 40
0
 40
1
 40
1
 40
1
 40
1
 10
269.925019
 20
94.699184
 30
0.0
 10
270.790893
 20
94.699184
 30
0.0
 10
271.492700
 20
95.401003
 30
0.0
 10
271.492700
 20
96.266851
 30
0.0
  0
SPLINE
  5
1b0
100
AcDbEntity
  8
Layer_1
 62
4
100
AcDbSpline
 70
8
 71
3
 72
8
 73
4
 74
0
 40
0
 40
0
 40
0
 40
0
 40
1
 40
1
 40
1
 40
1
 10
271.492700
 20
96.266851
 30
0.0
 10
271.492700
 20
97.132699
 30
0.0
 10
270.790893
 20
97.834519
 30
0.0
 10
269.925019
 20
97.834519
 30
0.0
  0
SPLINE
  5
1b1
100
AcDbEntity
  8
Layer_1
 62
4
100
AcDbSpline
 70
8
 71
3
 72
8
 73
4
 74
0
 40
0
 40
0
 40
0
 40
0
 40
1
 40
1
 40
1
 40
1
 10
269.925019
 20
97.834519
 30
0.0
 10
269.059171
 20
97.834519
 30
0.0
 10
268.357365
 20
97.132699
 30
0.0
 10
268.357365
 20
96.266851
 30
0.0
  0
LINE
  5
1b2
100
AcDbEntity
  8
Layer_1
 62
4
100
AcDbLine
 10
268.357365
 20
96.266851
 30
0.0
 11
268.357365
 21
96.266851
 31
0.0
  0
ENDSEC
  0
SECTION
  2
OBJECTS
  0
DICTIONARY
  5
C
330
0
100
AcDbDictionary
  3
ACAD_GROUP
350
D
  3
ACAD_MLINESTYLE
350
17
  0
DICTIONARY
  5
D
330
C
100
AcDbDictionary
  0
DICTIONARY
  5
1A
330
C
100
AcDbDictionary
  0
DICTIONARY
  5
17
330
C
100
AcDbDictionary
  3
STANDARD
350
18
  0
DICTIONARY
  5
19
330
C
100
AcDbDictionary
  0
ENDSEC
  0
EOF
