  0
SECTION
  2
HEADER
  9
$ACADVER
  1
AC1014
  9
$HANDSEED
  5
FFFF
  9
$INSUNITS
 70
     0
  9
$MEASUREMENT
 70
     1
  0
ENDSEC
  0
SECTION
  2
TABLES
  0
TABLE
  2
VPORT
  5
8
330
0
100
AcDbSymbolTable
 70
     4
  0
VPORT
  5
2E
330
8
100
AcDbSymbolTableRecord
100
AcDbViewportTableRecord
  2
*ACTIVE
 70
     0
 10
0.0
 20
0.0
 11
1.0
 21
1.0
 12
210.0
 22
148.5
 13
0.0
 23
0.0
 14
10.0
 24
10.0
 15
10.0
 25
10.0
 16
0.0
 26
0.0
 36
1.0
 17
0.0
 27
0.0
 37
0.0
 40
341.0
 41
1.24
 42
50.0
 43
0.0
 44
0.0
 50
0.0
 51
0.0
 71
     0
 72
   100
 73
     1
 74
     3
 75
     0
 76
     0
 77
     0
 78
     0
  0
ENDTAB
  0
TABLE
  2
LTYPE
  5
5
330
0
100
AcDbSymbolTable
 70
     1
  0
LTYPE
  5
14
330
5
100
AcDbSymbolTableRecord
100
AcDbLinetypeTableRecord
  2
BYBLOCK
 70
     0
  3

 72
    65
 73
     0
 40
0.0
  0
LTYPE
  5
15
330
5
100
AcDbSymbolTableRecord
100
AcDbLinetypeTableRecord
  2
BYLAYER
 70
     0
  3

 72
    65
 73
     0
 40
0.0
  0
LTYPE
  5
16
330
5
100
AcDbSymbolTableRecord
100
AcDbLinetypeTableRecord
  2
CONTINUOUS
 70
     0
  3
Solid line
 72
    65
 73
     0
 40
0.0
  0
ENDTAB
  0
TABLE
  2
LAYER
  5
2
100
AcDbSymbolTable
 70
2
  0
LAYER
  5
50
100
AcDbSymbolTableRecord
100
AcDbLayerTableRecord
  2
0
 70
0
  6
CONTINUOUS
  0
LAYER
  5
51
100
AcDbSymbolTableRecord
100
AcDbLayerTableRecord
  2
Layer_1
 70
0
  6
CONTINUOUS
  0
ENDTAB
  0
TABLE
  2
STYLE
  5
3
330
0
100
AcDbSymbolTable
 70
     1
  0
STYLE
  5
11
330
3
100
AcDbSymbolTableRecord
100
AcDbTextStyleTableRecord
  2
STANDARD
 70
     0
 40
0.0
 41
1.0
 50
0.0
 71
     0
 42
2.5
  3
txt
  4

  0
ENDTAB
  0
TABLE
  2
VIEW
  5
6
330
0
100
AcDbSymbolTable
 70
     0
  0
ENDTAB
  0
TABLE
  2
UCS
  5
7
330
0
100
AcDbSymbolTable
 70
     0
  0
ENDTAB
  0
TABLE
  2
APPID
  5
9
330
0
100
AcDbSymbolTable
 70
     2
  0
APPID
  5
12
330
9
100
AcDbSymbolTableRecord
100
AcDbRegAppTableRecord
  2
ACAD
 70
     0
  0
ENDTAB
  0
TABLE
  2
DIMSTYLE
  5
A
330
0
100
AcDbSymbolTable
 70
     1
  0
DIMSTYLE
105
27
330
A
100
AcDbSymbolTableRecord
100
AcDbDimStyleTableRecord
  2
ISO-25
 70
     0
  3

  4

  5

  6

  7

 40
1.0
 41
2.5
 42
0.625
 43
3.75
 44
1.25
 45
0.0
 46
0.0
 47
0.0
 48
0.0
140
2.5
141
2.5
142
0.0
143
0.03937007874016
144
1.0
145
0.0
146
1.0
147
0.625
 71
     0
 72
     0
 73
     0
 74
     0
 75
     0
 76
     0
 77
     1
 78
     8
170
     0
171
     3
172
     1
173
     0
174
     0
175
     0
176
     0
177
     0
178
     0
270
     2
271
     2
272
     2
273
     2
274
     3
340
11
275
     0
280
     0
281
     0
282
     0
283
     0
284
     8
285
     0
286
     0
287
     3
288
     0
  0
ENDTAB
  0
TABLE
  2
BLOCK_RECORD
  5
1
330
0
100
AcDbSymbolTable
 70
     1
  0
BLOCK_RECORD
  5
1F
330
1
100
AcDbSymbolTableRecord
100
AcDbBlockTableRecord
  2
*MODEL_SPACE
  0
BLOCK_RECORD
  5
1B
330
1
100
AcDbSymbolTableRecord
100
AcDbBlockTableRecord
  2
*PAPER_SPACE
  0
ENDTAB
  0
ENDSEC
  0
SECTION
  2
BLOCKS
  0
BLOCK
  5
20
330
1F
100
AcDbEntity
  8
0
100
AcDbBlockBegin
  2
*MODEL_SPACE
 70
     0
 10
0.0
 20
0.0
 30
0.0
  3
*MODEL_SPACE
  1

  0
ENDBLK
  5
21
330
1F
100
AcDbEntity
  8
0
100
AcDbBlockEnd
  0
BLOCK
  5
1C
330
1B
100
AcDbEntity
 67
     1
  8
0
100
AcDbBlockBegin
  2
*PAPER_SPACE
  1

  0
ENDBLK
  5
1D
330
1B
100
AcDbEntity
 67
     1
  8
0
100
AcDbBlockEnd
  0
ENDSEC
  0
SECTION
  2
ENTITIES
  0
LINE
  5
100
100
AcDbEntity
  8
Layer_1
 62
2
100
AcDbLine
 10
-51.471989
 20
195.747355
 30
0.0
 11
-51.471989
 21
159.976210
 31
0.0
  0
LINE
  5
101
100
AcDbEntity
  8
Layer_1
 62
2
100
AcDbLine
 10
-51.471989
 20
159.976210
 30
0.0
 11
-51.471989
 21
130.030433
 31
0.0
  0
LINE
  5
102
100
AcDbEntity
  8
Layer_1
 62
2
100
AcDbLine
 10
-51.471989
 20
130.030433
 30
0.0
 11
-51.471989
 21
94.259290
 31
0.0
  0
SPLINE
  5
103
100
AcDbEntity
  8
Layer_1
 62
2
100
AcDbSpline
 70
8
 71
3
 72
8
 73
4
 74
0
 40
0
 40
0
 40
0
 40
0
 40
1
 40
1
 40
1
 40
1
 10
-51.420792
 20
196.063156
 30
0.0
 10
-51.454712
 20
195.961355
 30
0.0
 10
-51.471989
 20
195.854656
 30
0.0
 10
-51.471989
 20
195.747355
 30
0.0
  0
SPLINE
  5
104
100
AcDbEntity
  8
Layer_1
 62
2
100
AcDbSpline
 70
8
 71
3
 72
8
 73
4
 74
0
 40
0
 40
0
 40
0
 40
0
 40
1
 40
1
 40
1
 40
1
 10
-50.526793
 20
196.747754
 30
0.0
 10
-50.945310
 20
196.747754
 30
0.0
 10
-51.311704
 20
196.467155
 30
0.0
 10
-51.420792
 20
196.063156
 30
0.0
  0
LINE
  5
105
100
AcDbEntity
  8
Layer_1
 62
2
100
AcDbLine
 10
-50.526793
 20
196.747754
 30
0.0
 11
-39.897012
 21
196.747754
 31
0.0
  0
SPLINE
  5
106
100
AcDbEntity
  8
Layer_1
 62
2
100
AcDbSpline
 70
8
 71
3
 72
8
 73
4
 74
0
 40
0
 40
0
 40
0
 40
0
 40
1
 40
1
 40
1
 40
1
 10
-39.897012
 20
196.747754
 30
0.0
 10
-39.081726
 20
196.747754
 30
0.0
 10
-38.299804
 20
197.071653
 30
0.0
 10
-37.723409
 20
197.648153
 30
0.0
  0
SPLINE
  5
107
100
AcDbEntity
  8
Layer_1
 62
2
100
AcDbSpline
 70
8
 71
3
 72
8
 73
4
 74
0
 40
0
 40
0
 40
0
 40
0
 40
1
 40
1
 40
1
 40
1
 10
-37.723409
 20
197.648153
 30
0.0
 10
-37.146910
 20
198.224553
 30
0.0
 10
-36.823007
 20
199.006451
 30
0.0
 10
-36.823007
 20
199.821750
 30
0.0
  0
LINE
  5
108
100
AcDbEntity
  8
Layer_1
 62
2
100
AcDbLine
 10
-36.823007
 20
199.821750
 30
0.0
 11
-36.823007
 21
200.747349
 31
0.0
  0
SPLINE
  5
109
100
AcDbEntity
  8
Layer_1
 62
2
100
AcDbSpline
 70
8
 71
3
 72
8
 73
4
 74
0
 40
0
 40
0
 40
0
 40
0
 40
1
 40
1
 40
1
 40
1
 10
-33.897010
 20
203.673346
 30
0.0
 10
-34.673032
 20
203.673346
 30
0.0
 10
-35.417331
 20
203.365046
 30
0.0
 10
-35.966023
 20
202.816346
 30
0.0
  0
SPLINE
  5
10a
100
AcDbEntity
  8
Layer_1
 62
2
100
AcDbSpline
 70
8
 71
3
 72
8
 73
4
 74
0
 40
0
 40
0
 40
0
 40
0
 40
1
 40
1
 40
1
 40
1
 10
-35.966023
 20
202.816346
 30
0.0
 10
-36.514715
 20
202.267648
 30
0.0
 10
-36.823007
 20
201.523347
 30
0.0
 10
-36.823007
 20
200.747349
 30
0.0
  0
LINE
  5
10b
100
AcDbEntity
  8
Layer_1
 62
2
100
AcDbLine
 10
-33.897010
 20
203.673346
 30
0.0
 11
-29.897018
 21
203.673346
 31
0.0
  0
SPLINE
  5
10c
100
AcDbEntity
  8
Layer_1
 62
2
100
AcDbSpline
 70
8
 71
3
 72
8
 73
4
 74
0
 40
0
 40
0
 40
0
 40
0
 40
1
 40
1
 40
1
 40
1
 10
-26.971021
 20
200.747349
 30
0.0
 10
-26.971021
 20
201.523347
 30
0.0
 10
-27.279340
 20
202.267648
 30
0.0
 10
-27.828032
 20
202.816346
 30
0.0
  0
SPLINE
  5
10d
100
AcDbEntity
  8
Layer_1
 62
2
100
AcDbSpline
 70
8
 71
3
 72
8
 73
4
 74
0
 40
0
 40
0
 40
0
 40
0
 40
1
 40
1
 40
1
 40
1
 10
-27.828032
 20
202.816346
 30
0.0
 10
-28.376724
 20
203.365046
 30
0.0
 10
-29.121022
 20
203.673346
 30
0.0
 10
-29.897018
 20
203.673346
 30
0.0
  0
LINE
  5
10e
100
AcDbEntity
  8
Layer_1
 62
2
100
AcDbLine
 10
-26.971021
 20
200.747349
 30
0.0
 11
-26.971021
 21
199.821750
 31
0.0
  0
SPLINE
  5
10f
100
AcDbEntity
  8
Layer_1
 62
2
100
AcDbSpline
 70
8
 71
3
 72
8
 73
4
 74
0
 40
0
 40
0
 40
0
 40
0
 40
1
 40
1
 40
1
 40
1
 10
-26.971021
 20
199.821750
 30
0.0
 10
-26.971021
 20
199.006451
 30
0.0
 10
-26.647118
 20
198.224553
 30
0.0
 10
-26.070619
 20
197.648153
 30
0.0
  0
SPLINE
  5
110
100
AcDbEntity
  8
Layer_1
 62
2
100
AcDbSpline
 70
8
 71
3
 72
8
 73
4
 74
0
 40
0
 40
0
 40
0
 40
0
 40
1
 40
1
 40
1
 40
1
 10
-26.070619
 20
197.648153
 30
0.0
 10
-25.494224
 20
197.071653
 30
0.0
 10
-24.712329
 20
196.747754
 30
0.0
 10
-23.897043
 20
196.747754
 30
0.0
  0
LINE
  5
111
100
AcDbEntity
  8
Layer_1
 62
2
100
AcDbLine
 10
97.678713
 20
199.821750
 30
0.0
 11
97.678713
 21
200.747349
 31
0.0
  0
SPLINE
  5
112
100
AcDbEntity
  8
Layer_1
 62
2
100
AcDbSpline
 70
8
 71
3
 72
8
 73
4
 74
0
 40
0
 40
0
 40
0
 40
0
 40
1
 40
1
 40
1
 40
1
 10
100.604710
 20
203.673346
 30
0.0
 10
99.828688
 20
203.673346
 30
0.0
 10
99.084390
 20
203.365046
 30
0.0
 10
98.535698
 20
202.816346
 30
0.0
  0
SPLINE
  5
113
100
AcDbEntity
  8
Layer_1
 62
2
100
AcDbSpline
 70
8
 71
3
 72
8
 73
4
 74
0
 40
0
 40
0
 40
0
 40
0
 40
1
 40
1
 40
1
 40
1
 10
98.535698
 20
202.816346
 30
0.0
 10
97.987006
 20
202.267648
 30
0.0
 10
97.678713
 20
201.523347
 30
0.0
 10
97.678713
 20
200.747349
 30
0.0
  0
LINE
  5
114
100
AcDbEntity
  8
Layer_1
 62
2
100
AcDbLine
 10
100.604710
 20
203.673346
 30
0.0
 11
104.604703
 21
203.673346
 31
0.0
  0
SPLINE
  5
115
100
AcDbEntity
  8
Layer_1
 62
2
100
AcDbSpline
 70
8
 71
3
 72
8
 73
4
 74
0
 40
0
 40
0
 40
0
 40
0
 40
1
 40
1
 40
1
 40
1
 10
107.530700
 20
200.747349
 30
0.0
 10
107.530700
 20
201.523347
 30
0.0
 10
107.222381
 20
202.267648
 30
0.0
 10
106.673689
 20
202.816346
 30
0.0
  0
SPLINE
  5
116
100
AcDbEntity
  8
Layer_1
 62
2
100
AcDbSpline
 70
8
 71
3
 72
8
 73
4
 74
0
 40
0
 40
0
 40
0
 40
0
 40
1
 40
1
 40
1
 40
1
 10
106.673689
 20
202.816346
 30
0.0
 10
106.124997
 20
203.365046
 30
0.0
 10
105.380698
 20
203.673346
 30
0.0
 10
104.604703
 20
203.673346
 30
0.0
  0
LINE
  5
117
100
AcDbEntity
  8
Layer_1
 62
2
100
AcDbLine
 10
107.530700
 20
200.747349
 30
0.0
 11
107.530700
 21
199.821750
 31
0.0
  0
SPLINE
  5
118
100
AcDbEntity
  8
Layer_1
 62
2
100
AcDbSpline
 70
8
 71
3
 72
8
 73
4
 74
0
 40
0
 40
0
 40
0
 40
0
 40
1
 40
1
 40
1
 40
1
 10
107.530700
 20
199.821750
 30
0.0
 10
107.530700
 20
199.006451
 30
0.0
 10
107.854602
 20
198.224553
 30
0.0
 10
108.431102
 20
197.648153
 30
0.0
  0
SPLINE
  5
119
100
AcDbEntity
  8
Layer_1
 62
2
100
AcDbSpline
 70
8
 71
3
 72
8
 73
4
 74
0
 40
0
 40
0
 40
0
 40
0
 40
1
 40
1
 40
1
 40
1
 10
108.431102
 20
197.648153
 30
0.0
 10
109.007496
 20
197.071653
 30
0.0
 10
109.789392
 20
196.747754
 30
0.0
 10
110.604678
 20
196.747754
 30
0.0
  0
LINE
  5
11a
100
AcDbEntity
  8
Layer_1
 62
2
100
AcDbLine
 10
110.604678
 20
196.747754
 30
0.0
 11
221.966834
 21
196.747754
 31
0.0
  0
LINE
  5
11b
100
AcDbEntity
  8
Layer_1
 62
2
100
AcDbLine
 10
221.966834
 20
196.747754
 30
0.0
 11
229.257313
 21
196.747754
 31
0.0
  0
LINE
  5
11c
100
AcDbEntity
  8
Layer_1
 62
2
100
AcDbLine
 10
97.678713
 20
90.169020
 30
0.0
 11
97.678713
 21
89.243421
 31
0.0
  0
SPLINE
  5
11d
100
AcDbEntity
  8
Layer_1
 62
2
100
AcDbSpline
 70
8
 71
3
 72
8
 73
4
 74
0
 40
0
 40
0
 40
0
 40
0
 40
1
 40
1
 40
1
 40
1
 10
100.604710
 20
86.317424
 30
0.0
 10
99.828688
 20
86.317424
 30
0.0
 10
99.084390
 20
86.625724
 30
0.0
 10
98.535698
 20
87.174424
 30
0.0
  0
SPLINE
  5
11e
100
AcDbEntity
  8
Layer_1
 62
2
100
AcDbSpline
 70
8
 71
3
 72
8
 73
4
 74
0
 40
0
 40
0
 40
0
 40
0
 40
1
 40
1
 40
1
 40
1
 10
98.535698
 20
87.174424
 30
0.0
 10
97.987006
 20
87.723122
 30
0.0
 10
97.678713
 20
88.467423
 30
0.0
 10
97.678713
 20
89.243421
 30
0.0
  0
LINE
  5
11f
100
AcDbEntity
  8
Layer_1
 62
2
100
AcDbLine
 10
100.604710
 20
86.317424
 30
0.0
 11
104.604703
 21
86.317424
 31
0.0
  0
SPLINE
  5
120
100
AcDbEntity
  8
Layer_1
 62
2
100
AcDbSpline
 70
8
 71
3
 72
8
 73
4
 74
0
 40
0
 40
0
 40
0
 40
0
 40
1
 40
1
 40
1
 40
1
 10
107.530700
 20
89.243421
 30
0.0
 10
107.530700
 20
88.467423
 30
0.0
 10
107.222381
 20
87.723122
 30
0.0
 10
106.673689
 20
87.174424
 30
0.0
  0
SPLINE
  5
121
100
AcDbEntity
  8
Layer_1
 62
2
100
AcDbSpline
 70
8
 71
3
 72
8
 73
4
 74
0
 40
0
 40
0
 40
0
 40
0
 40
1
 40
1
 40
1
 40
1
 10
106.673689
 20
87.174424
 30
0.0
 10
106.124997
 20
86.625724
 30
0.0
 10
105.380698
 20
86.317424
 30
0.0
 10
104.604703
 20
86.317424
 30
0.0
  0
LINE
  5
122
100
AcDbEntity
  8
Layer_1
 62
2
100
AcDbLine
 10
107.530700
 20
89.243421
 30
0.0
 11
107.530700
 21
90.169020
 31
0.0
  0
SPLINE
  5
123
100
AcDbEntity
  8
Layer_1
 62
2
100
AcDbSpline
 70
8
 71
3
 72
8
 73
4
 74
0
 40
0
 40
0
 40
0
 40
0
 40
1
 40
1
 40
1
 40
1
 10
107.530700
 20
90.169020
 30
0.0
 10
107.530700
 20
90.984319
 30
0.0
 10
107.854602
 20
91.766217
 30
0.0
 10
108.431102
 20
92.342616
 30
0.0
  0
SPLINE
  5
124
100
AcDbEntity
  8
Layer_1
 62
2
100
AcDbSpline
 70
8
 71
3
 72
8
 73
4
 74
0
 40
0
 40
0
 40
0
 40
0
 40
1
 40
1
 40
1
 40
1
 10
108.431102
 20
92.342616
 30
0.0
 10
109.007496
 20
92.919116
 30
0.0
 10
109.789392
 20
93.243016
 30
0.0
 10
110.604678
 20
93.243016
 30
0.0
  0
LINE
  5
125
100
AcDbEntity
  8
Layer_1
 62
2
100
AcDbLine
 10
110.604678
 20
93.243016
 30
0.0
 11
221.966834
 21
93.258891
 31
0.0
  0
LINE
  5
126
100
AcDbEntity
  8
Layer_1
 62
2
100
AcDbLine
 10
221.966834
 20
93.258891
 30
0.0
 11
229.257313
 21
93.258891
 31
0.0
  0
SPLINE
  5
127
100
AcDbEntity
  8
Layer_1
 62
2
100
AcDbSpline
 70
8
 71
3
 72
8
 73
4
 74
0
 40
0
 40
0
 40
0
 40
0
 40
1
 40
1
 40
1
 40
1
 10
-51.420792
 20
93.943489
 30
0.0
 10
-51.454712
 20
94.045290
 30
0.0
 10
-51.471989
 20
94.151988
 30
0.0
 10
-51.471989
 20
94.259290
 30
0.0
  0
SPLINE
  5
128
100
AcDbEntity
  8
Layer_1
 62
2
100
AcDbSpline
 70
8
 71
3
 72
8
 73
4
 74
0
 40
0
 40
0
 40
0
 40
0
 40
1
 40
1
 40
1
 40
1
 10
-50.526793
 20
93.258891
 30
0.0
 10
-50.945310
 20
93.258891
 30
0.0
 10
-51.311704
 20
93.539489
 30
0.0
 10
-51.420792
 20
93.943489
 30
0.0
  0
LINE
  5
129
100
AcDbEntity
  8
Layer_1
 62
2
100
AcDbLine
 10
-50.526793
 20
93.258891
 30
0.0
 11
-39.897012
 21
93.258891
 31
0.0
  0
SPLINE
  5
12a
100
AcDbEntity
  8
Layer_1
 62
2
100
AcDbSpline
 70
8
 71
3
 72
8
 73
4
 74
0
 40
0
 40
0
 40
0
 40
0
 40
1
 40
1
 40
1
 40
1
 10
-39.897012
 20
93.258891
 30
0.0
 10
-39.081726
 20
93.258891
 30
0.0
 10
-38.299804
 20
92.934991
 30
0.0
 10
-37.723409
 20
92.358491
 30
0.0
  0
SPLINE
  5
12b
100
AcDbEntity
  8
Layer_1
 62
2
100
AcDbSpline
 70
8
 71
3
 72
8
 73
4
 74
0
 40
0
 40
0
 40
0
 40
0
 40
1
 40
1
 40
1
 40
1
 10
-37.723409
 20
92.358491
 30
0.0
 10
-37.146910
 20
91.782092
 30
0.0
 10
-36.823007
 20
91.000194
 30
0.0
 10
-36.823007
 20
90.184894
 30
0.0
  0
LINE
  5
12c
100
AcDbEntity
  8
Layer_1
 62
2
100
AcDbLine
 10
-36.823007
 20
90.184894
 30
0.0
 11
-36.823007
 21
89.259296
 31
0.0
  0
SPLINE
  5
12d
100
AcDbEntity
  8
Layer_1
 62
2
100
AcDbSpline
 70
8
 71
3
 72
8
 73
4
 74
0
 40
0
 40
0
 40
0
 40
0
 40
1
 40
1
 40
1
 40
1
 10
-33.897010
 20
86.333299
 30
0.0
 10
-34.673032
 20
86.333299
 30
0.0
 10
-35.417331
 20
86.641599
 30
0.0
 10
-35.966023
 20
87.190299
 30
0.0
  0
SPLINE
  5
12e
100
AcDbEntity
  8
Layer_1
 62
2
100
AcDbSpline
 70
8
 71
3
 72
8
 73
4
 74
0
 40
0
 40
0
 40
0
 40
0
 40
1
 40
1
 40
1
 40
1
 10
-35.966023
 20
87.190299
 30
0.0
 10
-36.514715
 20
87.738997
 30
0.0
 10
-36.823007
 20
88.483298
 30
0.0
 10
-36.823007
 20
89.259296
 30
0.0
  0
LINE
  5
12f
100
AcDbEntity
  8
Layer_1
 62
2
100
AcDbLine
 10
-33.897010
 20
86.333299
 30
0.0
 11
-29.897018
 21
86.333299
 31
0.0
  0
SPLINE
  5
130
100
AcDbEntity
  8
Layer_1
 62
2
100
AcDbSpline
 70
8
 71
3
 72
8
 73
4
 74
0
 40
0
 40
0
 40
0
 40
0
 40
1
 40
1
 40
1
 40
1
 10
-26.971021
 20
89.259296
 30
0.0
 10
-26.971021
 20
88.483298
 30
0.0
 10
-27.279340
 20
87.738997
 30
0.0
 10
-27.828032
 20
87.190299
 30
0.0
  0
SPLINE
  5
131
100
AcDbEntity
  8
Layer_1
 62
2
100
AcDbSpline
 70
8
 71
3
 72
8
 73
4
 74
0
 40
0
 40
0
 40
0
 40
0
 40
1
 40
1
 40
1
 40
1
 10
-27.828032
 20
87.190299
 30
0.0
 10
-28.376724
 20
86.641599
 30
0.0
 10
-29.121022
 20
86.333299
 30
0.0
 10
-29.897018
 20
86.333299
 30
0.0
  0
LINE
  5
132
100
AcDbEntity
  8
Layer_1
 62
2
100
AcDbLine
 10
-26.971021
 20
89.259296
 30
0.0
 11
-26.971021
 21
90.184894
 31
0.0
  0
SPLINE
  5
133
100
AcDbEntity
  8
Layer_1
 62
2
100
AcDbSpline
 70
8
 71
3
 72
8
 73
4
 74
0
 40
0
 40
0
 40
0
 40
0
 40
1
 40
1
 40
1
 40
1
 10
-26.971021
 20
90.184894
 30
0.0
 10
-26.971021
 20
91.000194
 30
0.0
 10
-26.647118
 20
91.782092
 30
0.0
 10
-26.070619
 20
92.358491
 30
0.0
  0
SPLINE
  5
134
100
AcDbEntity
  8
Layer_1
 62
2
100
AcDbSpline
 70
8
 71
3
 72
8
 73
4
 74
0
 40
0
 40
0
 40
0
 40
0
 40
1
 40
1
 40
1
 40
1
 10
-26.070619
 20
92.358491
 30
0.0
 10
-25.494224
 20
92.934991
 30
0.0
 10
-24.712329
 20
93.258891
 30
0.0
 10
-23.897043
 20
93.258891
 30
0.0
  0
LINE
  5
135
100
AcDbEntity
  8
Layer_1
 62
2
100
AcDbLine
 10
-23.897043
 20
93.258891
 30
0.0
 11
-16.606564
 21
93.258891
 31
0.0
  0
LINE
  5
136
100
AcDbEntity
  8
Layer_1
 62
2
100
AcDbLine
 10
-16.606564
 20
93.258891
 30
0.0
 11
94.604709
 21
93.243016
 31
0.0
  0
SPLINE
  5
137
100
AcDbEntity
  8
Layer_1
 62
2
100
AcDbSpline
 70
8
 71
3
 72
8
 73
4
 74
0
 40
0
 40
0
 40
0
 40
0
 40
1
 40
1
 40
1
 40
1
 10
94.604709
 20
93.243016
 30
0.0
 10
95.419995
 20
93.243016
 30
0.0
 10
96.201917
 20
92.919116
 30
0.0
 10
96.778311
 20
92.342616
 30
0.0
  0
SPLINE
  5
138
100
AcDbEntity
  8
Layer_1
 62
2
100
AcDbSpline
 70
8
 71
3
 72
8
 73
4
 74
0
 40
0
 40
0
 40
0
 40
0
 40
1
 40
1
 40
1
 40
1
 10
96.778311
 20
92.342616
 30
0.0
 10
97.354811
 20
91.766217
 30
0.0
 10
97.678713
 20
90.984319
 30
0.0
 10
97.678713
 20
90.169020
 30
0.0
  0
LINE
  5
139
100
AcDbEntity
  8
Layer_1
 62
2
100
AcDbLine
 10
256.832259
 20
195.747355
 30
0.0
 11
256.832259
 21
159.976210
 31
0.0
  0
LINE
  5
13a
100
AcDbEntity
  8
Layer_1
 62
2
100
AcDbLine
 10
256.832259
 20
159.976210
 30
0.0
 11
256.832259
 21
130.030433
 31
0.0
  0
LINE
  5
13b
100
AcDbEntity
  8
Layer_1
 62
2
100
AcDbLine
 10
256.832259
 20
130.030433
 30
0.0
 11
256.832259
 21
94.259290
 31
0.0
  0
SPLINE
  5
13c
100
AcDbEntity
  8
Layer_1
 62
2
100
AcDbSpline
 70
8
 71
3
 72
8
 73
4
 74
0
 40
0
 40
0
 40
0
 40
0
 40
1
 40
1
 40
1
 40
1
 10
256.781062
 20
196.063156
 30
0.0
 10
256.814982
 20
195.961355
 30
0.0
 10
256.832259
 20
195.854656
 30
0.0
 10
256.832259
 20
195.747355
 30
0.0
  0
SPLINE
  5
13d
100
AcDbEntity
  8
Layer_1
 62
2
100
AcDbSpline
 70
8
 71
3
 72
8
 73
4
 74
0
 40
0
 40
0
 40
0
 40
0
 40
1
 40
1
 40
1
 40
1
 10
255.887063
 20
196.747754
 30
0.0
 10
256.305580
 20
196.747754
 30
0.0
 10
256.671975
 20
196.467155
 30
0.0
 10
256.781062
 20
196.063156
 30
0.0
  0
LINE
  5
13e
100
AcDbEntity
  8
Layer_1
 62
2
100
AcDbLine
 10
255.887063
 20
196.747754
 30
0.0
 11
245.257282
 21
196.747754
 31
0.0
  0
SPLINE
  5
13f
100
AcDbEntity
  8
Layer_1
 62
2
100
AcDbSpline
 70
8
 71
3
 72
8
 73
4
 74
0
 40
0
 40
0
 40
0
 40
0
 40
1
 40
1
 40
1
 40
1
 10
245.257282
 20
196.747754
 30
0.0
 10
244.441996
 20
196.747754
 30
0.0
 10
243.660074
 20
197.071653
 30
0.0
 10
243.083680
 20
197.648153
 30
0.0
  0
SPLINE
  5
140
100
AcDbEntity
  8
Layer_1
 62
2
100
AcDbSpline
 70
8
 71
3
 72
8
 73
4
 74
0
 40
0
 40
0
 40
0
 40
0
 40
1
 40
1
 40
1
 40
1
 10
243.083680
 20
197.648153
 30
0.0
 10
242.507180
 20
198.224553
 30
0.0
 10
242.183277
 20
199.006451
 30
0.0
 10
242.183277
 20
199.821750
 30
0.0
  0
LINE
  5
141
100
AcDbEntity
  8
Layer_1
 62
2
100
AcDbLine
 10
242.183277
 20
199.821750
 30
0.0
 11
242.183277
 21
200.747349
 31
0.0
  0
SPLINE
  5
142
100
AcDbEntity
  8
Layer_1
 62
2
100
AcDbSpline
 70
8
 71
3
 72
8
 73
4
 74
0
 40
0
 40
0
 40
0
 40
0
 40
1
 40
1
 40
1
 40
1
 10
239.257280
 20
203.673346
 30
0.0
 10
240.033302
 20
203.673346
 30
0.0
 10
240.777601
 20
203.365046
 30
0.0
 10
241.326293
 20
202.816346
 30
0.0
  0
SPLINE
  5
143
100
AcDbEntity
  8
Layer_1
 62
2
100
AcDbSpline
 70
8
 71
3
 72
8
 73
4
 74
0
 40
0
 40
0
 40
0
 40
0
 40
1
 40
1
 40
1
 40
1
 10
241.326293
 20
202.816346
 30
0.0
 10
241.874985
 20
202.267648
 30
0.0
 10
242.183277
 20
201.523347
 30
0.0
 10
242.183277
 20
200.747349
 30
0.0
  0
LINE
  5
144
100
AcDbEntity
  8
Layer_1
 62
2
100
AcDbLine
 10
239.257280
 20
203.673346
 30
0.0
 11
235.257288
 21
203.673346
 31
0.0
  0
SPLINE
  5
145
100
AcDbEntity
  8
Layer_1
 62
2
100
AcDbSpline
 70
8
 71
3
 72
8
 73
4
 74
0
 40
0
 40
0
 40
0
 40
0
 40
1
 40
1
 40
1
 40
1
 10
232.331291
 20
200.747349
 30
0.0
 10
232.331291
 20
201.523347
 30
0.0
 10
232.639610
 20
202.267648
 30
0.0
 10
233.188302
 20
202.816346
 30
0.0
  0
SPLINE
  5
146
100
AcDbEntity
  8
Layer_1
 62
2
100
AcDbSpline
 70
8
 71
3
 72
8
 73
4
 74
0
 40
0
 40
0
 40
0
 40
0
 40
1
 40
1
 40
1
 40
1
 10
233.188302
 20
202.816346
 30
0.0
 10
233.736994
 20
203.365046
 30
0.0
 10
234.481293
 20
203.673346
 30
0.0
 10
235.257288
 20
203.673346
 30
0.0
  0
LINE
  5
147
100
AcDbEntity
  8
Layer_1
 62
2
100
AcDbLine
 10
232.331291
 20
200.747349
 30
0.0
 11
232.331291
 21
199.821750
 31
0.0
  0
SPLINE
  5
148
100
AcDbEntity
  8
Layer_1
 62
2
100
AcDbSpline
 70
8
 71
3
 72
8
 73
4
 74
0
 40
0
 40
0
 40
0
 40
0
 40
1
 40
1
 40
1
 40
1
 10
232.331291
 20
199.821750
 30
0.0
 10
232.331291
 20
199.006451
 30
0.0
 10
232.007389
 20
198.224553
 30
0.0
 10
231.430889
 20
197.648153
 30
0.0
  0
SPLINE
  5
149
100
AcDbEntity
  8
Layer_1
 62
2
100
AcDbSpline
 70
8
 71
3
 72
8
 73
4
 74
0
 40
0
 40
0
 40
0
 40
0
 40
1
 40
1
 40
1
 40
1
 10
231.430889
 20
197.648153
 30
0.0
 10
230.854495
 20
197.071653
 30
0.0
 10
230.072599
 20
196.747754
 30
0.0
 10
229.257313
 20
196.747754
 30
0.0
  0
SPLINE
  5
14a
100
AcDbEntity
  8
Layer_1
 62
2
100
AcDbSpline
 70
8
 71
3
 72
8
 73
4
 74
0
 40
0
 40
0
 40
0
 40
0
 40
1
 40
1
 40
1
 40
1
 10
256.781062
 20
93.943489
 30
0.0
 10
256.814982
 20
94.045290
 30
0.0
 10
256.832259
 20
94.151988
 30
0.0
 10
256.832259
 20
94.259290
 30
0.0
  0
SPLINE
  5
14b
100
AcDbEntity
  8
Layer_1
 62
2
100
AcDbSpline
 70
8
 71
3
 72
8
 73
4
 74
0
 40
0
 40
0
 40
0
 40
0
 40
1
 40
1
 40
1
 40
1
 10
255.887063
 20
93.258891
 30
0.0
 10
256.305580
 20
93.258891
 30
0.0
 10
256.671975
 20
93.539489
 30
0.0
 10
256.781062
 20
93.943489
 30
0.0
  0
LINE
  5
14c
100
AcDbEntity
  8
Layer_1
 62
2
100
AcDbLine
 10
255.887063
 20
93.258891
 30
0.0
 11
245.257282
 21
93.258891
 31
0.0
  0
SPLINE
  5
14d
100
AcDbEntity
  8
Layer_1
 62
2
100
AcDbSpline
 70
8
 71
3
 72
8
 73
4
 74
0
 40
0
 40
0
 40
0
 40
0
 40
1
 40
1
 40
1
 40
1
 10
245.257282
 20
93.258891
 30
0.0
 10
244.441996
 20
93.258891
 30
0.0
 10
243.660074
 20
92.934991
 30
0.0
 10
243.083680
 20
92.358491
 30
0.0
  0
SPLINE
  5
14e
100
AcDbEntity
  8
Layer_1
 62
2
100
AcDbSpline
 70
8
 71
3
 72
8
 73
4
 74
0
 40
0
 40
0
 40
0
 40
0
 40
1
 40
1
 40
1
 40
1
 10
243.083680
 20
92.358491
 30
0.0
 10
242.507180
 20
91.782092
 30
0.0
 10
242.183277
 20
91.000194
 30
0.0
 10
242.183277
 20
90.184894
 30
0.0
  0
LINE
  5
14f
100
AcDbEntity
  8
Layer_1
 62
2
100
AcDbLine
 10
242.183277
 20
90.184894
 30
0.0
 11
242.183277
 21
89.259296
 31
0.0
  0
SPLINE
  5
150
100
AcDbEntity
  8
Layer_1
 62
2
100
AcDbSpline
 70
8
 71
3
 72
8
 73
4
 74
0
 40
0
 40
0
 40
0
 40
0
 40
1
 40
1
 40
1
 40
1
 10
239.257280
 20
86.333299
 30
0.0
 10
240.033302
 20
86.333299
 30
0.0
 10
240.777601
 20
86.641599
 30
0.0
 10
241.326293
 20
87.190299
 30
0.0
  0
SPLINE
  5
151
100
AcDbEntity
  8
Layer_1
 62
2
100
AcDbSpline
 70
8
 71
3
 72
8
 73
4
 74
0
 40
0
 40
0
 40
0
 40
0
 40
1
 40
1
 40
1
 40
1
 10
241.326293
 20
87.190299
 30
0.0
 10
241.874985
 20
87.738997
 30
0.0
 10
242.183277
 20
88.483298
 30
0.0
 10
242.183277
 20
89.259296
 30
0.0
  0
LINE
  5
152
100
AcDbEntity
  8
Layer_1
 62
2
100
AcDbLine
 10
239.257280
 20
86.333299
 30
0.0
 11
235.257288
 21
86.333299
 31
0.0
  0
SPLINE
  5
153
100
AcDbEntity
  8
Layer_1
 62
2
100
AcDbSpline
 70
8
 71
3
 72
8
 73
4
 74
0
 40
0
 40
0
 40
0
 40
0
 40
1
 40
1
 40
1
 40
1
 10
232.331291
 20
89.259296
 30
0.0
 10
232.331291
 20
88.483298
 30
0.0
 10
232.639610
 20
87.738997
 30
0.0
 10
233.188302
 20
87.190299
 30
0.0
  0
SPLINE
  5
154
100
AcDbEntity
  8
Layer_1
 62
2
100
AcDbSpline
 70
8
 71
3
 72
8
 73
4
 74
0
 40
0
 40
0
 40
0
 40
0
 40
1
 40
1
 40
1
 40
1
 10
233.188302
 20
87.190299
 30
0.0
 10
233.736994
 20
86.641599
 30
0.0
 10
234.481293
 20
86.333299
 30
0.0
 10
235.257288
 20
86.333299
 30
0.0
  0
LINE
  5
155
100
AcDbEntity
  8
Layer_1
 62
2
100
AcDbLine
 10
232.331291
 20
89.259296
 30
0.0
 11
232.331291
 21
90.184894
 31
0.0
  0
SPLINE
  5
156
100
AcDbEntity
  8
Layer_1
 62
2
100
AcDbSpline
 70
8
 71
3
 72
8
 73
4
 74
0
 40
0
 40
0
 40
0
 40
0
 40
1
 40
1
 40
1
 40
1
 10
232.331291
 20
90.184894
 30
0.0
 10
232.331291
 20
91.000194
 30
0.0
 10
232.007389
 20
91.782092
 30
0.0
 10
231.430889
 20
92.358491
 30
0.0
  0
SPLINE
  5
157
100
AcDbEntity
  8
Layer_1
 62
2
100
AcDbSpline
 70
8
 71
3
 72
8
 73
4
 74
0
 40
0
 40
0
 40
0
 40
0
 40
1
 40
1
 40
1
 40
1
 10
231.430889
 20
92.358491
 30
0.0
 10
230.854495
 20
92.934991
 30
0.0
 10
230.072599
 20
93.258891
 30
0.0
 10
229.257313
 20
93.258891
 30
0.0
  0
SPLINE
  5
158
100
AcDbEntity
  8
Layer_1
 62
2
100
AcDbSpline
 70
8
 71
3
 72
8
 73
4
 74
0
 40
0
 40
0
 40
0
 40
0
 40
1
 40
1
 40
1
 40
1
 10
-57.537469
 20
199.180483
 30
0.0
 10
-57.537469
 20
200.046315
 30
0.0
 10
-58.239302
 20
200.748124
 30
0.0
 10
-59.105097
 20
200.748124
 30
0.0
  0
SPLINE
  5
159
100
AcDbEntity
  8
Layer_1
 62
2
100
AcDbSpline
 70
8
 71
3
 72
8
 73
4
 74
0
 40
0
 40
0
 40
0
 40
0
 40
1
 40
1
 40
1
 40
1
 10
-59.105097
 20
200.748124
 30
0.0
 10
-59.970918
 20
200.748124
 30
0.0
 10
-60.672751
 20
200.046315
 30
0.0
 10
-60.672751
 20
199.180483
 30
0.0
  0
SPLINE
  5
15a
100
AcDbEntity
  8
Layer_1
 62
2
100
AcDbSpline
 70
8
 71
3
 72
8
 73
4
 74
0
 40
0
 40
0
 40
0
 40
0
 40
1
 40
1
 40
1
 40
1
 10
-60.672751
 20
199.180483
 30
0.0
 10
-60.672751
 20
198.314651
 30
0.0
 10
-59.970918
 20
197.612842
 30
0.0
 10
-59.105097
 20
197.612842
 30
0.0
  0
SPLINE
  5
15b
100
AcDbEntity
  8
Layer_1
 62
2
100
AcDbSpline
 70
8
 71
3
 72
8
 73
4
 74
0
 40
0
 40
0
 40
0
 40
0
 40
1
 40
1
 40
1
 40
1
 10
-59.105097
 20
197.612842
 30
0.0
 10
-58.239302
 20
197.612842
 30
0.0
 10
-57.537469
 20
198.314651
 30
0.0
 10
-57.537469
 20
199.180483
 30
0.0
  0
LINE
  5
15c
100
AcDbEntity
  8
Layer_1
 62
2
100
AcDbLine
 10
-57.537469
 20
199.180483
 30
0.0
 11
-57.537469
 21
199.180483
 31
0.0
  0
SPLINE
  5
15d
100
AcDbEntity
  8
Layer_1
 62
2
100
AcDbSpline
 70
8
 71
3
 72
8
 73
4
 74
0
 40
0
 40
0
 40
0
 40
0
 40
1
 40
1
 40
1
 40
1
 10
30.436537
 20
202.656059
 30
0.0
 10
30.436537
 20
203.521891
 30
0.0
 10
29.734704
 20
204.223700
 30
0.0
 10
28.868910
 20
204.223700
 30
0.0
  0
SPLINE
  5
15e
100
AcDbEntity
  8
Layer_1
 62
2
100
AcDbSpline
 70
8
 71
3
 72
8
 73
4
 74
0
 40
0
 40
0
 40
0
 40
0
 40
1
 40
1
 40
1
 40
1
 10
28.868910
 20
204.223700
 30
0.0
 10
28.003088
 20
204.223700
 30
0.0
 10
27.301255
 20
203.521891
 30
0.0
 10
27.301255
 20
202.656059
 30
0.0
  0
SPLINE
  5
15f
100
AcDbEntity
  8
Layer_1
 62
2
100
AcDbSpline
 70
8
 71
3
 72
8
 73
4
 74
0
 40
0
 40
0
 40
0
 40
0
 40
1
 40
1
 40
1
 40
1
 10
27.301255
 20
202.656059
 30
0.0
 10
27.301255
 20
201.790227
 30
0.0
 10
28.003088
 20
201.088418
 30
0.0
 10
28.868910
 20
201.088418
 30
0.0
  0
SPLINE
  5
160
100
AcDbEntity
  8
Layer_1
 62
2
100
AcDbSpline
 70
8
 71
3
 72
8
 73
4
 74
0
 40
0
 40
0
 40
0
 40
0
 40
1
 40
1
 40
1
 40
1
 10
28.868910
 20
201.088418
 30
0.0
 10
29.734704
 20
201.088418
 30
0.0
 10
30.436537
 20
201.790227
 30
0.0
 10
30.436537
 20
202.656059
 30
0.0
  0
LINE
  5
161
100
AcDbEntity
  8
Layer_1
 62
2
100
AcDbLine
 10
30.436537
 20
202.656059
 30
0.0
 11
30.436537
 21
202.656059
 31
0.0
  0
SPLINE
  5
162
100
AcDbEntity
  8
Layer_1
 62
2
100
AcDbSpline
 70
8
 71
3
 72
8
 73
4
 74
0
 40
0
 40
0
 40
0
 40
0
 40
1
 40
1
 40
1
 40
1
 10
30.436537
 20
85.831022
 30
0.0
 10
30.436537
 20
86.696854
 30
0.0
 10
29.734704
 20
87.398664
 30
0.0
 10
28.868910
 20
87.398664
 30
0.0
  0
SPLINE
  5
163
100
AcDbEntity
  8
Layer_1
 62
2
100
AcDbSpline
 70
8
 71
3
 72
8
 73
4
 74
0
 40
0
 40
0
 40
0
 40
0
 40
1
 40
1
 40
1
 40
1
 10
28.868910
 20
87.398664
 30
0.0
 10
28.003088
 20
87.398664
 30
0.0
 10
27.301255
 20
86.696854
 30
0.0
 10
27.301255
 20
85.831022
 30
0.0
  0
SPLINE
  5
164
100
AcDbEntity
  8
Layer_1
 62
2
100
AcDbSpline
 70
8
 71
3
 72
8
 73
4
 74
0
 40
0
 40
0
 40
0
 40
0
 40
1
 40
1
 40
1
 40
1
 10
27.301255
 20
85.831022
 30
0.0
 10
27.301255
 20
84.965190
 30
0.0
 10
28.003088
 20
84.263381
 30
0.0
 10
28.868910
 20
84.263381
 30
0.0
  0
SPLINE
  5
165
100
AcDbEntity
  8
Layer_1
 62
2
100
AcDbSpline
 70
8
 71
3
 72
8
 73
4
 74
0
 40
0
 40
0
 40
0
 40
0
 40
1
 40
1
 40
1
 40
1
 10
28.868910
 20
84.263381
 30
0.0
 10
29.734704
 20
84.263381
 30
0.0
 10
30.436537
 20
84.965190
 30
0.0
 10
30.436537
 20
85.831022
 30
0.0
  0
LINE
  5
166
100
AcDbEntity
  8
Layer_1
 62
2
100
AcDbLine
 10
30.436537
 20
85.831022
 30
0.0
 11
30.436537
 21
85.831022
 31
0.0
  0
SPLINE
  5
167
100
AcDbEntity
  8
Layer_1
 62
2
100
AcDbSpline
 70
8
 71
3
 72
8
 73
4
 74
0
 40
0
 40
0
 40
0
 40
0
 40
1
 40
1
 40
1
 40
1
 10
-57.538660
 20
173.604205
 30
0.0
 10
-57.538660
 20
174.470037
 30
0.0
 10
-58.240492
 20
175.171846
 30
0.0
 10
-59.106287
 20
175.171846
 30
0.0
  0
SPLINE
  5
168
100
AcDbEntity
  8
Layer_1
 62
2
100
AcDbSpline
 70
8
 71
3
 72
8
 73
4
 74
0
 40
0
 40
0
 40
0
 40
0
 40
1
 40
1
 40
1
 40
1
 10
-59.106287
 20
175.171846
 30
0.0
 10
-59.972109
 20
175.171846
 30
0.0
 10
-60.673942
 20
174.470037
 30
0.0
 10
-60.673942
 20
173.604205
 30
0.0
  0
SPLINE
  5
169
100
AcDbEntity
  8
Layer_1
 62
2
100
AcDbSpline
 70
8
 71
3
 72
8
 73
4
 74
0
 40
0
 40
0
 40
0
 40
0
 40
1
 40
1
 40
1
 40
1
 10
-60.673942
 20
173.604205
 30
0.0
 10
-60.673942
 20
172.738373
 30
0.0
 10
-59.972109
 20
172.036564
 30
0.0
 10
-59.106287
 20
172.036564
 30
0.0
  0
SPLINE
  5
16a
100
AcDbEntity
  8
Layer_1
 62
2
100
AcDbSpline
 70
8
 71
3
 72
8
 73
4
 74
0
 40
0
 40
0
 40
0
 40
0
 40
1
 40
1
 40
1
 40
1
 10
-59.106287
 20
172.036564
 30
0.0
 10
-58.240492
 20
172.036564
 30
0.0
 10
-57.538660
 20
172.738373
 30
0.0
 10
-57.538660
 20
173.604205
 30
0.0
  0
LINE
  5
16b
100
AcDbEntity
  8
Layer_1
 62
2
100
AcDbLine
 10
-57.538660
 20
173.604205
 30
0.0
 11
-57.538660
 21
173.604205
 31
0.0
  0
SPLINE
  5
16c
100
AcDbEntity
  8
Layer_1
 62
2
100
AcDbSpline
 70
8
 71
3
 72
8
 73
4
 74
0
 40
0
 40
0
 40
0
 40
0
 40
1
 40
1
 40
1
 40
1
 10
-57.539612
 20
92.122851
 30
0.0
 10
-57.539612
 20
91.257003
 30
0.0
 10
-58.241418
 20
90.555184
 30
0.0
 10
-59.107266
 20
90.555184
 30
0.0
  0
SPLINE
  5
16d
100
AcDbEntity
  8
Layer_1
 62
2
100
AcDbSpline
 70
8
 71
3
 72
8
 73
4
 74
0
 40
0
 40
0
 40
0
 40
0
 40
1
 40
1
 40
1
 40
1
 10
-59.107266
 20
90.555184
 30
0.0
 10
-59.973141
 20
90.555184
 30
0.0
 10
-60.674947
 20
91.257003
 30
0.0
 10
-60.674947
 20
92.122851
 30
0.0
  0
SPLINE
  5
16e
100
AcDbEntity
  8
Layer_1
 62
2
100
AcDbSpline
 70
8
 71
3
 72
8
 73
4
 74
0
 40
0
 40
0
 40
0
 40
0
 40
1
 40
1
 40
1
 40
1
 10
-60.674947
 20
92.122851
 30
0.0
 10
-60.674947
 20
92.988699
 30
0.0
 10
-59.973141
 20
93.690519
 30
0.0
 10
-59.107266
 20
93.690519
 30
0.0
  0
SPLINE
  5
16f
100
AcDbEntity
  8
Layer_1
 62
2
100
AcDbSpline
 70
8
 71
3
 72
8
 73
4
 74
0
 40
0
 40
0
 40
0
 40
0
 40
1
 40
1
 40
1
 40
1
 10
-59.107266
 20
93.690519
 30
0.0
 10
-58.241418
 20
93.690519
 30
0.0
 10
-57.539612
 20
92.988699
 30
0.0
 10
-57.539612
 20
92.122851
 30
0.0
  0
LINE
  5
170
100
AcDbEntity
  8
Layer_1
 62
2
100
AcDbLine
 10
-57.539612
 20
92.122851
 30
0.0
 11
-57.539612
 21
92.122851
 31
0.0
  0
SPLINE
  5
171
100
AcDbEntity
  8
Layer_1
 62
2
100
AcDbSpline
 70
8
 71
3
 72
8
 73
4
 74
0
 40
0
 40
0
 40
0
 40
0
 40
1
 40
1
 40
1
 40
1
 10
263.240288
 20
199.209460
 30
0.0
 10
263.240288
 20
200.075292
 30
0.0
 10
263.942121
 20
200.777101
 30
0.0
 10
264.807916
 20
200.777101
 30
0.0
  0
SPLINE
  5
172
100
AcDbEntity
  8
Layer_1
 62
2
100
AcDbSpline
 70
8
 71
3
 72
8
 73
4
 74
0
 40
0
 40
0
 40
0
 40
0
 40
1
 40
1
 40
1
 40
1
 10
264.807916
 20
200.777101
 30
0.0
 10
265.673737
 20
200.777101
 30
0.0
 10
266.375570
 20
200.075292
 30
0.0
 10
266.375570
 20
199.209460
 30
0.0
  0
SPLINE
  5
173
100
AcDbEntity
  8
Layer_1
 62
2
100
AcDbSpline
 70
8
 71
3
 72
8
 73
4
 74
0
 40
0
 40
0
 40
0
 40
0
 40
1
 40
1
 40
1
 40
1
 10
266.375570
 20
199.209460
 30
0.0
 10
266.375570
 20
198.343628
 30
0.0
 10
265.673737
 20
197.641819
 30
0.0
 10
264.807916
 20
197.641819
 30
0.0
  0
SPLINE
  5
174
100
AcDbEntity
  8
Layer_1
 62
2
100
AcDbSpline
 70
8
 71
3
 72
8
 73
4
 74
0
 40
0
 40
0
 40
0
 40
0
 40
1
 40
1
 40
1
 40
1
 10
264.807916
 20
197.641819
 30
0.0
 10
263.942121
 20
197.641819
 30
0.0
 10
263.240288
 20
198.343628
 30
0.0
 10
263.240288
 20
199.209460
 30
0.0
  0
LINE
  5
175
100
AcDbEntity
  8
Layer_1
 62
2
100
AcDbLine
 10
263.240288
 20
199.209460
 30
0.0
 11
263.240288
 21
199.209460
 31
0.0
  0
SPLINE
  5
176
100
AcDbEntity
  8
Layer_1
 62
2
100
AcDbSpline
 70
8
 71
3
 72
8
 73
4
 74
0
 40
0
 40
0
 40
0
 40
0
 40
1
 40
1
 40
1
 40
1
 10
175.266282
 20
202.656059
 30
0.0
 10
175.266282
 20
203.521891
 30
0.0
 10
175.968115
 20
204.223700
 30
0.0
 10
176.833910
 20
204.223700
 30
0.0
  0
SPLINE
  5
177
100
AcDbEntity
  8
Layer_1
 62
2
100
AcDbSpline
 70
8
 71
3
 72
8
 73
4
 74
0
 40
0
 40
0
 40
0
 40
0
 40
1
 40
1
 40
1
 40
1
 10
176.833910
 20
204.223700
 30
0.0
 10
177.699731
 20
204.223700
 30
0.0
 10
178.401564
 20
203.521891
 30
0.0
 10
178.401564
 20
202.656059
 30
0.0
  0
SPLINE
  5
178
100
AcDbEntity
  8
Layer_1
 62
2
100
AcDbSpline
 70
8
 71
3
 72
8
 73
4
 74
0
 40
0
 40
0
 40
0
 40
0
 40
1
 40
1
 40
1
 40
1
 10
178.401564
 20
202.656059
 30
0.0
 10
178.401564
 20
201.790227
 30
0.0
 10
177.699731
 20
201.088418
 30
0.0
 10
176.833910
 20
201.088418
 30
0.0
  0
SPLINE
  5
179
100
AcDbEntity
  8
Layer_1
 62
2
100
AcDbSpline
 70
8
 71
3
 72
8
 73
4
 74
0
 40
0
 40
0
 40
0
 40
0
 40
1
 40
1
 40
1
 40
1
 10
176.833910
 20
201.088418
 30
0.0
 10
175.968115
 20
201.088418
 30
0.0
 10
175.266282
 20
201.790227
 30
0.0
 10
175.266282
 20
202.656059
 30
0.0
  0
LINE
  5
17a
100
AcDbEntity
  8
Layer_1
 62
2
100
AcDbLine
 10
175.266282
 20
202.656059
 30
0.0
 11
175.266282
 21
202.656059
 31
0.0
  0
SPLINE
  5
17b
100
AcDbEntity
  8
Layer_1
 62
2
100
AcDbSpline
 70
8
 71
3
 72
8
 73
4
 74
0
 40
0
 40
0
 40
0
 40
0
 40
1
 40
1
 40
1
 40
1
 10
175.266282
 20
85.831022
 30
0.0
 10
175.266282
 20
86.696854
 30
0.0
 10
175.968115
 20
87.398664
 30
0.0
 10
176.833910
 20
87.398664
 30
0.0
  0
SPLINE
  5
17c
100
AcDbEntity
  8
Layer_1
 62
2
100
AcDbSpline
 70
8
 71
3
 72
8
 73
4
 74
0
 40
0
 40
0
 40
0
 40
0
 40
1
 40
1
 40
1
 40
1
 10
176.833910
 20
87.398664
 30
0.0
 10
177.699731
 20
87.398664
 30
0.0
 10
178.401564
 20
86.696854
 30
0.0
 10
178.401564
 20
85.831022
 30
0.0
  0
SPLINE
  5
17d
100
AcDbEntity
  8
Layer_1
 62
2
100
AcDbSpline
 70
8
 71
3
 72
8
 73
4
 74
0
 40
0
 40
0
 40
0
 40
0
 40
1
 40
1
 40
1
 40
1
 10
178.401564
 20
85.831022
 30
0.0
 10
178.401564
 20
84.965190
 30
0.0
 10
177.699731
 20
84.263381
 30
0.0
 10
176.833910
 20
84.263381
 30
0.0
  0
SPLINE
  5
17e
100
AcDbEntity
  8
Layer_1
 62
2
100
AcDbSpline
 70
8
 71
3
 72
8
 73
4
 74
0
 40
0
 40
0
 40
0
 40
0
 40
1
 40
1
 40
1
 40
1
 10
176.833910
 20
84.263381
 30
0.0
 10
175.968115
 20
84.263381
 30
0.0
 10
175.266282
 20
84.965190
 30
0.0
 10
175.266282
 20
85.831022
 30
0.0
  0
LINE
  5
17f
100
AcDbEntity
  8
Layer_1
 62
2
100
AcDbLine
 10
175.266282
 20
85.831022
 30
0.0
 11
175.266282
 21
85.831022
 31
0.0
  0
SPLINE
  5
180
100
AcDbEntity
  8
Layer_1
 62
2
100
AcDbSpline
 70
8
 71
3
 72
8
 73
4
 74
0
 40
0
 40
0
 40
0
 40
0
 40
1
 40
1
 40
1
 40
1
 10
263.239412
 20
173.604205
 30
0.0
 10
263.239412
 20
174.470037
 30
0.0
 10
263.941245
 20
175.171846
 30
0.0
 10
264.807040
 20
175.171846
 30
0.0
  0
SPLINE
  5
181
100
AcDbEntity
  8
Layer_1
 62
2
100
AcDbSpline
 70
8
 71
3
 72
8
 73
4
 74
0
 40
0
 40
0
 40
0
 40
0
 40
1
 40
1
 40
1
 40
1
 10
264.807040
 20
175.171846
 30
0.0
 10
265.672861
 20
175.171846
 30
0.0
 10
266.374694
 20
174.470037
 30
0.0
 10
266.374694
 20
173.604205
 30
0.0
  0
SPLINE
  5
182
100
AcDbEntity
  8
Layer_1
 62
2
100
AcDbSpline
 70
8
 71
3
 72
8
 73
4
 74
0
 40
0
 40
0
 40
0
 40
0
 40
1
 40
1
 40
1
 40
1
 10
266.374694
 20
173.604205
 30
0.0
 10
266.374694
 20
172.738373
 30
0.0
 10
265.672861
 20
172.036564
 30
0.0
 10
264.807040
 20
172.036564
 30
0.0
  0
SPLINE
  5
183
100
AcDbEntity
  8
Layer_1
 62
2
100
AcDbSpline
 70
8
 71
3
 72
8
 73
4
 74
0
 40
0
 40
0
 40
0
 40
0
 40
1
 40
1
 40
1
 40
1
 10
264.807040
 20
172.036564
 30
0.0
 10
263.941245
 20
172.036564
 30
0.0
 10
263.239412
 20
172.738373
 30
0.0
 10
263.239412
 20
173.604205
 30
0.0
  0
LINE
  5
184
100
AcDbEntity
  8
Layer_1
 62
2
100
AcDbLine
 10
263.239412
 20
173.604205
 30
0.0
 11
263.239412
 21
173.604205
 31
0.0
  0
SPLINE
  5
185
100
AcDbEntity
  8
Layer_1
 62
2
100
AcDbSpline
 70
8
 71
3
 72
8
 73
4
 74
0
 40
0
 40
0
 40
0
 40
0
 40
1
 40
1
 40
1
 40
1
 10
263.240365
 20
92.122851
 30
0.0
 10
263.240365
 20
91.257003
 30
0.0
 10
263.942171
 20
90.555184
 30
0.0
 10
264.808019
 20
90.555184
 30
0.0
  0
SPLINE
  5
186
100
AcDbEntity
  8
Layer_1
 62
2
100
AcDbSpline
 70
8
 71
3
 72
8
 73
4
 74
0
 40
0
 40
0
 40
0
 40
0
 40
1
 40
1
 40
1
 40
1
 10
264.808019
 20
90.555184
 30
0.0
 10
265.673893
 20
90.555184
 30
0.0
 10
266.375700
 20
91.257003
 30
0.0
 10
266.375700
 20
92.122851
 30
0.0
  0
SPLINE
  5
187
100
AcDbEntity
  8
Layer_1
 62
2
100
AcDbSpline
 70
8
 71
3
 72
8
 73
4
 74
0
 40
0
 40
0
 40
0
 40
0
 40
1
 40
1
 40
1
 40
1
 10
266.375700
 20
92.122851
 30
0.0
 10
266.375700
 20
92.988699
 30
0.0
 10
265.673893
 20
93.690519
 30
0.0
 10
264.808019
 20
93.690519
 30
0.0
  0
SPLINE
  5
188
100
AcDbEntity
  8
Layer_1
 62
2
100
AcDbSpline
 70
8
 71
3
 72
8
 73
4
 74
0
 40
0
 40
0
 40
0
 40
0
 40
1
 40
1
 40
1
 40
1
 10
264.808019
 20
93.690519
 30
0.0
 10
263.942171
 20
93.690519
 30
0.0
 10
263.240365
 20
92.988699
 30
0.0
 10
263.240365
 20
92.122851
 30
0.0
  0
LINE
  5
189
100
AcDbEntity
  8
Layer_1
 62
2
100
AcDbLine
 10
263.240365
 20
92.122851
 30
0.0
 11
263.240365
 21
92.122851
 31
0.0
  0
LINE
  5
18a
100
AcDbEntity
  8
Layer_1
 62
2
100
AcDbLine
 10
-23.897040
 20
196.747754
 30
0.0
 11
-21.985825
 21
196.747754
 31
0.0
  0
LINE
  5
18b
100
AcDbEntity
  8
Layer_1
 62
2
100
AcDbLine
 10
-21.985825
 20
196.747754
 30
0.0
 11
-20.743978
 21
196.744954
 31
0.0
  0
SPLINE
  5
18c
100
AcDbEntity
  8
Layer_1
 62
2
100
AcDbSpline
 70
8
 71
3
 72
8
 73
4
 74
0
 40
0
 40
0
 40
0
 40
0
 40
1
 40
1
 40
1
 40
1
 10
-20.743978
 20
196.744954
 30
0.0
 10
-19.967983
 20
196.744954
 30
0.0
 10
-19.223683
 20
197.053267
 30
0.0
 10
-18.674992
 20
197.601967
 30
0.0
  0
SPLINE
  5
18d
100
AcDbEntity
  8
Layer_1
 62
2
100
AcDbSpline
 70
8
 71
3
 72
8
 73
4
 74
0
 40
0
 40
0
 40
0
 40
0
 40
1
 40
1
 40
1
 40
1
 10
-18.674992
 20
197.601967
 30
0.0
 10
-18.126300
 20
198.150657
 30
0.0
 10
-17.817981
 20
198.894955
 30
0.0
 10
-17.817981
 20
199.670951
 30
0.0
  0
LINE
  5
18e
100
AcDbEntity
  8
Layer_1
 62
2
100
AcDbLine
 10
-17.817981
 20
199.670951
 30
0.0
 11
-17.817981
 21
205.872136
 31
0.0
  0
LINE
  5
18f
100
AcDbEntity
  8
Layer_1
 62
2
100
AcDbLine
 10
-17.817981
 20
205.872136
 30
0.0
 11
-17.817981
 21
206.872133
 31
0.0
  0
LINE
  5
190
100
AcDbEntity
  8
Layer_1
 62
2
100
AcDbLine
 10
-17.817981
 20
206.872133
 30
0.0
 11
-17.817981
 21
210.857415
 31
0.0
  0
SPLINE
  5
191
100
AcDbEntity
  8
Layer_1
 62
2
100
AcDbSpline
 70
8
 71
3
 72
8
 73
4
 74
0
 40
0
 40
0
 40
0
 40
0
 40
1
 40
1
 40
1
 40
1
 10
-17.817981
 20
210.857415
 30
0.0
 10
-17.817981
 20
211.633437
 30
0.0
 10
-18.126300
 20
212.377735
 30
0.0
 10
-18.674992
 20
212.926428
 30
0.0
  0
SPLINE
  5
192
100
AcDbEntity
  8
Layer_1
 62
2
100
AcDbSpline
 70
8
 71
3
 72
8
 73
4
 74
0
 40
0
 40
0
 40
0
 40
0
 40
1
 40
1
 40
1
 40
1
 10
-18.674992
 20
212.926428
 30
0.0
 10
-19.223683
 20
213.475120
 30
0.0
 10
-19.967983
 20
213.783412
 30
0.0
 10
-20.743978
 20
213.783412
 30
0.0
  0
LINE
  5
193
100
AcDbEntity
  8
Layer_1
 62
2
100
AcDbLine
 10
-20.743978
 20
213.783412
 30
0.0
 11
-22.448844
 21
213.788012
 31
0.0
  0
LINE
  5
194
100
AcDbEntity
  8
Layer_1
 62
2
100
AcDbLine
 10
-22.448844
 20
213.788012
 30
0.0
 11
-64.745443
 21
213.788014
 31
0.0
  0
SPLINE
  5
195
100
AcDbEntity
  8
Layer_1
 62
2
100
AcDbSpline
 70
8
 71
3
 72
8
 73
4
 74
0
 40
0
 40
0
 40
0
 40
0
 40
1
 40
1
 40
1
 40
1
 10
-64.745443
 20
213.788014
 30
0.0
 10
-66.031606
 20
213.788014
 30
0.0
 10
-67.279039
 20
213.347866
 30
0.0
 10
-68.280409
 20
212.540726
 30
0.0
  0
LINE
  5
196
100
AcDbEntity
  8
Layer_1
 62
2
100
AcDbLine
 10
-68.280409
 20
212.540726
 30
0.0
 11
-71.854676
 21
209.659740
 31
0.0
  0
SPLINE
  5
197
100
AcDbEntity
  8
Layer_1
 62
2
100
AcDbSpline
 70
8
 71
3
 72
8
 73
4
 74
0
 40
0
 40
0
 40
0
 40
0
 40
1
 40
1
 40
1
 40
1
 10
-71.854676
 20
209.659740
 30
0.0
 10
-72.717365
 20
208.964383
 30
0.0
 10
-73.416872
 20
207.502438
 30
0.0
 10
-73.417064
 20
206.394398
 30
0.0
  0
SPLINE
  5
198
100
AcDbEntity
  8
Layer_1
 62
2
100
AcDbSpline
 70
8
 71
3
 72
8
 73
4
 74
0
 40
0
 40
0
 40
0
 40
0
 40
1
 40
1
 40
1
 40
1
 10
-73.417064
 20
206.394398
 30
0.0
 10
-73.438784
 20
80.995507
 30
0.0
 10
-73.367694
 20
161.670157
 30
0.0
 10
-73.397644
 20
85.633842
 30
0.0
  0
SPLINE
  5
199
100
AcDbEntity
  8
Layer_1
 62
2
100
AcDbSpline
 70
8
 71
3
 72
8
 73
4
 74
0
 40
0
 40
0
 40
0
 40
0
 40
1
 40
1
 40
1
 40
1
 10
-73.397644
 20
85.633842
 30
0.0
 10
-73.398084
 20
84.516153
 30
0.0
 10
-72.662711
 20
83.081245
 30
0.0
 10
-71.755131
 20
82.428896
 30
0.0
  0
LINE
  5
19a
100
AcDbEntity
  8
Layer_1
 62
2
100
AcDbLine
 10
-71.755131
 20
82.428896
 30
0.0
 11
-59.413692
 21
73.558107
 31
0.0
  0
SPLINE
  5
19b
100
AcDbEntity
  8
Layer_1
 62
2
100
AcDbSpline
 70
8
 71
3
 72
8
 73
4
 74
0
 40
0
 40
0
 40
0
 40
0
 40
1
 40
1
 40
1
 40
1
 10
-59.413692
 20
73.558107
 30
0.0
 10
-58.338266
 20
72.785108
 30
0.0
 10
-57.042355
 20
72.379269
 30
0.0
 10
-55.718117
 20
72.400768
 30
0.0
  0
LINE
  5
19c
100
AcDbEntity
  8
Layer_1
 62
2
100
AcDbLine
 10
-55.718117
 20
72.400768
 30
0.0
 11
-54.610225
 21
72.418768
 31
0.0
  0
LINE
  5
19d
100
AcDbEntity
  8
Layer_1
 62
2
100
AcDbLine
 10
-54.610225
 20
72.418768
 30
0.0
 11
259.958479
 21
72.418738
 31
0.0
  0
LINE
  5
19e
100
AcDbEntity
  8
Layer_1
 62
2
100
AcDbLine
 10
259.958479
 20
72.418738
 30
0.0
 11
261.108277
 21
72.400038
 31
0.0
  0
SPLINE
  5
19f
100
AcDbEntity
  8
Layer_1
 62
2
100
AcDbSpline
 70
8
 71
3
 72
8
 73
4
 74
0
 40
0
 40
0
 40
0
 40
0
 40
1
 40
1
 40
1
 40
1
 10
261.108277
 20
72.400038
 30
0.0
 10
262.405322
 20
72.378979
 30
0.0
 10
263.674620
 20
72.776483
 30
0.0
 10
264.727963
 20
73.533607
 30
0.0
  0
LINE
  5
1a0
100
AcDbEntity
  8
Layer_1
 62
2
100
AcDbLine
 10
264.727963
 20
73.533607
 30
0.0
 11
277.073437
 21
82.407306
 31
0.0
  0
SPLINE
  5
1a1
100
AcDbEntity
  8
Layer_1
 62
2
100
AcDbSpline
 70
8
 71
3
 72
8
 73
4
 74
0
 40
0
 40
0
 40
0
 40
0
 40
1
 40
1
 40
1
 40
1
 10
277.073437
 20
82.407306
 30
0.0
 10
277.997566
 20
83.071555
 30
0.0
 10
278.746355
 20
84.532643
 30
0.0
 10
278.745905
 20
85.670732
 30
0.0
  0
SPLINE
  5
1a2
100
AcDbEntity
  8
Layer_1
 62
2
100
AcDbSpline
 70
8
 71
3
 72
8
 73
4
 74
0
 40
0
 40
0
 40
0
 40
0
 40
1
 40
1
 40
1
 40
1
 10
278.745905
 20
85.670732
 30
0.0
 10
278.716005
 20
161.648917
 30
0.0
 10
278.787105
 20
81.005277
 30
0.0
 10
278.765405
 20
206.418792
 30
0.0
  0
SPLINE
  5
1a3
100
AcDbEntity
  8
Layer_1
 62
2
100
AcDbSpline
 70
8
 71
3
 72
8
 73
4
 74
0
 40
0
 40
0
 40
0
 40
0
 40
1
 40
1
 40
1
 40
1
 10
278.765405
 20
206.418792
 30
0.0
 10
278.765215
 20
207.513332
 30
0.0
 10
278.074216
 20
208.957473
 30
0.0
 10
277.222027
 20
209.644370
 30
0.0
  0
LINE
  5
1a4
100
AcDbEntity
  8
Layer_1
 62
2
100
AcDbLine
 10
277.222027
 20
209.644370
 30
0.0
 11
273.622842
 21
212.545456
 31
0.0
  0
SPLINE
  5
1a5
100
AcDbEntity
  8
Layer_1
 62
2
100
AcDbSpline
 70
8
 71
3
 72
8
 73
4
 74
0
 40
0
 40
0
 40
0
 40
0
 40
1
 40
1
 40
1
 40
1
 10
273.622842
 20
212.545456
 30
0.0
 10
272.625314
 20
213.349502
 30
0.0
 10
271.382667
 20
213.787963
 30
0.0
 10
270.101436
 20
213.787963
 30
0.0
  0
LINE
  5
1a6
100
AcDbEntity
  8
Layer_1
 62
2
100
AcDbLine
 10
270.101436
 20
213.787963
 30
0.0
 11
4.075567
 21
213.787982
 31
0.0
  0
LINE
  5
1a7
100
AcDbEntity
  8
Layer_1
 62
2
100
AcDbLine
 10
4.075567
 20
213.787982
 30
0.0
 11
2.105337
 21
213.782382
 31
0.0
  0
SPLINE
  5
1a8
100
AcDbEntity
  8
Layer_1
 62
2
100
AcDbSpline
 70
8
 71
3
 72
8
 73
4
 74
0
 40
0
 40
0
 40
0
 40
0
 40
1
 40
1
 40
1
 40
1
 10
2.105337
 20
213.782382
 30
0.0
 10
1.329341
 20
213.782382
 30
0.0
 10
0.585043
 20
213.474090
 30
0.0
 10
0.036351
 20
212.925398
 30
0.0
  0
SPLINE
  5
1a9
100
AcDbEntity
  8
Layer_1
 62
2
100
AcDbSpline
 70
8
 71
3
 72
8
 73
4
 74
0
 40
0
 40
0
 40
0
 40
0
 40
1
 40
1
 40
1
 40
1
 10
0.036351
 20
212.925398
 30
0.0
 10
-0.512342
 20
212.376705
 30
0.0
 10
-0.820660
 20
211.632407
 30
0.0
 10
-0.820660
 20
210.856385
 30
0.0
  0
LINE
  5
1aa
100
AcDbEntity
  8
Layer_1
 62
2
100
AcDbLine
 10
-0.820660
 20
210.856385
 30
0.0
 11
-0.820660
 21
206.872138
 31
0.0
  0
LINE
  5
1ab
100
AcDbEntity
  8
Layer_1
 62
2
100
AcDbLine
 10
-0.820660
 20
206.872138
 30
0.0
 11
-0.820660
 21
205.872142
 31
0.0
  0
LINE
  5
1ac
100
AcDbEntity
  8
Layer_1
 62
2
100
AcDbLine
 10
-0.820660
 20
205.872142
 30
0.0
 11
-0.820660
 21
199.673044
 31
0.0
  0
SPLINE
  5
1ad
100
AcDbEntity
  8
Layer_1
 62
2
100
AcDbSpline
 70
8
 71
3
 72
8
 73
4
 74
0
 40
0
 40
0
 40
0
 40
0
 40
1
 40
1
 40
1
 40
1
 10
-0.820660
 20
199.673044
 30
0.0
 10
-0.820660
 20
198.897049
 30
0.0
 10
-0.512342
 20
198.152750
 30
0.0
 10
0.036351
 20
197.604058
 30
0.0
  0
SPLINE
  5
1ae
100
AcDbEntity
  8
Layer_1
 62
2
100
AcDbSpline
 70
8
 71
3
 72
8
 73
4
 74
0
 40
0
 40
0
 40
0
 40
0
 40
1
 40
1
 40
1
 40
1
 10
0.036351
 20
197.604058
 30
0.0
 10
0.585043
 20
197.055366
 30
0.0
 10
1.329341
 20
196.747048
 30
0.0
 10
2.105337
 20
196.747048
 30
0.0
  0
LINE
  5
1af
100
AcDbEntity
  8
Layer_1
 62
2
100
AcDbLine
 10
2.105337
 20
196.747048
 30
0.0
 11
4.207859
 21
196.747759
 31
0.0
  0
LINE
  5
1b0
100
AcDbEntity
  8
Layer_1
 62
2
100
AcDbLine
 10
4.207859
 20
196.747759
 30
0.0
 11
94.604671
 21
196.747759
 31
0.0
  0
SPLINE
  5
1b1
100
AcDbEntity
  8
Layer_1
 62
2
100
AcDbSpline
 70
8
 71
3
 72
8
 73
4
 74
0
 40
0
 40
0
 40
0
 40
0
 40
1
 40
1
 40
1
 40
1
 10
94.604671
 20
196.747759
 30
0.0
 10
95.419957
 20
196.747759
 30
0.0
 10
96.201880
 20
197.071659
 30
0.0
 10
96.778274
 20
197.648159
 30
0.0
  0
SPLINE
  5
1b2
100
AcDbEntity
  8
Layer_1
 62
2
100
AcDbSpline
 70
8
 71
3
 72
8
 73
4
 74
0
 40
0
 40
0
 40
0
 40
0
 40
1
 40
1
 40
1
 40
1
 10
96.778274
 20
197.648159
 30
0.0
 10
97.354774
 20
198.224558
 30
0.0
 10
97.678680
 20
199.006457
 30
0.0
 10
97.678680
 20
199.821756
 30
0.0
  0
ENDSEC
  0
SECTION
  2
OBJECTS
  0
DICTIONARY
  5
C
330
0
100
AcDbDictionary
  3
ACAD_GROUP
350
D
  3
ACAD_MLINESTYLE
350
17
  0
DICTIONARY
  5
D
330
C
100
AcDbDictionary
  0
DICTIONARY
  5
1A
330
C
100
AcDbDictionary
  0
DICTIONARY
  5
17
330
C
100
AcDbDictionary
  3
STANDARD
350
18
  0
DICTIONARY
  5
19
330
C
100
AcDbDictionary
  0
ENDSEC
  0
EOF
