  0
SECTION
  2
HEADER
  9
$ACADVER
  1
AC1014
  9
$HANDSEED
  5
FFFF
  9
$INSUNITS
 70
     0
  9
$MEASUREMENT
 70
     1
  0
ENDSEC
  0
SECTION
  2
TABLES
  0
TABLE
  2
VPORT
  5
8
330
0
100
AcDbSymbolTable
 70
     4
  0
VPORT
  5
2E
330
8
100
AcDbSymbolTableRecord
100
AcDbViewportTableRecord
  2
*ACTIVE
 70
     0
 10
0.0
 20
0.0
 11
1.0
 21
1.0
 12
210.0
 22
148.5
 13
0.0
 23
0.0
 14
10.0
 24
10.0
 15
10.0
 25
10.0
 16
0.0
 26
0.0
 36
1.0
 17
0.0
 27
0.0
 37
0.0
 40
341.0
 41
1.24
 42
50.0
 43
0.0
 44
0.0
 50
0.0
 51
0.0
 71
     0
 72
   100
 73
     1
 74
     3
 75
     0
 76
     0
 77
     0
 78
     0
  0
ENDTAB
  0
TABLE
  2
LTYPE
  5
5
330
0
100
AcDbSymbolTable
 70
     1
  0
LTYPE
  5
14
330
5
100
AcDbSymbolTableRecord
100
AcDbLinetypeTableRecord
  2
BYBLOCK
 70
     0
  3

 72
    65
 73
     0
 40
0.0
  0
LTYPE
  5
15
330
5
100
AcDbSymbolTableRecord
100
AcDbLinetypeTableRecord
  2
BYLAYER
 70
     0
  3

 72
    65
 73
     0
 40
0.0
  0
LTYPE
  5
16
330
5
100
AcDbSymbolTableRecord
100
AcDbLinetypeTableRecord
  2
CONTINUOUS
 70
     0
  3
Solid line
 72
    65
 73
     0
 40
0.0
  0
ENDTAB
  0
TABLE
  2
LAYER
  5
2
100
AcDbSymbolTable
 70
2
  0
LAYER
  5
50
100
AcDbSymbolTableRecord
100
AcDbLayerTableRecord
  2
0
 70
0
  6
CONTINUOUS
  0
LAYER
  5
51
100
AcDbSymbolTableRecord
100
AcDbLayerTableRecord
  2
Layer_1
 70
0
  6
CONTINUOUS
  0
ENDTAB
  0
TABLE
  2
STYLE
  5
3
330
0
100
AcDbSymbolTable
 70
     1
  0
STYLE
  5
11
330
3
100
AcDbSymbolTableRecord
100
AcDbTextStyleTableRecord
  2
STANDARD
 70
     0
 40
0.0
 41
1.0
 50
0.0
 71
     0
 42
2.5
  3
txt
  4

  0
ENDTAB
  0
TABLE
  2
VIEW
  5
6
330
0
100
AcDbSymbolTable
 70
     0
  0
ENDTAB
  0
TABLE
  2
UCS
  5
7
330
0
100
AcDbSymbolTable
 70
     0
  0
ENDTAB
  0
TABLE
  2
APPID
  5
9
330
0
100
AcDbSymbolTable
 70
     2
  0
APPID
  5
12
330
9
100
AcDbSymbolTableRecord
100
AcDbRegAppTableRecord
  2
ACAD
 70
     0
  0
ENDTAB
  0
TABLE
  2
DIMSTYLE
  5
A
330
0
100
AcDbSymbolTable
 70
     1
  0
DIMSTYLE
105
27
330
A
100
AcDbSymbolTableRecord
100
AcDbDimStyleTableRecord
  2
ISO-25
 70
     0
  3

  4

  5

  6

  7

 40
1.0
 41
2.5
 42
0.625
 43
3.75
 44
1.25
 45
0.0
 46
0.0
 47
0.0
 48
0.0
140
2.5
141
2.5
142
0.0
143
0.03937007874016
144
1.0
145
0.0
146
1.0
147
0.625
 71
     0
 72
     0
 73
     0
 74
     0
 75
     0
 76
     0
 77
     1
 78
     8
170
     0
171
     3
172
     1
173
     0
174
     0
175
     0
176
     0
177
     0
178
     0
270
     2
271
     2
272
     2
273
     2
274
     3
340
11
275
     0
280
     0
281
     0
282
     0
283
     0
284
     8
285
     0
286
     0
287
     3
288
     0
  0
ENDTAB
  0
TABLE
  2
BLOCK_RECORD
  5
1
330
0
100
AcDbSymbolTable
 70
     1
  0
BLOCK_RECORD
  5
1F
330
1
100
AcDbSymbolTableRecord
100
AcDbBlockTableRecord
  2
*MODEL_SPACE
  0
BLOCK_RECORD
  5
1B
330
1
100
AcDbSymbolTableRecord
100
AcDbBlockTableRecord
  2
*PAPER_SPACE
  0
ENDTAB
  0
ENDSEC
  0
SECTION
  2
BLOCKS
  0
BLOCK
  5
20
330
1F
100
AcDbEntity
  8
0
100
AcDbBlockBegin
  2
*MODEL_SPACE
 70
     0
 10
0.0
 20
0.0
 30
0.0
  3
*MODEL_SPACE
  1

  0
ENDBLK
  5
21
330
1F
100
AcDbEntity
  8
0
100
AcDbBlockEnd
  0
BLOCK
  5
1C
330
1B
100
AcDbEntity
 67
     1
  8
0
100
AcDbBlockBegin
  2
*PAPER_SPACE
  1

  0
ENDBLK
  5
1D
330
1B
100
AcDbEntity
 67
     1
  8
0
100
AcDbBlockEnd
  0
ENDSEC
  0
SECTION
  2
ENTITIES
  0
LINE
  5
100
100
AcDbEntity
  8
Layer_1
 62
2
100
AcDbLine
 10
-50.767989
 20
194.779355
 30
0.0
 11
-50.767989
 21
159.008210
 31
0.0
  0
LINE
  5
101
100
AcDbEntity
  8
Layer_1
 62
2
100
AcDbLine
 10
-50.767989
 20
159.008210
 30
0.0
 11
-50.767989
 21
129.062433
 31
0.0
  0
LINE
  5
102
100
AcDbEntity
  8
Layer_1
 62
2
100
AcDbLine
 10
-50.767989
 20
129.062433
 30
0.0
 11
-50.767989
 21
93.291290
 31
0.0
  0
SPLINE
  5
103
100
AcDbEntity
  8
Layer_1
 62
2
100
AcDbSpline
 70
8
 71
3
 72
8
 73
4
 74
0
 40
0
 40
0
 40
0
 40
0
 40
1
 40
1
 40
1
 40
1
 10
-50.716792
 20
195.095156
 30
0.0
 10
-50.750712
 20
194.993355
 30
0.0
 10
-50.767989
 20
194.886656
 30
0.0
 10
-50.767989
 20
194.779355
 30
0.0
  0
SPLINE
  5
104
100
AcDbEntity
  8
Layer_1
 62
2
100
AcDbSpline
 70
8
 71
3
 72
8
 73
4
 74
0
 40
0
 40
0
 40
0
 40
0
 40
1
 40
1
 40
1
 40
1
 10
-49.822793
 20
195.779754
 30
0.0
 10
-50.241310
 20
195.779754
 30
0.0
 10
-50.607704
 20
195.499155
 30
0.0
 10
-50.716792
 20
195.095156
 30
0.0
  0
LINE
  5
105
100
AcDbEntity
  8
Layer_1
 62
2
100
AcDbLine
 10
-49.822793
 20
195.779754
 30
0.0
 11
-39.193012
 21
195.779754
 31
0.0
  0
SPLINE
  5
106
100
AcDbEntity
  8
Layer_1
 62
2
100
AcDbSpline
 70
8
 71
3
 72
8
 73
4
 74
0
 40
0
 40
0
 40
0
 40
0
 40
1
 40
1
 40
1
 40
1
 10
-39.193012
 20
195.779754
 30
0.0
 10
-38.377726
 20
195.779754
 30
0.0
 10
-37.595804
 20
196.103653
 30
0.0
 10
-37.019409
 20
196.680153
 30
0.0
  0
SPLINE
  5
107
100
AcDbEntity
  8
Layer_1
 62
2
100
AcDbSpline
 70
8
 71
3
 72
8
 73
4
 74
0
 40
0
 40
0
 40
0
 40
0
 40
1
 40
1
 40
1
 40
1
 10
-37.019409
 20
196.680153
 30
0.0
 10
-36.442910
 20
197.256553
 30
0.0
 10
-36.119007
 20
198.038451
 30
0.0
 10
-36.119007
 20
198.853750
 30
0.0
  0
LINE
  5
108
100
AcDbEntity
  8
Layer_1
 62
2
100
AcDbLine
 10
-36.119007
 20
198.853750
 30
0.0
 11
-36.119007
 21
199.779349
 31
0.0
  0
SPLINE
  5
109
100
AcDbEntity
  8
Layer_1
 62
2
100
AcDbSpline
 70
8
 71
3
 72
8
 73
4
 74
0
 40
0
 40
0
 40
0
 40
0
 40
1
 40
1
 40
1
 40
1
 10
-33.193010
 20
202.705346
 30
0.0
 10
-33.969032
 20
202.705346
 30
0.0
 10
-34.713331
 20
202.397046
 30
0.0
 10
-35.262023
 20
201.848346
 30
0.0
  0
SPLINE
  5
10a
100
AcDbEntity
  8
Layer_1
 62
2
100
AcDbSpline
 70
8
 71
3
 72
8
 73
4
 74
0
 40
0
 40
0
 40
0
 40
0
 40
1
 40
1
 40
1
 40
1
 10
-35.262023
 20
201.848346
 30
0.0
 10
-35.810715
 20
201.299648
 30
0.0
 10
-36.119007
 20
200.555347
 30
0.0
 10
-36.119007
 20
199.779349
 30
0.0
  0
LINE
  5
10b
100
AcDbEntity
  8
Layer_1
 62
2
100
AcDbLine
 10
-33.193010
 20
202.705346
 30
0.0
 11
-29.193018
 21
202.705346
 31
0.0
  0
SPLINE
  5
10c
100
AcDbEntity
  8
Layer_1
 62
2
100
AcDbSpline
 70
8
 71
3
 72
8
 73
4
 74
0
 40
0
 40
0
 40
0
 40
0
 40
1
 40
1
 40
1
 40
1
 10
-26.267021
 20
199.779349
 30
0.0
 10
-26.267021
 20
200.555347
 30
0.0
 10
-26.575340
 20
201.299648
 30
0.0
 10
-27.124032
 20
201.848346
 30
0.0
  0
SPLINE
  5
10d
100
AcDbEntity
  8
Layer_1
 62
2
100
AcDbSpline
 70
8
 71
3
 72
8
 73
4
 74
0
 40
0
 40
0
 40
0
 40
0
 40
1
 40
1
 40
1
 40
1
 10
-27.124032
 20
201.848346
 30
0.0
 10
-27.672724
 20
202.397046
 30
0.0
 10
-28.417022
 20
202.705346
 30
0.0
 10
-29.193018
 20
202.705346
 30
0.0
  0
LINE
  5
10e
100
AcDbEntity
  8
Layer_1
 62
2
100
AcDbLine
 10
-26.267021
 20
199.779349
 30
0.0
 11
-26.267021
 21
198.853750
 31
0.0
  0
SPLINE
  5
10f
100
AcDbEntity
  8
Layer_1
 62
2
100
AcDbSpline
 70
8
 71
3
 72
8
 73
4
 74
0
 40
0
 40
0
 40
0
 40
0
 40
1
 40
1
 40
1
 40
1
 10
-26.267021
 20
198.853750
 30
0.0
 10
-26.267021
 20
198.038451
 30
0.0
 10
-25.943118
 20
197.256553
 30
0.0
 10
-25.366619
 20
196.680153
 30
0.0
  0
SPLINE
  5
110
100
AcDbEntity
  8
Layer_1
 62
2
100
AcDbSpline
 70
8
 71
3
 72
8
 73
4
 74
0
 40
0
 40
0
 40
0
 40
0
 40
1
 40
1
 40
1
 40
1
 10
-25.366619
 20
196.680153
 30
0.0
 10
-24.790224
 20
196.103653
 30
0.0
 10
-24.008329
 20
195.779754
 30
0.0
 10
-23.193043
 20
195.779754
 30
0.0
  0
LINE
  5
111
100
AcDbEntity
  8
Layer_1
 62
2
100
AcDbLine
 10
98.382713
 20
198.853750
 30
0.0
 11
98.382713
 21
199.779349
 31
0.0
  0
SPLINE
  5
112
100
AcDbEntity
  8
Layer_1
 62
2
100
AcDbSpline
 70
8
 71
3
 72
8
 73
4
 74
0
 40
0
 40
0
 40
0
 40
0
 40
1
 40
1
 40
1
 40
1
 10
101.308710
 20
202.705346
 30
0.0
 10
100.532688
 20
202.705346
 30
0.0
 10
99.788390
 20
202.397046
 30
0.0
 10
99.239698
 20
201.848346
 30
0.0
  0
SPLINE
  5
113
100
AcDbEntity
  8
Layer_1
 62
2
100
AcDbSpline
 70
8
 71
3
 72
8
 73
4
 74
0
 40
0
 40
0
 40
0
 40
0
 40
1
 40
1
 40
1
 40
1
 10
99.239698
 20
201.848346
 30
0.0
 10
98.691006
 20
201.299648
 30
0.0
 10
98.382713
 20
200.555347
 30
0.0
 10
98.382713
 20
199.779349
 30
0.0
  0
LINE
  5
114
100
AcDbEntity
  8
Layer_1
 62
2
100
AcDbLine
 10
101.308710
 20
202.705346
 30
0.0
 11
105.308703
 21
202.705346
 31
0.0
  0
SPLINE
  5
115
100
AcDbEntity
  8
Layer_1
 62
2
100
AcDbSpline
 70
8
 71
3
 72
8
 73
4
 74
0
 40
0
 40
0
 40
0
 40
0
 40
1
 40
1
 40
1
 40
1
 10
108.234700
 20
199.779349
 30
0.0
 10
108.234700
 20
200.555347
 30
0.0
 10
107.926381
 20
201.299648
 30
0.0
 10
107.377689
 20
201.848346
 30
0.0
  0
SPLINE
  5
116
100
AcDbEntity
  8
Layer_1
 62
2
100
AcDbSpline
 70
8
 71
3
 72
8
 73
4
 74
0
 40
0
 40
0
 40
0
 40
0
 40
1
 40
1
 40
1
 40
1
 10
107.377689
 20
201.848346
 30
0.0
 10
106.828997
 20
202.397046
 30
0.0
 10
106.084698
 20
202.705346
 30
0.0
 10
105.308703
 20
202.705346
 30
0.0
  0
LINE
  5
117
100
AcDbEntity
  8
Layer_1
 62
2
100
AcDbLine
 10
108.234700
 20
199.779349
 30
0.0
 11
108.234700
 21
198.853750
 31
0.0
  0
SPLINE
  5
118
100
AcDbEntity
  8
Layer_1
 62
2
100
AcDbSpline
 70
8
 71
3
 72
8
 73
4
 74
0
 40
0
 40
0
 40
0
 40
0
 40
1
 40
1
 40
1
 40
1
 10
108.234700
 20
198.853750
 30
0.0
 10
108.234700
 20
198.038451
 30
0.0
 10
108.558602
 20
197.256553
 30
0.0
 10
109.135102
 20
196.680153
 30
0.0
  0
SPLINE
  5
119
100
AcDbEntity
  8
Layer_1
 62
2
100
AcDbSpline
 70
8
 71
3
 72
8
 73
4
 74
0
 40
0
 40
0
 40
0
 40
0
 40
1
 40
1
 40
1
 40
1
 10
109.135102
 20
196.680153
 30
0.0
 10
109.711496
 20
196.103653
 30
0.0
 10
110.493392
 20
195.779754
 30
0.0
 10
111.308678
 20
195.779754
 30
0.0
  0
LINE
  5
11a
100
AcDbEntity
  8
Layer_1
 62
2
100
AcDbLine
 10
111.308678
 20
195.779754
 30
0.0
 11
222.670834
 21
195.779754
 31
0.0
  0
LINE
  5
11b
100
AcDbEntity
  8
Layer_1
 62
2
100
AcDbLine
 10
222.670834
 20
195.779754
 30
0.0
 11
229.961313
 21
195.779754
 31
0.0
  0
LINE
  5
11c
100
AcDbEntity
  8
Layer_1
 62
2
100
AcDbLine
 10
98.382713
 20
89.201020
 30
0.0
 11
98.382713
 21
88.275421
 31
0.0
  0
SPLINE
  5
11d
100
AcDbEntity
  8
Layer_1
 62
2
100
AcDbSpline
 70
8
 71
3
 72
8
 73
4
 74
0
 40
0
 40
0
 40
0
 40
0
 40
1
 40
1
 40
1
 40
1
 10
101.308710
 20
85.349424
 30
0.0
 10
100.532688
 20
85.349424
 30
0.0
 10
99.788390
 20
85.657724
 30
0.0
 10
99.239698
 20
86.206424
 30
0.0
  0
SPLINE
  5
11e
100
AcDbEntity
  8
Layer_1
 62
2
100
AcDbSpline
 70
8
 71
3
 72
8
 73
4
 74
0
 40
0
 40
0
 40
0
 40
0
 40
1
 40
1
 40
1
 40
1
 10
99.239698
 20
86.206424
 30
0.0
 10
98.691006
 20
86.755122
 30
0.0
 10
98.382713
 20
87.499423
 30
0.0
 10
98.382713
 20
88.275421
 30
0.0
  0
LINE
  5
11f
100
AcDbEntity
  8
Layer_1
 62
2
100
AcDbLine
 10
101.308710
 20
85.349424
 30
0.0
 11
105.308703
 21
85.349424
 31
0.0
  0
SPLINE
  5
120
100
AcDbEntity
  8
Layer_1
 62
2
100
AcDbSpline
 70
8
 71
3
 72
8
 73
4
 74
0
 40
0
 40
0
 40
0
 40
0
 40
1
 40
1
 40
1
 40
1
 10
108.234700
 20
88.275421
 30
0.0
 10
108.234700
 20
87.499423
 30
0.0
 10
107.926381
 20
86.755122
 30
0.0
 10
107.377689
 20
86.206424
 30
0.0
  0
SPLINE
  5
121
100
AcDbEntity
  8
Layer_1
 62
2
100
AcDbSpline
 70
8
 71
3
 72
8
 73
4
 74
0
 40
0
 40
0
 40
0
 40
0
 40
1
 40
1
 40
1
 40
1
 10
107.377689
 20
86.206424
 30
0.0
 10
106.828997
 20
85.657724
 30
0.0
 10
106.084698
 20
85.349424
 30
0.0
 10
105.308703
 20
85.349424
 30
0.0
  0
LINE
  5
122
100
AcDbEntity
  8
Layer_1
 62
2
100
AcDbLine
 10
108.234700
 20
88.275421
 30
0.0
 11
108.234700
 21
89.201020
 31
0.0
  0
SPLINE
  5
123
100
AcDbEntity
  8
Layer_1
 62
2
100
AcDbSpline
 70
8
 71
3
 72
8
 73
4
 74
0
 40
0
 40
0
 40
0
 40
0
 40
1
 40
1
 40
1
 40
1
 10
108.234700
 20
89.201020
 30
0.0
 10
108.234700
 20
90.016319
 30
0.0
 10
108.558602
 20
90.798217
 30
0.0
 10
109.135102
 20
91.374616
 30
0.0
  0
SPLINE
  5
124
100
AcDbEntity
  8
Layer_1
 62
2
100
AcDbSpline
 70
8
 71
3
 72
8
 73
4
 74
0
 40
0
 40
0
 40
0
 40
0
 40
1
 40
1
 40
1
 40
1
 10
109.135102
 20
91.374616
 30
0.0
 10
109.711496
 20
91.951116
 30
0.0
 10
110.493392
 20
92.275016
 30
0.0
 10
111.308678
 20
92.275016
 30
0.0
  0
LINE
  5
125
100
AcDbEntity
  8
Layer_1
 62
2
100
AcDbLine
 10
111.308678
 20
92.275016
 30
0.0
 11
222.670834
 21
92.290891
 31
0.0
  0
LINE
  5
126
100
AcDbEntity
  8
Layer_1
 62
2
100
AcDbLine
 10
222.670834
 20
92.290891
 30
0.0
 11
229.961313
 21
92.290891
 31
0.0
  0
LINE
  5
127
100
AcDbEntity
  8
Layer_1
 62
2
100
AcDbLine
 10
-23.193043
 20
195.779754
 30
0.0
 11
-21.248755
 21
195.779754
 31
0.0
  0
LINE
  5
128
100
AcDbEntity
  8
Layer_1
 62
2
100
AcDbLine
 10
-21.248755
 20
195.779754
 30
0.0
 11
-20.039981
 21
195.776949
 31
0.0
  0
SPLINE
  5
129
100
AcDbEntity
  8
Layer_1
 62
2
100
AcDbSpline
 70
8
 71
3
 72
8
 73
4
 74
0
 40
0
 40
0
 40
0
 40
0
 40
1
 40
1
 40
1
 40
1
 10
-20.039981
 20
195.776949
 30
0.0
 10
-19.263985
 20
195.776949
 30
0.0
 10
-18.519687
 20
196.085268
 30
0.0
 10
-17.970995
 20
196.633960
 30
0.0
  0
SPLINE
  5
12a
100
AcDbEntity
  8
Layer_1
 62
2
100
AcDbSpline
 70
8
 71
3
 72
8
 73
4
 74
0
 40
0
 40
0
 40
0
 40
0
 40
1
 40
1
 40
1
 40
1
 10
-17.970995
 20
196.633960
 30
0.0
 10
-17.422302
 20
197.182652
 30
0.0
 10
-17.113984
 20
197.926950
 30
0.0
 10
-17.113984
 20
198.702946
 30
0.0
  0
LINE
  5
12b
100
AcDbEntity
  8
Layer_1
 62
2
100
AcDbLine
 10
-17.113984
 20
198.702946
 30
0.0
 11
-17.113984
 21
204.904110
 31
0.0
  0
LINE
  5
12c
100
AcDbEntity
  8
Layer_1
 62
2
100
AcDbLine
 10
-17.113984
 20
204.904110
 30
0.0
 11
-17.113984
 21
207.404104
 31
0.0
  0
LINE
  5
12d
100
AcDbEntity
  8
Layer_1
 62
2
100
AcDbLine
 10
-17.113984
 20
207.404104
 30
0.0
 11
-17.113984
 21
211.389386
 31
0.0
  0
SPLINE
  5
12e
100
AcDbEntity
  8
Layer_1
 62
2
100
AcDbSpline
 70
8
 71
3
 72
8
 73
4
 74
0
 40
0
 40
0
 40
0
 40
0
 40
1
 40
1
 40
1
 40
1
 10
-17.113984
 20
211.389386
 30
0.0
 10
-17.113984
 20
212.165408
 30
0.0
 10
-17.422302
 20
212.909706
 30
0.0
 10
-17.970995
 20
213.458399
 30
0.0
  0
SPLINE
  5
12f
100
AcDbEntity
  8
Layer_1
 62
2
100
AcDbSpline
 70
8
 71
3
 72
8
 73
4
 74
0
 40
0
 40
0
 40
0
 40
0
 40
1
 40
1
 40
1
 40
1
 10
-17.970995
 20
213.458399
 30
0.0
 10
-18.519687
 20
214.007091
 30
0.0
 10
-19.263985
 20
214.315383
 30
0.0
 10
-20.039981
 20
214.315383
 30
0.0
  0
LINE
  5
130
100
AcDbEntity
  8
Layer_1
 62
2
100
AcDbLine
 10
-20.039981
 20
214.315383
 30
0.0
 11
-21.513364
 21
214.318029
 31
0.0
  0
LINE
  5
131
100
AcDbEntity
  8
Layer_1
 62
2
100
AcDbLine
 10
-21.513364
 20
214.318029
 30
0.0
 11
-65.447636
 21
214.318031
 31
0.0
  0
SPLINE
  5
132
100
AcDbEntity
  8
Layer_1
 62
2
100
AcDbSpline
 70
8
 71
3
 72
8
 73
4
 74
0
 40
0
 40
0
 40
0
 40
0
 40
1
 40
1
 40
1
 40
1
 10
-65.447636
 20
214.318031
 30
0.0
 10
-66.755588
 20
214.318030
 30
0.0
 10
-68.023408
 20
213.866324
 30
0.0
 10
-69.036704
 20
213.039299
 30
0.0
  0
LINE
  5
133
100
AcDbEntity
  8
Layer_1
 62
2
100
AcDbLine
 10
-69.036704
 20
213.039299
 30
0.0
 11
-72.658634
 21
210.083185
 31
0.0
  0
SPLINE
  5
134
100
AcDbEntity
  8
Layer_1
 62
2
100
AcDbSpline
 70
8
 71
3
 72
8
 73
4
 74
0
 40
0
 40
0
 40
0
 40
0
 40
1
 40
1
 40
1
 40
1
 10
-72.658634
 20
210.083185
 30
0.0
 10
-73.515724
 20
209.383646
 30
0.0
 10
-74.210704
 20
207.919703
 30
0.0
 10
-74.210889
 20
206.813375
 30
0.0
  0
SPLINE
  5
135
100
AcDbEntity
  8
Layer_1
 62
2
100
AcDbSpline
 70
8
 71
3
 72
8
 73
4
 74
0
 40
0
 40
0
 40
0
 40
0
 40
1
 40
1
 40
1
 40
1
 10
-74.210889
 20
206.813375
 30
0.0
 10
-74.232850
 20
78.647325
 30
0.0
 10
-74.161068
 20
161.163371
 30
0.0
 10
-74.191310
 20
83.366440
 30
0.0
  0
SPLINE
  5
136
100
AcDbEntity
  8
Layer_1
 62
2
100
AcDbSpline
 70
8
 71
3
 72
8
 73
4
 74
0
 40
0
 40
0
 40
0
 40
0
 40
1
 40
1
 40
1
 40
1
 10
-74.191310
 20
83.366440
 30
0.0
 10
-74.191310
 20
82.270498
 30
0.0
 10
-73.473761
 20
80.859252
 30
0.0
 10
-72.587646
 20
80.214331
 30
0.0
  0
LINE
  5
137
100
AcDbEntity
  8
Layer_1
 62
2
100
AcDbLine
 10
-72.587646
 20
80.214331
 30
0.0
 11
-60.009159
 21
71.059465
 31
0.0
  0
SPLINE
  5
138
100
AcDbEntity
  8
Layer_1
 62
2
100
AcDbSpline
 70
8
 71
3
 72
8
 73
4
 74
0
 40
0
 40
0
 40
0
 40
0
 40
1
 40
1
 40
1
 40
1
 10
-60.009159
 20
71.059465
 30
0.0
 10
-58.976556
 20
70.307918
 30
0.0
 10
-57.727434
 20
69.912804
 30
0.0
 10
-56.450464
 20
69.933805
 30
0.0
  0
LINE
  5
139
100
AcDbEntity
  8
Layer_1
 62
2
100
AcDbLine
 10
-56.450464
 20
69.933805
 30
0.0
 11
-55.244019
 21
69.953649
 31
0.0
  0
LINE
  5
13a
100
AcDbEntity
  8
Layer_1
 62
2
100
AcDbLine
 10
-55.244019
 20
69.953649
 30
0.0
 11
260.006364
 21
69.953630
 31
0.0
  0
SPLINE
  5
13b
100
AcDbEntity
  8
Layer_1
 62
2
100
AcDbSpline
 70
8
 71
3
 72
8
 73
4
 74
0
 40
0
 40
0
 40
0
 40
0
 40
1
 40
1
 40
1
 40
1
 10
260.006364
 20
69.953630
 30
0.0
 10
261.335681
 20
69.953630
 30
0.0
 10
262.664976
 20
69.942700
 30
0.0
 10
263.994114
 20
69.920840
 30
0.0
  0
SPLINE
  5
13c
100
AcDbEntity
  8
Layer_1
 62
2
100
AcDbSpline
 70
8
 71
3
 72
8
 73
4
 74
0
 40
0
 40
0
 40
0
 40
0
 40
1
 40
1
 40
1
 40
1
 10
263.994114
 20
69.920840
 30
0.0
 10
265.025539
 20
69.992193
 30
0.0
 10
266.005734
 20
70.397248
 30
0.0
 10
266.786644
 20
71.074824
 30
0.0
  0
LINE
  5
13d
100
AcDbEntity
  8
Layer_1
 62
2
100
AcDbLine
 10
266.786644
 20
71.074824
 30
0.0
 11
279.336221
 21
80.208648
 31
0.0
  0
SPLINE
  5
13e
100
AcDbEntity
  8
Layer_1
 62
2
100
AcDbSpline
 70
8
 71
3
 72
8
 73
4
 74
0
 40
0
 40
0
 40
0
 40
0
 40
1
 40
1
 40
1
 40
1
 10
279.336221
 20
80.208648
 30
0.0
 10
280.226617
 20
80.856696
 30
0.0
 10
280.948074
 20
82.274792
 30
0.0
 10
280.947648
 20
83.376053
 30
0.0
  0
SPLINE
  5
13f
100
AcDbEntity
  8
Layer_1
 62
2
100
AcDbSpline
 70
8
 71
3
 72
8
 73
4
 74
0
 40
0
 40
0
 40
0
 40
0
 40
1
 40
1
 40
1
 40
1
 10
280.947648
 20
83.376053
 30
0.0
 10
280.917504
 20
161.158389
 30
0.0
 10
280.989195
 20
78.648648
 30
0.0
 10
280.967280
 20
206.822538
 30
0.0
  0
SPLINE
  5
140
100
AcDbEntity
  8
Layer_1
 62
2
100
AcDbSpline
 70
8
 71
3
 72
8
 73
4
 74
0
 40
0
 40
0
 40
0
 40
0
 40
1
 40
1
 40
1
 40
1
 10
280.967280
 20
206.822538
 30
0.0
 10
280.967089
 20
207.923796
 30
0.0
 10
280.275303
 20
209.381032
 30
0.0
 10
279.422136
 20
210.077364
 30
0.0
  0
LINE
  5
141
100
AcDbEntity
  8
Layer_1
 62
2
100
AcDbLine
 10
279.422136
 20
210.077364
 30
0.0
 11
275.771169
 21
213.057190
 31
0.0
  0
SPLINE
  5
142
100
AcDbEntity
  8
Layer_1
 62
2
100
AcDbSpline
 70
8
 71
3
 72
8
 73
4
 74
0
 40
0
 40
0
 40
0
 40
0
 40
1
 40
1
 40
1
 40
1
 10
275.771169
 20
213.057190
 30
0.0
 10
274.772063
 20
213.872634
 30
0.0
 10
273.521998
 20
214.318013
 30
0.0
 10
272.232363
 20
214.318013
 30
0.0
  0
LINE
  5
143
100
AcDbEntity
  8
Layer_1
 62
2
100
AcDbLine
 10
272.232363
 20
214.318013
 30
0.0
 11
5.738748
 21
214.318029
 31
0.0
  0
LINE
  5
144
100
AcDbEntity
  8
Layer_1
 62
2
100
AcDbLine
 10
5.738748
 20
214.318029
 30
0.0
 11
2.809365
 21
214.314430
 31
0.0
  0
SPLINE
  5
145
100
AcDbEntity
  8
Layer_1
 62
2
100
AcDbSpline
 70
8
 71
3
 72
8
 73
4
 74
0
 40
0
 40
0
 40
0
 40
0
 40
1
 40
1
 40
1
 40
1
 10
2.809365
 20
214.314430
 30
0.0
 10
2.033369
 20
214.314430
 30
0.0
 10
1.289071
 20
214.006138
 30
0.0
 10
0.740379
 20
213.457446
 30
0.0
  0
SPLINE
  5
146
100
AcDbEntity
  8
Layer_1
 62
2
100
AcDbSpline
 70
8
 71
3
 72
8
 73
4
 74
0
 40
0
 40
0
 40
0
 40
0
 40
1
 40
1
 40
1
 40
1
 10
0.740379
 20
213.457446
 30
0.0
 10
0.191687
 20
212.908754
 30
0.0
 10
-0.116632
 20
212.164455
 30
0.0
 10
-0.116632
 20
211.388433
 30
0.0
  0
LINE
  5
147
100
AcDbEntity
  8
Layer_1
 62
2
100
AcDbLine
 10
-0.116632
 20
211.388433
 30
0.0
 11
-0.116632
 21
207.404186
 31
0.0
  0
LINE
  5
148
100
AcDbEntity
  8
Layer_1
 62
2
100
AcDbLine
 10
-0.116632
 20
207.404186
 30
0.0
 11
-0.116632
 21
204.904192
 31
0.0
  0
LINE
  5
149
100
AcDbEntity
  8
Layer_1
 62
2
100
AcDbLine
 10
-0.116632
 20
204.904192
 30
0.0
 11
-0.116632
 21
198.705094
 31
0.0
  0
SPLINE
  5
14a
100
AcDbEntity
  8
Layer_1
 62
2
100
AcDbSpline
 70
8
 71
3
 72
8
 73
4
 74
0
 40
0
 40
0
 40
0
 40
0
 40
1
 40
1
 40
1
 40
1
 10
-0.116632
 20
198.705094
 30
0.0
 10
-0.116632
 20
197.929099
 30
0.0
 10
0.191687
 20
197.184800
 30
0.0
 10
0.740379
 20
196.636108
 30
0.0
  0
SPLINE
  5
14b
100
AcDbEntity
  8
Layer_1
 62
2
100
AcDbSpline
 70
8
 71
3
 72
8
 73
4
 74
0
 40
0
 40
0
 40
0
 40
0
 40
1
 40
1
 40
1
 40
1
 10
0.740379
 20
196.636108
 30
0.0
 10
1.289071
 20
196.087416
 30
0.0
 10
2.033369
 20
195.779097
 30
0.0
 10
2.809365
 20
195.779097
 30
0.0
  0
LINE
  5
14c
100
AcDbEntity
  8
Layer_1
 62
2
100
AcDbLine
 10
2.809365
 20
195.779097
 30
0.0
 11
4.581198
 21
195.779891
 31
0.0
  0
LINE
  5
14d
100
AcDbEntity
  8
Layer_1
 62
2
100
AcDbLine
 10
4.581198
 20
195.779891
 30
0.0
 11
95.308746
 21
195.779891
 31
0.0
  0
SPLINE
  5
14e
100
AcDbEntity
  8
Layer_1
 62
2
100
AcDbSpline
 70
8
 71
3
 72
8
 73
4
 74
0
 40
0
 40
0
 40
0
 40
0
 40
1
 40
1
 40
1
 40
1
 10
95.308746
 20
195.779891
 30
0.0
 10
96.124032
 20
195.779891
 30
0.0
 10
96.905954
 20
196.103791
 30
0.0
 10
97.482348
 20
196.680291
 30
0.0
  0
SPLINE
  5
14f
100
AcDbEntity
  8
Layer_1
 62
2
100
AcDbSpline
 70
8
 71
3
 72
8
 73
4
 74
0
 40
0
 40
0
 40
0
 40
0
 40
1
 40
1
 40
1
 40
1
 10
97.482348
 20
196.680291
 30
0.0
 10
98.058848
 20
197.256690
 30
0.0
 10
98.382751
 20
198.038589
 30
0.0
 10
98.382751
 20
198.853888
 30
0.0
  0
SPLINE
  5
150
100
AcDbEntity
  8
Layer_1
 62
2
100
AcDbSpline
 70
8
 71
3
 72
8
 73
4
 74
0
 40
0
 40
0
 40
0
 40
0
 40
1
 40
1
 40
1
 40
1
 10
-50.716792
 20
92.975489
 30
0.0
 10
-50.750712
 20
93.077290
 30
0.0
 10
-50.767989
 20
93.183988
 30
0.0
 10
-50.767989
 20
93.291290
 30
0.0
  0
SPLINE
  5
151
100
AcDbEntity
  8
Layer_1
 62
2
100
AcDbSpline
 70
8
 71
3
 72
8
 73
4
 74
0
 40
0
 40
0
 40
0
 40
0
 40
1
 40
1
 40
1
 40
1
 10
-49.822793
 20
92.290891
 30
0.0
 10
-50.241310
 20
92.290891
 30
0.0
 10
-50.607704
 20
92.571489
 30
0.0
 10
-50.716792
 20
92.975489
 30
0.0
  0
LINE
  5
152
100
AcDbEntity
  8
Layer_1
 62
2
100
AcDbLine
 10
-49.822793
 20
92.290891
 30
0.0
 11
-39.193012
 21
92.290891
 31
0.0
  0
SPLINE
  5
153
100
AcDbEntity
  8
Layer_1
 62
2
100
AcDbSpline
 70
8
 71
3
 72
8
 73
4
 74
0
 40
0
 40
0
 40
0
 40
0
 40
1
 40
1
 40
1
 40
1
 10
-39.193012
 20
92.290891
 30
0.0
 10
-38.377726
 20
92.290891
 30
0.0
 10
-37.595804
 20
91.966991
 30
0.0
 10
-37.019409
 20
91.390491
 30
0.0
  0
SPLINE
  5
154
100
AcDbEntity
  8
Layer_1
 62
2
100
AcDbSpline
 70
8
 71
3
 72
8
 73
4
 74
0
 40
0
 40
0
 40
0
 40
0
 40
1
 40
1
 40
1
 40
1
 10
-37.019409
 20
91.390491
 30
0.0
 10
-36.442910
 20
90.814092
 30
0.0
 10
-36.119007
 20
90.032194
 30
0.0
 10
-36.119007
 20
89.216894
 30
0.0
  0
LINE
  5
155
100
AcDbEntity
  8
Layer_1
 62
2
100
AcDbLine
 10
-36.119007
 20
89.216894
 30
0.0
 11
-36.119007
 21
88.291296
 31
0.0
  0
SPLINE
  5
156
100
AcDbEntity
  8
Layer_1
 62
2
100
AcDbSpline
 70
8
 71
3
 72
8
 73
4
 74
0
 40
0
 40
0
 40
0
 40
0
 40
1
 40
1
 40
1
 40
1
 10
-33.193010
 20
85.365299
 30
0.0
 10
-33.969032
 20
85.365299
 30
0.0
 10
-34.713331
 20
85.673599
 30
0.0
 10
-35.262023
 20
86.222299
 30
0.0
  0
SPLINE
  5
157
100
AcDbEntity
  8
Layer_1
 62
2
100
AcDbSpline
 70
8
 71
3
 72
8
 73
4
 74
0
 40
0
 40
0
 40
0
 40
0
 40
1
 40
1
 40
1
 40
1
 10
-35.262023
 20
86.222299
 30
0.0
 10
-35.810715
 20
86.770997
 30
0.0
 10
-36.119007
 20
87.515298
 30
0.0
 10
-36.119007
 20
88.291296
 30
0.0
  0
LINE
  5
158
100
AcDbEntity
  8
Layer_1
 62
2
100
AcDbLine
 10
-33.193010
 20
85.365299
 30
0.0
 11
-29.193018
 21
85.365299
 31
0.0
  0
SPLINE
  5
159
100
AcDbEntity
  8
Layer_1
 62
2
100
AcDbSpline
 70
8
 71
3
 72
8
 73
4
 74
0
 40
0
 40
0
 40
0
 40
0
 40
1
 40
1
 40
1
 40
1
 10
-26.267021
 20
88.291296
 30
0.0
 10
-26.267021
 20
87.515298
 30
0.0
 10
-26.575340
 20
86.770997
 30
0.0
 10
-27.124032
 20
86.222299
 30
0.0
  0
SPLINE
  5
15a
100
AcDbEntity
  8
Layer_1
 62
2
100
AcDbSpline
 70
8
 71
3
 72
8
 73
4
 74
0
 40
0
 40
0
 40
0
 40
0
 40
1
 40
1
 40
1
 40
1
 10
-27.124032
 20
86.222299
 30
0.0
 10
-27.672724
 20
85.673599
 30
0.0
 10
-28.417022
 20
85.365299
 30
0.0
 10
-29.193018
 20
85.365299
 30
0.0
  0
LINE
  5
15b
100
AcDbEntity
  8
Layer_1
 62
2
100
AcDbLine
 10
-26.267021
 20
88.291296
 30
0.0
 11
-26.267021
 21
89.216894
 31
0.0
  0
SPLINE
  5
15c
100
AcDbEntity
  8
Layer_1
 62
2
100
AcDbSpline
 70
8
 71
3
 72
8
 73
4
 74
0
 40
0
 40
0
 40
0
 40
0
 40
1
 40
1
 40
1
 40
1
 10
-26.267021
 20
89.216894
 30
0.0
 10
-26.267021
 20
90.032194
 30
0.0
 10
-25.943118
 20
90.814092
 30
0.0
 10
-25.366619
 20
91.390491
 30
0.0
  0
SPLINE
  5
15d
100
AcDbEntity
  8
Layer_1
 62
2
100
AcDbSpline
 70
8
 71
3
 72
8
 73
4
 74
0
 40
0
 40
0
 40
0
 40
0
 40
1
 40
1
 40
1
 40
1
 10
-25.366619
 20
91.390491
 30
0.0
 10
-24.790224
 20
91.966991
 30
0.0
 10
-24.008329
 20
92.290891
 30
0.0
 10
-23.193043
 20
92.290891
 30
0.0
  0
LINE
  5
15e
100
AcDbEntity
  8
Layer_1
 62
2
100
AcDbLine
 10
-23.193043
 20
92.290891
 30
0.0
 11
-15.902564
 21
92.290891
 31
0.0
  0
LINE
  5
15f
100
AcDbEntity
  8
Layer_1
 62
2
100
AcDbLine
 10
-15.902564
 20
92.290891
 30
0.0
 11
95.308709
 21
92.275016
 31
0.0
  0
SPLINE
  5
160
100
AcDbEntity
  8
Layer_1
 62
2
100
AcDbSpline
 70
8
 71
3
 72
8
 73
4
 74
0
 40
0
 40
0
 40
0
 40
0
 40
1
 40
1
 40
1
 40
1
 10
95.308709
 20
92.275016
 30
0.0
 10
96.123995
 20
92.275016
 30
0.0
 10
96.905917
 20
91.951116
 30
0.0
 10
97.482311
 20
91.374616
 30
0.0
  0
SPLINE
  5
161
100
AcDbEntity
  8
Layer_1
 62
2
100
AcDbSpline
 70
8
 71
3
 72
8
 73
4
 74
0
 40
0
 40
0
 40
0
 40
0
 40
1
 40
1
 40
1
 40
1
 10
97.482311
 20
91.374616
 30
0.0
 10
98.058811
 20
90.798217
 30
0.0
 10
98.382713
 20
90.016319
 30
0.0
 10
98.382713
 20
89.201020
 30
0.0
  0
LINE
  5
162
100
AcDbEntity
  8
Layer_1
 62
2
100
AcDbLine
 10
257.536259
 20
194.779355
 30
0.0
 11
257.536259
 21
159.008210
 31
0.0
  0
LINE
  5
163
100
AcDbEntity
  8
Layer_1
 62
2
100
AcDbLine
 10
257.536259
 20
159.008210
 30
0.0
 11
257.536259
 21
129.062433
 31
0.0
  0
LINE
  5
164
100
AcDbEntity
  8
Layer_1
 62
2
100
AcDbLine
 10
257.536259
 20
129.062433
 30
0.0
 11
257.536259
 21
93.291290
 31
0.0
  0
SPLINE
  5
165
100
AcDbEntity
  8
Layer_1
 62
2
100
AcDbSpline
 70
8
 71
3
 72
8
 73
4
 74
0
 40
0
 40
0
 40
0
 40
0
 40
1
 40
1
 40
1
 40
1
 10
257.485062
 20
195.095156
 30
0.0
 10
257.518982
 20
194.993355
 30
0.0
 10
257.536259
 20
194.886656
 30
0.0
 10
257.536259
 20
194.779355
 30
0.0
  0
SPLINE
  5
166
100
AcDbEntity
  8
Layer_1
 62
2
100
AcDbSpline
 70
8
 71
3
 72
8
 73
4
 74
0
 40
0
 40
0
 40
0
 40
0
 40
1
 40
1
 40
1
 40
1
 10
256.591063
 20
195.779754
 30
0.0
 10
257.009580
 20
195.779754
 30
0.0
 10
257.375975
 20
195.499155
 30
0.0
 10
257.485062
 20
195.095156
 30
0.0
  0
LINE
  5
167
100
AcDbEntity
  8
Layer_1
 62
2
100
AcDbLine
 10
256.591063
 20
195.779754
 30
0.0
 11
245.961282
 21
195.779754
 31
0.0
  0
SPLINE
  5
168
100
AcDbEntity
  8
Layer_1
 62
2
100
AcDbSpline
 70
8
 71
3
 72
8
 73
4
 74
0
 40
0
 40
0
 40
0
 40
0
 40
1
 40
1
 40
1
 40
1
 10
245.961282
 20
195.779754
 30
0.0
 10
245.145996
 20
195.779754
 30
0.0
 10
244.364074
 20
196.103653
 30
0.0
 10
243.787680
 20
196.680153
 30
0.0
  0
SPLINE
  5
169
100
AcDbEntity
  8
Layer_1
 62
2
100
AcDbSpline
 70
8
 71
3
 72
8
 73
4
 74
0
 40
0
 40
0
 40
0
 40
0
 40
1
 40
1
 40
1
 40
1
 10
243.787680
 20
196.680153
 30
0.0
 10
243.211180
 20
197.256553
 30
0.0
 10
242.887277
 20
198.038451
 30
0.0
 10
242.887277
 20
198.853750
 30
0.0
  0
LINE
  5
16a
100
AcDbEntity
  8
Layer_1
 62
2
100
AcDbLine
 10
242.887277
 20
198.853750
 30
0.0
 11
242.887277
 21
199.779349
 31
0.0
  0
SPLINE
  5
16b
100
AcDbEntity
  8
Layer_1
 62
2
100
AcDbSpline
 70
8
 71
3
 72
8
 73
4
 74
0
 40
0
 40
0
 40
0
 40
0
 40
1
 40
1
 40
1
 40
1
 10
239.961280
 20
202.705346
 30
0.0
 10
240.737302
 20
202.705346
 30
0.0
 10
241.481601
 20
202.397046
 30
0.0
 10
242.030293
 20
201.848346
 30
0.0
  0
SPLINE
  5
16c
100
AcDbEntity
  8
Layer_1
 62
2
100
AcDbSpline
 70
8
 71
3
 72
8
 73
4
 74
0
 40
0
 40
0
 40
0
 40
0
 40
1
 40
1
 40
1
 40
1
 10
242.030293
 20
201.848346
 30
0.0
 10
242.578985
 20
201.299648
 30
0.0
 10
242.887277
 20
200.555347
 30
0.0
 10
242.887277
 20
199.779349
 30
0.0
  0
LINE
  5
16d
100
AcDbEntity
  8
Layer_1
 62
2
100
AcDbLine
 10
239.961280
 20
202.705346
 30
0.0
 11
235.961288
 21
202.705346
 31
0.0
  0
SPLINE
  5
16e
100
AcDbEntity
  8
Layer_1
 62
2
100
AcDbSpline
 70
8
 71
3
 72
8
 73
4
 74
0
 40
0
 40
0
 40
0
 40
0
 40
1
 40
1
 40
1
 40
1
 10
233.035291
 20
199.779349
 30
0.0
 10
233.035291
 20
200.555347
 30
0.0
 10
233.343610
 20
201.299648
 30
0.0
 10
233.892302
 20
201.848346
 30
0.0
  0
SPLINE
  5
16f
100
AcDbEntity
  8
Layer_1
 62
2
100
AcDbSpline
 70
8
 71
3
 72
8
 73
4
 74
0
 40
0
 40
0
 40
0
 40
0
 40
1
 40
1
 40
1
 40
1
 10
233.892302
 20
201.848346
 30
0.0
 10
234.440994
 20
202.397046
 30
0.0
 10
235.185293
 20
202.705346
 30
0.0
 10
235.961288
 20
202.705346
 30
0.0
  0
LINE
  5
170
100
AcDbEntity
  8
Layer_1
 62
2
100
AcDbLine
 10
233.035291
 20
199.779349
 30
0.0
 11
233.035291
 21
198.853750
 31
0.0
  0
SPLINE
  5
171
100
AcDbEntity
  8
Layer_1
 62
2
100
AcDbSpline
 70
8
 71
3
 72
8
 73
4
 74
0
 40
0
 40
0
 40
0
 40
0
 40
1
 40
1
 40
1
 40
1
 10
233.035291
 20
198.853750
 30
0.0
 10
233.035291
 20
198.038451
 30
0.0
 10
232.711389
 20
197.256553
 30
0.0
 10
232.134889
 20
196.680153
 30
0.0
  0
SPLINE
  5
172
100
AcDbEntity
  8
Layer_1
 62
2
100
AcDbSpline
 70
8
 71
3
 72
8
 73
4
 74
0
 40
0
 40
0
 40
0
 40
0
 40
1
 40
1
 40
1
 40
1
 10
232.134889
 20
196.680153
 30
0.0
 10
231.558495
 20
196.103653
 30
0.0
 10
230.776599
 20
195.779754
 30
0.0
 10
229.961313
 20
195.779754
 30
0.0
  0
SPLINE
  5
173
100
AcDbEntity
  8
Layer_1
 62
2
100
AcDbSpline
 70
8
 71
3
 72
8
 73
4
 74
0
 40
0
 40
0
 40
0
 40
0
 40
1
 40
1
 40
1
 40
1
 10
257.485062
 20
92.975489
 30
0.0
 10
257.518982
 20
93.077290
 30
0.0
 10
257.536259
 20
93.183988
 30
0.0
 10
257.536259
 20
93.291290
 30
0.0
  0
SPLINE
  5
174
100
AcDbEntity
  8
Layer_1
 62
2
100
AcDbSpline
 70
8
 71
3
 72
8
 73
4
 74
0
 40
0
 40
0
 40
0
 40
0
 40
1
 40
1
 40
1
 40
1
 10
256.591063
 20
92.290891
 30
0.0
 10
257.009580
 20
92.290891
 30
0.0
 10
257.375975
 20
92.571489
 30
0.0
 10
257.485062
 20
92.975489
 30
0.0
  0
LINE
  5
175
100
AcDbEntity
  8
Layer_1
 62
2
100
AcDbLine
 10
256.591063
 20
92.290891
 30
0.0
 11
245.961282
 21
92.290891
 31
0.0
  0
SPLINE
  5
176
100
AcDbEntity
  8
Layer_1
 62
2
100
AcDbSpline
 70
8
 71
3
 72
8
 73
4
 74
0
 40
0
 40
0
 40
0
 40
0
 40
1
 40
1
 40
1
 40
1
 10
245.961282
 20
92.290891
 30
0.0
 10
245.145996
 20
92.290891
 30
0.0
 10
244.364074
 20
91.966991
 30
0.0
 10
243.787680
 20
91.390491
 30
0.0
  0
SPLINE
  5
177
100
AcDbEntity
  8
Layer_1
 62
2
100
AcDbSpline
 70
8
 71
3
 72
8
 73
4
 74
0
 40
0
 40
0
 40
0
 40
0
 40
1
 40
1
 40
1
 40
1
 10
243.787680
 20
91.390491
 30
0.0
 10
243.211180
 20
90.814092
 30
0.0
 10
242.887277
 20
90.032194
 30
0.0
 10
242.887277
 20
89.216894
 30
0.0
  0
LINE
  5
178
100
AcDbEntity
  8
Layer_1
 62
2
100
AcDbLine
 10
242.887277
 20
89.216894
 30
0.0
 11
242.887277
 21
88.291296
 31
0.0
  0
SPLINE
  5
179
100
AcDbEntity
  8
Layer_1
 62
2
100
AcDbSpline
 70
8
 71
3
 72
8
 73
4
 74
0
 40
0
 40
0
 40
0
 40
0
 40
1
 40
1
 40
1
 40
1
 10
239.961280
 20
85.365299
 30
0.0
 10
240.737302
 20
85.365299
 30
0.0
 10
241.481601
 20
85.673599
 30
0.0
 10
242.030293
 20
86.222299
 30
0.0
  0
SPLINE
  5
17a
100
AcDbEntity
  8
Layer_1
 62
2
100
AcDbSpline
 70
8
 71
3
 72
8
 73
4
 74
0
 40
0
 40
0
 40
0
 40
0
 40
1
 40
1
 40
1
 40
1
 10
242.030293
 20
86.222299
 30
0.0
 10
242.578985
 20
86.770997
 30
0.0
 10
242.887277
 20
87.515298
 30
0.0
 10
242.887277
 20
88.291296
 30
0.0
  0
LINE
  5
17b
100
AcDbEntity
  8
Layer_1
 62
2
100
AcDbLine
 10
239.961280
 20
85.365299
 30
0.0
 11
235.961288
 21
85.365299
 31
0.0
  0
SPLINE
  5
17c
100
AcDbEntity
  8
Layer_1
 62
2
100
AcDbSpline
 70
8
 71
3
 72
8
 73
4
 74
0
 40
0
 40
0
 40
0
 40
0
 40
1
 40
1
 40
1
 40
1
 10
233.035291
 20
88.291296
 30
0.0
 10
233.035291
 20
87.515298
 30
0.0
 10
233.343610
 20
86.770997
 30
0.0
 10
233.892302
 20
86.222299
 30
0.0
  0
SPLINE
  5
17d
100
AcDbEntity
  8
Layer_1
 62
2
100
AcDbSpline
 70
8
 71
3
 72
8
 73
4
 74
0
 40
0
 40
0
 40
0
 40
0
 40
1
 40
1
 40
1
 40
1
 10
233.892302
 20
86.222299
 30
0.0
 10
234.440994
 20
85.673599
 30
0.0
 10
235.185293
 20
85.365299
 30
0.0
 10
235.961288
 20
85.365299
 30
0.0
  0
LINE
  5
17e
100
AcDbEntity
  8
Layer_1
 62
2
100
AcDbLine
 10
233.035291
 20
88.291296
 30
0.0
 11
233.035291
 21
89.216894
 31
0.0
  0
SPLINE
  5
17f
100
AcDbEntity
  8
Layer_1
 62
2
100
AcDbSpline
 70
8
 71
3
 72
8
 73
4
 74
0
 40
0
 40
0
 40
0
 40
0
 40
1
 40
1
 40
1
 40
1
 10
233.035291
 20
89.216894
 30
0.0
 10
233.035291
 20
90.032194
 30
0.0
 10
232.711389
 20
90.814092
 30
0.0
 10
232.134889
 20
91.390491
 30
0.0
  0
SPLINE
  5
180
100
AcDbEntity
  8
Layer_1
 62
2
100
AcDbSpline
 70
8
 71
3
 72
8
 73
4
 74
0
 40
0
 40
0
 40
0
 40
0
 40
1
 40
1
 40
1
 40
1
 10
232.134889
 20
91.390491
 30
0.0
 10
231.558495
 20
91.966991
 30
0.0
 10
230.776599
 20
92.290891
 30
0.0
 10
229.961313
 20
92.290891
 30
0.0
  0
SPLINE
  5
181
100
AcDbEntity
  8
Layer_1
 62
2
100
AcDbSpline
 70
8
 71
3
 72
8
 73
4
 74
0
 40
0
 40
0
 40
0
 40
0
 40
1
 40
1
 40
1
 40
1
 10
-56.833469
 20
198.212483
 30
0.0
 10
-56.833469
 20
199.078315
 30
0.0
 10
-57.535302
 20
199.780124
 30
0.0
 10
-58.401097
 20
199.780124
 30
0.0
  0
SPLINE
  5
182
100
AcDbEntity
  8
Layer_1
 62
2
100
AcDbSpline
 70
8
 71
3
 72
8
 73
4
 74
0
 40
0
 40
0
 40
0
 40
0
 40
1
 40
1
 40
1
 40
1
 10
-58.401097
 20
199.780124
 30
0.0
 10
-59.266918
 20
199.780124
 30
0.0
 10
-59.968751
 20
199.078315
 30
0.0
 10
-59.968751
 20
198.212483
 30
0.0
  0
SPLINE
  5
183
100
AcDbEntity
  8
Layer_1
 62
2
100
AcDbSpline
 70
8
 71
3
 72
8
 73
4
 74
0
 40
0
 40
0
 40
0
 40
0
 40
1
 40
1
 40
1
 40
1
 10
-59.968751
 20
198.212483
 30
0.0
 10
-59.968751
 20
197.346651
 30
0.0
 10
-59.266918
 20
196.644842
 30
0.0
 10
-58.401097
 20
196.644842
 30
0.0
  0
SPLINE
  5
184
100
AcDbEntity
  8
Layer_1
 62
2
100
AcDbSpline
 70
8
 71
3
 72
8
 73
4
 74
0
 40
0
 40
0
 40
0
 40
0
 40
1
 40
1
 40
1
 40
1
 10
-58.401097
 20
196.644842
 30
0.0
 10
-57.535302
 20
196.644842
 30
0.0
 10
-56.833469
 20
197.346651
 30
0.0
 10
-56.833469
 20
198.212483
 30
0.0
  0
LINE
  5
185
100
AcDbEntity
  8
Layer_1
 62
2
100
AcDbLine
 10
-56.833469
 20
198.212483
 30
0.0
 11
-56.833469
 21
198.212483
 31
0.0
  0
SPLINE
  5
186
100
AcDbEntity
  8
Layer_1
 62
2
100
AcDbSpline
 70
8
 71
3
 72
8
 73
4
 74
0
 40
0
 40
0
 40
0
 40
0
 40
1
 40
1
 40
1
 40
1
 10
31.140537
 20
201.688059
 30
0.0
 10
31.140537
 20
202.553891
 30
0.0
 10
30.438704
 20
203.255700
 30
0.0
 10
29.572910
 20
203.255700
 30
0.0
  0
SPLINE
  5
187
100
AcDbEntity
  8
Layer_1
 62
2
100
AcDbSpline
 70
8
 71
3
 72
8
 73
4
 74
0
 40
0
 40
0
 40
0
 40
0
 40
1
 40
1
 40
1
 40
1
 10
29.572910
 20
203.255700
 30
0.0
 10
28.707088
 20
203.255700
 30
0.0
 10
28.005255
 20
202.553891
 30
0.0
 10
28.005255
 20
201.688059
 30
0.0
  0
SPLINE
  5
188
100
AcDbEntity
  8
Layer_1
 62
2
100
AcDbSpline
 70
8
 71
3
 72
8
 73
4
 74
0
 40
0
 40
0
 40
0
 40
0
 40
1
 40
1
 40
1
 40
1
 10
28.005255
 20
201.688059
 30
0.0
 10
28.005255
 20
200.822227
 30
0.0
 10
28.707088
 20
200.120418
 30
0.0
 10
29.572910
 20
200.120418
 30
0.0
  0
SPLINE
  5
189
100
AcDbEntity
  8
Layer_1
 62
2
100
AcDbSpline
 70
8
 71
3
 72
8
 73
4
 74
0
 40
0
 40
0
 40
0
 40
0
 40
1
 40
1
 40
1
 40
1
 10
29.572910
 20
200.120418
 30
0.0
 10
30.438704
 20
200.120418
 30
0.0
 10
31.140537
 20
200.822227
 30
0.0
 10
31.140537
 20
201.688059
 30
0.0
  0
LINE
  5
18a
100
AcDbEntity
  8
Layer_1
 62
2
100
AcDbLine
 10
31.140537
 20
201.688059
 30
0.0
 11
31.140537
 21
201.688059
 31
0.0
  0
SPLINE
  5
18b
100
AcDbEntity
  8
Layer_1
 62
2
100
AcDbSpline
 70
8
 71
3
 72
8
 73
4
 74
0
 40
0
 40
0
 40
0
 40
0
 40
1
 40
1
 40
1
 40
1
 10
31.140537
 20
84.863022
 30
0.0
 10
31.140537
 20
85.728854
 30
0.0
 10
30.438704
 20
86.430664
 30
0.0
 10
29.572910
 20
86.430664
 30
0.0
  0
SPLINE
  5
18c
100
AcDbEntity
  8
Layer_1
 62
2
100
AcDbSpline
 70
8
 71
3
 72
8
 73
4
 74
0
 40
0
 40
0
 40
0
 40
0
 40
1
 40
1
 40
1
 40
1
 10
29.572910
 20
86.430664
 30
0.0
 10
28.707088
 20
86.430664
 30
0.0
 10
28.005255
 20
85.728854
 30
0.0
 10
28.005255
 20
84.863022
 30
0.0
  0
SPLINE
  5
18d
100
AcDbEntity
  8
Layer_1
 62
2
100
AcDbSpline
 70
8
 71
3
 72
8
 73
4
 74
0
 40
0
 40
0
 40
0
 40
0
 40
1
 40
1
 40
1
 40
1
 10
28.005255
 20
84.863022
 30
0.0
 10
28.005255
 20
83.997190
 30
0.0
 10
28.707088
 20
83.295381
 30
0.0
 10
29.572910
 20
83.295381
 30
0.0
  0
SPLINE
  5
18e
100
AcDbEntity
  8
Layer_1
 62
2
100
AcDbSpline
 70
8
 71
3
 72
8
 73
4
 74
0
 40
0
 40
0
 40
0
 40
0
 40
1
 40
1
 40
1
 40
1
 10
29.572910
 20
83.295381
 30
0.0
 10
30.438704
 20
83.295381
 30
0.0
 10
31.140537
 20
83.997190
 30
0.0
 10
31.140537
 20
84.863022
 30
0.0
  0
LINE
  5
18f
100
AcDbEntity
  8
Layer_1
 62
2
100
AcDbLine
 10
31.140537
 20
84.863022
 30
0.0
 11
31.140537
 21
84.863022
 31
0.0
  0
SPLINE
  5
190
100
AcDbEntity
  8
Layer_1
 62
2
100
AcDbSpline
 70
8
 71
3
 72
8
 73
4
 74
0
 40
0
 40
0
 40
0
 40
0
 40
1
 40
1
 40
1
 40
1
 10
-56.834660
 20
172.636205
 30
0.0
 10
-56.834660
 20
173.502037
 30
0.0
 10
-57.536492
 20
174.203846
 30
0.0
 10
-58.402287
 20
174.203846
 30
0.0
  0
SPLINE
  5
191
100
AcDbEntity
  8
Layer_1
 62
2
100
AcDbSpline
 70
8
 71
3
 72
8
 73
4
 74
0
 40
0
 40
0
 40
0
 40
0
 40
1
 40
1
 40
1
 40
1
 10
-58.402287
 20
174.203846
 30
0.0
 10
-59.268109
 20
174.203846
 30
0.0
 10
-59.969942
 20
173.502037
 30
0.0
 10
-59.969942
 20
172.636205
 30
0.0
  0
SPLINE
  5
192
100
AcDbEntity
  8
Layer_1
 62
2
100
AcDbSpline
 70
8
 71
3
 72
8
 73
4
 74
0
 40
0
 40
0
 40
0
 40
0
 40
1
 40
1
 40
1
 40
1
 10
-59.969942
 20
172.636205
 30
0.0
 10
-59.969942
 20
171.770373
 30
0.0
 10
-59.268109
 20
171.068564
 30
0.0
 10
-58.402287
 20
171.068564
 30
0.0
  0
SPLINE
  5
193
100
AcDbEntity
  8
Layer_1
 62
2
100
AcDbSpline
 70
8
 71
3
 72
8
 73
4
 74
0
 40
0
 40
0
 40
0
 40
0
 40
1
 40
1
 40
1
 40
1
 10
-58.402287
 20
171.068564
 30
0.0
 10
-57.536492
 20
171.068564
 30
0.0
 10
-56.834660
 20
171.770373
 30
0.0
 10
-56.834660
 20
172.636205
 30
0.0
  0
LINE
  5
194
100
AcDbEntity
  8
Layer_1
 62
2
100
AcDbLine
 10
-56.834660
 20
172.636205
 30
0.0
 11
-56.834660
 21
172.636205
 31
0.0
  0
SPLINE
  5
195
100
AcDbEntity
  8
Layer_1
 62
2
100
AcDbSpline
 70
8
 71
3
 72
8
 73
4
 74
0
 40
0
 40
0
 40
0
 40
0
 40
1
 40
1
 40
1
 40
1
 10
-56.835612
 20
91.154851
 30
0.0
 10
-56.835612
 20
90.289003
 30
0.0
 10
-57.537418
 20
89.587184
 30
0.0
 10
-58.403266
 20
89.587184
 30
0.0
  0
SPLINE
  5
196
100
AcDbEntity
  8
Layer_1
 62
2
100
AcDbSpline
 70
8
 71
3
 72
8
 73
4
 74
0
 40
0
 40
0
 40
0
 40
0
 40
1
 40
1
 40
1
 40
1
 10
-58.403266
 20
89.587184
 30
0.0
 10
-59.269141
 20
89.587184
 30
0.0
 10
-59.970947
 20
90.289003
 30
0.0
 10
-59.970947
 20
91.154851
 30
0.0
  0
SPLINE
  5
197
100
AcDbEntity
  8
Layer_1
 62
2
100
AcDbSpline
 70
8
 71
3
 72
8
 73
4
 74
0
 40
0
 40
0
 40
0
 40
0
 40
1
 40
1
 40
1
 40
1
 10
-59.970947
 20
91.154851
 30
0.0
 10
-59.970947
 20
92.020699
 30
0.0
 10
-59.269141
 20
92.722519
 30
0.0
 10
-58.403266
 20
92.722519
 30
0.0
  0
SPLINE
  5
198
100
AcDbEntity
  8
Layer_1
 62
2
100
AcDbSpline
 70
8
 71
3
 72
8
 73
4
 74
0
 40
0
 40
0
 40
0
 40
0
 40
1
 40
1
 40
1
 40
1
 10
-58.403266
 20
92.722519
 30
0.0
 10
-57.537418
 20
92.722519
 30
0.0
 10
-56.835612
 20
92.020699
 30
0.0
 10
-56.835612
 20
91.154851
 30
0.0
  0
LINE
  5
199
100
AcDbEntity
  8
Layer_1
 62
2
100
AcDbLine
 10
-56.835612
 20
91.154851
 30
0.0
 11
-56.835612
 21
91.154851
 31
0.0
  0
SPLINE
  5
19a
100
AcDbEntity
  8
Layer_1
 62
2
100
AcDbSpline
 70
8
 71
3
 72
8
 73
4
 74
0
 40
0
 40
0
 40
0
 40
0
 40
1
 40
1
 40
1
 40
1
 10
263.944288
 20
198.241460
 30
0.0
 10
263.944288
 20
199.107292
 30
0.0
 10
264.646121
 20
199.809101
 30
0.0
 10
265.511916
 20
199.809101
 30
0.0
  0
SPLINE
  5
19b
100
AcDbEntity
  8
Layer_1
 62
2
100
AcDbSpline
 70
8
 71
3
 72
8
 73
4
 74
0
 40
0
 40
0
 40
0
 40
0
 40
1
 40
1
 40
1
 40
1
 10
265.511916
 20
199.809101
 30
0.0
 10
266.377737
 20
199.809101
 30
0.0
 10
267.079570
 20
199.107292
 30
0.0
 10
267.079570
 20
198.241460
 30
0.0
  0
SPLINE
  5
19c
100
AcDbEntity
  8
Layer_1
 62
2
100
AcDbSpline
 70
8
 71
3
 72
8
 73
4
 74
0
 40
0
 40
0
 40
0
 40
0
 40
1
 40
1
 40
1
 40
1
 10
267.079570
 20
198.241460
 30
0.0
 10
267.079570
 20
197.375628
 30
0.0
 10
266.377737
 20
196.673819
 30
0.0
 10
265.511916
 20
196.673819
 30
0.0
  0
SPLINE
  5
19d
100
AcDbEntity
  8
Layer_1
 62
2
100
AcDbSpline
 70
8
 71
3
 72
8
 73
4
 74
0
 40
0
 40
0
 40
0
 40
0
 40
1
 40
1
 40
1
 40
1
 10
265.511916
 20
196.673819
 30
0.0
 10
264.646121
 20
196.673819
 30
0.0
 10
263.944288
 20
197.375628
 30
0.0
 10
263.944288
 20
198.241460
 30
0.0
  0
LINE
  5
19e
100
AcDbEntity
  8
Layer_1
 62
2
100
AcDbLine
 10
263.944288
 20
198.241460
 30
0.0
 11
263.944288
 21
198.241460
 31
0.0
  0
SPLINE
  5
19f
100
AcDbEntity
  8
Layer_1
 62
2
100
AcDbSpline
 70
8
 71
3
 72
8
 73
4
 74
0
 40
0
 40
0
 40
0
 40
0
 40
1
 40
1
 40
1
 40
1
 10
175.970282
 20
201.688059
 30
0.0
 10
175.970282
 20
202.553891
 30
0.0
 10
176.672115
 20
203.255700
 30
0.0
 10
177.537910
 20
203.255700
 30
0.0
  0
SPLINE
  5
1a0
100
AcDbEntity
  8
Layer_1
 62
2
100
AcDbSpline
 70
8
 71
3
 72
8
 73
4
 74
0
 40
0
 40
0
 40
0
 40
0
 40
1
 40
1
 40
1
 40
1
 10
177.537910
 20
203.255700
 30
0.0
 10
178.403731
 20
203.255700
 30
0.0
 10
179.105564
 20
202.553891
 30
0.0
 10
179.105564
 20
201.688059
 30
0.0
  0
SPLINE
  5
1a1
100
AcDbEntity
  8
Layer_1
 62
2
100
AcDbSpline
 70
8
 71
3
 72
8
 73
4
 74
0
 40
0
 40
0
 40
0
 40
0
 40
1
 40
1
 40
1
 40
1
 10
179.105564
 20
201.688059
 30
0.0
 10
179.105564
 20
200.822227
 30
0.0
 10
178.403731
 20
200.120418
 30
0.0
 10
177.537910
 20
200.120418
 30
0.0
  0
SPLINE
  5
1a2
100
AcDbEntity
  8
Layer_1
 62
2
100
AcDbSpline
 70
8
 71
3
 72
8
 73
4
 74
0
 40
0
 40
0
 40
0
 40
0
 40
1
 40
1
 40
1
 40
1
 10
177.537910
 20
200.120418
 30
0.0
 10
176.672115
 20
200.120418
 30
0.0
 10
175.970282
 20
200.822227
 30
0.0
 10
175.970282
 20
201.688059
 30
0.0
  0
LINE
  5
1a3
100
AcDbEntity
  8
Layer_1
 62
2
100
AcDbLine
 10
175.970282
 20
201.688059
 30
0.0
 11
175.970282
 21
201.688059
 31
0.0
  0
SPLINE
  5
1a4
100
AcDbEntity
  8
Layer_1
 62
2
100
AcDbSpline
 70
8
 71
3
 72
8
 73
4
 74
0
 40
0
 40
0
 40
0
 40
0
 40
1
 40
1
 40
1
 40
1
 10
175.970282
 20
84.863022
 30
0.0
 10
175.970282
 20
85.728854
 30
0.0
 10
176.672115
 20
86.430664
 30
0.0
 10
177.537910
 20
86.430664
 30
0.0
  0
SPLINE
  5
1a5
100
AcDbEntity
  8
Layer_1
 62
2
100
AcDbSpline
 70
8
 71
3
 72
8
 73
4
 74
0
 40
0
 40
0
 40
0
 40
0
 40
1
 40
1
 40
1
 40
1
 10
177.537910
 20
86.430664
 30
0.0
 10
178.403731
 20
86.430664
 30
0.0
 10
179.105564
 20
85.728854
 30
0.0
 10
179.105564
 20
84.863022
 30
0.0
  0
SPLINE
  5
1a6
100
AcDbEntity
  8
Layer_1
 62
2
100
AcDbSpline
 70
8
 71
3
 72
8
 73
4
 74
0
 40
0
 40
0
 40
0
 40
0
 40
1
 40
1
 40
1
 40
1
 10
179.105564
 20
84.863022
 30
0.0
 10
179.105564
 20
83.997190
 30
0.0
 10
178.403731
 20
83.295381
 30
0.0
 10
177.537910
 20
83.295381
 30
0.0
  0
SPLINE
  5
1a7
100
AcDbEntity
  8
Layer_1
 62
2
100
AcDbSpline
 70
8
 71
3
 72
8
 73
4
 74
0
 40
0
 40
0
 40
0
 40
0
 40
1
 40
1
 40
1
 40
1
 10
177.537910
 20
83.295381
 30
0.0
 10
176.672115
 20
83.295381
 30
0.0
 10
175.970282
 20
83.997190
 30
0.0
 10
175.970282
 20
84.863022
 30
0.0
  0
LINE
  5
1a8
100
AcDbEntity
  8
Layer_1
 62
2
100
AcDbLine
 10
175.970282
 20
84.863022
 30
0.0
 11
175.970282
 21
84.863022
 31
0.0
  0
SPLINE
  5
1a9
100
AcDbEntity
  8
Layer_1
 62
2
100
AcDbSpline
 70
8
 71
3
 72
8
 73
4
 74
0
 40
0
 40
0
 40
0
 40
0
 40
1
 40
1
 40
1
 40
1
 10
263.943412
 20
172.636205
 30
0.0
 10
263.943412
 20
173.502037
 30
0.0
 10
264.645245
 20
174.203846
 30
0.0
 10
265.511040
 20
174.203846
 30
0.0
  0
SPLINE
  5
1aa
100
AcDbEntity
  8
Layer_1
 62
2
100
AcDbSpline
 70
8
 71
3
 72
8
 73
4
 74
0
 40
0
 40
0
 40
0
 40
0
 40
1
 40
1
 40
1
 40
1
 10
265.511040
 20
174.203846
 30
0.0
 10
266.376861
 20
174.203846
 30
0.0
 10
267.078694
 20
173.502037
 30
0.0
 10
267.078694
 20
172.636205
 30
0.0
  0
SPLINE
  5
1ab
100
AcDbEntity
  8
Layer_1
 62
2
100
AcDbSpline
 70
8
 71
3
 72
8
 73
4
 74
0
 40
0
 40
0
 40
0
 40
0
 40
1
 40
1
 40
1
 40
1
 10
267.078694
 20
172.636205
 30
0.0
 10
267.078694
 20
171.770373
 30
0.0
 10
266.376861
 20
171.068564
 30
0.0
 10
265.511040
 20
171.068564
 30
0.0
  0
SPLINE
  5
1ac
100
AcDbEntity
  8
Layer_1
 62
2
100
AcDbSpline
 70
8
 71
3
 72
8
 73
4
 74
0
 40
0
 40
0
 40
0
 40
0
 40
1
 40
1
 40
1
 40
1
 10
265.511040
 20
171.068564
 30
0.0
 10
264.645245
 20
171.068564
 30
0.0
 10
263.943412
 20
171.770373
 30
0.0
 10
263.943412
 20
172.636205
 30
0.0
  0
LINE
  5
1ad
100
AcDbEntity
  8
Layer_1
 62
2
100
AcDbLine
 10
263.943412
 20
172.636205
 30
0.0
 11
263.943412
 21
172.636205
 31
0.0
  0
SPLINE
  5
1ae
100
AcDbEntity
  8
Layer_1
 62
2
100
AcDbSpline
 70
8
 71
3
 72
8
 73
4
 74
0
 40
0
 40
0
 40
0
 40
0
 40
1
 40
1
 40
1
 40
1
 10
263.944365
 20
91.154851
 30
0.0
 10
263.944365
 20
90.289003
 30
0.0
 10
264.646171
 20
89.587184
 30
0.0
 10
265.512019
 20
89.587184
 30
0.0
  0
SPLINE
  5
1af
100
AcDbEntity
  8
Layer_1
 62
2
100
AcDbSpline
 70
8
 71
3
 72
8
 73
4
 74
0
 40
0
 40
0
 40
0
 40
0
 40
1
 40
1
 40
1
 40
1
 10
265.512019
 20
89.587184
 30
0.0
 10
266.377893
 20
89.587184
 30
0.0
 10
267.079700
 20
90.289003
 30
0.0
 10
267.079700
 20
91.154851
 30
0.0
  0
SPLINE
  5
1b0
100
AcDbEntity
  8
Layer_1
 62
2
100
AcDbSpline
 70
8
 71
3
 72
8
 73
4
 74
0
 40
0
 40
0
 40
0
 40
0
 40
1
 40
1
 40
1
 40
1
 10
267.079700
 20
91.154851
 30
0.0
 10
267.079700
 20
92.020699
 30
0.0
 10
266.377893
 20
92.722519
 30
0.0
 10
265.512019
 20
92.722519
 30
0.0
  0
SPLINE
  5
1b1
100
AcDbEntity
  8
Layer_1
 62
2
100
AcDbSpline
 70
8
 71
3
 72
8
 73
4
 74
0
 40
0
 40
0
 40
0
 40
0
 40
1
 40
1
 40
1
 40
1
 10
265.512019
 20
92.722519
 30
0.0
 10
264.646171
 20
92.722519
 30
0.0
 10
263.944365
 20
92.020699
 30
0.0
 10
263.944365
 20
91.154851
 30
0.0
  0
LINE
  5
1b2
100
AcDbEntity
  8
Layer_1
 62
2
100
AcDbLine
 10
263.944365
 20
91.154851
 30
0.0
 11
263.944365
 21
91.154851
 31
0.0
  0
ENDSEC
  0
SECTION
  2
OBJECTS
  0
DICTIONARY
  5
C
330
0
100
AcDbDictionary
  3
ACAD_GROUP
350
D
  3
ACAD_MLINESTYLE
350
17
  0
DICTIONARY
  5
D
330
C
100
AcDbDictionary
  0
DICTIONARY
  5
1A
330
C
100
AcDbDictionary
  0
DICTIONARY
  5
17
330
C
100
AcDbDictionary
  3
STANDARD
350
18
  0
DICTIONARY
  5
19
330
C
100
AcDbDictionary
  0
ENDSEC
  0
EOF
