  0
SECTION
  2
HEADER
  9
$ACADVER
  1
AC1014
  9
$HANDSEED
  5
FFFF
  9
$INSUNITS
 70
     0
  9
$MEASUREMENT
 70
     1
  0
ENDSEC
  0
SECTION
  2
TABLES
  0
TABLE
  2
VPORT
  5
8
330
0
100
AcDbSymbolTable
 70
     4
  0
VPORT
  5
2E
330
8
100
AcDbSymbolTableRecord
100
AcDbViewportTableRecord
  2
*ACTIVE
 70
     0
 10
0.0
 20
0.0
 11
1.0
 21
1.0
 12
210.0
 22
148.5
 13
0.0
 23
0.0
 14
10.0
 24
10.0
 15
10.0
 25
10.0
 16
0.0
 26
0.0
 36
1.0
 17
0.0
 27
0.0
 37
0.0
 40
341.0
 41
1.24
 42
50.0
 43
0.0
 44
0.0
 50
0.0
 51
0.0
 71
     0
 72
   100
 73
     1
 74
     3
 75
     0
 76
     0
 77
     0
 78
     0
  0
ENDTAB
  0
TABLE
  2
LTYPE
  5
5
330
0
100
AcDbSymbolTable
 70
     1
  0
LTYPE
  5
14
330
5
100
AcDbSymbolTableRecord
100
AcDbLinetypeTableRecord
  2
BYBLOCK
 70
     0
  3

 72
    65
 73
     0
 40
0.0
  0
LTYPE
  5
15
330
5
100
AcDbSymbolTableRecord
100
AcDbLinetypeTableRecord
  2
BYLAYER
 70
     0
  3

 72
    65
 73
     0
 40
0.0
  0
LTYPE
  5
16
330
5
100
AcDbSymbolTableRecord
100
AcDbLinetypeTableRecord
  2
CONTINUOUS
 70
     0
  3
Solid line
 72
    65
 73
     0
 40
0.0
  0
ENDTAB
  0
TABLE
  2
LAYER
  5
2
100
AcDbSymbolTable
 70
2
  0
LAYER
  5
50
100
AcDbSymbolTableRecord
100
AcDbLayerTableRecord
  2
0
 70
0
  6
CONTINUOUS
  0
LAYER
  5
51
100
AcDbSymbolTableRecord
100
AcDbLayerTableRecord
  2
Layer_1
 70
0
  6
CONTINUOUS
  0
ENDTAB
  0
TABLE
  2
STYLE
  5
3
330
0
100
AcDbSymbolTable
 70
     1
  0
STYLE
  5
11
330
3
100
AcDbSymbolTableRecord
100
AcDbTextStyleTableRecord
  2
STANDARD
 70
     0
 40
0.0
 41
1.0
 50
0.0
 71
     0
 42
2.5
  3
txt
  4

  0
ENDTAB
  0
TABLE
  2
VIEW
  5
6
330
0
100
AcDbSymbolTable
 70
     0
  0
ENDTAB
  0
TABLE
  2
UCS
  5
7
330
0
100
AcDbSymbolTable
 70
     0
  0
ENDTAB
  0
TABLE
  2
APPID
  5
9
330
0
100
AcDbSymbolTable
 70
     2
  0
APPID
  5
12
330
9
100
AcDbSymbolTableRecord
100
AcDbRegAppTableRecord
  2
ACAD
 70
     0
  0
ENDTAB
  0
TABLE
  2
DIMSTYLE
  5
A
330
0
100
AcDbSymbolTable
 70
     1
  0
DIMSTYLE
105
27
330
A
100
AcDbSymbolTableRecord
100
AcDbDimStyleTableRecord
  2
ISO-25
 70
     0
  3

  4

  5

  6

  7

 40
1.0
 41
2.5
 42
0.625
 43
3.75
 44
1.25
 45
0.0
 46
0.0
 47
0.0
 48
0.0
140
2.5
141
2.5
142
0.0
143
0.03937007874016
144
1.0
145
0.0
146
1.0
147
0.625
 71
     0
 72
     0
 73
     0
 74
     0
 75
     0
 76
     0
 77
     1
 78
     8
170
     0
171
     3
172
     1
173
     0
174
     0
175
     0
176
     0
177
     0
178
     0
270
     2
271
     2
272
     2
273
     2
274
     3
340
11
275
     0
280
     0
281
     0
282
     0
283
     0
284
     8
285
     0
286
     0
287
     3
288
     0
  0
ENDTAB
  0
TABLE
  2
BLOCK_RECORD
  5
1
330
0
100
AcDbSymbolTable
 70
     1
  0
BLOCK_RECORD
  5
1F
330
1
100
AcDbSymbolTableRecord
100
AcDbBlockTableRecord
  2
*MODEL_SPACE
  0
BLOCK_RECORD
  5
1B
330
1
100
AcDbSymbolTableRecord
100
AcDbBlockTableRecord
  2
*PAPER_SPACE
  0
ENDTAB
  0
ENDSEC
  0
SECTION
  2
BLOCKS
  0
BLOCK
  5
20
330
1F
100
AcDbEntity
  8
0
100
AcDbBlockBegin
  2
*MODEL_SPACE
 70
     0
 10
0.0
 20
0.0
 30
0.0
  3
*MODEL_SPACE
  1

  0
ENDBLK
  5
21
330
1F
100
AcDbEntity
  8
0
100
AcDbBlockEnd
  0
BLOCK
  5
1C
330
1B
100
AcDbEntity
 67
     1
  8
0
100
AcDbBlockBegin
  2
*PAPER_SPACE
  1

  0
ENDBLK
  5
1D
330
1B
100
AcDbEntity
 67
     1
  8
0
100
AcDbBlockEnd
  0
ENDSEC
  0
SECTION
  2
ENTITIES
  0
LINE
  5
100
100
AcDbEntity
  8
Layer_1
 62
4
100
AcDbLine
 10
-46.359989
 20
203.070355
 30
0.0
 11
-46.359989
 21
167.299210
 31
0.0
  0
LINE
  5
101
100
AcDbEntity
  8
Layer_1
 62
4
100
AcDbLine
 10
-46.359989
 20
167.299210
 30
0.0
 11
-46.359989
 21
137.353433
 31
0.0
  0
LINE
  5
102
100
AcDbEntity
  8
Layer_1
 62
4
100
AcDbLine
 10
-46.359989
 20
137.353433
 30
0.0
 11
-46.359989
 21
101.582290
 31
0.0
  0
SPLINE
  5
103
100
AcDbEntity
  8
Layer_1
 62
4
100
AcDbSpline
 70
8
 71
3
 72
8
 73
4
 74
0
 40
0
 40
0
 40
0
 40
0
 40
1
 40
1
 40
1
 40
1
 10
-46.308792
 20
203.386156
 30
0.0
 10
-46.342712
 20
203.284355
 30
0.0
 10
-46.359989
 20
203.177656
 30
0.0
 10
-46.359989
 20
203.070355
 30
0.0
  0
SPLINE
  5
104
100
AcDbEntity
  8
Layer_1
 62
4
100
AcDbSpline
 70
8
 71
3
 72
8
 73
4
 74
0
 40
0
 40
0
 40
0
 40
0
 40
1
 40
1
 40
1
 40
1
 10
-45.414793
 20
204.070754
 30
0.0
 10
-45.833310
 20
204.070754
 30
0.0
 10
-46.199704
 20
203.790155
 30
0.0
 10
-46.308792
 20
203.386156
 30
0.0
  0
LINE
  5
105
100
AcDbEntity
  8
Layer_1
 62
4
100
AcDbLine
 10
-45.414793
 20
204.070754
 30
0.0
 11
-34.785012
 21
204.070754
 31
0.0
  0
SPLINE
  5
106
100
AcDbEntity
  8
Layer_1
 62
4
100
AcDbSpline
 70
8
 71
3
 72
8
 73
4
 74
0
 40
0
 40
0
 40
0
 40
0
 40
1
 40
1
 40
1
 40
1
 10
-34.785012
 20
204.070754
 30
0.0
 10
-33.969726
 20
204.070754
 30
0.0
 10
-33.187804
 20
204.394653
 30
0.0
 10
-32.611409
 20
204.971153
 30
0.0
  0
SPLINE
  5
107
100
AcDbEntity
  8
Layer_1
 62
4
100
AcDbSpline
 70
8
 71
3
 72
8
 73
4
 74
0
 40
0
 40
0
 40
0
 40
0
 40
1
 40
1
 40
1
 40
1
 10
-32.611409
 20
204.971153
 30
0.0
 10
-32.034910
 20
205.547553
 30
0.0
 10
-31.711007
 20
206.329451
 30
0.0
 10
-31.711007
 20
207.144750
 30
0.0
  0
LINE
  5
108
100
AcDbEntity
  8
Layer_1
 62
4
100
AcDbLine
 10
-31.711007
 20
207.144750
 30
0.0
 11
-31.711007
 21
208.070349
 31
0.0
  0
SPLINE
  5
109
100
AcDbEntity
  8
Layer_1
 62
4
100
AcDbSpline
 70
8
 71
3
 72
8
 73
4
 74
0
 40
0
 40
0
 40
0
 40
0
 40
1
 40
1
 40
1
 40
1
 10
-28.785010
 20
210.996346
 30
0.0
 10
-29.561032
 20
210.996346
 30
0.0
 10
-30.305331
 20
210.688046
 30
0.0
 10
-30.854023
 20
210.139346
 30
0.0
  0
SPLINE
  5
10a
100
AcDbEntity
  8
Layer_1
 62
4
100
AcDbSpline
 70
8
 71
3
 72
8
 73
4
 74
0
 40
0
 40
0
 40
0
 40
0
 40
1
 40
1
 40
1
 40
1
 10
-30.854023
 20
210.139346
 30
0.0
 10
-31.402715
 20
209.590648
 30
0.0
 10
-31.711007
 20
208.846347
 30
0.0
 10
-31.711007
 20
208.070349
 30
0.0
  0
LINE
  5
10b
100
AcDbEntity
  8
Layer_1
 62
4
100
AcDbLine
 10
-28.785010
 20
210.996346
 30
0.0
 11
-24.785018
 21
210.996346
 31
0.0
  0
SPLINE
  5
10c
100
AcDbEntity
  8
Layer_1
 62
4
100
AcDbSpline
 70
8
 71
3
 72
8
 73
4
 74
0
 40
0
 40
0
 40
0
 40
0
 40
1
 40
1
 40
1
 40
1
 10
-21.859021
 20
208.070349
 30
0.0
 10
-21.859021
 20
208.846347
 30
0.0
 10
-22.167340
 20
209.590648
 30
0.0
 10
-22.716032
 20
210.139346
 30
0.0
  0
SPLINE
  5
10d
100
AcDbEntity
  8
Layer_1
 62
4
100
AcDbSpline
 70
8
 71
3
 72
8
 73
4
 74
0
 40
0
 40
0
 40
0
 40
0
 40
1
 40
1
 40
1
 40
1
 10
-22.716032
 20
210.139346
 30
0.0
 10
-23.264724
 20
210.688046
 30
0.0
 10
-24.009022
 20
210.996346
 30
0.0
 10
-24.785018
 20
210.996346
 30
0.0
  0
LINE
  5
10e
100
AcDbEntity
  8
Layer_1
 62
4
100
AcDbLine
 10
-21.859021
 20
208.070349
 30
0.0
 11
-21.859021
 21
207.144750
 31
0.0
  0
SPLINE
  5
10f
100
AcDbEntity
  8
Layer_1
 62
4
100
AcDbSpline
 70
8
 71
3
 72
8
 73
4
 74
0
 40
0
 40
0
 40
0
 40
0
 40
1
 40
1
 40
1
 40
1
 10
-21.859021
 20
207.144750
 30
0.0
 10
-21.859021
 20
206.329451
 30
0.0
 10
-21.535118
 20
205.547553
 30
0.0
 10
-20.958619
 20
204.971153
 30
0.0
  0
SPLINE
  5
110
100
AcDbEntity
  8
Layer_1
 62
4
100
AcDbSpline
 70
8
 71
3
 72
8
 73
4
 74
0
 40
0
 40
0
 40
0
 40
0
 40
1
 40
1
 40
1
 40
1
 10
-20.958619
 20
204.971153
 30
0.0
 10
-20.382224
 20
204.394653
 30
0.0
 10
-19.600329
 20
204.070754
 30
0.0
 10
-18.785043
 20
204.070754
 30
0.0
  0
LINE
  5
111
100
AcDbEntity
  8
Layer_1
 62
4
100
AcDbLine
 10
102.790713
 20
207.144750
 30
0.0
 11
102.790713
 21
208.070349
 31
0.0
  0
SPLINE
  5
112
100
AcDbEntity
  8
Layer_1
 62
4
100
AcDbSpline
 70
8
 71
3
 72
8
 73
4
 74
0
 40
0
 40
0
 40
0
 40
0
 40
1
 40
1
 40
1
 40
1
 10
105.716710
 20
210.996346
 30
0.0
 10
104.940688
 20
210.996346
 30
0.0
 10
104.196390
 20
210.688046
 30
0.0
 10
103.647698
 20
210.139346
 30
0.0
  0
SPLINE
  5
113
100
AcDbEntity
  8
Layer_1
 62
4
100
AcDbSpline
 70
8
 71
3
 72
8
 73
4
 74
0
 40
0
 40
0
 40
0
 40
0
 40
1
 40
1
 40
1
 40
1
 10
103.647698
 20
210.139346
 30
0.0
 10
103.099006
 20
209.590648
 30
0.0
 10
102.790713
 20
208.846347
 30
0.0
 10
102.790713
 20
208.070349
 30
0.0
  0
LINE
  5
114
100
AcDbEntity
  8
Layer_1
 62
4
100
AcDbLine
 10
105.716710
 20
210.996346
 30
0.0
 11
109.716703
 21
210.996346
 31
0.0
  0
SPLINE
  5
115
100
AcDbEntity
  8
Layer_1
 62
4
100
AcDbSpline
 70
8
 71
3
 72
8
 73
4
 74
0
 40
0
 40
0
 40
0
 40
0
 40
1
 40
1
 40
1
 40
1
 10
112.642700
 20
208.070349
 30
0.0
 10
112.642700
 20
208.846347
 30
0.0
 10
112.334381
 20
209.590648
 30
0.0
 10
111.785689
 20
210.139346
 30
0.0
  0
SPLINE
  5
116
100
AcDbEntity
  8
Layer_1
 62
4
100
AcDbSpline
 70
8
 71
3
 72
8
 73
4
 74
0
 40
0
 40
0
 40
0
 40
0
 40
1
 40
1
 40
1
 40
1
 10
111.785689
 20
210.139346
 30
0.0
 10
111.236997
 20
210.688046
 30
0.0
 10
110.492698
 20
210.996346
 30
0.0
 10
109.716703
 20
210.996346
 30
0.0
  0
LINE
  5
117
100
AcDbEntity
  8
Layer_1
 62
4
100
AcDbLine
 10
112.642700
 20
208.070349
 30
0.0
 11
112.642700
 21
207.144750
 31
0.0
  0
SPLINE
  5
118
100
AcDbEntity
  8
Layer_1
 62
4
100
AcDbSpline
 70
8
 71
3
 72
8
 73
4
 74
0
 40
0
 40
0
 40
0
 40
0
 40
1
 40
1
 40
1
 40
1
 10
112.642700
 20
207.144750
 30
0.0
 10
112.642700
 20
206.329451
 30
0.0
 10
112.966602
 20
205.547553
 30
0.0
 10
113.543102
 20
204.971153
 30
0.0
  0
SPLINE
  5
119
100
AcDbEntity
  8
Layer_1
 62
4
100
AcDbSpline
 70
8
 71
3
 72
8
 73
4
 74
0
 40
0
 40
0
 40
0
 40
0
 40
1
 40
1
 40
1
 40
1
 10
113.543102
 20
204.971153
 30
0.0
 10
114.119496
 20
204.394653
 30
0.0
 10
114.901392
 20
204.070754
 30
0.0
 10
115.716678
 20
204.070754
 30
0.0
  0
LINE
  5
11a
100
AcDbEntity
  8
Layer_1
 62
4
100
AcDbLine
 10
115.716678
 20
204.070754
 30
0.0
 11
227.078834
 21
204.070754
 31
0.0
  0
LINE
  5
11b
100
AcDbEntity
  8
Layer_1
 62
4
100
AcDbLine
 10
227.078834
 20
204.070754
 30
0.0
 11
234.369313
 21
204.070754
 31
0.0
  0
LINE
  5
11c
100
AcDbEntity
  8
Layer_1
 62
4
100
AcDbLine
 10
102.790713
 20
97.492020
 30
0.0
 11
102.790713
 21
96.566421
 31
0.0
  0
SPLINE
  5
11d
100
AcDbEntity
  8
Layer_1
 62
4
100
AcDbSpline
 70
8
 71
3
 72
8
 73
4
 74
0
 40
0
 40
0
 40
0
 40
0
 40
1
 40
1
 40
1
 40
1
 10
105.716710
 20
93.640424
 30
0.0
 10
104.940688
 20
93.640424
 30
0.0
 10
104.196390
 20
93.948724
 30
0.0
 10
103.647698
 20
94.497424
 30
0.0
  0
SPLINE
  5
11e
100
AcDbEntity
  8
Layer_1
 62
4
100
AcDbSpline
 70
8
 71
3
 72
8
 73
4
 74
0
 40
0
 40
0
 40
0
 40
0
 40
1
 40
1
 40
1
 40
1
 10
103.647698
 20
94.497424
 30
0.0
 10
103.099006
 20
95.046122
 30
0.0
 10
102.790713
 20
95.790423
 30
0.0
 10
102.790713
 20
96.566421
 30
0.0
  0
LINE
  5
11f
100
AcDbEntity
  8
Layer_1
 62
4
100
AcDbLine
 10
105.716710
 20
93.640424
 30
0.0
 11
109.716703
 21
93.640424
 31
0.0
  0
SPLINE
  5
120
100
AcDbEntity
  8
Layer_1
 62
4
100
AcDbSpline
 70
8
 71
3
 72
8
 73
4
 74
0
 40
0
 40
0
 40
0
 40
0
 40
1
 40
1
 40
1
 40
1
 10
112.642700
 20
96.566421
 30
0.0
 10
112.642700
 20
95.790423
 30
0.0
 10
112.334381
 20
95.046122
 30
0.0
 10
111.785689
 20
94.497424
 30
0.0
  0
SPLINE
  5
121
100
AcDbEntity
  8
Layer_1
 62
4
100
AcDbSpline
 70
8
 71
3
 72
8
 73
4
 74
0
 40
0
 40
0
 40
0
 40
0
 40
1
 40
1
 40
1
 40
1
 10
111.785689
 20
94.497424
 30
0.0
 10
111.236997
 20
93.948724
 30
0.0
 10
110.492698
 20
93.640424
 30
0.0
 10
109.716703
 20
93.640424
 30
0.0
  0
LINE
  5
122
100
AcDbEntity
  8
Layer_1
 62
4
100
AcDbLine
 10
112.642700
 20
96.566421
 30
0.0
 11
112.642700
 21
97.492020
 31
0.0
  0
SPLINE
  5
123
100
AcDbEntity
  8
Layer_1
 62
4
100
AcDbSpline
 70
8
 71
3
 72
8
 73
4
 74
0
 40
0
 40
0
 40
0
 40
0
 40
1
 40
1
 40
1
 40
1
 10
112.642700
 20
97.492020
 30
0.0
 10
112.642700
 20
98.307319
 30
0.0
 10
112.966602
 20
99.089217
 30
0.0
 10
113.543102
 20
99.665616
 30
0.0
  0
SPLINE
  5
124
100
AcDbEntity
  8
Layer_1
 62
4
100
AcDbSpline
 70
8
 71
3
 72
8
 73
4
 74
0
 40
0
 40
0
 40
0
 40
0
 40
1
 40
1
 40
1
 40
1
 10
113.543102
 20
99.665616
 30
0.0
 10
114.119496
 20
100.242116
 30
0.0
 10
114.901392
 20
100.566016
 30
0.0
 10
115.716678
 20
100.566016
 30
0.0
  0
LINE
  5
125
100
AcDbEntity
  8
Layer_1
 62
4
100
AcDbLine
 10
115.716678
 20
100.566016
 30
0.0
 11
227.078834
 21
100.581891
 31
0.0
  0
LINE
  5
126
100
AcDbEntity
  8
Layer_1
 62
4
100
AcDbLine
 10
227.078834
 20
100.581891
 30
0.0
 11
234.369313
 21
100.581891
 31
0.0
  0
SPLINE
  5
127
100
AcDbEntity
  8
Layer_1
 62
4
100
AcDbSpline
 70
8
 71
3
 72
8
 73
4
 74
0
 40
0
 40
0
 40
0
 40
0
 40
1
 40
1
 40
1
 40
1
 10
-46.308792
 20
101.266489
 30
0.0
 10
-46.342712
 20
101.368290
 30
0.0
 10
-46.359989
 20
101.474988
 30
0.0
 10
-46.359989
 20
101.582290
 30
0.0
  0
SPLINE
  5
128
100
AcDbEntity
  8
Layer_1
 62
4
100
AcDbSpline
 70
8
 71
3
 72
8
 73
4
 74
0
 40
0
 40
0
 40
0
 40
0
 40
1
 40
1
 40
1
 40
1
 10
-45.414793
 20
100.581891
 30
0.0
 10
-45.833310
 20
100.581891
 30
0.0
 10
-46.199704
 20
100.862489
 30
0.0
 10
-46.308792
 20
101.266489
 30
0.0
  0
LINE
  5
129
100
AcDbEntity
  8
Layer_1
 62
4
100
AcDbLine
 10
-45.414793
 20
100.581891
 30
0.0
 11
-34.785012
 21
100.581891
 31
0.0
  0
SPLINE
  5
12a
100
AcDbEntity
  8
Layer_1
 62
4
100
AcDbSpline
 70
8
 71
3
 72
8
 73
4
 74
0
 40
0
 40
0
 40
0
 40
0
 40
1
 40
1
 40
1
 40
1
 10
-34.785012
 20
100.581891
 30
0.0
 10
-33.969726
 20
100.581891
 30
0.0
 10
-33.187804
 20
100.257991
 30
0.0
 10
-32.611409
 20
99.681491
 30
0.0
  0
SPLINE
  5
12b
100
AcDbEntity
  8
Layer_1
 62
4
100
AcDbSpline
 70
8
 71
3
 72
8
 73
4
 74
0
 40
0
 40
0
 40
0
 40
0
 40
1
 40
1
 40
1
 40
1
 10
-32.611409
 20
99.681491
 30
0.0
 10
-32.034910
 20
99.105092
 30
0.0
 10
-31.711007
 20
98.323194
 30
0.0
 10
-31.711007
 20
97.507894
 30
0.0
  0
LINE
  5
12c
100
AcDbEntity
  8
Layer_1
 62
4
100
AcDbLine
 10
-31.711007
 20
97.507894
 30
0.0
 11
-31.711007
 21
96.582296
 31
0.0
  0
SPLINE
  5
12d
100
AcDbEntity
  8
Layer_1
 62
4
100
AcDbSpline
 70
8
 71
3
 72
8
 73
4
 74
0
 40
0
 40
0
 40
0
 40
0
 40
1
 40
1
 40
1
 40
1
 10
-28.785010
 20
93.656299
 30
0.0
 10
-29.561032
 20
93.656299
 30
0.0
 10
-30.305331
 20
93.964599
 30
0.0
 10
-30.854023
 20
94.513299
 30
0.0
  0
SPLINE
  5
12e
100
AcDbEntity
  8
Layer_1
 62
4
100
AcDbSpline
 70
8
 71
3
 72
8
 73
4
 74
0
 40
0
 40
0
 40
0
 40
0
 40
1
 40
1
 40
1
 40
1
 10
-30.854023
 20
94.513299
 30
0.0
 10
-31.402715
 20
95.061997
 30
0.0
 10
-31.711007
 20
95.806298
 30
0.0
 10
-31.711007
 20
96.582296
 30
0.0
  0
LINE
  5
12f
100
AcDbEntity
  8
Layer_1
 62
4
100
AcDbLine
 10
-28.785010
 20
93.656299
 30
0.0
 11
-24.785018
 21
93.656299
 31
0.0
  0
SPLINE
  5
130
100
AcDbEntity
  8
Layer_1
 62
4
100
AcDbSpline
 70
8
 71
3
 72
8
 73
4
 74
0
 40
0
 40
0
 40
0
 40
0
 40
1
 40
1
 40
1
 40
1
 10
-21.859021
 20
96.582296
 30
0.0
 10
-21.859021
 20
95.806298
 30
0.0
 10
-22.167340
 20
95.061997
 30
0.0
 10
-22.716032
 20
94.513299
 30
0.0
  0
SPLINE
  5
131
100
AcDbEntity
  8
Layer_1
 62
4
100
AcDbSpline
 70
8
 71
3
 72
8
 73
4
 74
0
 40
0
 40
0
 40
0
 40
0
 40
1
 40
1
 40
1
 40
1
 10
-22.716032
 20
94.513299
 30
0.0
 10
-23.264724
 20
93.964599
 30
0.0
 10
-24.009022
 20
93.656299
 30
0.0
 10
-24.785018
 20
93.656299
 30
0.0
  0
LINE
  5
132
100
AcDbEntity
  8
Layer_1
 62
4
100
AcDbLine
 10
-21.859021
 20
96.582296
 30
0.0
 11
-21.859021
 21
97.507894
 31
0.0
  0
SPLINE
  5
133
100
AcDbEntity
  8
Layer_1
 62
4
100
AcDbSpline
 70
8
 71
3
 72
8
 73
4
 74
0
 40
0
 40
0
 40
0
 40
0
 40
1
 40
1
 40
1
 40
1
 10
-21.859021
 20
97.507894
 30
0.0
 10
-21.859021
 20
98.323194
 30
0.0
 10
-21.535118
 20
99.105092
 30
0.0
 10
-20.958619
 20
99.681491
 30
0.0
  0
SPLINE
  5
134
100
AcDbEntity
  8
Layer_1
 62
4
100
AcDbSpline
 70
8
 71
3
 72
8
 73
4
 74
0
 40
0
 40
0
 40
0
 40
0
 40
1
 40
1
 40
1
 40
1
 10
-20.958619
 20
99.681491
 30
0.0
 10
-20.382224
 20
100.257991
 30
0.0
 10
-19.600329
 20
100.581891
 30
0.0
 10
-18.785043
 20
100.581891
 30
0.0
  0
LINE
  5
135
100
AcDbEntity
  8
Layer_1
 62
4
100
AcDbLine
 10
-18.785043
 20
100.581891
 30
0.0
 11
-11.494564
 21
100.581891
 31
0.0
  0
LINE
  5
136
100
AcDbEntity
  8
Layer_1
 62
4
100
AcDbLine
 10
-11.494564
 20
100.581891
 30
0.0
 11
99.716709
 21
100.566016
 31
0.0
  0
SPLINE
  5
137
100
AcDbEntity
  8
Layer_1
 62
4
100
AcDbSpline
 70
8
 71
3
 72
8
 73
4
 74
0
 40
0
 40
0
 40
0
 40
0
 40
1
 40
1
 40
1
 40
1
 10
99.716709
 20
100.566016
 30
0.0
 10
100.531995
 20
100.566016
 30
0.0
 10
101.313917
 20
100.242116
 30
0.0
 10
101.890311
 20
99.665616
 30
0.0
  0
SPLINE
  5
138
100
AcDbEntity
  8
Layer_1
 62
4
100
AcDbSpline
 70
8
 71
3
 72
8
 73
4
 74
0
 40
0
 40
0
 40
0
 40
0
 40
1
 40
1
 40
1
 40
1
 10
101.890311
 20
99.665616
 30
0.0
 10
102.466811
 20
99.089217
 30
0.0
 10
102.790713
 20
98.307319
 30
0.0
 10
102.790713
 20
97.492020
 30
0.0
  0
LINE
  5
139
100
AcDbEntity
  8
Layer_1
 62
4
100
AcDbLine
 10
261.944259
 20
203.070355
 30
0.0
 11
261.944259
 21
167.299210
 31
0.0
  0
LINE
  5
13a
100
AcDbEntity
  8
Layer_1
 62
4
100
AcDbLine
 10
261.944259
 20
167.299210
 30
0.0
 11
261.944259
 21
137.353433
 31
0.0
  0
LINE
  5
13b
100
AcDbEntity
  8
Layer_1
 62
4
100
AcDbLine
 10
261.944259
 20
137.353433
 30
0.0
 11
261.944259
 21
101.582290
 31
0.0
  0
SPLINE
  5
13c
100
AcDbEntity
  8
Layer_1
 62
4
100
AcDbSpline
 70
8
 71
3
 72
8
 73
4
 74
0
 40
0
 40
0
 40
0
 40
0
 40
1
 40
1
 40
1
 40
1
 10
261.893062
 20
203.386156
 30
0.0
 10
261.926982
 20
203.284355
 30
0.0
 10
261.944259
 20
203.177656
 30
0.0
 10
261.944259
 20
203.070355
 30
0.0
  0
SPLINE
  5
13d
100
AcDbEntity
  8
Layer_1
 62
4
100
AcDbSpline
 70
8
 71
3
 72
8
 73
4
 74
0
 40
0
 40
0
 40
0
 40
0
 40
1
 40
1
 40
1
 40
1
 10
260.999063
 20
204.070754
 30
0.0
 10
261.417580
 20
204.070754
 30
0.0
 10
261.783975
 20
203.790155
 30
0.0
 10
261.893062
 20
203.386156
 30
0.0
  0
LINE
  5
13e
100
AcDbEntity
  8
Layer_1
 62
4
100
AcDbLine
 10
260.999063
 20
204.070754
 30
0.0
 11
250.369282
 21
204.070754
 31
0.0
  0
SPLINE
  5
13f
100
AcDbEntity
  8
Layer_1
 62
4
100
AcDbSpline
 70
8
 71
3
 72
8
 73
4
 74
0
 40
0
 40
0
 40
0
 40
0
 40
1
 40
1
 40
1
 40
1
 10
250.369282
 20
204.070754
 30
0.0
 10
249.553996
 20
204.070754
 30
0.0
 10
248.772074
 20
204.394653
 30
0.0
 10
248.195680
 20
204.971153
 30
0.0
  0
SPLINE
  5
140
100
AcDbEntity
  8
Layer_1
 62
4
100
AcDbSpline
 70
8
 71
3
 72
8
 73
4
 74
0
 40
0
 40
0
 40
0
 40
0
 40
1
 40
1
 40
1
 40
1
 10
248.195680
 20
204.971153
 30
0.0
 10
247.619180
 20
205.547553
 30
0.0
 10
247.295277
 20
206.329451
 30
0.0
 10
247.295277
 20
207.144750
 30
0.0
  0
LINE
  5
141
100
AcDbEntity
  8
Layer_1
 62
4
100
AcDbLine
 10
247.295277
 20
207.144750
 30
0.0
 11
247.295277
 21
208.070349
 31
0.0
  0
SPLINE
  5
142
100
AcDbEntity
  8
Layer_1
 62
4
100
AcDbSpline
 70
8
 71
3
 72
8
 73
4
 74
0
 40
0
 40
0
 40
0
 40
0
 40
1
 40
1
 40
1
 40
1
 10
244.369280
 20
210.996346
 30
0.0
 10
245.145302
 20
210.996346
 30
0.0
 10
245.889601
 20
210.688046
 30
0.0
 10
246.438293
 20
210.139346
 30
0.0
  0
SPLINE
  5
143
100
AcDbEntity
  8
Layer_1
 62
4
100
AcDbSpline
 70
8
 71
3
 72
8
 73
4
 74
0
 40
0
 40
0
 40
0
 40
0
 40
1
 40
1
 40
1
 40
1
 10
246.438293
 20
210.139346
 30
0.0
 10
246.986985
 20
209.590648
 30
0.0
 10
247.295277
 20
208.846347
 30
0.0
 10
247.295277
 20
208.070349
 30
0.0
  0
LINE
  5
144
100
AcDbEntity
  8
Layer_1
 62
4
100
AcDbLine
 10
244.369280
 20
210.996346
 30
0.0
 11
240.369288
 21
210.996346
 31
0.0
  0
SPLINE
  5
145
100
AcDbEntity
  8
Layer_1
 62
4
100
AcDbSpline
 70
8
 71
3
 72
8
 73
4
 74
0
 40
0
 40
0
 40
0
 40
0
 40
1
 40
1
 40
1
 40
1
 10
237.443291
 20
208.070349
 30
0.0
 10
237.443291
 20
208.846347
 30
0.0
 10
237.751610
 20
209.590648
 30
0.0
 10
238.300302
 20
210.139346
 30
0.0
  0
SPLINE
  5
146
100
AcDbEntity
  8
Layer_1
 62
4
100
AcDbSpline
 70
8
 71
3
 72
8
 73
4
 74
0
 40
0
 40
0
 40
0
 40
0
 40
1
 40
1
 40
1
 40
1
 10
238.300302
 20
210.139346
 30
0.0
 10
238.848994
 20
210.688046
 30
0.0
 10
239.593293
 20
210.996346
 30
0.0
 10
240.369288
 20
210.996346
 30
0.0
  0
LINE
  5
147
100
AcDbEntity
  8
Layer_1
 62
4
100
AcDbLine
 10
237.443291
 20
208.070349
 30
0.0
 11
237.443291
 21
207.144750
 31
0.0
  0
SPLINE
  5
148
100
AcDbEntity
  8
Layer_1
 62
4
100
AcDbSpline
 70
8
 71
3
 72
8
 73
4
 74
0
 40
0
 40
0
 40
0
 40
0
 40
1
 40
1
 40
1
 40
1
 10
237.443291
 20
207.144750
 30
0.0
 10
237.443291
 20
206.329451
 30
0.0
 10
237.119389
 20
205.547553
 30
0.0
 10
236.542889
 20
204.971153
 30
0.0
  0
SPLINE
  5
149
100
AcDbEntity
  8
Layer_1
 62
4
100
AcDbSpline
 70
8
 71
3
 72
8
 73
4
 74
0
 40
0
 40
0
 40
0
 40
0
 40
1
 40
1
 40
1
 40
1
 10
236.542889
 20
204.971153
 30
0.0
 10
235.966495
 20
204.394653
 30
0.0
 10
235.184599
 20
204.070754
 30
0.0
 10
234.369313
 20
204.070754
 30
0.0
  0
SPLINE
  5
14a
100
AcDbEntity
  8
Layer_1
 62
4
100
AcDbSpline
 70
8
 71
3
 72
8
 73
4
 74
0
 40
0
 40
0
 40
0
 40
0
 40
1
 40
1
 40
1
 40
1
 10
261.893062
 20
101.266489
 30
0.0
 10
261.926982
 20
101.368290
 30
0.0
 10
261.944259
 20
101.474988
 30
0.0
 10
261.944259
 20
101.582290
 30
0.0
  0
SPLINE
  5
14b
100
AcDbEntity
  8
Layer_1
 62
4
100
AcDbSpline
 70
8
 71
3
 72
8
 73
4
 74
0
 40
0
 40
0
 40
0
 40
0
 40
1
 40
1
 40
1
 40
1
 10
260.999063
 20
100.581891
 30
0.0
 10
261.417580
 20
100.581891
 30
0.0
 10
261.783975
 20
100.862489
 30
0.0
 10
261.893062
 20
101.266489
 30
0.0
  0
LINE
  5
14c
100
AcDbEntity
  8
Layer_1
 62
4
100
AcDbLine
 10
260.999063
 20
100.581891
 30
0.0
 11
250.369282
 21
100.581891
 31
0.0
  0
SPLINE
  5
14d
100
AcDbEntity
  8
Layer_1
 62
4
100
AcDbSpline
 70
8
 71
3
 72
8
 73
4
 74
0
 40
0
 40
0
 40
0
 40
0
 40
1
 40
1
 40
1
 40
1
 10
250.369282
 20
100.581891
 30
0.0
 10
249.553996
 20
100.581891
 30
0.0
 10
248.772074
 20
100.257991
 30
0.0
 10
248.195680
 20
99.681491
 30
0.0
  0
SPLINE
  5
14e
100
AcDbEntity
  8
Layer_1
 62
4
100
AcDbSpline
 70
8
 71
3
 72
8
 73
4
 74
0
 40
0
 40
0
 40
0
 40
0
 40
1
 40
1
 40
1
 40
1
 10
248.195680
 20
99.681491
 30
0.0
 10
247.619180
 20
99.105092
 30
0.0
 10
247.295277
 20
98.323194
 30
0.0
 10
247.295277
 20
97.507894
 30
0.0
  0
LINE
  5
14f
100
AcDbEntity
  8
Layer_1
 62
4
100
AcDbLine
 10
247.295277
 20
97.507894
 30
0.0
 11
247.295277
 21
96.582296
 31
0.0
  0
SPLINE
  5
150
100
AcDbEntity
  8
Layer_1
 62
4
100
AcDbSpline
 70
8
 71
3
 72
8
 73
4
 74
0
 40
0
 40
0
 40
0
 40
0
 40
1
 40
1
 40
1
 40
1
 10
244.369280
 20
93.656299
 30
0.0
 10
245.145302
 20
93.656299
 30
0.0
 10
245.889601
 20
93.964599
 30
0.0
 10
246.438293
 20
94.513299
 30
0.0
  0
SPLINE
  5
151
100
AcDbEntity
  8
Layer_1
 62
4
100
AcDbSpline
 70
8
 71
3
 72
8
 73
4
 74
0
 40
0
 40
0
 40
0
 40
0
 40
1
 40
1
 40
1
 40
1
 10
246.438293
 20
94.513299
 30
0.0
 10
246.986985
 20
95.061997
 30
0.0
 10
247.295277
 20
95.806298
 30
0.0
 10
247.295277
 20
96.582296
 30
0.0
  0
LINE
  5
152
100
AcDbEntity
  8
Layer_1
 62
4
100
AcDbLine
 10
244.369280
 20
93.656299
 30
0.0
 11
240.369288
 21
93.656299
 31
0.0
  0
SPLINE
  5
153
100
AcDbEntity
  8
Layer_1
 62
4
100
AcDbSpline
 70
8
 71
3
 72
8
 73
4
 74
0
 40
0
 40
0
 40
0
 40
0
 40
1
 40
1
 40
1
 40
1
 10
237.443291
 20
96.582296
 30
0.0
 10
237.443291
 20
95.806298
 30
0.0
 10
237.751610
 20
95.061997
 30
0.0
 10
238.300302
 20
94.513299
 30
0.0
  0
SPLINE
  5
154
100
AcDbEntity
  8
Layer_1
 62
4
100
AcDbSpline
 70
8
 71
3
 72
8
 73
4
 74
0
 40
0
 40
0
 40
0
 40
0
 40
1
 40
1
 40
1
 40
1
 10
238.300302
 20
94.513299
 30
0.0
 10
238.848994
 20
93.964599
 30
0.0
 10
239.593293
 20
93.656299
 30
0.0
 10
240.369288
 20
93.656299
 30
0.0
  0
LINE
  5
155
100
AcDbEntity
  8
Layer_1
 62
4
100
AcDbLine
 10
237.443291
 20
96.582296
 30
0.0
 11
237.443291
 21
97.507894
 31
0.0
  0
SPLINE
  5
156
100
AcDbEntity
  8
Layer_1
 62
4
100
AcDbSpline
 70
8
 71
3
 72
8
 73
4
 74
0
 40
0
 40
0
 40
0
 40
0
 40
1
 40
1
 40
1
 40
1
 10
237.443291
 20
97.507894
 30
0.0
 10
237.443291
 20
98.323194
 30
0.0
 10
237.119389
 20
99.105092
 30
0.0
 10
236.542889
 20
99.681491
 30
0.0
  0
SPLINE
  5
157
100
AcDbEntity
  8
Layer_1
 62
4
100
AcDbSpline
 70
8
 71
3
 72
8
 73
4
 74
0
 40
0
 40
0
 40
0
 40
0
 40
1
 40
1
 40
1
 40
1
 10
236.542889
 20
99.681491
 30
0.0
 10
235.966495
 20
100.257991
 30
0.0
 10
235.184599
 20
100.581891
 30
0.0
 10
234.369313
 20
100.581891
 30
0.0
  0
SPLINE
  5
158
100
AcDbEntity
  8
Layer_1
 62
4
100
AcDbSpline
 70
8
 71
3
 72
8
 73
4
 74
0
 40
0
 40
0
 40
0
 40
0
 40
1
 40
1
 40
1
 40
1
 10
-52.425469
 20
206.503483
 30
0.0
 10
-52.425469
 20
207.369315
 30
0.0
 10
-53.127302
 20
208.071124
 30
0.0
 10
-53.993097
 20
208.071124
 30
0.0
  0
SPLINE
  5
159
100
AcDbEntity
  8
Layer_1
 62
4
100
AcDbSpline
 70
8
 71
3
 72
8
 73
4
 74
0
 40
0
 40
0
 40
0
 40
0
 40
1
 40
1
 40
1
 40
1
 10
-53.993097
 20
208.071124
 30
0.0
 10
-54.858918
 20
208.071124
 30
0.0
 10
-55.560751
 20
207.369315
 30
0.0
 10
-55.560751
 20
206.503483
 30
0.0
  0
SPLINE
  5
15a
100
AcDbEntity
  8
Layer_1
 62
4
100
AcDbSpline
 70
8
 71
3
 72
8
 73
4
 74
0
 40
0
 40
0
 40
0
 40
0
 40
1
 40
1
 40
1
 40
1
 10
-55.560751
 20
206.503483
 30
0.0
 10
-55.560751
 20
205.637651
 30
0.0
 10
-54.858918
 20
204.935842
 30
0.0
 10
-53.993097
 20
204.935842
 30
0.0
  0
SPLINE
  5
15b
100
AcDbEntity
  8
Layer_1
 62
4
100
AcDbSpline
 70
8
 71
3
 72
8
 73
4
 74
0
 40
0
 40
0
 40
0
 40
0
 40
1
 40
1
 40
1
 40
1
 10
-53.993097
 20
204.935842
 30
0.0
 10
-53.127302
 20
204.935842
 30
0.0
 10
-52.425469
 20
205.637651
 30
0.0
 10
-52.425469
 20
206.503483
 30
0.0
  0
LINE
  5
15c
100
AcDbEntity
  8
Layer_1
 62
4
100
AcDbLine
 10
-52.425469
 20
206.503483
 30
0.0
 11
-52.425469
 21
206.503483
 31
0.0
  0
SPLINE
  5
15d
100
AcDbEntity
  8
Layer_1
 62
4
100
AcDbSpline
 70
8
 71
3
 72
8
 73
4
 74
0
 40
0
 40
0
 40
0
 40
0
 40
1
 40
1
 40
1
 40
1
 10
35.548537
 20
209.979059
 30
0.0
 10
35.548537
 20
210.844891
 30
0.0
 10
34.846704
 20
211.546700
 30
0.0
 10
33.980910
 20
211.546700
 30
0.0
  0
SPLINE
  5
15e
100
AcDbEntity
  8
Layer_1
 62
4
100
AcDbSpline
 70
8
 71
3
 72
8
 73
4
 74
0
 40
0
 40
0
 40
0
 40
0
 40
1
 40
1
 40
1
 40
1
 10
33.980910
 20
211.546700
 30
0.0
 10
33.115088
 20
211.546700
 30
0.0
 10
32.413255
 20
210.844891
 30
0.0
 10
32.413255
 20
209.979059
 30
0.0
  0
SPLINE
  5
15f
100
AcDbEntity
  8
Layer_1
 62
4
100
AcDbSpline
 70
8
 71
3
 72
8
 73
4
 74
0
 40
0
 40
0
 40
0
 40
0
 40
1
 40
1
 40
1
 40
1
 10
32.413255
 20
209.979059
 30
0.0
 10
32.413255
 20
209.113227
 30
0.0
 10
33.115088
 20
208.411418
 30
0.0
 10
33.980910
 20
208.411418
 30
0.0
  0
SPLINE
  5
160
100
AcDbEntity
  8
Layer_1
 62
4
100
AcDbSpline
 70
8
 71
3
 72
8
 73
4
 74
0
 40
0
 40
0
 40
0
 40
0
 40
1
 40
1
 40
1
 40
1
 10
33.980910
 20
208.411418
 30
0.0
 10
34.846704
 20
208.411418
 30
0.0
 10
35.548537
 20
209.113227
 30
0.0
 10
35.548537
 20
209.979059
 30
0.0
  0
LINE
  5
161
100
AcDbEntity
  8
Layer_1
 62
4
100
AcDbLine
 10
35.548537
 20
209.979059
 30
0.0
 11
35.548537
 21
209.979059
 31
0.0
  0
SPLINE
  5
162
100
AcDbEntity
  8
Layer_1
 62
4
100
AcDbSpline
 70
8
 71
3
 72
8
 73
4
 74
0
 40
0
 40
0
 40
0
 40
0
 40
1
 40
1
 40
1
 40
1
 10
35.548537
 20
93.154022
 30
0.0
 10
35.548537
 20
94.019854
 30
0.0
 10
34.846704
 20
94.721664
 30
0.0
 10
33.980910
 20
94.721664
 30
0.0
  0
SPLINE
  5
163
100
AcDbEntity
  8
Layer_1
 62
4
100
AcDbSpline
 70
8
 71
3
 72
8
 73
4
 74
0
 40
0
 40
0
 40
0
 40
0
 40
1
 40
1
 40
1
 40
1
 10
33.980910
 20
94.721664
 30
0.0
 10
33.115088
 20
94.721664
 30
0.0
 10
32.413255
 20
94.019854
 30
0.0
 10
32.413255
 20
93.154022
 30
0.0
  0
SPLINE
  5
164
100
AcDbEntity
  8
Layer_1
 62
4
100
AcDbSpline
 70
8
 71
3
 72
8
 73
4
 74
0
 40
0
 40
0
 40
0
 40
0
 40
1
 40
1
 40
1
 40
1
 10
32.413255
 20
93.154022
 30
0.0
 10
32.413255
 20
92.288190
 30
0.0
 10
33.115088
 20
91.586381
 30
0.0
 10
33.980910
 20
91.586381
 30
0.0
  0
SPLINE
  5
165
100
AcDbEntity
  8
Layer_1
 62
4
100
AcDbSpline
 70
8
 71
3
 72
8
 73
4
 74
0
 40
0
 40
0
 40
0
 40
0
 40
1
 40
1
 40
1
 40
1
 10
33.980910
 20
91.586381
 30
0.0
 10
34.846704
 20
91.586381
 30
0.0
 10
35.548537
 20
92.288190
 30
0.0
 10
35.548537
 20
93.154022
 30
0.0
  0
LINE
  5
166
100
AcDbEntity
  8
Layer_1
 62
4
100
AcDbLine
 10
35.548537
 20
93.154022
 30
0.0
 11
35.548537
 21
93.154022
 31
0.0
  0
SPLINE
  5
167
100
AcDbEntity
  8
Layer_1
 62
4
100
AcDbSpline
 70
8
 71
3
 72
8
 73
4
 74
0
 40
0
 40
0
 40
0
 40
0
 40
1
 40
1
 40
1
 40
1
 10
-52.426660
 20
180.927205
 30
0.0
 10
-52.426660
 20
181.793037
 30
0.0
 10
-53.128492
 20
182.494846
 30
0.0
 10
-53.994287
 20
182.494846
 30
0.0
  0
SPLINE
  5
168
100
AcDbEntity
  8
Layer_1
 62
4
100
AcDbSpline
 70
8
 71
3
 72
8
 73
4
 74
0
 40
0
 40
0
 40
0
 40
0
 40
1
 40
1
 40
1
 40
1
 10
-53.994287
 20
182.494846
 30
0.0
 10
-54.860109
 20
182.494846
 30
0.0
 10
-55.561942
 20
181.793037
 30
0.0
 10
-55.561942
 20
180.927205
 30
0.0
  0
SPLINE
  5
169
100
AcDbEntity
  8
Layer_1
 62
4
100
AcDbSpline
 70
8
 71
3
 72
8
 73
4
 74
0
 40
0
 40
0
 40
0
 40
0
 40
1
 40
1
 40
1
 40
1
 10
-55.561942
 20
180.927205
 30
0.0
 10
-55.561942
 20
180.061373
 30
0.0
 10
-54.860109
 20
179.359564
 30
0.0
 10
-53.994287
 20
179.359564
 30
0.0
  0
SPLINE
  5
16a
100
AcDbEntity
  8
Layer_1
 62
4
100
AcDbSpline
 70
8
 71
3
 72
8
 73
4
 74
0
 40
0
 40
0
 40
0
 40
0
 40
1
 40
1
 40
1
 40
1
 10
-53.994287
 20
179.359564
 30
0.0
 10
-53.128492
 20
179.359564
 30
0.0
 10
-52.426660
 20
180.061373
 30
0.0
 10
-52.426660
 20
180.927205
 30
0.0
  0
LINE
  5
16b
100
AcDbEntity
  8
Layer_1
 62
4
100
AcDbLine
 10
-52.426660
 20
180.927205
 30
0.0
 11
-52.426660
 21
180.927205
 31
0.0
  0
SPLINE
  5
16c
100
AcDbEntity
  8
Layer_1
 62
4
100
AcDbSpline
 70
8
 71
3
 72
8
 73
4
 74
0
 40
0
 40
0
 40
0
 40
0
 40
1
 40
1
 40
1
 40
1
 10
-52.427612
 20
99.445851
 30
0.0
 10
-52.427612
 20
98.580003
 30
0.0
 10
-53.129418
 20
97.878184
 30
0.0
 10
-53.995266
 20
97.878184
 30
0.0
  0
SPLINE
  5
16d
100
AcDbEntity
  8
Layer_1
 62
4
100
AcDbSpline
 70
8
 71
3
 72
8
 73
4
 74
0
 40
0
 40
0
 40
0
 40
0
 40
1
 40
1
 40
1
 40
1
 10
-53.995266
 20
97.878184
 30
0.0
 10
-54.861141
 20
97.878184
 30
0.0
 10
-55.562947
 20
98.580003
 30
0.0
 10
-55.562947
 20
99.445851
 30
0.0
  0
SPLINE
  5
16e
100
AcDbEntity
  8
Layer_1
 62
4
100
AcDbSpline
 70
8
 71
3
 72
8
 73
4
 74
0
 40
0
 40
0
 40
0
 40
0
 40
1
 40
1
 40
1
 40
1
 10
-55.562947
 20
99.445851
 30
0.0
 10
-55.562947
 20
100.311699
 30
0.0
 10
-54.861141
 20
101.013519
 30
0.0
 10
-53.995266
 20
101.013519
 30
0.0
  0
SPLINE
  5
16f
100
AcDbEntity
  8
Layer_1
 62
4
100
AcDbSpline
 70
8
 71
3
 72
8
 73
4
 74
0
 40
0
 40
0
 40
0
 40
0
 40
1
 40
1
 40
1
 40
1
 10
-53.995266
 20
101.013519
 30
0.0
 10
-53.129418
 20
101.013519
 30
0.0
 10
-52.427612
 20
100.311699
 30
0.0
 10
-52.427612
 20
99.445851
 30
0.0
  0
LINE
  5
170
100
AcDbEntity
  8
Layer_1
 62
4
100
AcDbLine
 10
-52.427612
 20
99.445851
 30
0.0
 11
-52.427612
 21
99.445851
 31
0.0
  0
SPLINE
  5
171
100
AcDbEntity
  8
Layer_1
 62
4
100
AcDbSpline
 70
8
 71
3
 72
8
 73
4
 74
0
 40
0
 40
0
 40
0
 40
0
 40
1
 40
1
 40
1
 40
1
 10
268.352288
 20
206.532460
 30
0.0
 10
268.352288
 20
207.398292
 30
0.0
 10
269.054121
 20
208.100101
 30
0.0
 10
269.919916
 20
208.100101
 30
0.0
  0
SPLINE
  5
172
100
AcDbEntity
  8
Layer_1
 62
4
100
AcDbSpline
 70
8
 71
3
 72
8
 73
4
 74
0
 40
0
 40
0
 40
0
 40
0
 40
1
 40
1
 40
1
 40
1
 10
269.919916
 20
208.100101
 30
0.0
 10
270.785737
 20
208.100101
 30
0.0
 10
271.487570
 20
207.398292
 30
0.0
 10
271.487570
 20
206.532460
 30
0.0
  0
SPLINE
  5
173
100
AcDbEntity
  8
Layer_1
 62
4
100
AcDbSpline
 70
8
 71
3
 72
8
 73
4
 74
0
 40
0
 40
0
 40
0
 40
0
 40
1
 40
1
 40
1
 40
1
 10
271.487570
 20
206.532460
 30
0.0
 10
271.487570
 20
205.666628
 30
0.0
 10
270.785737
 20
204.964819
 30
0.0
 10
269.919916
 20
204.964819
 30
0.0
  0
SPLINE
  5
174
100
AcDbEntity
  8
Layer_1
 62
4
100
AcDbSpline
 70
8
 71
3
 72
8
 73
4
 74
0
 40
0
 40
0
 40
0
 40
0
 40
1
 40
1
 40
1
 40
1
 10
269.919916
 20
204.964819
 30
0.0
 10
269.054121
 20
204.964819
 30
0.0
 10
268.352288
 20
205.666628
 30
0.0
 10
268.352288
 20
206.532460
 30
0.0
  0
LINE
  5
175
100
AcDbEntity
  8
Layer_1
 62
4
100
AcDbLine
 10
268.352288
 20
206.532460
 30
0.0
 11
268.352288
 21
206.532460
 31
0.0
  0
SPLINE
  5
176
100
AcDbEntity
  8
Layer_1
 62
4
100
AcDbSpline
 70
8
 71
3
 72
8
 73
4
 74
0
 40
0
 40
0
 40
0
 40
0
 40
1
 40
1
 40
1
 40
1
 10
180.378282
 20
209.979059
 30
0.0
 10
180.378282
 20
210.844891
 30
0.0
 10
181.080115
 20
211.546700
 30
0.0
 10
181.945910
 20
211.546700
 30
0.0
  0
SPLINE
  5
177
100
AcDbEntity
  8
Layer_1
 62
4
100
AcDbSpline
 70
8
 71
3
 72
8
 73
4
 74
0
 40
0
 40
0
 40
0
 40
0
 40
1
 40
1
 40
1
 40
1
 10
181.945910
 20
211.546700
 30
0.0
 10
182.811731
 20
211.546700
 30
0.0
 10
183.513564
 20
210.844891
 30
0.0
 10
183.513564
 20
209.979059
 30
0.0
  0
SPLINE
  5
178
100
AcDbEntity
  8
Layer_1
 62
4
100
AcDbSpline
 70
8
 71
3
 72
8
 73
4
 74
0
 40
0
 40
0
 40
0
 40
0
 40
1
 40
1
 40
1
 40
1
 10
183.513564
 20
209.979059
 30
0.0
 10
183.513564
 20
209.113227
 30
0.0
 10
182.811731
 20
208.411418
 30
0.0
 10
181.945910
 20
208.411418
 30
0.0
  0
SPLINE
  5
179
100
AcDbEntity
  8
Layer_1
 62
4
100
AcDbSpline
 70
8
 71
3
 72
8
 73
4
 74
0
 40
0
 40
0
 40
0
 40
0
 40
1
 40
1
 40
1
 40
1
 10
181.945910
 20
208.411418
 30
0.0
 10
181.080115
 20
208.411418
 30
0.0
 10
180.378282
 20
209.113227
 30
0.0
 10
180.378282
 20
209.979059
 30
0.0
  0
LINE
  5
17a
100
AcDbEntity
  8
Layer_1
 62
4
100
AcDbLine
 10
180.378282
 20
209.979059
 30
0.0
 11
180.378282
 21
209.979059
 31
0.0
  0
SPLINE
  5
17b
100
AcDbEntity
  8
Layer_1
 62
4
100
AcDbSpline
 70
8
 71
3
 72
8
 73
4
 74
0
 40
0
 40
0
 40
0
 40
0
 40
1
 40
1
 40
1
 40
1
 10
180.378282
 20
93.154022
 30
0.0
 10
180.378282
 20
94.019854
 30
0.0
 10
181.080115
 20
94.721664
 30
0.0
 10
181.945910
 20
94.721664
 30
0.0
  0
SPLINE
  5
17c
100
AcDbEntity
  8
Layer_1
 62
4
100
AcDbSpline
 70
8
 71
3
 72
8
 73
4
 74
0
 40
0
 40
0
 40
0
 40
0
 40
1
 40
1
 40
1
 40
1
 10
181.945910
 20
94.721664
 30
0.0
 10
182.811731
 20
94.721664
 30
0.0
 10
183.513564
 20
94.019854
 30
0.0
 10
183.513564
 20
93.154022
 30
0.0
  0
SPLINE
  5
17d
100
AcDbEntity
  8
Layer_1
 62
4
100
AcDbSpline
 70
8
 71
3
 72
8
 73
4
 74
0
 40
0
 40
0
 40
0
 40
0
 40
1
 40
1
 40
1
 40
1
 10
183.513564
 20
93.154022
 30
0.0
 10
183.513564
 20
92.288190
 30
0.0
 10
182.811731
 20
91.586381
 30
0.0
 10
181.945910
 20
91.586381
 30
0.0
  0
SPLINE
  5
17e
100
AcDbEntity
  8
Layer_1
 62
4
100
AcDbSpline
 70
8
 71
3
 72
8
 73
4
 74
0
 40
0
 40
0
 40
0
 40
0
 40
1
 40
1
 40
1
 40
1
 10
181.945910
 20
91.586381
 30
0.0
 10
181.080115
 20
91.586381
 30
0.0
 10
180.378282
 20
92.288190
 30
0.0
 10
180.378282
 20
93.154022
 30
0.0
  0
LINE
  5
17f
100
AcDbEntity
  8
Layer_1
 62
4
100
AcDbLine
 10
180.378282
 20
93.154022
 30
0.0
 11
180.378282
 21
93.154022
 31
0.0
  0
SPLINE
  5
180
100
AcDbEntity
  8
Layer_1
 62
4
100
AcDbSpline
 70
8
 71
3
 72
8
 73
4
 74
0
 40
0
 40
0
 40
0
 40
0
 40
1
 40
1
 40
1
 40
1
 10
268.351412
 20
180.927205
 30
0.0
 10
268.351412
 20
181.793037
 30
0.0
 10
269.053245
 20
182.494846
 30
0.0
 10
269.919040
 20
182.494846
 30
0.0
  0
SPLINE
  5
181
100
AcDbEntity
  8
Layer_1
 62
4
100
AcDbSpline
 70
8
 71
3
 72
8
 73
4
 74
0
 40
0
 40
0
 40
0
 40
0
 40
1
 40
1
 40
1
 40
1
 10
269.919040
 20
182.494846
 30
0.0
 10
270.784861
 20
182.494846
 30
0.0
 10
271.486694
 20
181.793037
 30
0.0
 10
271.486694
 20
180.927205
 30
0.0
  0
SPLINE
  5
182
100
AcDbEntity
  8
Layer_1
 62
4
100
AcDbSpline
 70
8
 71
3
 72
8
 73
4
 74
0
 40
0
 40
0
 40
0
 40
0
 40
1
 40
1
 40
1
 40
1
 10
271.486694
 20
180.927205
 30
0.0
 10
271.486694
 20
180.061373
 30
0.0
 10
270.784861
 20
179.359564
 30
0.0
 10
269.919040
 20
179.359564
 30
0.0
  0
SPLINE
  5
183
100
AcDbEntity
  8
Layer_1
 62
4
100
AcDbSpline
 70
8
 71
3
 72
8
 73
4
 74
0
 40
0
 40
0
 40
0
 40
0
 40
1
 40
1
 40
1
 40
1
 10
269.919040
 20
179.359564
 30
0.0
 10
269.053245
 20
179.359564
 30
0.0
 10
268.351412
 20
180.061373
 30
0.0
 10
268.351412
 20
180.927205
 30
0.0
  0
LINE
  5
184
100
AcDbEntity
  8
Layer_1
 62
4
100
AcDbLine
 10
268.351412
 20
180.927205
 30
0.0
 11
268.351412
 21
180.927205
 31
0.0
  0
SPLINE
  5
185
100
AcDbEntity
  8
Layer_1
 62
4
100
AcDbSpline
 70
8
 71
3
 72
8
 73
4
 74
0
 40
0
 40
0
 40
0
 40
0
 40
1
 40
1
 40
1
 40
1
 10
268.352365
 20
99.445851
 30
0.0
 10
268.352365
 20
98.580003
 30
0.0
 10
269.054171
 20
97.878184
 30
0.0
 10
269.920019
 20
97.878184
 30
0.0
  0
SPLINE
  5
186
100
AcDbEntity
  8
Layer_1
 62
4
100
AcDbSpline
 70
8
 71
3
 72
8
 73
4
 74
0
 40
0
 40
0
 40
0
 40
0
 40
1
 40
1
 40
1
 40
1
 10
269.920019
 20
97.878184
 30
0.0
 10
270.785893
 20
97.878184
 30
0.0
 10
271.487700
 20
98.580003
 30
0.0
 10
271.487700
 20
99.445851
 30
0.0
  0
SPLINE
  5
187
100
AcDbEntity
  8
Layer_1
 62
4
100
AcDbSpline
 70
8
 71
3
 72
8
 73
4
 74
0
 40
0
 40
0
 40
0
 40
0
 40
1
 40
1
 40
1
 40
1
 10
271.487700
 20
99.445851
 30
0.0
 10
271.487700
 20
100.311699
 30
0.0
 10
270.785893
 20
101.013519
 30
0.0
 10
269.920019
 20
101.013519
 30
0.0
  0
SPLINE
  5
188
100
AcDbEntity
  8
Layer_1
 62
4
100
AcDbSpline
 70
8
 71
3
 72
8
 73
4
 74
0
 40
0
 40
0
 40
0
 40
0
 40
1
 40
1
 40
1
 40
1
 10
269.920019
 20
101.013519
 30
0.0
 10
269.054171
 20
101.013519
 30
0.0
 10
268.352365
 20
100.311699
 30
0.0
 10
268.352365
 20
99.445851
 30
0.0
  0
LINE
  5
189
100
AcDbEntity
  8
Layer_1
 62
4
100
AcDbLine
 10
268.352365
 20
99.445851
 30
0.0
 11
268.352365
 21
99.445851
 31
0.0
  0
LINE
  5
18a
100
AcDbEntity
  8
Layer_1
 62
4
100
AcDbLine
 10
-18.785043
 20
204.070754
 30
0.0
 11
-17.359919
 21
204.070754
 31
0.0
  0
LINE
  5
18b
100
AcDbEntity
  8
Layer_1
 62
4
100
AcDbLine
 10
-17.359919
 20
204.070754
 30
0.0
 11
-15.631981
 21
204.067954
 31
0.0
  0
SPLINE
  5
18c
100
AcDbEntity
  8
Layer_1
 62
4
100
AcDbSpline
 70
8
 71
3
 72
8
 73
4
 74
0
 40
0
 40
0
 40
0
 40
0
 40
1
 40
1
 40
1
 40
1
 10
-15.631981
 20
204.067954
 30
0.0
 10
-14.855986
 20
204.067954
 30
0.0
 10
-14.111686
 20
204.376269
 30
0.0
 10
-13.562994
 20
204.924965
 30
0.0
  0
SPLINE
  5
18d
100
AcDbEntity
  8
Layer_1
 62
4
100
AcDbSpline
 70
8
 71
3
 72
8
 73
4
 74
0
 40
0
 40
0
 40
0
 40
0
 40
1
 40
1
 40
1
 40
1
 10
-13.562994
 20
204.924965
 30
0.0
 10
-13.014302
 20
205.473660
 30
0.0
 10
-12.705984
 20
206.217953
 30
0.0
 10
-12.705984
 20
206.993943
 30
0.0
  0
LINE
  5
18e
100
AcDbEntity
  8
Layer_1
 62
4
100
AcDbLine
 10
-12.705984
 20
206.993943
 30
0.0
 11
-12.705984
 21
213.195107
 31
0.0
  0
LINE
  5
18f
100
AcDbEntity
  8
Layer_1
 62
4
100
AcDbLine
 10
-12.705984
 20
213.195107
 30
0.0
 11
-12.705984
 21
217.195099
 31
0.0
  0
LINE
  5
190
100
AcDbEntity
  8
Layer_1
 62
4
100
AcDbLine
 10
-12.705984
 20
217.195099
 30
0.0
 11
-12.705984
 21
221.180381
 31
0.0
  0
SPLINE
  5
191
100
AcDbEntity
  8
Layer_1
 62
4
100
AcDbSpline
 70
8
 71
3
 72
8
 73
4
 74
0
 40
0
 40
0
 40
0
 40
0
 40
1
 40
1
 40
1
 40
1
 10
-12.705984
 20
221.180381
 30
0.0
 10
-12.705984
 20
221.956403
 30
0.0
 10
-13.014302
 20
222.700702
 30
0.0
 10
-13.562994
 20
223.249394
 30
0.0
  0
SPLINE
  5
192
100
AcDbEntity
  8
Layer_1
 62
4
100
AcDbSpline
 70
8
 71
3
 72
8
 73
4
 74
0
 40
0
 40
0
 40
0
 40
0
 40
1
 40
1
 40
1
 40
1
 10
-13.562994
 20
223.249394
 30
0.0
 10
-14.111686
 20
223.798086
 30
0.0
 10
-14.855986
 20
224.106378
 30
0.0
 10
-15.631981
 20
224.106378
 30
0.0
  0
LINE
  5
193
100
AcDbEntity
  8
Layer_1
 62
4
100
AcDbLine
 10
-15.631981
 20
224.106378
 30
0.0
 11
-18.014736
 21
224.106907
 31
0.0
  0
LINE
  5
194
100
AcDbEntity
  8
Layer_1
 62
4
100
AcDbLine
 10
-18.014736
 20
224.106907
 30
0.0
 11
-62.543362
 21
224.106910
 31
0.0
  0
SPLINE
  5
195
100
AcDbEntity
  8
Layer_1
 62
4
100
AcDbSpline
 70
8
 71
3
 72
8
 73
4
 74
0
 40
0
 40
0
 40
0
 40
0
 40
1
 40
1
 40
1
 40
1
 10
-62.543362
 20
224.106910
 30
0.0
 10
-63.810022
 20
224.106910
 30
0.0
 10
-65.037107
 20
223.665599
 30
0.0
 10
-66.013630
 20
222.858857
 30
0.0
  0
LINE
  5
196
100
AcDbEntity
  8
Layer_1
 62
4
100
AcDbLine
 10
-66.013630
 20
222.858857
 30
0.0
 11
-69.721771
 21
219.795423
 31
0.0
  0
SPLINE
  5
197
100
AcDbEntity
  8
Layer_1
 62
4
100
AcDbSpline
 70
8
 71
3
 72
8
 73
4
 74
0
 40
0
 40
0
 40
0
 40
0
 40
1
 40
1
 40
1
 40
1
 10
-69.721771
 20
219.795423
 30
0.0
 10
-70.593596
 20
219.075176
 30
0.0
 10
-71.300509
 20
217.574560
 30
0.0
 10
-71.300699
 20
216.443704
 30
0.0
  0
SPLINE
  5
198
100
AcDbEntity
  8
Layer_1
 62
4
100
AcDbSpline
 70
8
 71
3
 72
8
 73
4
 74
0
 40
0
 40
0
 40
0
 40
0
 40
1
 40
1
 40
1
 40
1
 10
-71.300699
 20
216.443704
 30
0.0
 10
-71.322649
 20
85.880480
 30
0.0
 10
-71.250719
 20
169.517696
 30
0.0
 10
-71.280859
 20
90.906074
 30
0.0
  0
SPLINE
  5
199
100
AcDbEntity
  8
Layer_1
 62
4
100
AcDbSpline
 70
8
 71
3
 72
8
 73
4
 74
0
 40
0
 40
0
 40
0
 40
0
 40
1
 40
1
 40
1
 40
1
 10
-71.280859
 20
90.906074
 30
0.0
 10
-71.281387
 20
89.529136
 30
0.0
 10
-70.383128
 20
87.750818
 30
0.0
 10
-69.274525
 20
86.934109
 30
0.0
  0
LINE
  5
19a
100
AcDbEntity
  8
Layer_1
 62
4
100
AcDbLine
 10
-69.274525
 20
86.934109
 30
0.0
 11
-56.991266
 21
77.884960
 31
0.0
  0
SPLINE
  5
19b
100
AcDbEntity
  8
Layer_1
 62
4
100
AcDbSpline
 70
8
 71
3
 72
8
 73
4
 74
0
 40
0
 40
0
 40
0
 40
0
 40
1
 40
1
 40
1
 40
1
 10
-56.991266
 20
77.884960
 30
0.0
 10
-55.942718
 20
77.112493
 30
0.0
 10
-54.669460
 20
76.705836
 30
0.0
 10
-53.367274
 20
76.727522
 30
0.0
  0
LINE
  5
19c
100
AcDbEntity
  8
Layer_1
 62
4
100
AcDbLine
 10
-53.367274
 20
76.727522
 30
0.0
 11
-52.173935
 21
76.747422
 31
0.0
  0
LINE
  5
19d
100
AcDbEntity
  8
Layer_1
 62
4
100
AcDbLine
 10
-52.173935
 20
76.747422
 30
0.0
 11
267.746146
 21
76.747402
 31
0.0
  0
LINE
  5
19e
100
AcDbEntity
  8
Layer_1
 62
4
100
AcDbLine
 10
267.746146
 20
76.747402
 30
0.0
 11
268.912274
 21
76.728002
 31
0.0
  0
SPLINE
  5
19f
100
AcDbEntity
  8
Layer_1
 62
4
100
AcDbSpline
 70
8
 71
3
 72
8
 73
4
 74
0
 40
0
 40
0
 40
0
 40
0
 40
1
 40
1
 40
1
 40
1
 10
268.912274
 20
76.728002
 30
0.0
 10
270.232098
 20
76.706022
 30
0.0
 10
271.522601
 20
77.118188
 30
0.0
 10
272.585349
 20
77.901120
 30
0.0
  0
LINE
  5
1a0
100
AcDbEntity
  8
Layer_1
 62
4
100
AcDbLine
 10
272.585349
 20
77.901120
 30
0.0
 11
285.247864
 21
87.229679
 31
0.0
  0
SPLINE
  5
1a1
100
AcDbEntity
  8
Layer_1
 62
4
100
AcDbSpline
 70
8
 71
3
 72
8
 73
4
 74
0
 40
0
 40
0
 40
0
 40
0
 40
1
 40
1
 40
1
 40
1
 10
285.247864
 20
87.229679
 30
0.0
 10
286.134913
 20
87.883168
 30
0.0
 10
286.853652
 20
89.306086
 30
0.0
 10
286.853232
 20
90.407855
 30
0.0
  0
SPLINE
  5
1a2
100
AcDbEntity
  8
Layer_1
 62
4
100
AcDbSpline
 70
8
 71
3
 72
8
 73
4
 74
0
 40
0
 40
0
 40
0
 40
0
 40
1
 40
1
 40
1
 40
1
 10
286.853232
 20
90.407855
 30
0.0
 10
286.822732
 20
169.866426
 30
0.0
 10
286.895032
 20
85.614581
 30
0.0
 10
286.872932
 20
216.423421
 30
0.0
  0
SPLINE
  5
1a3
100
AcDbEntity
  8
Layer_1
 62
4
100
AcDbSpline
 70
8
 71
3
 72
8
 73
4
 74
0
 40
0
 40
0
 40
0
 40
0
 40
1
 40
1
 40
1
 40
1
 10
286.872932
 20
216.423421
 30
0.0
 10
286.872742
 20
217.565493
 30
0.0
 10
286.158813
 20
219.081002
 30
0.0
 10
285.278324
 20
219.808404
 30
0.0
  0
LINE
  5
1a4
100
AcDbEntity
  8
Layer_1
 62
4
100
AcDbLine
 10
285.278324
 20
219.808404
 30
0.0
 11
281.606848
 21
222.841560
 31
0.0
  0
SPLINE
  5
1a5
100
AcDbEntity
  8
Layer_1
 62
4
100
AcDbSpline
 70
8
 71
3
 72
8
 73
4
 74
0
 40
0
 40
0
 40
0
 40
0
 40
1
 40
1
 40
1
 40
1
 10
281.606848
 20
222.841560
 30
0.0
 10
280.616773
 20
223.659502
 30
0.0
 10
279.372655
 20
224.106939
 30
0.0
 10
278.088413
 20
224.106939
 30
0.0
  0
LINE
  5
1a6
100
AcDbEntity
  8
Layer_1
 62
4
100
AcDbLine
 10
278.088413
 20
224.106939
 30
0.0
 11
10.796761
 21
224.106955
 31
0.0
  0
LINE
  5
1a7
100
AcDbEntity
  8
Layer_1
 62
4
100
AcDbLine
 10
10.796761
 20
224.106955
 30
0.0
 11
7.217282
 21
224.105355
 31
0.0
  0
SPLINE
  5
1a8
100
AcDbEntity
  8
Layer_1
 62
4
100
AcDbSpline
 70
8
 71
3
 72
8
 73
4
 74
0
 40
0
 40
0
 40
0
 40
0
 40
1
 40
1
 40
1
 40
1
 10
7.217282
 20
224.105355
 30
0.0
 10
6.441286
 20
224.105355
 30
0.0
 10
5.696988
 20
223.797063
 30
0.0
 10
5.148296
 20
223.248371
 30
0.0
  0
SPLINE
  5
1a9
100
AcDbEntity
  8
Layer_1
 62
4
100
AcDbSpline
 70
8
 71
3
 72
8
 73
4
 74
0
 40
0
 40
0
 40
0
 40
0
 40
1
 40
1
 40
1
 40
1
 10
5.148296
 20
223.248371
 30
0.0
 10
4.599603
 20
222.699679
 30
0.0
 10
4.291285
 20
221.955381
 30
0.0
 10
4.291285
 20
221.179358
 30
0.0
  0
LINE
  5
1aa
100
AcDbEntity
  8
Layer_1
 62
4
100
AcDbLine
 10
4.291285
 20
221.179358
 30
0.0
 11
4.291285
 21
217.195111
 31
0.0
  0
LINE
  5
1ab
100
AcDbEntity
  8
Layer_1
 62
4
100
AcDbLine
 10
4.291285
 20
217.195111
 30
0.0
 11
4.291285
 21
213.195119
 31
0.0
  0
LINE
  5
1ac
100
AcDbEntity
  8
Layer_1
 62
4
100
AcDbLine
 10
4.291285
 20
213.195119
 30
0.0
 11
4.291285
 21
206.996021
 31
0.0
  0
SPLINE
  5
1ad
100
AcDbEntity
  8
Layer_1
 62
4
100
AcDbSpline
 70
8
 71
3
 72
8
 73
4
 74
0
 40
0
 40
0
 40
0
 40
0
 40
1
 40
1
 40
1
 40
1
 10
4.291285
 20
206.996021
 30
0.0
 10
4.291285
 20
206.220026
 30
0.0
 10
4.599603
 20
205.475727
 30
0.0
 10
5.148296
 20
204.927035
 30
0.0
  0
SPLINE
  5
1ae
100
AcDbEntity
  8
Layer_1
 62
4
100
AcDbSpline
 70
8
 71
3
 72
8
 73
4
 74
0
 40
0
 40
0
 40
0
 40
0
 40
1
 40
1
 40
1
 40
1
 10
5.148296
 20
204.927035
 30
0.0
 10
5.696988
 20
204.378343
 30
0.0
 10
6.441286
 20
204.070025
 30
0.0
 10
7.217282
 20
204.070025
 30
0.0
  0
LINE
  5
1af
100
AcDbEntity
  8
Layer_1
 62
4
100
AcDbLine
 10
7.217282
 20
204.070025
 30
0.0
 11
11.170984
 21
204.070793
 31
0.0
  0
LINE
  5
1b0
100
AcDbEntity
  8
Layer_1
 62
4
100
AcDbLine
 10
11.170984
 20
204.070793
 30
0.0
 11
99.716621
 21
204.070793
 31
0.0
  0
SPLINE
  5
1b1
100
AcDbEntity
  8
Layer_1
 62
4
100
AcDbSpline
 70
8
 71
3
 72
8
 73
4
 74
0
 40
0
 40
0
 40
0
 40
0
 40
1
 40
1
 40
1
 40
1
 10
99.716621
 20
204.070793
 30
0.0
 10
100.531907
 20
204.070793
 30
0.0
 10
101.313829
 20
204.394693
 30
0.0
 10
101.890224
 20
204.971193
 30
0.0
  0
SPLINE
  5
1b2
100
AcDbEntity
  8
Layer_1
 62
4
100
AcDbSpline
 70
8
 71
3
 72
8
 73
4
 74
0
 40
0
 40
0
 40
0
 40
0
 40
1
 40
1
 40
1
 40
1
 10
101.890224
 20
204.971193
 30
0.0
 10
102.466724
 20
205.547592
 30
0.0
 10
102.790630
 20
206.329491
 30
0.0
 10
102.790630
 20
207.144790
 30
0.0
  0
ENDSEC
  0
SECTION
  2
OBJECTS
  0
DICTIONARY
  5
C
330
0
100
AcDbDictionary
  3
ACAD_GROUP
350
D
  3
ACAD_MLINESTYLE
350
17
  0
DICTIONARY
  5
D
330
C
100
AcDbDictionary
  0
DICTIONARY
  5
1A
330
C
100
AcDbDictionary
  0
DICTIONARY
  5
17
330
C
100
AcDbDictionary
  3
STANDARD
350
18
  0
DICTIONARY
  5
19
330
C
100
AcDbDictionary
  0
ENDSEC
  0
EOF
