  0
SECTION
  2
HEADER
  9
$ACADVER
  1
AC1014
  9
$HANDSEED
  5
FFFF
  9
$INSUNITS
 70
     0
  9
$MEASUREMENT
 70
     1
  0
ENDSEC
  0
SECTION
  2
TABLES
  0
TABLE
  2
VPORT
  5
8
330
0
100
AcDbSymbolTable
 70
     4
  0
VPORT
  5
2E
330
8
100
AcDbSymbolTableRecord
100
AcDbViewportTableRecord
  2
*ACTIVE
 70
     0
 10
0.0
 20
0.0
 11
1.0
 21
1.0
 12
210.0
 22
148.5
 13
0.0
 23
0.0
 14
10.0
 24
10.0
 15
10.0
 25
10.0
 16
0.0
 26
0.0
 36
1.0
 17
0.0
 27
0.0
 37
0.0
 40
341.0
 41
1.24
 42
50.0
 43
0.0
 44
0.0
 50
0.0
 51
0.0
 71
     0
 72
   100
 73
     1
 74
     3
 75
     0
 76
     0
 77
     0
 78
     0
  0
ENDTAB
  0
TABLE
  2
LTYPE
  5
5
330
0
100
AcDbSymbolTable
 70
     1
  0
LTYPE
  5
14
330
5
100
AcDbSymbolTableRecord
100
AcDbLinetypeTableRecord
  2
BYBLOCK
 70
     0
  3

 72
    65
 73
     0
 40
0.0
  0
LTYPE
  5
15
330
5
100
AcDbSymbolTableRecord
100
AcDbLinetypeTableRecord
  2
BYLAYER
 70
     0
  3

 72
    65
 73
     0
 40
0.0
  0
LTYPE
  5
16
330
5
100
AcDbSymbolTableRecord
100
AcDbLinetypeTableRecord
  2
CONTINUOUS
 70
     0
  3
Solid line
 72
    65
 73
     0
 40
0.0
  0
ENDTAB
  0
TABLE
  2
LAYER
  5
2
100
AcDbSymbolTable
 70
2
  0
LAYER
  5
50
100
AcDbSymbolTableRecord
100
AcDbLayerTableRecord
  2
0
 70
0
  6
CONTINUOUS
  0
LAYER
  5
51
100
AcDbSymbolTableRecord
100
AcDbLayerTableRecord
  2
Layer_1
 70
0
  6
CONTINUOUS
  0
ENDTAB
  0
TABLE
  2
STYLE
  5
3
330
0
100
AcDbSymbolTable
 70
     1
  0
STYLE
  5
11
330
3
100
AcDbSymbolTableRecord
100
AcDbTextStyleTableRecord
  2
STANDARD
 70
     0
 40
0.0
 41
1.0
 50
0.0
 71
     0
 42
2.5
  3
txt
  4

  0
ENDTAB
  0
TABLE
  2
VIEW
  5
6
330
0
100
AcDbSymbolTable
 70
     0
  0
ENDTAB
  0
TABLE
  2
UCS
  5
7
330
0
100
AcDbSymbolTable
 70
     0
  0
ENDTAB
  0
TABLE
  2
APPID
  5
9
330
0
100
AcDbSymbolTable
 70
     2
  0
APPID
  5
12
330
9
100
AcDbSymbolTableRecord
100
AcDbRegAppTableRecord
  2
ACAD
 70
     0
  0
ENDTAB
  0
TABLE
  2
DIMSTYLE
  5
A
330
0
100
AcDbSymbolTable
 70
     1
  0
DIMSTYLE
105
27
330
A
100
AcDbSymbolTableRecord
100
AcDbDimStyleTableRecord
  2
ISO-25
 70
     0
  3

  4

  5

  6

  7

 40
1.0
 41
2.5
 42
0.625
 43
3.75
 44
1.25
 45
0.0
 46
0.0
 47
0.0
 48
0.0
140
2.5
141
2.5
142
0.0
143
0.03937007874016
144
1.0
145
0.0
146
1.0
147
0.625
 71
     0
 72
     0
 73
     0
 74
     0
 75
     0
 76
     0
 77
     1
 78
     8
170
     0
171
     3
172
     1
173
     0
174
     0
175
     0
176
     0
177
     0
178
     0
270
     2
271
     2
272
     2
273
     2
274
     3
340
11
275
     0
280
     0
281
     0
282
     0
283
     0
284
     8
285
     0
286
     0
287
     3
288
     0
  0
ENDTAB
  0
TABLE
  2
BLOCK_RECORD
  5
1
330
0
100
AcDbSymbolTable
 70
     1
  0
BLOCK_RECORD
  5
1F
330
1
100
AcDbSymbolTableRecord
100
AcDbBlockTableRecord
  2
*MODEL_SPACE
  0
BLOCK_RECORD
  5
1B
330
1
100
AcDbSymbolTableRecord
100
AcDbBlockTableRecord
  2
*PAPER_SPACE
  0
ENDTAB
  0
ENDSEC
  0
SECTION
  2
BLOCKS
  0
BLOCK
  5
20
330
1F
100
AcDbEntity
  8
0
100
AcDbBlockBegin
  2
*MODEL_SPACE
 70
     0
 10
0.0
 20
0.0
 30
0.0
  3
*MODEL_SPACE
  1

  0
ENDBLK
  5
21
330
1F
100
AcDbEntity
  8
0
100
AcDbBlockEnd
  0
BLOCK
  5
1C
330
1B
100
AcDbEntity
 67
     1
  8
0
100
AcDbBlockBegin
  2
*PAPER_SPACE
  1

  0
ENDBLK
  5
1D
330
1B
100
AcDbEntity
 67
     1
  8
0
100
AcDbBlockEnd
  0
ENDSEC
  0
SECTION
  2
ENTITIES
  0
SPLINE
  5
100
100
AcDbEntity
  8
Layer_1
 62
1
100
AcDbSpline
 70
8
 71
3
 72
8
 73
4
 74
0
 40
0
 40
0
 40
0
 40
0
 40
1
 40
1
 40
1
 40
1
 10
-58.780475
 20
193.798483
 30
0.0
 10
-58.780475
 20
194.664315
 30
0.0
 10
-59.482308
 20
195.366124
 30
0.0
 10
-60.348103
 20
195.366124
 30
0.0
  0
SPLINE
  5
101
100
AcDbEntity
  8
Layer_1
 62
1
100
AcDbSpline
 70
8
 71
3
 72
8
 73
4
 74
0
 40
0
 40
0
 40
0
 40
0
 40
1
 40
1
 40
1
 40
1
 10
-60.348103
 20
195.366124
 30
0.0
 10
-61.213924
 20
195.366124
 30
0.0
 10
-61.915757
 20
194.664315
 30
0.0
 10
-61.915757
 20
193.798483
 30
0.0
  0
SPLINE
  5
102
100
AcDbEntity
  8
Layer_1
 62
1
100
AcDbSpline
 70
8
 71
3
 72
8
 73
4
 74
0
 40
0
 40
0
 40
0
 40
0
 40
1
 40
1
 40
1
 40
1
 10
-61.915757
 20
193.798483
 30
0.0
 10
-61.915757
 20
192.932651
 30
0.0
 10
-61.213924
 20
192.230842
 30
0.0
 10
-60.348103
 20
192.230842
 30
0.0
  0
SPLINE
  5
103
100
AcDbEntity
  8
Layer_1
 62
1
100
AcDbSpline
 70
8
 71
3
 72
8
 73
4
 74
0
 40
0
 40
0
 40
0
 40
0
 40
1
 40
1
 40
1
 40
1
 10
-60.348103
 20
192.230842
 30
0.0
 10
-59.482308
 20
192.230842
 30
0.0
 10
-58.780475
 20
192.932651
 30
0.0
 10
-58.780475
 20
193.798483
 30
0.0
  0
LINE
  5
104
100
AcDbEntity
  8
Layer_1
 62
1
100
AcDbLine
 10
-58.780475
 20
193.798483
 30
0.0
 11
-58.780475
 21
193.798483
 31
0.0
  0
SPLINE
  5
105
100
AcDbEntity
  8
Layer_1
 62
1
100
AcDbSpline
 70
8
 71
3
 72
8
 73
4
 74
0
 40
0
 40
0
 40
0
 40
0
 40
1
 40
1
 40
1
 40
1
 10
29.193532
 20
197.274059
 30
0.0
 10
29.193532
 20
198.139891
 30
0.0
 10
28.491699
 20
198.841700
 30
0.0
 10
27.625904
 20
198.841700
 30
0.0
  0
SPLINE
  5
106
100
AcDbEntity
  8
Layer_1
 62
1
100
AcDbSpline
 70
8
 71
3
 72
8
 73
4
 74
0
 40
0
 40
0
 40
0
 40
0
 40
1
 40
1
 40
1
 40
1
 10
27.625904
 20
198.841700
 30
0.0
 10
26.760082
 20
198.841700
 30
0.0
 10
26.058249
 20
198.139891
 30
0.0
 10
26.058249
 20
197.274059
 30
0.0
  0
SPLINE
  5
107
100
AcDbEntity
  8
Layer_1
 62
1
100
AcDbSpline
 70
8
 71
3
 72
8
 73
4
 74
0
 40
0
 40
0
 40
0
 40
0
 40
1
 40
1
 40
1
 40
1
 10
26.058249
 20
197.274059
 30
0.0
 10
26.058249
 20
196.408227
 30
0.0
 10
26.760082
 20
195.706418
 30
0.0
 10
27.625904
 20
195.706418
 30
0.0
  0
SPLINE
  5
108
100
AcDbEntity
  8
Layer_1
 62
1
100
AcDbSpline
 70
8
 71
3
 72
8
 73
4
 74
0
 40
0
 40
0
 40
0
 40
0
 40
1
 40
1
 40
1
 40
1
 10
27.625904
 20
195.706418
 30
0.0
 10
28.491699
 20
195.706418
 30
0.0
 10
29.193532
 20
196.408227
 30
0.0
 10
29.193532
 20
197.274059
 30
0.0
  0
LINE
  5
109
100
AcDbEntity
  8
Layer_1
 62
1
100
AcDbLine
 10
29.193532
 20
197.274059
 30
0.0
 11
29.193532
 21
197.274059
 31
0.0
  0
SPLINE
  5
10a
100
AcDbEntity
  8
Layer_1
 62
1
100
AcDbSpline
 70
8
 71
3
 72
8
 73
4
 74
0
 40
0
 40
0
 40
0
 40
0
 40
1
 40
1
 40
1
 40
1
 10
28.576101
 20
80.449022
 30
0.0
 10
28.576101
 20
80.973841
 30
0.0
 10
28.150651
 20
81.399241
 30
0.0
 10
27.625904
 20
81.399241
 30
0.0
  0
SPLINE
  5
10b
100
AcDbEntity
  8
Layer_1
 62
1
100
AcDbSpline
 70
8
 71
3
 72
8
 73
4
 74
0
 40
0
 40
0
 40
0
 40
0
 40
1
 40
1
 40
1
 40
1
 10
27.625904
 20
81.399241
 30
0.0
 10
27.101130
 20
81.399241
 30
0.0
 10
26.675680
 20
80.973841
 30
0.0
 10
26.675680
 20
80.449022
 30
0.0
  0
SPLINE
  5
10c
100
AcDbEntity
  8
Layer_1
 62
1
100
AcDbSpline
 70
8
 71
3
 72
8
 73
4
 74
0
 40
0
 40
0
 40
0
 40
0
 40
1
 40
1
 40
1
 40
1
 10
26.675680
 20
80.449022
 30
0.0
 10
26.675680
 20
79.924204
 30
0.0
 10
27.101130
 20
79.498804
 30
0.0
 10
27.625904
 20
79.498804
 30
0.0
  0
SPLINE
  5
10d
100
AcDbEntity
  8
Layer_1
 62
1
100
AcDbSpline
 70
8
 71
3
 72
8
 73
4
 74
0
 40
0
 40
0
 40
0
 40
0
 40
1
 40
1
 40
1
 40
1
 10
27.625904
 20
79.498804
 30
0.0
 10
28.150651
 20
79.498804
 30
0.0
 10
28.576101
 20
79.924204
 30
0.0
 10
28.576101
 20
80.449022
 30
0.0
  0
LINE
  5
10e
100
AcDbEntity
  8
Layer_1
 62
1
100
AcDbLine
 10
28.576101
 20
80.449022
 30
0.0
 11
28.576101
 21
80.449022
 31
0.0
  0
SPLINE
  5
10f
100
AcDbEntity
  8
Layer_1
 62
1
100
AcDbSpline
 70
8
 71
3
 72
8
 73
4
 74
0
 40
0
 40
0
 40
0
 40
0
 40
1
 40
1
 40
1
 40
1
 10
-58.781665
 20
168.222205
 30
0.0
 10
-58.781665
 20
169.088037
 30
0.0
 10
-59.483498
 20
169.789846
 30
0.0
 10
-60.349293
 20
169.789846
 30
0.0
  0
SPLINE
  5
110
100
AcDbEntity
  8
Layer_1
 62
1
100
AcDbSpline
 70
8
 71
3
 72
8
 73
4
 74
0
 40
0
 40
0
 40
0
 40
0
 40
1
 40
1
 40
1
 40
1
 10
-60.349293
 20
169.789846
 30
0.0
 10
-61.215115
 20
169.789846
 30
0.0
 10
-61.916947
 20
169.088037
 30
0.0
 10
-61.916947
 20
168.222205
 30
0.0
  0
SPLINE
  5
111
100
AcDbEntity
  8
Layer_1
 62
1
100
AcDbSpline
 70
8
 71
3
 72
8
 73
4
 74
0
 40
0
 40
0
 40
0
 40
0
 40
1
 40
1
 40
1
 40
1
 10
-61.916947
 20
168.222205
 30
0.0
 10
-61.916947
 20
167.356373
 30
0.0
 10
-61.215115
 20
166.654564
 30
0.0
 10
-60.349293
 20
166.654564
 30
0.0
  0
SPLINE
  5
112
100
AcDbEntity
  8
Layer_1
 62
1
100
AcDbSpline
 70
8
 71
3
 72
8
 73
4
 74
0
 40
0
 40
0
 40
0
 40
0
 40
1
 40
1
 40
1
 40
1
 10
-60.349293
 20
166.654564
 30
0.0
 10
-59.483498
 20
166.654564
 30
0.0
 10
-58.781665
 20
167.356373
 30
0.0
 10
-58.781665
 20
168.222205
 30
0.0
  0
LINE
  5
113
100
AcDbEntity
  8
Layer_1
 62
1
100
AcDbLine
 10
-58.781665
 20
168.222205
 30
0.0
 11
-58.781665
 21
168.222205
 31
0.0
  0
SPLINE
  5
114
100
AcDbEntity
  8
Layer_1
 62
1
100
AcDbSpline
 70
8
 71
3
 72
8
 73
4
 74
0
 40
0
 40
0
 40
0
 40
0
 40
1
 40
1
 40
1
 40
1
 10
-51.769793
 20
191.369614
 30
0.0
 10
-52.188310
 20
191.369614
 30
0.0
 10
-52.554704
 20
191.089016
 30
0.0
 10
-52.663792
 20
190.685016
 30
0.0
  0
LINE
  5
115
100
AcDbEntity
  8
Layer_1
 62
1
100
AcDbLine
 10
-52.713401
 20
135.352140
 30
0.0
 11
-52.713401
 21
190.394877
 31
0.0
  0
SPLINE
  5
116
100
AcDbEntity
  8
Layer_1
 62
1
100
AcDbSpline
 70
8
 71
3
 72
8
 73
4
 74
0
 40
0
 40
0
 40
0
 40
0
 40
1
 40
1
 40
1
 40
1
 10
-52.713401
 20
190.394877
 30
0.0
 10
-52.713401
 20
190.494482
 30
0.0
 10
-52.697526
 20
190.593526
 30
0.0
 10
-52.665882
 20
190.688022
 30
0.0
  0
SPLINE
  5
117
100
AcDbEntity
  8
Layer_1
 62
1
100
AcDbSpline
 70
8
 71
3
 72
8
 73
4
 74
0
 40
0
 40
0
 40
0
 40
0
 40
1
 40
1
 40
1
 40
1
 10
-51.769793
 20
134.369572
 30
0.0
 10
-52.188310
 20
134.369572
 30
0.0
 10
-52.554704
 20
134.650170
 30
0.0
 10
-52.663792
 20
135.054170
 30
0.0
  0
LINE
  5
118
100
AcDbEntity
  8
Layer_1
 62
1
100
AcDbLine
 10
-52.663792
 20
135.054170
 30
0.0
 11
-52.663792
 21
135.054170
 31
0.0
  0
SPLINE
  5
119
100
AcDbEntity
  8
Layer_1
 62
1
100
AcDbSpline
 70
8
 71
3
 72
8
 73
4
 74
0
 40
0
 40
0
 40
0
 40
0
 40
1
 40
1
 40
1
 40
1
 10
-52.663792
 20
135.054170
 30
0.0
 10
-52.697712
 20
135.155971
 30
0.0
 10
-52.714989
 20
135.262670
 30
0.0
 10
-52.714989
 20
135.369971
 30
0.0
  0
LINE
  5
11a
100
AcDbEntity
  8
Layer_1
 62
1
100
AcDbLine
 10
-51.769793
 20
134.369572
 30
0.0
 11
-41.140012
 21
134.369572
 31
0.0
  0
SPLINE
  5
11b
100
AcDbEntity
  8
Layer_1
 62
1
100
AcDbSpline
 70
8
 71
3
 72
8
 73
4
 74
0
 40
0
 40
0
 40
0
 40
0
 40
1
 40
1
 40
1
 40
1
 10
254.631897
 20
191.365478
 30
0.0
 10
255.050415
 20
191.365478
 30
0.0
 10
255.416809
 20
191.084880
 30
0.0
 10
255.525897
 20
190.680880
 30
0.0
  0
LINE
  5
11c
100
AcDbEntity
  8
Layer_1
 62
1
100
AcDbLine
 10
255.575506
 20
135.352140
 30
0.0
 11
255.575506
 21
190.394877
 31
0.0
  0
SPLINE
  5
11d
100
AcDbEntity
  8
Layer_1
 62
1
100
AcDbSpline
 70
8
 71
3
 72
8
 73
4
 74
0
 40
0
 40
0
 40
0
 40
0
 40
1
 40
1
 40
1
 40
1
 10
255.575506
 20
190.394877
 30
0.0
 10
255.575506
 20
190.494482
 30
0.0
 10
255.559631
 20
190.593526
 30
0.0
 10
255.527987
 20
190.688022
 30
0.0
  0
SPLINE
  5
11e
100
AcDbEntity
  8
Layer_1
 62
1
100
AcDbSpline
 70
8
 71
3
 72
8
 73
4
 74
0
 40
0
 40
0
 40
0
 40
0
 40
1
 40
1
 40
1
 40
1
 10
254.631897
 20
134.369572
 30
0.0
 10
255.050415
 20
134.369572
 30
0.0
 10
255.416809
 20
134.650170
 30
0.0
 10
255.525897
 20
135.054170
 30
0.0
  0
LINE
  5
11f
100
AcDbEntity
  8
Layer_1
 62
1
100
AcDbLine
 10
255.525897
 20
135.054170
 30
0.0
 11
255.525897
 21
135.054170
 31
0.0
  0
SPLINE
  5
120
100
AcDbEntity
  8
Layer_1
 62
1
100
AcDbSpline
 70
8
 71
3
 72
8
 73
4
 74
0
 40
0
 40
0
 40
0
 40
0
 40
1
 40
1
 40
1
 40
1
 10
255.525897
 20
135.054170
 30
0.0
 10
255.559816
 20
135.155971
 30
0.0
 10
255.577094
 20
135.262670
 30
0.0
 10
255.577094
 20
135.369971
 30
0.0
  0
LINE
  5
121
100
AcDbEntity
  8
Layer_1
 62
1
100
AcDbLine
 10
254.631897
 20
134.369572
 30
0.0
 11
-45.984950
 21
134.369572
 31
0.0
  0
SPLINE
  5
122
100
AcDbEntity
  8
Layer_1
 62
1
100
AcDbSpline
 70
8
 71
3
 72
8
 73
4
 74
0
 40
0
 40
0
 40
0
 40
0
 40
1
 40
1
 40
1
 40
1
 10
-21.986981
 20
191.362952
 30
0.0
 10
-21.210985
 20
191.362952
 30
0.0
 10
-20.466687
 20
191.671270
 30
0.0
 10
-19.917995
 20
192.219962
 30
0.0
  0
SPLINE
  5
123
100
AcDbEntity
  8
Layer_1
 62
1
100
AcDbSpline
 70
8
 71
3
 72
8
 73
4
 74
0
 40
0
 40
0
 40
0
 40
0
 40
1
 40
1
 40
1
 40
1
 10
-19.917995
 20
192.219962
 30
0.0
 10
-19.369302
 20
192.768655
 30
0.0
 10
-19.060984
 20
193.512953
 30
0.0
 10
-19.060984
 20
194.288949
 30
0.0
  0
LINE
  5
124
100
AcDbEntity
  8
Layer_1
 62
1
100
AcDbLine
 10
-19.060984
 20
194.288949
 30
0.0
 11
-19.060984
 21
200.490113
 31
0.0
  0
LINE
  5
125
100
AcDbEntity
  8
Layer_1
 62
1
100
AcDbLine
 10
-19.060984
 20
200.490113
 30
0.0
 11
-19.060984
 21
204.490105
 31
0.0
  0
LINE
  5
126
100
AcDbEntity
  8
Layer_1
 62
1
100
AcDbLine
 10
-19.060984
 20
204.490105
 30
0.0
 11
-19.060984
 21
208.475386
 31
0.0
  0
SPLINE
  5
127
100
AcDbEntity
  8
Layer_1
 62
1
100
AcDbSpline
 70
8
 71
3
 72
8
 73
4
 74
0
 40
0
 40
0
 40
0
 40
0
 40
1
 40
1
 40
1
 40
1
 10
-19.060984
 20
208.475386
 30
0.0
 10
-19.060984
 20
209.251408
 30
0.0
 10
-19.369302
 20
209.995707
 30
0.0
 10
-19.917995
 20
210.544399
 30
0.0
  0
SPLINE
  5
128
100
AcDbEntity
  8
Layer_1
 62
1
100
AcDbSpline
 70
8
 71
3
 72
8
 73
4
 74
0
 40
0
 40
0
 40
0
 40
0
 40
1
 40
1
 40
1
 40
1
 10
-19.917995
 20
210.544399
 30
0.0
 10
-20.466687
 20
211.093091
 30
0.0
 10
-21.210985
 20
211.401383
 30
0.0
 10
-21.986981
 20
211.401383
 30
0.0
  0
LINE
  5
129
100
AcDbEntity
  8
Layer_1
 62
1
100
AcDbLine
 10
-21.986981
 20
191.366812
 30
0.0
 11
-22.912598
 21
191.366812
 31
0.0
  0
LINE
  5
12a
100
AcDbEntity
  8
Layer_1
 62
1
100
AcDbLine
 10
-22.912598
 20
191.366812
 30
0.0
 11
-41.140012
 21
191.369616
 31
0.0
  0
LINE
  5
12b
100
AcDbEntity
  8
Layer_1
 62
1
100
AcDbLine
 10
-41.140012
 20
191.369616
 30
0.0
 11
-51.769793
 21
191.369616
 31
0.0
  0
SPLINE
  5
12c
100
AcDbEntity
  8
Layer_1
 62
1
100
AcDbSpline
 70
8
 71
3
 72
8
 73
4
 74
0
 40
0
 40
0
 40
0
 40
0
 40
1
 40
1
 40
1
 40
1
 10
0.862328
 20
191.365018
 30
0.0
 10
0.086332
 20
191.365018
 30
0.0
 10
-0.657966
 20
191.673337
 30
0.0
 10
-1.206658
 20
192.222029
 30
0.0
  0
SPLINE
  5
12d
100
AcDbEntity
  8
Layer_1
 62
1
100
AcDbSpline
 70
8
 71
3
 72
8
 73
4
 74
0
 40
0
 40
0
 40
0
 40
0
 40
1
 40
1
 40
1
 40
1
 10
-1.206658
 20
192.222029
 30
0.0
 10
-1.755351
 20
192.770721
 30
0.0
 10
-2.063669
 20
193.515019
 30
0.0
 10
-2.063669
 20
194.291015
 30
0.0
  0
LINE
  5
12e
100
AcDbEntity
  8
Layer_1
 62
1
100
AcDbLine
 10
-2.063669
 20
194.291015
 30
0.0
 11
-2.063669
 21
200.490113
 31
0.0
  0
LINE
  5
12f
100
AcDbEntity
  8
Layer_1
 62
1
100
AcDbLine
 10
-2.063669
 20
200.490113
 30
0.0
 11
-2.063669
 21
204.490105
 31
0.0
  0
LINE
  5
130
100
AcDbEntity
  8
Layer_1
 62
1
100
AcDbLine
 10
-2.063669
 20
204.490105
 30
0.0
 11
-2.063669
 21
208.474352
 31
0.0
  0
SPLINE
  5
131
100
AcDbEntity
  8
Layer_1
 62
1
100
AcDbSpline
 70
8
 71
3
 72
8
 73
4
 74
0
 40
0
 40
0
 40
0
 40
0
 40
1
 40
1
 40
1
 40
1
 10
-2.063669
 20
208.474352
 30
0.0
 10
-2.063669
 20
209.250374
 30
0.0
 10
-1.755351
 20
209.994672
 30
0.0
 10
-1.206658
 20
210.543364
 30
0.0
  0
SPLINE
  5
132
100
AcDbEntity
  8
Layer_1
 62
1
100
AcDbSpline
 70
8
 71
3
 72
8
 73
4
 74
0
 40
0
 40
0
 40
0
 40
0
 40
1
 40
1
 40
1
 40
1
 10
-1.206658
 20
210.543364
 30
0.0
 10
-0.657966
 20
211.092057
 30
0.0
 10
0.086332
 20
211.400349
 30
0.0
 10
0.862328
 20
211.400349
 30
0.0
  0
SPLINE
  5
133
100
AcDbEntity
  8
Layer_1
 62
1
100
AcDbSpline
 70
8
 71
3
 72
8
 73
4
 74
0
 40
0
 40
0
 40
0
 40
0
 40
1
 40
1
 40
1
 40
1
 10
-59.400075
 20
86.740851
 30
0.0
 10
-59.400075
 20
86.216032
 30
0.0
 10
-59.825498
 20
85.790633
 30
0.0
 10
-60.350272
 20
85.790633
 30
0.0
  0
SPLINE
  5
134
100
AcDbEntity
  8
Layer_1
 62
1
100
AcDbSpline
 70
8
 71
3
 72
8
 73
4
 74
0
 40
0
 40
0
 40
0
 40
0
 40
1
 40
1
 40
1
 40
1
 10
-60.350272
 20
85.790633
 30
0.0
 10
-60.875073
 20
85.790633
 30
0.0
 10
-61.300496
 20
86.216032
 30
0.0
 10
-61.300496
 20
86.740851
 30
0.0
  0
SPLINE
  5
135
100
AcDbEntity
  8
Layer_1
 62
1
100
AcDbSpline
 70
8
 71
3
 72
8
 73
4
 74
0
 40
0
 40
0
 40
0
 40
0
 40
1
 40
1
 40
1
 40
1
 10
-61.300496
 20
86.740851
 30
0.0
 10
-61.300496
 20
87.265670
 30
0.0
 10
-60.875073
 20
87.691069
 30
0.0
 10
-60.350272
 20
87.691069
 30
0.0
  0
SPLINE
  5
136
100
AcDbEntity
  8
Layer_1
 62
1
100
AcDbSpline
 70
8
 71
3
 72
8
 73
4
 74
0
 40
0
 40
0
 40
0
 40
0
 40
1
 40
1
 40
1
 40
1
 10
-60.350272
 20
87.691069
 30
0.0
 10
-59.825498
 20
87.691069
 30
0.0
 10
-59.400075
 20
87.265670
 30
0.0
 10
-59.400075
 20
86.740851
 30
0.0
  0
LINE
  5
137
100
AcDbEntity
  8
Layer_1
 62
1
100
AcDbLine
 10
-59.400075
 20
86.740851
 30
0.0
 11
-59.400075
 21
86.740851
 31
0.0
  0
LINE
  5
138
100
AcDbEntity
  8
Layer_1
 62
1
100
AcDbLine
 10
254.644063
 20
191.365754
 30
0.0
 11
244.014282
 21
191.365754
 31
0.0
  0
LINE
  5
139
100
AcDbEntity
  8
Layer_1
 62
1
100
AcDbLine
 10
244.014282
 20
191.365754
 30
0.0
 11
1.787945
 21
191.364960
 31
0.0
  0
LINE
  5
13a
100
AcDbEntity
  8
Layer_1
 62
1
100
AcDbLine
 10
1.787945
 20
191.364960
 30
0.0
 11
0.862328
 21
191.364960
 31
0.0
  0
SPLINE
  5
13b
100
AcDbEntity
  8
Layer_1
 62
1
100
AcDbSpline
 70
8
 71
3
 72
8
 73
4
 74
0
 40
0
 40
0
 40
0
 40
0
 40
1
 40
1
 40
1
 40
1
 10
261.998008
 20
193.827460
 30
0.0
 10
261.998008
 20
194.693292
 30
0.0
 10
262.699841
 20
195.395101
 30
0.0
 10
263.565636
 20
195.395101
 30
0.0
  0
SPLINE
  5
13c
100
AcDbEntity
  8
Layer_1
 62
1
100
AcDbSpline
 70
8
 71
3
 72
8
 73
4
 74
0
 40
0
 40
0
 40
0
 40
0
 40
1
 40
1
 40
1
 40
1
 10
263.565636
 20
195.395101
 30
0.0
 10
264.431458
 20
195.395101
 30
0.0
 10
265.133290
 20
194.693292
 30
0.0
 10
265.133290
 20
193.827460
 30
0.0
  0
SPLINE
  5
13d
100
AcDbEntity
  8
Layer_1
 62
1
100
AcDbSpline
 70
8
 71
3
 72
8
 73
4
 74
0
 40
0
 40
0
 40
0
 40
0
 40
1
 40
1
 40
1
 40
1
 10
265.133290
 20
193.827460
 30
0.0
 10
265.133290
 20
192.961628
 30
0.0
 10
264.431458
 20
192.259819
 30
0.0
 10
263.565636
 20
192.259819
 30
0.0
  0
SPLINE
  5
13e
100
AcDbEntity
  8
Layer_1
 62
1
100
AcDbSpline
 70
8
 71
3
 72
8
 73
4
 74
0
 40
0
 40
0
 40
0
 40
0
 40
1
 40
1
 40
1
 40
1
 10
263.565636
 20
192.259819
 30
0.0
 10
262.699841
 20
192.259819
 30
0.0
 10
261.998008
 20
192.961628
 30
0.0
 10
261.998008
 20
193.827460
 30
0.0
  0
LINE
  5
13f
100
AcDbEntity
  8
Layer_1
 62
1
100
AcDbLine
 10
261.998008
 20
193.827460
 30
0.0
 11
261.998008
 21
193.827460
 31
0.0
  0
SPLINE
  5
140
100
AcDbEntity
  8
Layer_1
 62
1
100
AcDbSpline
 70
8
 71
3
 72
8
 73
4
 74
0
 40
0
 40
0
 40
0
 40
0
 40
1
 40
1
 40
1
 40
1
 10
174.024002
 20
197.274059
 30
0.0
 10
174.024002
 20
198.139891
 30
0.0
 10
174.725835
 20
198.841700
 30
0.0
 10
175.591630
 20
198.841700
 30
0.0
  0
SPLINE
  5
141
100
AcDbEntity
  8
Layer_1
 62
1
100
AcDbSpline
 70
8
 71
3
 72
8
 73
4
 74
0
 40
0
 40
0
 40
0
 40
0
 40
1
 40
1
 40
1
 40
1
 10
175.591630
 20
198.841700
 30
0.0
 10
176.457451
 20
198.841700
 30
0.0
 10
177.159284
 20
198.139891
 30
0.0
 10
177.159284
 20
197.274059
 30
0.0
  0
SPLINE
  5
142
100
AcDbEntity
  8
Layer_1
 62
1
100
AcDbSpline
 70
8
 71
3
 72
8
 73
4
 74
0
 40
0
 40
0
 40
0
 40
0
 40
1
 40
1
 40
1
 40
1
 10
177.159284
 20
197.274059
 30
0.0
 10
177.159284
 20
196.408227
 30
0.0
 10
176.457451
 20
195.706418
 30
0.0
 10
175.591630
 20
195.706418
 30
0.0
  0
SPLINE
  5
143
100
AcDbEntity
  8
Layer_1
 62
1
100
AcDbSpline
 70
8
 71
3
 72
8
 73
4
 74
0
 40
0
 40
0
 40
0
 40
0
 40
1
 40
1
 40
1
 40
1
 10
175.591630
 20
195.706418
 30
0.0
 10
174.725835
 20
195.706418
 30
0.0
 10
174.024002
 20
196.408227
 30
0.0
 10
174.024002
 20
197.274059
 30
0.0
  0
LINE
  5
144
100
AcDbEntity
  8
Layer_1
 62
1
100
AcDbLine
 10
174.024002
 20
197.274059
 30
0.0
 11
174.024002
 21
197.274059
 31
0.0
  0
SPLINE
  5
145
100
AcDbEntity
  8
Layer_1
 62
1
100
AcDbSpline
 70
8
 71
3
 72
8
 73
4
 74
0
 40
0
 40
0
 40
0
 40
0
 40
1
 40
1
 40
1
 40
1
 10
174.641433
 20
80.449022
 30
0.0
 10
174.641433
 20
80.973841
 30
0.0
 10
175.066882
 20
81.399241
 30
0.0
 10
175.591630
 20
81.399241
 30
0.0
  0
SPLINE
  5
146
100
AcDbEntity
  8
Layer_1
 62
1
100
AcDbSpline
 70
8
 71
3
 72
8
 73
4
 74
0
 40
0
 40
0
 40
0
 40
0
 40
1
 40
1
 40
1
 40
1
 10
175.591630
 20
81.399241
 30
0.0
 10
176.116404
 20
81.399241
 30
0.0
 10
176.541853
 20
80.973841
 30
0.0
 10
176.541853
 20
80.449022
 30
0.0
  0
SPLINE
  5
147
100
AcDbEntity
  8
Layer_1
 62
1
100
AcDbSpline
 70
8
 71
3
 72
8
 73
4
 74
0
 40
0
 40
0
 40
0
 40
0
 40
1
 40
1
 40
1
 40
1
 10
176.541853
 20
80.449022
 30
0.0
 10
176.541853
 20
79.924204
 30
0.0
 10
176.116404
 20
79.498804
 30
0.0
 10
175.591630
 20
79.498804
 30
0.0
  0
SPLINE
  5
148
100
AcDbEntity
  8
Layer_1
 62
1
100
AcDbSpline
 70
8
 71
3
 72
8
 73
4
 74
0
 40
0
 40
0
 40
0
 40
0
 40
1
 40
1
 40
1
 40
1
 10
175.591630
 20
79.498804
 30
0.0
 10
175.066882
 20
79.498804
 30
0.0
 10
174.641433
 20
79.924204
 30
0.0
 10
174.641433
 20
80.449022
 30
0.0
  0
LINE
  5
149
100
AcDbEntity
  8
Layer_1
 62
1
100
AcDbLine
 10
174.641433
 20
80.449022
 30
0.0
 11
174.641433
 21
80.449022
 31
0.0
  0
SPLINE
  5
14a
100
AcDbEntity
  8
Layer_1
 62
1
100
AcDbSpline
 70
8
 71
3
 72
8
 73
4
 74
0
 40
0
 40
0
 40
0
 40
0
 40
1
 40
1
 40
1
 40
1
 10
261.997133
 20
168.222205
 30
0.0
 10
261.997133
 20
169.088037
 30
0.0
 10
262.698965
 20
169.789846
 30
0.0
 10
263.564760
 20
169.789846
 30
0.0
  0
SPLINE
  5
14b
100
AcDbEntity
  8
Layer_1
 62
1
100
AcDbSpline
 70
8
 71
3
 72
8
 73
4
 74
0
 40
0
 40
0
 40
0
 40
0
 40
1
 40
1
 40
1
 40
1
 10
263.564760
 20
169.789846
 30
0.0
 10
264.430582
 20
169.789846
 30
0.0
 10
265.132415
 20
169.088037
 30
0.0
 10
265.132415
 20
168.222205
 30
0.0
  0
SPLINE
  5
14c
100
AcDbEntity
  8
Layer_1
 62
1
100
AcDbSpline
 70
8
 71
3
 72
8
 73
4
 74
0
 40
0
 40
0
 40
0
 40
0
 40
1
 40
1
 40
1
 40
1
 10
265.132415
 20
168.222205
 30
0.0
 10
265.132415
 20
167.356373
 30
0.0
 10
264.430582
 20
166.654564
 30
0.0
 10
263.564760
 20
166.654564
 30
0.0
  0
SPLINE
  5
14d
100
AcDbEntity
  8
Layer_1
 62
1
100
AcDbSpline
 70
8
 71
3
 72
8
 73
4
 74
0
 40
0
 40
0
 40
0
 40
0
 40
1
 40
1
 40
1
 40
1
 10
263.564760
 20
166.654564
 30
0.0
 10
262.698965
 20
166.654564
 30
0.0
 10
261.997133
 20
167.356373
 30
0.0
 10
261.997133
 20
168.222205
 30
0.0
  0
LINE
  5
14e
100
AcDbEntity
  8
Layer_1
 62
1
100
AcDbLine
 10
261.997133
 20
168.222205
 30
0.0
 11
261.997133
 21
168.222205
 31
0.0
  0
SPLINE
  5
14f
100
AcDbEntity
  8
Layer_1
 62
1
100
AcDbSpline
 70
8
 71
3
 72
8
 73
4
 74
0
 40
0
 40
0
 40
0
 40
0
 40
1
 40
1
 40
1
 40
1
 10
262.615535
 20
86.740851
 30
0.0
 10
262.615535
 20
86.216030
 30
0.0
 10
263.040923
 20
85.790633
 30
0.0
 10
263.565745
 20
85.790633
 30
0.0
  0
SPLINE
  5
150
100
AcDbEntity
  8
Layer_1
 62
1
100
AcDbSpline
 70
8
 71
3
 72
8
 73
4
 74
0
 40
0
 40
0
 40
0
 40
0
 40
1
 40
1
 40
1
 40
1
 10
263.565745
 20
85.790633
 30
0.0
 10
264.090582
 20
85.790633
 30
0.0
 10
264.515971
 20
86.216030
 30
0.0
 10
264.515971
 20
86.740851
 30
0.0
  0
SPLINE
  5
151
100
AcDbEntity
  8
Layer_1
 62
1
100
AcDbSpline
 70
8
 71
3
 72
8
 73
4
 74
0
 40
0
 40
0
 40
0
 40
0
 40
1
 40
1
 40
1
 40
1
 10
264.515971
 20
86.740851
 30
0.0
 10
264.515971
 20
87.265673
 30
0.0
 10
264.090582
 20
87.691069
 30
0.0
 10
263.565745
 20
87.691069
 30
0.0
  0
SPLINE
  5
152
100
AcDbEntity
  8
Layer_1
 62
1
100
AcDbSpline
 70
8
 71
3
 72
8
 73
4
 74
0
 40
0
 40
0
 40
0
 40
0
 40
1
 40
1
 40
1
 40
1
 10
263.565745
 20
87.691069
 30
0.0
 10
263.040923
 20
87.691069
 30
0.0
 10
262.615535
 20
87.265673
 30
0.0
 10
262.615535
 20
86.740851
 30
0.0
  0
LINE
  5
153
100
AcDbEntity
  8
Layer_1
 62
1
100
AcDbLine
 10
262.615535
 20
86.740851
 30
0.0
 11
262.615535
 21
86.740851
 31
0.0
  0
LINE
  5
154
100
AcDbEntity
  8
Layer_1
 62
1
100
AcDbLine
 10
-21.987253
 20
211.401509
 30
0.0
 11
-22.912872
 21
211.401509
 31
0.0
  0
LINE
  5
155
100
AcDbEntity
  8
Layer_1
 62
1
100
AcDbLine
 10
-22.912872
 20
211.401509
 30
0.0
 11
-25.246552
 21
211.401991
 31
0.0
  0
LINE
  5
156
100
AcDbEntity
  8
Layer_1
 62
1
100
AcDbLine
 10
-25.246552
 20
211.401991
 30
0.0
 11
-68.773793
 21
211.401995
 31
0.0
  0
SPLINE
  5
157
100
AcDbEntity
  8
Layer_1
 62
1
100
AcDbSpline
 70
8
 71
3
 72
8
 73
4
 74
0
 40
0
 40
0
 40
0
 40
0
 40
1
 40
1
 40
1
 40
1
 10
-68.773793
 20
211.401995
 30
0.0
 10
-70.125820
 20
211.401995
 30
0.0
 10
-71.440339
 20
210.921111
 30
0.0
 10
-72.514836
 20
210.033427
 30
0.0
  0
LINE
  5
158
100
AcDbEntity
  8
Layer_1
 62
1
100
AcDbLine
 10
-72.514836
 20
210.033427
 30
0.0
 11
-75.999099
 21
207.154944
 31
0.0
  0
SPLINE
  5
159
100
AcDbEntity
  8
Layer_1
 62
1
100
AcDbSpline
 70
8
 71
3
 72
8
 73
4
 74
0
 40
0
 40
0
 40
0
 40
0
 40
1
 40
1
 40
1
 40
1
 10
-75.999099
 20
207.154944
 30
0.0
 10
-76.914004
 20
206.399104
 30
0.0
 10
-77.655858
 20
204.776876
 30
0.0
 10
-77.656067
 20
203.531594
 30
0.0
  0
SPLINE
  5
15a
100
AcDbEntity
  8
Layer_1
 62
1
100
AcDbSpline
 70
8
 71
3
 72
8
 73
4
 74
0
 40
0
 40
0
 40
0
 40
0
 40
1
 40
1
 40
1
 40
1
 10
-77.656067
 20
203.531594
 30
0.0
 10
-77.678030
 20
73.132411
 30
0.0
 10
-77.605942
 20
156.939903
 30
0.0
 10
-77.636200
 20
77.962556
 30
0.0
  0
SPLINE
  5
15b
100
AcDbEntity
  8
Layer_1
 62
1
100
AcDbSpline
 70
8
 71
3
 72
8
 73
4
 74
0
 40
0
 40
0
 40
0
 40
0
 40
1
 40
1
 40
1
 40
1
 10
-77.636200
 20
77.962556
 30
0.0
 10
-77.636678
 20
76.717295
 30
0.0
 10
-76.865730
 20
75.139564
 30
0.0
 10
-75.914227
 20
74.438579
 30
0.0
  0
LINE
  5
15c
100
AcDbEntity
  8
Layer_1
 62
1
100
AcDbLine
 10
-75.914227
 20
74.438579
 30
0.0
 11
-63.452866
 21
65.258229
 31
0.0
  0
SPLINE
  5
15d
100
AcDbEntity
  8
Layer_1
 62
1
100
AcDbSpline
 70
8
 71
3
 72
8
 73
4
 74
0
 40
0
 40
0
 40
0
 40
0
 40
1
 40
1
 40
1
 40
1
 10
-63.452866
 20
65.258229
 30
0.0
 10
-62.331731
 20
64.432279
 30
0.0
 10
-61.002099
 20
64.001113
 30
0.0
 10
-59.645806
 20
64.023696
 30
0.0
  0
LINE
  5
15e
100
AcDbEntity
  8
Layer_1
 62
1
100
AcDbLine
 10
-59.645806
 20
64.023696
 30
0.0
 11
-58.529183
 21
64.042259
 31
0.0
  0
LINE
  5
15f
100
AcDbEntity
  8
Layer_1
 62
1
100
AcDbLine
 10
-58.529183
 20
64.042259
 30
0.0
 11
261.391303
 21
64.042236
 31
0.0
  0
LINE
  5
160
100
AcDbEntity
  8
Layer_1
 62
1
100
AcDbLine
 10
261.391303
 20
64.042236
 30
0.0
 11
262.507924
 21
64.023673
 31
0.0
  0
SPLINE
  5
161
100
AcDbEntity
  8
Layer_1
 62
1
100
AcDbSpline
 70
8
 71
3
 72
8
 73
4
 74
0
 40
0
 40
0
 40
0
 40
0
 40
1
 40
1
 40
1
 40
1
 10
262.507924
 20
64.023673
 30
0.0
 10
263.864217
 20
64.001090
 30
0.0
 10
265.193849
 20
64.432256
 30
0.0
 10
266.314984
 20
65.258206
 30
0.0
  0
LINE
  5
162
100
AcDbEntity
  8
Layer_1
 62
1
100
AcDbLine
 10
266.314984
 20
65.258206
 30
0.0
 11
278.776340
 21
74.438556
 31
0.0
  0
SPLINE
  5
163
100
AcDbEntity
  8
Layer_1
 62
1
100
AcDbSpline
 70
8
 71
3
 72
8
 73
4
 74
0
 40
0
 40
0
 40
0
 40
0
 40
1
 40
1
 40
1
 40
1
 10
278.776340
 20
74.438556
 30
0.0
 10
279.727845
 20
75.139541
 30
0.0
 10
280.498787
 20
76.717295
 30
0.0
 10
280.498313
 20
77.962568
 30
0.0
  0
SPLINE
  5
164
100
AcDbEntity
  8
Layer_1
 62
1
100
AcDbSpline
 70
8
 71
3
 72
8
 73
4
 74
0
 40
0
 40
0
 40
0
 40
0
 40
1
 40
1
 40
1
 40
1
 10
280.498313
 20
77.962568
 30
0.0
 10
280.468097
 20
156.939857
 30
0.0
 10
280.540111
 20
73.132388
 30
0.0
 10
280.518212
 20
203.531607
 30
0.0
  0
SPLINE
  5
165
100
AcDbEntity
  8
Layer_1
 62
1
100
AcDbSpline
 70
8
 71
3
 72
8
 73
4
 74
0
 40
0
 40
0
 40
0
 40
0
 40
1
 40
1
 40
1
 40
1
 10
280.518212
 20
203.531607
 30
0.0
 10
280.518001
 20
204.776869
 30
0.0
 10
279.776149
 20
206.399084
 30
0.0
 10
278.861241
 20
207.154923
 30
0.0
  0
LINE
  5
166
100
AcDbEntity
  8
Layer_1
 62
1
100
AcDbLine
 10
278.861241
 20
207.154923
 30
0.0
 11
275.376982
 21
210.033404
 31
0.0
  0
SPLINE
  5
167
100
AcDbEntity
  8
Layer_1
 62
1
100
AcDbSpline
 70
8
 71
3
 72
8
 73
4
 74
0
 40
0
 40
0
 40
0
 40
0
 40
1
 40
1
 40
1
 40
1
 10
275.376982
 20
210.033404
 30
0.0
 10
274.302487
 20
210.921087
 30
0.0
 10
272.987970
 20
211.401972
 30
0.0
 10
271.635945
 20
211.401973
 30
0.0
  0
LINE
  5
168
100
AcDbEntity
  8
Layer_1
 62
1
100
AcDbLine
 10
271.635945
 20
211.401973
 30
0.0
 11
3.923763
 21
211.401989
 31
0.0
  0
LINE
  5
169
100
AcDbEntity
  8
Layer_1
 62
1
100
AcDbLine
 10
3.923763
 20
211.401989
 30
0.0
 11
1.787705
 21
211.400509
 31
0.0
  0
LINE
  5
16a
100
AcDbEntity
  8
Layer_1
 62
1
100
AcDbLine
 10
1.787705
 20
211.400509
 30
0.0
 11
0.862084
 21
211.400509
 31
0.0
  0
ENDSEC
  0
SECTION
  2
OBJECTS
  0
DICTIONARY
  5
C
330
0
100
AcDbDictionary
  3
ACAD_GROUP
350
D
  3
ACAD_MLINESTYLE
350
17
  0
DICTIONARY
  5
D
330
C
100
AcDbDictionary
  0
DICTIONARY
  5
1A
330
C
100
AcDbDictionary
  0
DICTIONARY
  5
17
330
C
100
AcDbDictionary
  3
STANDARD
350
18
  0
DICTIONARY
  5
19
330
C
100
AcDbDictionary
  0
ENDSEC
  0
EOF
