  0
SECTION
  2
HEADER
  9
$ACADVER
  1
AC1014
  9
$HANDSEED
  5
FFFF
  9
$INSUNITS
 70
     0
  9
$MEASUREMENT
 70
     1
  0
ENDSEC
  0
SECTION
  2
TABLES
  0
TABLE
  2
VPORT
  5
8
330
0
100
AcDbSymbolTable
 70
     4
  0
VPORT
  5
2E
330
8
100
AcDbSymbolTableRecord
100
AcDbViewportTableRecord
  2
*ACTIVE
 70
     0
 10
0.0
 20
0.0
 11
1.0
 21
1.0
 12
210.0
 22
148.5
 13
0.0
 23
0.0
 14
10.0
 24
10.0
 15
10.0
 25
10.0
 16
0.0
 26
0.0
 36
1.0
 17
0.0
 27
0.0
 37
0.0
 40
341.0
 41
1.24
 42
50.0
 43
0.0
 44
0.0
 50
0.0
 51
0.0
 71
     0
 72
   100
 73
     1
 74
     3
 75
     0
 76
     0
 77
     0
 78
     0
  0
ENDTAB
  0
TABLE
  2
LTYPE
  5
5
330
0
100
AcDbSymbolTable
 70
     1
  0
LTYPE
  5
14
330
5
100
AcDbSymbolTableRecord
100
AcDbLinetypeTableRecord
  2
BYBLOCK
 70
     0
  3

 72
    65
 73
     0
 40
0.0
  0
LTYPE
  5
15
330
5
100
AcDbSymbolTableRecord
100
AcDbLinetypeTableRecord
  2
BYLAYER
 70
     0
  3

 72
    65
 73
     0
 40
0.0
  0
LTYPE
  5
16
330
5
100
AcDbSymbolTableRecord
100
AcDbLinetypeTableRecord
  2
CONTINUOUS
 70
     0
  3
Solid line
 72
    65
 73
     0
 40
0.0
  0
ENDTAB
  0
TABLE
  2
LAYER
  5
2
100
AcDbSymbolTable
 70
2
  0
LAYER
  5
50
100
AcDbSymbolTableRecord
100
AcDbLayerTableRecord
  2
0
 70
0
  6
CONTINUOUS
  0
LAYER
  5
51
100
AcDbSymbolTableRecord
100
AcDbLayerTableRecord
  2
Layer_1
 70
0
  6
CONTINUOUS
  0
ENDTAB
  0
TABLE
  2
STYLE
  5
3
330
0
100
AcDbSymbolTable
 70
     1
  0
STYLE
  5
11
330
3
100
AcDbSymbolTableRecord
100
AcDbTextStyleTableRecord
  2
STANDARD
 70
     0
 40
0.0
 41
1.0
 50
0.0
 71
     0
 42
2.5
  3
txt
  4

  0
ENDTAB
  0
TABLE
  2
VIEW
  5
6
330
0
100
AcDbSymbolTable
 70
     0
  0
ENDTAB
  0
TABLE
  2
UCS
  5
7
330
0
100
AcDbSymbolTable
 70
     0
  0
ENDTAB
  0
TABLE
  2
APPID
  5
9
330
0
100
AcDbSymbolTable
 70
     2
  0
APPID
  5
12
330
9
100
AcDbSymbolTableRecord
100
AcDbRegAppTableRecord
  2
ACAD
 70
     0
  0
ENDTAB
  0
TABLE
  2
DIMSTYLE
  5
A
330
0
100
AcDbSymbolTable
 70
     1
  0
DIMSTYLE
105
27
330
A
100
AcDbSymbolTableRecord
100
AcDbDimStyleTableRecord
  2
ISO-25
 70
     0
  3

  4

  5

  6

  7

 40
1.0
 41
2.5
 42
0.625
 43
3.75
 44
1.25
 45
0.0
 46
0.0
 47
0.0
 48
0.0
140
2.5
141
2.5
142
0.0
143
0.03937007874016
144
1.0
145
0.0
146
1.0
147
0.625
 71
     0
 72
     0
 73
     0
 74
     0
 75
     0
 76
     0
 77
     1
 78
     8
170
     0
171
     3
172
     1
173
     0
174
     0
175
     0
176
     0
177
     0
178
     0
270
     2
271
     2
272
     2
273
     2
274
     3
340
11
275
     0
280
     0
281
     0
282
     0
283
     0
284
     8
285
     0
286
     0
287
     3
288
     0
  0
ENDTAB
  0
TABLE
  2
BLOCK_RECORD
  5
1
330
0
100
AcDbSymbolTable
 70
     1
  0
BLOCK_RECORD
  5
1F
330
1
100
AcDbSymbolTableRecord
100
AcDbBlockTableRecord
  2
*MODEL_SPACE
  0
BLOCK_RECORD
  5
1B
330
1
100
AcDbSymbolTableRecord
100
AcDbBlockTableRecord
  2
*PAPER_SPACE
  0
ENDTAB
  0
ENDSEC
  0
SECTION
  2
BLOCKS
  0
BLOCK
  5
20
330
1F
100
AcDbEntity
  8
0
100
AcDbBlockBegin
  2
*MODEL_SPACE
 70
     0
 10
0.0
 20
0.0
 30
0.0
  3
*MODEL_SPACE
  1

  0
ENDBLK
  5
21
330
1F
100
AcDbEntity
  8
0
100
AcDbBlockEnd
  0
BLOCK
  5
1C
330
1B
100
AcDbEntity
 67
     1
  8
0
100
AcDbBlockBegin
  2
*PAPER_SPACE
  1

  0
ENDBLK
  5
1D
330
1B
100
AcDbEntity
 67
     1
  8
0
100
AcDbBlockEnd
  0
ENDSEC
  0
SECTION
  2
ENTITIES
  0
SPLINE
  5
100
100
AcDbEntity
  8
Layer_1
 62
6
100
AcDbSpline
 70
8
 71
3
 72
8
 73
4
 74
0
 40
0
 40
0
 40
0
 40
0
 40
1
 40
1
 40
1
 40
1
 10
-59.559475
 20
171.573483
 30
0.0
 10
-59.559475
 20
172.439315
 30
0.0
 10
-60.261308
 20
173.141124
 30
0.0
 10
-61.127103
 20
173.141124
 30
0.0
  0
SPLINE
  5
101
100
AcDbEntity
  8
Layer_1
 62
6
100
AcDbSpline
 70
8
 71
3
 72
8
 73
4
 74
0
 40
0
 40
0
 40
0
 40
0
 40
1
 40
1
 40
1
 40
1
 10
-61.127103
 20
173.141124
 30
0.0
 10
-61.992924
 20
173.141124
 30
0.0
 10
-62.694757
 20
172.439315
 30
0.0
 10
-62.694757
 20
171.573483
 30
0.0
  0
SPLINE
  5
102
100
AcDbEntity
  8
Layer_1
 62
6
100
AcDbSpline
 70
8
 71
3
 72
8
 73
4
 74
0
 40
0
 40
0
 40
0
 40
0
 40
1
 40
1
 40
1
 40
1
 10
-62.694757
 20
171.573483
 30
0.0
 10
-62.694757
 20
170.707651
 30
0.0
 10
-61.992924
 20
170.005842
 30
0.0
 10
-61.127103
 20
170.005842
 30
0.0
  0
SPLINE
  5
103
100
AcDbEntity
  8
Layer_1
 62
6
100
AcDbSpline
 70
8
 71
3
 72
8
 73
4
 74
0
 40
0
 40
0
 40
0
 40
0
 40
1
 40
1
 40
1
 40
1
 10
-61.127103
 20
170.005842
 30
0.0
 10
-60.261308
 20
170.005842
 30
0.0
 10
-59.559475
 20
170.707651
 30
0.0
 10
-59.559475
 20
171.573483
 30
0.0
  0
LINE
  5
104
100
AcDbEntity
  8
Layer_1
 62
6
100
AcDbLine
 10
-59.559475
 20
171.573483
 30
0.0
 11
-59.559475
 21
171.573483
 31
0.0
  0
SPLINE
  5
105
100
AcDbEntity
  8
Layer_1
 62
6
100
AcDbSpline
 70
8
 71
3
 72
8
 73
4
 74
0
 40
0
 40
0
 40
0
 40
0
 40
1
 40
1
 40
1
 40
1
 10
28.414532
 20
175.049059
 30
0.0
 10
28.414532
 20
175.914891
 30
0.0
 10
27.712699
 20
176.616700
 30
0.0
 10
26.846904
 20
176.616700
 30
0.0
  0
SPLINE
  5
106
100
AcDbEntity
  8
Layer_1
 62
6
100
AcDbSpline
 70
8
 71
3
 72
8
 73
4
 74
0
 40
0
 40
0
 40
0
 40
0
 40
1
 40
1
 40
1
 40
1
 10
26.846904
 20
176.616700
 30
0.0
 10
25.981082
 20
176.616700
 30
0.0
 10
25.279249
 20
175.914891
 30
0.0
 10
25.279249
 20
175.049059
 30
0.0
  0
SPLINE
  5
107
100
AcDbEntity
  8
Layer_1
 62
6
100
AcDbSpline
 70
8
 71
3
 72
8
 73
4
 74
0
 40
0
 40
0
 40
0
 40
0
 40
1
 40
1
 40
1
 40
1
 10
25.279249
 20
175.049059
 30
0.0
 10
25.279249
 20
174.183227
 30
0.0
 10
25.981082
 20
173.481418
 30
0.0
 10
26.846904
 20
173.481418
 30
0.0
  0
SPLINE
  5
108
100
AcDbEntity
  8
Layer_1
 62
6
100
AcDbSpline
 70
8
 71
3
 72
8
 73
4
 74
0
 40
0
 40
0
 40
0
 40
0
 40
1
 40
1
 40
1
 40
1
 10
26.846904
 20
173.481418
 30
0.0
 10
27.712699
 20
173.481418
 30
0.0
 10
28.414532
 20
174.183227
 30
0.0
 10
28.414532
 20
175.049059
 30
0.0
  0
LINE
  5
109
100
AcDbEntity
  8
Layer_1
 62
6
100
AcDbLine
 10
28.414532
 20
175.049059
 30
0.0
 11
28.414532
 21
175.049059
 31
0.0
  0
SPLINE
  5
10a
100
AcDbEntity
  8
Layer_1
 62
6
100
AcDbSpline
 70
8
 71
3
 72
8
 73
4
 74
0
 40
0
 40
0
 40
0
 40
0
 40
1
 40
1
 40
1
 40
1
 10
-59.560665
 20
145.997205
 30
0.0
 10
-59.560665
 20
146.863037
 30
0.0
 10
-60.262498
 20
147.564846
 30
0.0
 10
-61.128293
 20
147.564846
 30
0.0
  0
SPLINE
  5
10b
100
AcDbEntity
  8
Layer_1
 62
6
100
AcDbSpline
 70
8
 71
3
 72
8
 73
4
 74
0
 40
0
 40
0
 40
0
 40
0
 40
1
 40
1
 40
1
 40
1
 10
-61.128293
 20
147.564846
 30
0.0
 10
-61.994115
 20
147.564846
 30
0.0
 10
-62.695947
 20
146.863037
 30
0.0
 10
-62.695947
 20
145.997205
 30
0.0
  0
SPLINE
  5
10c
100
AcDbEntity
  8
Layer_1
 62
6
100
AcDbSpline
 70
8
 71
3
 72
8
 73
4
 74
0
 40
0
 40
0
 40
0
 40
0
 40
1
 40
1
 40
1
 40
1
 10
-62.695947
 20
145.997205
 30
0.0
 10
-62.695947
 20
145.131373
 30
0.0
 10
-61.994115
 20
144.429564
 30
0.0
 10
-61.128293
 20
144.429564
 30
0.0
  0
SPLINE
  5
10d
100
AcDbEntity
  8
Layer_1
 62
6
100
AcDbSpline
 70
8
 71
3
 72
8
 73
4
 74
0
 40
0
 40
0
 40
0
 40
0
 40
1
 40
1
 40
1
 40
1
 10
-61.128293
 20
144.429564
 30
0.0
 10
-60.262498
 20
144.429564
 30
0.0
 10
-59.560665
 20
145.131373
 30
0.0
 10
-59.560665
 20
145.997205
 30
0.0
  0
LINE
  5
10e
100
AcDbEntity
  8
Layer_1
 62
6
100
AcDbLine
 10
-59.560665
 20
145.997205
 30
0.0
 11
-59.560665
 21
145.997205
 31
0.0
  0
LINE
  5
10f
100
AcDbEntity
  8
Layer_1
 62
6
100
AcDbLine
 10
-53.481474
 20
147.513113
 30
0.0
 11
-53.481474
 21
168.186707
 31
0.0
  0
SPLINE
  5
110
100
AcDbEntity
  8
Layer_1
 62
6
100
AcDbSpline
 70
8
 71
3
 72
8
 73
4
 74
0
 40
0
 40
0
 40
0
 40
0
 40
1
 40
1
 40
1
 40
1
 10
-53.481474
 20
168.186707
 30
0.0
 10
-53.481474
 20
168.259547
 30
0.0
 10
-53.474066
 20
168.331979
 30
0.0
 10
-53.459514
 20
168.401085
 30
0.0
  0
LINE
  5
111
100
AcDbEntity
  8
Layer_1
 62
6
100
AcDbLine
 10
-53.459514
 20
168.401085
 30
0.0
 11
-53.442845
 21
168.460016
 31
0.0
  0
SPLINE
  5
112
100
AcDbEntity
  8
Layer_1
 62
6
100
AcDbSpline
 70
8
 71
3
 72
8
 73
4
 74
0
 40
0
 40
0
 40
0
 40
0
 40
1
 40
1
 40
1
 40
1
 10
-53.442845
 20
168.460016
 30
0.0
 10
-53.333757
 20
168.864016
 30
0.0
 10
-52.967363
 20
169.144614
 30
0.0
 10
-52.548845
 20
169.144614
 30
0.0
  0
SPLINE
  5
113
100
AcDbEntity
  8
Layer_1
 62
6
100
AcDbSpline
 70
8
 71
3
 72
8
 73
4
 74
0
 40
0
 40
0
 40
0
 40
0
 40
1
 40
1
 40
1
 40
1
 10
-52.548793
 20
146.538314
 30
0.0
 10
-52.967310
 20
146.538314
 30
0.0
 10
-53.333704
 20
146.818912
 30
0.0
 10
-53.442792
 20
147.222912
 30
0.0
  0
LINE
  5
114
100
AcDbEntity
  8
Layer_1
 62
6
100
AcDbLine
 10
-53.442792
 20
147.222912
 30
0.0
 11
-53.442792
 21
147.222912
 31
0.0
  0
SPLINE
  5
115
100
AcDbEntity
  8
Layer_1
 62
6
100
AcDbSpline
 70
8
 71
3
 72
8
 73
4
 74
0
 40
0
 40
0
 40
0
 40
0
 40
1
 40
1
 40
1
 40
1
 10
-53.442792
 20
147.222912
 30
0.0
 10
-53.476712
 20
147.324713
 30
0.0
 10
-53.493989
 20
147.431411
 30
0.0
 10
-53.493989
 20
147.538713
 30
0.0
  0
LINE
  5
116
100
AcDbEntity
  8
Layer_1
 62
6
100
AcDbLine
 10
-52.548793
 20
146.538314
 30
0.0
 11
-41.919012
 21
146.538314
 31
0.0
  0
SPLINE
  5
117
100
AcDbEntity
  8
Layer_1
 62
6
100
AcDbSpline
 70
8
 71
3
 72
8
 73
4
 74
0
 40
0
 40
0
 40
0
 40
0
 40
1
 40
1
 40
1
 40
1
 10
253.852897
 20
169.140478
 30
0.0
 10
254.271415
 20
169.140478
 30
0.0
 10
254.637809
 20
168.859880
 30
0.0
 10
254.746897
 20
168.455880
 30
0.0
  0
LINE
  5
118
100
AcDbEntity
  8
Layer_1
 62
6
100
AcDbLine
 10
254.797520
 20
147.539953
 30
0.0
 11
254.797520
 21
168.261642
 31
0.0
  0
SPLINE
  5
119
100
AcDbEntity
  8
Layer_1
 62
6
100
AcDbSpline
 70
8
 71
3
 72
8
 73
4
 74
0
 40
0
 40
0
 40
0
 40
0
 40
1
 40
1
 40
1
 40
1
 10
254.797520
 20
168.261642
 30
0.0
 10
254.797520
 20
168.334569
 30
0.0
 10
254.780639
 20
168.407086
 30
0.0
 10
254.747045
 20
168.476275
 30
0.0
  0
SPLINE
  5
11a
100
AcDbEntity
  8
Layer_1
 62
6
100
AcDbSpline
 70
8
 71
3
 72
8
 73
4
 74
0
 40
0
 40
0
 40
0
 40
0
 40
1
 40
1
 40
1
 40
1
 10
253.853249
 20
146.541122
 30
0.0
 10
254.271494
 20
146.541122
 30
0.0
 10
254.637648
 20
146.824081
 30
0.0
 10
254.746664
 20
147.231481
 30
0.0
  0
LINE
  5
11b
100
AcDbEntity
  8
Layer_1
 62
6
100
AcDbLine
 10
254.746664
 20
147.231481
 30
0.0
 11
254.746664
 21
147.231481
 31
0.0
  0
SPLINE
  5
11c
100
AcDbEntity
  8
Layer_1
 62
6
100
AcDbSpline
 70
8
 71
3
 72
8
 73
4
 74
0
 40
0
 40
0
 40
0
 40
0
 40
1
 40
1
 40
1
 40
1
 10
254.746664
 20
147.231481
 30
0.0
 10
254.780562
 20
147.334138
 30
0.0
 10
254.797829
 20
147.441735
 30
0.0
 10
254.797829
 20
147.549939
 30
0.0
  0
LINE
  5
11d
100
AcDbEntity
  8
Layer_1
 62
6
100
AcDbLine
 10
253.852897
 20
146.540362
 30
0.0
 11
-46.763950
 21
146.540362
 31
0.0
  0
SPLINE
  5
11e
100
AcDbEntity
  8
Layer_1
 62
6
100
AcDbSpline
 70
8
 71
3
 72
8
 73
4
 74
0
 40
0
 40
0
 40
0
 40
0
 40
1
 40
1
 40
1
 40
1
 10
-22.765981
 20
169.137952
 30
0.0
 10
-21.989985
 20
169.137952
 30
0.0
 10
-21.245687
 20
169.446270
 30
0.0
 10
-20.696995
 20
169.994962
 30
0.0
  0
SPLINE
  5
11f
100
AcDbEntity
  8
Layer_1
 62
6
100
AcDbSpline
 70
8
 71
3
 72
8
 73
4
 74
0
 40
0
 40
0
 40
0
 40
0
 40
1
 40
1
 40
1
 40
1
 10
-20.696995
 20
169.994962
 30
0.0
 10
-20.148302
 20
170.543655
 30
0.0
 10
-19.839984
 20
171.287953
 30
0.0
 10
-19.839984
 20
172.063949
 30
0.0
  0
LINE
  5
120
100
AcDbEntity
  8
Layer_1
 62
6
100
AcDbLine
 10
-19.839984
 20
172.063949
 30
0.0
 11
-19.839984
 21
178.265113
 31
0.0
  0
LINE
  5
121
100
AcDbEntity
  8
Layer_1
 62
6
100
AcDbLine
 10
-19.839984
 20
178.265113
 30
0.0
 11
-19.839984
 21
182.265105
 31
0.0
  0
LINE
  5
122
100
AcDbEntity
  8
Layer_1
 62
6
100
AcDbLine
 10
-19.839984
 20
182.265105
 30
0.0
 11
-19.839984
 21
186.250386
 31
0.0
  0
SPLINE
  5
123
100
AcDbEntity
  8
Layer_1
 62
6
100
AcDbSpline
 70
8
 71
3
 72
8
 73
4
 74
0
 40
0
 40
0
 40
0
 40
0
 40
1
 40
1
 40
1
 40
1
 10
-19.839984
 20
186.250386
 30
0.0
 10
-19.839984
 20
187.026408
 30
0.0
 10
-20.148302
 20
187.770707
 30
0.0
 10
-20.696995
 20
188.319399
 30
0.0
  0
SPLINE
  5
124
100
AcDbEntity
  8
Layer_1
 62
6
100
AcDbSpline
 70
8
 71
3
 72
8
 73
4
 74
0
 40
0
 40
0
 40
0
 40
0
 40
1
 40
1
 40
1
 40
1
 10
-20.696995
 20
188.319399
 30
0.0
 10
-21.245687
 20
188.868091
 30
0.0
 10
-21.989985
 20
189.176383
 30
0.0
 10
-22.765981
 20
189.176383
 30
0.0
  0
LINE
  5
125
100
AcDbEntity
  8
Layer_1
 62
6
100
AcDbLine
 10
-22.765981
 20
169.141812
 30
0.0
 11
-23.691598
 21
169.141812
 31
0.0
  0
LINE
  5
126
100
AcDbEntity
  8
Layer_1
 62
6
100
AcDbLine
 10
-23.691598
 20
169.141812
 30
0.0
 11
-41.919012
 21
169.144616
 31
0.0
  0
LINE
  5
127
100
AcDbEntity
  8
Layer_1
 62
6
100
AcDbLine
 10
-41.919012
 20
169.144616
 30
0.0
 11
-52.548793
 21
169.144616
 31
0.0
  0
SPLINE
  5
128
100
AcDbEntity
  8
Layer_1
 62
6
100
AcDbSpline
 70
8
 71
3
 72
8
 73
4
 74
0
 40
0
 40
0
 40
0
 40
0
 40
1
 40
1
 40
1
 40
1
 10
0.083328
 20
169.140018
 30
0.0
 10
-0.692668
 20
169.140018
 30
0.0
 10
-1.436966
 20
169.448337
 30
0.0
 10
-1.985658
 20
169.997029
 30
0.0
  0
SPLINE
  5
129
100
AcDbEntity
  8
Layer_1
 62
6
100
AcDbSpline
 70
8
 71
3
 72
8
 73
4
 74
0
 40
0
 40
0
 40
0
 40
0
 40
1
 40
1
 40
1
 40
1
 10
-1.985658
 20
169.997029
 30
0.0
 10
-2.534351
 20
170.545721
 30
0.0
 10
-2.842669
 20
171.290019
 30
0.0
 10
-2.842669
 20
172.066015
 30
0.0
  0
LINE
  5
12a
100
AcDbEntity
  8
Layer_1
 62
6
100
AcDbLine
 10
-2.842669
 20
172.066015
 30
0.0
 11
-2.842669
 21
178.265113
 31
0.0
  0
LINE
  5
12b
100
AcDbEntity
  8
Layer_1
 62
6
100
AcDbLine
 10
-2.842669
 20
178.265113
 30
0.0
 11
-2.842669
 21
182.265105
 31
0.0
  0
LINE
  5
12c
100
AcDbEntity
  8
Layer_1
 62
6
100
AcDbLine
 10
-2.842669
 20
182.265105
 30
0.0
 11
-2.842669
 21
186.249352
 31
0.0
  0
SPLINE
  5
12d
100
AcDbEntity
  8
Layer_1
 62
6
100
AcDbSpline
 70
8
 71
3
 72
8
 73
4
 74
0
 40
0
 40
0
 40
0
 40
0
 40
1
 40
1
 40
1
 40
1
 10
-2.842669
 20
186.249352
 30
0.0
 10
-2.842669
 20
187.025374
 30
0.0
 10
-2.534351
 20
187.769672
 30
0.0
 10
-1.985658
 20
188.318364
 30
0.0
  0
SPLINE
  5
12e
100
AcDbEntity
  8
Layer_1
 62
6
100
AcDbSpline
 70
8
 71
3
 72
8
 73
4
 74
0
 40
0
 40
0
 40
0
 40
0
 40
1
 40
1
 40
1
 40
1
 10
-1.985658
 20
188.318364
 30
0.0
 10
-1.436966
 20
188.867057
 30
0.0
 10
-0.692668
 20
189.175349
 30
0.0
 10
0.083328
 20
189.175349
 30
0.0
  0
LINE
  5
12f
100
AcDbEntity
  8
Layer_1
 62
6
100
AcDbLine
 10
253.865063
 20
169.140754
 30
0.0
 11
243.235282
 21
169.140754
 31
0.0
  0
LINE
  5
130
100
AcDbEntity
  8
Layer_1
 62
6
100
AcDbLine
 10
243.235282
 20
169.140754
 30
0.0
 11
1.008945
 21
169.139960
 31
0.0
  0
LINE
  5
131
100
AcDbEntity
  8
Layer_1
 62
6
100
AcDbLine
 10
1.008945
 20
169.139960
 30
0.0
 11
0.083328
 21
169.139960
 31
0.0
  0
SPLINE
  5
132
100
AcDbEntity
  8
Layer_1
 62
6
100
AcDbSpline
 70
8
 71
3
 72
8
 73
4
 74
0
 40
0
 40
0
 40
0
 40
0
 40
1
 40
1
 40
1
 40
1
 10
261.218008
 20
171.602460
 30
0.0
 10
261.218008
 20
172.468292
 30
0.0
 10
261.919841
 20
173.170101
 30
0.0
 10
262.785636
 20
173.170101
 30
0.0
  0
SPLINE
  5
133
100
AcDbEntity
  8
Layer_1
 62
6
100
AcDbSpline
 70
8
 71
3
 72
8
 73
4
 74
0
 40
0
 40
0
 40
0
 40
0
 40
1
 40
1
 40
1
 40
1
 10
262.785636
 20
173.170101
 30
0.0
 10
263.651458
 20
173.170101
 30
0.0
 10
264.353290
 20
172.468292
 30
0.0
 10
264.353290
 20
171.602460
 30
0.0
  0
SPLINE
  5
134
100
AcDbEntity
  8
Layer_1
 62
6
100
AcDbSpline
 70
8
 71
3
 72
8
 73
4
 74
0
 40
0
 40
0
 40
0
 40
0
 40
1
 40
1
 40
1
 40
1
 10
264.353290
 20
171.602460
 30
0.0
 10
264.353290
 20
170.736628
 30
0.0
 10
263.651458
 20
170.034819
 30
0.0
 10
262.785636
 20
170.034819
 30
0.0
  0
SPLINE
  5
135
100
AcDbEntity
  8
Layer_1
 62
6
100
AcDbSpline
 70
8
 71
3
 72
8
 73
4
 74
0
 40
0
 40
0
 40
0
 40
0
 40
1
 40
1
 40
1
 40
1
 10
262.785636
 20
170.034819
 30
0.0
 10
261.919841
 20
170.034819
 30
0.0
 10
261.218008
 20
170.736628
 30
0.0
 10
261.218008
 20
171.602460
 30
0.0
  0
LINE
  5
136
100
AcDbEntity
  8
Layer_1
 62
6
100
AcDbLine
 10
261.218008
 20
171.602460
 30
0.0
 11
261.218008
 21
171.602460
 31
0.0
  0
SPLINE
  5
137
100
AcDbEntity
  8
Layer_1
 62
6
100
AcDbSpline
 70
8
 71
3
 72
8
 73
4
 74
0
 40
0
 40
0
 40
0
 40
0
 40
1
 40
1
 40
1
 40
1
 10
173.244002
 20
175.049059
 30
0.0
 10
173.244002
 20
175.914891
 30
0.0
 10
173.945835
 20
176.616700
 30
0.0
 10
174.811630
 20
176.616700
 30
0.0
  0
SPLINE
  5
138
100
AcDbEntity
  8
Layer_1
 62
6
100
AcDbSpline
 70
8
 71
3
 72
8
 73
4
 74
0
 40
0
 40
0
 40
0
 40
0
 40
1
 40
1
 40
1
 40
1
 10
174.811630
 20
176.616700
 30
0.0
 10
175.677451
 20
176.616700
 30
0.0
 10
176.379284
 20
175.914891
 30
0.0
 10
176.379284
 20
175.049059
 30
0.0
  0
SPLINE
  5
139
100
AcDbEntity
  8
Layer_1
 62
6
100
AcDbSpline
 70
8
 71
3
 72
8
 73
4
 74
0
 40
0
 40
0
 40
0
 40
0
 40
1
 40
1
 40
1
 40
1
 10
176.379284
 20
175.049059
 30
0.0
 10
176.379284
 20
174.183227
 30
0.0
 10
175.677451
 20
173.481418
 30
0.0
 10
174.811630
 20
173.481418
 30
0.0
  0
SPLINE
  5
13a
100
AcDbEntity
  8
Layer_1
 62
6
100
AcDbSpline
 70
8
 71
3
 72
8
 73
4
 74
0
 40
0
 40
0
 40
0
 40
0
 40
1
 40
1
 40
1
 40
1
 10
174.811630
 20
173.481418
 30
0.0
 10
173.945835
 20
173.481418
 30
0.0
 10
173.244002
 20
174.183227
 30
0.0
 10
173.244002
 20
175.049059
 30
0.0
  0
LINE
  5
13b
100
AcDbEntity
  8
Layer_1
 62
6
100
AcDbLine
 10
173.244002
 20
175.049059
 30
0.0
 11
173.244002
 21
175.049059
 31
0.0
  0
SPLINE
  5
13c
100
AcDbEntity
  8
Layer_1
 62
6
100
AcDbSpline
 70
8
 71
3
 72
8
 73
4
 74
0
 40
0
 40
0
 40
0
 40
0
 40
1
 40
1
 40
1
 40
1
 10
261.217133
 20
145.997205
 30
0.0
 10
261.217133
 20
146.863037
 30
0.0
 10
261.918965
 20
147.564846
 30
0.0
 10
262.784760
 20
147.564846
 30
0.0
  0
SPLINE
  5
13d
100
AcDbEntity
  8
Layer_1
 62
6
100
AcDbSpline
 70
8
 71
3
 72
8
 73
4
 74
0
 40
0
 40
0
 40
0
 40
0
 40
1
 40
1
 40
1
 40
1
 10
262.784760
 20
147.564846
 30
0.0
 10
263.650582
 20
147.564846
 30
0.0
 10
264.352415
 20
146.863037
 30
0.0
 10
264.352415
 20
145.997205
 30
0.0
  0
SPLINE
  5
13e
100
AcDbEntity
  8
Layer_1
 62
6
100
AcDbSpline
 70
8
 71
3
 72
8
 73
4
 74
0
 40
0
 40
0
 40
0
 40
0
 40
1
 40
1
 40
1
 40
1
 10
264.352415
 20
145.997205
 30
0.0
 10
264.352415
 20
145.131373
 30
0.0
 10
263.650582
 20
144.429564
 30
0.0
 10
262.784760
 20
144.429564
 30
0.0
  0
SPLINE
  5
13f
100
AcDbEntity
  8
Layer_1
 62
6
100
AcDbSpline
 70
8
 71
3
 72
8
 73
4
 74
0
 40
0
 40
0
 40
0
 40
0
 40
1
 40
1
 40
1
 40
1
 10
262.784760
 20
144.429564
 30
0.0
 10
261.918965
 20
144.429564
 30
0.0
 10
261.217133
 20
145.131373
 30
0.0
 10
261.217133
 20
145.997205
 30
0.0
  0
LINE
  5
140
100
AcDbEntity
  8
Layer_1
 62
6
100
AcDbLine
 10
261.217133
 20
145.997205
 30
0.0
 11
261.217133
 21
145.997205
 31
0.0
  0
LINE
  5
141
100
AcDbEntity
  8
Layer_1
 62
6
100
AcDbLine
 10
-22.766863
 20
189.176509
 30
0.0
 11
-23.692482
 21
189.176509
 31
0.0
  0
LINE
  5
142
100
AcDbEntity
  8
Layer_1
 62
6
100
AcDbLine
 10
-23.692482
 20
189.176509
 30
0.0
 11
-26.026162
 21
189.176991
 31
0.0
  0
LINE
  5
143
100
AcDbEntity
  8
Layer_1
 62
6
100
AcDbLine
 10
-26.026162
 20
189.176991
 30
0.0
 11
-69.535834
 21
189.176995
 31
0.0
  0
SPLINE
  5
144
100
AcDbEntity
  8
Layer_1
 62
6
100
AcDbSpline
 70
8
 71
3
 72
8
 73
4
 74
0
 40
0
 40
0
 40
0
 40
0
 40
1
 40
1
 40
1
 40
1
 10
-69.535834
 20
189.176995
 30
0.0
 10
-70.899257
 20
189.176995
 30
0.0
 10
-72.224855
 20
188.692058
 30
0.0
 10
-73.308409
 20
187.796892
 30
0.0
  0
LINE
  5
145
100
AcDbEntity
  8
Layer_1
 62
6
100
AcDbLine
 10
-73.308409
 20
187.796892
 30
0.0
 11
-76.778709
 21
184.929944
 31
0.0
  0
SPLINE
  5
146
100
AcDbEntity
  8
Layer_1
 62
6
100
AcDbSpline
 70
8
 71
3
 72
8
 73
4
 74
0
 40
0
 40
0
 40
0
 40
0
 40
1
 40
1
 40
1
 40
1
 10
-76.778709
 20
184.929944
 30
0.0
 10
-77.693614
 20
184.174104
 30
0.0
 10
-78.433566
 20
182.551877
 30
0.0
 10
-78.431937
 20
181.306598
 30
0.0
  0
SPLINE
  5
147
100
AcDbEntity
  8
Layer_1
 62
6
100
AcDbSpline
 70
8
 71
3
 72
8
 73
4
 74
0
 40
0
 40
0
 40
0
 40
0
 40
1
 40
1
 40
1
 40
1
 10
-78.431937
 20
181.306598
 30
0.0
 10
-78.400320
 20
157.142524
 30
0.0
 10
-78.492370
 20
125.463988
 30
0.0
 10
-78.434463
 20
101.321493
 30
0.0
  0
SPLINE
  5
148
100
AcDbEntity
  8
Layer_1
 62
6
100
AcDbSpline
 70
8
 71
3
 72
8
 73
4
 74
0
 40
0
 40
0
 40
0
 40
0
 40
1
 40
1
 40
1
 40
1
 10
-78.434463
 20
101.321493
 30
0.0
 10
-78.431621
 20
100.126809
 30
0.0
 10
-77.533417
 20
99.158338
 30
0.0
 10
-76.428900
 20
99.158361
 30
0.0
  0
LINE
  5
149
100
AcDbEntity
  8
Layer_1
 62
6
100
AcDbLine
 10
-76.428900
 20
99.158361
 30
0.0
 11
277.823400
 21
99.165194
 31
0.0
  0
SPLINE
  5
14a
100
AcDbEntity
  8
Layer_1
 62
6
100
AcDbSpline
 70
8
 71
3
 72
8
 73
4
 74
0
 40
0
 40
0
 40
0
 40
0
 40
1
 40
1
 40
1
 40
1
 10
277.823400
 20
99.165194
 30
0.0
 10
278.882558
 20
99.165217
 30
0.0
 10
279.740970
 20
100.094009
 30
0.0
 10
279.740770
 20
101.239711
 30
0.0
  0
SPLINE
  5
14b
100
AcDbEntity
  8
Layer_1
 62
6
100
AcDbSpline
 70
8
 71
3
 72
8
 73
4
 74
0
 40
0
 40
0
 40
0
 40
0
 40
1
 40
1
 40
1
 40
1
 10
279.740770
 20
101.239711
 30
0.0
 10
279.740591
 20
102.207567
 30
0.0
 10
279.740443
 20
103.191207
 30
0.0
 10
279.740275
 20
104.190565
 30
0.0
  0
SPLINE
  5
14c
100
AcDbEntity
  8
Layer_1
 62
6
100
AcDbSpline
 70
8
 71
3
 72
8
 73
4
 74
0
 40
0
 40
0
 40
0
 40
0
 40
1
 40
1
 40
1
 40
1
 10
279.740275
 20
104.190565
 30
0.0
 10
279.739780
 20
107.199455
 30
0.0
 10
279.739306
 20
168.301794
 30
0.0
 10
279.738169
 20
181.288363
 30
0.0
  0
SPLINE
  5
14d
100
AcDbEntity
  8
Layer_1
 62
6
100
AcDbSpline
 70
8
 71
3
 72
8
 73
4
 74
0
 40
0
 40
0
 40
0
 40
0
 40
1
 40
1
 40
1
 40
1
 10
279.738169
 20
181.288363
 30
0.0
 10
279.738085
 20
182.543103
 30
0.0
 10
278.990600
 20
184.177658
 30
0.0
 10
278.068743
 20
184.939242
 30
0.0
  0
LINE
  5
14e
100
AcDbEntity
  8
Layer_1
 62
6
100
AcDbLine
 10
278.068743
 20
184.939242
 30
0.0
 11
274.592412
 21
187.811177
 31
0.0
  0
SPLINE
  5
14f
100
AcDbEntity
  8
Layer_1
 62
6
100
AcDbSpline
 70
8
 71
3
 72
8
 73
4
 74
0
 40
0
 40
0
 40
0
 40
0
 40
1
 40
1
 40
1
 40
1
 10
274.592412
 20
187.811177
 30
0.0
 10
273.520941
 20
188.696362
 30
0.0
 10
272.210123
 20
189.175892
 30
0.0
 10
270.861904
 20
189.175891
 30
0.0
  0
LINE
  5
150
100
AcDbEntity
  8
Layer_1
 62
6
100
AcDbLine
 10
270.861904
 20
189.175891
 30
0.0
 11
3.143856
 21
189.175907
 31
0.0
  0
LINE
  5
151
100
AcDbEntity
  8
Layer_1
 62
6
100
AcDbLine
 10
3.143856
 20
189.175907
 30
0.0
 11
1.007798
 21
189.174427
 31
0.0
  0
LINE
  5
152
100
AcDbEntity
  8
Layer_1
 62
6
100
AcDbLine
 10
1.007798
 20
189.174427
 30
0.0
 11
0.082474
 21
189.174427
 31
0.0
  0
ENDSEC
  0
SECTION
  2
OBJECTS
  0
DICTIONARY
  5
C
330
0
100
AcDbDictionary
  3
ACAD_GROUP
350
D
  3
ACAD_MLINESTYLE
350
17
  0
DICTIONARY
  5
D
330
C
100
AcDbDictionary
  0
DICTIONARY
  5
1A
330
C
100
AcDbDictionary
  0
DICTIONARY
  5
17
330
C
100
AcDbDictionary
  3
STANDARD
350
18
  0
DICTIONARY
  5
19
330
C
100
AcDbDictionary
  0
ENDSEC
  0
EOF
